%TF.GenerationSoftware,KiCad,Pcbnew,5.1.9-73d0e3b20d~88~ubuntu20.04.1*%
%TF.CreationDate,2021-01-19T09:01:57+01:00*%
%TF.ProjectId,luncheonmeat,6c756e63-6865-46f6-9e6d-6561742e6b69,v0.2.3*%
%TF.SameCoordinates,PX4f27ac0PYb80f240*%
%TF.FileFunction,Soldermask,Bot*%
%TF.FilePolarity,Negative*%
%FSLAX46Y46*%
G04 Gerber Fmt 4.6, Leading zero omitted, Abs format (unit mm)*
G04 Created by KiCad (PCBNEW 5.1.9-73d0e3b20d~88~ubuntu20.04.1) date 2021-01-19 09:01:57*
%MOMM*%
%LPD*%
G01*
G04 APERTURE LIST*
%ADD10C,2.000000*%
%ADD11C,0.800000*%
%ADD12C,1.800000*%
%ADD13C,1.700000*%
%ADD14C,3.200000*%
%ADD15C,1.524000*%
G04 APERTURE END LIST*
D10*
%TO.C,SW3*%
X23500000Y33000000D03*
X23500000Y28500000D03*
X17000000Y33000000D03*
X17000000Y28500000D03*
%TD*%
%TO.C,SW11*%
X63500000Y33000000D03*
X63500000Y28500000D03*
X57000000Y33000000D03*
X57000000Y28500000D03*
%TD*%
%TO.C,SW10*%
X63500000Y53000000D03*
X63500000Y48500000D03*
X57000000Y53000000D03*
X57000000Y48500000D03*
%TD*%
%TO.C,SW7*%
X43500000Y33000000D03*
X43500000Y28500000D03*
X37000000Y33000000D03*
X37000000Y28500000D03*
%TD*%
%TO.C,SW2*%
X23500000Y53000000D03*
X23500000Y48500000D03*
X17000000Y53000000D03*
X17000000Y48500000D03*
%TD*%
D11*
%TO.C,J1*%
X51500000Y124200000D03*
X56500000Y124200000D03*
D12*
X50125000Y126950000D03*
X57875000Y126950000D03*
D10*
X50275000Y123150000D03*
X57725000Y123150000D03*
%TD*%
%TO.C,SW6*%
X43500000Y53000000D03*
X43500000Y48500000D03*
X37000000Y53000000D03*
X37000000Y48500000D03*
%TD*%
D13*
%TO.C,J2*%
X6540000Y66960000D03*
X6540000Y69500000D03*
X6540000Y72040000D03*
X4000000Y66960000D03*
X4000000Y69500000D03*
G36*
G01*
X3150000Y71440000D02*
X3150000Y72640000D01*
G75*
G02*
X3400000Y72890000I250000J0D01*
G01*
X4600000Y72890000D01*
G75*
G02*
X4850000Y72640000I0J-250000D01*
G01*
X4850000Y71440000D01*
G75*
G02*
X4600000Y71190000I-250000J0D01*
G01*
X3400000Y71190000D01*
G75*
G02*
X3150000Y71440000I0J250000D01*
G01*
G37*
%TD*%
D10*
%TO.C,SW12*%
X63500000Y13000000D03*
X63500000Y8500000D03*
X57000000Y13000000D03*
X57000000Y8500000D03*
%TD*%
%TO.C,SW9*%
X63500000Y73000000D03*
X63500000Y68500000D03*
X57000000Y73000000D03*
X57000000Y68500000D03*
%TD*%
%TO.C,SW8*%
X43500000Y13000000D03*
X43500000Y8500000D03*
X37000000Y13000000D03*
X37000000Y8500000D03*
%TD*%
%TO.C,SW5*%
X43500000Y73000000D03*
X43500000Y68500000D03*
X37000000Y73000000D03*
X37000000Y68500000D03*
%TD*%
%TO.C,SW4*%
X23500000Y13000000D03*
X23500000Y8500000D03*
X17000000Y13000000D03*
X17000000Y8500000D03*
%TD*%
%TO.C,SW1*%
X23500000Y73000000D03*
X23500000Y68500000D03*
X17000000Y73000000D03*
X17000000Y68500000D03*
%TD*%
D14*
%TO.C,H1*%
X3000000Y125500000D03*
%TD*%
%TO.C,H2*%
X3000000Y82000000D03*
%TD*%
%TO.C,H3*%
X3000000Y3000000D03*
%TD*%
%TO.C,H4*%
X78000000Y125500000D03*
%TD*%
%TO.C,H5*%
X78000000Y81500000D03*
%TD*%
%TO.C,H6*%
X78000000Y3000000D03*
%TD*%
D15*
%TO.C,U3*%
X65800000Y88032000D03*
X68340000Y88032000D03*
X63260000Y88032000D03*
X70880000Y88032000D03*
X60720000Y88032000D03*
X70880000Y118512000D03*
X68340000Y118512000D03*
X65800000Y118512000D03*
X63260000Y118512000D03*
X60720000Y118512000D03*
%TD*%
%TO.C,U4*%
X41500000Y88032000D03*
X44040000Y88032000D03*
X38960000Y88032000D03*
X46580000Y88032000D03*
X36420000Y88032000D03*
X46580000Y118512000D03*
X44040000Y118512000D03*
X41500000Y118512000D03*
X38960000Y118512000D03*
X36420000Y118512000D03*
%TD*%
%TO.C,U5*%
X12120000Y118512000D03*
X14660000Y118512000D03*
X17200000Y118512000D03*
X19740000Y118512000D03*
X22280000Y118512000D03*
X12120000Y88032000D03*
X22280000Y88032000D03*
X14660000Y88032000D03*
X19740000Y88032000D03*
X17200000Y88032000D03*
%TD*%
M02*
