%TF.GenerationSoftware,KiCad,Pcbnew,5.1.9-73d0e3b20d~88~ubuntu20.04.1*%
%TF.CreationDate,2021-01-19T09:01:57+01:00*%
%TF.ProjectId,luncheonmeat,6c756e63-6865-46f6-9e6d-6561742e6b69,v0.2.3*%
%TF.SameCoordinates,PX4f27ac0PYb80f240*%
%TF.FileFunction,Soldermask,Top*%
%TF.FilePolarity,Negative*%
%FSLAX46Y46*%
G04 Gerber Fmt 4.6, Leading zero omitted, Abs format (unit mm)*
G04 Created by KiCad (PCBNEW 5.1.9-73d0e3b20d~88~ubuntu20.04.1) date 2021-01-19 09:01:57*
%MOMM*%
%LPD*%
G01*
G04 APERTURE LIST*
%ADD10C,0.150000*%
%ADD11C,2.000000*%
%ADD12R,2.800000X1.000000*%
%ADD13R,0.800000X0.900000*%
%ADD14C,0.800000*%
%ADD15C,1.800000*%
%ADD16R,0.450000X1.300000*%
%ADD17C,1.700000*%
%ADD18R,1.200000X0.400000*%
%ADD19C,3.200000*%
%ADD20C,1.524000*%
G04 APERTURE END LIST*
%TO.C,D2*%
G36*
G01*
X68912500Y126650001D02*
X68912500Y125849999D01*
G75*
G02*
X68662501Y125600000I-249999J0D01*
G01*
X67837499Y125600000D01*
G75*
G02*
X67587500Y125849999I0J249999D01*
G01*
X67587500Y126650001D01*
G75*
G02*
X67837499Y126900000I249999J0D01*
G01*
X68662501Y126900000D01*
G75*
G02*
X68912500Y126650001I0J-249999D01*
G01*
G37*
G36*
G01*
X70837500Y126650001D02*
X70837500Y125849999D01*
G75*
G02*
X70587501Y125600000I-249999J0D01*
G01*
X69762499Y125600000D01*
G75*
G02*
X69512500Y125849999I0J249999D01*
G01*
X69512500Y126650001D01*
G75*
G02*
X69762499Y126900000I249999J0D01*
G01*
X70587501Y126900000D01*
G75*
G02*
X70837500Y126650001I0J-249999D01*
G01*
G37*
%TD*%
%TO.C,R15*%
G36*
G01*
X24549999Y113600000D02*
X25450001Y113600000D01*
G75*
G02*
X25700000Y113350001I0J-249999D01*
G01*
X25700000Y112649999D01*
G75*
G02*
X25450001Y112400000I-249999J0D01*
G01*
X24549999Y112400000D01*
G75*
G02*
X24300000Y112649999I0J249999D01*
G01*
X24300000Y113350001D01*
G75*
G02*
X24549999Y113600000I249999J0D01*
G01*
G37*
G36*
G01*
X24549999Y115600000D02*
X25450001Y115600000D01*
G75*
G02*
X25700000Y115350001I0J-249999D01*
G01*
X25700000Y114649999D01*
G75*
G02*
X25450001Y114400000I-249999J0D01*
G01*
X24549999Y114400000D01*
G75*
G02*
X24300000Y114649999I0J249999D01*
G01*
X24300000Y115350001D01*
G75*
G02*
X24549999Y115600000I249999J0D01*
G01*
G37*
%TD*%
%TO.C,R2*%
G36*
G01*
X8850000Y122950001D02*
X8850000Y122049999D01*
G75*
G02*
X8600001Y121800000I-249999J0D01*
G01*
X7899999Y121800000D01*
G75*
G02*
X7650000Y122049999I0J249999D01*
G01*
X7650000Y122950001D01*
G75*
G02*
X7899999Y123200000I249999J0D01*
G01*
X8600001Y123200000D01*
G75*
G02*
X8850000Y122950001I0J-249999D01*
G01*
G37*
G36*
G01*
X10850000Y122950001D02*
X10850000Y122049999D01*
G75*
G02*
X10600001Y121800000I-249999J0D01*
G01*
X9899999Y121800000D01*
G75*
G02*
X9650000Y122049999I0J249999D01*
G01*
X9650000Y122950001D01*
G75*
G02*
X9899999Y123200000I249999J0D01*
G01*
X10600001Y123200000D01*
G75*
G02*
X10850000Y122950001I0J-249999D01*
G01*
G37*
%TD*%
%TO.C,D1*%
G36*
G01*
X8987500Y126400001D02*
X8987500Y125599999D01*
G75*
G02*
X8737501Y125350000I-249999J0D01*
G01*
X7912499Y125350000D01*
G75*
G02*
X7662500Y125599999I0J249999D01*
G01*
X7662500Y126400001D01*
G75*
G02*
X7912499Y126650000I249999J0D01*
G01*
X8737501Y126650000D01*
G75*
G02*
X8987500Y126400001I0J-249999D01*
G01*
G37*
G36*
G01*
X10912500Y126400001D02*
X10912500Y125599999D01*
G75*
G02*
X10662501Y125350000I-249999J0D01*
G01*
X9837499Y125350000D01*
G75*
G02*
X9587500Y125599999I0J249999D01*
G01*
X9587500Y126400001D01*
G75*
G02*
X9837499Y126650000I249999J0D01*
G01*
X10662501Y126650000D01*
G75*
G02*
X10912500Y126400001I0J-249999D01*
G01*
G37*
%TD*%
%TO.C,R17*%
G36*
G01*
X46900000Y103049999D02*
X46900000Y103950001D01*
G75*
G02*
X47149999Y104200000I249999J0D01*
G01*
X47850001Y104200000D01*
G75*
G02*
X48100000Y103950001I0J-249999D01*
G01*
X48100000Y103049999D01*
G75*
G02*
X47850001Y102800000I-249999J0D01*
G01*
X47149999Y102800000D01*
G75*
G02*
X46900000Y103049999I0J249999D01*
G01*
G37*
G36*
G01*
X44900000Y103049999D02*
X44900000Y103950001D01*
G75*
G02*
X45149999Y104200000I249999J0D01*
G01*
X45850001Y104200000D01*
G75*
G02*
X46100000Y103950001I0J-249999D01*
G01*
X46100000Y103049999D01*
G75*
G02*
X45850001Y102800000I-249999J0D01*
G01*
X45149999Y102800000D01*
G75*
G02*
X44900000Y103049999I0J249999D01*
G01*
G37*
%TD*%
%TO.C,R19*%
G36*
G01*
X66049999Y108850000D02*
X66950001Y108850000D01*
G75*
G02*
X67200000Y108600001I0J-249999D01*
G01*
X67200000Y107899999D01*
G75*
G02*
X66950001Y107650000I-249999J0D01*
G01*
X66049999Y107650000D01*
G75*
G02*
X65800000Y107899999I0J249999D01*
G01*
X65800000Y108600001D01*
G75*
G02*
X66049999Y108850000I249999J0D01*
G01*
G37*
G36*
G01*
X66049999Y110850000D02*
X66950001Y110850000D01*
G75*
G02*
X67200000Y110600001I0J-249999D01*
G01*
X67200000Y109899999D01*
G75*
G02*
X66950001Y109650000I-249999J0D01*
G01*
X66049999Y109650000D01*
G75*
G02*
X65800000Y109899999I0J249999D01*
G01*
X65800000Y110600001D01*
G75*
G02*
X66049999Y110850000I249999J0D01*
G01*
G37*
%TD*%
%TO.C,C13*%
G36*
G01*
X9102252Y110438128D02*
X9438128Y110102252D01*
G75*
G02*
X9438128Y109766376I-167938J-167938D01*
G01*
X9013864Y109342112D01*
G75*
G02*
X8677988Y109342112I-167938J167938D01*
G01*
X8342112Y109677988D01*
G75*
G02*
X8342112Y110013864I167938J167938D01*
G01*
X8766376Y110438128D01*
G75*
G02*
X9102252Y110438128I167938J-167938D01*
G01*
G37*
G36*
G01*
X10322012Y111657888D02*
X10657888Y111322012D01*
G75*
G02*
X10657888Y110986136I-167938J-167938D01*
G01*
X10233624Y110561872D01*
G75*
G02*
X9897748Y110561872I-167938J167938D01*
G01*
X9561872Y110897748D01*
G75*
G02*
X9561872Y111233624I167938J167938D01*
G01*
X9986136Y111657888D01*
G75*
G02*
X10322012Y111657888I167938J-167938D01*
G01*
G37*
%TD*%
%TO.C,R21*%
G36*
G01*
X11950001Y114900000D02*
X11049999Y114900000D01*
G75*
G02*
X10800000Y115149999I0J249999D01*
G01*
X10800000Y115850001D01*
G75*
G02*
X11049999Y116100000I249999J0D01*
G01*
X11950001Y116100000D01*
G75*
G02*
X12200000Y115850001I0J-249999D01*
G01*
X12200000Y115149999D01*
G75*
G02*
X11950001Y114900000I-249999J0D01*
G01*
G37*
G36*
G01*
X11950001Y112900000D02*
X11049999Y112900000D01*
G75*
G02*
X10800000Y113149999I0J249999D01*
G01*
X10800000Y113850001D01*
G75*
G02*
X11049999Y114100000I249999J0D01*
G01*
X11950001Y114100000D01*
G75*
G02*
X12200000Y113850001I0J-249999D01*
G01*
X12200000Y113149999D01*
G75*
G02*
X11950001Y112900000I-249999J0D01*
G01*
G37*
%TD*%
%TO.C,R13*%
G36*
G01*
X32549999Y113600000D02*
X33450001Y113600000D01*
G75*
G02*
X33700000Y113350001I0J-249999D01*
G01*
X33700000Y112649999D01*
G75*
G02*
X33450001Y112400000I-249999J0D01*
G01*
X32549999Y112400000D01*
G75*
G02*
X32300000Y112649999I0J249999D01*
G01*
X32300000Y113350001D01*
G75*
G02*
X32549999Y113600000I249999J0D01*
G01*
G37*
G36*
G01*
X32549999Y115600000D02*
X33450001Y115600000D01*
G75*
G02*
X33700000Y115350001I0J-249999D01*
G01*
X33700000Y114649999D01*
G75*
G02*
X33450001Y114400000I-249999J0D01*
G01*
X32549999Y114400000D01*
G75*
G02*
X32300000Y114649999I0J249999D01*
G01*
X32300000Y115350001D01*
G75*
G02*
X32549999Y115600000I249999J0D01*
G01*
G37*
%TD*%
%TO.C,R6*%
G36*
G01*
X51549999Y112100000D02*
X52450001Y112100000D01*
G75*
G02*
X52700000Y111850001I0J-249999D01*
G01*
X52700000Y111149999D01*
G75*
G02*
X52450001Y110900000I-249999J0D01*
G01*
X51549999Y110900000D01*
G75*
G02*
X51300000Y111149999I0J249999D01*
G01*
X51300000Y111850001D01*
G75*
G02*
X51549999Y112100000I249999J0D01*
G01*
G37*
G36*
G01*
X51549999Y114100000D02*
X52450001Y114100000D01*
G75*
G02*
X52700000Y113850001I0J-249999D01*
G01*
X52700000Y113149999D01*
G75*
G02*
X52450001Y112900000I-249999J0D01*
G01*
X51549999Y112900000D01*
G75*
G02*
X51300000Y113149999I0J249999D01*
G01*
X51300000Y113850001D01*
G75*
G02*
X51549999Y114100000I249999J0D01*
G01*
G37*
%TD*%
D10*
%TO.C,U1*%
G36*
X21654074Y106224963D02*
G01*
X21265165Y106613872D01*
X22396536Y107745243D01*
X22785445Y107356334D01*
X21654074Y106224963D01*
G37*
G36*
X22219759Y105659277D02*
G01*
X21830850Y106048186D01*
X22962221Y107179557D01*
X23351130Y106790648D01*
X22219759Y105659277D01*
G37*
G36*
X22785445Y105093592D02*
G01*
X22396536Y105482501D01*
X23527907Y106613872D01*
X23916816Y106224963D01*
X22785445Y105093592D01*
G37*
G36*
X23351130Y104527907D02*
G01*
X22962221Y104916816D01*
X24093592Y106048187D01*
X24482501Y105659278D01*
X23351130Y104527907D01*
G37*
G36*
X23916816Y103962221D02*
G01*
X23527907Y104351130D01*
X24659278Y105482501D01*
X25048187Y105093592D01*
X23916816Y103962221D01*
G37*
G36*
X24482501Y103396536D02*
G01*
X24093592Y103785445D01*
X25224963Y104916816D01*
X25613872Y104527907D01*
X24482501Y103396536D01*
G37*
G36*
X25048186Y102830850D02*
G01*
X24659277Y103219759D01*
X25790648Y104351130D01*
X26179557Y103962221D01*
X25048186Y102830850D01*
G37*
G36*
X25613872Y102265165D02*
G01*
X25224963Y102654074D01*
X26356334Y103785445D01*
X26745243Y103396536D01*
X25613872Y102265165D01*
G37*
G36*
X25224963Y101345926D02*
G01*
X25613872Y101734835D01*
X26745243Y100603464D01*
X26356334Y100214555D01*
X25224963Y101345926D01*
G37*
G36*
X24659277Y100780241D02*
G01*
X25048186Y101169150D01*
X26179557Y100037779D01*
X25790648Y99648870D01*
X24659277Y100780241D01*
G37*
G36*
X24093592Y100214555D02*
G01*
X24482501Y100603464D01*
X25613872Y99472093D01*
X25224963Y99083184D01*
X24093592Y100214555D01*
G37*
G36*
X23527907Y99648870D02*
G01*
X23916816Y100037779D01*
X25048187Y98906408D01*
X24659278Y98517499D01*
X23527907Y99648870D01*
G37*
G36*
X22962221Y99083184D02*
G01*
X23351130Y99472093D01*
X24482501Y98340722D01*
X24093592Y97951813D01*
X22962221Y99083184D01*
G37*
G36*
X22396536Y98517499D02*
G01*
X22785445Y98906408D01*
X23916816Y97775037D01*
X23527907Y97386128D01*
X22396536Y98517499D01*
G37*
G36*
X21830850Y97951814D02*
G01*
X22219759Y98340723D01*
X23351130Y97209352D01*
X22962221Y96820443D01*
X21830850Y97951814D01*
G37*
G36*
X21265165Y97386128D02*
G01*
X21654074Y97775037D01*
X22785445Y96643666D01*
X22396536Y96254757D01*
X21265165Y97386128D01*
G37*
G36*
X19603464Y96254757D02*
G01*
X19214555Y96643666D01*
X20345926Y97775037D01*
X20734835Y97386128D01*
X19603464Y96254757D01*
G37*
G36*
X19037779Y96820443D02*
G01*
X18648870Y97209352D01*
X19780241Y98340723D01*
X20169150Y97951814D01*
X19037779Y96820443D01*
G37*
G36*
X18472093Y97386128D02*
G01*
X18083184Y97775037D01*
X19214555Y98906408D01*
X19603464Y98517499D01*
X18472093Y97386128D01*
G37*
G36*
X17906408Y97951813D02*
G01*
X17517499Y98340722D01*
X18648870Y99472093D01*
X19037779Y99083184D01*
X17906408Y97951813D01*
G37*
G36*
X17340722Y98517499D02*
G01*
X16951813Y98906408D01*
X18083184Y100037779D01*
X18472093Y99648870D01*
X17340722Y98517499D01*
G37*
G36*
X16775037Y99083184D02*
G01*
X16386128Y99472093D01*
X17517499Y100603464D01*
X17906408Y100214555D01*
X16775037Y99083184D01*
G37*
G36*
X16209352Y99648870D02*
G01*
X15820443Y100037779D01*
X16951814Y101169150D01*
X17340723Y100780241D01*
X16209352Y99648870D01*
G37*
G36*
X15643666Y100214555D02*
G01*
X15254757Y100603464D01*
X16386128Y101734835D01*
X16775037Y101345926D01*
X15643666Y100214555D01*
G37*
G36*
X15254757Y103396536D02*
G01*
X15643666Y103785445D01*
X16775037Y102654074D01*
X16386128Y102265165D01*
X15254757Y103396536D01*
G37*
G36*
X15820443Y103962221D02*
G01*
X16209352Y104351130D01*
X17340723Y103219759D01*
X16951814Y102830850D01*
X15820443Y103962221D01*
G37*
G36*
X16386128Y104527907D02*
G01*
X16775037Y104916816D01*
X17906408Y103785445D01*
X17517499Y103396536D01*
X16386128Y104527907D01*
G37*
G36*
X16951813Y105093592D02*
G01*
X17340722Y105482501D01*
X18472093Y104351130D01*
X18083184Y103962221D01*
X16951813Y105093592D01*
G37*
G36*
X17517499Y105659278D02*
G01*
X17906408Y106048187D01*
X19037779Y104916816D01*
X18648870Y104527907D01*
X17517499Y105659278D01*
G37*
G36*
X18083184Y106224963D02*
G01*
X18472093Y106613872D01*
X19603464Y105482501D01*
X19214555Y105093592D01*
X18083184Y106224963D01*
G37*
G36*
X18648870Y106790648D02*
G01*
X19037779Y107179557D01*
X20169150Y106048186D01*
X19780241Y105659277D01*
X18648870Y106790648D01*
G37*
G36*
X19214555Y107356334D02*
G01*
X19603464Y107745243D01*
X20734835Y106613872D01*
X20345926Y106224963D01*
X19214555Y107356334D01*
G37*
%TD*%
%TO.C,L1*%
G36*
G01*
X58549999Y112525000D02*
X59450001Y112525000D01*
G75*
G02*
X59700000Y112275001I0J-249999D01*
G01*
X59700000Y111624999D01*
G75*
G02*
X59450001Y111375000I-249999J0D01*
G01*
X58549999Y111375000D01*
G75*
G02*
X58300000Y111624999I0J249999D01*
G01*
X58300000Y112275001D01*
G75*
G02*
X58549999Y112525000I249999J0D01*
G01*
G37*
G36*
G01*
X58549999Y114575000D02*
X59450001Y114575000D01*
G75*
G02*
X59700000Y114325001I0J-249999D01*
G01*
X59700000Y113674999D01*
G75*
G02*
X59450001Y113425000I-249999J0D01*
G01*
X58549999Y113425000D01*
G75*
G02*
X58300000Y113674999I0J249999D01*
G01*
X58300000Y114325001D01*
G75*
G02*
X58549999Y114575000I249999J0D01*
G01*
G37*
%TD*%
%TO.C,R11*%
G36*
G01*
X37450001Y95400000D02*
X36549999Y95400000D01*
G75*
G02*
X36300000Y95649999I0J249999D01*
G01*
X36300000Y96350001D01*
G75*
G02*
X36549999Y96600000I249999J0D01*
G01*
X37450001Y96600000D01*
G75*
G02*
X37700000Y96350001I0J-249999D01*
G01*
X37700000Y95649999D01*
G75*
G02*
X37450001Y95400000I-249999J0D01*
G01*
G37*
G36*
G01*
X37450001Y93400000D02*
X36549999Y93400000D01*
G75*
G02*
X36300000Y93649999I0J249999D01*
G01*
X36300000Y94350001D01*
G75*
G02*
X36549999Y94600000I249999J0D01*
G01*
X37450001Y94600000D01*
G75*
G02*
X37700000Y94350001I0J-249999D01*
G01*
X37700000Y93649999D01*
G75*
G02*
X37450001Y93400000I-249999J0D01*
G01*
G37*
%TD*%
%TO.C,R10*%
G36*
G01*
X34450001Y95400000D02*
X33549999Y95400000D01*
G75*
G02*
X33300000Y95649999I0J249999D01*
G01*
X33300000Y96350001D01*
G75*
G02*
X33549999Y96600000I249999J0D01*
G01*
X34450001Y96600000D01*
G75*
G02*
X34700000Y96350001I0J-249999D01*
G01*
X34700000Y95649999D01*
G75*
G02*
X34450001Y95400000I-249999J0D01*
G01*
G37*
G36*
G01*
X34450001Y93400000D02*
X33549999Y93400000D01*
G75*
G02*
X33300000Y93649999I0J249999D01*
G01*
X33300000Y94350001D01*
G75*
G02*
X33549999Y94600000I249999J0D01*
G01*
X34450001Y94600000D01*
G75*
G02*
X34700000Y94350001I0J-249999D01*
G01*
X34700000Y93649999D01*
G75*
G02*
X34450001Y93400000I-249999J0D01*
G01*
G37*
%TD*%
%TO.C,R7*%
G36*
G01*
X33799999Y124100000D02*
X34700001Y124100000D01*
G75*
G02*
X34950000Y123850001I0J-249999D01*
G01*
X34950000Y123149999D01*
G75*
G02*
X34700001Y122900000I-249999J0D01*
G01*
X33799999Y122900000D01*
G75*
G02*
X33550000Y123149999I0J249999D01*
G01*
X33550000Y123850001D01*
G75*
G02*
X33799999Y124100000I249999J0D01*
G01*
G37*
G36*
G01*
X33799999Y126100000D02*
X34700001Y126100000D01*
G75*
G02*
X34950000Y125850001I0J-249999D01*
G01*
X34950000Y125149999D01*
G75*
G02*
X34700001Y124900000I-249999J0D01*
G01*
X33799999Y124900000D01*
G75*
G02*
X33550000Y125149999I0J249999D01*
G01*
X33550000Y125850001D01*
G75*
G02*
X33799999Y126100000I249999J0D01*
G01*
G37*
%TD*%
%TO.C,R5*%
G36*
G01*
X54049999Y112100000D02*
X54950001Y112100000D01*
G75*
G02*
X55200000Y111850001I0J-249999D01*
G01*
X55200000Y111149999D01*
G75*
G02*
X54950001Y110900000I-249999J0D01*
G01*
X54049999Y110900000D01*
G75*
G02*
X53800000Y111149999I0J249999D01*
G01*
X53800000Y111850001D01*
G75*
G02*
X54049999Y112100000I249999J0D01*
G01*
G37*
G36*
G01*
X54049999Y114100000D02*
X54950001Y114100000D01*
G75*
G02*
X55200000Y113850001I0J-249999D01*
G01*
X55200000Y113149999D01*
G75*
G02*
X54950001Y112900000I-249999J0D01*
G01*
X54049999Y112900000D01*
G75*
G02*
X53800000Y113149999I0J249999D01*
G01*
X53800000Y113850001D01*
G75*
G02*
X54049999Y114100000I249999J0D01*
G01*
G37*
%TD*%
D11*
%TO.C,SW3*%
X23500000Y33000000D03*
X23500000Y28500000D03*
X17000000Y33000000D03*
X17000000Y28500000D03*
%TD*%
%TO.C,SW11*%
X63500000Y33000000D03*
X63500000Y28500000D03*
X57000000Y33000000D03*
X57000000Y28500000D03*
%TD*%
%TO.C,C3*%
G36*
G01*
X51450000Y115525000D02*
X51450000Y116475000D01*
G75*
G02*
X51700000Y116725000I250000J0D01*
G01*
X52375000Y116725000D01*
G75*
G02*
X52625000Y116475000I0J-250000D01*
G01*
X52625000Y115525000D01*
G75*
G02*
X52375000Y115275000I-250000J0D01*
G01*
X51700000Y115275000D01*
G75*
G02*
X51450000Y115525000I0J250000D01*
G01*
G37*
G36*
G01*
X49375000Y115525000D02*
X49375000Y116475000D01*
G75*
G02*
X49625000Y116725000I250000J0D01*
G01*
X50300000Y116725000D01*
G75*
G02*
X50550000Y116475000I0J-250000D01*
G01*
X50550000Y115525000D01*
G75*
G02*
X50300000Y115275000I-250000J0D01*
G01*
X49625000Y115275000D01*
G75*
G02*
X49375000Y115525000I0J250000D01*
G01*
G37*
%TD*%
%TO.C,C4*%
G36*
G01*
X55912500Y115525000D02*
X55912500Y116475000D01*
G75*
G02*
X56162500Y116725000I250000J0D01*
G01*
X56837500Y116725000D01*
G75*
G02*
X57087500Y116475000I0J-250000D01*
G01*
X57087500Y115525000D01*
G75*
G02*
X56837500Y115275000I-250000J0D01*
G01*
X56162500Y115275000D01*
G75*
G02*
X55912500Y115525000I0J250000D01*
G01*
G37*
G36*
G01*
X53837500Y115525000D02*
X53837500Y116475000D01*
G75*
G02*
X54087500Y116725000I250000J0D01*
G01*
X54762500Y116725000D01*
G75*
G02*
X55012500Y116475000I0J-250000D01*
G01*
X55012500Y115525000D01*
G75*
G02*
X54762500Y115275000I-250000J0D01*
G01*
X54087500Y115275000D01*
G75*
G02*
X53837500Y115525000I0J250000D01*
G01*
G37*
%TD*%
D12*
%TO.C,SW13*%
X15600000Y126500000D03*
X21400000Y126500000D03*
X15600000Y122500000D03*
X21400000Y122500000D03*
%TD*%
D11*
%TO.C,SW10*%
X63500000Y53000000D03*
X63500000Y48500000D03*
X57000000Y53000000D03*
X57000000Y48500000D03*
%TD*%
%TO.C,R8*%
G36*
G01*
X28049999Y124100000D02*
X28950001Y124100000D01*
G75*
G02*
X29200000Y123850001I0J-249999D01*
G01*
X29200000Y123149999D01*
G75*
G02*
X28950001Y122900000I-249999J0D01*
G01*
X28049999Y122900000D01*
G75*
G02*
X27800000Y123149999I0J249999D01*
G01*
X27800000Y123850001D01*
G75*
G02*
X28049999Y124100000I249999J0D01*
G01*
G37*
G36*
G01*
X28049999Y126100000D02*
X28950001Y126100000D01*
G75*
G02*
X29200000Y125850001I0J-249999D01*
G01*
X29200000Y125149999D01*
G75*
G02*
X28950001Y124900000I-249999J0D01*
G01*
X28049999Y124900000D01*
G75*
G02*
X27800000Y125149999I0J249999D01*
G01*
X27800000Y125850001D01*
G75*
G02*
X28049999Y126100000I249999J0D01*
G01*
G37*
%TD*%
%TO.C,SW7*%
X43500000Y33000000D03*
X43500000Y28500000D03*
X37000000Y33000000D03*
X37000000Y28500000D03*
%TD*%
%TO.C,R4*%
G36*
G01*
X62600000Y123700001D02*
X62600000Y122799999D01*
G75*
G02*
X62350001Y122550000I-249999J0D01*
G01*
X61649999Y122550000D01*
G75*
G02*
X61400000Y122799999I0J249999D01*
G01*
X61400000Y123700001D01*
G75*
G02*
X61649999Y123950000I249999J0D01*
G01*
X62350001Y123950000D01*
G75*
G02*
X62600000Y123700001I0J-249999D01*
G01*
G37*
G36*
G01*
X64600000Y123700001D02*
X64600000Y122799999D01*
G75*
G02*
X64350001Y122550000I-249999J0D01*
G01*
X63649999Y122550000D01*
G75*
G02*
X63400000Y122799999I0J249999D01*
G01*
X63400000Y123700001D01*
G75*
G02*
X63649999Y123950000I249999J0D01*
G01*
X64350001Y123950000D01*
G75*
G02*
X64600000Y123700001I0J-249999D01*
G01*
G37*
%TD*%
D13*
%TO.C,Q2*%
X41500000Y115250000D03*
X42450000Y113250000D03*
X40550000Y113250000D03*
%TD*%
D11*
%TO.C,SW2*%
X23500000Y53000000D03*
X23500000Y48500000D03*
X17000000Y53000000D03*
X17000000Y48500000D03*
%TD*%
D13*
%TO.C,Q3*%
X14750000Y115500000D03*
X15700000Y113500000D03*
X13800000Y113500000D03*
%TD*%
%TO.C,Q1*%
X67500000Y114750000D03*
X68450000Y112750000D03*
X66550000Y112750000D03*
%TD*%
D14*
%TO.C,J1*%
X51500000Y124200000D03*
X56500000Y124200000D03*
D15*
X50125000Y126950000D03*
X57875000Y126950000D03*
D11*
X50275000Y123150000D03*
X57725000Y123150000D03*
D16*
X52700000Y123100000D03*
X53350000Y123100000D03*
X54000000Y123100000D03*
X54650000Y123100000D03*
X55300000Y123100000D03*
%TD*%
D11*
%TO.C,SW6*%
X43500000Y53000000D03*
X43500000Y48500000D03*
X37000000Y53000000D03*
X37000000Y48500000D03*
%TD*%
%TO.C,C5*%
G36*
G01*
X46912500Y108025000D02*
X46912500Y108975000D01*
G75*
G02*
X47162500Y109225000I250000J0D01*
G01*
X47837500Y109225000D01*
G75*
G02*
X48087500Y108975000I0J-250000D01*
G01*
X48087500Y108025000D01*
G75*
G02*
X47837500Y107775000I-250000J0D01*
G01*
X47162500Y107775000D01*
G75*
G02*
X46912500Y108025000I0J250000D01*
G01*
G37*
G36*
G01*
X44837500Y108025000D02*
X44837500Y108975000D01*
G75*
G02*
X45087500Y109225000I250000J0D01*
G01*
X45762500Y109225000D01*
G75*
G02*
X46012500Y108975000I0J-250000D01*
G01*
X46012500Y108025000D01*
G75*
G02*
X45762500Y107775000I-250000J0D01*
G01*
X45087500Y107775000D01*
G75*
G02*
X44837500Y108025000I0J250000D01*
G01*
G37*
%TD*%
%TO.C,C6*%
G36*
G01*
X26329550Y95251301D02*
X27001301Y94579550D01*
G75*
G02*
X27001301Y94225996I-176777J-176777D01*
G01*
X26524004Y93748699D01*
G75*
G02*
X26170450Y93748699I-176777J176777D01*
G01*
X25498699Y94420450D01*
G75*
G02*
X25498699Y94774004I176777J176777D01*
G01*
X25975996Y95251301D01*
G75*
G02*
X26329550Y95251301I176777J-176777D01*
G01*
G37*
G36*
G01*
X27796796Y96718547D02*
X28468547Y96046796D01*
G75*
G02*
X28468547Y95693242I-176777J-176777D01*
G01*
X27991250Y95215945D01*
G75*
G02*
X27637696Y95215945I-176777J176777D01*
G01*
X26965945Y95887696D01*
G75*
G02*
X26965945Y96241250I176777J176777D01*
G01*
X27443242Y96718547D01*
G75*
G02*
X27796796Y96718547I176777J-176777D01*
G01*
G37*
%TD*%
%TO.C,C1*%
G36*
G01*
X44987500Y122525000D02*
X44987500Y123475000D01*
G75*
G02*
X45237500Y123725000I250000J0D01*
G01*
X45912500Y123725000D01*
G75*
G02*
X46162500Y123475000I0J-250000D01*
G01*
X46162500Y122525000D01*
G75*
G02*
X45912500Y122275000I-250000J0D01*
G01*
X45237500Y122275000D01*
G75*
G02*
X44987500Y122525000I0J250000D01*
G01*
G37*
G36*
G01*
X42912500Y122525000D02*
X42912500Y123475000D01*
G75*
G02*
X43162500Y123725000I250000J0D01*
G01*
X43837500Y123725000D01*
G75*
G02*
X44087500Y123475000I0J-250000D01*
G01*
X44087500Y122525000D01*
G75*
G02*
X43837500Y122275000I-250000J0D01*
G01*
X43162500Y122275000D01*
G75*
G02*
X42912500Y122525000I0J250000D01*
G01*
G37*
%TD*%
%TO.C,C2*%
G36*
G01*
X61975000Y113412500D02*
X61025000Y113412500D01*
G75*
G02*
X60775000Y113662500I0J250000D01*
G01*
X60775000Y114337500D01*
G75*
G02*
X61025000Y114587500I250000J0D01*
G01*
X61975000Y114587500D01*
G75*
G02*
X62225000Y114337500I0J-250000D01*
G01*
X62225000Y113662500D01*
G75*
G02*
X61975000Y113412500I-250000J0D01*
G01*
G37*
G36*
G01*
X61975000Y111337500D02*
X61025000Y111337500D01*
G75*
G02*
X60775000Y111587500I0J250000D01*
G01*
X60775000Y112262500D01*
G75*
G02*
X61025000Y112512500I250000J0D01*
G01*
X61975000Y112512500D01*
G75*
G02*
X62225000Y112262500I0J-250000D01*
G01*
X62225000Y111587500D01*
G75*
G02*
X61975000Y111337500I-250000J0D01*
G01*
G37*
%TD*%
%TO.C,C7*%
G36*
G01*
X25275000Y124050000D02*
X26225000Y124050000D01*
G75*
G02*
X26475000Y123800000I0J-250000D01*
G01*
X26475000Y123125000D01*
G75*
G02*
X26225000Y122875000I-250000J0D01*
G01*
X25275000Y122875000D01*
G75*
G02*
X25025000Y123125000I0J250000D01*
G01*
X25025000Y123800000D01*
G75*
G02*
X25275000Y124050000I250000J0D01*
G01*
G37*
G36*
G01*
X25275000Y126125000D02*
X26225000Y126125000D01*
G75*
G02*
X26475000Y125875000I0J-250000D01*
G01*
X26475000Y125200000D01*
G75*
G02*
X26225000Y124950000I-250000J0D01*
G01*
X25275000Y124950000D01*
G75*
G02*
X25025000Y125200000I0J250000D01*
G01*
X25025000Y125875000D01*
G75*
G02*
X25275000Y126125000I250000J0D01*
G01*
G37*
%TD*%
%TO.C,R18*%
G36*
G01*
X46900000Y100549999D02*
X46900000Y101450001D01*
G75*
G02*
X47149999Y101700000I249999J0D01*
G01*
X47850001Y101700000D01*
G75*
G02*
X48100000Y101450001I0J-249999D01*
G01*
X48100000Y100549999D01*
G75*
G02*
X47850001Y100300000I-249999J0D01*
G01*
X47149999Y100300000D01*
G75*
G02*
X46900000Y100549999I0J249999D01*
G01*
G37*
G36*
G01*
X44900000Y100549999D02*
X44900000Y101450001D01*
G75*
G02*
X45149999Y101700000I249999J0D01*
G01*
X45850001Y101700000D01*
G75*
G02*
X46100000Y101450001I0J-249999D01*
G01*
X46100000Y100549999D01*
G75*
G02*
X45850001Y100300000I-249999J0D01*
G01*
X45149999Y100300000D01*
G75*
G02*
X44900000Y100549999I0J249999D01*
G01*
G37*
%TD*%
%TO.C,C12*%
G36*
G01*
X7287868Y107951992D02*
X6951992Y108287868D01*
G75*
G02*
X6951992Y108623744I167938J167938D01*
G01*
X7376256Y109048008D01*
G75*
G02*
X7712132Y109048008I167938J-167938D01*
G01*
X8048008Y108712132D01*
G75*
G02*
X8048008Y108376256I-167938J-167938D01*
G01*
X7623744Y107951992D01*
G75*
G02*
X7287868Y107951992I-167938J167938D01*
G01*
G37*
G36*
G01*
X6068108Y106732232D02*
X5732232Y107068108D01*
G75*
G02*
X5732232Y107403984I167938J167938D01*
G01*
X6156496Y107828248D01*
G75*
G02*
X6492372Y107828248I167938J-167938D01*
G01*
X6828248Y107492372D01*
G75*
G02*
X6828248Y107156496I-167938J-167938D01*
G01*
X6403984Y106732232D01*
G75*
G02*
X6068108Y106732232I-167938J167938D01*
G01*
G37*
%TD*%
%TO.C,C8*%
G36*
G01*
X19950000Y112525000D02*
X19950000Y113475000D01*
G75*
G02*
X20200000Y113725000I250000J0D01*
G01*
X20875000Y113725000D01*
G75*
G02*
X21125000Y113475000I0J-250000D01*
G01*
X21125000Y112525000D01*
G75*
G02*
X20875000Y112275000I-250000J0D01*
G01*
X20200000Y112275000D01*
G75*
G02*
X19950000Y112525000I0J250000D01*
G01*
G37*
G36*
G01*
X17875000Y112525000D02*
X17875000Y113475000D01*
G75*
G02*
X18125000Y113725000I250000J0D01*
G01*
X18800000Y113725000D01*
G75*
G02*
X19050000Y113475000I0J-250000D01*
G01*
X19050000Y112525000D01*
G75*
G02*
X18800000Y112275000I-250000J0D01*
G01*
X18125000Y112275000D01*
G75*
G02*
X17875000Y112525000I0J250000D01*
G01*
G37*
%TD*%
%TO.C,R12*%
G36*
G01*
X40450001Y95400000D02*
X39549999Y95400000D01*
G75*
G02*
X39300000Y95649999I0J249999D01*
G01*
X39300000Y96350001D01*
G75*
G02*
X39549999Y96600000I249999J0D01*
G01*
X40450001Y96600000D01*
G75*
G02*
X40700000Y96350001I0J-249999D01*
G01*
X40700000Y95649999D01*
G75*
G02*
X40450001Y95400000I-249999J0D01*
G01*
G37*
G36*
G01*
X40450001Y93400000D02*
X39549999Y93400000D01*
G75*
G02*
X39300000Y93649999I0J249999D01*
G01*
X39300000Y94350001D01*
G75*
G02*
X39549999Y94600000I249999J0D01*
G01*
X40450001Y94600000D01*
G75*
G02*
X40700000Y94350001I0J-249999D01*
G01*
X40700000Y93649999D01*
G75*
G02*
X40450001Y93400000I-249999J0D01*
G01*
G37*
%TD*%
%TO.C,R14*%
G36*
G01*
X30049999Y113600000D02*
X30950001Y113600000D01*
G75*
G02*
X31200000Y113350001I0J-249999D01*
G01*
X31200000Y112649999D01*
G75*
G02*
X30950001Y112400000I-249999J0D01*
G01*
X30049999Y112400000D01*
G75*
G02*
X29800000Y112649999I0J249999D01*
G01*
X29800000Y113350001D01*
G75*
G02*
X30049999Y113600000I249999J0D01*
G01*
G37*
G36*
G01*
X30049999Y115600000D02*
X30950001Y115600000D01*
G75*
G02*
X31200000Y115350001I0J-249999D01*
G01*
X31200000Y114649999D01*
G75*
G02*
X30950001Y114400000I-249999J0D01*
G01*
X30049999Y114400000D01*
G75*
G02*
X29800000Y114649999I0J249999D01*
G01*
X29800000Y115350001D01*
G75*
G02*
X30049999Y115600000I249999J0D01*
G01*
G37*
%TD*%
%TO.C,D3*%
G36*
G01*
X68912500Y123650001D02*
X68912500Y122849999D01*
G75*
G02*
X68662501Y122600000I-249999J0D01*
G01*
X67837499Y122600000D01*
G75*
G02*
X67587500Y122849999I0J249999D01*
G01*
X67587500Y123650001D01*
G75*
G02*
X67837499Y123900000I249999J0D01*
G01*
X68662501Y123900000D01*
G75*
G02*
X68912500Y123650001I0J-249999D01*
G01*
G37*
G36*
G01*
X70837500Y123650001D02*
X70837500Y122849999D01*
G75*
G02*
X70587501Y122600000I-249999J0D01*
G01*
X69762499Y122600000D01*
G75*
G02*
X69512500Y122849999I0J249999D01*
G01*
X69512500Y123650001D01*
G75*
G02*
X69762499Y123900000I249999J0D01*
G01*
X70587501Y123900000D01*
G75*
G02*
X70837500Y123650001I0J-249999D01*
G01*
G37*
%TD*%
D17*
%TO.C,J2*%
X6540000Y66960000D03*
X6540000Y69500000D03*
X6540000Y72040000D03*
X4000000Y66960000D03*
X4000000Y69500000D03*
G36*
G01*
X3150000Y71440000D02*
X3150000Y72640000D01*
G75*
G02*
X3400000Y72890000I250000J0D01*
G01*
X4600000Y72890000D01*
G75*
G02*
X4850000Y72640000I0J-250000D01*
G01*
X4850000Y71440000D01*
G75*
G02*
X4600000Y71190000I-250000J0D01*
G01*
X3400000Y71190000D01*
G75*
G02*
X3150000Y71440000I0J250000D01*
G01*
G37*
%TD*%
D18*
%TO.C,U2*%
X50900000Y103777500D03*
X50900000Y104412500D03*
X50900000Y105047500D03*
X50900000Y105682500D03*
X50900000Y106317500D03*
X50900000Y106952500D03*
X50900000Y107587500D03*
X50900000Y108222500D03*
X56100000Y108222500D03*
X56100000Y107587500D03*
X56100000Y106952500D03*
X56100000Y106317500D03*
X56100000Y105682500D03*
X56100000Y105047500D03*
X56100000Y104412500D03*
X56100000Y103777500D03*
%TD*%
%TO.C,R3*%
G36*
G01*
X62600000Y126700001D02*
X62600000Y125799999D01*
G75*
G02*
X62350001Y125550000I-249999J0D01*
G01*
X61649999Y125550000D01*
G75*
G02*
X61400000Y125799999I0J249999D01*
G01*
X61400000Y126700001D01*
G75*
G02*
X61649999Y126950000I249999J0D01*
G01*
X62350001Y126950000D01*
G75*
G02*
X62600000Y126700001I0J-249999D01*
G01*
G37*
G36*
G01*
X64600000Y126700001D02*
X64600000Y125799999D01*
G75*
G02*
X64350001Y125550000I-249999J0D01*
G01*
X63649999Y125550000D01*
G75*
G02*
X63400000Y125799999I0J249999D01*
G01*
X63400000Y126700001D01*
G75*
G02*
X63649999Y126950000I249999J0D01*
G01*
X64350001Y126950000D01*
G75*
G02*
X64600000Y126700001I0J-249999D01*
G01*
G37*
%TD*%
%TO.C,C10*%
G36*
G01*
X60987500Y109025000D02*
X60987500Y109975000D01*
G75*
G02*
X61237500Y110225000I250000J0D01*
G01*
X61912500Y110225000D01*
G75*
G02*
X62162500Y109975000I0J-250000D01*
G01*
X62162500Y109025000D01*
G75*
G02*
X61912500Y108775000I-250000J0D01*
G01*
X61237500Y108775000D01*
G75*
G02*
X60987500Y109025000I0J250000D01*
G01*
G37*
G36*
G01*
X58912500Y109025000D02*
X58912500Y109975000D01*
G75*
G02*
X59162500Y110225000I250000J0D01*
G01*
X59837500Y110225000D01*
G75*
G02*
X60087500Y109975000I0J-250000D01*
G01*
X60087500Y109025000D01*
G75*
G02*
X59837500Y108775000I-250000J0D01*
G01*
X59162500Y108775000D01*
G75*
G02*
X58912500Y109025000I0J250000D01*
G01*
G37*
%TD*%
%TO.C,C9*%
G36*
G01*
X46012500Y106475000D02*
X46012500Y105525000D01*
G75*
G02*
X45762500Y105275000I-250000J0D01*
G01*
X45087500Y105275000D01*
G75*
G02*
X44837500Y105525000I0J250000D01*
G01*
X44837500Y106475000D01*
G75*
G02*
X45087500Y106725000I250000J0D01*
G01*
X45762500Y106725000D01*
G75*
G02*
X46012500Y106475000I0J-250000D01*
G01*
G37*
G36*
G01*
X48087500Y106475000D02*
X48087500Y105525000D01*
G75*
G02*
X47837500Y105275000I-250000J0D01*
G01*
X47162500Y105275000D01*
G75*
G02*
X46912500Y105525000I0J250000D01*
G01*
X46912500Y106475000D01*
G75*
G02*
X47162500Y106725000I250000J0D01*
G01*
X47837500Y106725000D01*
G75*
G02*
X48087500Y106475000I0J-250000D01*
G01*
G37*
%TD*%
%TO.C,D4*%
G36*
G01*
X31956250Y124950000D02*
X31043750Y124950000D01*
G75*
G02*
X30800000Y125193750I0J243750D01*
G01*
X30800000Y125681250D01*
G75*
G02*
X31043750Y125925000I243750J0D01*
G01*
X31956250Y125925000D01*
G75*
G02*
X32200000Y125681250I0J-243750D01*
G01*
X32200000Y125193750D01*
G75*
G02*
X31956250Y124950000I-243750J0D01*
G01*
G37*
G36*
G01*
X31956250Y123075000D02*
X31043750Y123075000D01*
G75*
G02*
X30800000Y123318750I0J243750D01*
G01*
X30800000Y123806250D01*
G75*
G02*
X31043750Y124050000I243750J0D01*
G01*
X31956250Y124050000D01*
G75*
G02*
X32200000Y123806250I0J-243750D01*
G01*
X32200000Y123318750D01*
G75*
G02*
X31956250Y123075000I-243750J0D01*
G01*
G37*
%TD*%
%TO.C,R16*%
G36*
G01*
X22049999Y113600000D02*
X22950001Y113600000D01*
G75*
G02*
X23200000Y113350001I0J-249999D01*
G01*
X23200000Y112649999D01*
G75*
G02*
X22950001Y112400000I-249999J0D01*
G01*
X22049999Y112400000D01*
G75*
G02*
X21800000Y112649999I0J249999D01*
G01*
X21800000Y113350001D01*
G75*
G02*
X22049999Y113600000I249999J0D01*
G01*
G37*
G36*
G01*
X22049999Y115600000D02*
X22950001Y115600000D01*
G75*
G02*
X23200000Y115350001I0J-249999D01*
G01*
X23200000Y114649999D01*
G75*
G02*
X22950001Y114400000I-249999J0D01*
G01*
X22049999Y114400000D01*
G75*
G02*
X21800000Y114649999I0J249999D01*
G01*
X21800000Y115350001D01*
G75*
G02*
X22049999Y115600000I249999J0D01*
G01*
G37*
%TD*%
%TO.C,R9*%
G36*
G01*
X31450001Y95400000D02*
X30549999Y95400000D01*
G75*
G02*
X30300000Y95649999I0J249999D01*
G01*
X30300000Y96350001D01*
G75*
G02*
X30549999Y96600000I249999J0D01*
G01*
X31450001Y96600000D01*
G75*
G02*
X31700000Y96350001I0J-249999D01*
G01*
X31700000Y95649999D01*
G75*
G02*
X31450001Y95400000I-249999J0D01*
G01*
G37*
G36*
G01*
X31450001Y93400000D02*
X30549999Y93400000D01*
G75*
G02*
X30300000Y93649999I0J249999D01*
G01*
X30300000Y94350001D01*
G75*
G02*
X30549999Y94600000I249999J0D01*
G01*
X31450001Y94600000D01*
G75*
G02*
X31700000Y94350001I0J-249999D01*
G01*
X31700000Y93649999D01*
G75*
G02*
X31450001Y93400000I-249999J0D01*
G01*
G37*
%TD*%
%TO.C,R20*%
G36*
G01*
X40049999Y109100000D02*
X40950001Y109100000D01*
G75*
G02*
X41200000Y108850001I0J-249999D01*
G01*
X41200000Y108149999D01*
G75*
G02*
X40950001Y107900000I-249999J0D01*
G01*
X40049999Y107900000D01*
G75*
G02*
X39800000Y108149999I0J249999D01*
G01*
X39800000Y108850001D01*
G75*
G02*
X40049999Y109100000I249999J0D01*
G01*
G37*
G36*
G01*
X40049999Y111100000D02*
X40950001Y111100000D01*
G75*
G02*
X41200000Y110850001I0J-249999D01*
G01*
X41200000Y110149999D01*
G75*
G02*
X40950001Y109900000I-249999J0D01*
G01*
X40049999Y109900000D01*
G75*
G02*
X39800000Y110149999I0J249999D01*
G01*
X39800000Y110850001D01*
G75*
G02*
X40049999Y111100000I249999J0D01*
G01*
G37*
%TD*%
%TO.C,R1*%
G36*
G01*
X44100000Y126450001D02*
X44100000Y125549999D01*
G75*
G02*
X43850001Y125300000I-249999J0D01*
G01*
X43149999Y125300000D01*
G75*
G02*
X42900000Y125549999I0J249999D01*
G01*
X42900000Y126450001D01*
G75*
G02*
X43149999Y126700000I249999J0D01*
G01*
X43850001Y126700000D01*
G75*
G02*
X44100000Y126450001I0J-249999D01*
G01*
G37*
G36*
G01*
X46100000Y126450001D02*
X46100000Y125549999D01*
G75*
G02*
X45850001Y125300000I-249999J0D01*
G01*
X45149999Y125300000D01*
G75*
G02*
X44900000Y125549999I0J249999D01*
G01*
X44900000Y126450001D01*
G75*
G02*
X45149999Y126700000I249999J0D01*
G01*
X45850001Y126700000D01*
G75*
G02*
X46100000Y126450001I0J-249999D01*
G01*
G37*
%TD*%
D11*
%TO.C,SW12*%
X63500000Y13000000D03*
X63500000Y8500000D03*
X57000000Y13000000D03*
X57000000Y8500000D03*
%TD*%
%TO.C,SW9*%
X63500000Y73000000D03*
X63500000Y68500000D03*
X57000000Y73000000D03*
X57000000Y68500000D03*
%TD*%
%TO.C,SW8*%
X43500000Y13000000D03*
X43500000Y8500000D03*
X37000000Y13000000D03*
X37000000Y8500000D03*
%TD*%
%TO.C,SW5*%
X43500000Y73000000D03*
X43500000Y68500000D03*
X37000000Y73000000D03*
X37000000Y68500000D03*
%TD*%
%TO.C,SW4*%
X23500000Y13000000D03*
X23500000Y8500000D03*
X17000000Y13000000D03*
X17000000Y8500000D03*
%TD*%
%TO.C,SW1*%
X23500000Y73000000D03*
X23500000Y68500000D03*
X17000000Y73000000D03*
X17000000Y68500000D03*
%TD*%
D10*
%TO.C,Y1*%
G36*
X7848172Y103747310D02*
G01*
X6363248Y105232234D01*
X8272436Y107141422D01*
X9757360Y105656498D01*
X7848172Y103747310D01*
G37*
G36*
X11595837Y107494975D02*
G01*
X10110913Y108979899D01*
X12020101Y110889087D01*
X13505025Y109404163D01*
X11595837Y107494975D01*
G37*
G36*
X13787868Y105302944D02*
G01*
X12302944Y106787868D01*
X14212132Y108697056D01*
X15697056Y107212132D01*
X13787868Y105302944D01*
G37*
G36*
X10040203Y101555279D02*
G01*
X8555279Y103040203D01*
X10464467Y104949391D01*
X11949391Y103464467D01*
X10040203Y101555279D01*
G37*
%TD*%
D19*
%TO.C,H1*%
X3000000Y125500000D03*
%TD*%
%TO.C,H2*%
X3000000Y82000000D03*
%TD*%
%TO.C,H3*%
X3000000Y3000000D03*
%TD*%
%TO.C,H4*%
X78000000Y125500000D03*
%TD*%
%TO.C,H5*%
X78000000Y81500000D03*
%TD*%
%TO.C,H6*%
X78000000Y3000000D03*
%TD*%
%TO.C,C11*%
G36*
G01*
X25784143Y96948267D02*
X25448267Y97284143D01*
G75*
G02*
X25448267Y97620019I167938J167938D01*
G01*
X25854853Y98026605D01*
G75*
G02*
X26190729Y98026605I167938J-167938D01*
G01*
X26526605Y97690729D01*
G75*
G02*
X26526605Y97354853I-167938J-167938D01*
G01*
X26120019Y96948267D01*
G75*
G02*
X25784143Y96948267I-167938J167938D01*
G01*
G37*
G36*
G01*
X24546707Y95710831D02*
X24210831Y96046707D01*
G75*
G02*
X24210831Y96382583I167938J167938D01*
G01*
X24617417Y96789169D01*
G75*
G02*
X24953293Y96789169I167938J-167938D01*
G01*
X25289169Y96453293D01*
G75*
G02*
X25289169Y96117417I-167938J-167938D01*
G01*
X24882583Y95710831D01*
G75*
G02*
X24546707Y95710831I-167938J167938D01*
G01*
G37*
%TD*%
D20*
%TO.C,U3*%
X65800000Y88032000D03*
X68340000Y88032000D03*
X63260000Y88032000D03*
X70880000Y88032000D03*
X60720000Y88032000D03*
X70880000Y118512000D03*
X68340000Y118512000D03*
X65800000Y118512000D03*
X63260000Y118512000D03*
X60720000Y118512000D03*
%TD*%
%TO.C,U4*%
X41500000Y88032000D03*
X44040000Y88032000D03*
X38960000Y88032000D03*
X46580000Y88032000D03*
X36420000Y88032000D03*
X46580000Y118512000D03*
X44040000Y118512000D03*
X41500000Y118512000D03*
X38960000Y118512000D03*
X36420000Y118512000D03*
%TD*%
%TO.C,U5*%
X12120000Y118512000D03*
X14660000Y118512000D03*
X17200000Y118512000D03*
X19740000Y118512000D03*
X22280000Y118512000D03*
X12120000Y88032000D03*
X22280000Y88032000D03*
X14660000Y88032000D03*
X19740000Y88032000D03*
X17200000Y88032000D03*
%TD*%
M02*
