%TF.GenerationSoftware,KiCad,Pcbnew,5.1.8-db9833491~88~ubuntu20.04.1*%
%TF.CreationDate,2021-01-15T13:02:49+00:00*%
%TF.ProjectId,luncheonmeat,6c756e63-6865-46f6-9e6d-6561742e6b69,v0.2.2*%
%TF.SameCoordinates,Original*%
%TF.FileFunction,Soldermask,Bot*%
%TF.FilePolarity,Negative*%
%FSLAX46Y46*%
G04 Gerber Fmt 4.6, Leading zero omitted, Abs format (unit mm)*
G04 Created by KiCad (PCBNEW 5.1.8-db9833491~88~ubuntu20.04.1) date 2021-01-15 13:02:49*
%MOMM*%
%LPD*%
G01*
G04 APERTURE LIST*
%ADD10C,1.624000*%
%ADD11C,2.100000*%
%ADD12C,0.900000*%
%ADD13C,1.900000*%
%ADD14C,1.800000*%
%ADD15C,3.300000*%
G04 APERTURE END LIST*
D10*
%TO.C,U3*%
X150500000Y-104968000D03*
X153040000Y-104968000D03*
X147960000Y-104968000D03*
X155580000Y-104968000D03*
X145420000Y-104968000D03*
X155580000Y-74488000D03*
X153040000Y-74488000D03*
X150500000Y-74488000D03*
X147960000Y-74488000D03*
X145420000Y-74488000D03*
%TD*%
D11*
%TO.C,SW3*%
X100000000Y-164500000D03*
X100000000Y-160000000D03*
X106500000Y-164500000D03*
X106500000Y-160000000D03*
%TD*%
%TO.C,SW11*%
X140000000Y-164500000D03*
X140000000Y-160000000D03*
X146500000Y-164500000D03*
X146500000Y-160000000D03*
%TD*%
%TO.C,SW10*%
X140000000Y-144500000D03*
X140000000Y-140000000D03*
X146500000Y-144500000D03*
X146500000Y-140000000D03*
%TD*%
%TO.C,SW7*%
X120000000Y-164500000D03*
X120000000Y-160000000D03*
X126500000Y-164500000D03*
X126500000Y-160000000D03*
%TD*%
%TO.C,SW2*%
X100000000Y-144500000D03*
X100000000Y-140000000D03*
X106500000Y-144500000D03*
X106500000Y-140000000D03*
%TD*%
D10*
%TO.C,U4*%
X124500000Y-104968000D03*
X127040000Y-104968000D03*
X121960000Y-104968000D03*
X129580000Y-104968000D03*
X119420000Y-104968000D03*
X129580000Y-74488000D03*
X127040000Y-74488000D03*
X124500000Y-74488000D03*
X121960000Y-74488000D03*
X119420000Y-74488000D03*
%TD*%
D12*
%TO.C,J1*%
X134500000Y-68800000D03*
X139500000Y-68800000D03*
D13*
X133125000Y-66050000D03*
X140875000Y-66050000D03*
D11*
X133275000Y-69850000D03*
X140725000Y-69850000D03*
%TD*%
%TO.C,SW6*%
X120000000Y-144500000D03*
X120000000Y-140000000D03*
X126500000Y-144500000D03*
X126500000Y-140000000D03*
%TD*%
%TO.C,J2*%
G36*
G01*
X86100000Y-121595295D02*
X86100000Y-120324705D01*
G75*
G02*
X86364705Y-120060000I264705J0D01*
G01*
X87635295Y-120060000D01*
G75*
G02*
X87900000Y-120324705I0J-264705D01*
G01*
X87900000Y-121595295D01*
G75*
G02*
X87635295Y-121860000I-264705J0D01*
G01*
X86364705Y-121860000D01*
G75*
G02*
X86100000Y-121595295I0J264705D01*
G01*
G37*
D14*
X87000000Y-123500000D03*
X87000000Y-126040000D03*
X89540000Y-120960000D03*
X89540000Y-123500000D03*
X89540000Y-126040000D03*
%TD*%
D10*
%TO.C,U5*%
X98500000Y-104968000D03*
X101040000Y-104968000D03*
X95960000Y-104968000D03*
X103580000Y-104968000D03*
X93420000Y-104968000D03*
X103580000Y-74488000D03*
X101040000Y-74488000D03*
X98500000Y-74488000D03*
X95960000Y-74488000D03*
X93420000Y-74488000D03*
%TD*%
D11*
%TO.C,SW12*%
X140000000Y-184500000D03*
X140000000Y-180000000D03*
X146500000Y-184500000D03*
X146500000Y-180000000D03*
%TD*%
%TO.C,SW9*%
X140000000Y-124500000D03*
X140000000Y-120000000D03*
X146500000Y-124500000D03*
X146500000Y-120000000D03*
%TD*%
%TO.C,SW8*%
X120000000Y-184500000D03*
X120000000Y-180000000D03*
X126500000Y-184500000D03*
X126500000Y-180000000D03*
%TD*%
%TO.C,SW5*%
X120000000Y-124500000D03*
X120000000Y-120000000D03*
X126500000Y-124500000D03*
X126500000Y-120000000D03*
%TD*%
%TO.C,SW4*%
X100000000Y-184500000D03*
X100000000Y-180000000D03*
X106500000Y-184500000D03*
X106500000Y-180000000D03*
%TD*%
%TO.C,SW1*%
X100000000Y-124500000D03*
X100000000Y-120000000D03*
X106500000Y-124500000D03*
X106500000Y-120000000D03*
%TD*%
D15*
%TO.C,H1*%
X86000000Y-67500000D03*
%TD*%
%TO.C,H2*%
X86000000Y-111000000D03*
%TD*%
%TO.C,H3*%
X86000000Y-190000000D03*
%TD*%
%TO.C,H4*%
X161000000Y-67500000D03*
%TD*%
%TO.C,H5*%
X161000000Y-111500000D03*
%TD*%
%TO.C,H6*%
X161000000Y-190000000D03*
%TD*%
M02*
