%TF.GenerationSoftware,KiCad,Pcbnew,5.1.8-db9833491~88~ubuntu20.04.1*%
%TF.CreationDate,2021-01-15T13:02:49+00:00*%
%TF.ProjectId,luncheonmeat,6c756e63-6865-46f6-9e6d-6561742e6b69,v0.2.2*%
%TF.SameCoordinates,Original*%
%TF.FileFunction,Legend,Bot*%
%TF.FilePolarity,Positive*%
%FSLAX46Y46*%
G04 Gerber Fmt 4.6, Leading zero omitted, Abs format (unit mm)*
G04 Created by KiCad (PCBNEW 5.1.8-db9833491~88~ubuntu20.04.1) date 2021-01-15 13:02:49*
%MOMM*%
%LPD*%
G01*
G04 APERTURE LIST*
%ADD10C,0.150000*%
%ADD11C,0.500000*%
%ADD12C,0.010000*%
G04 APERTURE END LIST*
D10*
X135053333Y-176275714D02*
X134815238Y-176942380D01*
X134577142Y-176275714D01*
X134005714Y-175942380D02*
X133910476Y-175942380D01*
X133815238Y-175990000D01*
X133767619Y-176037619D01*
X133720000Y-176132857D01*
X133672380Y-176323333D01*
X133672380Y-176561428D01*
X133720000Y-176751904D01*
X133767619Y-176847142D01*
X133815238Y-176894761D01*
X133910476Y-176942380D01*
X134005714Y-176942380D01*
X134100952Y-176894761D01*
X134148571Y-176847142D01*
X134196190Y-176751904D01*
X134243809Y-176561428D01*
X134243809Y-176323333D01*
X134196190Y-176132857D01*
X134148571Y-176037619D01*
X134100952Y-175990000D01*
X134005714Y-175942380D01*
X133243809Y-176847142D02*
X133196190Y-176894761D01*
X133243809Y-176942380D01*
X133291428Y-176894761D01*
X133243809Y-176847142D01*
X133243809Y-176942380D01*
X132815238Y-176037619D02*
X132767619Y-175990000D01*
X132672380Y-175942380D01*
X132434285Y-175942380D01*
X132339047Y-175990000D01*
X132291428Y-176037619D01*
X132243809Y-176132857D01*
X132243809Y-176228095D01*
X132291428Y-176370952D01*
X132862857Y-176942380D01*
X132243809Y-176942380D01*
X131815238Y-176847142D02*
X131767619Y-176894761D01*
X131815238Y-176942380D01*
X131862857Y-176894761D01*
X131815238Y-176847142D01*
X131815238Y-176942380D01*
X131386666Y-176037619D02*
X131339047Y-175990000D01*
X131243809Y-175942380D01*
X131005714Y-175942380D01*
X130910476Y-175990000D01*
X130862857Y-176037619D01*
X130815238Y-176132857D01*
X130815238Y-176228095D01*
X130862857Y-176370952D01*
X131434285Y-176942380D01*
X130815238Y-176942380D01*
X130339047Y-176894761D02*
X130339047Y-176942380D01*
X130386666Y-177037619D01*
X130434285Y-177085238D01*
X128862857Y-175942380D02*
X128862857Y-176656666D01*
X128910476Y-176799523D01*
X129005714Y-176894761D01*
X129148571Y-176942380D01*
X129243809Y-176942380D01*
X127958095Y-176942380D02*
X127958095Y-176418571D01*
X128005714Y-176323333D01*
X128100952Y-176275714D01*
X128291428Y-176275714D01*
X128386666Y-176323333D01*
X127958095Y-176894761D02*
X128053333Y-176942380D01*
X128291428Y-176942380D01*
X128386666Y-176894761D01*
X128434285Y-176799523D01*
X128434285Y-176704285D01*
X128386666Y-176609047D01*
X128291428Y-176561428D01*
X128053333Y-176561428D01*
X127958095Y-176513809D01*
X127481904Y-176275714D02*
X127481904Y-176942380D01*
X127481904Y-176370952D02*
X127434285Y-176323333D01*
X127339047Y-176275714D01*
X127196190Y-176275714D01*
X127100952Y-176323333D01*
X127053333Y-176418571D01*
X127053333Y-176942380D01*
X125862857Y-176037619D02*
X125815238Y-175990000D01*
X125720000Y-175942380D01*
X125481904Y-175942380D01*
X125386666Y-175990000D01*
X125339047Y-176037619D01*
X125291428Y-176132857D01*
X125291428Y-176228095D01*
X125339047Y-176370952D01*
X125910476Y-176942380D01*
X125291428Y-176942380D01*
X124672380Y-175942380D02*
X124577142Y-175942380D01*
X124481904Y-175990000D01*
X124434285Y-176037619D01*
X124386666Y-176132857D01*
X124339047Y-176323333D01*
X124339047Y-176561428D01*
X124386666Y-176751904D01*
X124434285Y-176847142D01*
X124481904Y-176894761D01*
X124577142Y-176942380D01*
X124672380Y-176942380D01*
X124767619Y-176894761D01*
X124815238Y-176847142D01*
X124862857Y-176751904D01*
X124910476Y-176561428D01*
X124910476Y-176323333D01*
X124862857Y-176132857D01*
X124815238Y-176037619D01*
X124767619Y-175990000D01*
X124672380Y-175942380D01*
X123958095Y-176037619D02*
X123910476Y-175990000D01*
X123815238Y-175942380D01*
X123577142Y-175942380D01*
X123481904Y-175990000D01*
X123434285Y-176037619D01*
X123386666Y-176132857D01*
X123386666Y-176228095D01*
X123434285Y-176370952D01*
X124005714Y-176942380D01*
X123386666Y-176942380D01*
X122434285Y-176942380D02*
X123005714Y-176942380D01*
X122720000Y-176942380D02*
X122720000Y-175942380D01*
X122815238Y-176085238D01*
X122910476Y-176180476D01*
X123005714Y-176228095D01*
D11*
X133758571Y-174037142D02*
X135187142Y-174037142D01*
X135187142Y-171037142D01*
X131472857Y-172037142D02*
X131472857Y-174037142D01*
X132758571Y-172037142D02*
X132758571Y-173608571D01*
X132615714Y-173894285D01*
X132330000Y-174037142D01*
X131901428Y-174037142D01*
X131615714Y-173894285D01*
X131472857Y-173751428D01*
X130044285Y-172037142D02*
X130044285Y-174037142D01*
X130044285Y-172322857D02*
X129901428Y-172180000D01*
X129615714Y-172037142D01*
X129187142Y-172037142D01*
X128901428Y-172180000D01*
X128758571Y-172465714D01*
X128758571Y-174037142D01*
X126044285Y-173894285D02*
X126330000Y-174037142D01*
X126901428Y-174037142D01*
X127187142Y-173894285D01*
X127330000Y-173751428D01*
X127472857Y-173465714D01*
X127472857Y-172608571D01*
X127330000Y-172322857D01*
X127187142Y-172180000D01*
X126901428Y-172037142D01*
X126330000Y-172037142D01*
X126044285Y-172180000D01*
X124758571Y-174037142D02*
X124758571Y-171037142D01*
X123472857Y-174037142D02*
X123472857Y-172465714D01*
X123615714Y-172180000D01*
X123901428Y-172037142D01*
X124330000Y-172037142D01*
X124615714Y-172180000D01*
X124758571Y-172322857D01*
X120901428Y-173894285D02*
X121187142Y-174037142D01*
X121758571Y-174037142D01*
X122044285Y-173894285D01*
X122187142Y-173608571D01*
X122187142Y-172465714D01*
X122044285Y-172180000D01*
X121758571Y-172037142D01*
X121187142Y-172037142D01*
X120901428Y-172180000D01*
X120758571Y-172465714D01*
X120758571Y-172751428D01*
X122187142Y-173037142D01*
X119044285Y-174037142D02*
X119330000Y-173894285D01*
X119472857Y-173751428D01*
X119615714Y-173465714D01*
X119615714Y-172608571D01*
X119472857Y-172322857D01*
X119330000Y-172180000D01*
X119044285Y-172037142D01*
X118615714Y-172037142D01*
X118330000Y-172180000D01*
X118187142Y-172322857D01*
X118044285Y-172608571D01*
X118044285Y-173465714D01*
X118187142Y-173751428D01*
X118330000Y-173894285D01*
X118615714Y-174037142D01*
X119044285Y-174037142D01*
X116758571Y-172037142D02*
X116758571Y-174037142D01*
X116758571Y-172322857D02*
X116615714Y-172180000D01*
X116330000Y-172037142D01*
X115901428Y-172037142D01*
X115615714Y-172180000D01*
X115472857Y-172465714D01*
X115472857Y-174037142D01*
X114044285Y-174037142D02*
X114044285Y-172037142D01*
X114044285Y-172322857D02*
X113901428Y-172180000D01*
X113615714Y-172037142D01*
X113187142Y-172037142D01*
X112901428Y-172180000D01*
X112758571Y-172465714D01*
X112758571Y-174037142D01*
X112758571Y-172465714D02*
X112615714Y-172180000D01*
X112330000Y-172037142D01*
X111901428Y-172037142D01*
X111615714Y-172180000D01*
X111472857Y-172465714D01*
X111472857Y-174037142D01*
X108901428Y-173894285D02*
X109187142Y-174037142D01*
X109758571Y-174037142D01*
X110044285Y-173894285D01*
X110187142Y-173608571D01*
X110187142Y-172465714D01*
X110044285Y-172180000D01*
X109758571Y-172037142D01*
X109187142Y-172037142D01*
X108901428Y-172180000D01*
X108758571Y-172465714D01*
X108758571Y-172751428D01*
X110187142Y-173037142D01*
X106187142Y-174037142D02*
X106187142Y-172465714D01*
X106330000Y-172180000D01*
X106615714Y-172037142D01*
X107187142Y-172037142D01*
X107472857Y-172180000D01*
X106187142Y-173894285D02*
X106472857Y-174037142D01*
X107187142Y-174037142D01*
X107472857Y-173894285D01*
X107615714Y-173608571D01*
X107615714Y-173322857D01*
X107472857Y-173037142D01*
X107187142Y-172894285D01*
X106472857Y-172894285D01*
X106187142Y-172751428D01*
X105187142Y-172037142D02*
X104044285Y-172037142D01*
X104758571Y-171037142D02*
X104758571Y-173608571D01*
X104615714Y-173894285D01*
X104330000Y-174037142D01*
X104044285Y-174037142D01*
D12*
%TO.C,REF\u002A\u002A*%
G36*
X135021177Y-191464533D02*
G01*
X134989798Y-191486776D01*
X134962089Y-191514485D01*
X134962089Y-191823920D01*
X134962162Y-191915799D01*
X134962505Y-191987840D01*
X134963308Y-192042780D01*
X134964759Y-192083360D01*
X134967048Y-192112317D01*
X134970364Y-192132391D01*
X134974895Y-192146321D01*
X134980831Y-192156845D01*
X134985486Y-192163100D01*
X135016217Y-192187673D01*
X135051504Y-192190341D01*
X135083755Y-192175271D01*
X135094412Y-192166374D01*
X135101536Y-192154557D01*
X135105833Y-192135526D01*
X135108009Y-192104992D01*
X135108772Y-192058662D01*
X135108845Y-192022871D01*
X135108845Y-191888045D01*
X135605556Y-191888045D01*
X135605556Y-192010700D01*
X135606069Y-192066787D01*
X135608124Y-192105333D01*
X135612492Y-192131361D01*
X135619944Y-192149897D01*
X135628953Y-192163100D01*
X135659856Y-192187604D01*
X135694804Y-192190506D01*
X135728262Y-192173089D01*
X135737396Y-192163959D01*
X135743848Y-192151855D01*
X135748103Y-192133001D01*
X135750648Y-192103620D01*
X135751971Y-192059937D01*
X135752557Y-191998175D01*
X135752625Y-191984000D01*
X135753109Y-191867631D01*
X135753359Y-191771727D01*
X135753277Y-191694177D01*
X135752769Y-191632869D01*
X135751738Y-191585690D01*
X135750087Y-191550530D01*
X135747721Y-191525276D01*
X135744543Y-191507817D01*
X135740456Y-191496041D01*
X135735366Y-191487835D01*
X135729734Y-191481645D01*
X135697872Y-191461844D01*
X135664643Y-191464533D01*
X135633265Y-191486776D01*
X135620567Y-191501126D01*
X135612474Y-191516978D01*
X135607958Y-191539554D01*
X135605994Y-191574078D01*
X135605556Y-191625776D01*
X135605556Y-191741289D01*
X135108845Y-191741289D01*
X135108845Y-191622756D01*
X135108338Y-191568148D01*
X135106302Y-191531275D01*
X135101965Y-191507307D01*
X135094553Y-191491415D01*
X135086267Y-191481645D01*
X135054406Y-191461844D01*
X135021177Y-191464533D01*
G37*
X135021177Y-191464533D02*
X134989798Y-191486776D01*
X134962089Y-191514485D01*
X134962089Y-191823920D01*
X134962162Y-191915799D01*
X134962505Y-191987840D01*
X134963308Y-192042780D01*
X134964759Y-192083360D01*
X134967048Y-192112317D01*
X134970364Y-192132391D01*
X134974895Y-192146321D01*
X134980831Y-192156845D01*
X134985486Y-192163100D01*
X135016217Y-192187673D01*
X135051504Y-192190341D01*
X135083755Y-192175271D01*
X135094412Y-192166374D01*
X135101536Y-192154557D01*
X135105833Y-192135526D01*
X135108009Y-192104992D01*
X135108772Y-192058662D01*
X135108845Y-192022871D01*
X135108845Y-191888045D01*
X135605556Y-191888045D01*
X135605556Y-192010700D01*
X135606069Y-192066787D01*
X135608124Y-192105333D01*
X135612492Y-192131361D01*
X135619944Y-192149897D01*
X135628953Y-192163100D01*
X135659856Y-192187604D01*
X135694804Y-192190506D01*
X135728262Y-192173089D01*
X135737396Y-192163959D01*
X135743848Y-192151855D01*
X135748103Y-192133001D01*
X135750648Y-192103620D01*
X135751971Y-192059937D01*
X135752557Y-191998175D01*
X135752625Y-191984000D01*
X135753109Y-191867631D01*
X135753359Y-191771727D01*
X135753277Y-191694177D01*
X135752769Y-191632869D01*
X135751738Y-191585690D01*
X135750087Y-191550530D01*
X135747721Y-191525276D01*
X135744543Y-191507817D01*
X135740456Y-191496041D01*
X135735366Y-191487835D01*
X135729734Y-191481645D01*
X135697872Y-191461844D01*
X135664643Y-191464533D01*
X135633265Y-191486776D01*
X135620567Y-191501126D01*
X135612474Y-191516978D01*
X135607958Y-191539554D01*
X135605994Y-191574078D01*
X135605556Y-191625776D01*
X135605556Y-191741289D01*
X135108845Y-191741289D01*
X135108845Y-191622756D01*
X135108338Y-191568148D01*
X135106302Y-191531275D01*
X135101965Y-191507307D01*
X135094553Y-191491415D01*
X135086267Y-191481645D01*
X135054406Y-191461844D01*
X135021177Y-191464533D01*
G36*
X136286935Y-191459163D02*
G01*
X136208228Y-191459542D01*
X136147137Y-191460333D01*
X136101183Y-191461670D01*
X136067886Y-191463683D01*
X136044764Y-191466506D01*
X136029338Y-191470269D01*
X136019129Y-191475105D01*
X136014187Y-191478822D01*
X135988543Y-191511358D01*
X135985441Y-191545138D01*
X136001289Y-191575826D01*
X136011652Y-191588089D01*
X136022804Y-191596450D01*
X136038965Y-191601657D01*
X136064358Y-191604457D01*
X136103202Y-191605596D01*
X136159720Y-191605821D01*
X136170820Y-191605822D01*
X136316756Y-191605822D01*
X136316756Y-191876756D01*
X136316852Y-191962154D01*
X136317289Y-192027864D01*
X136318288Y-192076774D01*
X136320072Y-192111773D01*
X136322863Y-192135749D01*
X136326883Y-192151593D01*
X136332355Y-192162191D01*
X136339334Y-192170267D01*
X136372266Y-192190112D01*
X136406646Y-192188548D01*
X136437824Y-192165906D01*
X136440114Y-192163100D01*
X136447571Y-192152492D01*
X136453253Y-192140081D01*
X136457399Y-192122850D01*
X136460250Y-192097784D01*
X136462046Y-192061867D01*
X136463028Y-192012083D01*
X136463436Y-191945417D01*
X136463511Y-191869589D01*
X136463511Y-191605822D01*
X136602873Y-191605822D01*
X136662678Y-191605418D01*
X136704082Y-191603840D01*
X136731252Y-191600547D01*
X136748354Y-191594992D01*
X136759557Y-191586631D01*
X136760917Y-191585178D01*
X136777275Y-191551939D01*
X136775828Y-191514362D01*
X136757022Y-191481645D01*
X136749750Y-191475298D01*
X136740373Y-191470266D01*
X136726391Y-191466396D01*
X136705304Y-191463537D01*
X136674611Y-191461535D01*
X136631811Y-191460239D01*
X136574405Y-191459498D01*
X136499890Y-191459158D01*
X136405767Y-191459068D01*
X136385740Y-191459067D01*
X136286935Y-191459163D01*
G37*
X136286935Y-191459163D02*
X136208228Y-191459542D01*
X136147137Y-191460333D01*
X136101183Y-191461670D01*
X136067886Y-191463683D01*
X136044764Y-191466506D01*
X136029338Y-191470269D01*
X136019129Y-191475105D01*
X136014187Y-191478822D01*
X135988543Y-191511358D01*
X135985441Y-191545138D01*
X136001289Y-191575826D01*
X136011652Y-191588089D01*
X136022804Y-191596450D01*
X136038965Y-191601657D01*
X136064358Y-191604457D01*
X136103202Y-191605596D01*
X136159720Y-191605821D01*
X136170820Y-191605822D01*
X136316756Y-191605822D01*
X136316756Y-191876756D01*
X136316852Y-191962154D01*
X136317289Y-192027864D01*
X136318288Y-192076774D01*
X136320072Y-192111773D01*
X136322863Y-192135749D01*
X136326883Y-192151593D01*
X136332355Y-192162191D01*
X136339334Y-192170267D01*
X136372266Y-192190112D01*
X136406646Y-192188548D01*
X136437824Y-192165906D01*
X136440114Y-192163100D01*
X136447571Y-192152492D01*
X136453253Y-192140081D01*
X136457399Y-192122850D01*
X136460250Y-192097784D01*
X136462046Y-192061867D01*
X136463028Y-192012083D01*
X136463436Y-191945417D01*
X136463511Y-191869589D01*
X136463511Y-191605822D01*
X136602873Y-191605822D01*
X136662678Y-191605418D01*
X136704082Y-191603840D01*
X136731252Y-191600547D01*
X136748354Y-191594992D01*
X136759557Y-191586631D01*
X136760917Y-191585178D01*
X136777275Y-191551939D01*
X136775828Y-191514362D01*
X136757022Y-191481645D01*
X136749750Y-191475298D01*
X136740373Y-191470266D01*
X136726391Y-191466396D01*
X136705304Y-191463537D01*
X136674611Y-191461535D01*
X136631811Y-191460239D01*
X136574405Y-191459498D01*
X136499890Y-191459158D01*
X136405767Y-191459068D01*
X136385740Y-191459067D01*
X136286935Y-191459163D01*
G36*
X137061386Y-191465877D02*
G01*
X137037673Y-191480647D01*
X137011022Y-191502227D01*
X137011022Y-191823773D01*
X137011107Y-191917830D01*
X137011471Y-191991932D01*
X137012276Y-192048704D01*
X137013687Y-192090768D01*
X137015867Y-192120748D01*
X137018979Y-192141267D01*
X137023186Y-192154949D01*
X137028652Y-192164416D01*
X137032528Y-192169082D01*
X137063966Y-192189575D01*
X137099767Y-192188739D01*
X137131127Y-192171264D01*
X137157778Y-192149684D01*
X137157778Y-191502227D01*
X137131127Y-191480647D01*
X137105406Y-191464949D01*
X137084400Y-191459067D01*
X137061386Y-191465877D01*
G37*
X137061386Y-191465877D02*
X137037673Y-191480647D01*
X137011022Y-191502227D01*
X137011022Y-191823773D01*
X137011107Y-191917830D01*
X137011471Y-191991932D01*
X137012276Y-192048704D01*
X137013687Y-192090768D01*
X137015867Y-192120748D01*
X137018979Y-192141267D01*
X137023186Y-192154949D01*
X137028652Y-192164416D01*
X137032528Y-192169082D01*
X137063966Y-192189575D01*
X137099767Y-192188739D01*
X137131127Y-192171264D01*
X137157778Y-192149684D01*
X137157778Y-191502227D01*
X137131127Y-191480647D01*
X137105406Y-191464949D01*
X137084400Y-191459067D01*
X137061386Y-191465877D01*
G36*
X137505335Y-191461034D02*
G01*
X137485745Y-191468035D01*
X137484990Y-191468377D01*
X137458387Y-191488678D01*
X137443730Y-191509561D01*
X137440862Y-191519352D01*
X137441004Y-191532361D01*
X137445039Y-191550895D01*
X137453854Y-191577257D01*
X137468331Y-191613752D01*
X137489355Y-191662687D01*
X137517812Y-191726365D01*
X137554585Y-191807093D01*
X137574825Y-191851216D01*
X137611375Y-191929985D01*
X137645685Y-192002423D01*
X137676448Y-192065880D01*
X137702352Y-192117708D01*
X137722090Y-192155259D01*
X137734350Y-192175884D01*
X137736776Y-192178733D01*
X137767817Y-192191302D01*
X137802879Y-192189619D01*
X137831000Y-192174332D01*
X137832146Y-192173089D01*
X137843332Y-192156154D01*
X137862096Y-192123170D01*
X137886125Y-192078380D01*
X137913103Y-192026032D01*
X137922799Y-192006742D01*
X137995986Y-191860150D01*
X138075760Y-192019393D01*
X138104233Y-192074415D01*
X138130650Y-192122132D01*
X138152852Y-192158893D01*
X138168681Y-192181044D01*
X138174046Y-192185741D01*
X138215743Y-192192102D01*
X138250151Y-192178733D01*
X138260272Y-192164446D01*
X138277786Y-192132692D01*
X138301265Y-192086597D01*
X138329280Y-192029285D01*
X138360401Y-191963880D01*
X138393201Y-191893507D01*
X138426250Y-191821291D01*
X138458119Y-191750355D01*
X138487381Y-191683825D01*
X138512605Y-191624826D01*
X138532364Y-191576481D01*
X138545228Y-191541915D01*
X138549769Y-191524253D01*
X138549723Y-191523613D01*
X138538674Y-191501388D01*
X138516590Y-191478753D01*
X138515290Y-191477768D01*
X138488147Y-191462425D01*
X138463042Y-191462574D01*
X138453632Y-191465466D01*
X138442166Y-191471718D01*
X138429990Y-191484014D01*
X138415643Y-191504908D01*
X138397664Y-191536949D01*
X138374593Y-191582688D01*
X138344970Y-191644677D01*
X138318255Y-191701898D01*
X138287520Y-191768226D01*
X138259979Y-191827874D01*
X138237062Y-191877725D01*
X138220202Y-191914664D01*
X138210827Y-191935573D01*
X138209460Y-191938845D01*
X138203311Y-191933497D01*
X138189178Y-191911109D01*
X138168943Y-191874946D01*
X138144485Y-191828277D01*
X138134752Y-191809022D01*
X138101783Y-191744004D01*
X138076357Y-191696654D01*
X138056388Y-191664219D01*
X138039790Y-191643946D01*
X138024476Y-191633082D01*
X138008360Y-191628875D01*
X137997857Y-191628400D01*
X137979330Y-191630042D01*
X137963096Y-191636831D01*
X137946965Y-191651566D01*
X137928749Y-191677044D01*
X137906261Y-191716061D01*
X137877311Y-191771414D01*
X137861338Y-191802903D01*
X137835430Y-191853087D01*
X137812833Y-191894704D01*
X137795542Y-191924242D01*
X137785550Y-191938189D01*
X137784191Y-191938770D01*
X137777739Y-191927793D01*
X137763292Y-191899290D01*
X137742297Y-191856244D01*
X137716203Y-191801638D01*
X137686454Y-191738454D01*
X137671820Y-191707071D01*
X137633750Y-191626078D01*
X137603095Y-191563756D01*
X137578263Y-191518071D01*
X137557663Y-191486989D01*
X137539702Y-191468478D01*
X137522790Y-191460504D01*
X137505335Y-191461034D01*
G37*
X137505335Y-191461034D02*
X137485745Y-191468035D01*
X137484990Y-191468377D01*
X137458387Y-191488678D01*
X137443730Y-191509561D01*
X137440862Y-191519352D01*
X137441004Y-191532361D01*
X137445039Y-191550895D01*
X137453854Y-191577257D01*
X137468331Y-191613752D01*
X137489355Y-191662687D01*
X137517812Y-191726365D01*
X137554585Y-191807093D01*
X137574825Y-191851216D01*
X137611375Y-191929985D01*
X137645685Y-192002423D01*
X137676448Y-192065880D01*
X137702352Y-192117708D01*
X137722090Y-192155259D01*
X137734350Y-192175884D01*
X137736776Y-192178733D01*
X137767817Y-192191302D01*
X137802879Y-192189619D01*
X137831000Y-192174332D01*
X137832146Y-192173089D01*
X137843332Y-192156154D01*
X137862096Y-192123170D01*
X137886125Y-192078380D01*
X137913103Y-192026032D01*
X137922799Y-192006742D01*
X137995986Y-191860150D01*
X138075760Y-192019393D01*
X138104233Y-192074415D01*
X138130650Y-192122132D01*
X138152852Y-192158893D01*
X138168681Y-192181044D01*
X138174046Y-192185741D01*
X138215743Y-192192102D01*
X138250151Y-192178733D01*
X138260272Y-192164446D01*
X138277786Y-192132692D01*
X138301265Y-192086597D01*
X138329280Y-192029285D01*
X138360401Y-191963880D01*
X138393201Y-191893507D01*
X138426250Y-191821291D01*
X138458119Y-191750355D01*
X138487381Y-191683825D01*
X138512605Y-191624826D01*
X138532364Y-191576481D01*
X138545228Y-191541915D01*
X138549769Y-191524253D01*
X138549723Y-191523613D01*
X138538674Y-191501388D01*
X138516590Y-191478753D01*
X138515290Y-191477768D01*
X138488147Y-191462425D01*
X138463042Y-191462574D01*
X138453632Y-191465466D01*
X138442166Y-191471718D01*
X138429990Y-191484014D01*
X138415643Y-191504908D01*
X138397664Y-191536949D01*
X138374593Y-191582688D01*
X138344970Y-191644677D01*
X138318255Y-191701898D01*
X138287520Y-191768226D01*
X138259979Y-191827874D01*
X138237062Y-191877725D01*
X138220202Y-191914664D01*
X138210827Y-191935573D01*
X138209460Y-191938845D01*
X138203311Y-191933497D01*
X138189178Y-191911109D01*
X138168943Y-191874946D01*
X138144485Y-191828277D01*
X138134752Y-191809022D01*
X138101783Y-191744004D01*
X138076357Y-191696654D01*
X138056388Y-191664219D01*
X138039790Y-191643946D01*
X138024476Y-191633082D01*
X138008360Y-191628875D01*
X137997857Y-191628400D01*
X137979330Y-191630042D01*
X137963096Y-191636831D01*
X137946965Y-191651566D01*
X137928749Y-191677044D01*
X137906261Y-191716061D01*
X137877311Y-191771414D01*
X137861338Y-191802903D01*
X137835430Y-191853087D01*
X137812833Y-191894704D01*
X137795542Y-191924242D01*
X137785550Y-191938189D01*
X137784191Y-191938770D01*
X137777739Y-191927793D01*
X137763292Y-191899290D01*
X137742297Y-191856244D01*
X137716203Y-191801638D01*
X137686454Y-191738454D01*
X137671820Y-191707071D01*
X137633750Y-191626078D01*
X137603095Y-191563756D01*
X137578263Y-191518071D01*
X137557663Y-191486989D01*
X137539702Y-191468478D01*
X137522790Y-191460504D01*
X137505335Y-191461034D01*
G36*
X140231691Y-191459275D02*
G01*
X140102712Y-191463636D01*
X139993009Y-191476861D01*
X139900774Y-191499741D01*
X139824198Y-191533070D01*
X139761473Y-191577638D01*
X139710788Y-191634236D01*
X139670337Y-191703658D01*
X139669541Y-191705351D01*
X139645399Y-191767483D01*
X139636797Y-191822509D01*
X139643769Y-191877887D01*
X139666346Y-191941073D01*
X139670628Y-191950689D01*
X139699828Y-192006966D01*
X139732644Y-192050451D01*
X139774998Y-192087417D01*
X139832810Y-192124135D01*
X139836169Y-192126052D01*
X139886496Y-192150227D01*
X139943379Y-192168282D01*
X140010473Y-192180839D01*
X140091435Y-192188522D01*
X140189918Y-192191953D01*
X140224714Y-192192251D01*
X140390406Y-192192845D01*
X140413803Y-192163100D01*
X140420743Y-192153319D01*
X140426158Y-192141897D01*
X140430235Y-192126095D01*
X140433163Y-192103175D01*
X140435133Y-192070396D01*
X140435775Y-192046089D01*
X140279156Y-192046089D01*
X140185274Y-192046089D01*
X140130336Y-192044483D01*
X140073940Y-192040255D01*
X140027655Y-192034292D01*
X140024861Y-192033790D01*
X139942652Y-192011736D01*
X139878886Y-191978600D01*
X139831548Y-191932847D01*
X139798618Y-191872939D01*
X139792892Y-191857061D01*
X139787279Y-191832333D01*
X139789709Y-191807902D01*
X139801533Y-191775400D01*
X139808660Y-191759434D01*
X139832000Y-191717006D01*
X139860120Y-191687240D01*
X139891060Y-191666511D01*
X139953034Y-191639537D01*
X140032349Y-191619998D01*
X140124747Y-191608746D01*
X140191667Y-191606270D01*
X140279156Y-191605822D01*
X140279156Y-192046089D01*
X140435775Y-192046089D01*
X140436332Y-192025021D01*
X140436950Y-191964311D01*
X140437175Y-191885526D01*
X140437200Y-191823920D01*
X140437200Y-191514485D01*
X140409491Y-191486776D01*
X140397194Y-191475544D01*
X140383897Y-191467853D01*
X140365328Y-191463040D01*
X140337214Y-191460446D01*
X140295283Y-191459410D01*
X140235263Y-191459270D01*
X140231691Y-191459275D01*
G37*
X140231691Y-191459275D02*
X140102712Y-191463636D01*
X139993009Y-191476861D01*
X139900774Y-191499741D01*
X139824198Y-191533070D01*
X139761473Y-191577638D01*
X139710788Y-191634236D01*
X139670337Y-191703658D01*
X139669541Y-191705351D01*
X139645399Y-191767483D01*
X139636797Y-191822509D01*
X139643769Y-191877887D01*
X139666346Y-191941073D01*
X139670628Y-191950689D01*
X139699828Y-192006966D01*
X139732644Y-192050451D01*
X139774998Y-192087417D01*
X139832810Y-192124135D01*
X139836169Y-192126052D01*
X139886496Y-192150227D01*
X139943379Y-192168282D01*
X140010473Y-192180839D01*
X140091435Y-192188522D01*
X140189918Y-192191953D01*
X140224714Y-192192251D01*
X140390406Y-192192845D01*
X140413803Y-192163100D01*
X140420743Y-192153319D01*
X140426158Y-192141897D01*
X140430235Y-192126095D01*
X140433163Y-192103175D01*
X140435133Y-192070396D01*
X140435775Y-192046089D01*
X140279156Y-192046089D01*
X140185274Y-192046089D01*
X140130336Y-192044483D01*
X140073940Y-192040255D01*
X140027655Y-192034292D01*
X140024861Y-192033790D01*
X139942652Y-192011736D01*
X139878886Y-191978600D01*
X139831548Y-191932847D01*
X139798618Y-191872939D01*
X139792892Y-191857061D01*
X139787279Y-191832333D01*
X139789709Y-191807902D01*
X139801533Y-191775400D01*
X139808660Y-191759434D01*
X139832000Y-191717006D01*
X139860120Y-191687240D01*
X139891060Y-191666511D01*
X139953034Y-191639537D01*
X140032349Y-191619998D01*
X140124747Y-191608746D01*
X140191667Y-191606270D01*
X140279156Y-191605822D01*
X140279156Y-192046089D01*
X140435775Y-192046089D01*
X140436332Y-192025021D01*
X140436950Y-191964311D01*
X140437175Y-191885526D01*
X140437200Y-191823920D01*
X140437200Y-191514485D01*
X140409491Y-191486776D01*
X140397194Y-191475544D01*
X140383897Y-191467853D01*
X140365328Y-191463040D01*
X140337214Y-191460446D01*
X140295283Y-191459410D01*
X140235263Y-191459270D01*
X140231691Y-191459275D01*
G36*
X141019657Y-191459260D02*
G01*
X140943299Y-191460174D01*
X140884783Y-191462311D01*
X140841745Y-191466175D01*
X140811817Y-191472267D01*
X140792632Y-191481090D01*
X140781824Y-191493146D01*
X140777027Y-191508939D01*
X140775873Y-191528970D01*
X140775867Y-191531335D01*
X140776869Y-191553992D01*
X140781604Y-191571503D01*
X140792667Y-191584574D01*
X140812652Y-191593913D01*
X140844154Y-191600227D01*
X140889768Y-191604222D01*
X140952087Y-191606606D01*
X141033707Y-191608086D01*
X141058723Y-191608414D01*
X141300800Y-191611467D01*
X141304186Y-191676378D01*
X141307571Y-191741289D01*
X141139424Y-191741289D01*
X141073734Y-191741531D01*
X141026828Y-191742556D01*
X140994917Y-191744811D01*
X140974209Y-191748742D01*
X140960916Y-191754798D01*
X140951245Y-191763424D01*
X140951183Y-191763493D01*
X140933644Y-191797112D01*
X140934278Y-191833448D01*
X140952686Y-191864423D01*
X140956329Y-191867607D01*
X140969259Y-191875812D01*
X140986976Y-191881521D01*
X141013430Y-191885162D01*
X141052568Y-191887167D01*
X141108338Y-191887964D01*
X141144006Y-191888045D01*
X141306445Y-191888045D01*
X141306445Y-192046089D01*
X141059839Y-192046089D01*
X140978420Y-192046231D01*
X140916590Y-192046814D01*
X140871363Y-192048068D01*
X140839752Y-192050227D01*
X140818769Y-192053523D01*
X140805427Y-192058189D01*
X140796739Y-192064457D01*
X140794550Y-192066733D01*
X140778386Y-192098280D01*
X140777203Y-192134168D01*
X140790464Y-192165285D01*
X140800957Y-192175271D01*
X140811871Y-192180769D01*
X140828783Y-192185022D01*
X140854367Y-192188180D01*
X140891299Y-192190392D01*
X140942254Y-192191806D01*
X141009906Y-192192572D01*
X141096931Y-192192838D01*
X141116606Y-192192845D01*
X141205089Y-192192787D01*
X141273773Y-192192467D01*
X141325436Y-192191667D01*
X141362855Y-192190167D01*
X141388810Y-192187749D01*
X141406078Y-192184194D01*
X141417438Y-192179282D01*
X141425668Y-192172795D01*
X141430183Y-192168138D01*
X141436979Y-192159889D01*
X141442288Y-192149669D01*
X141446294Y-192134800D01*
X141449179Y-192112602D01*
X141451126Y-192080393D01*
X141452319Y-192035496D01*
X141452939Y-191975228D01*
X141453171Y-191896911D01*
X141453200Y-191830994D01*
X141453129Y-191738628D01*
X141452792Y-191666117D01*
X141452002Y-191610737D01*
X141450574Y-191569765D01*
X141448321Y-191540478D01*
X141445057Y-191520153D01*
X141440596Y-191506066D01*
X141434752Y-191495495D01*
X141429803Y-191488811D01*
X141406406Y-191459067D01*
X141116226Y-191459067D01*
X141019657Y-191459260D01*
G37*
X141019657Y-191459260D02*
X140943299Y-191460174D01*
X140884783Y-191462311D01*
X140841745Y-191466175D01*
X140811817Y-191472267D01*
X140792632Y-191481090D01*
X140781824Y-191493146D01*
X140777027Y-191508939D01*
X140775873Y-191528970D01*
X140775867Y-191531335D01*
X140776869Y-191553992D01*
X140781604Y-191571503D01*
X140792667Y-191584574D01*
X140812652Y-191593913D01*
X140844154Y-191600227D01*
X140889768Y-191604222D01*
X140952087Y-191606606D01*
X141033707Y-191608086D01*
X141058723Y-191608414D01*
X141300800Y-191611467D01*
X141304186Y-191676378D01*
X141307571Y-191741289D01*
X141139424Y-191741289D01*
X141073734Y-191741531D01*
X141026828Y-191742556D01*
X140994917Y-191744811D01*
X140974209Y-191748742D01*
X140960916Y-191754798D01*
X140951245Y-191763424D01*
X140951183Y-191763493D01*
X140933644Y-191797112D01*
X140934278Y-191833448D01*
X140952686Y-191864423D01*
X140956329Y-191867607D01*
X140969259Y-191875812D01*
X140986976Y-191881521D01*
X141013430Y-191885162D01*
X141052568Y-191887167D01*
X141108338Y-191887964D01*
X141144006Y-191888045D01*
X141306445Y-191888045D01*
X141306445Y-192046089D01*
X141059839Y-192046089D01*
X140978420Y-192046231D01*
X140916590Y-192046814D01*
X140871363Y-192048068D01*
X140839752Y-192050227D01*
X140818769Y-192053523D01*
X140805427Y-192058189D01*
X140796739Y-192064457D01*
X140794550Y-192066733D01*
X140778386Y-192098280D01*
X140777203Y-192134168D01*
X140790464Y-192165285D01*
X140800957Y-192175271D01*
X140811871Y-192180769D01*
X140828783Y-192185022D01*
X140854367Y-192188180D01*
X140891299Y-192190392D01*
X140942254Y-192191806D01*
X141009906Y-192192572D01*
X141096931Y-192192838D01*
X141116606Y-192192845D01*
X141205089Y-192192787D01*
X141273773Y-192192467D01*
X141325436Y-192191667D01*
X141362855Y-192190167D01*
X141388810Y-192187749D01*
X141406078Y-192184194D01*
X141417438Y-192179282D01*
X141425668Y-192172795D01*
X141430183Y-192168138D01*
X141436979Y-192159889D01*
X141442288Y-192149669D01*
X141446294Y-192134800D01*
X141449179Y-192112602D01*
X141451126Y-192080393D01*
X141452319Y-192035496D01*
X141452939Y-191975228D01*
X141453171Y-191896911D01*
X141453200Y-191830994D01*
X141453129Y-191738628D01*
X141452792Y-191666117D01*
X141452002Y-191610737D01*
X141450574Y-191569765D01*
X141448321Y-191540478D01*
X141445057Y-191520153D01*
X141440596Y-191506066D01*
X141434752Y-191495495D01*
X141429803Y-191488811D01*
X141406406Y-191459067D01*
X141116226Y-191459067D01*
X141019657Y-191459260D01*
G36*
X142550114Y-191463448D02*
G01*
X142526548Y-191477273D01*
X142495735Y-191499881D01*
X142456078Y-191532338D01*
X142405980Y-191575708D01*
X142343843Y-191631058D01*
X142268072Y-191699451D01*
X142181334Y-191778084D01*
X142000711Y-191941878D01*
X141995067Y-191722029D01*
X141993029Y-191646351D01*
X141991063Y-191589994D01*
X141988734Y-191549706D01*
X141985606Y-191522235D01*
X141981245Y-191504329D01*
X141975216Y-191492737D01*
X141967084Y-191484208D01*
X141962772Y-191480623D01*
X141928241Y-191461670D01*
X141895383Y-191464441D01*
X141869318Y-191480633D01*
X141842667Y-191502199D01*
X141839352Y-191817151D01*
X141838435Y-191909779D01*
X141837968Y-191982544D01*
X141838113Y-192038161D01*
X141839032Y-192079342D01*
X141840887Y-192108803D01*
X141843839Y-192129255D01*
X141848050Y-192143413D01*
X141853682Y-192153991D01*
X141859927Y-192162474D01*
X141873439Y-192178207D01*
X141886883Y-192188636D01*
X141902124Y-192192639D01*
X141921026Y-192189094D01*
X141945455Y-192176879D01*
X141977273Y-192154871D01*
X142018348Y-192121949D01*
X142070542Y-192076991D01*
X142135722Y-192018875D01*
X142209556Y-191952099D01*
X142474845Y-191711458D01*
X142480489Y-191930589D01*
X142482531Y-192006128D01*
X142484502Y-192062354D01*
X142486839Y-192102524D01*
X142489981Y-192129896D01*
X142494364Y-192147728D01*
X142500424Y-192159279D01*
X142508600Y-192167807D01*
X142512784Y-192171282D01*
X142549765Y-192190372D01*
X142584708Y-192187493D01*
X142615136Y-192163100D01*
X142622097Y-192153286D01*
X142627523Y-192141826D01*
X142631603Y-192125968D01*
X142634529Y-192102963D01*
X142636492Y-192070062D01*
X142637683Y-192024516D01*
X142638292Y-191963573D01*
X142638511Y-191884486D01*
X142638534Y-191825956D01*
X142638460Y-191734407D01*
X142638113Y-191662687D01*
X142637301Y-191608045D01*
X142635833Y-191567732D01*
X142633519Y-191538998D01*
X142630167Y-191519093D01*
X142625588Y-191505268D01*
X142619589Y-191494772D01*
X142615136Y-191488811D01*
X142603850Y-191474691D01*
X142593301Y-191464029D01*
X142581893Y-191457892D01*
X142568030Y-191457343D01*
X142550114Y-191463448D01*
G37*
X142550114Y-191463448D02*
X142526548Y-191477273D01*
X142495735Y-191499881D01*
X142456078Y-191532338D01*
X142405980Y-191575708D01*
X142343843Y-191631058D01*
X142268072Y-191699451D01*
X142181334Y-191778084D01*
X142000711Y-191941878D01*
X141995067Y-191722029D01*
X141993029Y-191646351D01*
X141991063Y-191589994D01*
X141988734Y-191549706D01*
X141985606Y-191522235D01*
X141981245Y-191504329D01*
X141975216Y-191492737D01*
X141967084Y-191484208D01*
X141962772Y-191480623D01*
X141928241Y-191461670D01*
X141895383Y-191464441D01*
X141869318Y-191480633D01*
X141842667Y-191502199D01*
X141839352Y-191817151D01*
X141838435Y-191909779D01*
X141837968Y-191982544D01*
X141838113Y-192038161D01*
X141839032Y-192079342D01*
X141840887Y-192108803D01*
X141843839Y-192129255D01*
X141848050Y-192143413D01*
X141853682Y-192153991D01*
X141859927Y-192162474D01*
X141873439Y-192178207D01*
X141886883Y-192188636D01*
X141902124Y-192192639D01*
X141921026Y-192189094D01*
X141945455Y-192176879D01*
X141977273Y-192154871D01*
X142018348Y-192121949D01*
X142070542Y-192076991D01*
X142135722Y-192018875D01*
X142209556Y-191952099D01*
X142474845Y-191711458D01*
X142480489Y-191930589D01*
X142482531Y-192006128D01*
X142484502Y-192062354D01*
X142486839Y-192102524D01*
X142489981Y-192129896D01*
X142494364Y-192147728D01*
X142500424Y-192159279D01*
X142508600Y-192167807D01*
X142512784Y-192171282D01*
X142549765Y-192190372D01*
X142584708Y-192187493D01*
X142615136Y-192163100D01*
X142622097Y-192153286D01*
X142627523Y-192141826D01*
X142631603Y-192125968D01*
X142634529Y-192102963D01*
X142636492Y-192070062D01*
X142637683Y-192024516D01*
X142638292Y-191963573D01*
X142638511Y-191884486D01*
X142638534Y-191825956D01*
X142638460Y-191734407D01*
X142638113Y-191662687D01*
X142637301Y-191608045D01*
X142635833Y-191567732D01*
X142633519Y-191538998D01*
X142630167Y-191519093D01*
X142625588Y-191505268D01*
X142619589Y-191494772D01*
X142615136Y-191488811D01*
X142603850Y-191474691D01*
X142593301Y-191464029D01*
X142581893Y-191457892D01*
X142568030Y-191457343D01*
X142550114Y-191463448D01*
G36*
X143200081Y-191464599D02*
G01*
X143131565Y-191476095D01*
X143078943Y-191493967D01*
X143044708Y-191517499D01*
X143035379Y-191530924D01*
X143025893Y-191562148D01*
X143032277Y-191590395D01*
X143052430Y-191617182D01*
X143083745Y-191629713D01*
X143129183Y-191628696D01*
X143164326Y-191621906D01*
X143242419Y-191608971D01*
X143322226Y-191607742D01*
X143411555Y-191618241D01*
X143436229Y-191622690D01*
X143519291Y-191646108D01*
X143584273Y-191680945D01*
X143630461Y-191726604D01*
X143657145Y-191782494D01*
X143662663Y-191811388D01*
X143659051Y-191870012D01*
X143635729Y-191921879D01*
X143594824Y-191965978D01*
X143538459Y-192001299D01*
X143468760Y-192026829D01*
X143387852Y-192041559D01*
X143297860Y-192044478D01*
X143200910Y-192034575D01*
X143195436Y-192033641D01*
X143156875Y-192026459D01*
X143135494Y-192019521D01*
X143126227Y-192009227D01*
X143124006Y-191991976D01*
X143123956Y-191982841D01*
X143123956Y-191944489D01*
X143192431Y-191944489D01*
X143252900Y-191940347D01*
X143294165Y-191927147D01*
X143318175Y-191903730D01*
X143326877Y-191868936D01*
X143326983Y-191864394D01*
X143321892Y-191834654D01*
X143304433Y-191813419D01*
X143271939Y-191799366D01*
X143221743Y-191791173D01*
X143173123Y-191788161D01*
X143102456Y-191786433D01*
X143051198Y-191789070D01*
X143016239Y-191798800D01*
X142994470Y-191818353D01*
X142982780Y-191850456D01*
X142978060Y-191897838D01*
X142977200Y-191960071D01*
X142978609Y-192029535D01*
X142982848Y-192076786D01*
X142989936Y-192102012D01*
X142991311Y-192103988D01*
X143030228Y-192135508D01*
X143087286Y-192160470D01*
X143158869Y-192178340D01*
X143241358Y-192188586D01*
X143331139Y-192190673D01*
X143424592Y-192184068D01*
X143479556Y-192175956D01*
X143565766Y-192151554D01*
X143645892Y-192111662D01*
X143712977Y-192059887D01*
X143723173Y-192049539D01*
X143756302Y-192006035D01*
X143786194Y-191952118D01*
X143809357Y-191895592D01*
X143822298Y-191844259D01*
X143823858Y-191824544D01*
X143817218Y-191783419D01*
X143799568Y-191732252D01*
X143774297Y-191678394D01*
X143744789Y-191629195D01*
X143718719Y-191596334D01*
X143657765Y-191547452D01*
X143578969Y-191508545D01*
X143485157Y-191480494D01*
X143379150Y-191464179D01*
X143282000Y-191460192D01*
X143200081Y-191464599D01*
G37*
X143200081Y-191464599D02*
X143131565Y-191476095D01*
X143078943Y-191493967D01*
X143044708Y-191517499D01*
X143035379Y-191530924D01*
X143025893Y-191562148D01*
X143032277Y-191590395D01*
X143052430Y-191617182D01*
X143083745Y-191629713D01*
X143129183Y-191628696D01*
X143164326Y-191621906D01*
X143242419Y-191608971D01*
X143322226Y-191607742D01*
X143411555Y-191618241D01*
X143436229Y-191622690D01*
X143519291Y-191646108D01*
X143584273Y-191680945D01*
X143630461Y-191726604D01*
X143657145Y-191782494D01*
X143662663Y-191811388D01*
X143659051Y-191870012D01*
X143635729Y-191921879D01*
X143594824Y-191965978D01*
X143538459Y-192001299D01*
X143468760Y-192026829D01*
X143387852Y-192041559D01*
X143297860Y-192044478D01*
X143200910Y-192034575D01*
X143195436Y-192033641D01*
X143156875Y-192026459D01*
X143135494Y-192019521D01*
X143126227Y-192009227D01*
X143124006Y-191991976D01*
X143123956Y-191982841D01*
X143123956Y-191944489D01*
X143192431Y-191944489D01*
X143252900Y-191940347D01*
X143294165Y-191927147D01*
X143318175Y-191903730D01*
X143326877Y-191868936D01*
X143326983Y-191864394D01*
X143321892Y-191834654D01*
X143304433Y-191813419D01*
X143271939Y-191799366D01*
X143221743Y-191791173D01*
X143173123Y-191788161D01*
X143102456Y-191786433D01*
X143051198Y-191789070D01*
X143016239Y-191798800D01*
X142994470Y-191818353D01*
X142982780Y-191850456D01*
X142978060Y-191897838D01*
X142977200Y-191960071D01*
X142978609Y-192029535D01*
X142982848Y-192076786D01*
X142989936Y-192102012D01*
X142991311Y-192103988D01*
X143030228Y-192135508D01*
X143087286Y-192160470D01*
X143158869Y-192178340D01*
X143241358Y-192188586D01*
X143331139Y-192190673D01*
X143424592Y-192184068D01*
X143479556Y-192175956D01*
X143565766Y-192151554D01*
X143645892Y-192111662D01*
X143712977Y-192059887D01*
X143723173Y-192049539D01*
X143756302Y-192006035D01*
X143786194Y-191952118D01*
X143809357Y-191895592D01*
X143822298Y-191844259D01*
X143823858Y-191824544D01*
X143817218Y-191783419D01*
X143799568Y-191732252D01*
X143774297Y-191678394D01*
X143744789Y-191629195D01*
X143718719Y-191596334D01*
X143657765Y-191547452D01*
X143578969Y-191508545D01*
X143485157Y-191480494D01*
X143379150Y-191464179D01*
X143282000Y-191460192D01*
X143200081Y-191464599D01*
G36*
X144173822Y-191481645D02*
G01*
X144167242Y-191489218D01*
X144162079Y-191498987D01*
X144158164Y-191513571D01*
X144155324Y-191535585D01*
X144153387Y-191567648D01*
X144152183Y-191612375D01*
X144151539Y-191672385D01*
X144151284Y-191750294D01*
X144151245Y-191825956D01*
X144151314Y-191919802D01*
X144151638Y-191993689D01*
X144152386Y-192050232D01*
X144153732Y-192092049D01*
X144155846Y-192121757D01*
X144158900Y-192141973D01*
X144163066Y-192155314D01*
X144168516Y-192164398D01*
X144173822Y-192170267D01*
X144206826Y-192189947D01*
X144241991Y-192188181D01*
X144273455Y-192166717D01*
X144280684Y-192158337D01*
X144286334Y-192148614D01*
X144290599Y-192134861D01*
X144293673Y-192114389D01*
X144295752Y-192084512D01*
X144297030Y-192042541D01*
X144297701Y-191985789D01*
X144297959Y-191911567D01*
X144298000Y-191827537D01*
X144298000Y-191514485D01*
X144270291Y-191486776D01*
X144236137Y-191463463D01*
X144203006Y-191462623D01*
X144173822Y-191481645D01*
G37*
X144173822Y-191481645D02*
X144167242Y-191489218D01*
X144162079Y-191498987D01*
X144158164Y-191513571D01*
X144155324Y-191535585D01*
X144153387Y-191567648D01*
X144152183Y-191612375D01*
X144151539Y-191672385D01*
X144151284Y-191750294D01*
X144151245Y-191825956D01*
X144151314Y-191919802D01*
X144151638Y-191993689D01*
X144152386Y-192050232D01*
X144153732Y-192092049D01*
X144155846Y-192121757D01*
X144158900Y-192141973D01*
X144163066Y-192155314D01*
X144168516Y-192164398D01*
X144173822Y-192170267D01*
X144206826Y-192189947D01*
X144241991Y-192188181D01*
X144273455Y-192166717D01*
X144280684Y-192158337D01*
X144286334Y-192148614D01*
X144290599Y-192134861D01*
X144293673Y-192114389D01*
X144295752Y-192084512D01*
X144297030Y-192042541D01*
X144297701Y-191985789D01*
X144297959Y-191911567D01*
X144298000Y-191827537D01*
X144298000Y-191514485D01*
X144270291Y-191486776D01*
X144236137Y-191463463D01*
X144203006Y-191462623D01*
X144173822Y-191481645D01*
G36*
X144941703Y-191460351D02*
G01*
X144866888Y-191465581D01*
X144797306Y-191473750D01*
X144737002Y-191484550D01*
X144690020Y-191497673D01*
X144660406Y-191512813D01*
X144655860Y-191517269D01*
X144640054Y-191551850D01*
X144644847Y-191587351D01*
X144669364Y-191617725D01*
X144670534Y-191618596D01*
X144684954Y-191627954D01*
X144700008Y-191632876D01*
X144721005Y-191633473D01*
X144753257Y-191629861D01*
X144802073Y-191622154D01*
X144806000Y-191621505D01*
X144878739Y-191612569D01*
X144957217Y-191608161D01*
X145035927Y-191608119D01*
X145109361Y-191612279D01*
X145172011Y-191620479D01*
X145218370Y-191632557D01*
X145221416Y-191633771D01*
X145255048Y-191652615D01*
X145266864Y-191671685D01*
X145257614Y-191690439D01*
X145228047Y-191708337D01*
X145178911Y-191724837D01*
X145110957Y-191739396D01*
X145065645Y-191746406D01*
X144971456Y-191759889D01*
X144896544Y-191772214D01*
X144837717Y-191784449D01*
X144791785Y-191797661D01*
X144755555Y-191812917D01*
X144725838Y-191831285D01*
X144699442Y-191853831D01*
X144678230Y-191875971D01*
X144653065Y-191906819D01*
X144640681Y-191933345D01*
X144636808Y-191966026D01*
X144636667Y-191977995D01*
X144639576Y-192017712D01*
X144651202Y-192047259D01*
X144671323Y-192073486D01*
X144712216Y-192113576D01*
X144757817Y-192144149D01*
X144811513Y-192166203D01*
X144876692Y-192180735D01*
X144956744Y-192188741D01*
X145055057Y-192191218D01*
X145071289Y-192191177D01*
X145136849Y-192189818D01*
X145201866Y-192186730D01*
X145259252Y-192182356D01*
X145301922Y-192177140D01*
X145305372Y-192176541D01*
X145347796Y-192166491D01*
X145383780Y-192153796D01*
X145404150Y-192142190D01*
X145423107Y-192111572D01*
X145424427Y-192075918D01*
X145408085Y-192044144D01*
X145404429Y-192040551D01*
X145389315Y-192029876D01*
X145370415Y-192025276D01*
X145341162Y-192026059D01*
X145305651Y-192030127D01*
X145265970Y-192033762D01*
X145210345Y-192036828D01*
X145145406Y-192039053D01*
X145077785Y-192040164D01*
X145060000Y-192040237D01*
X144992128Y-192039964D01*
X144942454Y-192038646D01*
X144906610Y-192035827D01*
X144880224Y-192031050D01*
X144858926Y-192023857D01*
X144846126Y-192017867D01*
X144818000Y-192001233D01*
X144800068Y-191986168D01*
X144797447Y-191981897D01*
X144802976Y-191964263D01*
X144829260Y-191947192D01*
X144874478Y-191931458D01*
X144936808Y-191917838D01*
X144955171Y-191914804D01*
X145051090Y-191899738D01*
X145127641Y-191887146D01*
X145187780Y-191876111D01*
X145234460Y-191865720D01*
X145270637Y-191855056D01*
X145299265Y-191843205D01*
X145323298Y-191829251D01*
X145345692Y-191812281D01*
X145369402Y-191791378D01*
X145377380Y-191784049D01*
X145405353Y-191756699D01*
X145420160Y-191735029D01*
X145425952Y-191710232D01*
X145426889Y-191678983D01*
X145416575Y-191617705D01*
X145385752Y-191565640D01*
X145334595Y-191522958D01*
X145263283Y-191489825D01*
X145212400Y-191474964D01*
X145157100Y-191465366D01*
X145090853Y-191459936D01*
X145017706Y-191458367D01*
X144941703Y-191460351D01*
G37*
X144941703Y-191460351D02*
X144866888Y-191465581D01*
X144797306Y-191473750D01*
X144737002Y-191484550D01*
X144690020Y-191497673D01*
X144660406Y-191512813D01*
X144655860Y-191517269D01*
X144640054Y-191551850D01*
X144644847Y-191587351D01*
X144669364Y-191617725D01*
X144670534Y-191618596D01*
X144684954Y-191627954D01*
X144700008Y-191632876D01*
X144721005Y-191633473D01*
X144753257Y-191629861D01*
X144802073Y-191622154D01*
X144806000Y-191621505D01*
X144878739Y-191612569D01*
X144957217Y-191608161D01*
X145035927Y-191608119D01*
X145109361Y-191612279D01*
X145172011Y-191620479D01*
X145218370Y-191632557D01*
X145221416Y-191633771D01*
X145255048Y-191652615D01*
X145266864Y-191671685D01*
X145257614Y-191690439D01*
X145228047Y-191708337D01*
X145178911Y-191724837D01*
X145110957Y-191739396D01*
X145065645Y-191746406D01*
X144971456Y-191759889D01*
X144896544Y-191772214D01*
X144837717Y-191784449D01*
X144791785Y-191797661D01*
X144755555Y-191812917D01*
X144725838Y-191831285D01*
X144699442Y-191853831D01*
X144678230Y-191875971D01*
X144653065Y-191906819D01*
X144640681Y-191933345D01*
X144636808Y-191966026D01*
X144636667Y-191977995D01*
X144639576Y-192017712D01*
X144651202Y-192047259D01*
X144671323Y-192073486D01*
X144712216Y-192113576D01*
X144757817Y-192144149D01*
X144811513Y-192166203D01*
X144876692Y-192180735D01*
X144956744Y-192188741D01*
X145055057Y-192191218D01*
X145071289Y-192191177D01*
X145136849Y-192189818D01*
X145201866Y-192186730D01*
X145259252Y-192182356D01*
X145301922Y-192177140D01*
X145305372Y-192176541D01*
X145347796Y-192166491D01*
X145383780Y-192153796D01*
X145404150Y-192142190D01*
X145423107Y-192111572D01*
X145424427Y-192075918D01*
X145408085Y-192044144D01*
X145404429Y-192040551D01*
X145389315Y-192029876D01*
X145370415Y-192025276D01*
X145341162Y-192026059D01*
X145305651Y-192030127D01*
X145265970Y-192033762D01*
X145210345Y-192036828D01*
X145145406Y-192039053D01*
X145077785Y-192040164D01*
X145060000Y-192040237D01*
X144992128Y-192039964D01*
X144942454Y-192038646D01*
X144906610Y-192035827D01*
X144880224Y-192031050D01*
X144858926Y-192023857D01*
X144846126Y-192017867D01*
X144818000Y-192001233D01*
X144800068Y-191986168D01*
X144797447Y-191981897D01*
X144802976Y-191964263D01*
X144829260Y-191947192D01*
X144874478Y-191931458D01*
X144936808Y-191917838D01*
X144955171Y-191914804D01*
X145051090Y-191899738D01*
X145127641Y-191887146D01*
X145187780Y-191876111D01*
X145234460Y-191865720D01*
X145270637Y-191855056D01*
X145299265Y-191843205D01*
X145323298Y-191829251D01*
X145345692Y-191812281D01*
X145369402Y-191791378D01*
X145377380Y-191784049D01*
X145405353Y-191756699D01*
X145420160Y-191735029D01*
X145425952Y-191710232D01*
X145426889Y-191678983D01*
X145416575Y-191617705D01*
X145385752Y-191565640D01*
X145334595Y-191522958D01*
X145263283Y-191489825D01*
X145212400Y-191474964D01*
X145157100Y-191465366D01*
X145090853Y-191459936D01*
X145017706Y-191458367D01*
X144941703Y-191460351D01*
G36*
X145962794Y-191459146D02*
G01*
X145893386Y-191459518D01*
X145840997Y-191460385D01*
X145802847Y-191461946D01*
X145776159Y-191464403D01*
X145758153Y-191467957D01*
X145746049Y-191472810D01*
X145737069Y-191479161D01*
X145733818Y-191482084D01*
X145714043Y-191513142D01*
X145710482Y-191548828D01*
X145723491Y-191580510D01*
X145729506Y-191586913D01*
X145739235Y-191593121D01*
X145754901Y-191597910D01*
X145779408Y-191601514D01*
X145815661Y-191604164D01*
X145866565Y-191606095D01*
X145935026Y-191607539D01*
X145997617Y-191608418D01*
X146245334Y-191611467D01*
X146248719Y-191676378D01*
X146252105Y-191741289D01*
X146083958Y-191741289D01*
X146010959Y-191741919D01*
X145957517Y-191744553D01*
X145920628Y-191750309D01*
X145897288Y-191760304D01*
X145884494Y-191775656D01*
X145879242Y-191797482D01*
X145878445Y-191817738D01*
X145880923Y-191842592D01*
X145890277Y-191860906D01*
X145909383Y-191873637D01*
X145941118Y-191881741D01*
X145988359Y-191886176D01*
X146053983Y-191887899D01*
X146089801Y-191888045D01*
X146250978Y-191888045D01*
X146250978Y-192046089D01*
X146002622Y-192046089D01*
X145921213Y-192046202D01*
X145859342Y-192046712D01*
X145813968Y-192047870D01*
X145782054Y-192049930D01*
X145760559Y-192053146D01*
X145746443Y-192057772D01*
X145736668Y-192064059D01*
X145731689Y-192068667D01*
X145714610Y-192095560D01*
X145709111Y-192119467D01*
X145716963Y-192148667D01*
X145731689Y-192170267D01*
X145739546Y-192177066D01*
X145749688Y-192182346D01*
X145764844Y-192186298D01*
X145787741Y-192189113D01*
X145821109Y-192190982D01*
X145867675Y-192192098D01*
X145930167Y-192192651D01*
X146011314Y-192192833D01*
X146053422Y-192192845D01*
X146143598Y-192192765D01*
X146213924Y-192192398D01*
X146267129Y-192191552D01*
X146305940Y-192190036D01*
X146333087Y-192187659D01*
X146351298Y-192184229D01*
X146363300Y-192179554D01*
X146371822Y-192173444D01*
X146375156Y-192170267D01*
X146381755Y-192162670D01*
X146386927Y-192152870D01*
X146390846Y-192138239D01*
X146393684Y-192116152D01*
X146395615Y-192083982D01*
X146396812Y-192039103D01*
X146397448Y-191978889D01*
X146397697Y-191900713D01*
X146397734Y-191827923D01*
X146397700Y-191734707D01*
X146397465Y-191661431D01*
X146396830Y-191605458D01*
X146395594Y-191564151D01*
X146393556Y-191534872D01*
X146390517Y-191514984D01*
X146386277Y-191501850D01*
X146380635Y-191492832D01*
X146373391Y-191485293D01*
X146371606Y-191483612D01*
X146362945Y-191476172D01*
X146352882Y-191470409D01*
X146338625Y-191466112D01*
X146317383Y-191463064D01*
X146286364Y-191461051D01*
X146242777Y-191459860D01*
X146183831Y-191459275D01*
X146106734Y-191459083D01*
X146052001Y-191459067D01*
X145962794Y-191459146D01*
G37*
X145962794Y-191459146D02*
X145893386Y-191459518D01*
X145840997Y-191460385D01*
X145802847Y-191461946D01*
X145776159Y-191464403D01*
X145758153Y-191467957D01*
X145746049Y-191472810D01*
X145737069Y-191479161D01*
X145733818Y-191482084D01*
X145714043Y-191513142D01*
X145710482Y-191548828D01*
X145723491Y-191580510D01*
X145729506Y-191586913D01*
X145739235Y-191593121D01*
X145754901Y-191597910D01*
X145779408Y-191601514D01*
X145815661Y-191604164D01*
X145866565Y-191606095D01*
X145935026Y-191607539D01*
X145997617Y-191608418D01*
X146245334Y-191611467D01*
X146248719Y-191676378D01*
X146252105Y-191741289D01*
X146083958Y-191741289D01*
X146010959Y-191741919D01*
X145957517Y-191744553D01*
X145920628Y-191750309D01*
X145897288Y-191760304D01*
X145884494Y-191775656D01*
X145879242Y-191797482D01*
X145878445Y-191817738D01*
X145880923Y-191842592D01*
X145890277Y-191860906D01*
X145909383Y-191873637D01*
X145941118Y-191881741D01*
X145988359Y-191886176D01*
X146053983Y-191887899D01*
X146089801Y-191888045D01*
X146250978Y-191888045D01*
X146250978Y-192046089D01*
X146002622Y-192046089D01*
X145921213Y-192046202D01*
X145859342Y-192046712D01*
X145813968Y-192047870D01*
X145782054Y-192049930D01*
X145760559Y-192053146D01*
X145746443Y-192057772D01*
X145736668Y-192064059D01*
X145731689Y-192068667D01*
X145714610Y-192095560D01*
X145709111Y-192119467D01*
X145716963Y-192148667D01*
X145731689Y-192170267D01*
X145739546Y-192177066D01*
X145749688Y-192182346D01*
X145764844Y-192186298D01*
X145787741Y-192189113D01*
X145821109Y-192190982D01*
X145867675Y-192192098D01*
X145930167Y-192192651D01*
X146011314Y-192192833D01*
X146053422Y-192192845D01*
X146143598Y-192192765D01*
X146213924Y-192192398D01*
X146267129Y-192191552D01*
X146305940Y-192190036D01*
X146333087Y-192187659D01*
X146351298Y-192184229D01*
X146363300Y-192179554D01*
X146371822Y-192173444D01*
X146375156Y-192170267D01*
X146381755Y-192162670D01*
X146386927Y-192152870D01*
X146390846Y-192138239D01*
X146393684Y-192116152D01*
X146395615Y-192083982D01*
X146396812Y-192039103D01*
X146397448Y-191978889D01*
X146397697Y-191900713D01*
X146397734Y-191827923D01*
X146397700Y-191734707D01*
X146397465Y-191661431D01*
X146396830Y-191605458D01*
X146395594Y-191564151D01*
X146393556Y-191534872D01*
X146390517Y-191514984D01*
X146386277Y-191501850D01*
X146380635Y-191492832D01*
X146373391Y-191485293D01*
X146371606Y-191483612D01*
X146362945Y-191476172D01*
X146352882Y-191470409D01*
X146338625Y-191466112D01*
X146317383Y-191463064D01*
X146286364Y-191461051D01*
X146242777Y-191459860D01*
X146183831Y-191459275D01*
X146106734Y-191459083D01*
X146052001Y-191459067D01*
X145962794Y-191459146D01*
G36*
X147371371Y-191459066D02*
G01*
X147331889Y-191459467D01*
X147216200Y-191462259D01*
X147119311Y-191470550D01*
X147037919Y-191485232D01*
X146968723Y-191507193D01*
X146908420Y-191537322D01*
X146853708Y-191576510D01*
X146834167Y-191593532D01*
X146801750Y-191633363D01*
X146772520Y-191687413D01*
X146749991Y-191747323D01*
X146737679Y-191804739D01*
X146736400Y-191825956D01*
X146744417Y-191884769D01*
X146765899Y-191949013D01*
X146796999Y-192009821D01*
X146833866Y-192058330D01*
X146839854Y-192064182D01*
X146890579Y-192105321D01*
X146946125Y-192137435D01*
X147009696Y-192161365D01*
X147084494Y-192177953D01*
X147173722Y-192188041D01*
X147280582Y-192192469D01*
X147329528Y-192192845D01*
X147391762Y-192192545D01*
X147435528Y-192191292D01*
X147464931Y-192188554D01*
X147484079Y-192183801D01*
X147497077Y-192176501D01*
X147504045Y-192170267D01*
X147510626Y-192162694D01*
X147515788Y-192152924D01*
X147519703Y-192138340D01*
X147522543Y-192116326D01*
X147524480Y-192084264D01*
X147525684Y-192039536D01*
X147526328Y-191979526D01*
X147526583Y-191901617D01*
X147526622Y-191825956D01*
X147526870Y-191725041D01*
X147526817Y-191644427D01*
X147525857Y-191605822D01*
X147379867Y-191605822D01*
X147379867Y-192046089D01*
X147286734Y-192046004D01*
X147230693Y-192044396D01*
X147171999Y-192040256D01*
X147123028Y-192034464D01*
X147121538Y-192034226D01*
X147042392Y-192015090D01*
X146981002Y-191985287D01*
X146934305Y-191942878D01*
X146904635Y-191896961D01*
X146886353Y-191846026D01*
X146887771Y-191798200D01*
X146908988Y-191746933D01*
X146950489Y-191693899D01*
X147007998Y-191654600D01*
X147082750Y-191628331D01*
X147132708Y-191619035D01*
X147189416Y-191612507D01*
X147249519Y-191607782D01*
X147300639Y-191605817D01*
X147303667Y-191605808D01*
X147379867Y-191605822D01*
X147525857Y-191605822D01*
X147525260Y-191581851D01*
X147520998Y-191535055D01*
X147512830Y-191501778D01*
X147499556Y-191479759D01*
X147479974Y-191466739D01*
X147452883Y-191460457D01*
X147417082Y-191458653D01*
X147371371Y-191459066D01*
G37*
X147371371Y-191459066D02*
X147331889Y-191459467D01*
X147216200Y-191462259D01*
X147119311Y-191470550D01*
X147037919Y-191485232D01*
X146968723Y-191507193D01*
X146908420Y-191537322D01*
X146853708Y-191576510D01*
X146834167Y-191593532D01*
X146801750Y-191633363D01*
X146772520Y-191687413D01*
X146749991Y-191747323D01*
X146737679Y-191804739D01*
X146736400Y-191825956D01*
X146744417Y-191884769D01*
X146765899Y-191949013D01*
X146796999Y-192009821D01*
X146833866Y-192058330D01*
X146839854Y-192064182D01*
X146890579Y-192105321D01*
X146946125Y-192137435D01*
X147009696Y-192161365D01*
X147084494Y-192177953D01*
X147173722Y-192188041D01*
X147280582Y-192192469D01*
X147329528Y-192192845D01*
X147391762Y-192192545D01*
X147435528Y-192191292D01*
X147464931Y-192188554D01*
X147484079Y-192183801D01*
X147497077Y-192176501D01*
X147504045Y-192170267D01*
X147510626Y-192162694D01*
X147515788Y-192152924D01*
X147519703Y-192138340D01*
X147522543Y-192116326D01*
X147524480Y-192084264D01*
X147525684Y-192039536D01*
X147526328Y-191979526D01*
X147526583Y-191901617D01*
X147526622Y-191825956D01*
X147526870Y-191725041D01*
X147526817Y-191644427D01*
X147525857Y-191605822D01*
X147379867Y-191605822D01*
X147379867Y-192046089D01*
X147286734Y-192046004D01*
X147230693Y-192044396D01*
X147171999Y-192040256D01*
X147123028Y-192034464D01*
X147121538Y-192034226D01*
X147042392Y-192015090D01*
X146981002Y-191985287D01*
X146934305Y-191942878D01*
X146904635Y-191896961D01*
X146886353Y-191846026D01*
X146887771Y-191798200D01*
X146908988Y-191746933D01*
X146950489Y-191693899D01*
X147007998Y-191654600D01*
X147082750Y-191628331D01*
X147132708Y-191619035D01*
X147189416Y-191612507D01*
X147249519Y-191607782D01*
X147300639Y-191605817D01*
X147303667Y-191605808D01*
X147379867Y-191605822D01*
X147525857Y-191605822D01*
X147525260Y-191581851D01*
X147520998Y-191535055D01*
X147512830Y-191501778D01*
X147499556Y-191479759D01*
X147479974Y-191466739D01*
X147452883Y-191460457D01*
X147417082Y-191458653D01*
X147371371Y-191459066D01*
G36*
X143523043Y-186216571D02*
G01*
X143426768Y-186240809D01*
X143340184Y-186283641D01*
X143265373Y-186343419D01*
X143204418Y-186418494D01*
X143159399Y-186507220D01*
X143133136Y-186603530D01*
X143127286Y-186700795D01*
X143142140Y-186794654D01*
X143175840Y-186882511D01*
X143226528Y-186961770D01*
X143292345Y-187029836D01*
X143371434Y-187084112D01*
X143461934Y-187122002D01*
X143513200Y-187134426D01*
X143557698Y-187141947D01*
X143591999Y-187144919D01*
X143624960Y-187143094D01*
X143665434Y-187136225D01*
X143698531Y-187129250D01*
X143791947Y-187097741D01*
X143875619Y-187046617D01*
X143947665Y-186977429D01*
X144006200Y-186891728D01*
X144020148Y-186864489D01*
X144036586Y-186828122D01*
X144046894Y-186797582D01*
X144052460Y-186765450D01*
X144054669Y-186724307D01*
X144054948Y-186678222D01*
X144050861Y-186593865D01*
X144037446Y-186524586D01*
X144012256Y-186463961D01*
X143972846Y-186405567D01*
X143934298Y-186361302D01*
X143862406Y-186295484D01*
X143787313Y-186250053D01*
X143704562Y-186222850D01*
X143626928Y-186212576D01*
X143523043Y-186216571D01*
G37*
X143523043Y-186216571D02*
X143426768Y-186240809D01*
X143340184Y-186283641D01*
X143265373Y-186343419D01*
X143204418Y-186418494D01*
X143159399Y-186507220D01*
X143133136Y-186603530D01*
X143127286Y-186700795D01*
X143142140Y-186794654D01*
X143175840Y-186882511D01*
X143226528Y-186961770D01*
X143292345Y-187029836D01*
X143371434Y-187084112D01*
X143461934Y-187122002D01*
X143513200Y-187134426D01*
X143557698Y-187141947D01*
X143591999Y-187144919D01*
X143624960Y-187143094D01*
X143665434Y-187136225D01*
X143698531Y-187129250D01*
X143791947Y-187097741D01*
X143875619Y-187046617D01*
X143947665Y-186977429D01*
X144006200Y-186891728D01*
X144020148Y-186864489D01*
X144036586Y-186828122D01*
X144046894Y-186797582D01*
X144052460Y-186765450D01*
X144054669Y-186724307D01*
X144054948Y-186678222D01*
X144050861Y-186593865D01*
X144037446Y-186524586D01*
X144012256Y-186463961D01*
X143972846Y-186405567D01*
X143934298Y-186361302D01*
X143862406Y-186295484D01*
X143787313Y-186250053D01*
X143704562Y-186222850D01*
X143626928Y-186212576D01*
X143523043Y-186216571D01*
G36*
X135063493Y-188662245D02*
G01*
X135063474Y-188896662D01*
X135063448Y-189109603D01*
X135063375Y-189302168D01*
X135063218Y-189475459D01*
X135062936Y-189630576D01*
X135062491Y-189768620D01*
X135061844Y-189890692D01*
X135060955Y-189997894D01*
X135059787Y-190091326D01*
X135058299Y-190172090D01*
X135056454Y-190241286D01*
X135054211Y-190300015D01*
X135051531Y-190349379D01*
X135048377Y-190390478D01*
X135044708Y-190424413D01*
X135040487Y-190452286D01*
X135035673Y-190475198D01*
X135030227Y-190494249D01*
X135024112Y-190510540D01*
X135017288Y-190525173D01*
X135009715Y-190539249D01*
X135001355Y-190553868D01*
X134996161Y-190562974D01*
X134961896Y-190623689D01*
X135820045Y-190623689D01*
X135820045Y-190527733D01*
X135820776Y-190484370D01*
X135822728Y-190451205D01*
X135825537Y-190433424D01*
X135826779Y-190431778D01*
X135838201Y-190438662D01*
X135860916Y-190456505D01*
X135883615Y-190475879D01*
X135938200Y-190516614D01*
X136007679Y-190557617D01*
X136084730Y-190595123D01*
X136162035Y-190625364D01*
X136192887Y-190635012D01*
X136261384Y-190649578D01*
X136344236Y-190659539D01*
X136433629Y-190664583D01*
X136521752Y-190664396D01*
X136600793Y-190658666D01*
X136638489Y-190652858D01*
X136776586Y-190614797D01*
X136903887Y-190557073D01*
X137019708Y-190480211D01*
X137123363Y-190384739D01*
X137214167Y-190271179D01*
X137280969Y-190160381D01*
X137335836Y-190043625D01*
X137377837Y-189924276D01*
X137407833Y-189798283D01*
X137426689Y-189661594D01*
X137435268Y-189510158D01*
X137435994Y-189432711D01*
X137433900Y-189375934D01*
X136604783Y-189375934D01*
X136604576Y-189469002D01*
X136601663Y-189556692D01*
X136596000Y-189633772D01*
X136587545Y-189695009D01*
X136584962Y-189707350D01*
X136553160Y-189814633D01*
X136511502Y-189901658D01*
X136459637Y-189968642D01*
X136397219Y-190015805D01*
X136323900Y-190043365D01*
X136239331Y-190051541D01*
X136143165Y-190040551D01*
X136079689Y-190024829D01*
X136030546Y-190006639D01*
X135976417Y-189980791D01*
X135935756Y-189957089D01*
X135865200Y-189910721D01*
X135865200Y-188760530D01*
X135932608Y-188716962D01*
X136011133Y-188676040D01*
X136095319Y-188649389D01*
X136180443Y-188637465D01*
X136261784Y-188640722D01*
X136334620Y-188659615D01*
X136366574Y-188675184D01*
X136424499Y-188718181D01*
X136473456Y-188774953D01*
X136514610Y-188847575D01*
X136549126Y-188938121D01*
X136578167Y-189048666D01*
X136579448Y-189054533D01*
X136589619Y-189116788D01*
X136597261Y-189194594D01*
X136602330Y-189282720D01*
X136604783Y-189375934D01*
X137433900Y-189375934D01*
X137428143Y-189219895D01*
X137406198Y-189024059D01*
X137370214Y-188845332D01*
X137320241Y-188683845D01*
X137256332Y-188539726D01*
X137178538Y-188413106D01*
X137086911Y-188304115D01*
X136981503Y-188212883D01*
X136936338Y-188181932D01*
X136835389Y-188125785D01*
X136732099Y-188086174D01*
X136622011Y-188062014D01*
X136500670Y-188052219D01*
X136408164Y-188053265D01*
X136278510Y-188064231D01*
X136165916Y-188086046D01*
X136067125Y-188119714D01*
X135978879Y-188166236D01*
X135930014Y-188200448D01*
X135900647Y-188222362D01*
X135878957Y-188237333D01*
X135870747Y-188241733D01*
X135869132Y-188230904D01*
X135867841Y-188200251D01*
X135866862Y-188152526D01*
X135866183Y-188090479D01*
X135865790Y-188016862D01*
X135865670Y-187934427D01*
X135865812Y-187845925D01*
X135866203Y-187754107D01*
X135866829Y-187661724D01*
X135867680Y-187571528D01*
X135868740Y-187486271D01*
X135869999Y-187408703D01*
X135871444Y-187341576D01*
X135873062Y-187287641D01*
X135874839Y-187249650D01*
X135875331Y-187242667D01*
X135882908Y-187172251D01*
X135894469Y-187117102D01*
X135912208Y-187069981D01*
X135938318Y-187023647D01*
X135944585Y-187014067D01*
X135969017Y-186977378D01*
X135063689Y-186977378D01*
X135063493Y-188662245D01*
G37*
X135063493Y-188662245D02*
X135063474Y-188896662D01*
X135063448Y-189109603D01*
X135063375Y-189302168D01*
X135063218Y-189475459D01*
X135062936Y-189630576D01*
X135062491Y-189768620D01*
X135061844Y-189890692D01*
X135060955Y-189997894D01*
X135059787Y-190091326D01*
X135058299Y-190172090D01*
X135056454Y-190241286D01*
X135054211Y-190300015D01*
X135051531Y-190349379D01*
X135048377Y-190390478D01*
X135044708Y-190424413D01*
X135040487Y-190452286D01*
X135035673Y-190475198D01*
X135030227Y-190494249D01*
X135024112Y-190510540D01*
X135017288Y-190525173D01*
X135009715Y-190539249D01*
X135001355Y-190553868D01*
X134996161Y-190562974D01*
X134961896Y-190623689D01*
X135820045Y-190623689D01*
X135820045Y-190527733D01*
X135820776Y-190484370D01*
X135822728Y-190451205D01*
X135825537Y-190433424D01*
X135826779Y-190431778D01*
X135838201Y-190438662D01*
X135860916Y-190456505D01*
X135883615Y-190475879D01*
X135938200Y-190516614D01*
X136007679Y-190557617D01*
X136084730Y-190595123D01*
X136162035Y-190625364D01*
X136192887Y-190635012D01*
X136261384Y-190649578D01*
X136344236Y-190659539D01*
X136433629Y-190664583D01*
X136521752Y-190664396D01*
X136600793Y-190658666D01*
X136638489Y-190652858D01*
X136776586Y-190614797D01*
X136903887Y-190557073D01*
X137019708Y-190480211D01*
X137123363Y-190384739D01*
X137214167Y-190271179D01*
X137280969Y-190160381D01*
X137335836Y-190043625D01*
X137377837Y-189924276D01*
X137407833Y-189798283D01*
X137426689Y-189661594D01*
X137435268Y-189510158D01*
X137435994Y-189432711D01*
X137433900Y-189375934D01*
X136604783Y-189375934D01*
X136604576Y-189469002D01*
X136601663Y-189556692D01*
X136596000Y-189633772D01*
X136587545Y-189695009D01*
X136584962Y-189707350D01*
X136553160Y-189814633D01*
X136511502Y-189901658D01*
X136459637Y-189968642D01*
X136397219Y-190015805D01*
X136323900Y-190043365D01*
X136239331Y-190051541D01*
X136143165Y-190040551D01*
X136079689Y-190024829D01*
X136030546Y-190006639D01*
X135976417Y-189980791D01*
X135935756Y-189957089D01*
X135865200Y-189910721D01*
X135865200Y-188760530D01*
X135932608Y-188716962D01*
X136011133Y-188676040D01*
X136095319Y-188649389D01*
X136180443Y-188637465D01*
X136261784Y-188640722D01*
X136334620Y-188659615D01*
X136366574Y-188675184D01*
X136424499Y-188718181D01*
X136473456Y-188774953D01*
X136514610Y-188847575D01*
X136549126Y-188938121D01*
X136578167Y-189048666D01*
X136579448Y-189054533D01*
X136589619Y-189116788D01*
X136597261Y-189194594D01*
X136602330Y-189282720D01*
X136604783Y-189375934D01*
X137433900Y-189375934D01*
X137428143Y-189219895D01*
X137406198Y-189024059D01*
X137370214Y-188845332D01*
X137320241Y-188683845D01*
X137256332Y-188539726D01*
X137178538Y-188413106D01*
X137086911Y-188304115D01*
X136981503Y-188212883D01*
X136936338Y-188181932D01*
X136835389Y-188125785D01*
X136732099Y-188086174D01*
X136622011Y-188062014D01*
X136500670Y-188052219D01*
X136408164Y-188053265D01*
X136278510Y-188064231D01*
X136165916Y-188086046D01*
X136067125Y-188119714D01*
X135978879Y-188166236D01*
X135930014Y-188200448D01*
X135900647Y-188222362D01*
X135878957Y-188237333D01*
X135870747Y-188241733D01*
X135869132Y-188230904D01*
X135867841Y-188200251D01*
X135866862Y-188152526D01*
X135866183Y-188090479D01*
X135865790Y-188016862D01*
X135865670Y-187934427D01*
X135865812Y-187845925D01*
X135866203Y-187754107D01*
X135866829Y-187661724D01*
X135867680Y-187571528D01*
X135868740Y-187486271D01*
X135869999Y-187408703D01*
X135871444Y-187341576D01*
X135873062Y-187287641D01*
X135874839Y-187249650D01*
X135875331Y-187242667D01*
X135882908Y-187172251D01*
X135894469Y-187117102D01*
X135912208Y-187069981D01*
X135938318Y-187023647D01*
X135944585Y-187014067D01*
X135969017Y-186977378D01*
X135063689Y-186977378D01*
X135063493Y-188662245D01*
G36*
X138576426Y-188056552D02*
G01*
X138424508Y-188076567D01*
X138289244Y-188110202D01*
X138169761Y-188157725D01*
X138065185Y-188219405D01*
X137987576Y-188282965D01*
X137918735Y-188357099D01*
X137864994Y-188436871D01*
X137822090Y-188529091D01*
X137806616Y-188572161D01*
X137793756Y-188611142D01*
X137782554Y-188647289D01*
X137772880Y-188682434D01*
X137764604Y-188718410D01*
X137757597Y-188757050D01*
X137751728Y-188800185D01*
X137746869Y-188849649D01*
X137742890Y-188907273D01*
X137739660Y-188974891D01*
X137737051Y-189054334D01*
X137734933Y-189147436D01*
X137733176Y-189256027D01*
X137731651Y-189381942D01*
X137730228Y-189527012D01*
X137728975Y-189669778D01*
X137727649Y-189825968D01*
X137726444Y-189961239D01*
X137725234Y-190077246D01*
X137723894Y-190175645D01*
X137722300Y-190258093D01*
X137720325Y-190326246D01*
X137717844Y-190381760D01*
X137714731Y-190426292D01*
X137710862Y-190461498D01*
X137706111Y-190489034D01*
X137700352Y-190510556D01*
X137693461Y-190527722D01*
X137685311Y-190542186D01*
X137675777Y-190555606D01*
X137664734Y-190569638D01*
X137660434Y-190575071D01*
X137644614Y-190597910D01*
X137637578Y-190613463D01*
X137637556Y-190613922D01*
X137648433Y-190616121D01*
X137679418Y-190618147D01*
X137728043Y-190619942D01*
X137791837Y-190621451D01*
X137868331Y-190622616D01*
X137955056Y-190623380D01*
X138049543Y-190623686D01*
X138060450Y-190623689D01*
X138483343Y-190623689D01*
X138486605Y-190527622D01*
X138489867Y-190431556D01*
X138551956Y-190482543D01*
X138649286Y-190550057D01*
X138759187Y-190604749D01*
X138845651Y-190634978D01*
X138914722Y-190649666D01*
X138998075Y-190659659D01*
X139087841Y-190664646D01*
X139176155Y-190664313D01*
X139255149Y-190658351D01*
X139291378Y-190652638D01*
X139431397Y-190614776D01*
X139557822Y-190559932D01*
X139669740Y-190488924D01*
X139766238Y-190402568D01*
X139846400Y-190301679D01*
X139909313Y-190187076D01*
X139953688Y-190060984D01*
X139966022Y-190004401D01*
X139973632Y-189942202D01*
X139977261Y-189867363D01*
X139977755Y-189833467D01*
X139977690Y-189830282D01*
X139217752Y-189830282D01*
X139208459Y-189905333D01*
X139180272Y-189969160D01*
X139131803Y-190024798D01*
X139126746Y-190029211D01*
X139078452Y-190064037D01*
X139026743Y-190086620D01*
X138966011Y-190098540D01*
X138890648Y-190101383D01*
X138872541Y-190100978D01*
X138818722Y-190098325D01*
X138778692Y-190092909D01*
X138743676Y-190082745D01*
X138704897Y-190065850D01*
X138694255Y-190060672D01*
X138633604Y-190024844D01*
X138586785Y-189982212D01*
X138574048Y-189966973D01*
X138529378Y-189910462D01*
X138529378Y-189714586D01*
X138529914Y-189635939D01*
X138531604Y-189577988D01*
X138534572Y-189538875D01*
X138538943Y-189516741D01*
X138543028Y-189510274D01*
X138558953Y-189507111D01*
X138592736Y-189504488D01*
X138639660Y-189502655D01*
X138695007Y-189501857D01*
X138703894Y-189501842D01*
X138824670Y-189507096D01*
X138927340Y-189523263D01*
X139013894Y-189550961D01*
X139086319Y-189590808D01*
X139141249Y-189637758D01*
X139185796Y-189695645D01*
X139210520Y-189758693D01*
X139217752Y-189830282D01*
X139977690Y-189830282D01*
X139975822Y-189739712D01*
X139967478Y-189660812D01*
X139951232Y-189589590D01*
X139925595Y-189518864D01*
X139901599Y-189466493D01*
X139842980Y-189371196D01*
X139764883Y-189283170D01*
X139669685Y-189204017D01*
X139559762Y-189135340D01*
X139437490Y-189078741D01*
X139305245Y-189035821D01*
X139240578Y-189020882D01*
X139104396Y-188998777D01*
X138955951Y-188984194D01*
X138804495Y-188977813D01*
X138677936Y-188979445D01*
X138516050Y-188986224D01*
X138523470Y-188927245D01*
X138542762Y-188828092D01*
X138573896Y-188747372D01*
X138617731Y-188684466D01*
X138675129Y-188638756D01*
X138746952Y-188609622D01*
X138834059Y-188596447D01*
X138937314Y-188598611D01*
X138975289Y-188602612D01*
X139116480Y-188627780D01*
X139253293Y-188668814D01*
X139347822Y-188706815D01*
X139392982Y-188726190D01*
X139431415Y-188741760D01*
X139457766Y-188751405D01*
X139465454Y-188753452D01*
X139475198Y-188744374D01*
X139491917Y-188715405D01*
X139515768Y-188666217D01*
X139546907Y-188596484D01*
X139585493Y-188505879D01*
X139592090Y-188490089D01*
X139622147Y-188417772D01*
X139649126Y-188352425D01*
X139671864Y-188296906D01*
X139689194Y-188254072D01*
X139699952Y-188226781D01*
X139703059Y-188217942D01*
X139693060Y-188213187D01*
X139666783Y-188207910D01*
X139638511Y-188204231D01*
X139608354Y-188199474D01*
X139560567Y-188190028D01*
X139499388Y-188176820D01*
X139429054Y-188160776D01*
X139353806Y-188142820D01*
X139325245Y-188135797D01*
X139220184Y-188110209D01*
X139132520Y-188090147D01*
X139057932Y-188074969D01*
X138992097Y-188064035D01*
X138930693Y-188056704D01*
X138869398Y-188052335D01*
X138803890Y-188050287D01*
X138745872Y-188049889D01*
X138576426Y-188056552D01*
G37*
X138576426Y-188056552D02*
X138424508Y-188076567D01*
X138289244Y-188110202D01*
X138169761Y-188157725D01*
X138065185Y-188219405D01*
X137987576Y-188282965D01*
X137918735Y-188357099D01*
X137864994Y-188436871D01*
X137822090Y-188529091D01*
X137806616Y-188572161D01*
X137793756Y-188611142D01*
X137782554Y-188647289D01*
X137772880Y-188682434D01*
X137764604Y-188718410D01*
X137757597Y-188757050D01*
X137751728Y-188800185D01*
X137746869Y-188849649D01*
X137742890Y-188907273D01*
X137739660Y-188974891D01*
X137737051Y-189054334D01*
X137734933Y-189147436D01*
X137733176Y-189256027D01*
X137731651Y-189381942D01*
X137730228Y-189527012D01*
X137728975Y-189669778D01*
X137727649Y-189825968D01*
X137726444Y-189961239D01*
X137725234Y-190077246D01*
X137723894Y-190175645D01*
X137722300Y-190258093D01*
X137720325Y-190326246D01*
X137717844Y-190381760D01*
X137714731Y-190426292D01*
X137710862Y-190461498D01*
X137706111Y-190489034D01*
X137700352Y-190510556D01*
X137693461Y-190527722D01*
X137685311Y-190542186D01*
X137675777Y-190555606D01*
X137664734Y-190569638D01*
X137660434Y-190575071D01*
X137644614Y-190597910D01*
X137637578Y-190613463D01*
X137637556Y-190613922D01*
X137648433Y-190616121D01*
X137679418Y-190618147D01*
X137728043Y-190619942D01*
X137791837Y-190621451D01*
X137868331Y-190622616D01*
X137955056Y-190623380D01*
X138049543Y-190623686D01*
X138060450Y-190623689D01*
X138483343Y-190623689D01*
X138486605Y-190527622D01*
X138489867Y-190431556D01*
X138551956Y-190482543D01*
X138649286Y-190550057D01*
X138759187Y-190604749D01*
X138845651Y-190634978D01*
X138914722Y-190649666D01*
X138998075Y-190659659D01*
X139087841Y-190664646D01*
X139176155Y-190664313D01*
X139255149Y-190658351D01*
X139291378Y-190652638D01*
X139431397Y-190614776D01*
X139557822Y-190559932D01*
X139669740Y-190488924D01*
X139766238Y-190402568D01*
X139846400Y-190301679D01*
X139909313Y-190187076D01*
X139953688Y-190060984D01*
X139966022Y-190004401D01*
X139973632Y-189942202D01*
X139977261Y-189867363D01*
X139977755Y-189833467D01*
X139977690Y-189830282D01*
X139217752Y-189830282D01*
X139208459Y-189905333D01*
X139180272Y-189969160D01*
X139131803Y-190024798D01*
X139126746Y-190029211D01*
X139078452Y-190064037D01*
X139026743Y-190086620D01*
X138966011Y-190098540D01*
X138890648Y-190101383D01*
X138872541Y-190100978D01*
X138818722Y-190098325D01*
X138778692Y-190092909D01*
X138743676Y-190082745D01*
X138704897Y-190065850D01*
X138694255Y-190060672D01*
X138633604Y-190024844D01*
X138586785Y-189982212D01*
X138574048Y-189966973D01*
X138529378Y-189910462D01*
X138529378Y-189714586D01*
X138529914Y-189635939D01*
X138531604Y-189577988D01*
X138534572Y-189538875D01*
X138538943Y-189516741D01*
X138543028Y-189510274D01*
X138558953Y-189507111D01*
X138592736Y-189504488D01*
X138639660Y-189502655D01*
X138695007Y-189501857D01*
X138703894Y-189501842D01*
X138824670Y-189507096D01*
X138927340Y-189523263D01*
X139013894Y-189550961D01*
X139086319Y-189590808D01*
X139141249Y-189637758D01*
X139185796Y-189695645D01*
X139210520Y-189758693D01*
X139217752Y-189830282D01*
X139977690Y-189830282D01*
X139975822Y-189739712D01*
X139967478Y-189660812D01*
X139951232Y-189589590D01*
X139925595Y-189518864D01*
X139901599Y-189466493D01*
X139842980Y-189371196D01*
X139764883Y-189283170D01*
X139669685Y-189204017D01*
X139559762Y-189135340D01*
X139437490Y-189078741D01*
X139305245Y-189035821D01*
X139240578Y-189020882D01*
X139104396Y-188998777D01*
X138955951Y-188984194D01*
X138804495Y-188977813D01*
X138677936Y-188979445D01*
X138516050Y-188986224D01*
X138523470Y-188927245D01*
X138542762Y-188828092D01*
X138573896Y-188747372D01*
X138617731Y-188684466D01*
X138675129Y-188638756D01*
X138746952Y-188609622D01*
X138834059Y-188596447D01*
X138937314Y-188598611D01*
X138975289Y-188602612D01*
X139116480Y-188627780D01*
X139253293Y-188668814D01*
X139347822Y-188706815D01*
X139392982Y-188726190D01*
X139431415Y-188741760D01*
X139457766Y-188751405D01*
X139465454Y-188753452D01*
X139475198Y-188744374D01*
X139491917Y-188715405D01*
X139515768Y-188666217D01*
X139546907Y-188596484D01*
X139585493Y-188505879D01*
X139592090Y-188490089D01*
X139622147Y-188417772D01*
X139649126Y-188352425D01*
X139671864Y-188296906D01*
X139689194Y-188254072D01*
X139699952Y-188226781D01*
X139703059Y-188217942D01*
X139693060Y-188213187D01*
X139666783Y-188207910D01*
X139638511Y-188204231D01*
X139608354Y-188199474D01*
X139560567Y-188190028D01*
X139499388Y-188176820D01*
X139429054Y-188160776D01*
X139353806Y-188142820D01*
X139325245Y-188135797D01*
X139220184Y-188110209D01*
X139132520Y-188090147D01*
X139057932Y-188074969D01*
X138992097Y-188064035D01*
X138930693Y-188056704D01*
X138869398Y-188052335D01*
X138803890Y-188050287D01*
X138745872Y-188049889D01*
X138576426Y-188056552D01*
G36*
X140921571Y-187139071D02*
G01*
X140761430Y-187160245D01*
X140597490Y-187200385D01*
X140427687Y-187259889D01*
X140249957Y-187339154D01*
X140238690Y-187344699D01*
X140180995Y-187372725D01*
X140129448Y-187396802D01*
X140087809Y-187415249D01*
X140059838Y-187426386D01*
X140050267Y-187428933D01*
X140031050Y-187433941D01*
X140026439Y-187438147D01*
X140031542Y-187448580D01*
X140047582Y-187474868D01*
X140072712Y-187514257D01*
X140105086Y-187563991D01*
X140142857Y-187621315D01*
X140184178Y-187683476D01*
X140227202Y-187747718D01*
X140270083Y-187811285D01*
X140310974Y-187871425D01*
X140348029Y-187925380D01*
X140379400Y-187970397D01*
X140403241Y-188003721D01*
X140417706Y-188022597D01*
X140419691Y-188024787D01*
X140429809Y-188020138D01*
X140452150Y-188002962D01*
X140482720Y-187976440D01*
X140498464Y-187961964D01*
X140594953Y-187886682D01*
X140701664Y-187831241D01*
X140817168Y-187796141D01*
X140940038Y-187781880D01*
X141009439Y-187783051D01*
X141130577Y-187800212D01*
X141239795Y-187836094D01*
X141337418Y-187890959D01*
X141423772Y-187965070D01*
X141499185Y-188058688D01*
X141563982Y-188172076D01*
X141601399Y-188258667D01*
X141645252Y-188394366D01*
X141677572Y-188541850D01*
X141698443Y-188697314D01*
X141707949Y-188856956D01*
X141706173Y-189016973D01*
X141693197Y-189173561D01*
X141669106Y-189322918D01*
X141633982Y-189461240D01*
X141587908Y-189584724D01*
X141571627Y-189618978D01*
X141503380Y-189733064D01*
X141422921Y-189829557D01*
X141331430Y-189907670D01*
X141230089Y-189966617D01*
X141120080Y-190005612D01*
X141002585Y-190023868D01*
X140961117Y-190025211D01*
X140839559Y-190014290D01*
X140719122Y-189981474D01*
X140601334Y-189927439D01*
X140487723Y-189852865D01*
X140396315Y-189774539D01*
X140349785Y-189730008D01*
X140168517Y-190027271D01*
X140123420Y-190101433D01*
X140082181Y-190169646D01*
X140046265Y-190229459D01*
X140017134Y-190278420D01*
X139996250Y-190314079D01*
X139985076Y-190333984D01*
X139983625Y-190337079D01*
X139991854Y-190346718D01*
X140017433Y-190363999D01*
X140057127Y-190387283D01*
X140107703Y-190414934D01*
X140165926Y-190445315D01*
X140228563Y-190476790D01*
X140292379Y-190507722D01*
X140354140Y-190536473D01*
X140410612Y-190561408D01*
X140458562Y-190580889D01*
X140482014Y-190589318D01*
X140615779Y-190627133D01*
X140753673Y-190652136D01*
X140901378Y-190665140D01*
X141028167Y-190667468D01*
X141096122Y-190666373D01*
X141161723Y-190664275D01*
X141219153Y-190661434D01*
X141262597Y-190658106D01*
X141276702Y-190656422D01*
X141415716Y-190627587D01*
X141557243Y-190582468D01*
X141694725Y-190523750D01*
X141821606Y-190454120D01*
X141899111Y-190401441D01*
X142026519Y-190293239D01*
X142144822Y-190166671D01*
X142251828Y-190024866D01*
X142345348Y-189870951D01*
X142423190Y-189708053D01*
X142467044Y-189590756D01*
X142517292Y-189407128D01*
X142550791Y-189212581D01*
X142567551Y-189011325D01*
X142567584Y-188807568D01*
X142550899Y-188605521D01*
X142517507Y-188409392D01*
X142467420Y-188223391D01*
X142463603Y-188211803D01*
X142400719Y-188049750D01*
X142323972Y-187901832D01*
X142230758Y-187763865D01*
X142118473Y-187631661D01*
X142074608Y-187586399D01*
X141938466Y-187462457D01*
X141798509Y-187359915D01*
X141652589Y-187277656D01*
X141498558Y-187214564D01*
X141334268Y-187169523D01*
X141238711Y-187152033D01*
X141079977Y-187136466D01*
X140921571Y-187139071D01*
G37*
X140921571Y-187139071D02*
X140761430Y-187160245D01*
X140597490Y-187200385D01*
X140427687Y-187259889D01*
X140249957Y-187339154D01*
X140238690Y-187344699D01*
X140180995Y-187372725D01*
X140129448Y-187396802D01*
X140087809Y-187415249D01*
X140059838Y-187426386D01*
X140050267Y-187428933D01*
X140031050Y-187433941D01*
X140026439Y-187438147D01*
X140031542Y-187448580D01*
X140047582Y-187474868D01*
X140072712Y-187514257D01*
X140105086Y-187563991D01*
X140142857Y-187621315D01*
X140184178Y-187683476D01*
X140227202Y-187747718D01*
X140270083Y-187811285D01*
X140310974Y-187871425D01*
X140348029Y-187925380D01*
X140379400Y-187970397D01*
X140403241Y-188003721D01*
X140417706Y-188022597D01*
X140419691Y-188024787D01*
X140429809Y-188020138D01*
X140452150Y-188002962D01*
X140482720Y-187976440D01*
X140498464Y-187961964D01*
X140594953Y-187886682D01*
X140701664Y-187831241D01*
X140817168Y-187796141D01*
X140940038Y-187781880D01*
X141009439Y-187783051D01*
X141130577Y-187800212D01*
X141239795Y-187836094D01*
X141337418Y-187890959D01*
X141423772Y-187965070D01*
X141499185Y-188058688D01*
X141563982Y-188172076D01*
X141601399Y-188258667D01*
X141645252Y-188394366D01*
X141677572Y-188541850D01*
X141698443Y-188697314D01*
X141707949Y-188856956D01*
X141706173Y-189016973D01*
X141693197Y-189173561D01*
X141669106Y-189322918D01*
X141633982Y-189461240D01*
X141587908Y-189584724D01*
X141571627Y-189618978D01*
X141503380Y-189733064D01*
X141422921Y-189829557D01*
X141331430Y-189907670D01*
X141230089Y-189966617D01*
X141120080Y-190005612D01*
X141002585Y-190023868D01*
X140961117Y-190025211D01*
X140839559Y-190014290D01*
X140719122Y-189981474D01*
X140601334Y-189927439D01*
X140487723Y-189852865D01*
X140396315Y-189774539D01*
X140349785Y-189730008D01*
X140168517Y-190027271D01*
X140123420Y-190101433D01*
X140082181Y-190169646D01*
X140046265Y-190229459D01*
X140017134Y-190278420D01*
X139996250Y-190314079D01*
X139985076Y-190333984D01*
X139983625Y-190337079D01*
X139991854Y-190346718D01*
X140017433Y-190363999D01*
X140057127Y-190387283D01*
X140107703Y-190414934D01*
X140165926Y-190445315D01*
X140228563Y-190476790D01*
X140292379Y-190507722D01*
X140354140Y-190536473D01*
X140410612Y-190561408D01*
X140458562Y-190580889D01*
X140482014Y-190589318D01*
X140615779Y-190627133D01*
X140753673Y-190652136D01*
X140901378Y-190665140D01*
X141028167Y-190667468D01*
X141096122Y-190666373D01*
X141161723Y-190664275D01*
X141219153Y-190661434D01*
X141262597Y-190658106D01*
X141276702Y-190656422D01*
X141415716Y-190627587D01*
X141557243Y-190582468D01*
X141694725Y-190523750D01*
X141821606Y-190454120D01*
X141899111Y-190401441D01*
X142026519Y-190293239D01*
X142144822Y-190166671D01*
X142251828Y-190024866D01*
X142345348Y-189870951D01*
X142423190Y-189708053D01*
X142467044Y-189590756D01*
X142517292Y-189407128D01*
X142550791Y-189212581D01*
X142567551Y-189011325D01*
X142567584Y-188807568D01*
X142550899Y-188605521D01*
X142517507Y-188409392D01*
X142467420Y-188223391D01*
X142463603Y-188211803D01*
X142400719Y-188049750D01*
X142323972Y-187901832D01*
X142230758Y-187763865D01*
X142118473Y-187631661D01*
X142074608Y-187586399D01*
X141938466Y-187462457D01*
X141798509Y-187359915D01*
X141652589Y-187277656D01*
X141498558Y-187214564D01*
X141334268Y-187169523D01*
X141238711Y-187152033D01*
X141079977Y-187136466D01*
X140921571Y-187139071D01*
G36*
X144196400Y-186679054D02*
G01*
X144185535Y-186792993D01*
X144153918Y-186900616D01*
X144103015Y-186999615D01*
X144034293Y-187087684D01*
X143949219Y-187162516D01*
X143852232Y-187220384D01*
X143745964Y-187260005D01*
X143638950Y-187278573D01*
X143533300Y-187277434D01*
X143431125Y-187257930D01*
X143334534Y-187221406D01*
X143245638Y-187169205D01*
X143166546Y-187102673D01*
X143099369Y-187023152D01*
X143046217Y-186931987D01*
X143009199Y-186830523D01*
X142990427Y-186720102D01*
X142988489Y-186670206D01*
X142988489Y-186582267D01*
X142936560Y-186582267D01*
X142900253Y-186585111D01*
X142873355Y-186596911D01*
X142846249Y-186620649D01*
X142807867Y-186659031D01*
X142807867Y-188850602D01*
X142807876Y-189112739D01*
X142807908Y-189353241D01*
X142807972Y-189573048D01*
X142808076Y-189773101D01*
X142808227Y-189954344D01*
X142808434Y-190117716D01*
X142808706Y-190264160D01*
X142809050Y-190394617D01*
X142809474Y-190510029D01*
X142809987Y-190611338D01*
X142810597Y-190699484D01*
X142811312Y-190775410D01*
X142812140Y-190840057D01*
X142813089Y-190894367D01*
X142814167Y-190939280D01*
X142815383Y-190975740D01*
X142816745Y-191004687D01*
X142818261Y-191027063D01*
X142819938Y-191043809D01*
X142821786Y-191055868D01*
X142823813Y-191064180D01*
X142826025Y-191069687D01*
X142827108Y-191071537D01*
X142831271Y-191078549D01*
X142834805Y-191084996D01*
X142838635Y-191090900D01*
X142843682Y-191096286D01*
X142850871Y-191101178D01*
X142861123Y-191105598D01*
X142875364Y-191109572D01*
X142894514Y-191113121D01*
X142919499Y-191116270D01*
X142951240Y-191119042D01*
X142990662Y-191121461D01*
X143038686Y-191123551D01*
X143096237Y-191125335D01*
X143164237Y-191126837D01*
X143243610Y-191128080D01*
X143335279Y-191129089D01*
X143440166Y-191129885D01*
X143559196Y-191130494D01*
X143693290Y-191130939D01*
X143843373Y-191131243D01*
X144010367Y-191131430D01*
X144195196Y-191131524D01*
X144398783Y-191131548D01*
X144622050Y-191131525D01*
X144865922Y-191131480D01*
X145131321Y-191131437D01*
X145169704Y-191131432D01*
X145436682Y-191131389D01*
X145682002Y-191131318D01*
X145906583Y-191131213D01*
X146111345Y-191131066D01*
X146297206Y-191130869D01*
X146465088Y-191130616D01*
X146615908Y-191130300D01*
X146750587Y-191129913D01*
X146870044Y-191129447D01*
X146975199Y-191128897D01*
X147066971Y-191128253D01*
X147146279Y-191127511D01*
X147214043Y-191126661D01*
X147271182Y-191125697D01*
X147318617Y-191124611D01*
X147357266Y-191123397D01*
X147388049Y-191122047D01*
X147411885Y-191120555D01*
X147429694Y-191118911D01*
X147442395Y-191117111D01*
X147450908Y-191115145D01*
X147455266Y-191113477D01*
X147463728Y-191109906D01*
X147471497Y-191107270D01*
X147478602Y-191104634D01*
X147485073Y-191101062D01*
X147490939Y-191095621D01*
X147496229Y-191087375D01*
X147500974Y-191075390D01*
X147505202Y-191058731D01*
X147508943Y-191036463D01*
X147512227Y-191007652D01*
X147515083Y-190971363D01*
X147517540Y-190926661D01*
X147519629Y-190872611D01*
X147521378Y-190808279D01*
X147522817Y-190732730D01*
X147523976Y-190645030D01*
X147524883Y-190544243D01*
X147525569Y-190429434D01*
X147526063Y-190299670D01*
X147526395Y-190154015D01*
X147526593Y-189991535D01*
X147526687Y-189811295D01*
X147526708Y-189612360D01*
X147526685Y-189393796D01*
X147526646Y-189154668D01*
X147526622Y-188894040D01*
X147526622Y-188851889D01*
X147526636Y-188588992D01*
X147526661Y-188347732D01*
X147526671Y-188127165D01*
X147526642Y-187926352D01*
X147526548Y-187744349D01*
X147526362Y-187580216D01*
X147526059Y-187433011D01*
X147525614Y-187301792D01*
X147525034Y-187191867D01*
X147222197Y-187191867D01*
X147182407Y-187249711D01*
X147171236Y-187265479D01*
X147161166Y-187279441D01*
X147152138Y-187292784D01*
X147144097Y-187306693D01*
X147136986Y-187322356D01*
X147130747Y-187340958D01*
X147125325Y-187363686D01*
X147120662Y-187391727D01*
X147116701Y-187426267D01*
X147113385Y-187468492D01*
X147110659Y-187519589D01*
X147108464Y-187580744D01*
X147106745Y-187653144D01*
X147105444Y-187737975D01*
X147104505Y-187836422D01*
X147103870Y-187949674D01*
X147103484Y-188078916D01*
X147103288Y-188225334D01*
X147103227Y-188390116D01*
X147103243Y-188574447D01*
X147103280Y-188779513D01*
X147103289Y-188902133D01*
X147103265Y-189119082D01*
X147103231Y-189314642D01*
X147103243Y-189489999D01*
X147103358Y-189646341D01*
X147103630Y-189784857D01*
X147104118Y-189906734D01*
X147104876Y-190013160D01*
X147105962Y-190105322D01*
X147107431Y-190184409D01*
X147109340Y-190251608D01*
X147111744Y-190308107D01*
X147114701Y-190355093D01*
X147118266Y-190393755D01*
X147122495Y-190425280D01*
X147127446Y-190450855D01*
X147133173Y-190471670D01*
X147139733Y-190488911D01*
X147147183Y-190503765D01*
X147155579Y-190517422D01*
X147164976Y-190531069D01*
X147175432Y-190545893D01*
X147181523Y-190554783D01*
X147220296Y-190612400D01*
X146688732Y-190612400D01*
X146565483Y-190612365D01*
X146462987Y-190612215D01*
X146379420Y-190611878D01*
X146312956Y-190611286D01*
X146261771Y-190610367D01*
X146224041Y-190609051D01*
X146197940Y-190607269D01*
X146181644Y-190604951D01*
X146173328Y-190602026D01*
X146171168Y-190598424D01*
X146173339Y-190594075D01*
X146174535Y-190592645D01*
X146199685Y-190555573D01*
X146225583Y-190502772D01*
X146249192Y-190440770D01*
X146257461Y-190414357D01*
X146262078Y-190396416D01*
X146265979Y-190375355D01*
X146269248Y-190349089D01*
X146271966Y-190315532D01*
X146274215Y-190272599D01*
X146276077Y-190218204D01*
X146277636Y-190150262D01*
X146278972Y-190066688D01*
X146280169Y-189965395D01*
X146281308Y-189844300D01*
X146281685Y-189799600D01*
X146282702Y-189674449D01*
X146283460Y-189570082D01*
X146283903Y-189484707D01*
X146283970Y-189416533D01*
X146283605Y-189363765D01*
X146282748Y-189324614D01*
X146281341Y-189297285D01*
X146279325Y-189279986D01*
X146276643Y-189270926D01*
X146273236Y-189268312D01*
X146269044Y-189270351D01*
X146264571Y-189274667D01*
X146254216Y-189287602D01*
X146232158Y-189316676D01*
X146199957Y-189359759D01*
X146159174Y-189414718D01*
X146111370Y-189479423D01*
X146058105Y-189551742D01*
X146000940Y-189629544D01*
X145941437Y-189710698D01*
X145881155Y-189793072D01*
X145821655Y-189874536D01*
X145764498Y-189952957D01*
X145711245Y-190026204D01*
X145663457Y-190092147D01*
X145622693Y-190148654D01*
X145590516Y-190193593D01*
X145568485Y-190224834D01*
X145563917Y-190231466D01*
X145540996Y-190268369D01*
X145514188Y-190316359D01*
X145488789Y-190365897D01*
X145485568Y-190372577D01*
X145463890Y-190420772D01*
X145451304Y-190458334D01*
X145445574Y-190494160D01*
X145444456Y-190536200D01*
X145445090Y-190612400D01*
X144290651Y-190612400D01*
X144381815Y-190518669D01*
X144428612Y-190468775D01*
X144478899Y-190412295D01*
X144524944Y-190358026D01*
X144545369Y-190332673D01*
X144575807Y-190293128D01*
X144615862Y-190239916D01*
X144664361Y-190174667D01*
X144720135Y-190099011D01*
X144782011Y-190014577D01*
X144848819Y-189922994D01*
X144919387Y-189825892D01*
X144992545Y-189724901D01*
X145067121Y-189621650D01*
X145141944Y-189517768D01*
X145215843Y-189414885D01*
X145287646Y-189314631D01*
X145356184Y-189218636D01*
X145420284Y-189128527D01*
X145478775Y-189045936D01*
X145530486Y-188972492D01*
X145574247Y-188909824D01*
X145608885Y-188859561D01*
X145633230Y-188823334D01*
X145646111Y-188802771D01*
X145647869Y-188798668D01*
X145639910Y-188787342D01*
X145619115Y-188760162D01*
X145586847Y-188718829D01*
X145544470Y-188665044D01*
X145493347Y-188600506D01*
X145434841Y-188526918D01*
X145370314Y-188445978D01*
X145301131Y-188359388D01*
X145228653Y-188268848D01*
X145154246Y-188176060D01*
X145094517Y-188101702D01*
X144083511Y-188101702D01*
X144077602Y-188114659D01*
X144063272Y-188136908D01*
X144062225Y-188138391D01*
X144043438Y-188168544D01*
X144023791Y-188205375D01*
X144019892Y-188213511D01*
X144016356Y-188221940D01*
X144013230Y-188232059D01*
X144010486Y-188245260D01*
X144008092Y-188262938D01*
X144006019Y-188286484D01*
X144004235Y-188317293D01*
X144002712Y-188356757D01*
X144001419Y-188406269D01*
X144000326Y-188467223D01*
X143999403Y-188541011D01*
X143998619Y-188629028D01*
X143997945Y-188732665D01*
X143997350Y-188853316D01*
X143996805Y-188992374D01*
X143996279Y-189151232D01*
X143995745Y-189330089D01*
X143995206Y-189515207D01*
X143994772Y-189679145D01*
X143994509Y-189823303D01*
X143994484Y-189949079D01*
X143994765Y-190057871D01*
X143995419Y-190151077D01*
X143996514Y-190230097D01*
X143998118Y-190296328D01*
X144000297Y-190351170D01*
X144003119Y-190396021D01*
X144006651Y-190432278D01*
X144010961Y-190461341D01*
X144016117Y-190484609D01*
X144022185Y-190503479D01*
X144029233Y-190519351D01*
X144037329Y-190533622D01*
X144046540Y-190547691D01*
X144055040Y-190560158D01*
X144072176Y-190586452D01*
X144082322Y-190604037D01*
X144083511Y-190607257D01*
X144072604Y-190608334D01*
X144041411Y-190609335D01*
X143992223Y-190610235D01*
X143927333Y-190611010D01*
X143849030Y-190611637D01*
X143759607Y-190612091D01*
X143661356Y-190612349D01*
X143592445Y-190612400D01*
X143487452Y-190612180D01*
X143390610Y-190611548D01*
X143304107Y-190610549D01*
X143230132Y-190609227D01*
X143170874Y-190607626D01*
X143128520Y-190605791D01*
X143105260Y-190603765D01*
X143101378Y-190602493D01*
X143109076Y-190587591D01*
X143117074Y-190579560D01*
X143130246Y-190562434D01*
X143147485Y-190532183D01*
X143159407Y-190507622D01*
X143186045Y-190448711D01*
X143189120Y-189271845D01*
X143192195Y-188094978D01*
X143637853Y-188094978D01*
X143735670Y-188095142D01*
X143826064Y-188095611D01*
X143906630Y-188096347D01*
X143974962Y-188097316D01*
X144028656Y-188098480D01*
X144065305Y-188099803D01*
X144082504Y-188101249D01*
X144083511Y-188101702D01*
X145094517Y-188101702D01*
X145079270Y-188082722D01*
X145005090Y-187990537D01*
X144933069Y-187901204D01*
X144864569Y-187816424D01*
X144800955Y-187737898D01*
X144743588Y-187667326D01*
X144693833Y-187606409D01*
X144653052Y-187556847D01*
X144635888Y-187536178D01*
X144549596Y-187435516D01*
X144472997Y-187352259D01*
X144404183Y-187284438D01*
X144341248Y-187230089D01*
X144331867Y-187222722D01*
X144292356Y-187192117D01*
X145424116Y-187191867D01*
X145418827Y-187239844D01*
X145422130Y-187297188D01*
X145443661Y-187365463D01*
X145483635Y-187445212D01*
X145528943Y-187517495D01*
X145545161Y-187540140D01*
X145573214Y-187577696D01*
X145611430Y-187628021D01*
X145658137Y-187688973D01*
X145711661Y-187758411D01*
X145770331Y-187834194D01*
X145832475Y-187914180D01*
X145896421Y-187996228D01*
X145960495Y-188078196D01*
X146023027Y-188157943D01*
X146082343Y-188233327D01*
X146136771Y-188302207D01*
X146184639Y-188362442D01*
X146224275Y-188411889D01*
X146254006Y-188448408D01*
X146272161Y-188469858D01*
X146275220Y-188473156D01*
X146278079Y-188465149D01*
X146280293Y-188434855D01*
X146281857Y-188382556D01*
X146282767Y-188308531D01*
X146283020Y-188213063D01*
X146282613Y-188096434D01*
X146281704Y-187976445D01*
X146280382Y-187844333D01*
X146278857Y-187732594D01*
X146276881Y-187639025D01*
X146274206Y-187561419D01*
X146270582Y-187497574D01*
X146265761Y-187445283D01*
X146259494Y-187402344D01*
X146251532Y-187366551D01*
X146241627Y-187335700D01*
X146229531Y-187307586D01*
X146214993Y-187280005D01*
X146200311Y-187254966D01*
X146162314Y-187191867D01*
X147222197Y-187191867D01*
X147525034Y-187191867D01*
X147525001Y-187185617D01*
X147524195Y-187083544D01*
X147523170Y-186994633D01*
X147521900Y-186917941D01*
X147520360Y-186852527D01*
X147518524Y-186797449D01*
X147516367Y-186751765D01*
X147513863Y-186714534D01*
X147510987Y-186684813D01*
X147507713Y-186661662D01*
X147504015Y-186644139D01*
X147499869Y-186631301D01*
X147495247Y-186622208D01*
X147490126Y-186615918D01*
X147484478Y-186611488D01*
X147478279Y-186607978D01*
X147471504Y-186604445D01*
X147465508Y-186600876D01*
X147460275Y-186598300D01*
X147452099Y-186595972D01*
X147439886Y-186593878D01*
X147422541Y-186592007D01*
X147398969Y-186590347D01*
X147368077Y-186588884D01*
X147328768Y-186587608D01*
X147279950Y-186586504D01*
X147220527Y-186585561D01*
X147149404Y-186584767D01*
X147065488Y-186584109D01*
X146967683Y-186583575D01*
X146854894Y-186583153D01*
X146726029Y-186582829D01*
X146579991Y-186582592D01*
X146415686Y-186582430D01*
X146232020Y-186582330D01*
X146027897Y-186582280D01*
X145816753Y-186582267D01*
X144196400Y-186582267D01*
X144196400Y-186679054D01*
G37*
X144196400Y-186679054D02*
X144185535Y-186792993D01*
X144153918Y-186900616D01*
X144103015Y-186999615D01*
X144034293Y-187087684D01*
X143949219Y-187162516D01*
X143852232Y-187220384D01*
X143745964Y-187260005D01*
X143638950Y-187278573D01*
X143533300Y-187277434D01*
X143431125Y-187257930D01*
X143334534Y-187221406D01*
X143245638Y-187169205D01*
X143166546Y-187102673D01*
X143099369Y-187023152D01*
X143046217Y-186931987D01*
X143009199Y-186830523D01*
X142990427Y-186720102D01*
X142988489Y-186670206D01*
X142988489Y-186582267D01*
X142936560Y-186582267D01*
X142900253Y-186585111D01*
X142873355Y-186596911D01*
X142846249Y-186620649D01*
X142807867Y-186659031D01*
X142807867Y-188850602D01*
X142807876Y-189112739D01*
X142807908Y-189353241D01*
X142807972Y-189573048D01*
X142808076Y-189773101D01*
X142808227Y-189954344D01*
X142808434Y-190117716D01*
X142808706Y-190264160D01*
X142809050Y-190394617D01*
X142809474Y-190510029D01*
X142809987Y-190611338D01*
X142810597Y-190699484D01*
X142811312Y-190775410D01*
X142812140Y-190840057D01*
X142813089Y-190894367D01*
X142814167Y-190939280D01*
X142815383Y-190975740D01*
X142816745Y-191004687D01*
X142818261Y-191027063D01*
X142819938Y-191043809D01*
X142821786Y-191055868D01*
X142823813Y-191064180D01*
X142826025Y-191069687D01*
X142827108Y-191071537D01*
X142831271Y-191078549D01*
X142834805Y-191084996D01*
X142838635Y-191090900D01*
X142843682Y-191096286D01*
X142850871Y-191101178D01*
X142861123Y-191105598D01*
X142875364Y-191109572D01*
X142894514Y-191113121D01*
X142919499Y-191116270D01*
X142951240Y-191119042D01*
X142990662Y-191121461D01*
X143038686Y-191123551D01*
X143096237Y-191125335D01*
X143164237Y-191126837D01*
X143243610Y-191128080D01*
X143335279Y-191129089D01*
X143440166Y-191129885D01*
X143559196Y-191130494D01*
X143693290Y-191130939D01*
X143843373Y-191131243D01*
X144010367Y-191131430D01*
X144195196Y-191131524D01*
X144398783Y-191131548D01*
X144622050Y-191131525D01*
X144865922Y-191131480D01*
X145131321Y-191131437D01*
X145169704Y-191131432D01*
X145436682Y-191131389D01*
X145682002Y-191131318D01*
X145906583Y-191131213D01*
X146111345Y-191131066D01*
X146297206Y-191130869D01*
X146465088Y-191130616D01*
X146615908Y-191130300D01*
X146750587Y-191129913D01*
X146870044Y-191129447D01*
X146975199Y-191128897D01*
X147066971Y-191128253D01*
X147146279Y-191127511D01*
X147214043Y-191126661D01*
X147271182Y-191125697D01*
X147318617Y-191124611D01*
X147357266Y-191123397D01*
X147388049Y-191122047D01*
X147411885Y-191120555D01*
X147429694Y-191118911D01*
X147442395Y-191117111D01*
X147450908Y-191115145D01*
X147455266Y-191113477D01*
X147463728Y-191109906D01*
X147471497Y-191107270D01*
X147478602Y-191104634D01*
X147485073Y-191101062D01*
X147490939Y-191095621D01*
X147496229Y-191087375D01*
X147500974Y-191075390D01*
X147505202Y-191058731D01*
X147508943Y-191036463D01*
X147512227Y-191007652D01*
X147515083Y-190971363D01*
X147517540Y-190926661D01*
X147519629Y-190872611D01*
X147521378Y-190808279D01*
X147522817Y-190732730D01*
X147523976Y-190645030D01*
X147524883Y-190544243D01*
X147525569Y-190429434D01*
X147526063Y-190299670D01*
X147526395Y-190154015D01*
X147526593Y-189991535D01*
X147526687Y-189811295D01*
X147526708Y-189612360D01*
X147526685Y-189393796D01*
X147526646Y-189154668D01*
X147526622Y-188894040D01*
X147526622Y-188851889D01*
X147526636Y-188588992D01*
X147526661Y-188347732D01*
X147526671Y-188127165D01*
X147526642Y-187926352D01*
X147526548Y-187744349D01*
X147526362Y-187580216D01*
X147526059Y-187433011D01*
X147525614Y-187301792D01*
X147525034Y-187191867D01*
X147222197Y-187191867D01*
X147182407Y-187249711D01*
X147171236Y-187265479D01*
X147161166Y-187279441D01*
X147152138Y-187292784D01*
X147144097Y-187306693D01*
X147136986Y-187322356D01*
X147130747Y-187340958D01*
X147125325Y-187363686D01*
X147120662Y-187391727D01*
X147116701Y-187426267D01*
X147113385Y-187468492D01*
X147110659Y-187519589D01*
X147108464Y-187580744D01*
X147106745Y-187653144D01*
X147105444Y-187737975D01*
X147104505Y-187836422D01*
X147103870Y-187949674D01*
X147103484Y-188078916D01*
X147103288Y-188225334D01*
X147103227Y-188390116D01*
X147103243Y-188574447D01*
X147103280Y-188779513D01*
X147103289Y-188902133D01*
X147103265Y-189119082D01*
X147103231Y-189314642D01*
X147103243Y-189489999D01*
X147103358Y-189646341D01*
X147103630Y-189784857D01*
X147104118Y-189906734D01*
X147104876Y-190013160D01*
X147105962Y-190105322D01*
X147107431Y-190184409D01*
X147109340Y-190251608D01*
X147111744Y-190308107D01*
X147114701Y-190355093D01*
X147118266Y-190393755D01*
X147122495Y-190425280D01*
X147127446Y-190450855D01*
X147133173Y-190471670D01*
X147139733Y-190488911D01*
X147147183Y-190503765D01*
X147155579Y-190517422D01*
X147164976Y-190531069D01*
X147175432Y-190545893D01*
X147181523Y-190554783D01*
X147220296Y-190612400D01*
X146688732Y-190612400D01*
X146565483Y-190612365D01*
X146462987Y-190612215D01*
X146379420Y-190611878D01*
X146312956Y-190611286D01*
X146261771Y-190610367D01*
X146224041Y-190609051D01*
X146197940Y-190607269D01*
X146181644Y-190604951D01*
X146173328Y-190602026D01*
X146171168Y-190598424D01*
X146173339Y-190594075D01*
X146174535Y-190592645D01*
X146199685Y-190555573D01*
X146225583Y-190502772D01*
X146249192Y-190440770D01*
X146257461Y-190414357D01*
X146262078Y-190396416D01*
X146265979Y-190375355D01*
X146269248Y-190349089D01*
X146271966Y-190315532D01*
X146274215Y-190272599D01*
X146276077Y-190218204D01*
X146277636Y-190150262D01*
X146278972Y-190066688D01*
X146280169Y-189965395D01*
X146281308Y-189844300D01*
X146281685Y-189799600D01*
X146282702Y-189674449D01*
X146283460Y-189570082D01*
X146283903Y-189484707D01*
X146283970Y-189416533D01*
X146283605Y-189363765D01*
X146282748Y-189324614D01*
X146281341Y-189297285D01*
X146279325Y-189279986D01*
X146276643Y-189270926D01*
X146273236Y-189268312D01*
X146269044Y-189270351D01*
X146264571Y-189274667D01*
X146254216Y-189287602D01*
X146232158Y-189316676D01*
X146199957Y-189359759D01*
X146159174Y-189414718D01*
X146111370Y-189479423D01*
X146058105Y-189551742D01*
X146000940Y-189629544D01*
X145941437Y-189710698D01*
X145881155Y-189793072D01*
X145821655Y-189874536D01*
X145764498Y-189952957D01*
X145711245Y-190026204D01*
X145663457Y-190092147D01*
X145622693Y-190148654D01*
X145590516Y-190193593D01*
X145568485Y-190224834D01*
X145563917Y-190231466D01*
X145540996Y-190268369D01*
X145514188Y-190316359D01*
X145488789Y-190365897D01*
X145485568Y-190372577D01*
X145463890Y-190420772D01*
X145451304Y-190458334D01*
X145445574Y-190494160D01*
X145444456Y-190536200D01*
X145445090Y-190612400D01*
X144290651Y-190612400D01*
X144381815Y-190518669D01*
X144428612Y-190468775D01*
X144478899Y-190412295D01*
X144524944Y-190358026D01*
X144545369Y-190332673D01*
X144575807Y-190293128D01*
X144615862Y-190239916D01*
X144664361Y-190174667D01*
X144720135Y-190099011D01*
X144782011Y-190014577D01*
X144848819Y-189922994D01*
X144919387Y-189825892D01*
X144992545Y-189724901D01*
X145067121Y-189621650D01*
X145141944Y-189517768D01*
X145215843Y-189414885D01*
X145287646Y-189314631D01*
X145356184Y-189218636D01*
X145420284Y-189128527D01*
X145478775Y-189045936D01*
X145530486Y-188972492D01*
X145574247Y-188909824D01*
X145608885Y-188859561D01*
X145633230Y-188823334D01*
X145646111Y-188802771D01*
X145647869Y-188798668D01*
X145639910Y-188787342D01*
X145619115Y-188760162D01*
X145586847Y-188718829D01*
X145544470Y-188665044D01*
X145493347Y-188600506D01*
X145434841Y-188526918D01*
X145370314Y-188445978D01*
X145301131Y-188359388D01*
X145228653Y-188268848D01*
X145154246Y-188176060D01*
X145094517Y-188101702D01*
X144083511Y-188101702D01*
X144077602Y-188114659D01*
X144063272Y-188136908D01*
X144062225Y-188138391D01*
X144043438Y-188168544D01*
X144023791Y-188205375D01*
X144019892Y-188213511D01*
X144016356Y-188221940D01*
X144013230Y-188232059D01*
X144010486Y-188245260D01*
X144008092Y-188262938D01*
X144006019Y-188286484D01*
X144004235Y-188317293D01*
X144002712Y-188356757D01*
X144001419Y-188406269D01*
X144000326Y-188467223D01*
X143999403Y-188541011D01*
X143998619Y-188629028D01*
X143997945Y-188732665D01*
X143997350Y-188853316D01*
X143996805Y-188992374D01*
X143996279Y-189151232D01*
X143995745Y-189330089D01*
X143995206Y-189515207D01*
X143994772Y-189679145D01*
X143994509Y-189823303D01*
X143994484Y-189949079D01*
X143994765Y-190057871D01*
X143995419Y-190151077D01*
X143996514Y-190230097D01*
X143998118Y-190296328D01*
X144000297Y-190351170D01*
X144003119Y-190396021D01*
X144006651Y-190432278D01*
X144010961Y-190461341D01*
X144016117Y-190484609D01*
X144022185Y-190503479D01*
X144029233Y-190519351D01*
X144037329Y-190533622D01*
X144046540Y-190547691D01*
X144055040Y-190560158D01*
X144072176Y-190586452D01*
X144082322Y-190604037D01*
X144083511Y-190607257D01*
X144072604Y-190608334D01*
X144041411Y-190609335D01*
X143992223Y-190610235D01*
X143927333Y-190611010D01*
X143849030Y-190611637D01*
X143759607Y-190612091D01*
X143661356Y-190612349D01*
X143592445Y-190612400D01*
X143487452Y-190612180D01*
X143390610Y-190611548D01*
X143304107Y-190610549D01*
X143230132Y-190609227D01*
X143170874Y-190607626D01*
X143128520Y-190605791D01*
X143105260Y-190603765D01*
X143101378Y-190602493D01*
X143109076Y-190587591D01*
X143117074Y-190579560D01*
X143130246Y-190562434D01*
X143147485Y-190532183D01*
X143159407Y-190507622D01*
X143186045Y-190448711D01*
X143189120Y-189271845D01*
X143192195Y-188094978D01*
X143637853Y-188094978D01*
X143735670Y-188095142D01*
X143826064Y-188095611D01*
X143906630Y-188096347D01*
X143974962Y-188097316D01*
X144028656Y-188098480D01*
X144065305Y-188099803D01*
X144082504Y-188101249D01*
X144083511Y-188101702D01*
X145094517Y-188101702D01*
X145079270Y-188082722D01*
X145005090Y-187990537D01*
X144933069Y-187901204D01*
X144864569Y-187816424D01*
X144800955Y-187737898D01*
X144743588Y-187667326D01*
X144693833Y-187606409D01*
X144653052Y-187556847D01*
X144635888Y-187536178D01*
X144549596Y-187435516D01*
X144472997Y-187352259D01*
X144404183Y-187284438D01*
X144341248Y-187230089D01*
X144331867Y-187222722D01*
X144292356Y-187192117D01*
X145424116Y-187191867D01*
X145418827Y-187239844D01*
X145422130Y-187297188D01*
X145443661Y-187365463D01*
X145483635Y-187445212D01*
X145528943Y-187517495D01*
X145545161Y-187540140D01*
X145573214Y-187577696D01*
X145611430Y-187628021D01*
X145658137Y-187688973D01*
X145711661Y-187758411D01*
X145770331Y-187834194D01*
X145832475Y-187914180D01*
X145896421Y-187996228D01*
X145960495Y-188078196D01*
X146023027Y-188157943D01*
X146082343Y-188233327D01*
X146136771Y-188302207D01*
X146184639Y-188362442D01*
X146224275Y-188411889D01*
X146254006Y-188448408D01*
X146272161Y-188469858D01*
X146275220Y-188473156D01*
X146278079Y-188465149D01*
X146280293Y-188434855D01*
X146281857Y-188382556D01*
X146282767Y-188308531D01*
X146283020Y-188213063D01*
X146282613Y-188096434D01*
X146281704Y-187976445D01*
X146280382Y-187844333D01*
X146278857Y-187732594D01*
X146276881Y-187639025D01*
X146274206Y-187561419D01*
X146270582Y-187497574D01*
X146265761Y-187445283D01*
X146259494Y-187402344D01*
X146251532Y-187366551D01*
X146241627Y-187335700D01*
X146229531Y-187307586D01*
X146214993Y-187280005D01*
X146200311Y-187254966D01*
X146162314Y-187191867D01*
X147222197Y-187191867D01*
X147525034Y-187191867D01*
X147525001Y-187185617D01*
X147524195Y-187083544D01*
X147523170Y-186994633D01*
X147521900Y-186917941D01*
X147520360Y-186852527D01*
X147518524Y-186797449D01*
X147516367Y-186751765D01*
X147513863Y-186714534D01*
X147510987Y-186684813D01*
X147507713Y-186661662D01*
X147504015Y-186644139D01*
X147499869Y-186631301D01*
X147495247Y-186622208D01*
X147490126Y-186615918D01*
X147484478Y-186611488D01*
X147478279Y-186607978D01*
X147471504Y-186604445D01*
X147465508Y-186600876D01*
X147460275Y-186598300D01*
X147452099Y-186595972D01*
X147439886Y-186593878D01*
X147422541Y-186592007D01*
X147398969Y-186590347D01*
X147368077Y-186588884D01*
X147328768Y-186587608D01*
X147279950Y-186586504D01*
X147220527Y-186585561D01*
X147149404Y-186584767D01*
X147065488Y-186584109D01*
X146967683Y-186583575D01*
X146854894Y-186583153D01*
X146726029Y-186582829D01*
X146579991Y-186582592D01*
X146415686Y-186582430D01*
X146232020Y-186582330D01*
X146027897Y-186582280D01*
X145816753Y-186582267D01*
X144196400Y-186582267D01*
X144196400Y-186679054D01*
G36*
X127625570Y-186314848D02*
G01*
X127626189Y-186401931D01*
X128077914Y-186860891D01*
X128529639Y-187319852D01*
X128529968Y-187530471D01*
X128530297Y-187741089D01*
X128805390Y-187741089D01*
X128812478Y-187794530D01*
X128815162Y-187818888D01*
X128819687Y-187864759D01*
X128825809Y-187929405D01*
X128833288Y-188010091D01*
X128841881Y-188104081D01*
X128851346Y-188208637D01*
X128861442Y-188321025D01*
X128871926Y-188438507D01*
X128882556Y-188558348D01*
X128893091Y-188677811D01*
X128903287Y-188794159D01*
X128912905Y-188904657D01*
X128921700Y-189006569D01*
X128929432Y-189097158D01*
X128935858Y-189173687D01*
X128940737Y-189233421D01*
X128943825Y-189273624D01*
X128944883Y-189291559D01*
X128944882Y-189291644D01*
X128937173Y-189306035D01*
X128914019Y-189335748D01*
X128875105Y-189381131D01*
X128820116Y-189442529D01*
X128748736Y-189520288D01*
X128660651Y-189614754D01*
X128555546Y-189726272D01*
X128433105Y-189855188D01*
X128398690Y-189891287D01*
X127852863Y-190463416D01*
X127941119Y-190551436D01*
X128012515Y-190473758D01*
X128038634Y-190445686D01*
X128079434Y-190402274D01*
X128132223Y-190346366D01*
X128194309Y-190280808D01*
X128263000Y-190208441D01*
X128335604Y-190132112D01*
X128379040Y-190086524D01*
X128460584Y-190001119D01*
X128526496Y-189932710D01*
X128578456Y-189880053D01*
X128618145Y-189841905D01*
X128647243Y-189817020D01*
X128667431Y-189804156D01*
X128680390Y-189802068D01*
X128687800Y-189809513D01*
X128691342Y-189825246D01*
X128692697Y-189848023D01*
X128692879Y-189854239D01*
X128702297Y-189897061D01*
X128725503Y-189948819D01*
X128757864Y-190001328D01*
X128794748Y-190046403D01*
X128809507Y-190060328D01*
X128885233Y-190109047D01*
X128973692Y-190136306D01*
X129051900Y-190142773D01*
X129140532Y-190130576D01*
X129222388Y-190094813D01*
X129294836Y-190036722D01*
X129308203Y-190022262D01*
X129357082Y-189966733D01*
X130202674Y-189966733D01*
X130202674Y-190142773D01*
X130429010Y-190142773D01*
X130429010Y-190060531D01*
X130431850Y-190004386D01*
X130441393Y-189965416D01*
X130452991Y-189944219D01*
X130461277Y-189929052D01*
X130468373Y-189907062D01*
X130474748Y-189874987D01*
X130480872Y-189829569D01*
X130487216Y-189767548D01*
X130494250Y-189685662D01*
X130499066Y-189624746D01*
X130521161Y-189339343D01*
X131063565Y-189888805D01*
X131161637Y-189988228D01*
X131255784Y-190083815D01*
X131344285Y-190173810D01*
X131425420Y-190256457D01*
X131497469Y-190330001D01*
X131558712Y-190392684D01*
X131607427Y-190442752D01*
X131641896Y-190478448D01*
X131660379Y-190497995D01*
X131690743Y-190528944D01*
X131716071Y-190550530D01*
X131729695Y-190557723D01*
X131747095Y-190549297D01*
X131772460Y-190528245D01*
X131781058Y-190519671D01*
X131817514Y-190481620D01*
X131616802Y-190277658D01*
X131565596Y-190225699D01*
X131499569Y-190158820D01*
X131421618Y-190079950D01*
X131334638Y-189992014D01*
X131241526Y-189897941D01*
X131145179Y-189800658D01*
X131048492Y-189703093D01*
X130979134Y-189633145D01*
X130873703Y-189526550D01*
X130785129Y-189436307D01*
X130712281Y-189361192D01*
X130654023Y-189299986D01*
X130609225Y-189251466D01*
X130587021Y-189226129D01*
X130408724Y-189226129D01*
X130386401Y-189511555D01*
X130379669Y-189595219D01*
X130373157Y-189671727D01*
X130367234Y-189737081D01*
X130362268Y-189787281D01*
X130358629Y-189818329D01*
X130357458Y-189825273D01*
X130350838Y-189853565D01*
X129401364Y-189853565D01*
X129395026Y-189774606D01*
X129375890Y-189681315D01*
X129335846Y-189598791D01*
X129277418Y-189530038D01*
X129203129Y-189478063D01*
X129119748Y-189446863D01*
X129092698Y-189432228D01*
X129079156Y-189400819D01*
X129078872Y-189399434D01*
X129077247Y-189386174D01*
X129079256Y-189372595D01*
X129086858Y-189356181D01*
X129102016Y-189334411D01*
X129126688Y-189304767D01*
X129162836Y-189264732D01*
X129212420Y-189211785D01*
X129277401Y-189143409D01*
X129281599Y-189139005D01*
X129351493Y-189065611D01*
X129425800Y-188987437D01*
X129499414Y-188909864D01*
X129567229Y-188838275D01*
X129624140Y-188778051D01*
X129636832Y-188764587D01*
X129685487Y-188713820D01*
X129728709Y-188670375D01*
X129763395Y-188637241D01*
X129786444Y-188617405D01*
X129794182Y-188613046D01*
X129805722Y-188622170D01*
X129832710Y-188647200D01*
X129873021Y-188686052D01*
X129924529Y-188736643D01*
X129985109Y-188796888D01*
X130052636Y-188864704D01*
X130107826Y-188920565D01*
X130408724Y-189226129D01*
X130587021Y-189226129D01*
X130576751Y-189214411D01*
X130555471Y-189187599D01*
X130544251Y-189169808D01*
X130541754Y-189161570D01*
X130542700Y-189143590D01*
X130545573Y-189102892D01*
X130550187Y-189041819D01*
X130556358Y-188962713D01*
X130563898Y-188867914D01*
X130572621Y-188759767D01*
X130582343Y-188640612D01*
X130592876Y-188512791D01*
X130601365Y-188410635D01*
X130649396Y-187834674D01*
X130525805Y-187834674D01*
X130525273Y-187847104D01*
X130522769Y-187882110D01*
X130518496Y-187937215D01*
X130512653Y-188009943D01*
X130505443Y-188097814D01*
X130497066Y-188198351D01*
X130487723Y-188309077D01*
X130478758Y-188414205D01*
X130468602Y-188533483D01*
X130459142Y-188646080D01*
X130450596Y-188749305D01*
X130443179Y-188840473D01*
X130437108Y-188916895D01*
X130432601Y-188975883D01*
X130429873Y-189014749D01*
X130429116Y-189029844D01*
X130427935Y-189039238D01*
X130423256Y-189042966D01*
X130413276Y-189039471D01*
X130396190Y-189027199D01*
X130370196Y-189004594D01*
X130333490Y-188970100D01*
X130284267Y-188922162D01*
X130220726Y-188859224D01*
X130153305Y-188791968D01*
X129877601Y-188516477D01*
X129879533Y-188514406D01*
X129697290Y-188514406D01*
X129688984Y-188525780D01*
X129665733Y-188552563D01*
X129629865Y-188592292D01*
X129583713Y-188642507D01*
X129529606Y-188700746D01*
X129469874Y-188764547D01*
X129406848Y-188831449D01*
X129342858Y-188898990D01*
X129280236Y-188964710D01*
X129221310Y-189026146D01*
X129168412Y-189080837D01*
X129123872Y-189126322D01*
X129090020Y-189160138D01*
X129069188Y-189179826D01*
X129063506Y-189183837D01*
X129061634Y-189170891D01*
X129057746Y-189135134D01*
X129052057Y-189078804D01*
X129044781Y-189004140D01*
X129036131Y-188913380D01*
X129026322Y-188808762D01*
X129015566Y-188692526D01*
X129004079Y-188566908D01*
X128994907Y-188465618D01*
X128983174Y-188334279D01*
X128972335Y-188210552D01*
X128962570Y-188096681D01*
X128954063Y-187994911D01*
X128946995Y-187907487D01*
X128941549Y-187836653D01*
X128937908Y-187784653D01*
X128936253Y-187753732D01*
X128936442Y-187745703D01*
X128946334Y-187752854D01*
X128971524Y-187775841D01*
X129009810Y-187812439D01*
X129058989Y-187860422D01*
X129116861Y-187917566D01*
X129181222Y-187981647D01*
X129249871Y-188050438D01*
X129320605Y-188121716D01*
X129391222Y-188193255D01*
X129459520Y-188262830D01*
X129523296Y-188328217D01*
X129580350Y-188387191D01*
X129628478Y-188437527D01*
X129665478Y-188476999D01*
X129689148Y-188503383D01*
X129697290Y-188514406D01*
X129879533Y-188514406D01*
X129980409Y-188406295D01*
X130032768Y-188350377D01*
X130091535Y-188287948D01*
X130154385Y-188221443D01*
X130218995Y-188153298D01*
X130283042Y-188085948D01*
X130344203Y-188021828D01*
X130400153Y-187963372D01*
X130448570Y-187913018D01*
X130487130Y-187873198D01*
X130513509Y-187846350D01*
X130525384Y-187834908D01*
X130525805Y-187834674D01*
X130649396Y-187834674D01*
X130661401Y-187690726D01*
X131261938Y-187059158D01*
X131862475Y-186427589D01*
X131862034Y-186339315D01*
X131861592Y-186251040D01*
X131764583Y-186354666D01*
X131710291Y-186412463D01*
X131646192Y-186480368D01*
X131574016Y-186556572D01*
X131495492Y-186639269D01*
X131412349Y-186726653D01*
X131326319Y-186816915D01*
X131239130Y-186908250D01*
X131152513Y-186998849D01*
X131068197Y-187086907D01*
X130987912Y-187170615D01*
X130913387Y-187248167D01*
X130846354Y-187317757D01*
X130788541Y-187377576D01*
X130741679Y-187425818D01*
X130707496Y-187460676D01*
X130687724Y-187480343D01*
X130683390Y-187484116D01*
X130683092Y-187470992D01*
X130684731Y-187437389D01*
X130688023Y-187387880D01*
X130692682Y-187327037D01*
X130694682Y-187302732D01*
X130709577Y-187124951D01*
X130592955Y-187124951D01*
X130586934Y-187153243D01*
X130583863Y-187175618D01*
X130579548Y-187217717D01*
X130574488Y-187274178D01*
X130569181Y-187339635D01*
X130567344Y-187363862D01*
X130561927Y-187433421D01*
X130556459Y-187498018D01*
X130551488Y-187551548D01*
X130547561Y-187587910D01*
X130546675Y-187594509D01*
X130543334Y-187608056D01*
X130536101Y-187623914D01*
X130523440Y-187643861D01*
X130503811Y-187669673D01*
X130475678Y-187703129D01*
X130437502Y-187746007D01*
X130387746Y-187800083D01*
X130324871Y-187867136D01*
X130247341Y-187948943D01*
X130168251Y-188031950D01*
X130089564Y-188114094D01*
X130016112Y-188190169D01*
X129949724Y-188258325D01*
X129892227Y-188316712D01*
X129845451Y-188363481D01*
X129811224Y-188396782D01*
X129791373Y-188414767D01*
X129787140Y-188417442D01*
X129776003Y-188407741D01*
X129749971Y-188382441D01*
X129711570Y-188344082D01*
X129663328Y-188295200D01*
X129607770Y-188238334D01*
X129567592Y-188196906D01*
X129357831Y-187980000D01*
X129976337Y-187980000D01*
X129976337Y-187741089D01*
X129221881Y-187741089D01*
X129221881Y-187847542D01*
X129083565Y-187709654D01*
X128985447Y-187611840D01*
X128794357Y-187611840D01*
X128792529Y-187627270D01*
X128783277Y-187635867D01*
X128760950Y-187639613D01*
X128719895Y-187640489D01*
X128712624Y-187640495D01*
X128630891Y-187640495D01*
X128630891Y-187421172D01*
X128712624Y-187502179D01*
X128758730Y-187551428D01*
X128786306Y-187589159D01*
X128794357Y-187611840D01*
X128985447Y-187611840D01*
X128945248Y-187571766D01*
X128945248Y-187448952D01*
X128944863Y-187392450D01*
X128943100Y-187356505D01*
X128939050Y-187336530D01*
X128931801Y-187327937D01*
X128920870Y-187326139D01*
X128908712Y-187323498D01*
X128899727Y-187312912D01*
X128892826Y-187290381D01*
X128886924Y-187251909D01*
X128880935Y-187193498D01*
X128879013Y-187172104D01*
X128874852Y-187124951D01*
X130592955Y-187124951D01*
X130709577Y-187124951D01*
X130869109Y-187124951D01*
X130869109Y-187011782D01*
X130801314Y-187011782D01*
X130761662Y-187010696D01*
X130740116Y-187005454D01*
X130737480Y-187002334D01*
X130598616Y-187002334D01*
X130591308Y-187009462D01*
X130565993Y-187011662D01*
X130548908Y-187011782D01*
X130491881Y-187011782D01*
X130279221Y-187011782D01*
X128864698Y-187011782D01*
X128912542Y-186962786D01*
X128986850Y-186902324D01*
X129078816Y-186855691D01*
X129189998Y-186822249D01*
X129300471Y-186803753D01*
X129372773Y-186795122D01*
X129372773Y-186886040D01*
X129951188Y-186886040D01*
X129951188Y-186782893D01*
X130036065Y-186791496D01*
X130095368Y-186798756D01*
X130158551Y-186808379D01*
X130196386Y-186815252D01*
X130271832Y-186830407D01*
X130275526Y-186921095D01*
X130279221Y-187011782D01*
X130491881Y-187011782D01*
X130491881Y-186961485D01*
X130493544Y-186929976D01*
X130497697Y-186912463D01*
X130499371Y-186911188D01*
X130517987Y-186919254D01*
X130545183Y-186938820D01*
X130572448Y-186962944D01*
X130591267Y-186984682D01*
X130592943Y-186987508D01*
X130598616Y-187002334D01*
X130737480Y-187002334D01*
X130729662Y-186993081D01*
X130725442Y-186979604D01*
X130708219Y-186944627D01*
X130675138Y-186902579D01*
X130631893Y-186859356D01*
X130584174Y-186820854D01*
X130552830Y-186800801D01*
X130517123Y-186778851D01*
X130498819Y-186760411D01*
X130492388Y-186738668D01*
X130491894Y-186725718D01*
X130491894Y-186722575D01*
X129850594Y-186722575D01*
X129850594Y-186785446D01*
X129473367Y-186785446D01*
X129473367Y-186722575D01*
X129850594Y-186722575D01*
X130491894Y-186722575D01*
X130491881Y-186684852D01*
X130386048Y-186684852D01*
X130337355Y-186686029D01*
X130299405Y-186689165D01*
X130278308Y-186693671D01*
X130276023Y-186695495D01*
X130262641Y-186698295D01*
X130230074Y-186697148D01*
X130183916Y-186692393D01*
X130152376Y-186688003D01*
X130095188Y-186679378D01*
X130042886Y-186671591D01*
X130003582Y-186665847D01*
X129992055Y-186664215D01*
X129961937Y-186654888D01*
X129951188Y-186640272D01*
X129947920Y-186634320D01*
X129936230Y-186629778D01*
X129913288Y-186626470D01*
X129876265Y-186624215D01*
X129822332Y-186622834D01*
X129748660Y-186622150D01*
X129661980Y-186621980D01*
X129569471Y-186622077D01*
X129499094Y-186622530D01*
X129447836Y-186623590D01*
X129412680Y-186625503D01*
X129390611Y-186628519D01*
X129378615Y-186632885D01*
X129373676Y-186638849D01*
X129372773Y-186645784D01*
X129365079Y-186667795D01*
X129339879Y-186680321D01*
X129293991Y-186684788D01*
X129285736Y-186684852D01*
X129208027Y-186692868D01*
X129119767Y-186714936D01*
X129028915Y-186748084D01*
X128943430Y-186789339D01*
X128871274Y-186835731D01*
X128861928Y-186843082D01*
X128831467Y-186866998D01*
X128813428Y-186876576D01*
X128800831Y-186873480D01*
X128787900Y-186860704D01*
X128749707Y-186835678D01*
X128700002Y-186826071D01*
X128646476Y-186831067D01*
X128596822Y-186849851D01*
X128558733Y-186881606D01*
X128555975Y-186885297D01*
X128527474Y-186944575D01*
X128522172Y-187005934D01*
X128539482Y-187064427D01*
X128578820Y-187115104D01*
X128583630Y-187119289D01*
X128611560Y-187139167D01*
X128639898Y-187147921D01*
X128679737Y-187148553D01*
X128689689Y-187147992D01*
X128728668Y-187146562D01*
X128748746Y-187149839D01*
X128756015Y-187159728D01*
X128756760Y-187168961D01*
X128758284Y-187195744D01*
X128762065Y-187236025D01*
X128764782Y-187260124D01*
X128768723Y-187298401D01*
X128767084Y-187317996D01*
X128757579Y-187325158D01*
X128740649Y-187326139D01*
X128730608Y-187322901D01*
X128714410Y-187312420D01*
X128690855Y-187293548D01*
X128658743Y-187265135D01*
X128616872Y-187226035D01*
X128564043Y-187175097D01*
X128499055Y-187111173D01*
X128420709Y-187033114D01*
X128327803Y-186939772D01*
X128219137Y-186829998D01*
X128166769Y-186776952D01*
X127624951Y-186227767D01*
X127625570Y-186314848D01*
G37*
X127625570Y-186314848D02*
X127626189Y-186401931D01*
X128077914Y-186860891D01*
X128529639Y-187319852D01*
X128529968Y-187530471D01*
X128530297Y-187741089D01*
X128805390Y-187741089D01*
X128812478Y-187794530D01*
X128815162Y-187818888D01*
X128819687Y-187864759D01*
X128825809Y-187929405D01*
X128833288Y-188010091D01*
X128841881Y-188104081D01*
X128851346Y-188208637D01*
X128861442Y-188321025D01*
X128871926Y-188438507D01*
X128882556Y-188558348D01*
X128893091Y-188677811D01*
X128903287Y-188794159D01*
X128912905Y-188904657D01*
X128921700Y-189006569D01*
X128929432Y-189097158D01*
X128935858Y-189173687D01*
X128940737Y-189233421D01*
X128943825Y-189273624D01*
X128944883Y-189291559D01*
X128944882Y-189291644D01*
X128937173Y-189306035D01*
X128914019Y-189335748D01*
X128875105Y-189381131D01*
X128820116Y-189442529D01*
X128748736Y-189520288D01*
X128660651Y-189614754D01*
X128555546Y-189726272D01*
X128433105Y-189855188D01*
X128398690Y-189891287D01*
X127852863Y-190463416D01*
X127941119Y-190551436D01*
X128012515Y-190473758D01*
X128038634Y-190445686D01*
X128079434Y-190402274D01*
X128132223Y-190346366D01*
X128194309Y-190280808D01*
X128263000Y-190208441D01*
X128335604Y-190132112D01*
X128379040Y-190086524D01*
X128460584Y-190001119D01*
X128526496Y-189932710D01*
X128578456Y-189880053D01*
X128618145Y-189841905D01*
X128647243Y-189817020D01*
X128667431Y-189804156D01*
X128680390Y-189802068D01*
X128687800Y-189809513D01*
X128691342Y-189825246D01*
X128692697Y-189848023D01*
X128692879Y-189854239D01*
X128702297Y-189897061D01*
X128725503Y-189948819D01*
X128757864Y-190001328D01*
X128794748Y-190046403D01*
X128809507Y-190060328D01*
X128885233Y-190109047D01*
X128973692Y-190136306D01*
X129051900Y-190142773D01*
X129140532Y-190130576D01*
X129222388Y-190094813D01*
X129294836Y-190036722D01*
X129308203Y-190022262D01*
X129357082Y-189966733D01*
X130202674Y-189966733D01*
X130202674Y-190142773D01*
X130429010Y-190142773D01*
X130429010Y-190060531D01*
X130431850Y-190004386D01*
X130441393Y-189965416D01*
X130452991Y-189944219D01*
X130461277Y-189929052D01*
X130468373Y-189907062D01*
X130474748Y-189874987D01*
X130480872Y-189829569D01*
X130487216Y-189767548D01*
X130494250Y-189685662D01*
X130499066Y-189624746D01*
X130521161Y-189339343D01*
X131063565Y-189888805D01*
X131161637Y-189988228D01*
X131255784Y-190083815D01*
X131344285Y-190173810D01*
X131425420Y-190256457D01*
X131497469Y-190330001D01*
X131558712Y-190392684D01*
X131607427Y-190442752D01*
X131641896Y-190478448D01*
X131660379Y-190497995D01*
X131690743Y-190528944D01*
X131716071Y-190550530D01*
X131729695Y-190557723D01*
X131747095Y-190549297D01*
X131772460Y-190528245D01*
X131781058Y-190519671D01*
X131817514Y-190481620D01*
X131616802Y-190277658D01*
X131565596Y-190225699D01*
X131499569Y-190158820D01*
X131421618Y-190079950D01*
X131334638Y-189992014D01*
X131241526Y-189897941D01*
X131145179Y-189800658D01*
X131048492Y-189703093D01*
X130979134Y-189633145D01*
X130873703Y-189526550D01*
X130785129Y-189436307D01*
X130712281Y-189361192D01*
X130654023Y-189299986D01*
X130609225Y-189251466D01*
X130587021Y-189226129D01*
X130408724Y-189226129D01*
X130386401Y-189511555D01*
X130379669Y-189595219D01*
X130373157Y-189671727D01*
X130367234Y-189737081D01*
X130362268Y-189787281D01*
X130358629Y-189818329D01*
X130357458Y-189825273D01*
X130350838Y-189853565D01*
X129401364Y-189853565D01*
X129395026Y-189774606D01*
X129375890Y-189681315D01*
X129335846Y-189598791D01*
X129277418Y-189530038D01*
X129203129Y-189478063D01*
X129119748Y-189446863D01*
X129092698Y-189432228D01*
X129079156Y-189400819D01*
X129078872Y-189399434D01*
X129077247Y-189386174D01*
X129079256Y-189372595D01*
X129086858Y-189356181D01*
X129102016Y-189334411D01*
X129126688Y-189304767D01*
X129162836Y-189264732D01*
X129212420Y-189211785D01*
X129277401Y-189143409D01*
X129281599Y-189139005D01*
X129351493Y-189065611D01*
X129425800Y-188987437D01*
X129499414Y-188909864D01*
X129567229Y-188838275D01*
X129624140Y-188778051D01*
X129636832Y-188764587D01*
X129685487Y-188713820D01*
X129728709Y-188670375D01*
X129763395Y-188637241D01*
X129786444Y-188617405D01*
X129794182Y-188613046D01*
X129805722Y-188622170D01*
X129832710Y-188647200D01*
X129873021Y-188686052D01*
X129924529Y-188736643D01*
X129985109Y-188796888D01*
X130052636Y-188864704D01*
X130107826Y-188920565D01*
X130408724Y-189226129D01*
X130587021Y-189226129D01*
X130576751Y-189214411D01*
X130555471Y-189187599D01*
X130544251Y-189169808D01*
X130541754Y-189161570D01*
X130542700Y-189143590D01*
X130545573Y-189102892D01*
X130550187Y-189041819D01*
X130556358Y-188962713D01*
X130563898Y-188867914D01*
X130572621Y-188759767D01*
X130582343Y-188640612D01*
X130592876Y-188512791D01*
X130601365Y-188410635D01*
X130649396Y-187834674D01*
X130525805Y-187834674D01*
X130525273Y-187847104D01*
X130522769Y-187882110D01*
X130518496Y-187937215D01*
X130512653Y-188009943D01*
X130505443Y-188097814D01*
X130497066Y-188198351D01*
X130487723Y-188309077D01*
X130478758Y-188414205D01*
X130468602Y-188533483D01*
X130459142Y-188646080D01*
X130450596Y-188749305D01*
X130443179Y-188840473D01*
X130437108Y-188916895D01*
X130432601Y-188975883D01*
X130429873Y-189014749D01*
X130429116Y-189029844D01*
X130427935Y-189039238D01*
X130423256Y-189042966D01*
X130413276Y-189039471D01*
X130396190Y-189027199D01*
X130370196Y-189004594D01*
X130333490Y-188970100D01*
X130284267Y-188922162D01*
X130220726Y-188859224D01*
X130153305Y-188791968D01*
X129877601Y-188516477D01*
X129879533Y-188514406D01*
X129697290Y-188514406D01*
X129688984Y-188525780D01*
X129665733Y-188552563D01*
X129629865Y-188592292D01*
X129583713Y-188642507D01*
X129529606Y-188700746D01*
X129469874Y-188764547D01*
X129406848Y-188831449D01*
X129342858Y-188898990D01*
X129280236Y-188964710D01*
X129221310Y-189026146D01*
X129168412Y-189080837D01*
X129123872Y-189126322D01*
X129090020Y-189160138D01*
X129069188Y-189179826D01*
X129063506Y-189183837D01*
X129061634Y-189170891D01*
X129057746Y-189135134D01*
X129052057Y-189078804D01*
X129044781Y-189004140D01*
X129036131Y-188913380D01*
X129026322Y-188808762D01*
X129015566Y-188692526D01*
X129004079Y-188566908D01*
X128994907Y-188465618D01*
X128983174Y-188334279D01*
X128972335Y-188210552D01*
X128962570Y-188096681D01*
X128954063Y-187994911D01*
X128946995Y-187907487D01*
X128941549Y-187836653D01*
X128937908Y-187784653D01*
X128936253Y-187753732D01*
X128936442Y-187745703D01*
X128946334Y-187752854D01*
X128971524Y-187775841D01*
X129009810Y-187812439D01*
X129058989Y-187860422D01*
X129116861Y-187917566D01*
X129181222Y-187981647D01*
X129249871Y-188050438D01*
X129320605Y-188121716D01*
X129391222Y-188193255D01*
X129459520Y-188262830D01*
X129523296Y-188328217D01*
X129580350Y-188387191D01*
X129628478Y-188437527D01*
X129665478Y-188476999D01*
X129689148Y-188503383D01*
X129697290Y-188514406D01*
X129879533Y-188514406D01*
X129980409Y-188406295D01*
X130032768Y-188350377D01*
X130091535Y-188287948D01*
X130154385Y-188221443D01*
X130218995Y-188153298D01*
X130283042Y-188085948D01*
X130344203Y-188021828D01*
X130400153Y-187963372D01*
X130448570Y-187913018D01*
X130487130Y-187873198D01*
X130513509Y-187846350D01*
X130525384Y-187834908D01*
X130525805Y-187834674D01*
X130649396Y-187834674D01*
X130661401Y-187690726D01*
X131261938Y-187059158D01*
X131862475Y-186427589D01*
X131862034Y-186339315D01*
X131861592Y-186251040D01*
X131764583Y-186354666D01*
X131710291Y-186412463D01*
X131646192Y-186480368D01*
X131574016Y-186556572D01*
X131495492Y-186639269D01*
X131412349Y-186726653D01*
X131326319Y-186816915D01*
X131239130Y-186908250D01*
X131152513Y-186998849D01*
X131068197Y-187086907D01*
X130987912Y-187170615D01*
X130913387Y-187248167D01*
X130846354Y-187317757D01*
X130788541Y-187377576D01*
X130741679Y-187425818D01*
X130707496Y-187460676D01*
X130687724Y-187480343D01*
X130683390Y-187484116D01*
X130683092Y-187470992D01*
X130684731Y-187437389D01*
X130688023Y-187387880D01*
X130692682Y-187327037D01*
X130694682Y-187302732D01*
X130709577Y-187124951D01*
X130592955Y-187124951D01*
X130586934Y-187153243D01*
X130583863Y-187175618D01*
X130579548Y-187217717D01*
X130574488Y-187274178D01*
X130569181Y-187339635D01*
X130567344Y-187363862D01*
X130561927Y-187433421D01*
X130556459Y-187498018D01*
X130551488Y-187551548D01*
X130547561Y-187587910D01*
X130546675Y-187594509D01*
X130543334Y-187608056D01*
X130536101Y-187623914D01*
X130523440Y-187643861D01*
X130503811Y-187669673D01*
X130475678Y-187703129D01*
X130437502Y-187746007D01*
X130387746Y-187800083D01*
X130324871Y-187867136D01*
X130247341Y-187948943D01*
X130168251Y-188031950D01*
X130089564Y-188114094D01*
X130016112Y-188190169D01*
X129949724Y-188258325D01*
X129892227Y-188316712D01*
X129845451Y-188363481D01*
X129811224Y-188396782D01*
X129791373Y-188414767D01*
X129787140Y-188417442D01*
X129776003Y-188407741D01*
X129749971Y-188382441D01*
X129711570Y-188344082D01*
X129663328Y-188295200D01*
X129607770Y-188238334D01*
X129567592Y-188196906D01*
X129357831Y-187980000D01*
X129976337Y-187980000D01*
X129976337Y-187741089D01*
X129221881Y-187741089D01*
X129221881Y-187847542D01*
X129083565Y-187709654D01*
X128985447Y-187611840D01*
X128794357Y-187611840D01*
X128792529Y-187627270D01*
X128783277Y-187635867D01*
X128760950Y-187639613D01*
X128719895Y-187640489D01*
X128712624Y-187640495D01*
X128630891Y-187640495D01*
X128630891Y-187421172D01*
X128712624Y-187502179D01*
X128758730Y-187551428D01*
X128786306Y-187589159D01*
X128794357Y-187611840D01*
X128985447Y-187611840D01*
X128945248Y-187571766D01*
X128945248Y-187448952D01*
X128944863Y-187392450D01*
X128943100Y-187356505D01*
X128939050Y-187336530D01*
X128931801Y-187327937D01*
X128920870Y-187326139D01*
X128908712Y-187323498D01*
X128899727Y-187312912D01*
X128892826Y-187290381D01*
X128886924Y-187251909D01*
X128880935Y-187193498D01*
X128879013Y-187172104D01*
X128874852Y-187124951D01*
X130592955Y-187124951D01*
X130709577Y-187124951D01*
X130869109Y-187124951D01*
X130869109Y-187011782D01*
X130801314Y-187011782D01*
X130761662Y-187010696D01*
X130740116Y-187005454D01*
X130737480Y-187002334D01*
X130598616Y-187002334D01*
X130591308Y-187009462D01*
X130565993Y-187011662D01*
X130548908Y-187011782D01*
X130491881Y-187011782D01*
X130279221Y-187011782D01*
X128864698Y-187011782D01*
X128912542Y-186962786D01*
X128986850Y-186902324D01*
X129078816Y-186855691D01*
X129189998Y-186822249D01*
X129300471Y-186803753D01*
X129372773Y-186795122D01*
X129372773Y-186886040D01*
X129951188Y-186886040D01*
X129951188Y-186782893D01*
X130036065Y-186791496D01*
X130095368Y-186798756D01*
X130158551Y-186808379D01*
X130196386Y-186815252D01*
X130271832Y-186830407D01*
X130275526Y-186921095D01*
X130279221Y-187011782D01*
X130491881Y-187011782D01*
X130491881Y-186961485D01*
X130493544Y-186929976D01*
X130497697Y-186912463D01*
X130499371Y-186911188D01*
X130517987Y-186919254D01*
X130545183Y-186938820D01*
X130572448Y-186962944D01*
X130591267Y-186984682D01*
X130592943Y-186987508D01*
X130598616Y-187002334D01*
X130737480Y-187002334D01*
X130729662Y-186993081D01*
X130725442Y-186979604D01*
X130708219Y-186944627D01*
X130675138Y-186902579D01*
X130631893Y-186859356D01*
X130584174Y-186820854D01*
X130552830Y-186800801D01*
X130517123Y-186778851D01*
X130498819Y-186760411D01*
X130492388Y-186738668D01*
X130491894Y-186725718D01*
X130491894Y-186722575D01*
X129850594Y-186722575D01*
X129850594Y-186785446D01*
X129473367Y-186785446D01*
X129473367Y-186722575D01*
X129850594Y-186722575D01*
X130491894Y-186722575D01*
X130491881Y-186684852D01*
X130386048Y-186684852D01*
X130337355Y-186686029D01*
X130299405Y-186689165D01*
X130278308Y-186693671D01*
X130276023Y-186695495D01*
X130262641Y-186698295D01*
X130230074Y-186697148D01*
X130183916Y-186692393D01*
X130152376Y-186688003D01*
X130095188Y-186679378D01*
X130042886Y-186671591D01*
X130003582Y-186665847D01*
X129992055Y-186664215D01*
X129961937Y-186654888D01*
X129951188Y-186640272D01*
X129947920Y-186634320D01*
X129936230Y-186629778D01*
X129913288Y-186626470D01*
X129876265Y-186624215D01*
X129822332Y-186622834D01*
X129748660Y-186622150D01*
X129661980Y-186621980D01*
X129569471Y-186622077D01*
X129499094Y-186622530D01*
X129447836Y-186623590D01*
X129412680Y-186625503D01*
X129390611Y-186628519D01*
X129378615Y-186632885D01*
X129373676Y-186638849D01*
X129372773Y-186645784D01*
X129365079Y-186667795D01*
X129339879Y-186680321D01*
X129293991Y-186684788D01*
X129285736Y-186684852D01*
X129208027Y-186692868D01*
X129119767Y-186714936D01*
X129028915Y-186748084D01*
X128943430Y-186789339D01*
X128871274Y-186835731D01*
X128861928Y-186843082D01*
X128831467Y-186866998D01*
X128813428Y-186876576D01*
X128800831Y-186873480D01*
X128787900Y-186860704D01*
X128749707Y-186835678D01*
X128700002Y-186826071D01*
X128646476Y-186831067D01*
X128596822Y-186849851D01*
X128558733Y-186881606D01*
X128555975Y-186885297D01*
X128527474Y-186944575D01*
X128522172Y-187005934D01*
X128539482Y-187064427D01*
X128578820Y-187115104D01*
X128583630Y-187119289D01*
X128611560Y-187139167D01*
X128639898Y-187147921D01*
X128679737Y-187148553D01*
X128689689Y-187147992D01*
X128728668Y-187146562D01*
X128748746Y-187149839D01*
X128756015Y-187159728D01*
X128756760Y-187168961D01*
X128758284Y-187195744D01*
X128762065Y-187236025D01*
X128764782Y-187260124D01*
X128768723Y-187298401D01*
X128767084Y-187317996D01*
X128757579Y-187325158D01*
X128740649Y-187326139D01*
X128730608Y-187322901D01*
X128714410Y-187312420D01*
X128690855Y-187293548D01*
X128658743Y-187265135D01*
X128616872Y-187226035D01*
X128564043Y-187175097D01*
X128499055Y-187111173D01*
X128420709Y-187033114D01*
X128327803Y-186939772D01*
X128219137Y-186829998D01*
X128166769Y-186776952D01*
X127624951Y-186227767D01*
X127625570Y-186314848D01*
G36*
X128002178Y-192267822D02*
G01*
X131522971Y-192267822D01*
X131522971Y-191400198D01*
X128002178Y-191400198D01*
X128002178Y-192267822D01*
G37*
X128002178Y-192267822D02*
X131522971Y-192267822D01*
X131522971Y-191400198D01*
X128002178Y-191400198D01*
X128002178Y-192267822D01*
%TO.C,G\u002A\u002A\u002A*%
G36*
X148275830Y-166147491D02*
G01*
X147937101Y-166199411D01*
X147574349Y-166296865D01*
X147526322Y-166312639D01*
X147103341Y-166479160D01*
X146691451Y-166689450D01*
X146302121Y-166936457D01*
X145946822Y-167213135D01*
X145726529Y-167418641D01*
X145481440Y-167697671D01*
X145281067Y-167992193D01*
X145126592Y-168297500D01*
X145019199Y-168608886D01*
X144960069Y-168921643D01*
X144950386Y-169231066D01*
X144991331Y-169532446D01*
X145084087Y-169821079D01*
X145108947Y-169876834D01*
X145191843Y-170053977D01*
X144247499Y-170949550D01*
X143303156Y-171845122D01*
X143763929Y-172287718D01*
X143896833Y-172414731D01*
X144016213Y-172527585D01*
X144116113Y-172620749D01*
X144190573Y-172688692D01*
X144233636Y-172725882D01*
X144241654Y-172731232D01*
X144263892Y-172711618D01*
X144320845Y-172655097D01*
X144408585Y-172565733D01*
X144523183Y-172447590D01*
X144660711Y-172304733D01*
X144817242Y-172141224D01*
X144988846Y-171961128D01*
X145140248Y-171801606D01*
X145363303Y-171566972D01*
X145550807Y-171371562D01*
X145705175Y-171213001D01*
X145828821Y-171088915D01*
X145924160Y-170996927D01*
X145993607Y-170934664D01*
X146039575Y-170899750D01*
X146064480Y-170889810D01*
X146066644Y-170890366D01*
X146398761Y-171008472D01*
X146722709Y-171071595D01*
X147042239Y-171079612D01*
X147361098Y-171032406D01*
X147683036Y-170929854D01*
X147899535Y-170831534D01*
X148191970Y-170655376D01*
X148476753Y-170429335D01*
X148749222Y-170159767D01*
X149004715Y-169853029D01*
X149238573Y-169515477D01*
X149446133Y-169153469D01*
X149622736Y-168773360D01*
X149763719Y-168381507D01*
X149807254Y-168229832D01*
X149838523Y-168103158D01*
X149859527Y-167989354D01*
X149872204Y-167870798D01*
X149878488Y-167729863D01*
X149880290Y-167564856D01*
X149879348Y-167395709D01*
X149874749Y-167269760D01*
X149865124Y-167173935D01*
X149849105Y-167095159D01*
X149825324Y-167020356D01*
X149822527Y-167012753D01*
X149702544Y-166761353D01*
X149545892Y-166551632D01*
X149354379Y-166384141D01*
X149129809Y-166259431D01*
X148873990Y-166178052D01*
X148588728Y-166140555D01*
X148275830Y-166147491D01*
G37*
X148275830Y-166147491D02*
X147937101Y-166199411D01*
X147574349Y-166296865D01*
X147526322Y-166312639D01*
X147103341Y-166479160D01*
X146691451Y-166689450D01*
X146302121Y-166936457D01*
X145946822Y-167213135D01*
X145726529Y-167418641D01*
X145481440Y-167697671D01*
X145281067Y-167992193D01*
X145126592Y-168297500D01*
X145019199Y-168608886D01*
X144960069Y-168921643D01*
X144950386Y-169231066D01*
X144991331Y-169532446D01*
X145084087Y-169821079D01*
X145108947Y-169876834D01*
X145191843Y-170053977D01*
X144247499Y-170949550D01*
X143303156Y-171845122D01*
X143763929Y-172287718D01*
X143896833Y-172414731D01*
X144016213Y-172527585D01*
X144116113Y-172620749D01*
X144190573Y-172688692D01*
X144233636Y-172725882D01*
X144241654Y-172731232D01*
X144263892Y-172711618D01*
X144320845Y-172655097D01*
X144408585Y-172565733D01*
X144523183Y-172447590D01*
X144660711Y-172304733D01*
X144817242Y-172141224D01*
X144988846Y-171961128D01*
X145140248Y-171801606D01*
X145363303Y-171566972D01*
X145550807Y-171371562D01*
X145705175Y-171213001D01*
X145828821Y-171088915D01*
X145924160Y-170996927D01*
X145993607Y-170934664D01*
X146039575Y-170899750D01*
X146064480Y-170889810D01*
X146066644Y-170890366D01*
X146398761Y-171008472D01*
X146722709Y-171071595D01*
X147042239Y-171079612D01*
X147361098Y-171032406D01*
X147683036Y-170929854D01*
X147899535Y-170831534D01*
X148191970Y-170655376D01*
X148476753Y-170429335D01*
X148749222Y-170159767D01*
X149004715Y-169853029D01*
X149238573Y-169515477D01*
X149446133Y-169153469D01*
X149622736Y-168773360D01*
X149763719Y-168381507D01*
X149807254Y-168229832D01*
X149838523Y-168103158D01*
X149859527Y-167989354D01*
X149872204Y-167870798D01*
X149878488Y-167729863D01*
X149880290Y-167564856D01*
X149879348Y-167395709D01*
X149874749Y-167269760D01*
X149865124Y-167173935D01*
X149849105Y-167095159D01*
X149825324Y-167020356D01*
X149822527Y-167012753D01*
X149702544Y-166761353D01*
X149545892Y-166551632D01*
X149354379Y-166384141D01*
X149129809Y-166259431D01*
X148873990Y-166178052D01*
X148588728Y-166140555D01*
X148275830Y-166147491D01*
G36*
X139816262Y-175151708D02*
G01*
X139550285Y-175403892D01*
X139292025Y-175649028D01*
X139044993Y-175883769D01*
X138812700Y-176104764D01*
X138598658Y-176308666D01*
X138406378Y-176492126D01*
X138239370Y-176651795D01*
X138101147Y-176784326D01*
X137995219Y-176886369D01*
X137925097Y-176954576D01*
X137906027Y-176973471D01*
X137697996Y-177182197D01*
X137714715Y-177323367D01*
X137737952Y-177426386D01*
X137780714Y-177546488D01*
X137820018Y-177630736D01*
X137905083Y-177760089D01*
X138024011Y-177901192D01*
X138162133Y-178039575D01*
X138304777Y-178160770D01*
X138437275Y-178250309D01*
X138461209Y-178263115D01*
X138571382Y-178308187D01*
X138691324Y-178340600D01*
X138802929Y-178356941D01*
X138888090Y-178353794D01*
X138908340Y-178347438D01*
X138933054Y-178324883D01*
X138992847Y-178265046D01*
X139084409Y-178171414D01*
X139204430Y-178047477D01*
X139349601Y-177896723D01*
X139516610Y-177722641D01*
X139702148Y-177528719D01*
X139902905Y-177318445D01*
X140115570Y-177095308D01*
X140336834Y-176862798D01*
X140563386Y-176624401D01*
X140791916Y-176383607D01*
X141019115Y-176143904D01*
X141241672Y-175908781D01*
X141456276Y-175681727D01*
X141659619Y-175466229D01*
X141848389Y-175265777D01*
X142019278Y-175083858D01*
X142168974Y-174923962D01*
X142294167Y-174789577D01*
X142391548Y-174684191D01*
X142457806Y-174611294D01*
X142489631Y-174574373D01*
X142492023Y-174570574D01*
X142473028Y-174545025D01*
X142420065Y-174484824D01*
X142338425Y-174395696D01*
X142233401Y-174283365D01*
X142110286Y-174153558D01*
X142004814Y-174043560D01*
X141518465Y-173538672D01*
X139816262Y-175151708D01*
G37*
X139816262Y-175151708D02*
X139550285Y-175403892D01*
X139292025Y-175649028D01*
X139044993Y-175883769D01*
X138812700Y-176104764D01*
X138598658Y-176308666D01*
X138406378Y-176492126D01*
X138239370Y-176651795D01*
X138101147Y-176784326D01*
X137995219Y-176886369D01*
X137925097Y-176954576D01*
X137906027Y-176973471D01*
X137697996Y-177182197D01*
X137714715Y-177323367D01*
X137737952Y-177426386D01*
X137780714Y-177546488D01*
X137820018Y-177630736D01*
X137905083Y-177760089D01*
X138024011Y-177901192D01*
X138162133Y-178039575D01*
X138304777Y-178160770D01*
X138437275Y-178250309D01*
X138461209Y-178263115D01*
X138571382Y-178308187D01*
X138691324Y-178340600D01*
X138802929Y-178356941D01*
X138888090Y-178353794D01*
X138908340Y-178347438D01*
X138933054Y-178324883D01*
X138992847Y-178265046D01*
X139084409Y-178171414D01*
X139204430Y-178047477D01*
X139349601Y-177896723D01*
X139516610Y-177722641D01*
X139702148Y-177528719D01*
X139902905Y-177318445D01*
X140115570Y-177095308D01*
X140336834Y-176862798D01*
X140563386Y-176624401D01*
X140791916Y-176383607D01*
X141019115Y-176143904D01*
X141241672Y-175908781D01*
X141456276Y-175681727D01*
X141659619Y-175466229D01*
X141848389Y-175265777D01*
X142019278Y-175083858D01*
X142168974Y-174923962D01*
X142294167Y-174789577D01*
X142391548Y-174684191D01*
X142457806Y-174611294D01*
X142489631Y-174574373D01*
X142492023Y-174570574D01*
X142473028Y-174545025D01*
X142420065Y-174484824D01*
X142338425Y-174395696D01*
X142233401Y-174283365D01*
X142110286Y-174153558D01*
X142004814Y-174043560D01*
X141518465Y-173538672D01*
X139816262Y-175151708D01*
G36*
X137583907Y-165666446D02*
G01*
X137419253Y-165738377D01*
X137386980Y-165757303D01*
X137279414Y-165822759D01*
X138046589Y-166623408D01*
X138229445Y-166814192D01*
X138411756Y-167004315D01*
X138587115Y-167187100D01*
X138749112Y-167355871D01*
X138891341Y-167503953D01*
X139007394Y-167624670D01*
X139090463Y-167710931D01*
X139202158Y-167828328D01*
X139279550Y-167914746D01*
X139328654Y-167978525D01*
X139355492Y-168028003D01*
X139366080Y-168071521D01*
X139367162Y-168094329D01*
X139343772Y-168205625D01*
X139281814Y-168294976D01*
X139193605Y-168353351D01*
X139091461Y-168371720D01*
X139013191Y-168353841D01*
X138976309Y-168329104D01*
X138901084Y-168271182D01*
X138791843Y-168183644D01*
X138652913Y-168070061D01*
X138488622Y-167934005D01*
X138303297Y-167779045D01*
X138101265Y-167608753D01*
X137886854Y-167426700D01*
X137805636Y-167357403D01*
X137590158Y-167173570D01*
X137387618Y-167001268D01*
X137202037Y-166843886D01*
X137037438Y-166704812D01*
X136897843Y-166587433D01*
X136787275Y-166495137D01*
X136709755Y-166431311D01*
X136669306Y-166399342D01*
X136664356Y-166396230D01*
X136638644Y-166414920D01*
X136583511Y-166464942D01*
X136508771Y-166537221D01*
X136470217Y-166575739D01*
X136292304Y-166755247D01*
X137277966Y-167910940D01*
X137464983Y-168130859D01*
X137641049Y-168339138D01*
X137802732Y-168531632D01*
X137946599Y-168704195D01*
X138069218Y-168852683D01*
X138167156Y-168972950D01*
X138236982Y-169060850D01*
X138275263Y-169112239D01*
X138281500Y-169122940D01*
X138285441Y-169219972D01*
X138246288Y-169317005D01*
X138175374Y-169399552D01*
X138084029Y-169453126D01*
X138013455Y-169465632D01*
X137992253Y-169464771D01*
X137970240Y-169460286D01*
X137944210Y-169449325D01*
X137910959Y-169429033D01*
X137867279Y-169396558D01*
X137809966Y-169349046D01*
X137735814Y-169283645D01*
X137641617Y-169197500D01*
X137524170Y-169087760D01*
X137380266Y-168951571D01*
X137206700Y-168786079D01*
X137000266Y-168588431D01*
X136757759Y-168355775D01*
X136646839Y-168249295D01*
X136460108Y-168070720D01*
X136285240Y-167904820D01*
X136126524Y-167755569D01*
X135988249Y-167626938D01*
X135874704Y-167522899D01*
X135790176Y-167447425D01*
X135738955Y-167404486D01*
X135725406Y-167395898D01*
X135689420Y-167420037D01*
X135641993Y-167483042D01*
X135590776Y-167570790D01*
X135543416Y-167669163D01*
X135507563Y-167764039D01*
X135492642Y-167825608D01*
X135484839Y-167937178D01*
X135496251Y-168052188D01*
X135529188Y-168174001D01*
X135585960Y-168305980D01*
X135668877Y-168451492D01*
X135780247Y-168613898D01*
X135922380Y-168796564D01*
X136097587Y-169002853D01*
X136308176Y-169236131D01*
X136556458Y-169499760D01*
X136844741Y-169797104D01*
X136849391Y-169801849D01*
X137087748Y-170041273D01*
X137296397Y-170241764D01*
X137481530Y-170407780D01*
X137649338Y-170543782D01*
X137806015Y-170654230D01*
X137957750Y-170743584D01*
X138110737Y-170816305D01*
X138271167Y-170876852D01*
X138395654Y-170915671D01*
X138678037Y-170973543D01*
X138971279Y-170989903D01*
X139260332Y-170965385D01*
X139530148Y-170900621D01*
X139628973Y-170863733D01*
X139721570Y-170825043D01*
X143235027Y-174531202D01*
X143602207Y-174918367D01*
X143959713Y-175295029D01*
X144305556Y-175659107D01*
X144637750Y-176008519D01*
X144954307Y-176341186D01*
X145253240Y-176655026D01*
X145532560Y-176947959D01*
X145790282Y-177217904D01*
X146024417Y-177462781D01*
X146232979Y-177680508D01*
X146413979Y-177869005D01*
X146565430Y-178026190D01*
X146685346Y-178149985D01*
X146771738Y-178238306D01*
X146822620Y-178289075D01*
X146835379Y-178300720D01*
X146915926Y-178345664D01*
X147002081Y-178359972D01*
X147109167Y-178344084D01*
X147215260Y-178311643D01*
X147393141Y-178228772D01*
X147565312Y-178109490D01*
X147723999Y-177963130D01*
X147861428Y-177799022D01*
X147969825Y-177626499D01*
X148041416Y-177454894D01*
X148068427Y-177293539D01*
X148068470Y-177287417D01*
X148060227Y-177189162D01*
X148028731Y-177117622D01*
X147991054Y-177072207D01*
X147962655Y-177044402D01*
X147895479Y-176979892D01*
X147791648Y-176880693D01*
X147653284Y-176748818D01*
X147482507Y-176586283D01*
X147281440Y-176395101D01*
X147052204Y-176177288D01*
X146796921Y-175934858D01*
X146517712Y-175669826D01*
X146216699Y-175384206D01*
X145896004Y-175080013D01*
X145557748Y-174759261D01*
X145204052Y-174423965D01*
X144837039Y-174076140D01*
X144458831Y-173717801D01*
X144309180Y-173576038D01*
X143927380Y-173214378D01*
X143556030Y-172862615D01*
X143197246Y-172522750D01*
X142853142Y-172196787D01*
X142525833Y-171886729D01*
X142217432Y-171594579D01*
X141930055Y-171322341D01*
X141665815Y-171072017D01*
X141426828Y-170845610D01*
X141215207Y-170645124D01*
X141033067Y-170472562D01*
X140882523Y-170329927D01*
X140765690Y-170219221D01*
X140684680Y-170142449D01*
X140641610Y-170101613D01*
X140635517Y-170095826D01*
X140566289Y-170029886D01*
X140632036Y-169895597D01*
X140740822Y-169610470D01*
X140797356Y-169309791D01*
X140801807Y-168998598D01*
X140754344Y-168681929D01*
X140655136Y-168364821D01*
X140574630Y-168184051D01*
X140509947Y-168062458D01*
X140435968Y-167942547D01*
X140348178Y-167819045D01*
X140242065Y-167686681D01*
X140113114Y-167540183D01*
X139956813Y-167374277D01*
X139768646Y-167183693D01*
X139544102Y-166963156D01*
X139458118Y-166879884D01*
X139237134Y-166666995D01*
X139051261Y-166489300D01*
X138895553Y-166342403D01*
X138765065Y-166221908D01*
X138654852Y-166123419D01*
X138559969Y-166042539D01*
X138475470Y-165974872D01*
X138396411Y-165916023D01*
X138317845Y-165861594D01*
X138297096Y-165847761D01*
X138095862Y-165730610D01*
X137914836Y-165661830D01*
X137746643Y-165640686D01*
X137583907Y-165666446D01*
G37*
X137583907Y-165666446D02*
X137419253Y-165738377D01*
X137386980Y-165757303D01*
X137279414Y-165822759D01*
X138046589Y-166623408D01*
X138229445Y-166814192D01*
X138411756Y-167004315D01*
X138587115Y-167187100D01*
X138749112Y-167355871D01*
X138891341Y-167503953D01*
X139007394Y-167624670D01*
X139090463Y-167710931D01*
X139202158Y-167828328D01*
X139279550Y-167914746D01*
X139328654Y-167978525D01*
X139355492Y-168028003D01*
X139366080Y-168071521D01*
X139367162Y-168094329D01*
X139343772Y-168205625D01*
X139281814Y-168294976D01*
X139193605Y-168353351D01*
X139091461Y-168371720D01*
X139013191Y-168353841D01*
X138976309Y-168329104D01*
X138901084Y-168271182D01*
X138791843Y-168183644D01*
X138652913Y-168070061D01*
X138488622Y-167934005D01*
X138303297Y-167779045D01*
X138101265Y-167608753D01*
X137886854Y-167426700D01*
X137805636Y-167357403D01*
X137590158Y-167173570D01*
X137387618Y-167001268D01*
X137202037Y-166843886D01*
X137037438Y-166704812D01*
X136897843Y-166587433D01*
X136787275Y-166495137D01*
X136709755Y-166431311D01*
X136669306Y-166399342D01*
X136664356Y-166396230D01*
X136638644Y-166414920D01*
X136583511Y-166464942D01*
X136508771Y-166537221D01*
X136470217Y-166575739D01*
X136292304Y-166755247D01*
X137277966Y-167910940D01*
X137464983Y-168130859D01*
X137641049Y-168339138D01*
X137802732Y-168531632D01*
X137946599Y-168704195D01*
X138069218Y-168852683D01*
X138167156Y-168972950D01*
X138236982Y-169060850D01*
X138275263Y-169112239D01*
X138281500Y-169122940D01*
X138285441Y-169219972D01*
X138246288Y-169317005D01*
X138175374Y-169399552D01*
X138084029Y-169453126D01*
X138013455Y-169465632D01*
X137992253Y-169464771D01*
X137970240Y-169460286D01*
X137944210Y-169449325D01*
X137910959Y-169429033D01*
X137867279Y-169396558D01*
X137809966Y-169349046D01*
X137735814Y-169283645D01*
X137641617Y-169197500D01*
X137524170Y-169087760D01*
X137380266Y-168951571D01*
X137206700Y-168786079D01*
X137000266Y-168588431D01*
X136757759Y-168355775D01*
X136646839Y-168249295D01*
X136460108Y-168070720D01*
X136285240Y-167904820D01*
X136126524Y-167755569D01*
X135988249Y-167626938D01*
X135874704Y-167522899D01*
X135790176Y-167447425D01*
X135738955Y-167404486D01*
X135725406Y-167395898D01*
X135689420Y-167420037D01*
X135641993Y-167483042D01*
X135590776Y-167570790D01*
X135543416Y-167669163D01*
X135507563Y-167764039D01*
X135492642Y-167825608D01*
X135484839Y-167937178D01*
X135496251Y-168052188D01*
X135529188Y-168174001D01*
X135585960Y-168305980D01*
X135668877Y-168451492D01*
X135780247Y-168613898D01*
X135922380Y-168796564D01*
X136097587Y-169002853D01*
X136308176Y-169236131D01*
X136556458Y-169499760D01*
X136844741Y-169797104D01*
X136849391Y-169801849D01*
X137087748Y-170041273D01*
X137296397Y-170241764D01*
X137481530Y-170407780D01*
X137649338Y-170543782D01*
X137806015Y-170654230D01*
X137957750Y-170743584D01*
X138110737Y-170816305D01*
X138271167Y-170876852D01*
X138395654Y-170915671D01*
X138678037Y-170973543D01*
X138971279Y-170989903D01*
X139260332Y-170965385D01*
X139530148Y-170900621D01*
X139628973Y-170863733D01*
X139721570Y-170825043D01*
X143235027Y-174531202D01*
X143602207Y-174918367D01*
X143959713Y-175295029D01*
X144305556Y-175659107D01*
X144637750Y-176008519D01*
X144954307Y-176341186D01*
X145253240Y-176655026D01*
X145532560Y-176947959D01*
X145790282Y-177217904D01*
X146024417Y-177462781D01*
X146232979Y-177680508D01*
X146413979Y-177869005D01*
X146565430Y-178026190D01*
X146685346Y-178149985D01*
X146771738Y-178238306D01*
X146822620Y-178289075D01*
X146835379Y-178300720D01*
X146915926Y-178345664D01*
X147002081Y-178359972D01*
X147109167Y-178344084D01*
X147215260Y-178311643D01*
X147393141Y-178228772D01*
X147565312Y-178109490D01*
X147723999Y-177963130D01*
X147861428Y-177799022D01*
X147969825Y-177626499D01*
X148041416Y-177454894D01*
X148068427Y-177293539D01*
X148068470Y-177287417D01*
X148060227Y-177189162D01*
X148028731Y-177117622D01*
X147991054Y-177072207D01*
X147962655Y-177044402D01*
X147895479Y-176979892D01*
X147791648Y-176880693D01*
X147653284Y-176748818D01*
X147482507Y-176586283D01*
X147281440Y-176395101D01*
X147052204Y-176177288D01*
X146796921Y-175934858D01*
X146517712Y-175669826D01*
X146216699Y-175384206D01*
X145896004Y-175080013D01*
X145557748Y-174759261D01*
X145204052Y-174423965D01*
X144837039Y-174076140D01*
X144458831Y-173717801D01*
X144309180Y-173576038D01*
X143927380Y-173214378D01*
X143556030Y-172862615D01*
X143197246Y-172522750D01*
X142853142Y-172196787D01*
X142525833Y-171886729D01*
X142217432Y-171594579D01*
X141930055Y-171322341D01*
X141665815Y-171072017D01*
X141426828Y-170845610D01*
X141215207Y-170645124D01*
X141033067Y-170472562D01*
X140882523Y-170329927D01*
X140765690Y-170219221D01*
X140684680Y-170142449D01*
X140641610Y-170101613D01*
X140635517Y-170095826D01*
X140566289Y-170029886D01*
X140632036Y-169895597D01*
X140740822Y-169610470D01*
X140797356Y-169309791D01*
X140801807Y-168998598D01*
X140754344Y-168681929D01*
X140655136Y-168364821D01*
X140574630Y-168184051D01*
X140509947Y-168062458D01*
X140435968Y-167942547D01*
X140348178Y-167819045D01*
X140242065Y-167686681D01*
X140113114Y-167540183D01*
X139956813Y-167374277D01*
X139768646Y-167183693D01*
X139544102Y-166963156D01*
X139458118Y-166879884D01*
X139237134Y-166666995D01*
X139051261Y-166489300D01*
X138895553Y-166342403D01*
X138765065Y-166221908D01*
X138654852Y-166123419D01*
X138559969Y-166042539D01*
X138475470Y-165974872D01*
X138396411Y-165916023D01*
X138317845Y-165861594D01*
X138297096Y-165847761D01*
X138095862Y-165730610D01*
X137914836Y-165661830D01*
X137746643Y-165640686D01*
X137583907Y-165666446D01*
%TD*%
M02*
