%TF.GenerationSoftware,KiCad,Pcbnew,5.1.8-db9833491~88~ubuntu20.04.1*%
%TF.CreationDate,2021-01-15T13:02:49+00:00*%
%TF.ProjectId,luncheonmeat,6c756e63-6865-46f6-9e6d-6561742e6b69,v0.2.2*%
%TF.SameCoordinates,Original*%
%TF.FileFunction,Copper,L2,Bot*%
%TF.FilePolarity,Positive*%
%FSLAX46Y46*%
G04 Gerber Fmt 4.6, Leading zero omitted, Abs format (unit mm)*
G04 Created by KiCad (PCBNEW 5.1.8-db9833491~88~ubuntu20.04.1) date 2021-01-15 13:02:49*
%MOMM*%
%LPD*%
G01*
G04 APERTURE LIST*
%TA.AperFunction,ComponentPad*%
%ADD10C,1.524000*%
%TD*%
%TA.AperFunction,ComponentPad*%
%ADD11C,2.000000*%
%TD*%
%TA.AperFunction,ComponentPad*%
%ADD12C,1.800000*%
%TD*%
%TA.AperFunction,ComponentPad*%
%ADD13C,1.700000*%
%TD*%
%TA.AperFunction,ViaPad*%
%ADD14C,0.900000*%
%TD*%
%TA.AperFunction,ViaPad*%
%ADD15C,0.600000*%
%TD*%
%TA.AperFunction,Conductor*%
%ADD16C,0.400000*%
%TD*%
%TA.AperFunction,Conductor*%
%ADD17C,0.800000*%
%TD*%
%TA.AperFunction,Conductor*%
%ADD18C,0.300000*%
%TD*%
%TA.AperFunction,Conductor*%
%ADD19C,0.254000*%
%TD*%
%TA.AperFunction,Conductor*%
%ADD20C,0.150000*%
%TD*%
G04 APERTURE END LIST*
D10*
%TO.P,U3,3*%
%TO.N,Net-(Q1-Pad3)*%
X150500000Y-104968000D03*
%TO.P,U3,4*%
%TO.N,/SEG_C*%
X153040000Y-104968000D03*
%TO.P,U3,2*%
%TO.N,/SEG_D*%
X147960000Y-104968000D03*
%TO.P,U3,5*%
%TO.N,/SEG_RDP*%
X155580000Y-104968000D03*
%TO.P,U3,1*%
%TO.N,/SEG_E*%
X145420000Y-104968000D03*
%TO.P,U3,6*%
%TO.N,/SEG_B*%
X155580000Y-74488000D03*
%TO.P,U3,7*%
%TO.N,/SEG_A*%
X153040000Y-74488000D03*
%TO.P,U3,8*%
%TO.N,Net-(Q1-Pad3)*%
X150500000Y-74488000D03*
%TO.P,U3,9*%
%TO.N,/SEG_F*%
X147960000Y-74488000D03*
%TO.P,U3,10*%
%TO.N,/SEG_G*%
X145420000Y-74488000D03*
%TD*%
D11*
%TO.P,SW3,2*%
%TO.N,/COL_2*%
X100000000Y-164500000D03*
%TO.P,SW3,1*%
%TO.N,/ROW_2*%
X100000000Y-160000000D03*
%TO.P,SW3,2*%
%TO.N,/COL_2*%
X106500000Y-164500000D03*
%TO.P,SW3,1*%
%TO.N,/ROW_2*%
X106500000Y-160000000D03*
%TD*%
%TO.P,SW11,2*%
%TO.N,MISO*%
X140000000Y-164500000D03*
%TO.P,SW11,1*%
%TO.N,/ROW_2*%
X140000000Y-160000000D03*
%TO.P,SW11,2*%
%TO.N,MISO*%
X146500000Y-164500000D03*
%TO.P,SW11,1*%
%TO.N,/ROW_2*%
X146500000Y-160000000D03*
%TD*%
%TO.P,SW10,2*%
%TO.N,MISO*%
X140000000Y-144500000D03*
%TO.P,SW10,1*%
%TO.N,/ROW_1*%
X140000000Y-140000000D03*
%TO.P,SW10,2*%
%TO.N,MISO*%
X146500000Y-144500000D03*
%TO.P,SW10,1*%
%TO.N,/ROW_1*%
X146500000Y-140000000D03*
%TD*%
%TO.P,SW7,2*%
%TO.N,MOSI*%
X120000000Y-164500000D03*
%TO.P,SW7,1*%
%TO.N,/ROW_2*%
X120000000Y-160000000D03*
%TO.P,SW7,2*%
%TO.N,MOSI*%
X126500000Y-164500000D03*
%TO.P,SW7,1*%
%TO.N,/ROW_2*%
X126500000Y-160000000D03*
%TD*%
%TO.P,SW2,2*%
%TO.N,/COL_2*%
X100000000Y-144500000D03*
%TO.P,SW2,1*%
%TO.N,/ROW_1*%
X100000000Y-140000000D03*
%TO.P,SW2,2*%
%TO.N,/COL_2*%
X106500000Y-144500000D03*
%TO.P,SW2,1*%
%TO.N,/ROW_1*%
X106500000Y-140000000D03*
%TD*%
D10*
%TO.P,U4,3*%
%TO.N,Net-(Q2-Pad3)*%
X124500000Y-104968000D03*
%TO.P,U4,4*%
%TO.N,/SEG_C*%
X127040000Y-104968000D03*
%TO.P,U4,2*%
%TO.N,/SEG_D*%
X121960000Y-104968000D03*
%TO.P,U4,5*%
%TO.N,/SEG_RDP*%
X129580000Y-104968000D03*
%TO.P,U4,1*%
%TO.N,/SEG_E*%
X119420000Y-104968000D03*
%TO.P,U4,6*%
%TO.N,/SEG_B*%
X129580000Y-74488000D03*
%TO.P,U4,7*%
%TO.N,/SEG_A*%
X127040000Y-74488000D03*
%TO.P,U4,8*%
%TO.N,Net-(Q2-Pad3)*%
X124500000Y-74488000D03*
%TO.P,U4,9*%
%TO.N,/SEG_F*%
X121960000Y-74488000D03*
%TO.P,U4,10*%
%TO.N,/SEG_G*%
X119420000Y-74488000D03*
%TD*%
D12*
%TO.P,J1,6*%
%TO.N,Net-(C1-Pad2)*%
X133125000Y-66050000D03*
X140875000Y-66050000D03*
D11*
X133275000Y-69850000D03*
X140725000Y-69850000D03*
%TD*%
%TO.P,SW6,2*%
%TO.N,MOSI*%
X120000000Y-144500000D03*
%TO.P,SW6,1*%
%TO.N,/ROW_1*%
X120000000Y-140000000D03*
%TO.P,SW6,2*%
%TO.N,MOSI*%
X126500000Y-144500000D03*
%TO.P,SW6,1*%
%TO.N,/ROW_1*%
X126500000Y-140000000D03*
%TD*%
%TO.P,J2,1*%
%TO.N,MISO*%
%TA.AperFunction,ComponentPad*%
G36*
G01*
X86150000Y-121560000D02*
X86150000Y-120360000D01*
G75*
G02*
X86400000Y-120110000I250000J0D01*
G01*
X87600000Y-120110000D01*
G75*
G02*
X87850000Y-120360000I0J-250000D01*
G01*
X87850000Y-121560000D01*
G75*
G02*
X87600000Y-121810000I-250000J0D01*
G01*
X86400000Y-121810000D01*
G75*
G02*
X86150000Y-121560000I0J250000D01*
G01*
G37*
%TD.AperFunction*%
D13*
%TO.P,J2,3*%
%TO.N,SCK*%
X87000000Y-123500000D03*
%TO.P,J2,5*%
%TO.N,RESET*%
X87000000Y-126040000D03*
%TO.P,J2,2*%
%TO.N,+5V*%
X89540000Y-120960000D03*
%TO.P,J2,4*%
%TO.N,MOSI*%
X89540000Y-123500000D03*
%TO.P,J2,6*%
%TO.N,GND*%
X89540000Y-126040000D03*
%TD*%
D10*
%TO.P,U5,3*%
%TO.N,Net-(Q3-Pad3)*%
X98500000Y-104968000D03*
%TO.P,U5,4*%
%TO.N,/SEG_C*%
X101040000Y-104968000D03*
%TO.P,U5,2*%
%TO.N,/SEG_D*%
X95960000Y-104968000D03*
%TO.P,U5,5*%
%TO.N,/SEG_RDP*%
X103580000Y-104968000D03*
%TO.P,U5,1*%
%TO.N,/SEG_E*%
X93420000Y-104968000D03*
%TO.P,U5,6*%
%TO.N,/SEG_B*%
X103580000Y-74488000D03*
%TO.P,U5,7*%
%TO.N,/SEG_A*%
X101040000Y-74488000D03*
%TO.P,U5,8*%
%TO.N,Net-(Q3-Pad3)*%
X98500000Y-74488000D03*
%TO.P,U5,9*%
%TO.N,/SEG_F*%
X95960000Y-74488000D03*
%TO.P,U5,10*%
%TO.N,/SEG_G*%
X93420000Y-74488000D03*
%TD*%
D11*
%TO.P,SW12,2*%
%TO.N,MISO*%
X140000000Y-184500000D03*
%TO.P,SW12,1*%
%TO.N,/ROW_3*%
X140000000Y-180000000D03*
%TO.P,SW12,2*%
%TO.N,MISO*%
X146500000Y-184500000D03*
%TO.P,SW12,1*%
%TO.N,/ROW_3*%
X146500000Y-180000000D03*
%TD*%
%TO.P,SW9,2*%
%TO.N,MISO*%
X140000000Y-124500000D03*
%TO.P,SW9,1*%
%TO.N,/ROW_0*%
X140000000Y-120000000D03*
%TO.P,SW9,2*%
%TO.N,MISO*%
X146500000Y-124500000D03*
%TO.P,SW9,1*%
%TO.N,/ROW_0*%
X146500000Y-120000000D03*
%TD*%
%TO.P,SW8,2*%
%TO.N,MOSI*%
X120000000Y-184500000D03*
%TO.P,SW8,1*%
%TO.N,/ROW_3*%
X120000000Y-180000000D03*
%TO.P,SW8,2*%
%TO.N,MOSI*%
X126500000Y-184500000D03*
%TO.P,SW8,1*%
%TO.N,/ROW_3*%
X126500000Y-180000000D03*
%TD*%
%TO.P,SW5,2*%
%TO.N,MOSI*%
X120000000Y-124500000D03*
%TO.P,SW5,1*%
%TO.N,/ROW_0*%
X120000000Y-120000000D03*
%TO.P,SW5,2*%
%TO.N,MOSI*%
X126500000Y-124500000D03*
%TO.P,SW5,1*%
%TO.N,/ROW_0*%
X126500000Y-120000000D03*
%TD*%
%TO.P,SW4,2*%
%TO.N,/COL_2*%
X100000000Y-184500000D03*
%TO.P,SW4,1*%
%TO.N,/ROW_3*%
X100000000Y-180000000D03*
%TO.P,SW4,2*%
%TO.N,/COL_2*%
X106500000Y-184500000D03*
%TO.P,SW4,1*%
%TO.N,/ROW_3*%
X106500000Y-180000000D03*
%TD*%
%TO.P,SW1,2*%
%TO.N,/COL_2*%
X100000000Y-124500000D03*
%TO.P,SW1,1*%
%TO.N,/ROW_0*%
X100000000Y-120000000D03*
%TO.P,SW1,2*%
%TO.N,/COL_2*%
X106500000Y-124500000D03*
%TO.P,SW1,1*%
%TO.N,/ROW_0*%
X106500000Y-120000000D03*
%TD*%
D14*
%TO.N,+5V*%
X132000000Y-87000000D03*
X104000000Y-88500000D03*
X103500000Y-78500000D03*
X91000000Y-114500000D03*
X107000000Y-100000000D03*
X110000000Y-80500000D03*
D15*
X98500000Y-80500000D03*
X127250000Y-80500000D03*
D14*
X140000000Y-80500000D03*
D15*
X153000000Y-80500000D03*
%TO.N,RESET*%
X106000000Y-89500000D03*
X93000000Y-95000000D03*
X111000000Y-81500000D03*
%TO.N,SCK*%
X106000000Y-98000000D03*
X89565693Y-99065693D03*
%TO.N,/DR-*%
X137000000Y-83000000D03*
X135250000Y-84750000D03*
D14*
%TO.N,GND*%
X98501803Y-87252115D03*
X102500000Y-90500000D03*
X105000000Y-90500000D03*
X90500000Y-82000000D03*
X99500000Y-82500000D03*
D15*
X137500000Y-86000000D03*
X126750000Y-85750000D03*
X139750000Y-78750000D03*
X138250000Y-73500000D03*
X163000000Y-73000000D03*
X163000000Y-83000000D03*
X163000000Y-93000000D03*
X163000000Y-103000000D03*
X158000000Y-153000000D03*
X158000000Y-163000000D03*
X158000000Y-173000000D03*
X158000000Y-173000000D03*
X158000000Y-183000000D03*
X143000000Y-173000000D03*
X123000000Y-173000000D03*
X103000000Y-173000000D03*
X103000000Y-153000000D03*
X123000000Y-153000000D03*
X143000000Y-153000000D03*
X143000000Y-133000000D03*
X123000000Y-133000000D03*
X103000000Y-133000000D03*
X88000000Y-153000000D03*
X88000000Y-163000000D03*
X88000000Y-173000000D03*
X88000000Y-183000000D03*
X158000000Y-143000000D03*
X88000000Y-143000000D03*
X158000000Y-133000000D03*
X158000000Y-123000000D03*
X143000000Y-113000000D03*
X123000000Y-113000000D03*
X103000000Y-113000000D03*
X88000000Y-133000000D03*
X88000000Y-73000000D03*
X88000000Y-78000000D03*
X118000000Y-88000000D03*
X118000000Y-83000000D03*
X128000000Y-98000000D03*
X143000000Y-98000000D03*
X153000000Y-98000000D03*
X98000000Y-103000000D03*
X85500000Y-95500000D03*
X130000000Y-77000000D03*
X122000000Y-68000000D03*
X135700000Y-71800000D03*
X135375000Y-72875000D03*
X134500000Y-72000000D03*
X117500000Y-73000000D03*
X108500000Y-72000000D03*
X96000000Y-68500000D03*
X132000000Y-81500000D03*
X136000000Y-107000000D03*
X115000000Y-107000000D03*
X112000000Y-100000000D03*
X114000000Y-93000000D03*
X149000000Y-92000000D03*
X141000000Y-92000000D03*
X121000000Y-91000000D03*
X154000000Y-84000000D03*
X155000000Y-78000000D03*
D14*
X145949979Y-82000000D03*
D15*
X135500000Y-89000000D03*
X146750000Y-89500000D03*
X143000000Y-85750000D03*
X122000000Y-78750000D03*
%TO.N,P_LED*%
X91000000Y-95500000D03*
X110000000Y-94500000D03*
%TO.N,+3V3*%
X137500000Y-88000000D03*
X136000000Y-86500000D03*
%TD*%
D16*
%TO.N,/SEG_F*%
X123922012Y-72525988D02*
X121960000Y-74488000D01*
X132036024Y-72525988D02*
X123922012Y-72525988D01*
X135260037Y-75750001D02*
X132036024Y-72525988D01*
X146697999Y-75750001D02*
X135260037Y-75750001D01*
X147960000Y-74488000D02*
X146697999Y-75750001D01*
X97922012Y-72525988D02*
X95960000Y-74488000D01*
X105505916Y-72525988D02*
X97922012Y-72525988D01*
X121960000Y-74488000D02*
X120697999Y-75750001D01*
X120697999Y-75750001D02*
X108729929Y-75750001D01*
X108729929Y-75750001D02*
X105505916Y-72525988D01*
%TO.N,/SEG_E*%
X96082023Y-107630023D02*
X93420000Y-104968000D01*
X106130023Y-107630023D02*
X96082023Y-107630023D01*
X109260046Y-104500000D02*
X106130023Y-107630023D01*
X119000000Y-104500000D02*
X109260046Y-104500000D01*
X119420000Y-104920000D02*
X119000000Y-104500000D01*
X119420000Y-104968000D02*
X119420000Y-104920000D01*
X122082022Y-107630022D02*
X119420000Y-104968000D01*
X132869978Y-107630022D02*
X122082022Y-107630022D01*
X144500000Y-104048000D02*
X136452000Y-104048000D01*
X145420000Y-104968000D02*
X144500000Y-104048000D01*
X136452000Y-104048000D02*
X132869978Y-107630022D01*
%TO.N,/SEG_D*%
X97922012Y-106930012D02*
X95960000Y-104968000D01*
X121960000Y-104968000D02*
X120697999Y-103705999D01*
X105661871Y-106930012D02*
X97922012Y-106930012D01*
X108885884Y-103705999D02*
X105661871Y-106930012D01*
X120697999Y-103705999D02*
X108885884Y-103705999D01*
X136179939Y-103299990D02*
X132549917Y-106930012D01*
X146291990Y-103299990D02*
X136179939Y-103299990D01*
X147960000Y-104968000D02*
X146291990Y-103299990D01*
X132549917Y-106930012D02*
X123922012Y-106930012D01*
X123922012Y-106930012D02*
X121960000Y-104968000D01*
%TO.N,/SEG_C*%
X127040000Y-104968000D02*
X125077988Y-103005988D01*
X102302001Y-106230001D02*
X101040000Y-104968000D01*
X105371917Y-106230001D02*
X102302001Y-106230001D01*
X125077988Y-103005988D02*
X108595930Y-103005988D01*
X108595930Y-103005988D02*
X105371917Y-106230001D01*
X128302001Y-106230001D02*
X127040000Y-104968000D01*
X132259963Y-106230001D02*
X128302001Y-106230001D01*
X150671979Y-102599979D02*
X135889985Y-102599979D01*
X153040000Y-104968000D02*
X150671979Y-102599979D01*
X135889985Y-102599979D02*
X132259963Y-106230001D01*
%TO.N,/SEG_B*%
X131488000Y-74488000D02*
X129580000Y-74488000D01*
X134600032Y-77600032D02*
X131488000Y-74488000D01*
X152467968Y-77600032D02*
X134600032Y-77600032D01*
X155580000Y-74488000D02*
X152467968Y-77600032D01*
X105488000Y-74488000D02*
X103580000Y-74488000D01*
X108150022Y-77150022D02*
X105488000Y-74488000D01*
X126917978Y-77150022D02*
X108150022Y-77150022D01*
X129580000Y-74488000D02*
X126917978Y-77150022D01*
%TO.N,/SEG_A*%
X128302001Y-73225999D02*
X127040000Y-74488000D01*
X131715964Y-73225999D02*
X128302001Y-73225999D01*
X151022983Y-76505017D02*
X134994983Y-76505017D01*
X153040000Y-74488000D02*
X151022983Y-76505017D01*
X134994983Y-76505017D02*
X131715964Y-73225999D01*
X102302001Y-73225999D02*
X101040000Y-74488000D01*
X125077988Y-76450012D02*
X108439976Y-76450012D01*
X105215963Y-73225999D02*
X102302001Y-73225999D01*
X127040000Y-74488000D02*
X125077988Y-76450012D01*
X108439976Y-76450012D02*
X105215963Y-73225999D01*
%TO.N,/SEG_RDP*%
X108305977Y-102305977D02*
X126917977Y-102305977D01*
X126917977Y-102305977D02*
X129580000Y-104968000D01*
X105643954Y-104968000D02*
X108305977Y-102305977D01*
X103580000Y-104968000D02*
X105643954Y-104968000D01*
X154818001Y-104206001D02*
X155580000Y-104968000D01*
X152511968Y-101899968D02*
X154818001Y-104206001D01*
X132331936Y-104968000D02*
X135399968Y-101899968D01*
X129580000Y-104968000D02*
X132331936Y-104968000D01*
X135399968Y-101899968D02*
X152511968Y-101899968D01*
%TO.N,/SEG_G*%
X122082023Y-71825977D02*
X119420000Y-74488000D01*
X132325977Y-71825977D02*
X122082023Y-71825977D01*
X134988000Y-74488000D02*
X132325977Y-71825977D01*
X145420000Y-74488000D02*
X134988000Y-74488000D01*
X96082022Y-71825978D02*
X93420000Y-74488000D01*
X108488000Y-74488000D02*
X105825978Y-71825978D01*
X119420000Y-74488000D02*
X108488000Y-74488000D01*
X105825978Y-71825978D02*
X96082022Y-71825978D01*
D17*
%TO.N,+5V*%
X130000000Y-85000000D02*
X132000000Y-87000000D01*
D16*
X103500000Y-88000000D02*
X103500000Y-78500000D01*
D17*
X130000000Y-85000000D02*
X130000000Y-80500000D01*
X110000000Y-80500000D02*
X122500000Y-80500000D01*
X103500000Y-78500000D02*
X103500000Y-79500000D01*
X103500000Y-88000000D02*
X104000000Y-88500000D01*
X110000000Y-80500000D02*
X104500000Y-80500000D01*
X104500000Y-80500000D02*
X103500000Y-80500000D01*
X103500000Y-80500000D02*
X103500000Y-88000000D01*
X103500000Y-79500000D02*
X103500000Y-80500000D01*
D16*
X107000000Y-100000000D02*
X93000000Y-100000000D01*
X91000000Y-102000000D02*
X91000000Y-114500000D01*
X93000000Y-100000000D02*
X91000000Y-102000000D01*
D17*
X98500000Y-80500000D02*
X103500000Y-80500000D01*
X127250000Y-80500000D02*
X130000000Y-80500000D01*
X122500000Y-80500000D02*
X127250000Y-80500000D01*
X140000000Y-80500000D02*
X139500000Y-80500000D01*
X139500000Y-80500000D02*
X130000000Y-80500000D01*
X140000000Y-80500000D02*
X153000000Y-80500000D01*
D16*
%TO.N,/ROW_0*%
X100000000Y-120000000D02*
X147160000Y-120000000D01*
X147160000Y-120000000D02*
X146500000Y-120000000D01*
%TO.N,/ROW_1*%
X146500000Y-140000000D02*
X100000000Y-140000000D01*
%TO.N,/ROW_2*%
X100000000Y-160000000D02*
X146500000Y-160000000D01*
%TO.N,/ROW_3*%
X146500000Y-180000000D02*
X140000000Y-180000000D01*
X140000000Y-180000000D02*
X100000000Y-180000000D01*
%TO.N,RESET*%
X102000000Y-95000000D02*
X106000000Y-91000000D01*
X93000000Y-95000000D02*
X102000000Y-95000000D01*
X106000000Y-91000000D02*
X106000000Y-89500000D01*
X106000000Y-88500000D02*
X106000000Y-89500000D01*
X111000000Y-81500000D02*
X111000000Y-83500000D01*
X111000000Y-83500000D02*
X106000000Y-88500000D01*
%TO.N,MOSI*%
X118000000Y-122500000D02*
X120000000Y-124500000D01*
X92500000Y-123500000D02*
X93500000Y-122500000D01*
X93500000Y-122500000D02*
X118000000Y-122500000D01*
X89540000Y-123500000D02*
X92500000Y-123500000D01*
%TO.N,SCK*%
X90631386Y-98000000D02*
X89565693Y-99065693D01*
X106000000Y-98000000D02*
X90631386Y-98000000D01*
%TO.N,MISO*%
X94000000Y-121750000D02*
X137250000Y-121750000D01*
X90750000Y-118500000D02*
X94000000Y-121750000D01*
X137250000Y-121750000D02*
X140000000Y-124500000D01*
X87750000Y-118500000D02*
X90750000Y-118500000D01*
X87000000Y-119250000D02*
X87750000Y-118500000D01*
X87000000Y-120960000D02*
X87000000Y-119250000D01*
D18*
%TO.N,/DR-*%
X137000000Y-83000000D02*
X135250000Y-84750000D01*
D16*
%TO.N,P_LED*%
X91375000Y-95875000D02*
X91000000Y-95500000D01*
X108625000Y-95875000D02*
X91375000Y-95875000D01*
X110000000Y-94500000D02*
X108625000Y-95875000D01*
D18*
%TO.N,+3V3*%
X137500000Y-88000000D02*
X137500000Y-87575736D01*
X137500000Y-87575736D02*
X136424264Y-86500000D01*
X136424264Y-86500000D02*
X136000000Y-86500000D01*
%TD*%
D19*
%TO.N,GND*%
X131764701Y-65322905D02*
X131648989Y-65602257D01*
X131590000Y-65898816D01*
X131590000Y-66201184D01*
X131648989Y-66497743D01*
X131764701Y-66777095D01*
X131932688Y-67028505D01*
X132146495Y-67242312D01*
X132397905Y-67410299D01*
X132677257Y-67526011D01*
X132973816Y-67585000D01*
X133276184Y-67585000D01*
X133572743Y-67526011D01*
X133852095Y-67410299D01*
X134103505Y-67242312D01*
X134317312Y-67028505D01*
X134485299Y-66777095D01*
X134601011Y-66497743D01*
X134660000Y-66201184D01*
X134660000Y-65898816D01*
X134601011Y-65602257D01*
X134485299Y-65322905D01*
X134376449Y-65160000D01*
X139623551Y-65160000D01*
X139514701Y-65322905D01*
X139398989Y-65602257D01*
X139340000Y-65898816D01*
X139340000Y-66201184D01*
X139398989Y-66497743D01*
X139514701Y-66777095D01*
X139682688Y-67028505D01*
X139896495Y-67242312D01*
X140147905Y-67410299D01*
X140427257Y-67526011D01*
X140723816Y-67585000D01*
X141026184Y-67585000D01*
X141322743Y-67526011D01*
X141602095Y-67410299D01*
X141797292Y-67279872D01*
X158765000Y-67279872D01*
X158765000Y-67720128D01*
X158850890Y-68151925D01*
X159019369Y-68558669D01*
X159263962Y-68924729D01*
X159575271Y-69236038D01*
X159941331Y-69480631D01*
X160348075Y-69649110D01*
X160779872Y-69735000D01*
X161220128Y-69735000D01*
X161651925Y-69649110D01*
X162058669Y-69480631D01*
X162424729Y-69236038D01*
X162736038Y-68924729D01*
X162980631Y-68558669D01*
X163149110Y-68151925D01*
X163235000Y-67720128D01*
X163235000Y-67279872D01*
X163149110Y-66848075D01*
X162980631Y-66441331D01*
X162736038Y-66075271D01*
X162424729Y-65763962D01*
X162058669Y-65519369D01*
X161651925Y-65350890D01*
X161220128Y-65265000D01*
X160779872Y-65265000D01*
X160348075Y-65350890D01*
X159941331Y-65519369D01*
X159575271Y-65763962D01*
X159263962Y-66075271D01*
X159019369Y-66441331D01*
X158850890Y-66848075D01*
X158765000Y-67279872D01*
X141797292Y-67279872D01*
X141853505Y-67242312D01*
X142067312Y-67028505D01*
X142235299Y-66777095D01*
X142351011Y-66497743D01*
X142410000Y-66201184D01*
X142410000Y-65898816D01*
X142351011Y-65602257D01*
X142235299Y-65322905D01*
X142126449Y-65160000D01*
X160967721Y-65160000D01*
X161453893Y-65207670D01*
X161890498Y-65339489D01*
X162293185Y-65553600D01*
X162646612Y-65841848D01*
X162937327Y-66193261D01*
X163154242Y-66594439D01*
X163289106Y-67030113D01*
X163340001Y-67514353D01*
X163340000Y-189967721D01*
X163292330Y-190453894D01*
X163160512Y-190890497D01*
X162946399Y-191293186D01*
X162658150Y-191646613D01*
X162306739Y-191937327D01*
X161905564Y-192154240D01*
X161469886Y-192289106D01*
X160985664Y-192340000D01*
X86032279Y-192340000D01*
X85546106Y-192292330D01*
X85109503Y-192160512D01*
X84706814Y-191946399D01*
X84353387Y-191658150D01*
X84062673Y-191306739D01*
X83845760Y-190905564D01*
X83710894Y-190469886D01*
X83660000Y-189985664D01*
X83660000Y-189779872D01*
X83765000Y-189779872D01*
X83765000Y-190220128D01*
X83850890Y-190651925D01*
X84019369Y-191058669D01*
X84263962Y-191424729D01*
X84575271Y-191736038D01*
X84941331Y-191980631D01*
X85348075Y-192149110D01*
X85779872Y-192235000D01*
X86220128Y-192235000D01*
X86651925Y-192149110D01*
X87058669Y-191980631D01*
X87424729Y-191736038D01*
X87736038Y-191424729D01*
X87980631Y-191058669D01*
X88149110Y-190651925D01*
X88235000Y-190220128D01*
X88235000Y-189779872D01*
X158765000Y-189779872D01*
X158765000Y-190220128D01*
X158850890Y-190651925D01*
X159019369Y-191058669D01*
X159263962Y-191424729D01*
X159575271Y-191736038D01*
X159941331Y-191980631D01*
X160348075Y-192149110D01*
X160779872Y-192235000D01*
X161220128Y-192235000D01*
X161651925Y-192149110D01*
X162058669Y-191980631D01*
X162424729Y-191736038D01*
X162736038Y-191424729D01*
X162980631Y-191058669D01*
X163149110Y-190651925D01*
X163235000Y-190220128D01*
X163235000Y-189779872D01*
X163149110Y-189348075D01*
X162980631Y-188941331D01*
X162736038Y-188575271D01*
X162424729Y-188263962D01*
X162058669Y-188019369D01*
X161651925Y-187850890D01*
X161220128Y-187765000D01*
X160779872Y-187765000D01*
X160348075Y-187850890D01*
X159941331Y-188019369D01*
X159575271Y-188263962D01*
X159263962Y-188575271D01*
X159019369Y-188941331D01*
X158850890Y-189348075D01*
X158765000Y-189779872D01*
X88235000Y-189779872D01*
X88149110Y-189348075D01*
X87980631Y-188941331D01*
X87736038Y-188575271D01*
X87424729Y-188263962D01*
X87058669Y-188019369D01*
X86651925Y-187850890D01*
X86220128Y-187765000D01*
X85779872Y-187765000D01*
X85348075Y-187850890D01*
X84941331Y-188019369D01*
X84575271Y-188263962D01*
X84263962Y-188575271D01*
X84019369Y-188941331D01*
X83850890Y-189348075D01*
X83765000Y-189779872D01*
X83660000Y-189779872D01*
X83660000Y-184338967D01*
X98365000Y-184338967D01*
X98365000Y-184661033D01*
X98427832Y-184976912D01*
X98551082Y-185274463D01*
X98730013Y-185542252D01*
X98957748Y-185769987D01*
X99225537Y-185948918D01*
X99523088Y-186072168D01*
X99838967Y-186135000D01*
X100161033Y-186135000D01*
X100476912Y-186072168D01*
X100774463Y-185948918D01*
X101042252Y-185769987D01*
X101269987Y-185542252D01*
X101448918Y-185274463D01*
X101572168Y-184976912D01*
X101635000Y-184661033D01*
X101635000Y-184338967D01*
X104865000Y-184338967D01*
X104865000Y-184661033D01*
X104927832Y-184976912D01*
X105051082Y-185274463D01*
X105230013Y-185542252D01*
X105457748Y-185769987D01*
X105725537Y-185948918D01*
X106023088Y-186072168D01*
X106338967Y-186135000D01*
X106661033Y-186135000D01*
X106976912Y-186072168D01*
X107274463Y-185948918D01*
X107542252Y-185769987D01*
X107769987Y-185542252D01*
X107948918Y-185274463D01*
X108072168Y-184976912D01*
X108135000Y-184661033D01*
X108135000Y-184338967D01*
X118365000Y-184338967D01*
X118365000Y-184661033D01*
X118427832Y-184976912D01*
X118551082Y-185274463D01*
X118730013Y-185542252D01*
X118957748Y-185769987D01*
X119225537Y-185948918D01*
X119523088Y-186072168D01*
X119838967Y-186135000D01*
X120161033Y-186135000D01*
X120476912Y-186072168D01*
X120774463Y-185948918D01*
X121042252Y-185769987D01*
X121269987Y-185542252D01*
X121448918Y-185274463D01*
X121572168Y-184976912D01*
X121635000Y-184661033D01*
X121635000Y-184338967D01*
X124865000Y-184338967D01*
X124865000Y-184661033D01*
X124927832Y-184976912D01*
X125051082Y-185274463D01*
X125230013Y-185542252D01*
X125457748Y-185769987D01*
X125725537Y-185948918D01*
X126023088Y-186072168D01*
X126338967Y-186135000D01*
X126661033Y-186135000D01*
X126976912Y-186072168D01*
X127274463Y-185948918D01*
X127542252Y-185769987D01*
X127769987Y-185542252D01*
X127948918Y-185274463D01*
X128072168Y-184976912D01*
X128135000Y-184661033D01*
X128135000Y-184338967D01*
X138365000Y-184338967D01*
X138365000Y-184661033D01*
X138427832Y-184976912D01*
X138551082Y-185274463D01*
X138730013Y-185542252D01*
X138957748Y-185769987D01*
X139225537Y-185948918D01*
X139523088Y-186072168D01*
X139838967Y-186135000D01*
X140161033Y-186135000D01*
X140476912Y-186072168D01*
X140774463Y-185948918D01*
X141042252Y-185769987D01*
X141269987Y-185542252D01*
X141448918Y-185274463D01*
X141572168Y-184976912D01*
X141635000Y-184661033D01*
X141635000Y-184338967D01*
X144865000Y-184338967D01*
X144865000Y-184661033D01*
X144927832Y-184976912D01*
X145051082Y-185274463D01*
X145230013Y-185542252D01*
X145457748Y-185769987D01*
X145725537Y-185948918D01*
X146023088Y-186072168D01*
X146338967Y-186135000D01*
X146661033Y-186135000D01*
X146976912Y-186072168D01*
X147274463Y-185948918D01*
X147542252Y-185769987D01*
X147769987Y-185542252D01*
X147948918Y-185274463D01*
X148072168Y-184976912D01*
X148135000Y-184661033D01*
X148135000Y-184338967D01*
X148072168Y-184023088D01*
X147948918Y-183725537D01*
X147769987Y-183457748D01*
X147542252Y-183230013D01*
X147274463Y-183051082D01*
X146976912Y-182927832D01*
X146661033Y-182865000D01*
X146338967Y-182865000D01*
X146023088Y-182927832D01*
X145725537Y-183051082D01*
X145457748Y-183230013D01*
X145230013Y-183457748D01*
X145051082Y-183725537D01*
X144927832Y-184023088D01*
X144865000Y-184338967D01*
X141635000Y-184338967D01*
X141572168Y-184023088D01*
X141448918Y-183725537D01*
X141269987Y-183457748D01*
X141042252Y-183230013D01*
X140774463Y-183051082D01*
X140476912Y-182927832D01*
X140161033Y-182865000D01*
X139838967Y-182865000D01*
X139523088Y-182927832D01*
X139225537Y-183051082D01*
X138957748Y-183230013D01*
X138730013Y-183457748D01*
X138551082Y-183725537D01*
X138427832Y-184023088D01*
X138365000Y-184338967D01*
X128135000Y-184338967D01*
X128072168Y-184023088D01*
X127948918Y-183725537D01*
X127769987Y-183457748D01*
X127542252Y-183230013D01*
X127274463Y-183051082D01*
X126976912Y-182927832D01*
X126661033Y-182865000D01*
X126338967Y-182865000D01*
X126023088Y-182927832D01*
X125725537Y-183051082D01*
X125457748Y-183230013D01*
X125230013Y-183457748D01*
X125051082Y-183725537D01*
X124927832Y-184023088D01*
X124865000Y-184338967D01*
X121635000Y-184338967D01*
X121572168Y-184023088D01*
X121448918Y-183725537D01*
X121269987Y-183457748D01*
X121042252Y-183230013D01*
X120774463Y-183051082D01*
X120476912Y-182927832D01*
X120161033Y-182865000D01*
X119838967Y-182865000D01*
X119523088Y-182927832D01*
X119225537Y-183051082D01*
X118957748Y-183230013D01*
X118730013Y-183457748D01*
X118551082Y-183725537D01*
X118427832Y-184023088D01*
X118365000Y-184338967D01*
X108135000Y-184338967D01*
X108072168Y-184023088D01*
X107948918Y-183725537D01*
X107769987Y-183457748D01*
X107542252Y-183230013D01*
X107274463Y-183051082D01*
X106976912Y-182927832D01*
X106661033Y-182865000D01*
X106338967Y-182865000D01*
X106023088Y-182927832D01*
X105725537Y-183051082D01*
X105457748Y-183230013D01*
X105230013Y-183457748D01*
X105051082Y-183725537D01*
X104927832Y-184023088D01*
X104865000Y-184338967D01*
X101635000Y-184338967D01*
X101572168Y-184023088D01*
X101448918Y-183725537D01*
X101269987Y-183457748D01*
X101042252Y-183230013D01*
X100774463Y-183051082D01*
X100476912Y-182927832D01*
X100161033Y-182865000D01*
X99838967Y-182865000D01*
X99523088Y-182927832D01*
X99225537Y-183051082D01*
X98957748Y-183230013D01*
X98730013Y-183457748D01*
X98551082Y-183725537D01*
X98427832Y-184023088D01*
X98365000Y-184338967D01*
X83660000Y-184338967D01*
X83660000Y-179838967D01*
X98365000Y-179838967D01*
X98365000Y-180161033D01*
X98427832Y-180476912D01*
X98551082Y-180774463D01*
X98730013Y-181042252D01*
X98957748Y-181269987D01*
X99225537Y-181448918D01*
X99523088Y-181572168D01*
X99838967Y-181635000D01*
X100161033Y-181635000D01*
X100476912Y-181572168D01*
X100774463Y-181448918D01*
X101042252Y-181269987D01*
X101269987Y-181042252D01*
X101408468Y-180835000D01*
X105091532Y-180835000D01*
X105230013Y-181042252D01*
X105457748Y-181269987D01*
X105725537Y-181448918D01*
X106023088Y-181572168D01*
X106338967Y-181635000D01*
X106661033Y-181635000D01*
X106976912Y-181572168D01*
X107274463Y-181448918D01*
X107542252Y-181269987D01*
X107769987Y-181042252D01*
X107908468Y-180835000D01*
X118591532Y-180835000D01*
X118730013Y-181042252D01*
X118957748Y-181269987D01*
X119225537Y-181448918D01*
X119523088Y-181572168D01*
X119838967Y-181635000D01*
X120161033Y-181635000D01*
X120476912Y-181572168D01*
X120774463Y-181448918D01*
X121042252Y-181269987D01*
X121269987Y-181042252D01*
X121408468Y-180835000D01*
X125091532Y-180835000D01*
X125230013Y-181042252D01*
X125457748Y-181269987D01*
X125725537Y-181448918D01*
X126023088Y-181572168D01*
X126338967Y-181635000D01*
X126661033Y-181635000D01*
X126976912Y-181572168D01*
X127274463Y-181448918D01*
X127542252Y-181269987D01*
X127769987Y-181042252D01*
X127908468Y-180835000D01*
X138591532Y-180835000D01*
X138730013Y-181042252D01*
X138957748Y-181269987D01*
X139225537Y-181448918D01*
X139523088Y-181572168D01*
X139838967Y-181635000D01*
X140161033Y-181635000D01*
X140476912Y-181572168D01*
X140774463Y-181448918D01*
X141042252Y-181269987D01*
X141269987Y-181042252D01*
X141408468Y-180835000D01*
X145091532Y-180835000D01*
X145230013Y-181042252D01*
X145457748Y-181269987D01*
X145725537Y-181448918D01*
X146023088Y-181572168D01*
X146338967Y-181635000D01*
X146661033Y-181635000D01*
X146976912Y-181572168D01*
X147274463Y-181448918D01*
X147542252Y-181269987D01*
X147769987Y-181042252D01*
X147948918Y-180774463D01*
X148072168Y-180476912D01*
X148135000Y-180161033D01*
X148135000Y-179838967D01*
X148072168Y-179523088D01*
X147948918Y-179225537D01*
X147769987Y-178957748D01*
X147542252Y-178730013D01*
X147274463Y-178551082D01*
X146976912Y-178427832D01*
X146661033Y-178365000D01*
X146338967Y-178365000D01*
X146023088Y-178427832D01*
X145725537Y-178551082D01*
X145457748Y-178730013D01*
X145230013Y-178957748D01*
X145091532Y-179165000D01*
X141408468Y-179165000D01*
X141269987Y-178957748D01*
X141042252Y-178730013D01*
X140774463Y-178551082D01*
X140476912Y-178427832D01*
X140161033Y-178365000D01*
X139838967Y-178365000D01*
X139523088Y-178427832D01*
X139225537Y-178551082D01*
X138957748Y-178730013D01*
X138730013Y-178957748D01*
X138591532Y-179165000D01*
X127908468Y-179165000D01*
X127769987Y-178957748D01*
X127542252Y-178730013D01*
X127274463Y-178551082D01*
X126976912Y-178427832D01*
X126661033Y-178365000D01*
X126338967Y-178365000D01*
X126023088Y-178427832D01*
X125725537Y-178551082D01*
X125457748Y-178730013D01*
X125230013Y-178957748D01*
X125091532Y-179165000D01*
X121408468Y-179165000D01*
X121269987Y-178957748D01*
X121042252Y-178730013D01*
X120774463Y-178551082D01*
X120476912Y-178427832D01*
X120161033Y-178365000D01*
X119838967Y-178365000D01*
X119523088Y-178427832D01*
X119225537Y-178551082D01*
X118957748Y-178730013D01*
X118730013Y-178957748D01*
X118591532Y-179165000D01*
X107908468Y-179165000D01*
X107769987Y-178957748D01*
X107542252Y-178730013D01*
X107274463Y-178551082D01*
X106976912Y-178427832D01*
X106661033Y-178365000D01*
X106338967Y-178365000D01*
X106023088Y-178427832D01*
X105725537Y-178551082D01*
X105457748Y-178730013D01*
X105230013Y-178957748D01*
X105091532Y-179165000D01*
X101408468Y-179165000D01*
X101269987Y-178957748D01*
X101042252Y-178730013D01*
X100774463Y-178551082D01*
X100476912Y-178427832D01*
X100161033Y-178365000D01*
X99838967Y-178365000D01*
X99523088Y-178427832D01*
X99225537Y-178551082D01*
X98957748Y-178730013D01*
X98730013Y-178957748D01*
X98551082Y-179225537D01*
X98427832Y-179523088D01*
X98365000Y-179838967D01*
X83660000Y-179838967D01*
X83660000Y-164338967D01*
X98365000Y-164338967D01*
X98365000Y-164661033D01*
X98427832Y-164976912D01*
X98551082Y-165274463D01*
X98730013Y-165542252D01*
X98957748Y-165769987D01*
X99225537Y-165948918D01*
X99523088Y-166072168D01*
X99838967Y-166135000D01*
X100161033Y-166135000D01*
X100476912Y-166072168D01*
X100774463Y-165948918D01*
X101042252Y-165769987D01*
X101269987Y-165542252D01*
X101448918Y-165274463D01*
X101572168Y-164976912D01*
X101635000Y-164661033D01*
X101635000Y-164338967D01*
X104865000Y-164338967D01*
X104865000Y-164661033D01*
X104927832Y-164976912D01*
X105051082Y-165274463D01*
X105230013Y-165542252D01*
X105457748Y-165769987D01*
X105725537Y-165948918D01*
X106023088Y-166072168D01*
X106338967Y-166135000D01*
X106661033Y-166135000D01*
X106976912Y-166072168D01*
X107274463Y-165948918D01*
X107542252Y-165769987D01*
X107769987Y-165542252D01*
X107948918Y-165274463D01*
X108072168Y-164976912D01*
X108135000Y-164661033D01*
X108135000Y-164338967D01*
X118365000Y-164338967D01*
X118365000Y-164661033D01*
X118427832Y-164976912D01*
X118551082Y-165274463D01*
X118730013Y-165542252D01*
X118957748Y-165769987D01*
X119225537Y-165948918D01*
X119523088Y-166072168D01*
X119838967Y-166135000D01*
X120161033Y-166135000D01*
X120476912Y-166072168D01*
X120774463Y-165948918D01*
X121042252Y-165769987D01*
X121269987Y-165542252D01*
X121448918Y-165274463D01*
X121572168Y-164976912D01*
X121635000Y-164661033D01*
X121635000Y-164338967D01*
X124865000Y-164338967D01*
X124865000Y-164661033D01*
X124927832Y-164976912D01*
X125051082Y-165274463D01*
X125230013Y-165542252D01*
X125457748Y-165769987D01*
X125725537Y-165948918D01*
X126023088Y-166072168D01*
X126338967Y-166135000D01*
X126661033Y-166135000D01*
X126976912Y-166072168D01*
X127274463Y-165948918D01*
X127542252Y-165769987D01*
X127769987Y-165542252D01*
X127948918Y-165274463D01*
X128072168Y-164976912D01*
X128135000Y-164661033D01*
X128135000Y-164338967D01*
X138365000Y-164338967D01*
X138365000Y-164661033D01*
X138427832Y-164976912D01*
X138551082Y-165274463D01*
X138730013Y-165542252D01*
X138957748Y-165769987D01*
X139225537Y-165948918D01*
X139523088Y-166072168D01*
X139838967Y-166135000D01*
X140161033Y-166135000D01*
X140476912Y-166072168D01*
X140774463Y-165948918D01*
X141042252Y-165769987D01*
X141269987Y-165542252D01*
X141448918Y-165274463D01*
X141572168Y-164976912D01*
X141635000Y-164661033D01*
X141635000Y-164338967D01*
X144865000Y-164338967D01*
X144865000Y-164661033D01*
X144927832Y-164976912D01*
X145051082Y-165274463D01*
X145230013Y-165542252D01*
X145457748Y-165769987D01*
X145725537Y-165948918D01*
X146023088Y-166072168D01*
X146338967Y-166135000D01*
X146661033Y-166135000D01*
X146976912Y-166072168D01*
X147274463Y-165948918D01*
X147542252Y-165769987D01*
X147769987Y-165542252D01*
X147948918Y-165274463D01*
X148072168Y-164976912D01*
X148135000Y-164661033D01*
X148135000Y-164338967D01*
X148072168Y-164023088D01*
X147948918Y-163725537D01*
X147769987Y-163457748D01*
X147542252Y-163230013D01*
X147274463Y-163051082D01*
X146976912Y-162927832D01*
X146661033Y-162865000D01*
X146338967Y-162865000D01*
X146023088Y-162927832D01*
X145725537Y-163051082D01*
X145457748Y-163230013D01*
X145230013Y-163457748D01*
X145051082Y-163725537D01*
X144927832Y-164023088D01*
X144865000Y-164338967D01*
X141635000Y-164338967D01*
X141572168Y-164023088D01*
X141448918Y-163725537D01*
X141269987Y-163457748D01*
X141042252Y-163230013D01*
X140774463Y-163051082D01*
X140476912Y-162927832D01*
X140161033Y-162865000D01*
X139838967Y-162865000D01*
X139523088Y-162927832D01*
X139225537Y-163051082D01*
X138957748Y-163230013D01*
X138730013Y-163457748D01*
X138551082Y-163725537D01*
X138427832Y-164023088D01*
X138365000Y-164338967D01*
X128135000Y-164338967D01*
X128072168Y-164023088D01*
X127948918Y-163725537D01*
X127769987Y-163457748D01*
X127542252Y-163230013D01*
X127274463Y-163051082D01*
X126976912Y-162927832D01*
X126661033Y-162865000D01*
X126338967Y-162865000D01*
X126023088Y-162927832D01*
X125725537Y-163051082D01*
X125457748Y-163230013D01*
X125230013Y-163457748D01*
X125051082Y-163725537D01*
X124927832Y-164023088D01*
X124865000Y-164338967D01*
X121635000Y-164338967D01*
X121572168Y-164023088D01*
X121448918Y-163725537D01*
X121269987Y-163457748D01*
X121042252Y-163230013D01*
X120774463Y-163051082D01*
X120476912Y-162927832D01*
X120161033Y-162865000D01*
X119838967Y-162865000D01*
X119523088Y-162927832D01*
X119225537Y-163051082D01*
X118957748Y-163230013D01*
X118730013Y-163457748D01*
X118551082Y-163725537D01*
X118427832Y-164023088D01*
X118365000Y-164338967D01*
X108135000Y-164338967D01*
X108072168Y-164023088D01*
X107948918Y-163725537D01*
X107769987Y-163457748D01*
X107542252Y-163230013D01*
X107274463Y-163051082D01*
X106976912Y-162927832D01*
X106661033Y-162865000D01*
X106338967Y-162865000D01*
X106023088Y-162927832D01*
X105725537Y-163051082D01*
X105457748Y-163230013D01*
X105230013Y-163457748D01*
X105051082Y-163725537D01*
X104927832Y-164023088D01*
X104865000Y-164338967D01*
X101635000Y-164338967D01*
X101572168Y-164023088D01*
X101448918Y-163725537D01*
X101269987Y-163457748D01*
X101042252Y-163230013D01*
X100774463Y-163051082D01*
X100476912Y-162927832D01*
X100161033Y-162865000D01*
X99838967Y-162865000D01*
X99523088Y-162927832D01*
X99225537Y-163051082D01*
X98957748Y-163230013D01*
X98730013Y-163457748D01*
X98551082Y-163725537D01*
X98427832Y-164023088D01*
X98365000Y-164338967D01*
X83660000Y-164338967D01*
X83660000Y-159838967D01*
X98365000Y-159838967D01*
X98365000Y-160161033D01*
X98427832Y-160476912D01*
X98551082Y-160774463D01*
X98730013Y-161042252D01*
X98957748Y-161269987D01*
X99225537Y-161448918D01*
X99523088Y-161572168D01*
X99838967Y-161635000D01*
X100161033Y-161635000D01*
X100476912Y-161572168D01*
X100774463Y-161448918D01*
X101042252Y-161269987D01*
X101269987Y-161042252D01*
X101408468Y-160835000D01*
X105091532Y-160835000D01*
X105230013Y-161042252D01*
X105457748Y-161269987D01*
X105725537Y-161448918D01*
X106023088Y-161572168D01*
X106338967Y-161635000D01*
X106661033Y-161635000D01*
X106976912Y-161572168D01*
X107274463Y-161448918D01*
X107542252Y-161269987D01*
X107769987Y-161042252D01*
X107908468Y-160835000D01*
X118591532Y-160835000D01*
X118730013Y-161042252D01*
X118957748Y-161269987D01*
X119225537Y-161448918D01*
X119523088Y-161572168D01*
X119838967Y-161635000D01*
X120161033Y-161635000D01*
X120476912Y-161572168D01*
X120774463Y-161448918D01*
X121042252Y-161269987D01*
X121269987Y-161042252D01*
X121408468Y-160835000D01*
X125091532Y-160835000D01*
X125230013Y-161042252D01*
X125457748Y-161269987D01*
X125725537Y-161448918D01*
X126023088Y-161572168D01*
X126338967Y-161635000D01*
X126661033Y-161635000D01*
X126976912Y-161572168D01*
X127274463Y-161448918D01*
X127542252Y-161269987D01*
X127769987Y-161042252D01*
X127908468Y-160835000D01*
X138591532Y-160835000D01*
X138730013Y-161042252D01*
X138957748Y-161269987D01*
X139225537Y-161448918D01*
X139523088Y-161572168D01*
X139838967Y-161635000D01*
X140161033Y-161635000D01*
X140476912Y-161572168D01*
X140774463Y-161448918D01*
X141042252Y-161269987D01*
X141269987Y-161042252D01*
X141408468Y-160835000D01*
X145091532Y-160835000D01*
X145230013Y-161042252D01*
X145457748Y-161269987D01*
X145725537Y-161448918D01*
X146023088Y-161572168D01*
X146338967Y-161635000D01*
X146661033Y-161635000D01*
X146976912Y-161572168D01*
X147274463Y-161448918D01*
X147542252Y-161269987D01*
X147769987Y-161042252D01*
X147948918Y-160774463D01*
X148072168Y-160476912D01*
X148135000Y-160161033D01*
X148135000Y-159838967D01*
X148072168Y-159523088D01*
X147948918Y-159225537D01*
X147769987Y-158957748D01*
X147542252Y-158730013D01*
X147274463Y-158551082D01*
X146976912Y-158427832D01*
X146661033Y-158365000D01*
X146338967Y-158365000D01*
X146023088Y-158427832D01*
X145725537Y-158551082D01*
X145457748Y-158730013D01*
X145230013Y-158957748D01*
X145091532Y-159165000D01*
X141408468Y-159165000D01*
X141269987Y-158957748D01*
X141042252Y-158730013D01*
X140774463Y-158551082D01*
X140476912Y-158427832D01*
X140161033Y-158365000D01*
X139838967Y-158365000D01*
X139523088Y-158427832D01*
X139225537Y-158551082D01*
X138957748Y-158730013D01*
X138730013Y-158957748D01*
X138591532Y-159165000D01*
X127908468Y-159165000D01*
X127769987Y-158957748D01*
X127542252Y-158730013D01*
X127274463Y-158551082D01*
X126976912Y-158427832D01*
X126661033Y-158365000D01*
X126338967Y-158365000D01*
X126023088Y-158427832D01*
X125725537Y-158551082D01*
X125457748Y-158730013D01*
X125230013Y-158957748D01*
X125091532Y-159165000D01*
X121408468Y-159165000D01*
X121269987Y-158957748D01*
X121042252Y-158730013D01*
X120774463Y-158551082D01*
X120476912Y-158427832D01*
X120161033Y-158365000D01*
X119838967Y-158365000D01*
X119523088Y-158427832D01*
X119225537Y-158551082D01*
X118957748Y-158730013D01*
X118730013Y-158957748D01*
X118591532Y-159165000D01*
X107908468Y-159165000D01*
X107769987Y-158957748D01*
X107542252Y-158730013D01*
X107274463Y-158551082D01*
X106976912Y-158427832D01*
X106661033Y-158365000D01*
X106338967Y-158365000D01*
X106023088Y-158427832D01*
X105725537Y-158551082D01*
X105457748Y-158730013D01*
X105230013Y-158957748D01*
X105091532Y-159165000D01*
X101408468Y-159165000D01*
X101269987Y-158957748D01*
X101042252Y-158730013D01*
X100774463Y-158551082D01*
X100476912Y-158427832D01*
X100161033Y-158365000D01*
X99838967Y-158365000D01*
X99523088Y-158427832D01*
X99225537Y-158551082D01*
X98957748Y-158730013D01*
X98730013Y-158957748D01*
X98551082Y-159225537D01*
X98427832Y-159523088D01*
X98365000Y-159838967D01*
X83660000Y-159838967D01*
X83660000Y-144338967D01*
X98365000Y-144338967D01*
X98365000Y-144661033D01*
X98427832Y-144976912D01*
X98551082Y-145274463D01*
X98730013Y-145542252D01*
X98957748Y-145769987D01*
X99225537Y-145948918D01*
X99523088Y-146072168D01*
X99838967Y-146135000D01*
X100161033Y-146135000D01*
X100476912Y-146072168D01*
X100774463Y-145948918D01*
X101042252Y-145769987D01*
X101269987Y-145542252D01*
X101448918Y-145274463D01*
X101572168Y-144976912D01*
X101635000Y-144661033D01*
X101635000Y-144338967D01*
X104865000Y-144338967D01*
X104865000Y-144661033D01*
X104927832Y-144976912D01*
X105051082Y-145274463D01*
X105230013Y-145542252D01*
X105457748Y-145769987D01*
X105725537Y-145948918D01*
X106023088Y-146072168D01*
X106338967Y-146135000D01*
X106661033Y-146135000D01*
X106976912Y-146072168D01*
X107274463Y-145948918D01*
X107542252Y-145769987D01*
X107769987Y-145542252D01*
X107948918Y-145274463D01*
X108072168Y-144976912D01*
X108135000Y-144661033D01*
X108135000Y-144338967D01*
X118365000Y-144338967D01*
X118365000Y-144661033D01*
X118427832Y-144976912D01*
X118551082Y-145274463D01*
X118730013Y-145542252D01*
X118957748Y-145769987D01*
X119225537Y-145948918D01*
X119523088Y-146072168D01*
X119838967Y-146135000D01*
X120161033Y-146135000D01*
X120476912Y-146072168D01*
X120774463Y-145948918D01*
X121042252Y-145769987D01*
X121269987Y-145542252D01*
X121448918Y-145274463D01*
X121572168Y-144976912D01*
X121635000Y-144661033D01*
X121635000Y-144338967D01*
X124865000Y-144338967D01*
X124865000Y-144661033D01*
X124927832Y-144976912D01*
X125051082Y-145274463D01*
X125230013Y-145542252D01*
X125457748Y-145769987D01*
X125725537Y-145948918D01*
X126023088Y-146072168D01*
X126338967Y-146135000D01*
X126661033Y-146135000D01*
X126976912Y-146072168D01*
X127274463Y-145948918D01*
X127542252Y-145769987D01*
X127769987Y-145542252D01*
X127948918Y-145274463D01*
X128072168Y-144976912D01*
X128135000Y-144661033D01*
X128135000Y-144338967D01*
X138365000Y-144338967D01*
X138365000Y-144661033D01*
X138427832Y-144976912D01*
X138551082Y-145274463D01*
X138730013Y-145542252D01*
X138957748Y-145769987D01*
X139225537Y-145948918D01*
X139523088Y-146072168D01*
X139838967Y-146135000D01*
X140161033Y-146135000D01*
X140476912Y-146072168D01*
X140774463Y-145948918D01*
X141042252Y-145769987D01*
X141269987Y-145542252D01*
X141448918Y-145274463D01*
X141572168Y-144976912D01*
X141635000Y-144661033D01*
X141635000Y-144338967D01*
X144865000Y-144338967D01*
X144865000Y-144661033D01*
X144927832Y-144976912D01*
X145051082Y-145274463D01*
X145230013Y-145542252D01*
X145457748Y-145769987D01*
X145725537Y-145948918D01*
X146023088Y-146072168D01*
X146338967Y-146135000D01*
X146661033Y-146135000D01*
X146976912Y-146072168D01*
X147274463Y-145948918D01*
X147542252Y-145769987D01*
X147769987Y-145542252D01*
X147948918Y-145274463D01*
X148072168Y-144976912D01*
X148135000Y-144661033D01*
X148135000Y-144338967D01*
X148072168Y-144023088D01*
X147948918Y-143725537D01*
X147769987Y-143457748D01*
X147542252Y-143230013D01*
X147274463Y-143051082D01*
X146976912Y-142927832D01*
X146661033Y-142865000D01*
X146338967Y-142865000D01*
X146023088Y-142927832D01*
X145725537Y-143051082D01*
X145457748Y-143230013D01*
X145230013Y-143457748D01*
X145051082Y-143725537D01*
X144927832Y-144023088D01*
X144865000Y-144338967D01*
X141635000Y-144338967D01*
X141572168Y-144023088D01*
X141448918Y-143725537D01*
X141269987Y-143457748D01*
X141042252Y-143230013D01*
X140774463Y-143051082D01*
X140476912Y-142927832D01*
X140161033Y-142865000D01*
X139838967Y-142865000D01*
X139523088Y-142927832D01*
X139225537Y-143051082D01*
X138957748Y-143230013D01*
X138730013Y-143457748D01*
X138551082Y-143725537D01*
X138427832Y-144023088D01*
X138365000Y-144338967D01*
X128135000Y-144338967D01*
X128072168Y-144023088D01*
X127948918Y-143725537D01*
X127769987Y-143457748D01*
X127542252Y-143230013D01*
X127274463Y-143051082D01*
X126976912Y-142927832D01*
X126661033Y-142865000D01*
X126338967Y-142865000D01*
X126023088Y-142927832D01*
X125725537Y-143051082D01*
X125457748Y-143230013D01*
X125230013Y-143457748D01*
X125051082Y-143725537D01*
X124927832Y-144023088D01*
X124865000Y-144338967D01*
X121635000Y-144338967D01*
X121572168Y-144023088D01*
X121448918Y-143725537D01*
X121269987Y-143457748D01*
X121042252Y-143230013D01*
X120774463Y-143051082D01*
X120476912Y-142927832D01*
X120161033Y-142865000D01*
X119838967Y-142865000D01*
X119523088Y-142927832D01*
X119225537Y-143051082D01*
X118957748Y-143230013D01*
X118730013Y-143457748D01*
X118551082Y-143725537D01*
X118427832Y-144023088D01*
X118365000Y-144338967D01*
X108135000Y-144338967D01*
X108072168Y-144023088D01*
X107948918Y-143725537D01*
X107769987Y-143457748D01*
X107542252Y-143230013D01*
X107274463Y-143051082D01*
X106976912Y-142927832D01*
X106661033Y-142865000D01*
X106338967Y-142865000D01*
X106023088Y-142927832D01*
X105725537Y-143051082D01*
X105457748Y-143230013D01*
X105230013Y-143457748D01*
X105051082Y-143725537D01*
X104927832Y-144023088D01*
X104865000Y-144338967D01*
X101635000Y-144338967D01*
X101572168Y-144023088D01*
X101448918Y-143725537D01*
X101269987Y-143457748D01*
X101042252Y-143230013D01*
X100774463Y-143051082D01*
X100476912Y-142927832D01*
X100161033Y-142865000D01*
X99838967Y-142865000D01*
X99523088Y-142927832D01*
X99225537Y-143051082D01*
X98957748Y-143230013D01*
X98730013Y-143457748D01*
X98551082Y-143725537D01*
X98427832Y-144023088D01*
X98365000Y-144338967D01*
X83660000Y-144338967D01*
X83660000Y-139838967D01*
X98365000Y-139838967D01*
X98365000Y-140161033D01*
X98427832Y-140476912D01*
X98551082Y-140774463D01*
X98730013Y-141042252D01*
X98957748Y-141269987D01*
X99225537Y-141448918D01*
X99523088Y-141572168D01*
X99838967Y-141635000D01*
X100161033Y-141635000D01*
X100476912Y-141572168D01*
X100774463Y-141448918D01*
X101042252Y-141269987D01*
X101269987Y-141042252D01*
X101408468Y-140835000D01*
X105091532Y-140835000D01*
X105230013Y-141042252D01*
X105457748Y-141269987D01*
X105725537Y-141448918D01*
X106023088Y-141572168D01*
X106338967Y-141635000D01*
X106661033Y-141635000D01*
X106976912Y-141572168D01*
X107274463Y-141448918D01*
X107542252Y-141269987D01*
X107769987Y-141042252D01*
X107908468Y-140835000D01*
X118591532Y-140835000D01*
X118730013Y-141042252D01*
X118957748Y-141269987D01*
X119225537Y-141448918D01*
X119523088Y-141572168D01*
X119838967Y-141635000D01*
X120161033Y-141635000D01*
X120476912Y-141572168D01*
X120774463Y-141448918D01*
X121042252Y-141269987D01*
X121269987Y-141042252D01*
X121408468Y-140835000D01*
X125091532Y-140835000D01*
X125230013Y-141042252D01*
X125457748Y-141269987D01*
X125725537Y-141448918D01*
X126023088Y-141572168D01*
X126338967Y-141635000D01*
X126661033Y-141635000D01*
X126976912Y-141572168D01*
X127274463Y-141448918D01*
X127542252Y-141269987D01*
X127769987Y-141042252D01*
X127908468Y-140835000D01*
X138591532Y-140835000D01*
X138730013Y-141042252D01*
X138957748Y-141269987D01*
X139225537Y-141448918D01*
X139523088Y-141572168D01*
X139838967Y-141635000D01*
X140161033Y-141635000D01*
X140476912Y-141572168D01*
X140774463Y-141448918D01*
X141042252Y-141269987D01*
X141269987Y-141042252D01*
X141408468Y-140835000D01*
X145091532Y-140835000D01*
X145230013Y-141042252D01*
X145457748Y-141269987D01*
X145725537Y-141448918D01*
X146023088Y-141572168D01*
X146338967Y-141635000D01*
X146661033Y-141635000D01*
X146976912Y-141572168D01*
X147274463Y-141448918D01*
X147542252Y-141269987D01*
X147769987Y-141042252D01*
X147948918Y-140774463D01*
X148072168Y-140476912D01*
X148135000Y-140161033D01*
X148135000Y-139838967D01*
X148072168Y-139523088D01*
X147948918Y-139225537D01*
X147769987Y-138957748D01*
X147542252Y-138730013D01*
X147274463Y-138551082D01*
X146976912Y-138427832D01*
X146661033Y-138365000D01*
X146338967Y-138365000D01*
X146023088Y-138427832D01*
X145725537Y-138551082D01*
X145457748Y-138730013D01*
X145230013Y-138957748D01*
X145091532Y-139165000D01*
X141408468Y-139165000D01*
X141269987Y-138957748D01*
X141042252Y-138730013D01*
X140774463Y-138551082D01*
X140476912Y-138427832D01*
X140161033Y-138365000D01*
X139838967Y-138365000D01*
X139523088Y-138427832D01*
X139225537Y-138551082D01*
X138957748Y-138730013D01*
X138730013Y-138957748D01*
X138591532Y-139165000D01*
X127908468Y-139165000D01*
X127769987Y-138957748D01*
X127542252Y-138730013D01*
X127274463Y-138551082D01*
X126976912Y-138427832D01*
X126661033Y-138365000D01*
X126338967Y-138365000D01*
X126023088Y-138427832D01*
X125725537Y-138551082D01*
X125457748Y-138730013D01*
X125230013Y-138957748D01*
X125091532Y-139165000D01*
X121408468Y-139165000D01*
X121269987Y-138957748D01*
X121042252Y-138730013D01*
X120774463Y-138551082D01*
X120476912Y-138427832D01*
X120161033Y-138365000D01*
X119838967Y-138365000D01*
X119523088Y-138427832D01*
X119225537Y-138551082D01*
X118957748Y-138730013D01*
X118730013Y-138957748D01*
X118591532Y-139165000D01*
X107908468Y-139165000D01*
X107769987Y-138957748D01*
X107542252Y-138730013D01*
X107274463Y-138551082D01*
X106976912Y-138427832D01*
X106661033Y-138365000D01*
X106338967Y-138365000D01*
X106023088Y-138427832D01*
X105725537Y-138551082D01*
X105457748Y-138730013D01*
X105230013Y-138957748D01*
X105091532Y-139165000D01*
X101408468Y-139165000D01*
X101269987Y-138957748D01*
X101042252Y-138730013D01*
X100774463Y-138551082D01*
X100476912Y-138427832D01*
X100161033Y-138365000D01*
X99838967Y-138365000D01*
X99523088Y-138427832D01*
X99225537Y-138551082D01*
X98957748Y-138730013D01*
X98730013Y-138957748D01*
X98551082Y-139225537D01*
X98427832Y-139523088D01*
X98365000Y-139838967D01*
X83660000Y-139838967D01*
X83660000Y-120360000D01*
X85511928Y-120360000D01*
X85511928Y-121560000D01*
X85528992Y-121733254D01*
X85579528Y-121899850D01*
X85661595Y-122053386D01*
X85772038Y-122187962D01*
X85906614Y-122298405D01*
X86033608Y-122366285D01*
X85846525Y-122553368D01*
X85684010Y-122796589D01*
X85572068Y-123066842D01*
X85515000Y-123353740D01*
X85515000Y-123646260D01*
X85572068Y-123933158D01*
X85684010Y-124203411D01*
X85846525Y-124446632D01*
X86053368Y-124653475D01*
X86227760Y-124770000D01*
X86053368Y-124886525D01*
X85846525Y-125093368D01*
X85684010Y-125336589D01*
X85572068Y-125606842D01*
X85515000Y-125893740D01*
X85515000Y-126186260D01*
X85572068Y-126473158D01*
X85684010Y-126743411D01*
X85846525Y-126986632D01*
X86053368Y-127193475D01*
X86296589Y-127355990D01*
X86566842Y-127467932D01*
X86853740Y-127525000D01*
X87146260Y-127525000D01*
X87433158Y-127467932D01*
X87703411Y-127355990D01*
X87946632Y-127193475D01*
X88071710Y-127068397D01*
X88691208Y-127068397D01*
X88768843Y-127317472D01*
X89032883Y-127443371D01*
X89316411Y-127515339D01*
X89608531Y-127530611D01*
X89898019Y-127488599D01*
X90173747Y-127390919D01*
X90311157Y-127317472D01*
X90388792Y-127068397D01*
X89540000Y-126219605D01*
X88691208Y-127068397D01*
X88071710Y-127068397D01*
X88153475Y-126986632D01*
X88269311Y-126813271D01*
X88511603Y-126888792D01*
X89360395Y-126040000D01*
X89719605Y-126040000D01*
X90568397Y-126888792D01*
X90817472Y-126811157D01*
X90943371Y-126547117D01*
X91015339Y-126263589D01*
X91030611Y-125971469D01*
X90988599Y-125681981D01*
X90890919Y-125406253D01*
X90817472Y-125268843D01*
X90568397Y-125191208D01*
X89719605Y-126040000D01*
X89360395Y-126040000D01*
X88511603Y-125191208D01*
X88269311Y-125266729D01*
X88153475Y-125093368D01*
X87946632Y-124886525D01*
X87772240Y-124770000D01*
X87946632Y-124653475D01*
X88153475Y-124446632D01*
X88270000Y-124272240D01*
X88386525Y-124446632D01*
X88593368Y-124653475D01*
X88766729Y-124769311D01*
X88691208Y-125011603D01*
X89540000Y-125860395D01*
X90388792Y-125011603D01*
X90313271Y-124769311D01*
X90486632Y-124653475D01*
X90693475Y-124446632D01*
X90768065Y-124335000D01*
X92458982Y-124335000D01*
X92500000Y-124339040D01*
X92541018Y-124335000D01*
X92541019Y-124335000D01*
X92663689Y-124322918D01*
X92821087Y-124275172D01*
X92966146Y-124197636D01*
X93093291Y-124093291D01*
X93119445Y-124061422D01*
X93845868Y-123335000D01*
X98852761Y-123335000D01*
X98730013Y-123457748D01*
X98551082Y-123725537D01*
X98427832Y-124023088D01*
X98365000Y-124338967D01*
X98365000Y-124661033D01*
X98427832Y-124976912D01*
X98551082Y-125274463D01*
X98730013Y-125542252D01*
X98957748Y-125769987D01*
X99225537Y-125948918D01*
X99523088Y-126072168D01*
X99838967Y-126135000D01*
X100161033Y-126135000D01*
X100476912Y-126072168D01*
X100774463Y-125948918D01*
X101042252Y-125769987D01*
X101269987Y-125542252D01*
X101448918Y-125274463D01*
X101572168Y-124976912D01*
X101635000Y-124661033D01*
X101635000Y-124338967D01*
X101572168Y-124023088D01*
X101448918Y-123725537D01*
X101269987Y-123457748D01*
X101147239Y-123335000D01*
X105352761Y-123335000D01*
X105230013Y-123457748D01*
X105051082Y-123725537D01*
X104927832Y-124023088D01*
X104865000Y-124338967D01*
X104865000Y-124661033D01*
X104927832Y-124976912D01*
X105051082Y-125274463D01*
X105230013Y-125542252D01*
X105457748Y-125769987D01*
X105725537Y-125948918D01*
X106023088Y-126072168D01*
X106338967Y-126135000D01*
X106661033Y-126135000D01*
X106976912Y-126072168D01*
X107274463Y-125948918D01*
X107542252Y-125769987D01*
X107769987Y-125542252D01*
X107948918Y-125274463D01*
X108072168Y-124976912D01*
X108135000Y-124661033D01*
X108135000Y-124338967D01*
X108072168Y-124023088D01*
X107948918Y-123725537D01*
X107769987Y-123457748D01*
X107647239Y-123335000D01*
X117654133Y-123335000D01*
X118413628Y-124094496D01*
X118365000Y-124338967D01*
X118365000Y-124661033D01*
X118427832Y-124976912D01*
X118551082Y-125274463D01*
X118730013Y-125542252D01*
X118957748Y-125769987D01*
X119225537Y-125948918D01*
X119523088Y-126072168D01*
X119838967Y-126135000D01*
X120161033Y-126135000D01*
X120476912Y-126072168D01*
X120774463Y-125948918D01*
X121042252Y-125769987D01*
X121269987Y-125542252D01*
X121448918Y-125274463D01*
X121572168Y-124976912D01*
X121635000Y-124661033D01*
X121635000Y-124338967D01*
X124865000Y-124338967D01*
X124865000Y-124661033D01*
X124927832Y-124976912D01*
X125051082Y-125274463D01*
X125230013Y-125542252D01*
X125457748Y-125769987D01*
X125725537Y-125948918D01*
X126023088Y-126072168D01*
X126338967Y-126135000D01*
X126661033Y-126135000D01*
X126976912Y-126072168D01*
X127274463Y-125948918D01*
X127542252Y-125769987D01*
X127769987Y-125542252D01*
X127948918Y-125274463D01*
X128072168Y-124976912D01*
X128135000Y-124661033D01*
X128135000Y-124338967D01*
X128072168Y-124023088D01*
X127948918Y-123725537D01*
X127769987Y-123457748D01*
X127542252Y-123230013D01*
X127274463Y-123051082D01*
X126976912Y-122927832D01*
X126661033Y-122865000D01*
X126338967Y-122865000D01*
X126023088Y-122927832D01*
X125725537Y-123051082D01*
X125457748Y-123230013D01*
X125230013Y-123457748D01*
X125051082Y-123725537D01*
X124927832Y-124023088D01*
X124865000Y-124338967D01*
X121635000Y-124338967D01*
X121572168Y-124023088D01*
X121448918Y-123725537D01*
X121269987Y-123457748D01*
X121042252Y-123230013D01*
X120774463Y-123051082D01*
X120476912Y-122927832D01*
X120161033Y-122865000D01*
X119838967Y-122865000D01*
X119594496Y-122913628D01*
X119265867Y-122585000D01*
X136904133Y-122585000D01*
X138413628Y-124094496D01*
X138365000Y-124338967D01*
X138365000Y-124661033D01*
X138427832Y-124976912D01*
X138551082Y-125274463D01*
X138730013Y-125542252D01*
X138957748Y-125769987D01*
X139225537Y-125948918D01*
X139523088Y-126072168D01*
X139838967Y-126135000D01*
X140161033Y-126135000D01*
X140476912Y-126072168D01*
X140774463Y-125948918D01*
X141042252Y-125769987D01*
X141269987Y-125542252D01*
X141448918Y-125274463D01*
X141572168Y-124976912D01*
X141635000Y-124661033D01*
X141635000Y-124338967D01*
X144865000Y-124338967D01*
X144865000Y-124661033D01*
X144927832Y-124976912D01*
X145051082Y-125274463D01*
X145230013Y-125542252D01*
X145457748Y-125769987D01*
X145725537Y-125948918D01*
X146023088Y-126072168D01*
X146338967Y-126135000D01*
X146661033Y-126135000D01*
X146976912Y-126072168D01*
X147274463Y-125948918D01*
X147542252Y-125769987D01*
X147769987Y-125542252D01*
X147948918Y-125274463D01*
X148072168Y-124976912D01*
X148135000Y-124661033D01*
X148135000Y-124338967D01*
X148072168Y-124023088D01*
X147948918Y-123725537D01*
X147769987Y-123457748D01*
X147542252Y-123230013D01*
X147274463Y-123051082D01*
X146976912Y-122927832D01*
X146661033Y-122865000D01*
X146338967Y-122865000D01*
X146023088Y-122927832D01*
X145725537Y-123051082D01*
X145457748Y-123230013D01*
X145230013Y-123457748D01*
X145051082Y-123725537D01*
X144927832Y-124023088D01*
X144865000Y-124338967D01*
X141635000Y-124338967D01*
X141572168Y-124023088D01*
X141448918Y-123725537D01*
X141269987Y-123457748D01*
X141042252Y-123230013D01*
X140774463Y-123051082D01*
X140476912Y-122927832D01*
X140161033Y-122865000D01*
X139838967Y-122865000D01*
X139594496Y-122913628D01*
X137869446Y-121188579D01*
X137843291Y-121156709D01*
X137716146Y-121052364D01*
X137571087Y-120974828D01*
X137413689Y-120927082D01*
X137291019Y-120915000D01*
X137291018Y-120915000D01*
X137250000Y-120910960D01*
X137208982Y-120915000D01*
X127855014Y-120915000D01*
X127908468Y-120835000D01*
X138591532Y-120835000D01*
X138730013Y-121042252D01*
X138957748Y-121269987D01*
X139225537Y-121448918D01*
X139523088Y-121572168D01*
X139838967Y-121635000D01*
X140161033Y-121635000D01*
X140476912Y-121572168D01*
X140774463Y-121448918D01*
X141042252Y-121269987D01*
X141269987Y-121042252D01*
X141408468Y-120835000D01*
X145091532Y-120835000D01*
X145230013Y-121042252D01*
X145457748Y-121269987D01*
X145725537Y-121448918D01*
X146023088Y-121572168D01*
X146338967Y-121635000D01*
X146661033Y-121635000D01*
X146976912Y-121572168D01*
X147274463Y-121448918D01*
X147542252Y-121269987D01*
X147769987Y-121042252D01*
X147948918Y-120774463D01*
X148072168Y-120476912D01*
X148135000Y-120161033D01*
X148135000Y-119838967D01*
X148072168Y-119523088D01*
X147948918Y-119225537D01*
X147769987Y-118957748D01*
X147542252Y-118730013D01*
X147274463Y-118551082D01*
X146976912Y-118427832D01*
X146661033Y-118365000D01*
X146338967Y-118365000D01*
X146023088Y-118427832D01*
X145725537Y-118551082D01*
X145457748Y-118730013D01*
X145230013Y-118957748D01*
X145091532Y-119165000D01*
X141408468Y-119165000D01*
X141269987Y-118957748D01*
X141042252Y-118730013D01*
X140774463Y-118551082D01*
X140476912Y-118427832D01*
X140161033Y-118365000D01*
X139838967Y-118365000D01*
X139523088Y-118427832D01*
X139225537Y-118551082D01*
X138957748Y-118730013D01*
X138730013Y-118957748D01*
X138591532Y-119165000D01*
X127908468Y-119165000D01*
X127769987Y-118957748D01*
X127542252Y-118730013D01*
X127274463Y-118551082D01*
X126976912Y-118427832D01*
X126661033Y-118365000D01*
X126338967Y-118365000D01*
X126023088Y-118427832D01*
X125725537Y-118551082D01*
X125457748Y-118730013D01*
X125230013Y-118957748D01*
X125091532Y-119165000D01*
X121408468Y-119165000D01*
X121269987Y-118957748D01*
X121042252Y-118730013D01*
X120774463Y-118551082D01*
X120476912Y-118427832D01*
X120161033Y-118365000D01*
X119838967Y-118365000D01*
X119523088Y-118427832D01*
X119225537Y-118551082D01*
X118957748Y-118730013D01*
X118730013Y-118957748D01*
X118591532Y-119165000D01*
X107908468Y-119165000D01*
X107769987Y-118957748D01*
X107542252Y-118730013D01*
X107274463Y-118551082D01*
X106976912Y-118427832D01*
X106661033Y-118365000D01*
X106338967Y-118365000D01*
X106023088Y-118427832D01*
X105725537Y-118551082D01*
X105457748Y-118730013D01*
X105230013Y-118957748D01*
X105091532Y-119165000D01*
X101408468Y-119165000D01*
X101269987Y-118957748D01*
X101042252Y-118730013D01*
X100774463Y-118551082D01*
X100476912Y-118427832D01*
X100161033Y-118365000D01*
X99838967Y-118365000D01*
X99523088Y-118427832D01*
X99225537Y-118551082D01*
X98957748Y-118730013D01*
X98730013Y-118957748D01*
X98551082Y-119225537D01*
X98427832Y-119523088D01*
X98365000Y-119838967D01*
X98365000Y-120161033D01*
X98427832Y-120476912D01*
X98551082Y-120774463D01*
X98644986Y-120915000D01*
X94345868Y-120915000D01*
X91369446Y-117938579D01*
X91343291Y-117906709D01*
X91216146Y-117802364D01*
X91071087Y-117724828D01*
X90913689Y-117677082D01*
X90791019Y-117665000D01*
X90791018Y-117665000D01*
X90750000Y-117660960D01*
X90708982Y-117665000D01*
X87791018Y-117665000D01*
X87749999Y-117660960D01*
X87708981Y-117665000D01*
X87586311Y-117677082D01*
X87428913Y-117724828D01*
X87283854Y-117802364D01*
X87156709Y-117906709D01*
X87130558Y-117938574D01*
X86438574Y-118630559D01*
X86406710Y-118656709D01*
X86380562Y-118688571D01*
X86302364Y-118783855D01*
X86224828Y-118928914D01*
X86177082Y-119086312D01*
X86160960Y-119250000D01*
X86165001Y-119291028D01*
X86165001Y-119507722D01*
X86060150Y-119539528D01*
X85906614Y-119621595D01*
X85772038Y-119732038D01*
X85661595Y-119866614D01*
X85579528Y-120020150D01*
X85528992Y-120186746D01*
X85511928Y-120360000D01*
X83660000Y-120360000D01*
X83660000Y-114393137D01*
X89915000Y-114393137D01*
X89915000Y-114606863D01*
X89956696Y-114816483D01*
X90038485Y-115013940D01*
X90157225Y-115191647D01*
X90308353Y-115342775D01*
X90486060Y-115461515D01*
X90683517Y-115543304D01*
X90893137Y-115585000D01*
X91106863Y-115585000D01*
X91316483Y-115543304D01*
X91513940Y-115461515D01*
X91691647Y-115342775D01*
X91842775Y-115191647D01*
X91961515Y-115013940D01*
X92043304Y-114816483D01*
X92085000Y-114606863D01*
X92085000Y-114393137D01*
X92043304Y-114183517D01*
X91961515Y-113986060D01*
X91842775Y-113808353D01*
X91835000Y-113800578D01*
X91835000Y-111279872D01*
X158765000Y-111279872D01*
X158765000Y-111720128D01*
X158850890Y-112151925D01*
X159019369Y-112558669D01*
X159263962Y-112924729D01*
X159575271Y-113236038D01*
X159941331Y-113480631D01*
X160348075Y-113649110D01*
X160779872Y-113735000D01*
X161220128Y-113735000D01*
X161651925Y-113649110D01*
X162058669Y-113480631D01*
X162424729Y-113236038D01*
X162736038Y-112924729D01*
X162980631Y-112558669D01*
X163149110Y-112151925D01*
X163235000Y-111720128D01*
X163235000Y-111279872D01*
X163149110Y-110848075D01*
X162980631Y-110441331D01*
X162736038Y-110075271D01*
X162424729Y-109763962D01*
X162058669Y-109519369D01*
X161651925Y-109350890D01*
X161220128Y-109265000D01*
X160779872Y-109265000D01*
X160348075Y-109350890D01*
X159941331Y-109519369D01*
X159575271Y-109763962D01*
X159263962Y-110075271D01*
X159019369Y-110441331D01*
X158850890Y-110848075D01*
X158765000Y-111279872D01*
X91835000Y-111279872D01*
X91835000Y-104830408D01*
X92023000Y-104830408D01*
X92023000Y-105105592D01*
X92076686Y-105375490D01*
X92181995Y-105629727D01*
X92334880Y-105858535D01*
X92529465Y-106053120D01*
X92758273Y-106206005D01*
X93012510Y-106311314D01*
X93282408Y-106365000D01*
X93557592Y-106365000D01*
X93623102Y-106351969D01*
X95462582Y-108191450D01*
X95488732Y-108223314D01*
X95615876Y-108327658D01*
X95615877Y-108327659D01*
X95760936Y-108405195D01*
X95918334Y-108452941D01*
X96082022Y-108469063D01*
X96123041Y-108465023D01*
X106089005Y-108465023D01*
X106130023Y-108469063D01*
X106171041Y-108465023D01*
X106171042Y-108465023D01*
X106293712Y-108452941D01*
X106451110Y-108405195D01*
X106596169Y-108327659D01*
X106723314Y-108223314D01*
X106749469Y-108191444D01*
X109605914Y-105335000D01*
X118068632Y-105335000D01*
X118076686Y-105375490D01*
X118181995Y-105629727D01*
X118334880Y-105858535D01*
X118529465Y-106053120D01*
X118758273Y-106206005D01*
X119012510Y-106311314D01*
X119282408Y-106365000D01*
X119557592Y-106365000D01*
X119623102Y-106351969D01*
X121462585Y-108191454D01*
X121488731Y-108223313D01*
X121615876Y-108327658D01*
X121760935Y-108405194D01*
X121918333Y-108452940D01*
X122041003Y-108465022D01*
X122041004Y-108465022D01*
X122082022Y-108469062D01*
X122123040Y-108465022D01*
X132828960Y-108465022D01*
X132869978Y-108469062D01*
X132910996Y-108465022D01*
X132910997Y-108465022D01*
X133033667Y-108452940D01*
X133191065Y-108405194D01*
X133336124Y-108327658D01*
X133463269Y-108223313D01*
X133489424Y-108191443D01*
X136797868Y-104883000D01*
X144023000Y-104883000D01*
X144023000Y-105105592D01*
X144076686Y-105375490D01*
X144181995Y-105629727D01*
X144334880Y-105858535D01*
X144529465Y-106053120D01*
X144758273Y-106206005D01*
X145012510Y-106311314D01*
X145282408Y-106365000D01*
X145557592Y-106365000D01*
X145827490Y-106311314D01*
X146081727Y-106206005D01*
X146310535Y-106053120D01*
X146505120Y-105858535D01*
X146658005Y-105629727D01*
X146690000Y-105552485D01*
X146721995Y-105629727D01*
X146874880Y-105858535D01*
X147069465Y-106053120D01*
X147298273Y-106206005D01*
X147552510Y-106311314D01*
X147822408Y-106365000D01*
X148097592Y-106365000D01*
X148367490Y-106311314D01*
X148621727Y-106206005D01*
X148850535Y-106053120D01*
X149045120Y-105858535D01*
X149198005Y-105629727D01*
X149230000Y-105552485D01*
X149261995Y-105629727D01*
X149414880Y-105858535D01*
X149609465Y-106053120D01*
X149838273Y-106206005D01*
X150092510Y-106311314D01*
X150362408Y-106365000D01*
X150637592Y-106365000D01*
X150907490Y-106311314D01*
X151161727Y-106206005D01*
X151390535Y-106053120D01*
X151585120Y-105858535D01*
X151738005Y-105629727D01*
X151770000Y-105552485D01*
X151801995Y-105629727D01*
X151954880Y-105858535D01*
X152149465Y-106053120D01*
X152378273Y-106206005D01*
X152632510Y-106311314D01*
X152902408Y-106365000D01*
X153177592Y-106365000D01*
X153447490Y-106311314D01*
X153701727Y-106206005D01*
X153930535Y-106053120D01*
X154125120Y-105858535D01*
X154278005Y-105629727D01*
X154310000Y-105552485D01*
X154341995Y-105629727D01*
X154494880Y-105858535D01*
X154689465Y-106053120D01*
X154918273Y-106206005D01*
X155172510Y-106311314D01*
X155442408Y-106365000D01*
X155717592Y-106365000D01*
X155987490Y-106311314D01*
X156241727Y-106206005D01*
X156470535Y-106053120D01*
X156665120Y-105858535D01*
X156818005Y-105629727D01*
X156923314Y-105375490D01*
X156977000Y-105105592D01*
X156977000Y-104830408D01*
X156923314Y-104560510D01*
X156818005Y-104306273D01*
X156665120Y-104077465D01*
X156470535Y-103882880D01*
X156241727Y-103729995D01*
X155987490Y-103624686D01*
X155717592Y-103571000D01*
X155442408Y-103571000D01*
X155376899Y-103584031D01*
X153131414Y-101338547D01*
X153105259Y-101306677D01*
X152978114Y-101202332D01*
X152833055Y-101124796D01*
X152675657Y-101077050D01*
X152552987Y-101064968D01*
X152552986Y-101064968D01*
X152511968Y-101060928D01*
X152470950Y-101064968D01*
X135440975Y-101064968D01*
X135399967Y-101060929D01*
X135358959Y-101064968D01*
X135358949Y-101064968D01*
X135236279Y-101077050D01*
X135078881Y-101124796D01*
X134933822Y-101202332D01*
X134806677Y-101306677D01*
X134780527Y-101338541D01*
X131986069Y-104133000D01*
X130702227Y-104133000D01*
X130665120Y-104077465D01*
X130470535Y-103882880D01*
X130241727Y-103729995D01*
X129987490Y-103624686D01*
X129717592Y-103571000D01*
X129442408Y-103571000D01*
X129376898Y-103584031D01*
X127537423Y-101744556D01*
X127511268Y-101712686D01*
X127384123Y-101608341D01*
X127239064Y-101530805D01*
X127081666Y-101483059D01*
X126958996Y-101470977D01*
X126958995Y-101470977D01*
X126917977Y-101466937D01*
X126876959Y-101470977D01*
X108346995Y-101470977D01*
X108305976Y-101466937D01*
X108264958Y-101470977D01*
X108142288Y-101483059D01*
X107984890Y-101530805D01*
X107839831Y-101608341D01*
X107712686Y-101712686D01*
X107686536Y-101744550D01*
X105298087Y-104133000D01*
X104702227Y-104133000D01*
X104665120Y-104077465D01*
X104470535Y-103882880D01*
X104241727Y-103729995D01*
X103987490Y-103624686D01*
X103717592Y-103571000D01*
X103442408Y-103571000D01*
X103172510Y-103624686D01*
X102918273Y-103729995D01*
X102689465Y-103882880D01*
X102494880Y-104077465D01*
X102341995Y-104306273D01*
X102310000Y-104383515D01*
X102278005Y-104306273D01*
X102125120Y-104077465D01*
X101930535Y-103882880D01*
X101701727Y-103729995D01*
X101447490Y-103624686D01*
X101177592Y-103571000D01*
X100902408Y-103571000D01*
X100632510Y-103624686D01*
X100378273Y-103729995D01*
X100149465Y-103882880D01*
X99954880Y-104077465D01*
X99801995Y-104306273D01*
X99770000Y-104383515D01*
X99738005Y-104306273D01*
X99585120Y-104077465D01*
X99390535Y-103882880D01*
X99161727Y-103729995D01*
X98907490Y-103624686D01*
X98637592Y-103571000D01*
X98362408Y-103571000D01*
X98092510Y-103624686D01*
X97838273Y-103729995D01*
X97609465Y-103882880D01*
X97414880Y-104077465D01*
X97261995Y-104306273D01*
X97230000Y-104383515D01*
X97198005Y-104306273D01*
X97045120Y-104077465D01*
X96850535Y-103882880D01*
X96621727Y-103729995D01*
X96367490Y-103624686D01*
X96097592Y-103571000D01*
X95822408Y-103571000D01*
X95552510Y-103624686D01*
X95298273Y-103729995D01*
X95069465Y-103882880D01*
X94874880Y-104077465D01*
X94721995Y-104306273D01*
X94690000Y-104383515D01*
X94658005Y-104306273D01*
X94505120Y-104077465D01*
X94310535Y-103882880D01*
X94081727Y-103729995D01*
X93827490Y-103624686D01*
X93557592Y-103571000D01*
X93282408Y-103571000D01*
X93012510Y-103624686D01*
X92758273Y-103729995D01*
X92529465Y-103882880D01*
X92334880Y-104077465D01*
X92181995Y-104306273D01*
X92076686Y-104560510D01*
X92023000Y-104830408D01*
X91835000Y-104830408D01*
X91835000Y-102345867D01*
X93345868Y-100835000D01*
X106300578Y-100835000D01*
X106308353Y-100842775D01*
X106486060Y-100961515D01*
X106683517Y-101043304D01*
X106893137Y-101085000D01*
X107106863Y-101085000D01*
X107316483Y-101043304D01*
X107513940Y-100961515D01*
X107691647Y-100842775D01*
X107842775Y-100691647D01*
X107961515Y-100513940D01*
X108043304Y-100316483D01*
X108085000Y-100106863D01*
X108085000Y-99893137D01*
X108043304Y-99683517D01*
X107961515Y-99486060D01*
X107842775Y-99308353D01*
X107691647Y-99157225D01*
X107513940Y-99038485D01*
X107316483Y-98956696D01*
X107106863Y-98915000D01*
X106893137Y-98915000D01*
X106683517Y-98956696D01*
X106486060Y-99038485D01*
X106308353Y-99157225D01*
X106300578Y-99165000D01*
X93041018Y-99165000D01*
X92999999Y-99160960D01*
X92958981Y-99165000D01*
X92836311Y-99177082D01*
X92678913Y-99224828D01*
X92533854Y-99302364D01*
X92406709Y-99406709D01*
X92380559Y-99438573D01*
X90438579Y-101380554D01*
X90406709Y-101406709D01*
X90344051Y-101483059D01*
X90302364Y-101533855D01*
X90224828Y-101678914D01*
X90177082Y-101836312D01*
X90160960Y-102000000D01*
X90165000Y-102041019D01*
X90165001Y-113800577D01*
X90157225Y-113808353D01*
X90038485Y-113986060D01*
X89956696Y-114183517D01*
X89915000Y-114393137D01*
X83660000Y-114393137D01*
X83660000Y-110779872D01*
X83765000Y-110779872D01*
X83765000Y-111220128D01*
X83850890Y-111651925D01*
X84019369Y-112058669D01*
X84263962Y-112424729D01*
X84575271Y-112736038D01*
X84941331Y-112980631D01*
X85348075Y-113149110D01*
X85779872Y-113235000D01*
X86220128Y-113235000D01*
X86651925Y-113149110D01*
X87058669Y-112980631D01*
X87424729Y-112736038D01*
X87736038Y-112424729D01*
X87980631Y-112058669D01*
X88149110Y-111651925D01*
X88235000Y-111220128D01*
X88235000Y-110779872D01*
X88149110Y-110348075D01*
X87980631Y-109941331D01*
X87736038Y-109575271D01*
X87424729Y-109263962D01*
X87058669Y-109019369D01*
X86651925Y-108850890D01*
X86220128Y-108765000D01*
X85779872Y-108765000D01*
X85348075Y-108850890D01*
X84941331Y-109019369D01*
X84575271Y-109263962D01*
X84263962Y-109575271D01*
X84019369Y-109941331D01*
X83850890Y-110348075D01*
X83765000Y-110779872D01*
X83660000Y-110779872D01*
X83660000Y-98973604D01*
X88630693Y-98973604D01*
X88630693Y-99157782D01*
X88666625Y-99338422D01*
X88737107Y-99508582D01*
X88839431Y-99661721D01*
X88969665Y-99791955D01*
X89122804Y-99894279D01*
X89292964Y-99964761D01*
X89473604Y-100000693D01*
X89657782Y-100000693D01*
X89838422Y-99964761D01*
X90008582Y-99894279D01*
X90161721Y-99791955D01*
X90291955Y-99661721D01*
X90394279Y-99508582D01*
X90458347Y-99353906D01*
X90977254Y-98835000D01*
X105572596Y-98835000D01*
X105727271Y-98899068D01*
X105907911Y-98935000D01*
X106092089Y-98935000D01*
X106272729Y-98899068D01*
X106442889Y-98828586D01*
X106596028Y-98726262D01*
X106726262Y-98596028D01*
X106828586Y-98442889D01*
X106899068Y-98272729D01*
X106935000Y-98092089D01*
X106935000Y-97907911D01*
X106899068Y-97727271D01*
X106828586Y-97557111D01*
X106726262Y-97403972D01*
X106596028Y-97273738D01*
X106442889Y-97171414D01*
X106272729Y-97100932D01*
X106092089Y-97065000D01*
X105907911Y-97065000D01*
X105727271Y-97100932D01*
X105572596Y-97165000D01*
X90672393Y-97165000D01*
X90631385Y-97160961D01*
X90590377Y-97165000D01*
X90590367Y-97165000D01*
X90467697Y-97177082D01*
X90310299Y-97224828D01*
X90165240Y-97302364D01*
X90038095Y-97406709D01*
X90011944Y-97438574D01*
X89277480Y-98173039D01*
X89122804Y-98237107D01*
X88969665Y-98339431D01*
X88839431Y-98469665D01*
X88737107Y-98622804D01*
X88666625Y-98792964D01*
X88630693Y-98973604D01*
X83660000Y-98973604D01*
X83660000Y-95407911D01*
X90065000Y-95407911D01*
X90065000Y-95592089D01*
X90100932Y-95772729D01*
X90171414Y-95942889D01*
X90273738Y-96096028D01*
X90403972Y-96226262D01*
X90557111Y-96328586D01*
X90711788Y-96392655D01*
X90755554Y-96436421D01*
X90781709Y-96468291D01*
X90908854Y-96572636D01*
X91053913Y-96650172D01*
X91211311Y-96697918D01*
X91374999Y-96714040D01*
X91416018Y-96710000D01*
X108583982Y-96710000D01*
X108625000Y-96714040D01*
X108666018Y-96710000D01*
X108666019Y-96710000D01*
X108788689Y-96697918D01*
X108946087Y-96650172D01*
X109091146Y-96572636D01*
X109218291Y-96468291D01*
X109244446Y-96436422D01*
X110288215Y-95392654D01*
X110442889Y-95328586D01*
X110596028Y-95226262D01*
X110726262Y-95096028D01*
X110828586Y-94942889D01*
X110899068Y-94772729D01*
X110935000Y-94592089D01*
X110935000Y-94407911D01*
X110899068Y-94227271D01*
X110828586Y-94057111D01*
X110726262Y-93903972D01*
X110596028Y-93773738D01*
X110442889Y-93671414D01*
X110272729Y-93600932D01*
X110092089Y-93565000D01*
X109907911Y-93565000D01*
X109727271Y-93600932D01*
X109557111Y-93671414D01*
X109403972Y-93773738D01*
X109273738Y-93903972D01*
X109171414Y-94057111D01*
X109107346Y-94211785D01*
X108279133Y-95040000D01*
X103140867Y-95040000D01*
X106561428Y-91619440D01*
X106593291Y-91593291D01*
X106697636Y-91466146D01*
X106775172Y-91321087D01*
X106822918Y-91163689D01*
X106835000Y-91041019D01*
X106835000Y-91041017D01*
X106839040Y-91000001D01*
X106835000Y-90958985D01*
X106835000Y-89927404D01*
X106899068Y-89772729D01*
X106935000Y-89592089D01*
X106935000Y-89407911D01*
X106899068Y-89227271D01*
X106835000Y-89072596D01*
X106835000Y-88845867D01*
X111561432Y-84119437D01*
X111593291Y-84093291D01*
X111697636Y-83966146D01*
X111775172Y-83821087D01*
X111822918Y-83663689D01*
X111835000Y-83541019D01*
X111839040Y-83500000D01*
X111835000Y-83458982D01*
X111835000Y-81927404D01*
X111899068Y-81772729D01*
X111935000Y-81592089D01*
X111935000Y-81535000D01*
X128965001Y-81535000D01*
X128965000Y-84949172D01*
X128959994Y-85000000D01*
X128965000Y-85050828D01*
X128965000Y-85050837D01*
X128979976Y-85202894D01*
X129039159Y-85397992D01*
X129135266Y-85577797D01*
X129264604Y-85735396D01*
X129304097Y-85767807D01*
X131030181Y-87493892D01*
X131038485Y-87513940D01*
X131157225Y-87691647D01*
X131308353Y-87842775D01*
X131486060Y-87961515D01*
X131683517Y-88043304D01*
X131893137Y-88085000D01*
X132106863Y-88085000D01*
X132316483Y-88043304D01*
X132513940Y-87961515D01*
X132691647Y-87842775D01*
X132842775Y-87691647D01*
X132961515Y-87513940D01*
X133043304Y-87316483D01*
X133085000Y-87106863D01*
X133085000Y-86893137D01*
X133043304Y-86683517D01*
X132961515Y-86486060D01*
X132909298Y-86407911D01*
X135065000Y-86407911D01*
X135065000Y-86592089D01*
X135100932Y-86772729D01*
X135171414Y-86942889D01*
X135273738Y-87096028D01*
X135403972Y-87226262D01*
X135557111Y-87328586D01*
X135727271Y-87399068D01*
X135907911Y-87435000D01*
X136092089Y-87435000D01*
X136223055Y-87408949D01*
X136591051Y-87776945D01*
X136565000Y-87907911D01*
X136565000Y-88092089D01*
X136600932Y-88272729D01*
X136671414Y-88442889D01*
X136773738Y-88596028D01*
X136903972Y-88726262D01*
X137057111Y-88828586D01*
X137227271Y-88899068D01*
X137407911Y-88935000D01*
X137592089Y-88935000D01*
X137772729Y-88899068D01*
X137942889Y-88828586D01*
X138096028Y-88726262D01*
X138226262Y-88596028D01*
X138328586Y-88442889D01*
X138399068Y-88272729D01*
X138435000Y-88092089D01*
X138435000Y-87907911D01*
X138399068Y-87727271D01*
X138328586Y-87557111D01*
X138279767Y-87484048D01*
X138273641Y-87421849D01*
X138271564Y-87415000D01*
X138245350Y-87328586D01*
X138228754Y-87273876D01*
X138155862Y-87137503D01*
X138106450Y-87077295D01*
X138082345Y-87047923D01*
X138082342Y-87047920D01*
X138057764Y-87017972D01*
X138027815Y-86993393D01*
X137006611Y-85972190D01*
X136982028Y-85942236D01*
X136862497Y-85844138D01*
X136726124Y-85771246D01*
X136578151Y-85726359D01*
X136515951Y-85720233D01*
X136442889Y-85671414D01*
X136272729Y-85600932D01*
X136092089Y-85565000D01*
X135907911Y-85565000D01*
X135727271Y-85600932D01*
X135557111Y-85671414D01*
X135403972Y-85773738D01*
X135273738Y-85903972D01*
X135171414Y-86057111D01*
X135100932Y-86227271D01*
X135065000Y-86407911D01*
X132909298Y-86407911D01*
X132842775Y-86308353D01*
X132691647Y-86157225D01*
X132513940Y-86038485D01*
X132493892Y-86030181D01*
X131121622Y-84657911D01*
X134315000Y-84657911D01*
X134315000Y-84842089D01*
X134350932Y-85022729D01*
X134421414Y-85192889D01*
X134523738Y-85346028D01*
X134653972Y-85476262D01*
X134807111Y-85578586D01*
X134977271Y-85649068D01*
X135157911Y-85685000D01*
X135342089Y-85685000D01*
X135522729Y-85649068D01*
X135692889Y-85578586D01*
X135846028Y-85476262D01*
X135976262Y-85346028D01*
X136078586Y-85192889D01*
X136149068Y-85022729D01*
X136164374Y-84945783D01*
X137195783Y-83914374D01*
X137272729Y-83899068D01*
X137442889Y-83828586D01*
X137596028Y-83726262D01*
X137726262Y-83596028D01*
X137828586Y-83442889D01*
X137899068Y-83272729D01*
X137935000Y-83092089D01*
X137935000Y-82907911D01*
X137899068Y-82727271D01*
X137828586Y-82557111D01*
X137726262Y-82403972D01*
X137596028Y-82273738D01*
X137442889Y-82171414D01*
X137272729Y-82100932D01*
X137092089Y-82065000D01*
X136907911Y-82065000D01*
X136727271Y-82100932D01*
X136557111Y-82171414D01*
X136403972Y-82273738D01*
X136273738Y-82403972D01*
X136171414Y-82557111D01*
X136100932Y-82727271D01*
X136085626Y-82804217D01*
X135054217Y-83835626D01*
X134977271Y-83850932D01*
X134807111Y-83921414D01*
X134653972Y-84023738D01*
X134523738Y-84153972D01*
X134421414Y-84307111D01*
X134350932Y-84477271D01*
X134315000Y-84657911D01*
X131121622Y-84657911D01*
X131035000Y-84571290D01*
X131035000Y-81535000D01*
X139663469Y-81535000D01*
X139683517Y-81543304D01*
X139893137Y-81585000D01*
X140106863Y-81585000D01*
X140316483Y-81543304D01*
X140336531Y-81535000D01*
X153050838Y-81535000D01*
X153202895Y-81520024D01*
X153397993Y-81460841D01*
X153577797Y-81364734D01*
X153735396Y-81235396D01*
X153864734Y-81077797D01*
X153960841Y-80897993D01*
X154020024Y-80702895D01*
X154040007Y-80500000D01*
X154020024Y-80297105D01*
X153960841Y-80102007D01*
X153864734Y-79922203D01*
X153735396Y-79764604D01*
X153577797Y-79635266D01*
X153397993Y-79539159D01*
X153202895Y-79479976D01*
X153050838Y-79465000D01*
X140336531Y-79465000D01*
X140316483Y-79456696D01*
X140106863Y-79415000D01*
X139893137Y-79415000D01*
X139683517Y-79456696D01*
X139663469Y-79465000D01*
X130050838Y-79465000D01*
X130000000Y-79459993D01*
X129949162Y-79465000D01*
X110336531Y-79465000D01*
X110316483Y-79456696D01*
X110106863Y-79415000D01*
X109893137Y-79415000D01*
X109683517Y-79456696D01*
X109663469Y-79465000D01*
X104535000Y-79465000D01*
X104535000Y-78836531D01*
X104543304Y-78816483D01*
X104585000Y-78606863D01*
X104585000Y-78393137D01*
X104543304Y-78183517D01*
X104461515Y-77986060D01*
X104342775Y-77808353D01*
X104191647Y-77657225D01*
X104013940Y-77538485D01*
X103816483Y-77456696D01*
X103606863Y-77415000D01*
X103393137Y-77415000D01*
X103183517Y-77456696D01*
X102986060Y-77538485D01*
X102808353Y-77657225D01*
X102657225Y-77808353D01*
X102538485Y-77986060D01*
X102456696Y-78183517D01*
X102415000Y-78393137D01*
X102415000Y-78606863D01*
X102456696Y-78816483D01*
X102465000Y-78836532D01*
X102465001Y-79449154D01*
X102465000Y-79449163D01*
X102465000Y-79465000D01*
X98449162Y-79465000D01*
X98297105Y-79479976D01*
X98102007Y-79539159D01*
X97922203Y-79635266D01*
X97764604Y-79764604D01*
X97635266Y-79922203D01*
X97539159Y-80102007D01*
X97479976Y-80297105D01*
X97459993Y-80500000D01*
X97479976Y-80702895D01*
X97539159Y-80897993D01*
X97635266Y-81077797D01*
X97764604Y-81235396D01*
X97922203Y-81364734D01*
X98102007Y-81460841D01*
X98297105Y-81520024D01*
X98449162Y-81535000D01*
X102465000Y-81535000D01*
X102465001Y-87949162D01*
X102459994Y-88000000D01*
X102479977Y-88202895D01*
X102539160Y-88397993D01*
X102635266Y-88577797D01*
X102712096Y-88671414D01*
X102764605Y-88735396D01*
X102804093Y-88767803D01*
X103030180Y-88993890D01*
X103038485Y-89013940D01*
X103157225Y-89191647D01*
X103308353Y-89342775D01*
X103486060Y-89461515D01*
X103683517Y-89543304D01*
X103893137Y-89585000D01*
X104106863Y-89585000D01*
X104316483Y-89543304D01*
X104513940Y-89461515D01*
X104691647Y-89342775D01*
X104842775Y-89191647D01*
X104961515Y-89013940D01*
X105043304Y-88816483D01*
X105085000Y-88606863D01*
X105085000Y-88393137D01*
X105043304Y-88183517D01*
X104961515Y-87986060D01*
X104842775Y-87808353D01*
X104691647Y-87657225D01*
X104535000Y-87552557D01*
X104535000Y-81535000D01*
X109663469Y-81535000D01*
X109683517Y-81543304D01*
X109893137Y-81585000D01*
X110065000Y-81585000D01*
X110065000Y-81592089D01*
X110100932Y-81772729D01*
X110165000Y-81927405D01*
X110165001Y-83154130D01*
X105438579Y-87880554D01*
X105406709Y-87906709D01*
X105313716Y-88020023D01*
X105302364Y-88033855D01*
X105224828Y-88178914D01*
X105177082Y-88336312D01*
X105160960Y-88500000D01*
X105165000Y-88541019D01*
X105165001Y-89072595D01*
X105100932Y-89227271D01*
X105065000Y-89407911D01*
X105065000Y-89592089D01*
X105100932Y-89772729D01*
X105165001Y-89927406D01*
X105165000Y-90654132D01*
X101654133Y-94165000D01*
X93427404Y-94165000D01*
X93272729Y-94100932D01*
X93092089Y-94065000D01*
X92907911Y-94065000D01*
X92727271Y-94100932D01*
X92557111Y-94171414D01*
X92403972Y-94273738D01*
X92273738Y-94403972D01*
X92171414Y-94557111D01*
X92100932Y-94727271D01*
X92065000Y-94907911D01*
X92065000Y-95040000D01*
X91817153Y-95040000D01*
X91726262Y-94903972D01*
X91596028Y-94773738D01*
X91442889Y-94671414D01*
X91272729Y-94600932D01*
X91092089Y-94565000D01*
X90907911Y-94565000D01*
X90727271Y-94600932D01*
X90557111Y-94671414D01*
X90403972Y-94773738D01*
X90273738Y-94903972D01*
X90171414Y-95057111D01*
X90100932Y-95227271D01*
X90065000Y-95407911D01*
X83660000Y-95407911D01*
X83660000Y-74350408D01*
X92023000Y-74350408D01*
X92023000Y-74625592D01*
X92076686Y-74895490D01*
X92181995Y-75149727D01*
X92334880Y-75378535D01*
X92529465Y-75573120D01*
X92758273Y-75726005D01*
X93012510Y-75831314D01*
X93282408Y-75885000D01*
X93557592Y-75885000D01*
X93827490Y-75831314D01*
X94081727Y-75726005D01*
X94310535Y-75573120D01*
X94505120Y-75378535D01*
X94658005Y-75149727D01*
X94690000Y-75072485D01*
X94721995Y-75149727D01*
X94874880Y-75378535D01*
X95069465Y-75573120D01*
X95298273Y-75726005D01*
X95552510Y-75831314D01*
X95822408Y-75885000D01*
X96097592Y-75885000D01*
X96367490Y-75831314D01*
X96621727Y-75726005D01*
X96850535Y-75573120D01*
X97045120Y-75378535D01*
X97198005Y-75149727D01*
X97230000Y-75072485D01*
X97261995Y-75149727D01*
X97414880Y-75378535D01*
X97609465Y-75573120D01*
X97838273Y-75726005D01*
X98092510Y-75831314D01*
X98362408Y-75885000D01*
X98637592Y-75885000D01*
X98907490Y-75831314D01*
X99161727Y-75726005D01*
X99390535Y-75573120D01*
X99585120Y-75378535D01*
X99738005Y-75149727D01*
X99770000Y-75072485D01*
X99801995Y-75149727D01*
X99954880Y-75378535D01*
X100149465Y-75573120D01*
X100378273Y-75726005D01*
X100632510Y-75831314D01*
X100902408Y-75885000D01*
X101177592Y-75885000D01*
X101447490Y-75831314D01*
X101701727Y-75726005D01*
X101930535Y-75573120D01*
X102125120Y-75378535D01*
X102278005Y-75149727D01*
X102310000Y-75072485D01*
X102341995Y-75149727D01*
X102494880Y-75378535D01*
X102689465Y-75573120D01*
X102918273Y-75726005D01*
X103172510Y-75831314D01*
X103442408Y-75885000D01*
X103717592Y-75885000D01*
X103987490Y-75831314D01*
X104241727Y-75726005D01*
X104470535Y-75573120D01*
X104665120Y-75378535D01*
X104702227Y-75323000D01*
X105142133Y-75323000D01*
X107530585Y-77711454D01*
X107556731Y-77743313D01*
X107588590Y-77769459D01*
X107588592Y-77769461D01*
X107683876Y-77847658D01*
X107828935Y-77925194D01*
X107986333Y-77972940D01*
X108109003Y-77985022D01*
X108109004Y-77985022D01*
X108150022Y-77989062D01*
X108191040Y-77985022D01*
X126876960Y-77985022D01*
X126917978Y-77989062D01*
X126958996Y-77985022D01*
X126958997Y-77985022D01*
X127081667Y-77972940D01*
X127239065Y-77925194D01*
X127384124Y-77847658D01*
X127511269Y-77743313D01*
X127537424Y-77711443D01*
X129376899Y-75871969D01*
X129442408Y-75885000D01*
X129717592Y-75885000D01*
X129987490Y-75831314D01*
X130241727Y-75726005D01*
X130470535Y-75573120D01*
X130665120Y-75378535D01*
X130702227Y-75323000D01*
X131142133Y-75323000D01*
X133980595Y-78161464D01*
X134006741Y-78193323D01*
X134038600Y-78219469D01*
X134038602Y-78219471D01*
X134133886Y-78297668D01*
X134278945Y-78375204D01*
X134436343Y-78422950D01*
X134600032Y-78439072D01*
X134641050Y-78435032D01*
X152426950Y-78435032D01*
X152467968Y-78439072D01*
X152508986Y-78435032D01*
X152508987Y-78435032D01*
X152631657Y-78422950D01*
X152789055Y-78375204D01*
X152934114Y-78297668D01*
X153061259Y-78193323D01*
X153087414Y-78161453D01*
X155376899Y-75871969D01*
X155442408Y-75885000D01*
X155717592Y-75885000D01*
X155987490Y-75831314D01*
X156241727Y-75726005D01*
X156470535Y-75573120D01*
X156665120Y-75378535D01*
X156818005Y-75149727D01*
X156923314Y-74895490D01*
X156977000Y-74625592D01*
X156977000Y-74350408D01*
X156923314Y-74080510D01*
X156818005Y-73826273D01*
X156665120Y-73597465D01*
X156470535Y-73402880D01*
X156241727Y-73249995D01*
X155987490Y-73144686D01*
X155717592Y-73091000D01*
X155442408Y-73091000D01*
X155172510Y-73144686D01*
X154918273Y-73249995D01*
X154689465Y-73402880D01*
X154494880Y-73597465D01*
X154341995Y-73826273D01*
X154310000Y-73903515D01*
X154278005Y-73826273D01*
X154125120Y-73597465D01*
X153930535Y-73402880D01*
X153701727Y-73249995D01*
X153447490Y-73144686D01*
X153177592Y-73091000D01*
X152902408Y-73091000D01*
X152632510Y-73144686D01*
X152378273Y-73249995D01*
X152149465Y-73402880D01*
X151954880Y-73597465D01*
X151801995Y-73826273D01*
X151770000Y-73903515D01*
X151738005Y-73826273D01*
X151585120Y-73597465D01*
X151390535Y-73402880D01*
X151161727Y-73249995D01*
X150907490Y-73144686D01*
X150637592Y-73091000D01*
X150362408Y-73091000D01*
X150092510Y-73144686D01*
X149838273Y-73249995D01*
X149609465Y-73402880D01*
X149414880Y-73597465D01*
X149261995Y-73826273D01*
X149230000Y-73903515D01*
X149198005Y-73826273D01*
X149045120Y-73597465D01*
X148850535Y-73402880D01*
X148621727Y-73249995D01*
X148367490Y-73144686D01*
X148097592Y-73091000D01*
X147822408Y-73091000D01*
X147552510Y-73144686D01*
X147298273Y-73249995D01*
X147069465Y-73402880D01*
X146874880Y-73597465D01*
X146721995Y-73826273D01*
X146690000Y-73903515D01*
X146658005Y-73826273D01*
X146505120Y-73597465D01*
X146310535Y-73402880D01*
X146081727Y-73249995D01*
X145827490Y-73144686D01*
X145557592Y-73091000D01*
X145282408Y-73091000D01*
X145012510Y-73144686D01*
X144758273Y-73249995D01*
X144529465Y-73402880D01*
X144334880Y-73597465D01*
X144297773Y-73653000D01*
X135333868Y-73653000D01*
X133165867Y-71485000D01*
X133436033Y-71485000D01*
X133751912Y-71422168D01*
X134049463Y-71298918D01*
X134317252Y-71119987D01*
X134544987Y-70892252D01*
X134723918Y-70624463D01*
X134847168Y-70326912D01*
X134910000Y-70011033D01*
X134910000Y-69750448D01*
X134990256Y-69717205D01*
X135159774Y-69603937D01*
X135303937Y-69459774D01*
X135417205Y-69290256D01*
X135495226Y-69101898D01*
X135535000Y-68901939D01*
X135535000Y-68698061D01*
X138465000Y-68698061D01*
X138465000Y-68901939D01*
X138504774Y-69101898D01*
X138582795Y-69290256D01*
X138696063Y-69459774D01*
X138840226Y-69603937D01*
X139009744Y-69717205D01*
X139090000Y-69750448D01*
X139090000Y-70011033D01*
X139152832Y-70326912D01*
X139276082Y-70624463D01*
X139455013Y-70892252D01*
X139682748Y-71119987D01*
X139950537Y-71298918D01*
X140248088Y-71422168D01*
X140563967Y-71485000D01*
X140886033Y-71485000D01*
X141201912Y-71422168D01*
X141499463Y-71298918D01*
X141767252Y-71119987D01*
X141994987Y-70892252D01*
X142173918Y-70624463D01*
X142297168Y-70326912D01*
X142360000Y-70011033D01*
X142360000Y-69688967D01*
X142297168Y-69373088D01*
X142173918Y-69075537D01*
X141994987Y-68807748D01*
X141767252Y-68580013D01*
X141499463Y-68401082D01*
X141201912Y-68277832D01*
X140886033Y-68215000D01*
X140563967Y-68215000D01*
X140378544Y-68251883D01*
X140303937Y-68140226D01*
X140159774Y-67996063D01*
X139990256Y-67882795D01*
X139801898Y-67804774D01*
X139601939Y-67765000D01*
X139398061Y-67765000D01*
X139198102Y-67804774D01*
X139009744Y-67882795D01*
X138840226Y-67996063D01*
X138696063Y-68140226D01*
X138582795Y-68309744D01*
X138504774Y-68498102D01*
X138465000Y-68698061D01*
X135535000Y-68698061D01*
X135495226Y-68498102D01*
X135417205Y-68309744D01*
X135303937Y-68140226D01*
X135159774Y-67996063D01*
X134990256Y-67882795D01*
X134801898Y-67804774D01*
X134601939Y-67765000D01*
X134398061Y-67765000D01*
X134198102Y-67804774D01*
X134009744Y-67882795D01*
X133840226Y-67996063D01*
X133696063Y-68140226D01*
X133621456Y-68251883D01*
X133436033Y-68215000D01*
X133113967Y-68215000D01*
X132798088Y-68277832D01*
X132500537Y-68401082D01*
X132232748Y-68580013D01*
X132005013Y-68807748D01*
X131826082Y-69075537D01*
X131702832Y-69373088D01*
X131640000Y-69688967D01*
X131640000Y-70011033D01*
X131702832Y-70326912D01*
X131826082Y-70624463D01*
X132005013Y-70892252D01*
X132103738Y-70990977D01*
X122123041Y-70990977D01*
X122082022Y-70986937D01*
X121918334Y-71003059D01*
X121760936Y-71050805D01*
X121615877Y-71128341D01*
X121488732Y-71232686D01*
X121462582Y-71264550D01*
X119623102Y-73104031D01*
X119557592Y-73091000D01*
X119282408Y-73091000D01*
X119012510Y-73144686D01*
X118758273Y-73249995D01*
X118529465Y-73402880D01*
X118334880Y-73597465D01*
X118297773Y-73653000D01*
X108833869Y-73653000D01*
X106445424Y-71264557D01*
X106419269Y-71232687D01*
X106292124Y-71128342D01*
X106147065Y-71050806D01*
X105989667Y-71003060D01*
X105866997Y-70990978D01*
X105866996Y-70990978D01*
X105825978Y-70986938D01*
X105784960Y-70990978D01*
X96123040Y-70990978D01*
X96082022Y-70986938D01*
X96041004Y-70990978D01*
X96041003Y-70990978D01*
X95918333Y-71003060D01*
X95760935Y-71050806D01*
X95615876Y-71128342D01*
X95488731Y-71232687D01*
X95462585Y-71264546D01*
X93623102Y-73104031D01*
X93557592Y-73091000D01*
X93282408Y-73091000D01*
X93012510Y-73144686D01*
X92758273Y-73249995D01*
X92529465Y-73402880D01*
X92334880Y-73597465D01*
X92181995Y-73826273D01*
X92076686Y-74080510D01*
X92023000Y-74350408D01*
X83660000Y-74350408D01*
X83660000Y-67532279D01*
X83684748Y-67279872D01*
X83765000Y-67279872D01*
X83765000Y-67720128D01*
X83850890Y-68151925D01*
X84019369Y-68558669D01*
X84263962Y-68924729D01*
X84575271Y-69236038D01*
X84941331Y-69480631D01*
X85348075Y-69649110D01*
X85779872Y-69735000D01*
X86220128Y-69735000D01*
X86651925Y-69649110D01*
X87058669Y-69480631D01*
X87424729Y-69236038D01*
X87736038Y-68924729D01*
X87980631Y-68558669D01*
X88149110Y-68151925D01*
X88235000Y-67720128D01*
X88235000Y-67279872D01*
X88149110Y-66848075D01*
X87980631Y-66441331D01*
X87736038Y-66075271D01*
X87424729Y-65763962D01*
X87058669Y-65519369D01*
X86651925Y-65350890D01*
X86220128Y-65265000D01*
X85779872Y-65265000D01*
X85348075Y-65350890D01*
X84941331Y-65519369D01*
X84575271Y-65763962D01*
X84263962Y-66075271D01*
X84019369Y-66441331D01*
X83850890Y-66848075D01*
X83765000Y-67279872D01*
X83684748Y-67279872D01*
X83707670Y-67046107D01*
X83839489Y-66609502D01*
X84053600Y-66206815D01*
X84341848Y-65853388D01*
X84693261Y-65562673D01*
X85094439Y-65345758D01*
X85530113Y-65210894D01*
X86014344Y-65160000D01*
X131873551Y-65160000D01*
X131764701Y-65322905D01*
%TA.AperFunction,Conductor*%
D20*
G36*
X131764701Y-65322905D02*
G01*
X131648989Y-65602257D01*
X131590000Y-65898816D01*
X131590000Y-66201184D01*
X131648989Y-66497743D01*
X131764701Y-66777095D01*
X131932688Y-67028505D01*
X132146495Y-67242312D01*
X132397905Y-67410299D01*
X132677257Y-67526011D01*
X132973816Y-67585000D01*
X133276184Y-67585000D01*
X133572743Y-67526011D01*
X133852095Y-67410299D01*
X134103505Y-67242312D01*
X134317312Y-67028505D01*
X134485299Y-66777095D01*
X134601011Y-66497743D01*
X134660000Y-66201184D01*
X134660000Y-65898816D01*
X134601011Y-65602257D01*
X134485299Y-65322905D01*
X134376449Y-65160000D01*
X139623551Y-65160000D01*
X139514701Y-65322905D01*
X139398989Y-65602257D01*
X139340000Y-65898816D01*
X139340000Y-66201184D01*
X139398989Y-66497743D01*
X139514701Y-66777095D01*
X139682688Y-67028505D01*
X139896495Y-67242312D01*
X140147905Y-67410299D01*
X140427257Y-67526011D01*
X140723816Y-67585000D01*
X141026184Y-67585000D01*
X141322743Y-67526011D01*
X141602095Y-67410299D01*
X141797292Y-67279872D01*
X158765000Y-67279872D01*
X158765000Y-67720128D01*
X158850890Y-68151925D01*
X159019369Y-68558669D01*
X159263962Y-68924729D01*
X159575271Y-69236038D01*
X159941331Y-69480631D01*
X160348075Y-69649110D01*
X160779872Y-69735000D01*
X161220128Y-69735000D01*
X161651925Y-69649110D01*
X162058669Y-69480631D01*
X162424729Y-69236038D01*
X162736038Y-68924729D01*
X162980631Y-68558669D01*
X163149110Y-68151925D01*
X163235000Y-67720128D01*
X163235000Y-67279872D01*
X163149110Y-66848075D01*
X162980631Y-66441331D01*
X162736038Y-66075271D01*
X162424729Y-65763962D01*
X162058669Y-65519369D01*
X161651925Y-65350890D01*
X161220128Y-65265000D01*
X160779872Y-65265000D01*
X160348075Y-65350890D01*
X159941331Y-65519369D01*
X159575271Y-65763962D01*
X159263962Y-66075271D01*
X159019369Y-66441331D01*
X158850890Y-66848075D01*
X158765000Y-67279872D01*
X141797292Y-67279872D01*
X141853505Y-67242312D01*
X142067312Y-67028505D01*
X142235299Y-66777095D01*
X142351011Y-66497743D01*
X142410000Y-66201184D01*
X142410000Y-65898816D01*
X142351011Y-65602257D01*
X142235299Y-65322905D01*
X142126449Y-65160000D01*
X160967721Y-65160000D01*
X161453893Y-65207670D01*
X161890498Y-65339489D01*
X162293185Y-65553600D01*
X162646612Y-65841848D01*
X162937327Y-66193261D01*
X163154242Y-66594439D01*
X163289106Y-67030113D01*
X163340001Y-67514353D01*
X163340000Y-189967721D01*
X163292330Y-190453894D01*
X163160512Y-190890497D01*
X162946399Y-191293186D01*
X162658150Y-191646613D01*
X162306739Y-191937327D01*
X161905564Y-192154240D01*
X161469886Y-192289106D01*
X160985664Y-192340000D01*
X86032279Y-192340000D01*
X85546106Y-192292330D01*
X85109503Y-192160512D01*
X84706814Y-191946399D01*
X84353387Y-191658150D01*
X84062673Y-191306739D01*
X83845760Y-190905564D01*
X83710894Y-190469886D01*
X83660000Y-189985664D01*
X83660000Y-189779872D01*
X83765000Y-189779872D01*
X83765000Y-190220128D01*
X83850890Y-190651925D01*
X84019369Y-191058669D01*
X84263962Y-191424729D01*
X84575271Y-191736038D01*
X84941331Y-191980631D01*
X85348075Y-192149110D01*
X85779872Y-192235000D01*
X86220128Y-192235000D01*
X86651925Y-192149110D01*
X87058669Y-191980631D01*
X87424729Y-191736038D01*
X87736038Y-191424729D01*
X87980631Y-191058669D01*
X88149110Y-190651925D01*
X88235000Y-190220128D01*
X88235000Y-189779872D01*
X158765000Y-189779872D01*
X158765000Y-190220128D01*
X158850890Y-190651925D01*
X159019369Y-191058669D01*
X159263962Y-191424729D01*
X159575271Y-191736038D01*
X159941331Y-191980631D01*
X160348075Y-192149110D01*
X160779872Y-192235000D01*
X161220128Y-192235000D01*
X161651925Y-192149110D01*
X162058669Y-191980631D01*
X162424729Y-191736038D01*
X162736038Y-191424729D01*
X162980631Y-191058669D01*
X163149110Y-190651925D01*
X163235000Y-190220128D01*
X163235000Y-189779872D01*
X163149110Y-189348075D01*
X162980631Y-188941331D01*
X162736038Y-188575271D01*
X162424729Y-188263962D01*
X162058669Y-188019369D01*
X161651925Y-187850890D01*
X161220128Y-187765000D01*
X160779872Y-187765000D01*
X160348075Y-187850890D01*
X159941331Y-188019369D01*
X159575271Y-188263962D01*
X159263962Y-188575271D01*
X159019369Y-188941331D01*
X158850890Y-189348075D01*
X158765000Y-189779872D01*
X88235000Y-189779872D01*
X88149110Y-189348075D01*
X87980631Y-188941331D01*
X87736038Y-188575271D01*
X87424729Y-188263962D01*
X87058669Y-188019369D01*
X86651925Y-187850890D01*
X86220128Y-187765000D01*
X85779872Y-187765000D01*
X85348075Y-187850890D01*
X84941331Y-188019369D01*
X84575271Y-188263962D01*
X84263962Y-188575271D01*
X84019369Y-188941331D01*
X83850890Y-189348075D01*
X83765000Y-189779872D01*
X83660000Y-189779872D01*
X83660000Y-184338967D01*
X98365000Y-184338967D01*
X98365000Y-184661033D01*
X98427832Y-184976912D01*
X98551082Y-185274463D01*
X98730013Y-185542252D01*
X98957748Y-185769987D01*
X99225537Y-185948918D01*
X99523088Y-186072168D01*
X99838967Y-186135000D01*
X100161033Y-186135000D01*
X100476912Y-186072168D01*
X100774463Y-185948918D01*
X101042252Y-185769987D01*
X101269987Y-185542252D01*
X101448918Y-185274463D01*
X101572168Y-184976912D01*
X101635000Y-184661033D01*
X101635000Y-184338967D01*
X104865000Y-184338967D01*
X104865000Y-184661033D01*
X104927832Y-184976912D01*
X105051082Y-185274463D01*
X105230013Y-185542252D01*
X105457748Y-185769987D01*
X105725537Y-185948918D01*
X106023088Y-186072168D01*
X106338967Y-186135000D01*
X106661033Y-186135000D01*
X106976912Y-186072168D01*
X107274463Y-185948918D01*
X107542252Y-185769987D01*
X107769987Y-185542252D01*
X107948918Y-185274463D01*
X108072168Y-184976912D01*
X108135000Y-184661033D01*
X108135000Y-184338967D01*
X118365000Y-184338967D01*
X118365000Y-184661033D01*
X118427832Y-184976912D01*
X118551082Y-185274463D01*
X118730013Y-185542252D01*
X118957748Y-185769987D01*
X119225537Y-185948918D01*
X119523088Y-186072168D01*
X119838967Y-186135000D01*
X120161033Y-186135000D01*
X120476912Y-186072168D01*
X120774463Y-185948918D01*
X121042252Y-185769987D01*
X121269987Y-185542252D01*
X121448918Y-185274463D01*
X121572168Y-184976912D01*
X121635000Y-184661033D01*
X121635000Y-184338967D01*
X124865000Y-184338967D01*
X124865000Y-184661033D01*
X124927832Y-184976912D01*
X125051082Y-185274463D01*
X125230013Y-185542252D01*
X125457748Y-185769987D01*
X125725537Y-185948918D01*
X126023088Y-186072168D01*
X126338967Y-186135000D01*
X126661033Y-186135000D01*
X126976912Y-186072168D01*
X127274463Y-185948918D01*
X127542252Y-185769987D01*
X127769987Y-185542252D01*
X127948918Y-185274463D01*
X128072168Y-184976912D01*
X128135000Y-184661033D01*
X128135000Y-184338967D01*
X138365000Y-184338967D01*
X138365000Y-184661033D01*
X138427832Y-184976912D01*
X138551082Y-185274463D01*
X138730013Y-185542252D01*
X138957748Y-185769987D01*
X139225537Y-185948918D01*
X139523088Y-186072168D01*
X139838967Y-186135000D01*
X140161033Y-186135000D01*
X140476912Y-186072168D01*
X140774463Y-185948918D01*
X141042252Y-185769987D01*
X141269987Y-185542252D01*
X141448918Y-185274463D01*
X141572168Y-184976912D01*
X141635000Y-184661033D01*
X141635000Y-184338967D01*
X144865000Y-184338967D01*
X144865000Y-184661033D01*
X144927832Y-184976912D01*
X145051082Y-185274463D01*
X145230013Y-185542252D01*
X145457748Y-185769987D01*
X145725537Y-185948918D01*
X146023088Y-186072168D01*
X146338967Y-186135000D01*
X146661033Y-186135000D01*
X146976912Y-186072168D01*
X147274463Y-185948918D01*
X147542252Y-185769987D01*
X147769987Y-185542252D01*
X147948918Y-185274463D01*
X148072168Y-184976912D01*
X148135000Y-184661033D01*
X148135000Y-184338967D01*
X148072168Y-184023088D01*
X147948918Y-183725537D01*
X147769987Y-183457748D01*
X147542252Y-183230013D01*
X147274463Y-183051082D01*
X146976912Y-182927832D01*
X146661033Y-182865000D01*
X146338967Y-182865000D01*
X146023088Y-182927832D01*
X145725537Y-183051082D01*
X145457748Y-183230013D01*
X145230013Y-183457748D01*
X145051082Y-183725537D01*
X144927832Y-184023088D01*
X144865000Y-184338967D01*
X141635000Y-184338967D01*
X141572168Y-184023088D01*
X141448918Y-183725537D01*
X141269987Y-183457748D01*
X141042252Y-183230013D01*
X140774463Y-183051082D01*
X140476912Y-182927832D01*
X140161033Y-182865000D01*
X139838967Y-182865000D01*
X139523088Y-182927832D01*
X139225537Y-183051082D01*
X138957748Y-183230013D01*
X138730013Y-183457748D01*
X138551082Y-183725537D01*
X138427832Y-184023088D01*
X138365000Y-184338967D01*
X128135000Y-184338967D01*
X128072168Y-184023088D01*
X127948918Y-183725537D01*
X127769987Y-183457748D01*
X127542252Y-183230013D01*
X127274463Y-183051082D01*
X126976912Y-182927832D01*
X126661033Y-182865000D01*
X126338967Y-182865000D01*
X126023088Y-182927832D01*
X125725537Y-183051082D01*
X125457748Y-183230013D01*
X125230013Y-183457748D01*
X125051082Y-183725537D01*
X124927832Y-184023088D01*
X124865000Y-184338967D01*
X121635000Y-184338967D01*
X121572168Y-184023088D01*
X121448918Y-183725537D01*
X121269987Y-183457748D01*
X121042252Y-183230013D01*
X120774463Y-183051082D01*
X120476912Y-182927832D01*
X120161033Y-182865000D01*
X119838967Y-182865000D01*
X119523088Y-182927832D01*
X119225537Y-183051082D01*
X118957748Y-183230013D01*
X118730013Y-183457748D01*
X118551082Y-183725537D01*
X118427832Y-184023088D01*
X118365000Y-184338967D01*
X108135000Y-184338967D01*
X108072168Y-184023088D01*
X107948918Y-183725537D01*
X107769987Y-183457748D01*
X107542252Y-183230013D01*
X107274463Y-183051082D01*
X106976912Y-182927832D01*
X106661033Y-182865000D01*
X106338967Y-182865000D01*
X106023088Y-182927832D01*
X105725537Y-183051082D01*
X105457748Y-183230013D01*
X105230013Y-183457748D01*
X105051082Y-183725537D01*
X104927832Y-184023088D01*
X104865000Y-184338967D01*
X101635000Y-184338967D01*
X101572168Y-184023088D01*
X101448918Y-183725537D01*
X101269987Y-183457748D01*
X101042252Y-183230013D01*
X100774463Y-183051082D01*
X100476912Y-182927832D01*
X100161033Y-182865000D01*
X99838967Y-182865000D01*
X99523088Y-182927832D01*
X99225537Y-183051082D01*
X98957748Y-183230013D01*
X98730013Y-183457748D01*
X98551082Y-183725537D01*
X98427832Y-184023088D01*
X98365000Y-184338967D01*
X83660000Y-184338967D01*
X83660000Y-179838967D01*
X98365000Y-179838967D01*
X98365000Y-180161033D01*
X98427832Y-180476912D01*
X98551082Y-180774463D01*
X98730013Y-181042252D01*
X98957748Y-181269987D01*
X99225537Y-181448918D01*
X99523088Y-181572168D01*
X99838967Y-181635000D01*
X100161033Y-181635000D01*
X100476912Y-181572168D01*
X100774463Y-181448918D01*
X101042252Y-181269987D01*
X101269987Y-181042252D01*
X101408468Y-180835000D01*
X105091532Y-180835000D01*
X105230013Y-181042252D01*
X105457748Y-181269987D01*
X105725537Y-181448918D01*
X106023088Y-181572168D01*
X106338967Y-181635000D01*
X106661033Y-181635000D01*
X106976912Y-181572168D01*
X107274463Y-181448918D01*
X107542252Y-181269987D01*
X107769987Y-181042252D01*
X107908468Y-180835000D01*
X118591532Y-180835000D01*
X118730013Y-181042252D01*
X118957748Y-181269987D01*
X119225537Y-181448918D01*
X119523088Y-181572168D01*
X119838967Y-181635000D01*
X120161033Y-181635000D01*
X120476912Y-181572168D01*
X120774463Y-181448918D01*
X121042252Y-181269987D01*
X121269987Y-181042252D01*
X121408468Y-180835000D01*
X125091532Y-180835000D01*
X125230013Y-181042252D01*
X125457748Y-181269987D01*
X125725537Y-181448918D01*
X126023088Y-181572168D01*
X126338967Y-181635000D01*
X126661033Y-181635000D01*
X126976912Y-181572168D01*
X127274463Y-181448918D01*
X127542252Y-181269987D01*
X127769987Y-181042252D01*
X127908468Y-180835000D01*
X138591532Y-180835000D01*
X138730013Y-181042252D01*
X138957748Y-181269987D01*
X139225537Y-181448918D01*
X139523088Y-181572168D01*
X139838967Y-181635000D01*
X140161033Y-181635000D01*
X140476912Y-181572168D01*
X140774463Y-181448918D01*
X141042252Y-181269987D01*
X141269987Y-181042252D01*
X141408468Y-180835000D01*
X145091532Y-180835000D01*
X145230013Y-181042252D01*
X145457748Y-181269987D01*
X145725537Y-181448918D01*
X146023088Y-181572168D01*
X146338967Y-181635000D01*
X146661033Y-181635000D01*
X146976912Y-181572168D01*
X147274463Y-181448918D01*
X147542252Y-181269987D01*
X147769987Y-181042252D01*
X147948918Y-180774463D01*
X148072168Y-180476912D01*
X148135000Y-180161033D01*
X148135000Y-179838967D01*
X148072168Y-179523088D01*
X147948918Y-179225537D01*
X147769987Y-178957748D01*
X147542252Y-178730013D01*
X147274463Y-178551082D01*
X146976912Y-178427832D01*
X146661033Y-178365000D01*
X146338967Y-178365000D01*
X146023088Y-178427832D01*
X145725537Y-178551082D01*
X145457748Y-178730013D01*
X145230013Y-178957748D01*
X145091532Y-179165000D01*
X141408468Y-179165000D01*
X141269987Y-178957748D01*
X141042252Y-178730013D01*
X140774463Y-178551082D01*
X140476912Y-178427832D01*
X140161033Y-178365000D01*
X139838967Y-178365000D01*
X139523088Y-178427832D01*
X139225537Y-178551082D01*
X138957748Y-178730013D01*
X138730013Y-178957748D01*
X138591532Y-179165000D01*
X127908468Y-179165000D01*
X127769987Y-178957748D01*
X127542252Y-178730013D01*
X127274463Y-178551082D01*
X126976912Y-178427832D01*
X126661033Y-178365000D01*
X126338967Y-178365000D01*
X126023088Y-178427832D01*
X125725537Y-178551082D01*
X125457748Y-178730013D01*
X125230013Y-178957748D01*
X125091532Y-179165000D01*
X121408468Y-179165000D01*
X121269987Y-178957748D01*
X121042252Y-178730013D01*
X120774463Y-178551082D01*
X120476912Y-178427832D01*
X120161033Y-178365000D01*
X119838967Y-178365000D01*
X119523088Y-178427832D01*
X119225537Y-178551082D01*
X118957748Y-178730013D01*
X118730013Y-178957748D01*
X118591532Y-179165000D01*
X107908468Y-179165000D01*
X107769987Y-178957748D01*
X107542252Y-178730013D01*
X107274463Y-178551082D01*
X106976912Y-178427832D01*
X106661033Y-178365000D01*
X106338967Y-178365000D01*
X106023088Y-178427832D01*
X105725537Y-178551082D01*
X105457748Y-178730013D01*
X105230013Y-178957748D01*
X105091532Y-179165000D01*
X101408468Y-179165000D01*
X101269987Y-178957748D01*
X101042252Y-178730013D01*
X100774463Y-178551082D01*
X100476912Y-178427832D01*
X100161033Y-178365000D01*
X99838967Y-178365000D01*
X99523088Y-178427832D01*
X99225537Y-178551082D01*
X98957748Y-178730013D01*
X98730013Y-178957748D01*
X98551082Y-179225537D01*
X98427832Y-179523088D01*
X98365000Y-179838967D01*
X83660000Y-179838967D01*
X83660000Y-164338967D01*
X98365000Y-164338967D01*
X98365000Y-164661033D01*
X98427832Y-164976912D01*
X98551082Y-165274463D01*
X98730013Y-165542252D01*
X98957748Y-165769987D01*
X99225537Y-165948918D01*
X99523088Y-166072168D01*
X99838967Y-166135000D01*
X100161033Y-166135000D01*
X100476912Y-166072168D01*
X100774463Y-165948918D01*
X101042252Y-165769987D01*
X101269987Y-165542252D01*
X101448918Y-165274463D01*
X101572168Y-164976912D01*
X101635000Y-164661033D01*
X101635000Y-164338967D01*
X104865000Y-164338967D01*
X104865000Y-164661033D01*
X104927832Y-164976912D01*
X105051082Y-165274463D01*
X105230013Y-165542252D01*
X105457748Y-165769987D01*
X105725537Y-165948918D01*
X106023088Y-166072168D01*
X106338967Y-166135000D01*
X106661033Y-166135000D01*
X106976912Y-166072168D01*
X107274463Y-165948918D01*
X107542252Y-165769987D01*
X107769987Y-165542252D01*
X107948918Y-165274463D01*
X108072168Y-164976912D01*
X108135000Y-164661033D01*
X108135000Y-164338967D01*
X118365000Y-164338967D01*
X118365000Y-164661033D01*
X118427832Y-164976912D01*
X118551082Y-165274463D01*
X118730013Y-165542252D01*
X118957748Y-165769987D01*
X119225537Y-165948918D01*
X119523088Y-166072168D01*
X119838967Y-166135000D01*
X120161033Y-166135000D01*
X120476912Y-166072168D01*
X120774463Y-165948918D01*
X121042252Y-165769987D01*
X121269987Y-165542252D01*
X121448918Y-165274463D01*
X121572168Y-164976912D01*
X121635000Y-164661033D01*
X121635000Y-164338967D01*
X124865000Y-164338967D01*
X124865000Y-164661033D01*
X124927832Y-164976912D01*
X125051082Y-165274463D01*
X125230013Y-165542252D01*
X125457748Y-165769987D01*
X125725537Y-165948918D01*
X126023088Y-166072168D01*
X126338967Y-166135000D01*
X126661033Y-166135000D01*
X126976912Y-166072168D01*
X127274463Y-165948918D01*
X127542252Y-165769987D01*
X127769987Y-165542252D01*
X127948918Y-165274463D01*
X128072168Y-164976912D01*
X128135000Y-164661033D01*
X128135000Y-164338967D01*
X138365000Y-164338967D01*
X138365000Y-164661033D01*
X138427832Y-164976912D01*
X138551082Y-165274463D01*
X138730013Y-165542252D01*
X138957748Y-165769987D01*
X139225537Y-165948918D01*
X139523088Y-166072168D01*
X139838967Y-166135000D01*
X140161033Y-166135000D01*
X140476912Y-166072168D01*
X140774463Y-165948918D01*
X141042252Y-165769987D01*
X141269987Y-165542252D01*
X141448918Y-165274463D01*
X141572168Y-164976912D01*
X141635000Y-164661033D01*
X141635000Y-164338967D01*
X144865000Y-164338967D01*
X144865000Y-164661033D01*
X144927832Y-164976912D01*
X145051082Y-165274463D01*
X145230013Y-165542252D01*
X145457748Y-165769987D01*
X145725537Y-165948918D01*
X146023088Y-166072168D01*
X146338967Y-166135000D01*
X146661033Y-166135000D01*
X146976912Y-166072168D01*
X147274463Y-165948918D01*
X147542252Y-165769987D01*
X147769987Y-165542252D01*
X147948918Y-165274463D01*
X148072168Y-164976912D01*
X148135000Y-164661033D01*
X148135000Y-164338967D01*
X148072168Y-164023088D01*
X147948918Y-163725537D01*
X147769987Y-163457748D01*
X147542252Y-163230013D01*
X147274463Y-163051082D01*
X146976912Y-162927832D01*
X146661033Y-162865000D01*
X146338967Y-162865000D01*
X146023088Y-162927832D01*
X145725537Y-163051082D01*
X145457748Y-163230013D01*
X145230013Y-163457748D01*
X145051082Y-163725537D01*
X144927832Y-164023088D01*
X144865000Y-164338967D01*
X141635000Y-164338967D01*
X141572168Y-164023088D01*
X141448918Y-163725537D01*
X141269987Y-163457748D01*
X141042252Y-163230013D01*
X140774463Y-163051082D01*
X140476912Y-162927832D01*
X140161033Y-162865000D01*
X139838967Y-162865000D01*
X139523088Y-162927832D01*
X139225537Y-163051082D01*
X138957748Y-163230013D01*
X138730013Y-163457748D01*
X138551082Y-163725537D01*
X138427832Y-164023088D01*
X138365000Y-164338967D01*
X128135000Y-164338967D01*
X128072168Y-164023088D01*
X127948918Y-163725537D01*
X127769987Y-163457748D01*
X127542252Y-163230013D01*
X127274463Y-163051082D01*
X126976912Y-162927832D01*
X126661033Y-162865000D01*
X126338967Y-162865000D01*
X126023088Y-162927832D01*
X125725537Y-163051082D01*
X125457748Y-163230013D01*
X125230013Y-163457748D01*
X125051082Y-163725537D01*
X124927832Y-164023088D01*
X124865000Y-164338967D01*
X121635000Y-164338967D01*
X121572168Y-164023088D01*
X121448918Y-163725537D01*
X121269987Y-163457748D01*
X121042252Y-163230013D01*
X120774463Y-163051082D01*
X120476912Y-162927832D01*
X120161033Y-162865000D01*
X119838967Y-162865000D01*
X119523088Y-162927832D01*
X119225537Y-163051082D01*
X118957748Y-163230013D01*
X118730013Y-163457748D01*
X118551082Y-163725537D01*
X118427832Y-164023088D01*
X118365000Y-164338967D01*
X108135000Y-164338967D01*
X108072168Y-164023088D01*
X107948918Y-163725537D01*
X107769987Y-163457748D01*
X107542252Y-163230013D01*
X107274463Y-163051082D01*
X106976912Y-162927832D01*
X106661033Y-162865000D01*
X106338967Y-162865000D01*
X106023088Y-162927832D01*
X105725537Y-163051082D01*
X105457748Y-163230013D01*
X105230013Y-163457748D01*
X105051082Y-163725537D01*
X104927832Y-164023088D01*
X104865000Y-164338967D01*
X101635000Y-164338967D01*
X101572168Y-164023088D01*
X101448918Y-163725537D01*
X101269987Y-163457748D01*
X101042252Y-163230013D01*
X100774463Y-163051082D01*
X100476912Y-162927832D01*
X100161033Y-162865000D01*
X99838967Y-162865000D01*
X99523088Y-162927832D01*
X99225537Y-163051082D01*
X98957748Y-163230013D01*
X98730013Y-163457748D01*
X98551082Y-163725537D01*
X98427832Y-164023088D01*
X98365000Y-164338967D01*
X83660000Y-164338967D01*
X83660000Y-159838967D01*
X98365000Y-159838967D01*
X98365000Y-160161033D01*
X98427832Y-160476912D01*
X98551082Y-160774463D01*
X98730013Y-161042252D01*
X98957748Y-161269987D01*
X99225537Y-161448918D01*
X99523088Y-161572168D01*
X99838967Y-161635000D01*
X100161033Y-161635000D01*
X100476912Y-161572168D01*
X100774463Y-161448918D01*
X101042252Y-161269987D01*
X101269987Y-161042252D01*
X101408468Y-160835000D01*
X105091532Y-160835000D01*
X105230013Y-161042252D01*
X105457748Y-161269987D01*
X105725537Y-161448918D01*
X106023088Y-161572168D01*
X106338967Y-161635000D01*
X106661033Y-161635000D01*
X106976912Y-161572168D01*
X107274463Y-161448918D01*
X107542252Y-161269987D01*
X107769987Y-161042252D01*
X107908468Y-160835000D01*
X118591532Y-160835000D01*
X118730013Y-161042252D01*
X118957748Y-161269987D01*
X119225537Y-161448918D01*
X119523088Y-161572168D01*
X119838967Y-161635000D01*
X120161033Y-161635000D01*
X120476912Y-161572168D01*
X120774463Y-161448918D01*
X121042252Y-161269987D01*
X121269987Y-161042252D01*
X121408468Y-160835000D01*
X125091532Y-160835000D01*
X125230013Y-161042252D01*
X125457748Y-161269987D01*
X125725537Y-161448918D01*
X126023088Y-161572168D01*
X126338967Y-161635000D01*
X126661033Y-161635000D01*
X126976912Y-161572168D01*
X127274463Y-161448918D01*
X127542252Y-161269987D01*
X127769987Y-161042252D01*
X127908468Y-160835000D01*
X138591532Y-160835000D01*
X138730013Y-161042252D01*
X138957748Y-161269987D01*
X139225537Y-161448918D01*
X139523088Y-161572168D01*
X139838967Y-161635000D01*
X140161033Y-161635000D01*
X140476912Y-161572168D01*
X140774463Y-161448918D01*
X141042252Y-161269987D01*
X141269987Y-161042252D01*
X141408468Y-160835000D01*
X145091532Y-160835000D01*
X145230013Y-161042252D01*
X145457748Y-161269987D01*
X145725537Y-161448918D01*
X146023088Y-161572168D01*
X146338967Y-161635000D01*
X146661033Y-161635000D01*
X146976912Y-161572168D01*
X147274463Y-161448918D01*
X147542252Y-161269987D01*
X147769987Y-161042252D01*
X147948918Y-160774463D01*
X148072168Y-160476912D01*
X148135000Y-160161033D01*
X148135000Y-159838967D01*
X148072168Y-159523088D01*
X147948918Y-159225537D01*
X147769987Y-158957748D01*
X147542252Y-158730013D01*
X147274463Y-158551082D01*
X146976912Y-158427832D01*
X146661033Y-158365000D01*
X146338967Y-158365000D01*
X146023088Y-158427832D01*
X145725537Y-158551082D01*
X145457748Y-158730013D01*
X145230013Y-158957748D01*
X145091532Y-159165000D01*
X141408468Y-159165000D01*
X141269987Y-158957748D01*
X141042252Y-158730013D01*
X140774463Y-158551082D01*
X140476912Y-158427832D01*
X140161033Y-158365000D01*
X139838967Y-158365000D01*
X139523088Y-158427832D01*
X139225537Y-158551082D01*
X138957748Y-158730013D01*
X138730013Y-158957748D01*
X138591532Y-159165000D01*
X127908468Y-159165000D01*
X127769987Y-158957748D01*
X127542252Y-158730013D01*
X127274463Y-158551082D01*
X126976912Y-158427832D01*
X126661033Y-158365000D01*
X126338967Y-158365000D01*
X126023088Y-158427832D01*
X125725537Y-158551082D01*
X125457748Y-158730013D01*
X125230013Y-158957748D01*
X125091532Y-159165000D01*
X121408468Y-159165000D01*
X121269987Y-158957748D01*
X121042252Y-158730013D01*
X120774463Y-158551082D01*
X120476912Y-158427832D01*
X120161033Y-158365000D01*
X119838967Y-158365000D01*
X119523088Y-158427832D01*
X119225537Y-158551082D01*
X118957748Y-158730013D01*
X118730013Y-158957748D01*
X118591532Y-159165000D01*
X107908468Y-159165000D01*
X107769987Y-158957748D01*
X107542252Y-158730013D01*
X107274463Y-158551082D01*
X106976912Y-158427832D01*
X106661033Y-158365000D01*
X106338967Y-158365000D01*
X106023088Y-158427832D01*
X105725537Y-158551082D01*
X105457748Y-158730013D01*
X105230013Y-158957748D01*
X105091532Y-159165000D01*
X101408468Y-159165000D01*
X101269987Y-158957748D01*
X101042252Y-158730013D01*
X100774463Y-158551082D01*
X100476912Y-158427832D01*
X100161033Y-158365000D01*
X99838967Y-158365000D01*
X99523088Y-158427832D01*
X99225537Y-158551082D01*
X98957748Y-158730013D01*
X98730013Y-158957748D01*
X98551082Y-159225537D01*
X98427832Y-159523088D01*
X98365000Y-159838967D01*
X83660000Y-159838967D01*
X83660000Y-144338967D01*
X98365000Y-144338967D01*
X98365000Y-144661033D01*
X98427832Y-144976912D01*
X98551082Y-145274463D01*
X98730013Y-145542252D01*
X98957748Y-145769987D01*
X99225537Y-145948918D01*
X99523088Y-146072168D01*
X99838967Y-146135000D01*
X100161033Y-146135000D01*
X100476912Y-146072168D01*
X100774463Y-145948918D01*
X101042252Y-145769987D01*
X101269987Y-145542252D01*
X101448918Y-145274463D01*
X101572168Y-144976912D01*
X101635000Y-144661033D01*
X101635000Y-144338967D01*
X104865000Y-144338967D01*
X104865000Y-144661033D01*
X104927832Y-144976912D01*
X105051082Y-145274463D01*
X105230013Y-145542252D01*
X105457748Y-145769987D01*
X105725537Y-145948918D01*
X106023088Y-146072168D01*
X106338967Y-146135000D01*
X106661033Y-146135000D01*
X106976912Y-146072168D01*
X107274463Y-145948918D01*
X107542252Y-145769987D01*
X107769987Y-145542252D01*
X107948918Y-145274463D01*
X108072168Y-144976912D01*
X108135000Y-144661033D01*
X108135000Y-144338967D01*
X118365000Y-144338967D01*
X118365000Y-144661033D01*
X118427832Y-144976912D01*
X118551082Y-145274463D01*
X118730013Y-145542252D01*
X118957748Y-145769987D01*
X119225537Y-145948918D01*
X119523088Y-146072168D01*
X119838967Y-146135000D01*
X120161033Y-146135000D01*
X120476912Y-146072168D01*
X120774463Y-145948918D01*
X121042252Y-145769987D01*
X121269987Y-145542252D01*
X121448918Y-145274463D01*
X121572168Y-144976912D01*
X121635000Y-144661033D01*
X121635000Y-144338967D01*
X124865000Y-144338967D01*
X124865000Y-144661033D01*
X124927832Y-144976912D01*
X125051082Y-145274463D01*
X125230013Y-145542252D01*
X125457748Y-145769987D01*
X125725537Y-145948918D01*
X126023088Y-146072168D01*
X126338967Y-146135000D01*
X126661033Y-146135000D01*
X126976912Y-146072168D01*
X127274463Y-145948918D01*
X127542252Y-145769987D01*
X127769987Y-145542252D01*
X127948918Y-145274463D01*
X128072168Y-144976912D01*
X128135000Y-144661033D01*
X128135000Y-144338967D01*
X138365000Y-144338967D01*
X138365000Y-144661033D01*
X138427832Y-144976912D01*
X138551082Y-145274463D01*
X138730013Y-145542252D01*
X138957748Y-145769987D01*
X139225537Y-145948918D01*
X139523088Y-146072168D01*
X139838967Y-146135000D01*
X140161033Y-146135000D01*
X140476912Y-146072168D01*
X140774463Y-145948918D01*
X141042252Y-145769987D01*
X141269987Y-145542252D01*
X141448918Y-145274463D01*
X141572168Y-144976912D01*
X141635000Y-144661033D01*
X141635000Y-144338967D01*
X144865000Y-144338967D01*
X144865000Y-144661033D01*
X144927832Y-144976912D01*
X145051082Y-145274463D01*
X145230013Y-145542252D01*
X145457748Y-145769987D01*
X145725537Y-145948918D01*
X146023088Y-146072168D01*
X146338967Y-146135000D01*
X146661033Y-146135000D01*
X146976912Y-146072168D01*
X147274463Y-145948918D01*
X147542252Y-145769987D01*
X147769987Y-145542252D01*
X147948918Y-145274463D01*
X148072168Y-144976912D01*
X148135000Y-144661033D01*
X148135000Y-144338967D01*
X148072168Y-144023088D01*
X147948918Y-143725537D01*
X147769987Y-143457748D01*
X147542252Y-143230013D01*
X147274463Y-143051082D01*
X146976912Y-142927832D01*
X146661033Y-142865000D01*
X146338967Y-142865000D01*
X146023088Y-142927832D01*
X145725537Y-143051082D01*
X145457748Y-143230013D01*
X145230013Y-143457748D01*
X145051082Y-143725537D01*
X144927832Y-144023088D01*
X144865000Y-144338967D01*
X141635000Y-144338967D01*
X141572168Y-144023088D01*
X141448918Y-143725537D01*
X141269987Y-143457748D01*
X141042252Y-143230013D01*
X140774463Y-143051082D01*
X140476912Y-142927832D01*
X140161033Y-142865000D01*
X139838967Y-142865000D01*
X139523088Y-142927832D01*
X139225537Y-143051082D01*
X138957748Y-143230013D01*
X138730013Y-143457748D01*
X138551082Y-143725537D01*
X138427832Y-144023088D01*
X138365000Y-144338967D01*
X128135000Y-144338967D01*
X128072168Y-144023088D01*
X127948918Y-143725537D01*
X127769987Y-143457748D01*
X127542252Y-143230013D01*
X127274463Y-143051082D01*
X126976912Y-142927832D01*
X126661033Y-142865000D01*
X126338967Y-142865000D01*
X126023088Y-142927832D01*
X125725537Y-143051082D01*
X125457748Y-143230013D01*
X125230013Y-143457748D01*
X125051082Y-143725537D01*
X124927832Y-144023088D01*
X124865000Y-144338967D01*
X121635000Y-144338967D01*
X121572168Y-144023088D01*
X121448918Y-143725537D01*
X121269987Y-143457748D01*
X121042252Y-143230013D01*
X120774463Y-143051082D01*
X120476912Y-142927832D01*
X120161033Y-142865000D01*
X119838967Y-142865000D01*
X119523088Y-142927832D01*
X119225537Y-143051082D01*
X118957748Y-143230013D01*
X118730013Y-143457748D01*
X118551082Y-143725537D01*
X118427832Y-144023088D01*
X118365000Y-144338967D01*
X108135000Y-144338967D01*
X108072168Y-144023088D01*
X107948918Y-143725537D01*
X107769987Y-143457748D01*
X107542252Y-143230013D01*
X107274463Y-143051082D01*
X106976912Y-142927832D01*
X106661033Y-142865000D01*
X106338967Y-142865000D01*
X106023088Y-142927832D01*
X105725537Y-143051082D01*
X105457748Y-143230013D01*
X105230013Y-143457748D01*
X105051082Y-143725537D01*
X104927832Y-144023088D01*
X104865000Y-144338967D01*
X101635000Y-144338967D01*
X101572168Y-144023088D01*
X101448918Y-143725537D01*
X101269987Y-143457748D01*
X101042252Y-143230013D01*
X100774463Y-143051082D01*
X100476912Y-142927832D01*
X100161033Y-142865000D01*
X99838967Y-142865000D01*
X99523088Y-142927832D01*
X99225537Y-143051082D01*
X98957748Y-143230013D01*
X98730013Y-143457748D01*
X98551082Y-143725537D01*
X98427832Y-144023088D01*
X98365000Y-144338967D01*
X83660000Y-144338967D01*
X83660000Y-139838967D01*
X98365000Y-139838967D01*
X98365000Y-140161033D01*
X98427832Y-140476912D01*
X98551082Y-140774463D01*
X98730013Y-141042252D01*
X98957748Y-141269987D01*
X99225537Y-141448918D01*
X99523088Y-141572168D01*
X99838967Y-141635000D01*
X100161033Y-141635000D01*
X100476912Y-141572168D01*
X100774463Y-141448918D01*
X101042252Y-141269987D01*
X101269987Y-141042252D01*
X101408468Y-140835000D01*
X105091532Y-140835000D01*
X105230013Y-141042252D01*
X105457748Y-141269987D01*
X105725537Y-141448918D01*
X106023088Y-141572168D01*
X106338967Y-141635000D01*
X106661033Y-141635000D01*
X106976912Y-141572168D01*
X107274463Y-141448918D01*
X107542252Y-141269987D01*
X107769987Y-141042252D01*
X107908468Y-140835000D01*
X118591532Y-140835000D01*
X118730013Y-141042252D01*
X118957748Y-141269987D01*
X119225537Y-141448918D01*
X119523088Y-141572168D01*
X119838967Y-141635000D01*
X120161033Y-141635000D01*
X120476912Y-141572168D01*
X120774463Y-141448918D01*
X121042252Y-141269987D01*
X121269987Y-141042252D01*
X121408468Y-140835000D01*
X125091532Y-140835000D01*
X125230013Y-141042252D01*
X125457748Y-141269987D01*
X125725537Y-141448918D01*
X126023088Y-141572168D01*
X126338967Y-141635000D01*
X126661033Y-141635000D01*
X126976912Y-141572168D01*
X127274463Y-141448918D01*
X127542252Y-141269987D01*
X127769987Y-141042252D01*
X127908468Y-140835000D01*
X138591532Y-140835000D01*
X138730013Y-141042252D01*
X138957748Y-141269987D01*
X139225537Y-141448918D01*
X139523088Y-141572168D01*
X139838967Y-141635000D01*
X140161033Y-141635000D01*
X140476912Y-141572168D01*
X140774463Y-141448918D01*
X141042252Y-141269987D01*
X141269987Y-141042252D01*
X141408468Y-140835000D01*
X145091532Y-140835000D01*
X145230013Y-141042252D01*
X145457748Y-141269987D01*
X145725537Y-141448918D01*
X146023088Y-141572168D01*
X146338967Y-141635000D01*
X146661033Y-141635000D01*
X146976912Y-141572168D01*
X147274463Y-141448918D01*
X147542252Y-141269987D01*
X147769987Y-141042252D01*
X147948918Y-140774463D01*
X148072168Y-140476912D01*
X148135000Y-140161033D01*
X148135000Y-139838967D01*
X148072168Y-139523088D01*
X147948918Y-139225537D01*
X147769987Y-138957748D01*
X147542252Y-138730013D01*
X147274463Y-138551082D01*
X146976912Y-138427832D01*
X146661033Y-138365000D01*
X146338967Y-138365000D01*
X146023088Y-138427832D01*
X145725537Y-138551082D01*
X145457748Y-138730013D01*
X145230013Y-138957748D01*
X145091532Y-139165000D01*
X141408468Y-139165000D01*
X141269987Y-138957748D01*
X141042252Y-138730013D01*
X140774463Y-138551082D01*
X140476912Y-138427832D01*
X140161033Y-138365000D01*
X139838967Y-138365000D01*
X139523088Y-138427832D01*
X139225537Y-138551082D01*
X138957748Y-138730013D01*
X138730013Y-138957748D01*
X138591532Y-139165000D01*
X127908468Y-139165000D01*
X127769987Y-138957748D01*
X127542252Y-138730013D01*
X127274463Y-138551082D01*
X126976912Y-138427832D01*
X126661033Y-138365000D01*
X126338967Y-138365000D01*
X126023088Y-138427832D01*
X125725537Y-138551082D01*
X125457748Y-138730013D01*
X125230013Y-138957748D01*
X125091532Y-139165000D01*
X121408468Y-139165000D01*
X121269987Y-138957748D01*
X121042252Y-138730013D01*
X120774463Y-138551082D01*
X120476912Y-138427832D01*
X120161033Y-138365000D01*
X119838967Y-138365000D01*
X119523088Y-138427832D01*
X119225537Y-138551082D01*
X118957748Y-138730013D01*
X118730013Y-138957748D01*
X118591532Y-139165000D01*
X107908468Y-139165000D01*
X107769987Y-138957748D01*
X107542252Y-138730013D01*
X107274463Y-138551082D01*
X106976912Y-138427832D01*
X106661033Y-138365000D01*
X106338967Y-138365000D01*
X106023088Y-138427832D01*
X105725537Y-138551082D01*
X105457748Y-138730013D01*
X105230013Y-138957748D01*
X105091532Y-139165000D01*
X101408468Y-139165000D01*
X101269987Y-138957748D01*
X101042252Y-138730013D01*
X100774463Y-138551082D01*
X100476912Y-138427832D01*
X100161033Y-138365000D01*
X99838967Y-138365000D01*
X99523088Y-138427832D01*
X99225537Y-138551082D01*
X98957748Y-138730013D01*
X98730013Y-138957748D01*
X98551082Y-139225537D01*
X98427832Y-139523088D01*
X98365000Y-139838967D01*
X83660000Y-139838967D01*
X83660000Y-120360000D01*
X85511928Y-120360000D01*
X85511928Y-121560000D01*
X85528992Y-121733254D01*
X85579528Y-121899850D01*
X85661595Y-122053386D01*
X85772038Y-122187962D01*
X85906614Y-122298405D01*
X86033608Y-122366285D01*
X85846525Y-122553368D01*
X85684010Y-122796589D01*
X85572068Y-123066842D01*
X85515000Y-123353740D01*
X85515000Y-123646260D01*
X85572068Y-123933158D01*
X85684010Y-124203411D01*
X85846525Y-124446632D01*
X86053368Y-124653475D01*
X86227760Y-124770000D01*
X86053368Y-124886525D01*
X85846525Y-125093368D01*
X85684010Y-125336589D01*
X85572068Y-125606842D01*
X85515000Y-125893740D01*
X85515000Y-126186260D01*
X85572068Y-126473158D01*
X85684010Y-126743411D01*
X85846525Y-126986632D01*
X86053368Y-127193475D01*
X86296589Y-127355990D01*
X86566842Y-127467932D01*
X86853740Y-127525000D01*
X87146260Y-127525000D01*
X87433158Y-127467932D01*
X87703411Y-127355990D01*
X87946632Y-127193475D01*
X88071710Y-127068397D01*
X88691208Y-127068397D01*
X88768843Y-127317472D01*
X89032883Y-127443371D01*
X89316411Y-127515339D01*
X89608531Y-127530611D01*
X89898019Y-127488599D01*
X90173747Y-127390919D01*
X90311157Y-127317472D01*
X90388792Y-127068397D01*
X89540000Y-126219605D01*
X88691208Y-127068397D01*
X88071710Y-127068397D01*
X88153475Y-126986632D01*
X88269311Y-126813271D01*
X88511603Y-126888792D01*
X89360395Y-126040000D01*
X89719605Y-126040000D01*
X90568397Y-126888792D01*
X90817472Y-126811157D01*
X90943371Y-126547117D01*
X91015339Y-126263589D01*
X91030611Y-125971469D01*
X90988599Y-125681981D01*
X90890919Y-125406253D01*
X90817472Y-125268843D01*
X90568397Y-125191208D01*
X89719605Y-126040000D01*
X89360395Y-126040000D01*
X88511603Y-125191208D01*
X88269311Y-125266729D01*
X88153475Y-125093368D01*
X87946632Y-124886525D01*
X87772240Y-124770000D01*
X87946632Y-124653475D01*
X88153475Y-124446632D01*
X88270000Y-124272240D01*
X88386525Y-124446632D01*
X88593368Y-124653475D01*
X88766729Y-124769311D01*
X88691208Y-125011603D01*
X89540000Y-125860395D01*
X90388792Y-125011603D01*
X90313271Y-124769311D01*
X90486632Y-124653475D01*
X90693475Y-124446632D01*
X90768065Y-124335000D01*
X92458982Y-124335000D01*
X92500000Y-124339040D01*
X92541018Y-124335000D01*
X92541019Y-124335000D01*
X92663689Y-124322918D01*
X92821087Y-124275172D01*
X92966146Y-124197636D01*
X93093291Y-124093291D01*
X93119445Y-124061422D01*
X93845868Y-123335000D01*
X98852761Y-123335000D01*
X98730013Y-123457748D01*
X98551082Y-123725537D01*
X98427832Y-124023088D01*
X98365000Y-124338967D01*
X98365000Y-124661033D01*
X98427832Y-124976912D01*
X98551082Y-125274463D01*
X98730013Y-125542252D01*
X98957748Y-125769987D01*
X99225537Y-125948918D01*
X99523088Y-126072168D01*
X99838967Y-126135000D01*
X100161033Y-126135000D01*
X100476912Y-126072168D01*
X100774463Y-125948918D01*
X101042252Y-125769987D01*
X101269987Y-125542252D01*
X101448918Y-125274463D01*
X101572168Y-124976912D01*
X101635000Y-124661033D01*
X101635000Y-124338967D01*
X101572168Y-124023088D01*
X101448918Y-123725537D01*
X101269987Y-123457748D01*
X101147239Y-123335000D01*
X105352761Y-123335000D01*
X105230013Y-123457748D01*
X105051082Y-123725537D01*
X104927832Y-124023088D01*
X104865000Y-124338967D01*
X104865000Y-124661033D01*
X104927832Y-124976912D01*
X105051082Y-125274463D01*
X105230013Y-125542252D01*
X105457748Y-125769987D01*
X105725537Y-125948918D01*
X106023088Y-126072168D01*
X106338967Y-126135000D01*
X106661033Y-126135000D01*
X106976912Y-126072168D01*
X107274463Y-125948918D01*
X107542252Y-125769987D01*
X107769987Y-125542252D01*
X107948918Y-125274463D01*
X108072168Y-124976912D01*
X108135000Y-124661033D01*
X108135000Y-124338967D01*
X108072168Y-124023088D01*
X107948918Y-123725537D01*
X107769987Y-123457748D01*
X107647239Y-123335000D01*
X117654133Y-123335000D01*
X118413628Y-124094496D01*
X118365000Y-124338967D01*
X118365000Y-124661033D01*
X118427832Y-124976912D01*
X118551082Y-125274463D01*
X118730013Y-125542252D01*
X118957748Y-125769987D01*
X119225537Y-125948918D01*
X119523088Y-126072168D01*
X119838967Y-126135000D01*
X120161033Y-126135000D01*
X120476912Y-126072168D01*
X120774463Y-125948918D01*
X121042252Y-125769987D01*
X121269987Y-125542252D01*
X121448918Y-125274463D01*
X121572168Y-124976912D01*
X121635000Y-124661033D01*
X121635000Y-124338967D01*
X124865000Y-124338967D01*
X124865000Y-124661033D01*
X124927832Y-124976912D01*
X125051082Y-125274463D01*
X125230013Y-125542252D01*
X125457748Y-125769987D01*
X125725537Y-125948918D01*
X126023088Y-126072168D01*
X126338967Y-126135000D01*
X126661033Y-126135000D01*
X126976912Y-126072168D01*
X127274463Y-125948918D01*
X127542252Y-125769987D01*
X127769987Y-125542252D01*
X127948918Y-125274463D01*
X128072168Y-124976912D01*
X128135000Y-124661033D01*
X128135000Y-124338967D01*
X128072168Y-124023088D01*
X127948918Y-123725537D01*
X127769987Y-123457748D01*
X127542252Y-123230013D01*
X127274463Y-123051082D01*
X126976912Y-122927832D01*
X126661033Y-122865000D01*
X126338967Y-122865000D01*
X126023088Y-122927832D01*
X125725537Y-123051082D01*
X125457748Y-123230013D01*
X125230013Y-123457748D01*
X125051082Y-123725537D01*
X124927832Y-124023088D01*
X124865000Y-124338967D01*
X121635000Y-124338967D01*
X121572168Y-124023088D01*
X121448918Y-123725537D01*
X121269987Y-123457748D01*
X121042252Y-123230013D01*
X120774463Y-123051082D01*
X120476912Y-122927832D01*
X120161033Y-122865000D01*
X119838967Y-122865000D01*
X119594496Y-122913628D01*
X119265867Y-122585000D01*
X136904133Y-122585000D01*
X138413628Y-124094496D01*
X138365000Y-124338967D01*
X138365000Y-124661033D01*
X138427832Y-124976912D01*
X138551082Y-125274463D01*
X138730013Y-125542252D01*
X138957748Y-125769987D01*
X139225537Y-125948918D01*
X139523088Y-126072168D01*
X139838967Y-126135000D01*
X140161033Y-126135000D01*
X140476912Y-126072168D01*
X140774463Y-125948918D01*
X141042252Y-125769987D01*
X141269987Y-125542252D01*
X141448918Y-125274463D01*
X141572168Y-124976912D01*
X141635000Y-124661033D01*
X141635000Y-124338967D01*
X144865000Y-124338967D01*
X144865000Y-124661033D01*
X144927832Y-124976912D01*
X145051082Y-125274463D01*
X145230013Y-125542252D01*
X145457748Y-125769987D01*
X145725537Y-125948918D01*
X146023088Y-126072168D01*
X146338967Y-126135000D01*
X146661033Y-126135000D01*
X146976912Y-126072168D01*
X147274463Y-125948918D01*
X147542252Y-125769987D01*
X147769987Y-125542252D01*
X147948918Y-125274463D01*
X148072168Y-124976912D01*
X148135000Y-124661033D01*
X148135000Y-124338967D01*
X148072168Y-124023088D01*
X147948918Y-123725537D01*
X147769987Y-123457748D01*
X147542252Y-123230013D01*
X147274463Y-123051082D01*
X146976912Y-122927832D01*
X146661033Y-122865000D01*
X146338967Y-122865000D01*
X146023088Y-122927832D01*
X145725537Y-123051082D01*
X145457748Y-123230013D01*
X145230013Y-123457748D01*
X145051082Y-123725537D01*
X144927832Y-124023088D01*
X144865000Y-124338967D01*
X141635000Y-124338967D01*
X141572168Y-124023088D01*
X141448918Y-123725537D01*
X141269987Y-123457748D01*
X141042252Y-123230013D01*
X140774463Y-123051082D01*
X140476912Y-122927832D01*
X140161033Y-122865000D01*
X139838967Y-122865000D01*
X139594496Y-122913628D01*
X137869446Y-121188579D01*
X137843291Y-121156709D01*
X137716146Y-121052364D01*
X137571087Y-120974828D01*
X137413689Y-120927082D01*
X137291019Y-120915000D01*
X137291018Y-120915000D01*
X137250000Y-120910960D01*
X137208982Y-120915000D01*
X127855014Y-120915000D01*
X127908468Y-120835000D01*
X138591532Y-120835000D01*
X138730013Y-121042252D01*
X138957748Y-121269987D01*
X139225537Y-121448918D01*
X139523088Y-121572168D01*
X139838967Y-121635000D01*
X140161033Y-121635000D01*
X140476912Y-121572168D01*
X140774463Y-121448918D01*
X141042252Y-121269987D01*
X141269987Y-121042252D01*
X141408468Y-120835000D01*
X145091532Y-120835000D01*
X145230013Y-121042252D01*
X145457748Y-121269987D01*
X145725537Y-121448918D01*
X146023088Y-121572168D01*
X146338967Y-121635000D01*
X146661033Y-121635000D01*
X146976912Y-121572168D01*
X147274463Y-121448918D01*
X147542252Y-121269987D01*
X147769987Y-121042252D01*
X147948918Y-120774463D01*
X148072168Y-120476912D01*
X148135000Y-120161033D01*
X148135000Y-119838967D01*
X148072168Y-119523088D01*
X147948918Y-119225537D01*
X147769987Y-118957748D01*
X147542252Y-118730013D01*
X147274463Y-118551082D01*
X146976912Y-118427832D01*
X146661033Y-118365000D01*
X146338967Y-118365000D01*
X146023088Y-118427832D01*
X145725537Y-118551082D01*
X145457748Y-118730013D01*
X145230013Y-118957748D01*
X145091532Y-119165000D01*
X141408468Y-119165000D01*
X141269987Y-118957748D01*
X141042252Y-118730013D01*
X140774463Y-118551082D01*
X140476912Y-118427832D01*
X140161033Y-118365000D01*
X139838967Y-118365000D01*
X139523088Y-118427832D01*
X139225537Y-118551082D01*
X138957748Y-118730013D01*
X138730013Y-118957748D01*
X138591532Y-119165000D01*
X127908468Y-119165000D01*
X127769987Y-118957748D01*
X127542252Y-118730013D01*
X127274463Y-118551082D01*
X126976912Y-118427832D01*
X126661033Y-118365000D01*
X126338967Y-118365000D01*
X126023088Y-118427832D01*
X125725537Y-118551082D01*
X125457748Y-118730013D01*
X125230013Y-118957748D01*
X125091532Y-119165000D01*
X121408468Y-119165000D01*
X121269987Y-118957748D01*
X121042252Y-118730013D01*
X120774463Y-118551082D01*
X120476912Y-118427832D01*
X120161033Y-118365000D01*
X119838967Y-118365000D01*
X119523088Y-118427832D01*
X119225537Y-118551082D01*
X118957748Y-118730013D01*
X118730013Y-118957748D01*
X118591532Y-119165000D01*
X107908468Y-119165000D01*
X107769987Y-118957748D01*
X107542252Y-118730013D01*
X107274463Y-118551082D01*
X106976912Y-118427832D01*
X106661033Y-118365000D01*
X106338967Y-118365000D01*
X106023088Y-118427832D01*
X105725537Y-118551082D01*
X105457748Y-118730013D01*
X105230013Y-118957748D01*
X105091532Y-119165000D01*
X101408468Y-119165000D01*
X101269987Y-118957748D01*
X101042252Y-118730013D01*
X100774463Y-118551082D01*
X100476912Y-118427832D01*
X100161033Y-118365000D01*
X99838967Y-118365000D01*
X99523088Y-118427832D01*
X99225537Y-118551082D01*
X98957748Y-118730013D01*
X98730013Y-118957748D01*
X98551082Y-119225537D01*
X98427832Y-119523088D01*
X98365000Y-119838967D01*
X98365000Y-120161033D01*
X98427832Y-120476912D01*
X98551082Y-120774463D01*
X98644986Y-120915000D01*
X94345868Y-120915000D01*
X91369446Y-117938579D01*
X91343291Y-117906709D01*
X91216146Y-117802364D01*
X91071087Y-117724828D01*
X90913689Y-117677082D01*
X90791019Y-117665000D01*
X90791018Y-117665000D01*
X90750000Y-117660960D01*
X90708982Y-117665000D01*
X87791018Y-117665000D01*
X87749999Y-117660960D01*
X87708981Y-117665000D01*
X87586311Y-117677082D01*
X87428913Y-117724828D01*
X87283854Y-117802364D01*
X87156709Y-117906709D01*
X87130558Y-117938574D01*
X86438574Y-118630559D01*
X86406710Y-118656709D01*
X86380562Y-118688571D01*
X86302364Y-118783855D01*
X86224828Y-118928914D01*
X86177082Y-119086312D01*
X86160960Y-119250000D01*
X86165001Y-119291028D01*
X86165001Y-119507722D01*
X86060150Y-119539528D01*
X85906614Y-119621595D01*
X85772038Y-119732038D01*
X85661595Y-119866614D01*
X85579528Y-120020150D01*
X85528992Y-120186746D01*
X85511928Y-120360000D01*
X83660000Y-120360000D01*
X83660000Y-114393137D01*
X89915000Y-114393137D01*
X89915000Y-114606863D01*
X89956696Y-114816483D01*
X90038485Y-115013940D01*
X90157225Y-115191647D01*
X90308353Y-115342775D01*
X90486060Y-115461515D01*
X90683517Y-115543304D01*
X90893137Y-115585000D01*
X91106863Y-115585000D01*
X91316483Y-115543304D01*
X91513940Y-115461515D01*
X91691647Y-115342775D01*
X91842775Y-115191647D01*
X91961515Y-115013940D01*
X92043304Y-114816483D01*
X92085000Y-114606863D01*
X92085000Y-114393137D01*
X92043304Y-114183517D01*
X91961515Y-113986060D01*
X91842775Y-113808353D01*
X91835000Y-113800578D01*
X91835000Y-111279872D01*
X158765000Y-111279872D01*
X158765000Y-111720128D01*
X158850890Y-112151925D01*
X159019369Y-112558669D01*
X159263962Y-112924729D01*
X159575271Y-113236038D01*
X159941331Y-113480631D01*
X160348075Y-113649110D01*
X160779872Y-113735000D01*
X161220128Y-113735000D01*
X161651925Y-113649110D01*
X162058669Y-113480631D01*
X162424729Y-113236038D01*
X162736038Y-112924729D01*
X162980631Y-112558669D01*
X163149110Y-112151925D01*
X163235000Y-111720128D01*
X163235000Y-111279872D01*
X163149110Y-110848075D01*
X162980631Y-110441331D01*
X162736038Y-110075271D01*
X162424729Y-109763962D01*
X162058669Y-109519369D01*
X161651925Y-109350890D01*
X161220128Y-109265000D01*
X160779872Y-109265000D01*
X160348075Y-109350890D01*
X159941331Y-109519369D01*
X159575271Y-109763962D01*
X159263962Y-110075271D01*
X159019369Y-110441331D01*
X158850890Y-110848075D01*
X158765000Y-111279872D01*
X91835000Y-111279872D01*
X91835000Y-104830408D01*
X92023000Y-104830408D01*
X92023000Y-105105592D01*
X92076686Y-105375490D01*
X92181995Y-105629727D01*
X92334880Y-105858535D01*
X92529465Y-106053120D01*
X92758273Y-106206005D01*
X93012510Y-106311314D01*
X93282408Y-106365000D01*
X93557592Y-106365000D01*
X93623102Y-106351969D01*
X95462582Y-108191450D01*
X95488732Y-108223314D01*
X95615876Y-108327658D01*
X95615877Y-108327659D01*
X95760936Y-108405195D01*
X95918334Y-108452941D01*
X96082022Y-108469063D01*
X96123041Y-108465023D01*
X106089005Y-108465023D01*
X106130023Y-108469063D01*
X106171041Y-108465023D01*
X106171042Y-108465023D01*
X106293712Y-108452941D01*
X106451110Y-108405195D01*
X106596169Y-108327659D01*
X106723314Y-108223314D01*
X106749469Y-108191444D01*
X109605914Y-105335000D01*
X118068632Y-105335000D01*
X118076686Y-105375490D01*
X118181995Y-105629727D01*
X118334880Y-105858535D01*
X118529465Y-106053120D01*
X118758273Y-106206005D01*
X119012510Y-106311314D01*
X119282408Y-106365000D01*
X119557592Y-106365000D01*
X119623102Y-106351969D01*
X121462585Y-108191454D01*
X121488731Y-108223313D01*
X121615876Y-108327658D01*
X121760935Y-108405194D01*
X121918333Y-108452940D01*
X122041003Y-108465022D01*
X122041004Y-108465022D01*
X122082022Y-108469062D01*
X122123040Y-108465022D01*
X132828960Y-108465022D01*
X132869978Y-108469062D01*
X132910996Y-108465022D01*
X132910997Y-108465022D01*
X133033667Y-108452940D01*
X133191065Y-108405194D01*
X133336124Y-108327658D01*
X133463269Y-108223313D01*
X133489424Y-108191443D01*
X136797868Y-104883000D01*
X144023000Y-104883000D01*
X144023000Y-105105592D01*
X144076686Y-105375490D01*
X144181995Y-105629727D01*
X144334880Y-105858535D01*
X144529465Y-106053120D01*
X144758273Y-106206005D01*
X145012510Y-106311314D01*
X145282408Y-106365000D01*
X145557592Y-106365000D01*
X145827490Y-106311314D01*
X146081727Y-106206005D01*
X146310535Y-106053120D01*
X146505120Y-105858535D01*
X146658005Y-105629727D01*
X146690000Y-105552485D01*
X146721995Y-105629727D01*
X146874880Y-105858535D01*
X147069465Y-106053120D01*
X147298273Y-106206005D01*
X147552510Y-106311314D01*
X147822408Y-106365000D01*
X148097592Y-106365000D01*
X148367490Y-106311314D01*
X148621727Y-106206005D01*
X148850535Y-106053120D01*
X149045120Y-105858535D01*
X149198005Y-105629727D01*
X149230000Y-105552485D01*
X149261995Y-105629727D01*
X149414880Y-105858535D01*
X149609465Y-106053120D01*
X149838273Y-106206005D01*
X150092510Y-106311314D01*
X150362408Y-106365000D01*
X150637592Y-106365000D01*
X150907490Y-106311314D01*
X151161727Y-106206005D01*
X151390535Y-106053120D01*
X151585120Y-105858535D01*
X151738005Y-105629727D01*
X151770000Y-105552485D01*
X151801995Y-105629727D01*
X151954880Y-105858535D01*
X152149465Y-106053120D01*
X152378273Y-106206005D01*
X152632510Y-106311314D01*
X152902408Y-106365000D01*
X153177592Y-106365000D01*
X153447490Y-106311314D01*
X153701727Y-106206005D01*
X153930535Y-106053120D01*
X154125120Y-105858535D01*
X154278005Y-105629727D01*
X154310000Y-105552485D01*
X154341995Y-105629727D01*
X154494880Y-105858535D01*
X154689465Y-106053120D01*
X154918273Y-106206005D01*
X155172510Y-106311314D01*
X155442408Y-106365000D01*
X155717592Y-106365000D01*
X155987490Y-106311314D01*
X156241727Y-106206005D01*
X156470535Y-106053120D01*
X156665120Y-105858535D01*
X156818005Y-105629727D01*
X156923314Y-105375490D01*
X156977000Y-105105592D01*
X156977000Y-104830408D01*
X156923314Y-104560510D01*
X156818005Y-104306273D01*
X156665120Y-104077465D01*
X156470535Y-103882880D01*
X156241727Y-103729995D01*
X155987490Y-103624686D01*
X155717592Y-103571000D01*
X155442408Y-103571000D01*
X155376899Y-103584031D01*
X153131414Y-101338547D01*
X153105259Y-101306677D01*
X152978114Y-101202332D01*
X152833055Y-101124796D01*
X152675657Y-101077050D01*
X152552987Y-101064968D01*
X152552986Y-101064968D01*
X152511968Y-101060928D01*
X152470950Y-101064968D01*
X135440975Y-101064968D01*
X135399967Y-101060929D01*
X135358959Y-101064968D01*
X135358949Y-101064968D01*
X135236279Y-101077050D01*
X135078881Y-101124796D01*
X134933822Y-101202332D01*
X134806677Y-101306677D01*
X134780527Y-101338541D01*
X131986069Y-104133000D01*
X130702227Y-104133000D01*
X130665120Y-104077465D01*
X130470535Y-103882880D01*
X130241727Y-103729995D01*
X129987490Y-103624686D01*
X129717592Y-103571000D01*
X129442408Y-103571000D01*
X129376898Y-103584031D01*
X127537423Y-101744556D01*
X127511268Y-101712686D01*
X127384123Y-101608341D01*
X127239064Y-101530805D01*
X127081666Y-101483059D01*
X126958996Y-101470977D01*
X126958995Y-101470977D01*
X126917977Y-101466937D01*
X126876959Y-101470977D01*
X108346995Y-101470977D01*
X108305976Y-101466937D01*
X108264958Y-101470977D01*
X108142288Y-101483059D01*
X107984890Y-101530805D01*
X107839831Y-101608341D01*
X107712686Y-101712686D01*
X107686536Y-101744550D01*
X105298087Y-104133000D01*
X104702227Y-104133000D01*
X104665120Y-104077465D01*
X104470535Y-103882880D01*
X104241727Y-103729995D01*
X103987490Y-103624686D01*
X103717592Y-103571000D01*
X103442408Y-103571000D01*
X103172510Y-103624686D01*
X102918273Y-103729995D01*
X102689465Y-103882880D01*
X102494880Y-104077465D01*
X102341995Y-104306273D01*
X102310000Y-104383515D01*
X102278005Y-104306273D01*
X102125120Y-104077465D01*
X101930535Y-103882880D01*
X101701727Y-103729995D01*
X101447490Y-103624686D01*
X101177592Y-103571000D01*
X100902408Y-103571000D01*
X100632510Y-103624686D01*
X100378273Y-103729995D01*
X100149465Y-103882880D01*
X99954880Y-104077465D01*
X99801995Y-104306273D01*
X99770000Y-104383515D01*
X99738005Y-104306273D01*
X99585120Y-104077465D01*
X99390535Y-103882880D01*
X99161727Y-103729995D01*
X98907490Y-103624686D01*
X98637592Y-103571000D01*
X98362408Y-103571000D01*
X98092510Y-103624686D01*
X97838273Y-103729995D01*
X97609465Y-103882880D01*
X97414880Y-104077465D01*
X97261995Y-104306273D01*
X97230000Y-104383515D01*
X97198005Y-104306273D01*
X97045120Y-104077465D01*
X96850535Y-103882880D01*
X96621727Y-103729995D01*
X96367490Y-103624686D01*
X96097592Y-103571000D01*
X95822408Y-103571000D01*
X95552510Y-103624686D01*
X95298273Y-103729995D01*
X95069465Y-103882880D01*
X94874880Y-104077465D01*
X94721995Y-104306273D01*
X94690000Y-104383515D01*
X94658005Y-104306273D01*
X94505120Y-104077465D01*
X94310535Y-103882880D01*
X94081727Y-103729995D01*
X93827490Y-103624686D01*
X93557592Y-103571000D01*
X93282408Y-103571000D01*
X93012510Y-103624686D01*
X92758273Y-103729995D01*
X92529465Y-103882880D01*
X92334880Y-104077465D01*
X92181995Y-104306273D01*
X92076686Y-104560510D01*
X92023000Y-104830408D01*
X91835000Y-104830408D01*
X91835000Y-102345867D01*
X93345868Y-100835000D01*
X106300578Y-100835000D01*
X106308353Y-100842775D01*
X106486060Y-100961515D01*
X106683517Y-101043304D01*
X106893137Y-101085000D01*
X107106863Y-101085000D01*
X107316483Y-101043304D01*
X107513940Y-100961515D01*
X107691647Y-100842775D01*
X107842775Y-100691647D01*
X107961515Y-100513940D01*
X108043304Y-100316483D01*
X108085000Y-100106863D01*
X108085000Y-99893137D01*
X108043304Y-99683517D01*
X107961515Y-99486060D01*
X107842775Y-99308353D01*
X107691647Y-99157225D01*
X107513940Y-99038485D01*
X107316483Y-98956696D01*
X107106863Y-98915000D01*
X106893137Y-98915000D01*
X106683517Y-98956696D01*
X106486060Y-99038485D01*
X106308353Y-99157225D01*
X106300578Y-99165000D01*
X93041018Y-99165000D01*
X92999999Y-99160960D01*
X92958981Y-99165000D01*
X92836311Y-99177082D01*
X92678913Y-99224828D01*
X92533854Y-99302364D01*
X92406709Y-99406709D01*
X92380559Y-99438573D01*
X90438579Y-101380554D01*
X90406709Y-101406709D01*
X90344051Y-101483059D01*
X90302364Y-101533855D01*
X90224828Y-101678914D01*
X90177082Y-101836312D01*
X90160960Y-102000000D01*
X90165000Y-102041019D01*
X90165001Y-113800577D01*
X90157225Y-113808353D01*
X90038485Y-113986060D01*
X89956696Y-114183517D01*
X89915000Y-114393137D01*
X83660000Y-114393137D01*
X83660000Y-110779872D01*
X83765000Y-110779872D01*
X83765000Y-111220128D01*
X83850890Y-111651925D01*
X84019369Y-112058669D01*
X84263962Y-112424729D01*
X84575271Y-112736038D01*
X84941331Y-112980631D01*
X85348075Y-113149110D01*
X85779872Y-113235000D01*
X86220128Y-113235000D01*
X86651925Y-113149110D01*
X87058669Y-112980631D01*
X87424729Y-112736038D01*
X87736038Y-112424729D01*
X87980631Y-112058669D01*
X88149110Y-111651925D01*
X88235000Y-111220128D01*
X88235000Y-110779872D01*
X88149110Y-110348075D01*
X87980631Y-109941331D01*
X87736038Y-109575271D01*
X87424729Y-109263962D01*
X87058669Y-109019369D01*
X86651925Y-108850890D01*
X86220128Y-108765000D01*
X85779872Y-108765000D01*
X85348075Y-108850890D01*
X84941331Y-109019369D01*
X84575271Y-109263962D01*
X84263962Y-109575271D01*
X84019369Y-109941331D01*
X83850890Y-110348075D01*
X83765000Y-110779872D01*
X83660000Y-110779872D01*
X83660000Y-98973604D01*
X88630693Y-98973604D01*
X88630693Y-99157782D01*
X88666625Y-99338422D01*
X88737107Y-99508582D01*
X88839431Y-99661721D01*
X88969665Y-99791955D01*
X89122804Y-99894279D01*
X89292964Y-99964761D01*
X89473604Y-100000693D01*
X89657782Y-100000693D01*
X89838422Y-99964761D01*
X90008582Y-99894279D01*
X90161721Y-99791955D01*
X90291955Y-99661721D01*
X90394279Y-99508582D01*
X90458347Y-99353906D01*
X90977254Y-98835000D01*
X105572596Y-98835000D01*
X105727271Y-98899068D01*
X105907911Y-98935000D01*
X106092089Y-98935000D01*
X106272729Y-98899068D01*
X106442889Y-98828586D01*
X106596028Y-98726262D01*
X106726262Y-98596028D01*
X106828586Y-98442889D01*
X106899068Y-98272729D01*
X106935000Y-98092089D01*
X106935000Y-97907911D01*
X106899068Y-97727271D01*
X106828586Y-97557111D01*
X106726262Y-97403972D01*
X106596028Y-97273738D01*
X106442889Y-97171414D01*
X106272729Y-97100932D01*
X106092089Y-97065000D01*
X105907911Y-97065000D01*
X105727271Y-97100932D01*
X105572596Y-97165000D01*
X90672393Y-97165000D01*
X90631385Y-97160961D01*
X90590377Y-97165000D01*
X90590367Y-97165000D01*
X90467697Y-97177082D01*
X90310299Y-97224828D01*
X90165240Y-97302364D01*
X90038095Y-97406709D01*
X90011944Y-97438574D01*
X89277480Y-98173039D01*
X89122804Y-98237107D01*
X88969665Y-98339431D01*
X88839431Y-98469665D01*
X88737107Y-98622804D01*
X88666625Y-98792964D01*
X88630693Y-98973604D01*
X83660000Y-98973604D01*
X83660000Y-95407911D01*
X90065000Y-95407911D01*
X90065000Y-95592089D01*
X90100932Y-95772729D01*
X90171414Y-95942889D01*
X90273738Y-96096028D01*
X90403972Y-96226262D01*
X90557111Y-96328586D01*
X90711788Y-96392655D01*
X90755554Y-96436421D01*
X90781709Y-96468291D01*
X90908854Y-96572636D01*
X91053913Y-96650172D01*
X91211311Y-96697918D01*
X91374999Y-96714040D01*
X91416018Y-96710000D01*
X108583982Y-96710000D01*
X108625000Y-96714040D01*
X108666018Y-96710000D01*
X108666019Y-96710000D01*
X108788689Y-96697918D01*
X108946087Y-96650172D01*
X109091146Y-96572636D01*
X109218291Y-96468291D01*
X109244446Y-96436422D01*
X110288215Y-95392654D01*
X110442889Y-95328586D01*
X110596028Y-95226262D01*
X110726262Y-95096028D01*
X110828586Y-94942889D01*
X110899068Y-94772729D01*
X110935000Y-94592089D01*
X110935000Y-94407911D01*
X110899068Y-94227271D01*
X110828586Y-94057111D01*
X110726262Y-93903972D01*
X110596028Y-93773738D01*
X110442889Y-93671414D01*
X110272729Y-93600932D01*
X110092089Y-93565000D01*
X109907911Y-93565000D01*
X109727271Y-93600932D01*
X109557111Y-93671414D01*
X109403972Y-93773738D01*
X109273738Y-93903972D01*
X109171414Y-94057111D01*
X109107346Y-94211785D01*
X108279133Y-95040000D01*
X103140867Y-95040000D01*
X106561428Y-91619440D01*
X106593291Y-91593291D01*
X106697636Y-91466146D01*
X106775172Y-91321087D01*
X106822918Y-91163689D01*
X106835000Y-91041019D01*
X106835000Y-91041017D01*
X106839040Y-91000001D01*
X106835000Y-90958985D01*
X106835000Y-89927404D01*
X106899068Y-89772729D01*
X106935000Y-89592089D01*
X106935000Y-89407911D01*
X106899068Y-89227271D01*
X106835000Y-89072596D01*
X106835000Y-88845867D01*
X111561432Y-84119437D01*
X111593291Y-84093291D01*
X111697636Y-83966146D01*
X111775172Y-83821087D01*
X111822918Y-83663689D01*
X111835000Y-83541019D01*
X111839040Y-83500000D01*
X111835000Y-83458982D01*
X111835000Y-81927404D01*
X111899068Y-81772729D01*
X111935000Y-81592089D01*
X111935000Y-81535000D01*
X128965001Y-81535000D01*
X128965000Y-84949172D01*
X128959994Y-85000000D01*
X128965000Y-85050828D01*
X128965000Y-85050837D01*
X128979976Y-85202894D01*
X129039159Y-85397992D01*
X129135266Y-85577797D01*
X129264604Y-85735396D01*
X129304097Y-85767807D01*
X131030181Y-87493892D01*
X131038485Y-87513940D01*
X131157225Y-87691647D01*
X131308353Y-87842775D01*
X131486060Y-87961515D01*
X131683517Y-88043304D01*
X131893137Y-88085000D01*
X132106863Y-88085000D01*
X132316483Y-88043304D01*
X132513940Y-87961515D01*
X132691647Y-87842775D01*
X132842775Y-87691647D01*
X132961515Y-87513940D01*
X133043304Y-87316483D01*
X133085000Y-87106863D01*
X133085000Y-86893137D01*
X133043304Y-86683517D01*
X132961515Y-86486060D01*
X132909298Y-86407911D01*
X135065000Y-86407911D01*
X135065000Y-86592089D01*
X135100932Y-86772729D01*
X135171414Y-86942889D01*
X135273738Y-87096028D01*
X135403972Y-87226262D01*
X135557111Y-87328586D01*
X135727271Y-87399068D01*
X135907911Y-87435000D01*
X136092089Y-87435000D01*
X136223055Y-87408949D01*
X136591051Y-87776945D01*
X136565000Y-87907911D01*
X136565000Y-88092089D01*
X136600932Y-88272729D01*
X136671414Y-88442889D01*
X136773738Y-88596028D01*
X136903972Y-88726262D01*
X137057111Y-88828586D01*
X137227271Y-88899068D01*
X137407911Y-88935000D01*
X137592089Y-88935000D01*
X137772729Y-88899068D01*
X137942889Y-88828586D01*
X138096028Y-88726262D01*
X138226262Y-88596028D01*
X138328586Y-88442889D01*
X138399068Y-88272729D01*
X138435000Y-88092089D01*
X138435000Y-87907911D01*
X138399068Y-87727271D01*
X138328586Y-87557111D01*
X138279767Y-87484048D01*
X138273641Y-87421849D01*
X138271564Y-87415000D01*
X138245350Y-87328586D01*
X138228754Y-87273876D01*
X138155862Y-87137503D01*
X138106450Y-87077295D01*
X138082345Y-87047923D01*
X138082342Y-87047920D01*
X138057764Y-87017972D01*
X138027815Y-86993393D01*
X137006611Y-85972190D01*
X136982028Y-85942236D01*
X136862497Y-85844138D01*
X136726124Y-85771246D01*
X136578151Y-85726359D01*
X136515951Y-85720233D01*
X136442889Y-85671414D01*
X136272729Y-85600932D01*
X136092089Y-85565000D01*
X135907911Y-85565000D01*
X135727271Y-85600932D01*
X135557111Y-85671414D01*
X135403972Y-85773738D01*
X135273738Y-85903972D01*
X135171414Y-86057111D01*
X135100932Y-86227271D01*
X135065000Y-86407911D01*
X132909298Y-86407911D01*
X132842775Y-86308353D01*
X132691647Y-86157225D01*
X132513940Y-86038485D01*
X132493892Y-86030181D01*
X131121622Y-84657911D01*
X134315000Y-84657911D01*
X134315000Y-84842089D01*
X134350932Y-85022729D01*
X134421414Y-85192889D01*
X134523738Y-85346028D01*
X134653972Y-85476262D01*
X134807111Y-85578586D01*
X134977271Y-85649068D01*
X135157911Y-85685000D01*
X135342089Y-85685000D01*
X135522729Y-85649068D01*
X135692889Y-85578586D01*
X135846028Y-85476262D01*
X135976262Y-85346028D01*
X136078586Y-85192889D01*
X136149068Y-85022729D01*
X136164374Y-84945783D01*
X137195783Y-83914374D01*
X137272729Y-83899068D01*
X137442889Y-83828586D01*
X137596028Y-83726262D01*
X137726262Y-83596028D01*
X137828586Y-83442889D01*
X137899068Y-83272729D01*
X137935000Y-83092089D01*
X137935000Y-82907911D01*
X137899068Y-82727271D01*
X137828586Y-82557111D01*
X137726262Y-82403972D01*
X137596028Y-82273738D01*
X137442889Y-82171414D01*
X137272729Y-82100932D01*
X137092089Y-82065000D01*
X136907911Y-82065000D01*
X136727271Y-82100932D01*
X136557111Y-82171414D01*
X136403972Y-82273738D01*
X136273738Y-82403972D01*
X136171414Y-82557111D01*
X136100932Y-82727271D01*
X136085626Y-82804217D01*
X135054217Y-83835626D01*
X134977271Y-83850932D01*
X134807111Y-83921414D01*
X134653972Y-84023738D01*
X134523738Y-84153972D01*
X134421414Y-84307111D01*
X134350932Y-84477271D01*
X134315000Y-84657911D01*
X131121622Y-84657911D01*
X131035000Y-84571290D01*
X131035000Y-81535000D01*
X139663469Y-81535000D01*
X139683517Y-81543304D01*
X139893137Y-81585000D01*
X140106863Y-81585000D01*
X140316483Y-81543304D01*
X140336531Y-81535000D01*
X153050838Y-81535000D01*
X153202895Y-81520024D01*
X153397993Y-81460841D01*
X153577797Y-81364734D01*
X153735396Y-81235396D01*
X153864734Y-81077797D01*
X153960841Y-80897993D01*
X154020024Y-80702895D01*
X154040007Y-80500000D01*
X154020024Y-80297105D01*
X153960841Y-80102007D01*
X153864734Y-79922203D01*
X153735396Y-79764604D01*
X153577797Y-79635266D01*
X153397993Y-79539159D01*
X153202895Y-79479976D01*
X153050838Y-79465000D01*
X140336531Y-79465000D01*
X140316483Y-79456696D01*
X140106863Y-79415000D01*
X139893137Y-79415000D01*
X139683517Y-79456696D01*
X139663469Y-79465000D01*
X130050838Y-79465000D01*
X130000000Y-79459993D01*
X129949162Y-79465000D01*
X110336531Y-79465000D01*
X110316483Y-79456696D01*
X110106863Y-79415000D01*
X109893137Y-79415000D01*
X109683517Y-79456696D01*
X109663469Y-79465000D01*
X104535000Y-79465000D01*
X104535000Y-78836531D01*
X104543304Y-78816483D01*
X104585000Y-78606863D01*
X104585000Y-78393137D01*
X104543304Y-78183517D01*
X104461515Y-77986060D01*
X104342775Y-77808353D01*
X104191647Y-77657225D01*
X104013940Y-77538485D01*
X103816483Y-77456696D01*
X103606863Y-77415000D01*
X103393137Y-77415000D01*
X103183517Y-77456696D01*
X102986060Y-77538485D01*
X102808353Y-77657225D01*
X102657225Y-77808353D01*
X102538485Y-77986060D01*
X102456696Y-78183517D01*
X102415000Y-78393137D01*
X102415000Y-78606863D01*
X102456696Y-78816483D01*
X102465000Y-78836532D01*
X102465001Y-79449154D01*
X102465000Y-79449163D01*
X102465000Y-79465000D01*
X98449162Y-79465000D01*
X98297105Y-79479976D01*
X98102007Y-79539159D01*
X97922203Y-79635266D01*
X97764604Y-79764604D01*
X97635266Y-79922203D01*
X97539159Y-80102007D01*
X97479976Y-80297105D01*
X97459993Y-80500000D01*
X97479976Y-80702895D01*
X97539159Y-80897993D01*
X97635266Y-81077797D01*
X97764604Y-81235396D01*
X97922203Y-81364734D01*
X98102007Y-81460841D01*
X98297105Y-81520024D01*
X98449162Y-81535000D01*
X102465000Y-81535000D01*
X102465001Y-87949162D01*
X102459994Y-88000000D01*
X102479977Y-88202895D01*
X102539160Y-88397993D01*
X102635266Y-88577797D01*
X102712096Y-88671414D01*
X102764605Y-88735396D01*
X102804093Y-88767803D01*
X103030180Y-88993890D01*
X103038485Y-89013940D01*
X103157225Y-89191647D01*
X103308353Y-89342775D01*
X103486060Y-89461515D01*
X103683517Y-89543304D01*
X103893137Y-89585000D01*
X104106863Y-89585000D01*
X104316483Y-89543304D01*
X104513940Y-89461515D01*
X104691647Y-89342775D01*
X104842775Y-89191647D01*
X104961515Y-89013940D01*
X105043304Y-88816483D01*
X105085000Y-88606863D01*
X105085000Y-88393137D01*
X105043304Y-88183517D01*
X104961515Y-87986060D01*
X104842775Y-87808353D01*
X104691647Y-87657225D01*
X104535000Y-87552557D01*
X104535000Y-81535000D01*
X109663469Y-81535000D01*
X109683517Y-81543304D01*
X109893137Y-81585000D01*
X110065000Y-81585000D01*
X110065000Y-81592089D01*
X110100932Y-81772729D01*
X110165000Y-81927405D01*
X110165001Y-83154130D01*
X105438579Y-87880554D01*
X105406709Y-87906709D01*
X105313716Y-88020023D01*
X105302364Y-88033855D01*
X105224828Y-88178914D01*
X105177082Y-88336312D01*
X105160960Y-88500000D01*
X105165000Y-88541019D01*
X105165001Y-89072595D01*
X105100932Y-89227271D01*
X105065000Y-89407911D01*
X105065000Y-89592089D01*
X105100932Y-89772729D01*
X105165001Y-89927406D01*
X105165000Y-90654132D01*
X101654133Y-94165000D01*
X93427404Y-94165000D01*
X93272729Y-94100932D01*
X93092089Y-94065000D01*
X92907911Y-94065000D01*
X92727271Y-94100932D01*
X92557111Y-94171414D01*
X92403972Y-94273738D01*
X92273738Y-94403972D01*
X92171414Y-94557111D01*
X92100932Y-94727271D01*
X92065000Y-94907911D01*
X92065000Y-95040000D01*
X91817153Y-95040000D01*
X91726262Y-94903972D01*
X91596028Y-94773738D01*
X91442889Y-94671414D01*
X91272729Y-94600932D01*
X91092089Y-94565000D01*
X90907911Y-94565000D01*
X90727271Y-94600932D01*
X90557111Y-94671414D01*
X90403972Y-94773738D01*
X90273738Y-94903972D01*
X90171414Y-95057111D01*
X90100932Y-95227271D01*
X90065000Y-95407911D01*
X83660000Y-95407911D01*
X83660000Y-74350408D01*
X92023000Y-74350408D01*
X92023000Y-74625592D01*
X92076686Y-74895490D01*
X92181995Y-75149727D01*
X92334880Y-75378535D01*
X92529465Y-75573120D01*
X92758273Y-75726005D01*
X93012510Y-75831314D01*
X93282408Y-75885000D01*
X93557592Y-75885000D01*
X93827490Y-75831314D01*
X94081727Y-75726005D01*
X94310535Y-75573120D01*
X94505120Y-75378535D01*
X94658005Y-75149727D01*
X94690000Y-75072485D01*
X94721995Y-75149727D01*
X94874880Y-75378535D01*
X95069465Y-75573120D01*
X95298273Y-75726005D01*
X95552510Y-75831314D01*
X95822408Y-75885000D01*
X96097592Y-75885000D01*
X96367490Y-75831314D01*
X96621727Y-75726005D01*
X96850535Y-75573120D01*
X97045120Y-75378535D01*
X97198005Y-75149727D01*
X97230000Y-75072485D01*
X97261995Y-75149727D01*
X97414880Y-75378535D01*
X97609465Y-75573120D01*
X97838273Y-75726005D01*
X98092510Y-75831314D01*
X98362408Y-75885000D01*
X98637592Y-75885000D01*
X98907490Y-75831314D01*
X99161727Y-75726005D01*
X99390535Y-75573120D01*
X99585120Y-75378535D01*
X99738005Y-75149727D01*
X99770000Y-75072485D01*
X99801995Y-75149727D01*
X99954880Y-75378535D01*
X100149465Y-75573120D01*
X100378273Y-75726005D01*
X100632510Y-75831314D01*
X100902408Y-75885000D01*
X101177592Y-75885000D01*
X101447490Y-75831314D01*
X101701727Y-75726005D01*
X101930535Y-75573120D01*
X102125120Y-75378535D01*
X102278005Y-75149727D01*
X102310000Y-75072485D01*
X102341995Y-75149727D01*
X102494880Y-75378535D01*
X102689465Y-75573120D01*
X102918273Y-75726005D01*
X103172510Y-75831314D01*
X103442408Y-75885000D01*
X103717592Y-75885000D01*
X103987490Y-75831314D01*
X104241727Y-75726005D01*
X104470535Y-75573120D01*
X104665120Y-75378535D01*
X104702227Y-75323000D01*
X105142133Y-75323000D01*
X107530585Y-77711454D01*
X107556731Y-77743313D01*
X107588590Y-77769459D01*
X107588592Y-77769461D01*
X107683876Y-77847658D01*
X107828935Y-77925194D01*
X107986333Y-77972940D01*
X108109003Y-77985022D01*
X108109004Y-77985022D01*
X108150022Y-77989062D01*
X108191040Y-77985022D01*
X126876960Y-77985022D01*
X126917978Y-77989062D01*
X126958996Y-77985022D01*
X126958997Y-77985022D01*
X127081667Y-77972940D01*
X127239065Y-77925194D01*
X127384124Y-77847658D01*
X127511269Y-77743313D01*
X127537424Y-77711443D01*
X129376899Y-75871969D01*
X129442408Y-75885000D01*
X129717592Y-75885000D01*
X129987490Y-75831314D01*
X130241727Y-75726005D01*
X130470535Y-75573120D01*
X130665120Y-75378535D01*
X130702227Y-75323000D01*
X131142133Y-75323000D01*
X133980595Y-78161464D01*
X134006741Y-78193323D01*
X134038600Y-78219469D01*
X134038602Y-78219471D01*
X134133886Y-78297668D01*
X134278945Y-78375204D01*
X134436343Y-78422950D01*
X134600032Y-78439072D01*
X134641050Y-78435032D01*
X152426950Y-78435032D01*
X152467968Y-78439072D01*
X152508986Y-78435032D01*
X152508987Y-78435032D01*
X152631657Y-78422950D01*
X152789055Y-78375204D01*
X152934114Y-78297668D01*
X153061259Y-78193323D01*
X153087414Y-78161453D01*
X155376899Y-75871969D01*
X155442408Y-75885000D01*
X155717592Y-75885000D01*
X155987490Y-75831314D01*
X156241727Y-75726005D01*
X156470535Y-75573120D01*
X156665120Y-75378535D01*
X156818005Y-75149727D01*
X156923314Y-74895490D01*
X156977000Y-74625592D01*
X156977000Y-74350408D01*
X156923314Y-74080510D01*
X156818005Y-73826273D01*
X156665120Y-73597465D01*
X156470535Y-73402880D01*
X156241727Y-73249995D01*
X155987490Y-73144686D01*
X155717592Y-73091000D01*
X155442408Y-73091000D01*
X155172510Y-73144686D01*
X154918273Y-73249995D01*
X154689465Y-73402880D01*
X154494880Y-73597465D01*
X154341995Y-73826273D01*
X154310000Y-73903515D01*
X154278005Y-73826273D01*
X154125120Y-73597465D01*
X153930535Y-73402880D01*
X153701727Y-73249995D01*
X153447490Y-73144686D01*
X153177592Y-73091000D01*
X152902408Y-73091000D01*
X152632510Y-73144686D01*
X152378273Y-73249995D01*
X152149465Y-73402880D01*
X151954880Y-73597465D01*
X151801995Y-73826273D01*
X151770000Y-73903515D01*
X151738005Y-73826273D01*
X151585120Y-73597465D01*
X151390535Y-73402880D01*
X151161727Y-73249995D01*
X150907490Y-73144686D01*
X150637592Y-73091000D01*
X150362408Y-73091000D01*
X150092510Y-73144686D01*
X149838273Y-73249995D01*
X149609465Y-73402880D01*
X149414880Y-73597465D01*
X149261995Y-73826273D01*
X149230000Y-73903515D01*
X149198005Y-73826273D01*
X149045120Y-73597465D01*
X148850535Y-73402880D01*
X148621727Y-73249995D01*
X148367490Y-73144686D01*
X148097592Y-73091000D01*
X147822408Y-73091000D01*
X147552510Y-73144686D01*
X147298273Y-73249995D01*
X147069465Y-73402880D01*
X146874880Y-73597465D01*
X146721995Y-73826273D01*
X146690000Y-73903515D01*
X146658005Y-73826273D01*
X146505120Y-73597465D01*
X146310535Y-73402880D01*
X146081727Y-73249995D01*
X145827490Y-73144686D01*
X145557592Y-73091000D01*
X145282408Y-73091000D01*
X145012510Y-73144686D01*
X144758273Y-73249995D01*
X144529465Y-73402880D01*
X144334880Y-73597465D01*
X144297773Y-73653000D01*
X135333868Y-73653000D01*
X133165867Y-71485000D01*
X133436033Y-71485000D01*
X133751912Y-71422168D01*
X134049463Y-71298918D01*
X134317252Y-71119987D01*
X134544987Y-70892252D01*
X134723918Y-70624463D01*
X134847168Y-70326912D01*
X134910000Y-70011033D01*
X134910000Y-69750448D01*
X134990256Y-69717205D01*
X135159774Y-69603937D01*
X135303937Y-69459774D01*
X135417205Y-69290256D01*
X135495226Y-69101898D01*
X135535000Y-68901939D01*
X135535000Y-68698061D01*
X138465000Y-68698061D01*
X138465000Y-68901939D01*
X138504774Y-69101898D01*
X138582795Y-69290256D01*
X138696063Y-69459774D01*
X138840226Y-69603937D01*
X139009744Y-69717205D01*
X139090000Y-69750448D01*
X139090000Y-70011033D01*
X139152832Y-70326912D01*
X139276082Y-70624463D01*
X139455013Y-70892252D01*
X139682748Y-71119987D01*
X139950537Y-71298918D01*
X140248088Y-71422168D01*
X140563967Y-71485000D01*
X140886033Y-71485000D01*
X141201912Y-71422168D01*
X141499463Y-71298918D01*
X141767252Y-71119987D01*
X141994987Y-70892252D01*
X142173918Y-70624463D01*
X142297168Y-70326912D01*
X142360000Y-70011033D01*
X142360000Y-69688967D01*
X142297168Y-69373088D01*
X142173918Y-69075537D01*
X141994987Y-68807748D01*
X141767252Y-68580013D01*
X141499463Y-68401082D01*
X141201912Y-68277832D01*
X140886033Y-68215000D01*
X140563967Y-68215000D01*
X140378544Y-68251883D01*
X140303937Y-68140226D01*
X140159774Y-67996063D01*
X139990256Y-67882795D01*
X139801898Y-67804774D01*
X139601939Y-67765000D01*
X139398061Y-67765000D01*
X139198102Y-67804774D01*
X139009744Y-67882795D01*
X138840226Y-67996063D01*
X138696063Y-68140226D01*
X138582795Y-68309744D01*
X138504774Y-68498102D01*
X138465000Y-68698061D01*
X135535000Y-68698061D01*
X135495226Y-68498102D01*
X135417205Y-68309744D01*
X135303937Y-68140226D01*
X135159774Y-67996063D01*
X134990256Y-67882795D01*
X134801898Y-67804774D01*
X134601939Y-67765000D01*
X134398061Y-67765000D01*
X134198102Y-67804774D01*
X134009744Y-67882795D01*
X133840226Y-67996063D01*
X133696063Y-68140226D01*
X133621456Y-68251883D01*
X133436033Y-68215000D01*
X133113967Y-68215000D01*
X132798088Y-68277832D01*
X132500537Y-68401082D01*
X132232748Y-68580013D01*
X132005013Y-68807748D01*
X131826082Y-69075537D01*
X131702832Y-69373088D01*
X131640000Y-69688967D01*
X131640000Y-70011033D01*
X131702832Y-70326912D01*
X131826082Y-70624463D01*
X132005013Y-70892252D01*
X132103738Y-70990977D01*
X122123041Y-70990977D01*
X122082022Y-70986937D01*
X121918334Y-71003059D01*
X121760936Y-71050805D01*
X121615877Y-71128341D01*
X121488732Y-71232686D01*
X121462582Y-71264550D01*
X119623102Y-73104031D01*
X119557592Y-73091000D01*
X119282408Y-73091000D01*
X119012510Y-73144686D01*
X118758273Y-73249995D01*
X118529465Y-73402880D01*
X118334880Y-73597465D01*
X118297773Y-73653000D01*
X108833869Y-73653000D01*
X106445424Y-71264557D01*
X106419269Y-71232687D01*
X106292124Y-71128342D01*
X106147065Y-71050806D01*
X105989667Y-71003060D01*
X105866997Y-70990978D01*
X105866996Y-70990978D01*
X105825978Y-70986938D01*
X105784960Y-70990978D01*
X96123040Y-70990978D01*
X96082022Y-70986938D01*
X96041004Y-70990978D01*
X96041003Y-70990978D01*
X95918333Y-71003060D01*
X95760935Y-71050806D01*
X95615876Y-71128342D01*
X95488731Y-71232687D01*
X95462585Y-71264546D01*
X93623102Y-73104031D01*
X93557592Y-73091000D01*
X93282408Y-73091000D01*
X93012510Y-73144686D01*
X92758273Y-73249995D01*
X92529465Y-73402880D01*
X92334880Y-73597465D01*
X92181995Y-73826273D01*
X92076686Y-74080510D01*
X92023000Y-74350408D01*
X83660000Y-74350408D01*
X83660000Y-67532279D01*
X83684748Y-67279872D01*
X83765000Y-67279872D01*
X83765000Y-67720128D01*
X83850890Y-68151925D01*
X84019369Y-68558669D01*
X84263962Y-68924729D01*
X84575271Y-69236038D01*
X84941331Y-69480631D01*
X85348075Y-69649110D01*
X85779872Y-69735000D01*
X86220128Y-69735000D01*
X86651925Y-69649110D01*
X87058669Y-69480631D01*
X87424729Y-69236038D01*
X87736038Y-68924729D01*
X87980631Y-68558669D01*
X88149110Y-68151925D01*
X88235000Y-67720128D01*
X88235000Y-67279872D01*
X88149110Y-66848075D01*
X87980631Y-66441331D01*
X87736038Y-66075271D01*
X87424729Y-65763962D01*
X87058669Y-65519369D01*
X86651925Y-65350890D01*
X86220128Y-65265000D01*
X85779872Y-65265000D01*
X85348075Y-65350890D01*
X84941331Y-65519369D01*
X84575271Y-65763962D01*
X84263962Y-66075271D01*
X84019369Y-66441331D01*
X83850890Y-66848075D01*
X83765000Y-67279872D01*
X83684748Y-67279872D01*
X83707670Y-67046107D01*
X83839489Y-66609502D01*
X84053600Y-66206815D01*
X84341848Y-65853388D01*
X84693261Y-65562673D01*
X85094439Y-65345758D01*
X85530113Y-65210894D01*
X86014344Y-65160000D01*
X131873551Y-65160000D01*
X131764701Y-65322905D01*
G37*
%TD.AperFunction*%
%TD*%
M02*
