M48
; DRILL file {KiCad 5.1.8-db9833491~88~ubuntu20.04.1} date Tue Dec 22 13:10:20 2020
; FORMAT={-:-/ absolute / metric / decimal}
; #@! TF.CreationDate,2020-12-22T13:10:20+00:00
; #@! TF.GenerationSoftware,Kicad,Pcbnew,5.1.8-db9833491~88~ubuntu20.04.1
; #@! TF.FileFunction,Plated,1,2,PTH
FMAT,2
METRIC
T1C0.400
T2C0.600
T3C0.762
T4C1.000
T5C1.100
T6C1.200
T7C1.400
%
G90
G05
T1
X85.5Y-95.5
X88.0Y-73.0
X88.0Y-78.0
X88.0Y-133.0
X88.0Y-143.0
X88.0Y-153.0
X88.0Y-163.0
X88.0Y-173.0
X88.0Y-183.0
X89.566Y-99.066
X91.0Y-95.5
X93.0Y-95.0
X96.0Y-68.5
X98.0Y-103.0
X103.0Y-113.0
X103.0Y-133.0
X103.0Y-153.0
X103.0Y-173.0
X106.0Y-89.5
X106.0Y-98.0
X108.5Y-72.0
X110.0Y-94.5
X111.0Y-81.5
X112.0Y-100.0
X114.0Y-93.0
X115.0Y-107.0
X117.5Y-73.0
X118.0Y-83.0
X118.0Y-88.0
X121.0Y-91.0
X122.0Y-68.0
X123.0Y-83.0
X123.0Y-113.0
X123.0Y-133.0
X123.0Y-153.0
X123.0Y-173.0
X126.75Y-85.75
X128.0Y-98.0
X130.0Y-77.0
X132.0Y-81.5
X134.5Y-72.0
X135.375Y-72.875
X135.5Y-88.0
X135.7Y-71.8
X136.0Y-86.5
X136.0Y-107.0
X136.25Y-87.25
X137.5Y-88.0
X138.25Y-73.5
X139.75Y-78.75
X141.0Y-92.0
X143.0Y-98.0
X143.0Y-113.0
X143.0Y-133.0
X143.0Y-153.0
X143.0Y-173.0
X149.0Y-92.0
X151.0Y-88.25
X151.0Y-89.25
X151.011Y-87.317
X153.0Y-72.0
X153.0Y-98.0
X153.986Y-86.736
X154.0Y-84.0
X154.0Y-87.75
X154.0Y-88.75
X155.0Y-78.0
X158.0Y-123.0
X158.0Y-133.0
X158.0Y-143.0
X158.0Y-153.0
X158.0Y-163.0
X158.0Y-173.0
X158.0Y-173.0
X158.0Y-183.0
X163.0Y-73.0
X163.0Y-83.0
X163.0Y-93.0
X163.0Y-103.0
T2
X90.5Y-82.0
X91.0Y-114.5
X97.0Y-79.5
X98.502Y-87.252
X99.5Y-82.5
X102.5Y-90.5
X103.5Y-78.5
X104.0Y-88.5
X105.0Y-90.5
X107.0Y-100.0
X110.0Y-80.5
X122.5Y-80.5
X132.0Y-87.0
X140.0Y-81.0
X146.75Y-82.0
T3
X119.42Y-74.488
X119.42Y-104.968
X121.96Y-74.488
X121.96Y-104.968
X124.5Y-74.488
X124.5Y-104.968
X127.04Y-74.488
X127.04Y-104.968
X129.58Y-74.488
X129.58Y-104.968
X145.42Y-74.488
X145.42Y-104.968
X147.96Y-74.488
X147.96Y-104.968
X150.5Y-74.488
X150.5Y-104.968
X153.04Y-74.488
X153.04Y-104.968
X155.58Y-74.488
X155.58Y-104.968
X93.42Y-74.488
X93.42Y-104.968
X95.96Y-74.488
X95.96Y-104.968
X98.5Y-74.488
X98.5Y-104.968
X101.04Y-74.488
X101.04Y-104.968
X103.58Y-74.488
X103.58Y-104.968
T4
X87.0Y-120.96
X87.0Y-123.5
X87.0Y-126.04
X89.54Y-120.96
X89.54Y-123.5
X89.54Y-126.04
T5
X140.0Y-180.0
X140.0Y-184.5
X146.5Y-180.0
X146.5Y-184.5
X140.0Y-140.0
X140.0Y-144.5
X146.5Y-140.0
X146.5Y-144.5
X100.0Y-140.0
X100.0Y-144.5
X106.5Y-140.0
X106.5Y-144.5
X120.0Y-120.0
X120.0Y-124.5
X126.5Y-120.0
X126.5Y-124.5
X100.0Y-120.0
X100.0Y-124.5
X106.5Y-120.0
X106.5Y-124.5
X140.0Y-120.0
X140.0Y-124.5
X146.5Y-120.0
X146.5Y-124.5
X120.0Y-140.0
X120.0Y-144.5
X126.5Y-140.0
X126.5Y-144.5
X140.0Y-160.0
X140.0Y-164.5
X146.5Y-160.0
X146.5Y-164.5
X120.0Y-180.0
X120.0Y-184.5
X126.5Y-180.0
X126.5Y-184.5
X100.0Y-160.0
X100.0Y-164.5
X106.5Y-160.0
X106.5Y-164.5
X100.0Y-180.0
X100.0Y-184.5
X106.5Y-180.0
X106.5Y-184.5
X120.0Y-160.0
X120.0Y-164.5
X126.5Y-160.0
X126.5Y-164.5
T6
X133.125Y-66.05
X140.875Y-66.05
T7
X133.275Y-69.85
X140.725Y-69.85
T0
M30
