%TF.GenerationSoftware,KiCad,Pcbnew,5.1.9-73d0e3b20d~88~ubuntu20.04.1*%
%TF.CreationDate,2021-01-19T11:15:14+01:00*%
%TF.ProjectId,luncheonmeat,6c756e63-6865-46f6-9e6d-6561742e6b69,v0.2.4*%
%TF.SameCoordinates,PX4fa1be0PYb80f240*%
%TF.FileFunction,Soldermask,Bot*%
%TF.FilePolarity,Negative*%
%FSLAX46Y46*%
G04 Gerber Fmt 4.6, Leading zero omitted, Abs format (unit mm)*
G04 Created by KiCad (PCBNEW 5.1.9-73d0e3b20d~88~ubuntu20.04.1) date 2021-01-19 11:15:14*
%MOMM*%
%LPD*%
G01*
G04 APERTURE LIST*
%ADD10C,2.000000*%
%ADD11C,0.800000*%
%ADD12C,1.800000*%
%ADD13C,1.700000*%
%ADD14C,3.200000*%
%ADD15C,1.524000*%
G04 APERTURE END LIST*
D10*
%TO.C,SW3*%
X24250000Y33000000D03*
X24250000Y28500000D03*
X17750000Y33000000D03*
X17750000Y28500000D03*
%TD*%
%TO.C,SW11*%
X64250000Y33000000D03*
X64250000Y28500000D03*
X57750000Y33000000D03*
X57750000Y28500000D03*
%TD*%
%TO.C,SW10*%
X64250000Y53000000D03*
X64250000Y48500000D03*
X57750000Y53000000D03*
X57750000Y48500000D03*
%TD*%
%TO.C,SW7*%
X44250000Y33000000D03*
X44250000Y28500000D03*
X37750000Y33000000D03*
X37750000Y28500000D03*
%TD*%
%TO.C,SW2*%
X24250000Y53000000D03*
X24250000Y48500000D03*
X17750000Y53000000D03*
X17750000Y48500000D03*
%TD*%
D11*
%TO.C,J1*%
X51000000Y124200000D03*
X56000000Y124200000D03*
D12*
X49625000Y126950000D03*
X57375000Y126950000D03*
D10*
X49775000Y123150000D03*
X57225000Y123150000D03*
%TD*%
%TO.C,SW6*%
X44250000Y53000000D03*
X44250000Y48500000D03*
X37750000Y53000000D03*
X37750000Y48500000D03*
%TD*%
D13*
%TO.C,J2*%
X6040000Y66960000D03*
X6040000Y69500000D03*
X6040000Y72040000D03*
X3500000Y66960000D03*
X3500000Y69500000D03*
G36*
G01*
X2650000Y71440000D02*
X2650000Y72640000D01*
G75*
G02*
X2900000Y72890000I250000J0D01*
G01*
X4100000Y72890000D01*
G75*
G02*
X4350000Y72640000I0J-250000D01*
G01*
X4350000Y71440000D01*
G75*
G02*
X4100000Y71190000I-250000J0D01*
G01*
X2900000Y71190000D01*
G75*
G02*
X2650000Y71440000I0J250000D01*
G01*
G37*
%TD*%
D10*
%TO.C,SW12*%
X64250000Y13000000D03*
X64250000Y8500000D03*
X57750000Y13000000D03*
X57750000Y8500000D03*
%TD*%
%TO.C,SW9*%
X64250000Y73000000D03*
X64250000Y68500000D03*
X57750000Y73000000D03*
X57750000Y68500000D03*
%TD*%
%TO.C,SW8*%
X44250000Y13000000D03*
X44250000Y8500000D03*
X37750000Y13000000D03*
X37750000Y8500000D03*
%TD*%
%TO.C,SW5*%
X44250000Y73000000D03*
X44250000Y68500000D03*
X37750000Y73000000D03*
X37750000Y68500000D03*
%TD*%
%TO.C,SW4*%
X24250000Y13000000D03*
X24250000Y8500000D03*
X17750000Y13000000D03*
X17750000Y8500000D03*
%TD*%
%TO.C,SW1*%
X24250000Y73000000D03*
X24250000Y68500000D03*
X17750000Y73000000D03*
X17750000Y68500000D03*
%TD*%
D14*
%TO.C,H1*%
X3000000Y125500000D03*
%TD*%
%TO.C,H2*%
X3000000Y82000000D03*
%TD*%
%TO.C,H3*%
X3000000Y3000000D03*
%TD*%
%TO.C,H4*%
X77500000Y125500000D03*
%TD*%
%TO.C,H5*%
X77500000Y81500000D03*
%TD*%
%TO.C,H6*%
X77500000Y3000000D03*
%TD*%
D15*
%TO.C,U3*%
X65300000Y88032000D03*
X67840000Y88032000D03*
X62760000Y88032000D03*
X70380000Y88032000D03*
X60220000Y88032000D03*
X70380000Y118512000D03*
X67840000Y118512000D03*
X65300000Y118512000D03*
X62760000Y118512000D03*
X60220000Y118512000D03*
%TD*%
%TO.C,U4*%
X41000000Y88032000D03*
X43540000Y88032000D03*
X38460000Y88032000D03*
X46080000Y88032000D03*
X35920000Y88032000D03*
X46080000Y118512000D03*
X43540000Y118512000D03*
X41000000Y118512000D03*
X38460000Y118512000D03*
X35920000Y118512000D03*
%TD*%
%TO.C,U5*%
X11620000Y118512000D03*
X14160000Y118512000D03*
X16700000Y118512000D03*
X19240000Y118512000D03*
X21780000Y118512000D03*
X11620000Y88032000D03*
X21780000Y88032000D03*
X14160000Y88032000D03*
X19240000Y88032000D03*
X16700000Y88032000D03*
%TD*%
M02*
