%TF.GenerationSoftware,KiCad,Pcbnew,5.1.9-73d0e3b20d~88~ubuntu20.04.1*%
%TF.CreationDate,2021-01-19T11:15:14+01:00*%
%TF.ProjectId,luncheonmeat,6c756e63-6865-46f6-9e6d-6561742e6b69,v0.2.4*%
%TF.SameCoordinates,PX4fa1be0PYb80f240*%
%TF.FileFunction,Paste,Top*%
%TF.FilePolarity,Positive*%
%FSLAX46Y46*%
G04 Gerber Fmt 4.6, Leading zero omitted, Abs format (unit mm)*
G04 Created by KiCad (PCBNEW 5.1.9-73d0e3b20d~88~ubuntu20.04.1) date 2021-01-19 11:15:14*
%MOMM*%
%LPD*%
G01*
G04 APERTURE LIST*
%ADD10C,0.150000*%
%ADD11R,2.800000X1.000000*%
%ADD12R,0.800000X0.900000*%
%ADD13R,0.450000X1.300000*%
%ADD14R,1.200000X0.400000*%
G04 APERTURE END LIST*
%TO.C,D2*%
G36*
G01*
X68412500Y126650001D02*
X68412500Y125849999D01*
G75*
G02*
X68162501Y125600000I-249999J0D01*
G01*
X67337499Y125600000D01*
G75*
G02*
X67087500Y125849999I0J249999D01*
G01*
X67087500Y126650001D01*
G75*
G02*
X67337499Y126900000I249999J0D01*
G01*
X68162501Y126900000D01*
G75*
G02*
X68412500Y126650001I0J-249999D01*
G01*
G37*
G36*
G01*
X70337500Y126650001D02*
X70337500Y125849999D01*
G75*
G02*
X70087501Y125600000I-249999J0D01*
G01*
X69262499Y125600000D01*
G75*
G02*
X69012500Y125849999I0J249999D01*
G01*
X69012500Y126650001D01*
G75*
G02*
X69262499Y126900000I249999J0D01*
G01*
X70087501Y126900000D01*
G75*
G02*
X70337500Y126650001I0J-249999D01*
G01*
G37*
%TD*%
%TO.C,R15*%
G36*
G01*
X24049999Y113600000D02*
X24950001Y113600000D01*
G75*
G02*
X25200000Y113350001I0J-249999D01*
G01*
X25200000Y112649999D01*
G75*
G02*
X24950001Y112400000I-249999J0D01*
G01*
X24049999Y112400000D01*
G75*
G02*
X23800000Y112649999I0J249999D01*
G01*
X23800000Y113350001D01*
G75*
G02*
X24049999Y113600000I249999J0D01*
G01*
G37*
G36*
G01*
X24049999Y115600000D02*
X24950001Y115600000D01*
G75*
G02*
X25200000Y115350001I0J-249999D01*
G01*
X25200000Y114649999D01*
G75*
G02*
X24950001Y114400000I-249999J0D01*
G01*
X24049999Y114400000D01*
G75*
G02*
X23800000Y114649999I0J249999D01*
G01*
X23800000Y115350001D01*
G75*
G02*
X24049999Y115600000I249999J0D01*
G01*
G37*
%TD*%
%TO.C,R2*%
G36*
G01*
X8350000Y122950001D02*
X8350000Y122049999D01*
G75*
G02*
X8100001Y121800000I-249999J0D01*
G01*
X7399999Y121800000D01*
G75*
G02*
X7150000Y122049999I0J249999D01*
G01*
X7150000Y122950001D01*
G75*
G02*
X7399999Y123200000I249999J0D01*
G01*
X8100001Y123200000D01*
G75*
G02*
X8350000Y122950001I0J-249999D01*
G01*
G37*
G36*
G01*
X10350000Y122950001D02*
X10350000Y122049999D01*
G75*
G02*
X10100001Y121800000I-249999J0D01*
G01*
X9399999Y121800000D01*
G75*
G02*
X9150000Y122049999I0J249999D01*
G01*
X9150000Y122950001D01*
G75*
G02*
X9399999Y123200000I249999J0D01*
G01*
X10100001Y123200000D01*
G75*
G02*
X10350000Y122950001I0J-249999D01*
G01*
G37*
%TD*%
%TO.C,D1*%
G36*
G01*
X8487500Y126400001D02*
X8487500Y125599999D01*
G75*
G02*
X8237501Y125350000I-249999J0D01*
G01*
X7412499Y125350000D01*
G75*
G02*
X7162500Y125599999I0J249999D01*
G01*
X7162500Y126400001D01*
G75*
G02*
X7412499Y126650000I249999J0D01*
G01*
X8237501Y126650000D01*
G75*
G02*
X8487500Y126400001I0J-249999D01*
G01*
G37*
G36*
G01*
X10412500Y126400001D02*
X10412500Y125599999D01*
G75*
G02*
X10162501Y125350000I-249999J0D01*
G01*
X9337499Y125350000D01*
G75*
G02*
X9087500Y125599999I0J249999D01*
G01*
X9087500Y126400001D01*
G75*
G02*
X9337499Y126650000I249999J0D01*
G01*
X10162501Y126650000D01*
G75*
G02*
X10412500Y126400001I0J-249999D01*
G01*
G37*
%TD*%
%TO.C,R17*%
G36*
G01*
X46400000Y103049999D02*
X46400000Y103950001D01*
G75*
G02*
X46649999Y104200000I249999J0D01*
G01*
X47350001Y104200000D01*
G75*
G02*
X47600000Y103950001I0J-249999D01*
G01*
X47600000Y103049999D01*
G75*
G02*
X47350001Y102800000I-249999J0D01*
G01*
X46649999Y102800000D01*
G75*
G02*
X46400000Y103049999I0J249999D01*
G01*
G37*
G36*
G01*
X44400000Y103049999D02*
X44400000Y103950001D01*
G75*
G02*
X44649999Y104200000I249999J0D01*
G01*
X45350001Y104200000D01*
G75*
G02*
X45600000Y103950001I0J-249999D01*
G01*
X45600000Y103049999D01*
G75*
G02*
X45350001Y102800000I-249999J0D01*
G01*
X44649999Y102800000D01*
G75*
G02*
X44400000Y103049999I0J249999D01*
G01*
G37*
%TD*%
%TO.C,R19*%
G36*
G01*
X65549999Y108850000D02*
X66450001Y108850000D01*
G75*
G02*
X66700000Y108600001I0J-249999D01*
G01*
X66700000Y107899999D01*
G75*
G02*
X66450001Y107650000I-249999J0D01*
G01*
X65549999Y107650000D01*
G75*
G02*
X65300000Y107899999I0J249999D01*
G01*
X65300000Y108600001D01*
G75*
G02*
X65549999Y108850000I249999J0D01*
G01*
G37*
G36*
G01*
X65549999Y110850000D02*
X66450001Y110850000D01*
G75*
G02*
X66700000Y110600001I0J-249999D01*
G01*
X66700000Y109899999D01*
G75*
G02*
X66450001Y109650000I-249999J0D01*
G01*
X65549999Y109650000D01*
G75*
G02*
X65300000Y109899999I0J249999D01*
G01*
X65300000Y110600001D01*
G75*
G02*
X65549999Y110850000I249999J0D01*
G01*
G37*
%TD*%
%TO.C,C13*%
G36*
G01*
X8602252Y110438128D02*
X8938128Y110102252D01*
G75*
G02*
X8938128Y109766376I-167938J-167938D01*
G01*
X8513864Y109342112D01*
G75*
G02*
X8177988Y109342112I-167938J167938D01*
G01*
X7842112Y109677988D01*
G75*
G02*
X7842112Y110013864I167938J167938D01*
G01*
X8266376Y110438128D01*
G75*
G02*
X8602252Y110438128I167938J-167938D01*
G01*
G37*
G36*
G01*
X9822012Y111657888D02*
X10157888Y111322012D01*
G75*
G02*
X10157888Y110986136I-167938J-167938D01*
G01*
X9733624Y110561872D01*
G75*
G02*
X9397748Y110561872I-167938J167938D01*
G01*
X9061872Y110897748D01*
G75*
G02*
X9061872Y111233624I167938J167938D01*
G01*
X9486136Y111657888D01*
G75*
G02*
X9822012Y111657888I167938J-167938D01*
G01*
G37*
%TD*%
%TO.C,R21*%
G36*
G01*
X11450001Y114900000D02*
X10549999Y114900000D01*
G75*
G02*
X10300000Y115149999I0J249999D01*
G01*
X10300000Y115850001D01*
G75*
G02*
X10549999Y116100000I249999J0D01*
G01*
X11450001Y116100000D01*
G75*
G02*
X11700000Y115850001I0J-249999D01*
G01*
X11700000Y115149999D01*
G75*
G02*
X11450001Y114900000I-249999J0D01*
G01*
G37*
G36*
G01*
X11450001Y112900000D02*
X10549999Y112900000D01*
G75*
G02*
X10300000Y113149999I0J249999D01*
G01*
X10300000Y113850001D01*
G75*
G02*
X10549999Y114100000I249999J0D01*
G01*
X11450001Y114100000D01*
G75*
G02*
X11700000Y113850001I0J-249999D01*
G01*
X11700000Y113149999D01*
G75*
G02*
X11450001Y112900000I-249999J0D01*
G01*
G37*
%TD*%
%TO.C,R13*%
G36*
G01*
X32049999Y113600000D02*
X32950001Y113600000D01*
G75*
G02*
X33200000Y113350001I0J-249999D01*
G01*
X33200000Y112649999D01*
G75*
G02*
X32950001Y112400000I-249999J0D01*
G01*
X32049999Y112400000D01*
G75*
G02*
X31800000Y112649999I0J249999D01*
G01*
X31800000Y113350001D01*
G75*
G02*
X32049999Y113600000I249999J0D01*
G01*
G37*
G36*
G01*
X32049999Y115600000D02*
X32950001Y115600000D01*
G75*
G02*
X33200000Y115350001I0J-249999D01*
G01*
X33200000Y114649999D01*
G75*
G02*
X32950001Y114400000I-249999J0D01*
G01*
X32049999Y114400000D01*
G75*
G02*
X31800000Y114649999I0J249999D01*
G01*
X31800000Y115350001D01*
G75*
G02*
X32049999Y115600000I249999J0D01*
G01*
G37*
%TD*%
%TO.C,R6*%
G36*
G01*
X51049999Y112100000D02*
X51950001Y112100000D01*
G75*
G02*
X52200000Y111850001I0J-249999D01*
G01*
X52200000Y111149999D01*
G75*
G02*
X51950001Y110900000I-249999J0D01*
G01*
X51049999Y110900000D01*
G75*
G02*
X50800000Y111149999I0J249999D01*
G01*
X50800000Y111850001D01*
G75*
G02*
X51049999Y112100000I249999J0D01*
G01*
G37*
G36*
G01*
X51049999Y114100000D02*
X51950001Y114100000D01*
G75*
G02*
X52200000Y113850001I0J-249999D01*
G01*
X52200000Y113149999D01*
G75*
G02*
X51950001Y112900000I-249999J0D01*
G01*
X51049999Y112900000D01*
G75*
G02*
X50800000Y113149999I0J249999D01*
G01*
X50800000Y113850001D01*
G75*
G02*
X51049999Y114100000I249999J0D01*
G01*
G37*
%TD*%
D10*
%TO.C,U1*%
G36*
X21154074Y106224963D02*
G01*
X20765165Y106613872D01*
X21896536Y107745243D01*
X22285445Y107356334D01*
X21154074Y106224963D01*
G37*
G36*
X21719759Y105659277D02*
G01*
X21330850Y106048186D01*
X22462221Y107179557D01*
X22851130Y106790648D01*
X21719759Y105659277D01*
G37*
G36*
X22285445Y105093592D02*
G01*
X21896536Y105482501D01*
X23027907Y106613872D01*
X23416816Y106224963D01*
X22285445Y105093592D01*
G37*
G36*
X22851130Y104527907D02*
G01*
X22462221Y104916816D01*
X23593592Y106048187D01*
X23982501Y105659278D01*
X22851130Y104527907D01*
G37*
G36*
X23416816Y103962221D02*
G01*
X23027907Y104351130D01*
X24159278Y105482501D01*
X24548187Y105093592D01*
X23416816Y103962221D01*
G37*
G36*
X23982501Y103396536D02*
G01*
X23593592Y103785445D01*
X24724963Y104916816D01*
X25113872Y104527907D01*
X23982501Y103396536D01*
G37*
G36*
X24548186Y102830850D02*
G01*
X24159277Y103219759D01*
X25290648Y104351130D01*
X25679557Y103962221D01*
X24548186Y102830850D01*
G37*
G36*
X25113872Y102265165D02*
G01*
X24724963Y102654074D01*
X25856334Y103785445D01*
X26245243Y103396536D01*
X25113872Y102265165D01*
G37*
G36*
X24724963Y101345926D02*
G01*
X25113872Y101734835D01*
X26245243Y100603464D01*
X25856334Y100214555D01*
X24724963Y101345926D01*
G37*
G36*
X24159277Y100780241D02*
G01*
X24548186Y101169150D01*
X25679557Y100037779D01*
X25290648Y99648870D01*
X24159277Y100780241D01*
G37*
G36*
X23593592Y100214555D02*
G01*
X23982501Y100603464D01*
X25113872Y99472093D01*
X24724963Y99083184D01*
X23593592Y100214555D01*
G37*
G36*
X23027907Y99648870D02*
G01*
X23416816Y100037779D01*
X24548187Y98906408D01*
X24159278Y98517499D01*
X23027907Y99648870D01*
G37*
G36*
X22462221Y99083184D02*
G01*
X22851130Y99472093D01*
X23982501Y98340722D01*
X23593592Y97951813D01*
X22462221Y99083184D01*
G37*
G36*
X21896536Y98517499D02*
G01*
X22285445Y98906408D01*
X23416816Y97775037D01*
X23027907Y97386128D01*
X21896536Y98517499D01*
G37*
G36*
X21330850Y97951814D02*
G01*
X21719759Y98340723D01*
X22851130Y97209352D01*
X22462221Y96820443D01*
X21330850Y97951814D01*
G37*
G36*
X20765165Y97386128D02*
G01*
X21154074Y97775037D01*
X22285445Y96643666D01*
X21896536Y96254757D01*
X20765165Y97386128D01*
G37*
G36*
X19103464Y96254757D02*
G01*
X18714555Y96643666D01*
X19845926Y97775037D01*
X20234835Y97386128D01*
X19103464Y96254757D01*
G37*
G36*
X18537779Y96820443D02*
G01*
X18148870Y97209352D01*
X19280241Y98340723D01*
X19669150Y97951814D01*
X18537779Y96820443D01*
G37*
G36*
X17972093Y97386128D02*
G01*
X17583184Y97775037D01*
X18714555Y98906408D01*
X19103464Y98517499D01*
X17972093Y97386128D01*
G37*
G36*
X17406408Y97951813D02*
G01*
X17017499Y98340722D01*
X18148870Y99472093D01*
X18537779Y99083184D01*
X17406408Y97951813D01*
G37*
G36*
X16840722Y98517499D02*
G01*
X16451813Y98906408D01*
X17583184Y100037779D01*
X17972093Y99648870D01*
X16840722Y98517499D01*
G37*
G36*
X16275037Y99083184D02*
G01*
X15886128Y99472093D01*
X17017499Y100603464D01*
X17406408Y100214555D01*
X16275037Y99083184D01*
G37*
G36*
X15709352Y99648870D02*
G01*
X15320443Y100037779D01*
X16451814Y101169150D01*
X16840723Y100780241D01*
X15709352Y99648870D01*
G37*
G36*
X15143666Y100214555D02*
G01*
X14754757Y100603464D01*
X15886128Y101734835D01*
X16275037Y101345926D01*
X15143666Y100214555D01*
G37*
G36*
X14754757Y103396536D02*
G01*
X15143666Y103785445D01*
X16275037Y102654074D01*
X15886128Y102265165D01*
X14754757Y103396536D01*
G37*
G36*
X15320443Y103962221D02*
G01*
X15709352Y104351130D01*
X16840723Y103219759D01*
X16451814Y102830850D01*
X15320443Y103962221D01*
G37*
G36*
X15886128Y104527907D02*
G01*
X16275037Y104916816D01*
X17406408Y103785445D01*
X17017499Y103396536D01*
X15886128Y104527907D01*
G37*
G36*
X16451813Y105093592D02*
G01*
X16840722Y105482501D01*
X17972093Y104351130D01*
X17583184Y103962221D01*
X16451813Y105093592D01*
G37*
G36*
X17017499Y105659278D02*
G01*
X17406408Y106048187D01*
X18537779Y104916816D01*
X18148870Y104527907D01*
X17017499Y105659278D01*
G37*
G36*
X17583184Y106224963D02*
G01*
X17972093Y106613872D01*
X19103464Y105482501D01*
X18714555Y105093592D01*
X17583184Y106224963D01*
G37*
G36*
X18148870Y106790648D02*
G01*
X18537779Y107179557D01*
X19669150Y106048186D01*
X19280241Y105659277D01*
X18148870Y106790648D01*
G37*
G36*
X18714555Y107356334D02*
G01*
X19103464Y107745243D01*
X20234835Y106613872D01*
X19845926Y106224963D01*
X18714555Y107356334D01*
G37*
%TD*%
%TO.C,L1*%
G36*
G01*
X58049999Y112525000D02*
X58950001Y112525000D01*
G75*
G02*
X59200000Y112275001I0J-249999D01*
G01*
X59200000Y111624999D01*
G75*
G02*
X58950001Y111375000I-249999J0D01*
G01*
X58049999Y111375000D01*
G75*
G02*
X57800000Y111624999I0J249999D01*
G01*
X57800000Y112275001D01*
G75*
G02*
X58049999Y112525000I249999J0D01*
G01*
G37*
G36*
G01*
X58049999Y114575000D02*
X58950001Y114575000D01*
G75*
G02*
X59200000Y114325001I0J-249999D01*
G01*
X59200000Y113674999D01*
G75*
G02*
X58950001Y113425000I-249999J0D01*
G01*
X58049999Y113425000D01*
G75*
G02*
X57800000Y113674999I0J249999D01*
G01*
X57800000Y114325001D01*
G75*
G02*
X58049999Y114575000I249999J0D01*
G01*
G37*
%TD*%
%TO.C,R11*%
G36*
G01*
X36950001Y95400000D02*
X36049999Y95400000D01*
G75*
G02*
X35800000Y95649999I0J249999D01*
G01*
X35800000Y96350001D01*
G75*
G02*
X36049999Y96600000I249999J0D01*
G01*
X36950001Y96600000D01*
G75*
G02*
X37200000Y96350001I0J-249999D01*
G01*
X37200000Y95649999D01*
G75*
G02*
X36950001Y95400000I-249999J0D01*
G01*
G37*
G36*
G01*
X36950001Y93400000D02*
X36049999Y93400000D01*
G75*
G02*
X35800000Y93649999I0J249999D01*
G01*
X35800000Y94350001D01*
G75*
G02*
X36049999Y94600000I249999J0D01*
G01*
X36950001Y94600000D01*
G75*
G02*
X37200000Y94350001I0J-249999D01*
G01*
X37200000Y93649999D01*
G75*
G02*
X36950001Y93400000I-249999J0D01*
G01*
G37*
%TD*%
%TO.C,R10*%
G36*
G01*
X33950001Y95400000D02*
X33049999Y95400000D01*
G75*
G02*
X32800000Y95649999I0J249999D01*
G01*
X32800000Y96350001D01*
G75*
G02*
X33049999Y96600000I249999J0D01*
G01*
X33950001Y96600000D01*
G75*
G02*
X34200000Y96350001I0J-249999D01*
G01*
X34200000Y95649999D01*
G75*
G02*
X33950001Y95400000I-249999J0D01*
G01*
G37*
G36*
G01*
X33950001Y93400000D02*
X33049999Y93400000D01*
G75*
G02*
X32800000Y93649999I0J249999D01*
G01*
X32800000Y94350001D01*
G75*
G02*
X33049999Y94600000I249999J0D01*
G01*
X33950001Y94600000D01*
G75*
G02*
X34200000Y94350001I0J-249999D01*
G01*
X34200000Y93649999D01*
G75*
G02*
X33950001Y93400000I-249999J0D01*
G01*
G37*
%TD*%
%TO.C,R7*%
G36*
G01*
X33299999Y124100000D02*
X34200001Y124100000D01*
G75*
G02*
X34450000Y123850001I0J-249999D01*
G01*
X34450000Y123149999D01*
G75*
G02*
X34200001Y122900000I-249999J0D01*
G01*
X33299999Y122900000D01*
G75*
G02*
X33050000Y123149999I0J249999D01*
G01*
X33050000Y123850001D01*
G75*
G02*
X33299999Y124100000I249999J0D01*
G01*
G37*
G36*
G01*
X33299999Y126100000D02*
X34200001Y126100000D01*
G75*
G02*
X34450000Y125850001I0J-249999D01*
G01*
X34450000Y125149999D01*
G75*
G02*
X34200001Y124900000I-249999J0D01*
G01*
X33299999Y124900000D01*
G75*
G02*
X33050000Y125149999I0J249999D01*
G01*
X33050000Y125850001D01*
G75*
G02*
X33299999Y126100000I249999J0D01*
G01*
G37*
%TD*%
%TO.C,R5*%
G36*
G01*
X53549999Y112100000D02*
X54450001Y112100000D01*
G75*
G02*
X54700000Y111850001I0J-249999D01*
G01*
X54700000Y111149999D01*
G75*
G02*
X54450001Y110900000I-249999J0D01*
G01*
X53549999Y110900000D01*
G75*
G02*
X53300000Y111149999I0J249999D01*
G01*
X53300000Y111850001D01*
G75*
G02*
X53549999Y112100000I249999J0D01*
G01*
G37*
G36*
G01*
X53549999Y114100000D02*
X54450001Y114100000D01*
G75*
G02*
X54700000Y113850001I0J-249999D01*
G01*
X54700000Y113149999D01*
G75*
G02*
X54450001Y112900000I-249999J0D01*
G01*
X53549999Y112900000D01*
G75*
G02*
X53300000Y113149999I0J249999D01*
G01*
X53300000Y113850001D01*
G75*
G02*
X53549999Y114100000I249999J0D01*
G01*
G37*
%TD*%
%TO.C,C3*%
G36*
G01*
X50950000Y115525000D02*
X50950000Y116475000D01*
G75*
G02*
X51200000Y116725000I250000J0D01*
G01*
X51875000Y116725000D01*
G75*
G02*
X52125000Y116475000I0J-250000D01*
G01*
X52125000Y115525000D01*
G75*
G02*
X51875000Y115275000I-250000J0D01*
G01*
X51200000Y115275000D01*
G75*
G02*
X50950000Y115525000I0J250000D01*
G01*
G37*
G36*
G01*
X48875000Y115525000D02*
X48875000Y116475000D01*
G75*
G02*
X49125000Y116725000I250000J0D01*
G01*
X49800000Y116725000D01*
G75*
G02*
X50050000Y116475000I0J-250000D01*
G01*
X50050000Y115525000D01*
G75*
G02*
X49800000Y115275000I-250000J0D01*
G01*
X49125000Y115275000D01*
G75*
G02*
X48875000Y115525000I0J250000D01*
G01*
G37*
%TD*%
%TO.C,C4*%
G36*
G01*
X55412500Y115525000D02*
X55412500Y116475000D01*
G75*
G02*
X55662500Y116725000I250000J0D01*
G01*
X56337500Y116725000D01*
G75*
G02*
X56587500Y116475000I0J-250000D01*
G01*
X56587500Y115525000D01*
G75*
G02*
X56337500Y115275000I-250000J0D01*
G01*
X55662500Y115275000D01*
G75*
G02*
X55412500Y115525000I0J250000D01*
G01*
G37*
G36*
G01*
X53337500Y115525000D02*
X53337500Y116475000D01*
G75*
G02*
X53587500Y116725000I250000J0D01*
G01*
X54262500Y116725000D01*
G75*
G02*
X54512500Y116475000I0J-250000D01*
G01*
X54512500Y115525000D01*
G75*
G02*
X54262500Y115275000I-250000J0D01*
G01*
X53587500Y115275000D01*
G75*
G02*
X53337500Y115525000I0J250000D01*
G01*
G37*
%TD*%
D11*
%TO.C,SW13*%
X15100000Y126500000D03*
X20900000Y126500000D03*
X15100000Y122500000D03*
X20900000Y122500000D03*
%TD*%
%TO.C,R8*%
G36*
G01*
X27549999Y124100000D02*
X28450001Y124100000D01*
G75*
G02*
X28700000Y123850001I0J-249999D01*
G01*
X28700000Y123149999D01*
G75*
G02*
X28450001Y122900000I-249999J0D01*
G01*
X27549999Y122900000D01*
G75*
G02*
X27300000Y123149999I0J249999D01*
G01*
X27300000Y123850001D01*
G75*
G02*
X27549999Y124100000I249999J0D01*
G01*
G37*
G36*
G01*
X27549999Y126100000D02*
X28450001Y126100000D01*
G75*
G02*
X28700000Y125850001I0J-249999D01*
G01*
X28700000Y125149999D01*
G75*
G02*
X28450001Y124900000I-249999J0D01*
G01*
X27549999Y124900000D01*
G75*
G02*
X27300000Y125149999I0J249999D01*
G01*
X27300000Y125850001D01*
G75*
G02*
X27549999Y126100000I249999J0D01*
G01*
G37*
%TD*%
%TO.C,R4*%
G36*
G01*
X62100000Y123700001D02*
X62100000Y122799999D01*
G75*
G02*
X61850001Y122550000I-249999J0D01*
G01*
X61149999Y122550000D01*
G75*
G02*
X60900000Y122799999I0J249999D01*
G01*
X60900000Y123700001D01*
G75*
G02*
X61149999Y123950000I249999J0D01*
G01*
X61850001Y123950000D01*
G75*
G02*
X62100000Y123700001I0J-249999D01*
G01*
G37*
G36*
G01*
X64100000Y123700001D02*
X64100000Y122799999D01*
G75*
G02*
X63850001Y122550000I-249999J0D01*
G01*
X63149999Y122550000D01*
G75*
G02*
X62900000Y122799999I0J249999D01*
G01*
X62900000Y123700001D01*
G75*
G02*
X63149999Y123950000I249999J0D01*
G01*
X63850001Y123950000D01*
G75*
G02*
X64100000Y123700001I0J-249999D01*
G01*
G37*
%TD*%
D12*
%TO.C,Q2*%
X41000000Y115250000D03*
X41950000Y113250000D03*
X40050000Y113250000D03*
%TD*%
%TO.C,Q3*%
X14250000Y115500000D03*
X15200000Y113500000D03*
X13300000Y113500000D03*
%TD*%
%TO.C,Q1*%
X67000000Y114750000D03*
X67950000Y112750000D03*
X66050000Y112750000D03*
%TD*%
D13*
%TO.C,J1*%
X52200000Y123100000D03*
X52850000Y123100000D03*
X53500000Y123100000D03*
X54150000Y123100000D03*
X54800000Y123100000D03*
%TD*%
%TO.C,C5*%
G36*
G01*
X46412500Y108025000D02*
X46412500Y108975000D01*
G75*
G02*
X46662500Y109225000I250000J0D01*
G01*
X47337500Y109225000D01*
G75*
G02*
X47587500Y108975000I0J-250000D01*
G01*
X47587500Y108025000D01*
G75*
G02*
X47337500Y107775000I-250000J0D01*
G01*
X46662500Y107775000D01*
G75*
G02*
X46412500Y108025000I0J250000D01*
G01*
G37*
G36*
G01*
X44337500Y108025000D02*
X44337500Y108975000D01*
G75*
G02*
X44587500Y109225000I250000J0D01*
G01*
X45262500Y109225000D01*
G75*
G02*
X45512500Y108975000I0J-250000D01*
G01*
X45512500Y108025000D01*
G75*
G02*
X45262500Y107775000I-250000J0D01*
G01*
X44587500Y107775000D01*
G75*
G02*
X44337500Y108025000I0J250000D01*
G01*
G37*
%TD*%
%TO.C,C6*%
G36*
G01*
X25829550Y95251301D02*
X26501301Y94579550D01*
G75*
G02*
X26501301Y94225996I-176777J-176777D01*
G01*
X26024004Y93748699D01*
G75*
G02*
X25670450Y93748699I-176777J176777D01*
G01*
X24998699Y94420450D01*
G75*
G02*
X24998699Y94774004I176777J176777D01*
G01*
X25475996Y95251301D01*
G75*
G02*
X25829550Y95251301I176777J-176777D01*
G01*
G37*
G36*
G01*
X27296796Y96718547D02*
X27968547Y96046796D01*
G75*
G02*
X27968547Y95693242I-176777J-176777D01*
G01*
X27491250Y95215945D01*
G75*
G02*
X27137696Y95215945I-176777J176777D01*
G01*
X26465945Y95887696D01*
G75*
G02*
X26465945Y96241250I176777J176777D01*
G01*
X26943242Y96718547D01*
G75*
G02*
X27296796Y96718547I176777J-176777D01*
G01*
G37*
%TD*%
%TO.C,C1*%
G36*
G01*
X44487500Y122525000D02*
X44487500Y123475000D01*
G75*
G02*
X44737500Y123725000I250000J0D01*
G01*
X45412500Y123725000D01*
G75*
G02*
X45662500Y123475000I0J-250000D01*
G01*
X45662500Y122525000D01*
G75*
G02*
X45412500Y122275000I-250000J0D01*
G01*
X44737500Y122275000D01*
G75*
G02*
X44487500Y122525000I0J250000D01*
G01*
G37*
G36*
G01*
X42412500Y122525000D02*
X42412500Y123475000D01*
G75*
G02*
X42662500Y123725000I250000J0D01*
G01*
X43337500Y123725000D01*
G75*
G02*
X43587500Y123475000I0J-250000D01*
G01*
X43587500Y122525000D01*
G75*
G02*
X43337500Y122275000I-250000J0D01*
G01*
X42662500Y122275000D01*
G75*
G02*
X42412500Y122525000I0J250000D01*
G01*
G37*
%TD*%
%TO.C,C2*%
G36*
G01*
X61475000Y113412500D02*
X60525000Y113412500D01*
G75*
G02*
X60275000Y113662500I0J250000D01*
G01*
X60275000Y114337500D01*
G75*
G02*
X60525000Y114587500I250000J0D01*
G01*
X61475000Y114587500D01*
G75*
G02*
X61725000Y114337500I0J-250000D01*
G01*
X61725000Y113662500D01*
G75*
G02*
X61475000Y113412500I-250000J0D01*
G01*
G37*
G36*
G01*
X61475000Y111337500D02*
X60525000Y111337500D01*
G75*
G02*
X60275000Y111587500I0J250000D01*
G01*
X60275000Y112262500D01*
G75*
G02*
X60525000Y112512500I250000J0D01*
G01*
X61475000Y112512500D01*
G75*
G02*
X61725000Y112262500I0J-250000D01*
G01*
X61725000Y111587500D01*
G75*
G02*
X61475000Y111337500I-250000J0D01*
G01*
G37*
%TD*%
%TO.C,C7*%
G36*
G01*
X24775000Y124050000D02*
X25725000Y124050000D01*
G75*
G02*
X25975000Y123800000I0J-250000D01*
G01*
X25975000Y123125000D01*
G75*
G02*
X25725000Y122875000I-250000J0D01*
G01*
X24775000Y122875000D01*
G75*
G02*
X24525000Y123125000I0J250000D01*
G01*
X24525000Y123800000D01*
G75*
G02*
X24775000Y124050000I250000J0D01*
G01*
G37*
G36*
G01*
X24775000Y126125000D02*
X25725000Y126125000D01*
G75*
G02*
X25975000Y125875000I0J-250000D01*
G01*
X25975000Y125200000D01*
G75*
G02*
X25725000Y124950000I-250000J0D01*
G01*
X24775000Y124950000D01*
G75*
G02*
X24525000Y125200000I0J250000D01*
G01*
X24525000Y125875000D01*
G75*
G02*
X24775000Y126125000I250000J0D01*
G01*
G37*
%TD*%
%TO.C,R18*%
G36*
G01*
X46400000Y100549999D02*
X46400000Y101450001D01*
G75*
G02*
X46649999Y101700000I249999J0D01*
G01*
X47350001Y101700000D01*
G75*
G02*
X47600000Y101450001I0J-249999D01*
G01*
X47600000Y100549999D01*
G75*
G02*
X47350001Y100300000I-249999J0D01*
G01*
X46649999Y100300000D01*
G75*
G02*
X46400000Y100549999I0J249999D01*
G01*
G37*
G36*
G01*
X44400000Y100549999D02*
X44400000Y101450001D01*
G75*
G02*
X44649999Y101700000I249999J0D01*
G01*
X45350001Y101700000D01*
G75*
G02*
X45600000Y101450001I0J-249999D01*
G01*
X45600000Y100549999D01*
G75*
G02*
X45350001Y100300000I-249999J0D01*
G01*
X44649999Y100300000D01*
G75*
G02*
X44400000Y100549999I0J249999D01*
G01*
G37*
%TD*%
%TO.C,C12*%
G36*
G01*
X6787868Y107951992D02*
X6451992Y108287868D01*
G75*
G02*
X6451992Y108623744I167938J167938D01*
G01*
X6876256Y109048008D01*
G75*
G02*
X7212132Y109048008I167938J-167938D01*
G01*
X7548008Y108712132D01*
G75*
G02*
X7548008Y108376256I-167938J-167938D01*
G01*
X7123744Y107951992D01*
G75*
G02*
X6787868Y107951992I-167938J167938D01*
G01*
G37*
G36*
G01*
X5568108Y106732232D02*
X5232232Y107068108D01*
G75*
G02*
X5232232Y107403984I167938J167938D01*
G01*
X5656496Y107828248D01*
G75*
G02*
X5992372Y107828248I167938J-167938D01*
G01*
X6328248Y107492372D01*
G75*
G02*
X6328248Y107156496I-167938J-167938D01*
G01*
X5903984Y106732232D01*
G75*
G02*
X5568108Y106732232I-167938J167938D01*
G01*
G37*
%TD*%
%TO.C,C8*%
G36*
G01*
X19450000Y112525000D02*
X19450000Y113475000D01*
G75*
G02*
X19700000Y113725000I250000J0D01*
G01*
X20375000Y113725000D01*
G75*
G02*
X20625000Y113475000I0J-250000D01*
G01*
X20625000Y112525000D01*
G75*
G02*
X20375000Y112275000I-250000J0D01*
G01*
X19700000Y112275000D01*
G75*
G02*
X19450000Y112525000I0J250000D01*
G01*
G37*
G36*
G01*
X17375000Y112525000D02*
X17375000Y113475000D01*
G75*
G02*
X17625000Y113725000I250000J0D01*
G01*
X18300000Y113725000D01*
G75*
G02*
X18550000Y113475000I0J-250000D01*
G01*
X18550000Y112525000D01*
G75*
G02*
X18300000Y112275000I-250000J0D01*
G01*
X17625000Y112275000D01*
G75*
G02*
X17375000Y112525000I0J250000D01*
G01*
G37*
%TD*%
%TO.C,R12*%
G36*
G01*
X39950001Y95400000D02*
X39049999Y95400000D01*
G75*
G02*
X38800000Y95649999I0J249999D01*
G01*
X38800000Y96350001D01*
G75*
G02*
X39049999Y96600000I249999J0D01*
G01*
X39950001Y96600000D01*
G75*
G02*
X40200000Y96350001I0J-249999D01*
G01*
X40200000Y95649999D01*
G75*
G02*
X39950001Y95400000I-249999J0D01*
G01*
G37*
G36*
G01*
X39950001Y93400000D02*
X39049999Y93400000D01*
G75*
G02*
X38800000Y93649999I0J249999D01*
G01*
X38800000Y94350001D01*
G75*
G02*
X39049999Y94600000I249999J0D01*
G01*
X39950001Y94600000D01*
G75*
G02*
X40200000Y94350001I0J-249999D01*
G01*
X40200000Y93649999D01*
G75*
G02*
X39950001Y93400000I-249999J0D01*
G01*
G37*
%TD*%
%TO.C,R14*%
G36*
G01*
X29549999Y113600000D02*
X30450001Y113600000D01*
G75*
G02*
X30700000Y113350001I0J-249999D01*
G01*
X30700000Y112649999D01*
G75*
G02*
X30450001Y112400000I-249999J0D01*
G01*
X29549999Y112400000D01*
G75*
G02*
X29300000Y112649999I0J249999D01*
G01*
X29300000Y113350001D01*
G75*
G02*
X29549999Y113600000I249999J0D01*
G01*
G37*
G36*
G01*
X29549999Y115600000D02*
X30450001Y115600000D01*
G75*
G02*
X30700000Y115350001I0J-249999D01*
G01*
X30700000Y114649999D01*
G75*
G02*
X30450001Y114400000I-249999J0D01*
G01*
X29549999Y114400000D01*
G75*
G02*
X29300000Y114649999I0J249999D01*
G01*
X29300000Y115350001D01*
G75*
G02*
X29549999Y115600000I249999J0D01*
G01*
G37*
%TD*%
%TO.C,D3*%
G36*
G01*
X68412500Y123650001D02*
X68412500Y122849999D01*
G75*
G02*
X68162501Y122600000I-249999J0D01*
G01*
X67337499Y122600000D01*
G75*
G02*
X67087500Y122849999I0J249999D01*
G01*
X67087500Y123650001D01*
G75*
G02*
X67337499Y123900000I249999J0D01*
G01*
X68162501Y123900000D01*
G75*
G02*
X68412500Y123650001I0J-249999D01*
G01*
G37*
G36*
G01*
X70337500Y123650001D02*
X70337500Y122849999D01*
G75*
G02*
X70087501Y122600000I-249999J0D01*
G01*
X69262499Y122600000D01*
G75*
G02*
X69012500Y122849999I0J249999D01*
G01*
X69012500Y123650001D01*
G75*
G02*
X69262499Y123900000I249999J0D01*
G01*
X70087501Y123900000D01*
G75*
G02*
X70337500Y123650001I0J-249999D01*
G01*
G37*
%TD*%
D14*
%TO.C,U2*%
X50400000Y103777500D03*
X50400000Y104412500D03*
X50400000Y105047500D03*
X50400000Y105682500D03*
X50400000Y106317500D03*
X50400000Y106952500D03*
X50400000Y107587500D03*
X50400000Y108222500D03*
X55600000Y108222500D03*
X55600000Y107587500D03*
X55600000Y106952500D03*
X55600000Y106317500D03*
X55600000Y105682500D03*
X55600000Y105047500D03*
X55600000Y104412500D03*
X55600000Y103777500D03*
%TD*%
%TO.C,R3*%
G36*
G01*
X62100000Y126700001D02*
X62100000Y125799999D01*
G75*
G02*
X61850001Y125550000I-249999J0D01*
G01*
X61149999Y125550000D01*
G75*
G02*
X60900000Y125799999I0J249999D01*
G01*
X60900000Y126700001D01*
G75*
G02*
X61149999Y126950000I249999J0D01*
G01*
X61850001Y126950000D01*
G75*
G02*
X62100000Y126700001I0J-249999D01*
G01*
G37*
G36*
G01*
X64100000Y126700001D02*
X64100000Y125799999D01*
G75*
G02*
X63850001Y125550000I-249999J0D01*
G01*
X63149999Y125550000D01*
G75*
G02*
X62900000Y125799999I0J249999D01*
G01*
X62900000Y126700001D01*
G75*
G02*
X63149999Y126950000I249999J0D01*
G01*
X63850001Y126950000D01*
G75*
G02*
X64100000Y126700001I0J-249999D01*
G01*
G37*
%TD*%
%TO.C,C10*%
G36*
G01*
X60487500Y109025000D02*
X60487500Y109975000D01*
G75*
G02*
X60737500Y110225000I250000J0D01*
G01*
X61412500Y110225000D01*
G75*
G02*
X61662500Y109975000I0J-250000D01*
G01*
X61662500Y109025000D01*
G75*
G02*
X61412500Y108775000I-250000J0D01*
G01*
X60737500Y108775000D01*
G75*
G02*
X60487500Y109025000I0J250000D01*
G01*
G37*
G36*
G01*
X58412500Y109025000D02*
X58412500Y109975000D01*
G75*
G02*
X58662500Y110225000I250000J0D01*
G01*
X59337500Y110225000D01*
G75*
G02*
X59587500Y109975000I0J-250000D01*
G01*
X59587500Y109025000D01*
G75*
G02*
X59337500Y108775000I-250000J0D01*
G01*
X58662500Y108775000D01*
G75*
G02*
X58412500Y109025000I0J250000D01*
G01*
G37*
%TD*%
%TO.C,C9*%
G36*
G01*
X45512500Y106475000D02*
X45512500Y105525000D01*
G75*
G02*
X45262500Y105275000I-250000J0D01*
G01*
X44587500Y105275000D01*
G75*
G02*
X44337500Y105525000I0J250000D01*
G01*
X44337500Y106475000D01*
G75*
G02*
X44587500Y106725000I250000J0D01*
G01*
X45262500Y106725000D01*
G75*
G02*
X45512500Y106475000I0J-250000D01*
G01*
G37*
G36*
G01*
X47587500Y106475000D02*
X47587500Y105525000D01*
G75*
G02*
X47337500Y105275000I-250000J0D01*
G01*
X46662500Y105275000D01*
G75*
G02*
X46412500Y105525000I0J250000D01*
G01*
X46412500Y106475000D01*
G75*
G02*
X46662500Y106725000I250000J0D01*
G01*
X47337500Y106725000D01*
G75*
G02*
X47587500Y106475000I0J-250000D01*
G01*
G37*
%TD*%
%TO.C,D4*%
G36*
G01*
X31456250Y124950000D02*
X30543750Y124950000D01*
G75*
G02*
X30300000Y125193750I0J243750D01*
G01*
X30300000Y125681250D01*
G75*
G02*
X30543750Y125925000I243750J0D01*
G01*
X31456250Y125925000D01*
G75*
G02*
X31700000Y125681250I0J-243750D01*
G01*
X31700000Y125193750D01*
G75*
G02*
X31456250Y124950000I-243750J0D01*
G01*
G37*
G36*
G01*
X31456250Y123075000D02*
X30543750Y123075000D01*
G75*
G02*
X30300000Y123318750I0J243750D01*
G01*
X30300000Y123806250D01*
G75*
G02*
X30543750Y124050000I243750J0D01*
G01*
X31456250Y124050000D01*
G75*
G02*
X31700000Y123806250I0J-243750D01*
G01*
X31700000Y123318750D01*
G75*
G02*
X31456250Y123075000I-243750J0D01*
G01*
G37*
%TD*%
%TO.C,R16*%
G36*
G01*
X21549999Y113600000D02*
X22450001Y113600000D01*
G75*
G02*
X22700000Y113350001I0J-249999D01*
G01*
X22700000Y112649999D01*
G75*
G02*
X22450001Y112400000I-249999J0D01*
G01*
X21549999Y112400000D01*
G75*
G02*
X21300000Y112649999I0J249999D01*
G01*
X21300000Y113350001D01*
G75*
G02*
X21549999Y113600000I249999J0D01*
G01*
G37*
G36*
G01*
X21549999Y115600000D02*
X22450001Y115600000D01*
G75*
G02*
X22700000Y115350001I0J-249999D01*
G01*
X22700000Y114649999D01*
G75*
G02*
X22450001Y114400000I-249999J0D01*
G01*
X21549999Y114400000D01*
G75*
G02*
X21300000Y114649999I0J249999D01*
G01*
X21300000Y115350001D01*
G75*
G02*
X21549999Y115600000I249999J0D01*
G01*
G37*
%TD*%
%TO.C,R9*%
G36*
G01*
X30950001Y95400000D02*
X30049999Y95400000D01*
G75*
G02*
X29800000Y95649999I0J249999D01*
G01*
X29800000Y96350001D01*
G75*
G02*
X30049999Y96600000I249999J0D01*
G01*
X30950001Y96600000D01*
G75*
G02*
X31200000Y96350001I0J-249999D01*
G01*
X31200000Y95649999D01*
G75*
G02*
X30950001Y95400000I-249999J0D01*
G01*
G37*
G36*
G01*
X30950001Y93400000D02*
X30049999Y93400000D01*
G75*
G02*
X29800000Y93649999I0J249999D01*
G01*
X29800000Y94350001D01*
G75*
G02*
X30049999Y94600000I249999J0D01*
G01*
X30950001Y94600000D01*
G75*
G02*
X31200000Y94350001I0J-249999D01*
G01*
X31200000Y93649999D01*
G75*
G02*
X30950001Y93400000I-249999J0D01*
G01*
G37*
%TD*%
%TO.C,R20*%
G36*
G01*
X39549999Y109100000D02*
X40450001Y109100000D01*
G75*
G02*
X40700000Y108850001I0J-249999D01*
G01*
X40700000Y108149999D01*
G75*
G02*
X40450001Y107900000I-249999J0D01*
G01*
X39549999Y107900000D01*
G75*
G02*
X39300000Y108149999I0J249999D01*
G01*
X39300000Y108850001D01*
G75*
G02*
X39549999Y109100000I249999J0D01*
G01*
G37*
G36*
G01*
X39549999Y111100000D02*
X40450001Y111100000D01*
G75*
G02*
X40700000Y110850001I0J-249999D01*
G01*
X40700000Y110149999D01*
G75*
G02*
X40450001Y109900000I-249999J0D01*
G01*
X39549999Y109900000D01*
G75*
G02*
X39300000Y110149999I0J249999D01*
G01*
X39300000Y110850001D01*
G75*
G02*
X39549999Y111100000I249999J0D01*
G01*
G37*
%TD*%
%TO.C,R1*%
G36*
G01*
X43600000Y126450001D02*
X43600000Y125549999D01*
G75*
G02*
X43350001Y125300000I-249999J0D01*
G01*
X42649999Y125300000D01*
G75*
G02*
X42400000Y125549999I0J249999D01*
G01*
X42400000Y126450001D01*
G75*
G02*
X42649999Y126700000I249999J0D01*
G01*
X43350001Y126700000D01*
G75*
G02*
X43600000Y126450001I0J-249999D01*
G01*
G37*
G36*
G01*
X45600000Y126450001D02*
X45600000Y125549999D01*
G75*
G02*
X45350001Y125300000I-249999J0D01*
G01*
X44649999Y125300000D01*
G75*
G02*
X44400000Y125549999I0J249999D01*
G01*
X44400000Y126450001D01*
G75*
G02*
X44649999Y126700000I249999J0D01*
G01*
X45350001Y126700000D01*
G75*
G02*
X45600000Y126450001I0J-249999D01*
G01*
G37*
%TD*%
D10*
%TO.C,Y1*%
G36*
X7348172Y103747310D02*
G01*
X5863248Y105232234D01*
X7772436Y107141422D01*
X9257360Y105656498D01*
X7348172Y103747310D01*
G37*
G36*
X11095837Y107494975D02*
G01*
X9610913Y108979899D01*
X11520101Y110889087D01*
X13005025Y109404163D01*
X11095837Y107494975D01*
G37*
G36*
X13287868Y105302944D02*
G01*
X11802944Y106787868D01*
X13712132Y108697056D01*
X15197056Y107212132D01*
X13287868Y105302944D01*
G37*
G36*
X9540203Y101555279D02*
G01*
X8055279Y103040203D01*
X9964467Y104949391D01*
X11449391Y103464467D01*
X9540203Y101555279D01*
G37*
%TD*%
%TO.C,C11*%
G36*
G01*
X25284143Y96948267D02*
X24948267Y97284143D01*
G75*
G02*
X24948267Y97620019I167938J167938D01*
G01*
X25354853Y98026605D01*
G75*
G02*
X25690729Y98026605I167938J-167938D01*
G01*
X26026605Y97690729D01*
G75*
G02*
X26026605Y97354853I-167938J-167938D01*
G01*
X25620019Y96948267D01*
G75*
G02*
X25284143Y96948267I-167938J167938D01*
G01*
G37*
G36*
G01*
X24046707Y95710831D02*
X23710831Y96046707D01*
G75*
G02*
X23710831Y96382583I167938J167938D01*
G01*
X24117417Y96789169D01*
G75*
G02*
X24453293Y96789169I167938J-167938D01*
G01*
X24789169Y96453293D01*
G75*
G02*
X24789169Y96117417I-167938J-167938D01*
G01*
X24382583Y95710831D01*
G75*
G02*
X24046707Y95710831I-167938J167938D01*
G01*
G37*
%TD*%
M02*
