%TF.GenerationSoftware,KiCad,Pcbnew,5.1.9-73d0e3b20d~88~ubuntu20.04.1*%
%TF.CreationDate,2021-01-19T09:01:57+01:00*%
%TF.ProjectId,luncheonmeat,6c756e63-6865-46f6-9e6d-6561742e6b69,v0.2.3*%
%TF.SameCoordinates,PX4f27ac0PYb80f240*%
%TF.FileFunction,Legend,Bot*%
%TF.FilePolarity,Positive*%
%FSLAX46Y46*%
G04 Gerber Fmt 4.6, Leading zero omitted, Abs format (unit mm)*
G04 Created by KiCad (PCBNEW 5.1.9-73d0e3b20d~88~ubuntu20.04.1) date 2021-01-19 09:01:57*
%MOMM*%
%LPD*%
G01*
G04 APERTURE LIST*
%ADD10C,0.150000*%
%ADD11C,0.500000*%
%ADD12C,0.010000*%
%ADD13C,2.000000*%
%ADD14C,0.800000*%
%ADD15C,1.800000*%
%ADD16C,1.700000*%
%ADD17C,3.200000*%
%ADD18C,1.524000*%
G04 APERTURE END LIST*
D10*
X52053333Y16724286D02*
X51815238Y16057620D01*
X51577142Y16724286D01*
X51005714Y17057620D02*
X50910476Y17057620D01*
X50815238Y17010000D01*
X50767619Y16962381D01*
X50720000Y16867143D01*
X50672380Y16676667D01*
X50672380Y16438572D01*
X50720000Y16248096D01*
X50767619Y16152858D01*
X50815238Y16105239D01*
X50910476Y16057620D01*
X51005714Y16057620D01*
X51100952Y16105239D01*
X51148571Y16152858D01*
X51196190Y16248096D01*
X51243809Y16438572D01*
X51243809Y16676667D01*
X51196190Y16867143D01*
X51148571Y16962381D01*
X51100952Y17010000D01*
X51005714Y17057620D01*
X50243809Y16152858D02*
X50196190Y16105239D01*
X50243809Y16057620D01*
X50291428Y16105239D01*
X50243809Y16152858D01*
X50243809Y16057620D01*
X49815238Y16962381D02*
X49767619Y17010000D01*
X49672380Y17057620D01*
X49434285Y17057620D01*
X49339047Y17010000D01*
X49291428Y16962381D01*
X49243809Y16867143D01*
X49243809Y16771905D01*
X49291428Y16629048D01*
X49862857Y16057620D01*
X49243809Y16057620D01*
X48815238Y16152858D02*
X48767619Y16105239D01*
X48815238Y16057620D01*
X48862857Y16105239D01*
X48815238Y16152858D01*
X48815238Y16057620D01*
X48434285Y17057620D02*
X47815238Y17057620D01*
X48148571Y16676667D01*
X48005714Y16676667D01*
X47910476Y16629048D01*
X47862857Y16581429D01*
X47815238Y16486191D01*
X47815238Y16248096D01*
X47862857Y16152858D01*
X47910476Y16105239D01*
X48005714Y16057620D01*
X48291428Y16057620D01*
X48386666Y16105239D01*
X48434285Y16152858D01*
X47339047Y16105239D02*
X47339047Y16057620D01*
X47386666Y15962381D01*
X47434285Y15914762D01*
X45862857Y17057620D02*
X45862857Y16343334D01*
X45910476Y16200477D01*
X46005714Y16105239D01*
X46148571Y16057620D01*
X46243809Y16057620D01*
X44958095Y16057620D02*
X44958095Y16581429D01*
X45005714Y16676667D01*
X45100952Y16724286D01*
X45291428Y16724286D01*
X45386666Y16676667D01*
X44958095Y16105239D02*
X45053333Y16057620D01*
X45291428Y16057620D01*
X45386666Y16105239D01*
X45434285Y16200477D01*
X45434285Y16295715D01*
X45386666Y16390953D01*
X45291428Y16438572D01*
X45053333Y16438572D01*
X44958095Y16486191D01*
X44481904Y16724286D02*
X44481904Y16057620D01*
X44481904Y16629048D02*
X44434285Y16676667D01*
X44339047Y16724286D01*
X44196190Y16724286D01*
X44100952Y16676667D01*
X44053333Y16581429D01*
X44053333Y16057620D01*
X42862857Y16962381D02*
X42815238Y17010000D01*
X42720000Y17057620D01*
X42481904Y17057620D01*
X42386666Y17010000D01*
X42339047Y16962381D01*
X42291428Y16867143D01*
X42291428Y16771905D01*
X42339047Y16629048D01*
X42910476Y16057620D01*
X42291428Y16057620D01*
X41672380Y17057620D02*
X41577142Y17057620D01*
X41481904Y17010000D01*
X41434285Y16962381D01*
X41386666Y16867143D01*
X41339047Y16676667D01*
X41339047Y16438572D01*
X41386666Y16248096D01*
X41434285Y16152858D01*
X41481904Y16105239D01*
X41577142Y16057620D01*
X41672380Y16057620D01*
X41767619Y16105239D01*
X41815238Y16152858D01*
X41862857Y16248096D01*
X41910476Y16438572D01*
X41910476Y16676667D01*
X41862857Y16867143D01*
X41815238Y16962381D01*
X41767619Y17010000D01*
X41672380Y17057620D01*
X40958095Y16962381D02*
X40910476Y17010000D01*
X40815238Y17057620D01*
X40577142Y17057620D01*
X40481904Y17010000D01*
X40434285Y16962381D01*
X40386666Y16867143D01*
X40386666Y16771905D01*
X40434285Y16629048D01*
X41005714Y16057620D01*
X40386666Y16057620D01*
X39434285Y16057620D02*
X40005714Y16057620D01*
X39720000Y16057620D02*
X39720000Y17057620D01*
X39815238Y16914762D01*
X39910476Y16819524D01*
X40005714Y16771905D01*
D11*
X50758571Y18962858D02*
X52187142Y18962858D01*
X52187142Y21962858D01*
X48472857Y20962858D02*
X48472857Y18962858D01*
X49758571Y20962858D02*
X49758571Y19391429D01*
X49615714Y19105715D01*
X49330000Y18962858D01*
X48901428Y18962858D01*
X48615714Y19105715D01*
X48472857Y19248572D01*
X47044285Y20962858D02*
X47044285Y18962858D01*
X47044285Y20677143D02*
X46901428Y20820000D01*
X46615714Y20962858D01*
X46187142Y20962858D01*
X45901428Y20820000D01*
X45758571Y20534286D01*
X45758571Y18962858D01*
X43044285Y19105715D02*
X43330000Y18962858D01*
X43901428Y18962858D01*
X44187142Y19105715D01*
X44330000Y19248572D01*
X44472857Y19534286D01*
X44472857Y20391429D01*
X44330000Y20677143D01*
X44187142Y20820000D01*
X43901428Y20962858D01*
X43330000Y20962858D01*
X43044285Y20820000D01*
X41758571Y18962858D02*
X41758571Y21962858D01*
X40472857Y18962858D02*
X40472857Y20534286D01*
X40615714Y20820000D01*
X40901428Y20962858D01*
X41330000Y20962858D01*
X41615714Y20820000D01*
X41758571Y20677143D01*
X37901428Y19105715D02*
X38187142Y18962858D01*
X38758571Y18962858D01*
X39044285Y19105715D01*
X39187142Y19391429D01*
X39187142Y20534286D01*
X39044285Y20820000D01*
X38758571Y20962858D01*
X38187142Y20962858D01*
X37901428Y20820000D01*
X37758571Y20534286D01*
X37758571Y20248572D01*
X39187142Y19962858D01*
X36044285Y18962858D02*
X36330000Y19105715D01*
X36472857Y19248572D01*
X36615714Y19534286D01*
X36615714Y20391429D01*
X36472857Y20677143D01*
X36330000Y20820000D01*
X36044285Y20962858D01*
X35615714Y20962858D01*
X35330000Y20820000D01*
X35187142Y20677143D01*
X35044285Y20391429D01*
X35044285Y19534286D01*
X35187142Y19248572D01*
X35330000Y19105715D01*
X35615714Y18962858D01*
X36044285Y18962858D01*
X33758571Y20962858D02*
X33758571Y18962858D01*
X33758571Y20677143D02*
X33615714Y20820000D01*
X33330000Y20962858D01*
X32901428Y20962858D01*
X32615714Y20820000D01*
X32472857Y20534286D01*
X32472857Y18962858D01*
X31044285Y18962858D02*
X31044285Y20962858D01*
X31044285Y20677143D02*
X30901428Y20820000D01*
X30615714Y20962858D01*
X30187142Y20962858D01*
X29901428Y20820000D01*
X29758571Y20534286D01*
X29758571Y18962858D01*
X29758571Y20534286D02*
X29615714Y20820000D01*
X29330000Y20962858D01*
X28901428Y20962858D01*
X28615714Y20820000D01*
X28472857Y20534286D01*
X28472857Y18962858D01*
X25901428Y19105715D02*
X26187142Y18962858D01*
X26758571Y18962858D01*
X27044285Y19105715D01*
X27187142Y19391429D01*
X27187142Y20534286D01*
X27044285Y20820000D01*
X26758571Y20962858D01*
X26187142Y20962858D01*
X25901428Y20820000D01*
X25758571Y20534286D01*
X25758571Y20248572D01*
X27187142Y19962858D01*
X23187142Y18962858D02*
X23187142Y20534286D01*
X23330000Y20820000D01*
X23615714Y20962858D01*
X24187142Y20962858D01*
X24472857Y20820000D01*
X23187142Y19105715D02*
X23472857Y18962858D01*
X24187142Y18962858D01*
X24472857Y19105715D01*
X24615714Y19391429D01*
X24615714Y19677143D01*
X24472857Y19962858D01*
X24187142Y20105715D01*
X23472857Y20105715D01*
X23187142Y20248572D01*
X22187142Y20962858D02*
X21044285Y20962858D01*
X21758571Y21962858D02*
X21758571Y19391429D01*
X21615714Y19105715D01*
X21330000Y18962858D01*
X21044285Y18962858D01*
D12*
%TO.C,REF\u002A\u002A*%
G36*
X61196400Y6320946D02*
G01*
X61185535Y6207007D01*
X61153918Y6099384D01*
X61103015Y6000385D01*
X61034293Y5912316D01*
X60949219Y5837484D01*
X60852232Y5779616D01*
X60745964Y5739995D01*
X60638950Y5721427D01*
X60533300Y5722566D01*
X60431125Y5742070D01*
X60334534Y5778594D01*
X60245638Y5830795D01*
X60166546Y5897327D01*
X60099369Y5976848D01*
X60046217Y6068013D01*
X60009199Y6169477D01*
X59990427Y6279898D01*
X59988489Y6329794D01*
X59988489Y6417733D01*
X59936560Y6417733D01*
X59900253Y6414889D01*
X59873355Y6403089D01*
X59846249Y6379351D01*
X59807867Y6340969D01*
X59807867Y4149398D01*
X59807876Y3887261D01*
X59807908Y3646759D01*
X59807972Y3426952D01*
X59808076Y3226899D01*
X59808227Y3045656D01*
X59808434Y2882284D01*
X59808706Y2735840D01*
X59809050Y2605383D01*
X59809474Y2489971D01*
X59809987Y2388662D01*
X59810597Y2300516D01*
X59811312Y2224590D01*
X59812140Y2159943D01*
X59813089Y2105633D01*
X59814167Y2060720D01*
X59815383Y2024260D01*
X59816745Y1995313D01*
X59818261Y1972937D01*
X59819938Y1956191D01*
X59821786Y1944132D01*
X59823813Y1935820D01*
X59826025Y1930313D01*
X59827108Y1928463D01*
X59831271Y1921451D01*
X59834805Y1915004D01*
X59838635Y1909100D01*
X59843682Y1903714D01*
X59850871Y1898822D01*
X59861123Y1894402D01*
X59875364Y1890428D01*
X59894514Y1886879D01*
X59919499Y1883730D01*
X59951240Y1880958D01*
X59990662Y1878539D01*
X60038686Y1876449D01*
X60096237Y1874665D01*
X60164237Y1873163D01*
X60243610Y1871920D01*
X60335279Y1870911D01*
X60440166Y1870115D01*
X60559196Y1869506D01*
X60693290Y1869061D01*
X60843373Y1868757D01*
X61010367Y1868570D01*
X61195196Y1868476D01*
X61398783Y1868452D01*
X61622050Y1868475D01*
X61865922Y1868520D01*
X62131321Y1868563D01*
X62169704Y1868568D01*
X62436682Y1868611D01*
X62682002Y1868682D01*
X62906583Y1868787D01*
X63111345Y1868934D01*
X63297206Y1869131D01*
X63465088Y1869384D01*
X63615908Y1869700D01*
X63750587Y1870087D01*
X63870044Y1870553D01*
X63975199Y1871103D01*
X64066971Y1871747D01*
X64146279Y1872489D01*
X64214043Y1873339D01*
X64271182Y1874303D01*
X64318617Y1875389D01*
X64357266Y1876603D01*
X64388049Y1877953D01*
X64411885Y1879445D01*
X64429694Y1881089D01*
X64442395Y1882889D01*
X64450908Y1884855D01*
X64455266Y1886523D01*
X64463728Y1890094D01*
X64471497Y1892730D01*
X64478602Y1895366D01*
X64485073Y1898938D01*
X64490939Y1904379D01*
X64496229Y1912625D01*
X64500974Y1924610D01*
X64505202Y1941269D01*
X64508943Y1963537D01*
X64512227Y1992348D01*
X64515083Y2028637D01*
X64517540Y2073339D01*
X64519629Y2127389D01*
X64521378Y2191721D01*
X64522817Y2267270D01*
X64523976Y2354970D01*
X64524883Y2455757D01*
X64525569Y2570566D01*
X64526063Y2700330D01*
X64526395Y2845985D01*
X64526593Y3008465D01*
X64526687Y3188705D01*
X64526708Y3387640D01*
X64526685Y3606204D01*
X64526646Y3845332D01*
X64526622Y4105960D01*
X64526622Y4148111D01*
X64526636Y4411008D01*
X64526661Y4652268D01*
X64526671Y4872835D01*
X64526642Y5073648D01*
X64526548Y5255651D01*
X64526362Y5419784D01*
X64526059Y5566989D01*
X64525614Y5698208D01*
X64525034Y5808133D01*
X64222197Y5808133D01*
X64182407Y5750289D01*
X64171236Y5734521D01*
X64161166Y5720559D01*
X64152138Y5707216D01*
X64144097Y5693307D01*
X64136986Y5677644D01*
X64130747Y5659042D01*
X64125325Y5636314D01*
X64120662Y5608273D01*
X64116701Y5573733D01*
X64113385Y5531508D01*
X64110659Y5480411D01*
X64108464Y5419256D01*
X64106745Y5346856D01*
X64105444Y5262025D01*
X64104505Y5163578D01*
X64103870Y5050326D01*
X64103484Y4921084D01*
X64103288Y4774666D01*
X64103227Y4609884D01*
X64103243Y4425553D01*
X64103280Y4220487D01*
X64103289Y4097867D01*
X64103265Y3880918D01*
X64103231Y3685358D01*
X64103243Y3510001D01*
X64103358Y3353659D01*
X64103630Y3215143D01*
X64104118Y3093266D01*
X64104876Y2986840D01*
X64105962Y2894678D01*
X64107431Y2815591D01*
X64109340Y2748392D01*
X64111744Y2691893D01*
X64114701Y2644907D01*
X64118266Y2606245D01*
X64122495Y2574720D01*
X64127446Y2549145D01*
X64133173Y2528330D01*
X64139733Y2511089D01*
X64147183Y2496235D01*
X64155579Y2482578D01*
X64164976Y2468931D01*
X64175432Y2454107D01*
X64181523Y2445217D01*
X64220296Y2387600D01*
X63688732Y2387600D01*
X63565483Y2387635D01*
X63462987Y2387785D01*
X63379420Y2388122D01*
X63312956Y2388714D01*
X63261771Y2389633D01*
X63224041Y2390949D01*
X63197940Y2392731D01*
X63181644Y2395049D01*
X63173328Y2397974D01*
X63171168Y2401576D01*
X63173339Y2405925D01*
X63174535Y2407355D01*
X63199685Y2444427D01*
X63225583Y2497228D01*
X63249192Y2559230D01*
X63257461Y2585643D01*
X63262078Y2603584D01*
X63265979Y2624645D01*
X63269248Y2650911D01*
X63271966Y2684468D01*
X63274215Y2727401D01*
X63276077Y2781796D01*
X63277636Y2849738D01*
X63278972Y2933312D01*
X63280169Y3034605D01*
X63281308Y3155700D01*
X63281685Y3200400D01*
X63282702Y3325551D01*
X63283460Y3429918D01*
X63283903Y3515293D01*
X63283970Y3583467D01*
X63283605Y3636235D01*
X63282748Y3675386D01*
X63281341Y3702715D01*
X63279325Y3720014D01*
X63276643Y3729074D01*
X63273236Y3731688D01*
X63269044Y3729649D01*
X63264571Y3725333D01*
X63254216Y3712398D01*
X63232158Y3683324D01*
X63199957Y3640241D01*
X63159174Y3585282D01*
X63111370Y3520577D01*
X63058105Y3448258D01*
X63000940Y3370456D01*
X62941437Y3289302D01*
X62881155Y3206928D01*
X62821655Y3125464D01*
X62764498Y3047043D01*
X62711245Y2973796D01*
X62663457Y2907853D01*
X62622693Y2851346D01*
X62590516Y2806407D01*
X62568485Y2775166D01*
X62563917Y2768534D01*
X62540996Y2731631D01*
X62514188Y2683641D01*
X62488789Y2634103D01*
X62485568Y2627423D01*
X62463890Y2579228D01*
X62451304Y2541666D01*
X62445574Y2505840D01*
X62444456Y2463800D01*
X62445090Y2387600D01*
X61290651Y2387600D01*
X61381815Y2481331D01*
X61428612Y2531225D01*
X61478899Y2587705D01*
X61524944Y2641974D01*
X61545369Y2667327D01*
X61575807Y2706872D01*
X61615862Y2760084D01*
X61664361Y2825333D01*
X61720135Y2900989D01*
X61782011Y2985423D01*
X61848819Y3077006D01*
X61919387Y3174108D01*
X61992545Y3275099D01*
X62067121Y3378350D01*
X62141944Y3482232D01*
X62215843Y3585115D01*
X62287646Y3685369D01*
X62356184Y3781364D01*
X62420284Y3871473D01*
X62478775Y3954064D01*
X62530486Y4027508D01*
X62574247Y4090176D01*
X62608885Y4140439D01*
X62633230Y4176666D01*
X62646111Y4197229D01*
X62647869Y4201332D01*
X62639910Y4212658D01*
X62619115Y4239838D01*
X62586847Y4281171D01*
X62544470Y4334956D01*
X62493347Y4399494D01*
X62434841Y4473082D01*
X62370314Y4554022D01*
X62301131Y4640612D01*
X62228653Y4731152D01*
X62154246Y4823940D01*
X62094517Y4898298D01*
X61083511Y4898298D01*
X61077602Y4885341D01*
X61063272Y4863092D01*
X61062225Y4861609D01*
X61043438Y4831456D01*
X61023791Y4794625D01*
X61019892Y4786489D01*
X61016356Y4778060D01*
X61013230Y4767941D01*
X61010486Y4754740D01*
X61008092Y4737062D01*
X61006019Y4713516D01*
X61004235Y4682707D01*
X61002712Y4643243D01*
X61001419Y4593731D01*
X61000326Y4532777D01*
X60999403Y4458989D01*
X60998619Y4370972D01*
X60997945Y4267335D01*
X60997350Y4146684D01*
X60996805Y4007626D01*
X60996279Y3848768D01*
X60995745Y3669911D01*
X60995206Y3484793D01*
X60994772Y3320855D01*
X60994509Y3176697D01*
X60994484Y3050921D01*
X60994765Y2942129D01*
X60995419Y2848923D01*
X60996514Y2769903D01*
X60998118Y2703672D01*
X61000297Y2648830D01*
X61003119Y2603979D01*
X61006651Y2567722D01*
X61010961Y2538659D01*
X61016117Y2515391D01*
X61022185Y2496521D01*
X61029233Y2480649D01*
X61037329Y2466378D01*
X61046540Y2452309D01*
X61055040Y2439842D01*
X61072176Y2413548D01*
X61082322Y2395963D01*
X61083511Y2392743D01*
X61072604Y2391666D01*
X61041411Y2390665D01*
X60992223Y2389765D01*
X60927333Y2388990D01*
X60849030Y2388363D01*
X60759607Y2387909D01*
X60661356Y2387651D01*
X60592445Y2387600D01*
X60487452Y2387820D01*
X60390610Y2388452D01*
X60304107Y2389451D01*
X60230132Y2390773D01*
X60170874Y2392374D01*
X60128520Y2394209D01*
X60105260Y2396235D01*
X60101378Y2397507D01*
X60109076Y2412409D01*
X60117074Y2420440D01*
X60130246Y2437566D01*
X60147485Y2467817D01*
X60159407Y2492378D01*
X60186045Y2551289D01*
X60189120Y3728155D01*
X60192195Y4905022D01*
X60637853Y4905022D01*
X60735670Y4904858D01*
X60826064Y4904389D01*
X60906630Y4903653D01*
X60974962Y4902684D01*
X61028656Y4901520D01*
X61065305Y4900197D01*
X61082504Y4898751D01*
X61083511Y4898298D01*
X62094517Y4898298D01*
X62079270Y4917278D01*
X62005090Y5009463D01*
X61933069Y5098796D01*
X61864569Y5183576D01*
X61800955Y5262102D01*
X61743588Y5332674D01*
X61693833Y5393591D01*
X61653052Y5443153D01*
X61635888Y5463822D01*
X61549596Y5564484D01*
X61472997Y5647741D01*
X61404183Y5715562D01*
X61341248Y5769911D01*
X61331867Y5777278D01*
X61292356Y5807883D01*
X62424116Y5808133D01*
X62418827Y5760156D01*
X62422130Y5702812D01*
X62443661Y5634537D01*
X62483635Y5554788D01*
X62528943Y5482505D01*
X62545161Y5459860D01*
X62573214Y5422304D01*
X62611430Y5371979D01*
X62658137Y5311027D01*
X62711661Y5241589D01*
X62770331Y5165806D01*
X62832475Y5085820D01*
X62896421Y5003772D01*
X62960495Y4921804D01*
X63023027Y4842057D01*
X63082343Y4766673D01*
X63136771Y4697793D01*
X63184639Y4637558D01*
X63224275Y4588111D01*
X63254006Y4551592D01*
X63272161Y4530142D01*
X63275220Y4526844D01*
X63278079Y4534851D01*
X63280293Y4565145D01*
X63281857Y4617444D01*
X63282767Y4691469D01*
X63283020Y4786937D01*
X63282613Y4903566D01*
X63281704Y5023555D01*
X63280382Y5155667D01*
X63278857Y5267406D01*
X63276881Y5360975D01*
X63274206Y5438581D01*
X63270582Y5502426D01*
X63265761Y5554717D01*
X63259494Y5597656D01*
X63251532Y5633449D01*
X63241627Y5664300D01*
X63229531Y5692414D01*
X63214993Y5719995D01*
X63200311Y5745034D01*
X63162314Y5808133D01*
X64222197Y5808133D01*
X64525034Y5808133D01*
X64525001Y5814383D01*
X64524195Y5916456D01*
X64523170Y6005367D01*
X64521900Y6082059D01*
X64520360Y6147473D01*
X64518524Y6202551D01*
X64516367Y6248235D01*
X64513863Y6285466D01*
X64510987Y6315187D01*
X64507713Y6338338D01*
X64504015Y6355861D01*
X64499869Y6368699D01*
X64495247Y6377792D01*
X64490126Y6384082D01*
X64484478Y6388512D01*
X64478279Y6392022D01*
X64471504Y6395555D01*
X64465508Y6399124D01*
X64460275Y6401700D01*
X64452099Y6404028D01*
X64439886Y6406122D01*
X64422541Y6407993D01*
X64398969Y6409653D01*
X64368077Y6411116D01*
X64328768Y6412392D01*
X64279950Y6413496D01*
X64220527Y6414439D01*
X64149404Y6415233D01*
X64065488Y6415891D01*
X63967683Y6416425D01*
X63854894Y6416847D01*
X63726029Y6417171D01*
X63579991Y6417408D01*
X63415686Y6417570D01*
X63232020Y6417670D01*
X63027897Y6417720D01*
X62816753Y6417733D01*
X61196400Y6417733D01*
X61196400Y6320946D01*
G37*
X61196400Y6320946D02*
X61185535Y6207007D01*
X61153918Y6099384D01*
X61103015Y6000385D01*
X61034293Y5912316D01*
X60949219Y5837484D01*
X60852232Y5779616D01*
X60745964Y5739995D01*
X60638950Y5721427D01*
X60533300Y5722566D01*
X60431125Y5742070D01*
X60334534Y5778594D01*
X60245638Y5830795D01*
X60166546Y5897327D01*
X60099369Y5976848D01*
X60046217Y6068013D01*
X60009199Y6169477D01*
X59990427Y6279898D01*
X59988489Y6329794D01*
X59988489Y6417733D01*
X59936560Y6417733D01*
X59900253Y6414889D01*
X59873355Y6403089D01*
X59846249Y6379351D01*
X59807867Y6340969D01*
X59807867Y4149398D01*
X59807876Y3887261D01*
X59807908Y3646759D01*
X59807972Y3426952D01*
X59808076Y3226899D01*
X59808227Y3045656D01*
X59808434Y2882284D01*
X59808706Y2735840D01*
X59809050Y2605383D01*
X59809474Y2489971D01*
X59809987Y2388662D01*
X59810597Y2300516D01*
X59811312Y2224590D01*
X59812140Y2159943D01*
X59813089Y2105633D01*
X59814167Y2060720D01*
X59815383Y2024260D01*
X59816745Y1995313D01*
X59818261Y1972937D01*
X59819938Y1956191D01*
X59821786Y1944132D01*
X59823813Y1935820D01*
X59826025Y1930313D01*
X59827108Y1928463D01*
X59831271Y1921451D01*
X59834805Y1915004D01*
X59838635Y1909100D01*
X59843682Y1903714D01*
X59850871Y1898822D01*
X59861123Y1894402D01*
X59875364Y1890428D01*
X59894514Y1886879D01*
X59919499Y1883730D01*
X59951240Y1880958D01*
X59990662Y1878539D01*
X60038686Y1876449D01*
X60096237Y1874665D01*
X60164237Y1873163D01*
X60243610Y1871920D01*
X60335279Y1870911D01*
X60440166Y1870115D01*
X60559196Y1869506D01*
X60693290Y1869061D01*
X60843373Y1868757D01*
X61010367Y1868570D01*
X61195196Y1868476D01*
X61398783Y1868452D01*
X61622050Y1868475D01*
X61865922Y1868520D01*
X62131321Y1868563D01*
X62169704Y1868568D01*
X62436682Y1868611D01*
X62682002Y1868682D01*
X62906583Y1868787D01*
X63111345Y1868934D01*
X63297206Y1869131D01*
X63465088Y1869384D01*
X63615908Y1869700D01*
X63750587Y1870087D01*
X63870044Y1870553D01*
X63975199Y1871103D01*
X64066971Y1871747D01*
X64146279Y1872489D01*
X64214043Y1873339D01*
X64271182Y1874303D01*
X64318617Y1875389D01*
X64357266Y1876603D01*
X64388049Y1877953D01*
X64411885Y1879445D01*
X64429694Y1881089D01*
X64442395Y1882889D01*
X64450908Y1884855D01*
X64455266Y1886523D01*
X64463728Y1890094D01*
X64471497Y1892730D01*
X64478602Y1895366D01*
X64485073Y1898938D01*
X64490939Y1904379D01*
X64496229Y1912625D01*
X64500974Y1924610D01*
X64505202Y1941269D01*
X64508943Y1963537D01*
X64512227Y1992348D01*
X64515083Y2028637D01*
X64517540Y2073339D01*
X64519629Y2127389D01*
X64521378Y2191721D01*
X64522817Y2267270D01*
X64523976Y2354970D01*
X64524883Y2455757D01*
X64525569Y2570566D01*
X64526063Y2700330D01*
X64526395Y2845985D01*
X64526593Y3008465D01*
X64526687Y3188705D01*
X64526708Y3387640D01*
X64526685Y3606204D01*
X64526646Y3845332D01*
X64526622Y4105960D01*
X64526622Y4148111D01*
X64526636Y4411008D01*
X64526661Y4652268D01*
X64526671Y4872835D01*
X64526642Y5073648D01*
X64526548Y5255651D01*
X64526362Y5419784D01*
X64526059Y5566989D01*
X64525614Y5698208D01*
X64525034Y5808133D01*
X64222197Y5808133D01*
X64182407Y5750289D01*
X64171236Y5734521D01*
X64161166Y5720559D01*
X64152138Y5707216D01*
X64144097Y5693307D01*
X64136986Y5677644D01*
X64130747Y5659042D01*
X64125325Y5636314D01*
X64120662Y5608273D01*
X64116701Y5573733D01*
X64113385Y5531508D01*
X64110659Y5480411D01*
X64108464Y5419256D01*
X64106745Y5346856D01*
X64105444Y5262025D01*
X64104505Y5163578D01*
X64103870Y5050326D01*
X64103484Y4921084D01*
X64103288Y4774666D01*
X64103227Y4609884D01*
X64103243Y4425553D01*
X64103280Y4220487D01*
X64103289Y4097867D01*
X64103265Y3880918D01*
X64103231Y3685358D01*
X64103243Y3510001D01*
X64103358Y3353659D01*
X64103630Y3215143D01*
X64104118Y3093266D01*
X64104876Y2986840D01*
X64105962Y2894678D01*
X64107431Y2815591D01*
X64109340Y2748392D01*
X64111744Y2691893D01*
X64114701Y2644907D01*
X64118266Y2606245D01*
X64122495Y2574720D01*
X64127446Y2549145D01*
X64133173Y2528330D01*
X64139733Y2511089D01*
X64147183Y2496235D01*
X64155579Y2482578D01*
X64164976Y2468931D01*
X64175432Y2454107D01*
X64181523Y2445217D01*
X64220296Y2387600D01*
X63688732Y2387600D01*
X63565483Y2387635D01*
X63462987Y2387785D01*
X63379420Y2388122D01*
X63312956Y2388714D01*
X63261771Y2389633D01*
X63224041Y2390949D01*
X63197940Y2392731D01*
X63181644Y2395049D01*
X63173328Y2397974D01*
X63171168Y2401576D01*
X63173339Y2405925D01*
X63174535Y2407355D01*
X63199685Y2444427D01*
X63225583Y2497228D01*
X63249192Y2559230D01*
X63257461Y2585643D01*
X63262078Y2603584D01*
X63265979Y2624645D01*
X63269248Y2650911D01*
X63271966Y2684468D01*
X63274215Y2727401D01*
X63276077Y2781796D01*
X63277636Y2849738D01*
X63278972Y2933312D01*
X63280169Y3034605D01*
X63281308Y3155700D01*
X63281685Y3200400D01*
X63282702Y3325551D01*
X63283460Y3429918D01*
X63283903Y3515293D01*
X63283970Y3583467D01*
X63283605Y3636235D01*
X63282748Y3675386D01*
X63281341Y3702715D01*
X63279325Y3720014D01*
X63276643Y3729074D01*
X63273236Y3731688D01*
X63269044Y3729649D01*
X63264571Y3725333D01*
X63254216Y3712398D01*
X63232158Y3683324D01*
X63199957Y3640241D01*
X63159174Y3585282D01*
X63111370Y3520577D01*
X63058105Y3448258D01*
X63000940Y3370456D01*
X62941437Y3289302D01*
X62881155Y3206928D01*
X62821655Y3125464D01*
X62764498Y3047043D01*
X62711245Y2973796D01*
X62663457Y2907853D01*
X62622693Y2851346D01*
X62590516Y2806407D01*
X62568485Y2775166D01*
X62563917Y2768534D01*
X62540996Y2731631D01*
X62514188Y2683641D01*
X62488789Y2634103D01*
X62485568Y2627423D01*
X62463890Y2579228D01*
X62451304Y2541666D01*
X62445574Y2505840D01*
X62444456Y2463800D01*
X62445090Y2387600D01*
X61290651Y2387600D01*
X61381815Y2481331D01*
X61428612Y2531225D01*
X61478899Y2587705D01*
X61524944Y2641974D01*
X61545369Y2667327D01*
X61575807Y2706872D01*
X61615862Y2760084D01*
X61664361Y2825333D01*
X61720135Y2900989D01*
X61782011Y2985423D01*
X61848819Y3077006D01*
X61919387Y3174108D01*
X61992545Y3275099D01*
X62067121Y3378350D01*
X62141944Y3482232D01*
X62215843Y3585115D01*
X62287646Y3685369D01*
X62356184Y3781364D01*
X62420284Y3871473D01*
X62478775Y3954064D01*
X62530486Y4027508D01*
X62574247Y4090176D01*
X62608885Y4140439D01*
X62633230Y4176666D01*
X62646111Y4197229D01*
X62647869Y4201332D01*
X62639910Y4212658D01*
X62619115Y4239838D01*
X62586847Y4281171D01*
X62544470Y4334956D01*
X62493347Y4399494D01*
X62434841Y4473082D01*
X62370314Y4554022D01*
X62301131Y4640612D01*
X62228653Y4731152D01*
X62154246Y4823940D01*
X62094517Y4898298D01*
X61083511Y4898298D01*
X61077602Y4885341D01*
X61063272Y4863092D01*
X61062225Y4861609D01*
X61043438Y4831456D01*
X61023791Y4794625D01*
X61019892Y4786489D01*
X61016356Y4778060D01*
X61013230Y4767941D01*
X61010486Y4754740D01*
X61008092Y4737062D01*
X61006019Y4713516D01*
X61004235Y4682707D01*
X61002712Y4643243D01*
X61001419Y4593731D01*
X61000326Y4532777D01*
X60999403Y4458989D01*
X60998619Y4370972D01*
X60997945Y4267335D01*
X60997350Y4146684D01*
X60996805Y4007626D01*
X60996279Y3848768D01*
X60995745Y3669911D01*
X60995206Y3484793D01*
X60994772Y3320855D01*
X60994509Y3176697D01*
X60994484Y3050921D01*
X60994765Y2942129D01*
X60995419Y2848923D01*
X60996514Y2769903D01*
X60998118Y2703672D01*
X61000297Y2648830D01*
X61003119Y2603979D01*
X61006651Y2567722D01*
X61010961Y2538659D01*
X61016117Y2515391D01*
X61022185Y2496521D01*
X61029233Y2480649D01*
X61037329Y2466378D01*
X61046540Y2452309D01*
X61055040Y2439842D01*
X61072176Y2413548D01*
X61082322Y2395963D01*
X61083511Y2392743D01*
X61072604Y2391666D01*
X61041411Y2390665D01*
X60992223Y2389765D01*
X60927333Y2388990D01*
X60849030Y2388363D01*
X60759607Y2387909D01*
X60661356Y2387651D01*
X60592445Y2387600D01*
X60487452Y2387820D01*
X60390610Y2388452D01*
X60304107Y2389451D01*
X60230132Y2390773D01*
X60170874Y2392374D01*
X60128520Y2394209D01*
X60105260Y2396235D01*
X60101378Y2397507D01*
X60109076Y2412409D01*
X60117074Y2420440D01*
X60130246Y2437566D01*
X60147485Y2467817D01*
X60159407Y2492378D01*
X60186045Y2551289D01*
X60189120Y3728155D01*
X60192195Y4905022D01*
X60637853Y4905022D01*
X60735670Y4904858D01*
X60826064Y4904389D01*
X60906630Y4903653D01*
X60974962Y4902684D01*
X61028656Y4901520D01*
X61065305Y4900197D01*
X61082504Y4898751D01*
X61083511Y4898298D01*
X62094517Y4898298D01*
X62079270Y4917278D01*
X62005090Y5009463D01*
X61933069Y5098796D01*
X61864569Y5183576D01*
X61800955Y5262102D01*
X61743588Y5332674D01*
X61693833Y5393591D01*
X61653052Y5443153D01*
X61635888Y5463822D01*
X61549596Y5564484D01*
X61472997Y5647741D01*
X61404183Y5715562D01*
X61341248Y5769911D01*
X61331867Y5777278D01*
X61292356Y5807883D01*
X62424116Y5808133D01*
X62418827Y5760156D01*
X62422130Y5702812D01*
X62443661Y5634537D01*
X62483635Y5554788D01*
X62528943Y5482505D01*
X62545161Y5459860D01*
X62573214Y5422304D01*
X62611430Y5371979D01*
X62658137Y5311027D01*
X62711661Y5241589D01*
X62770331Y5165806D01*
X62832475Y5085820D01*
X62896421Y5003772D01*
X62960495Y4921804D01*
X63023027Y4842057D01*
X63082343Y4766673D01*
X63136771Y4697793D01*
X63184639Y4637558D01*
X63224275Y4588111D01*
X63254006Y4551592D01*
X63272161Y4530142D01*
X63275220Y4526844D01*
X63278079Y4534851D01*
X63280293Y4565145D01*
X63281857Y4617444D01*
X63282767Y4691469D01*
X63283020Y4786937D01*
X63282613Y4903566D01*
X63281704Y5023555D01*
X63280382Y5155667D01*
X63278857Y5267406D01*
X63276881Y5360975D01*
X63274206Y5438581D01*
X63270582Y5502426D01*
X63265761Y5554717D01*
X63259494Y5597656D01*
X63251532Y5633449D01*
X63241627Y5664300D01*
X63229531Y5692414D01*
X63214993Y5719995D01*
X63200311Y5745034D01*
X63162314Y5808133D01*
X64222197Y5808133D01*
X64525034Y5808133D01*
X64525001Y5814383D01*
X64524195Y5916456D01*
X64523170Y6005367D01*
X64521900Y6082059D01*
X64520360Y6147473D01*
X64518524Y6202551D01*
X64516367Y6248235D01*
X64513863Y6285466D01*
X64510987Y6315187D01*
X64507713Y6338338D01*
X64504015Y6355861D01*
X64499869Y6368699D01*
X64495247Y6377792D01*
X64490126Y6384082D01*
X64484478Y6388512D01*
X64478279Y6392022D01*
X64471504Y6395555D01*
X64465508Y6399124D01*
X64460275Y6401700D01*
X64452099Y6404028D01*
X64439886Y6406122D01*
X64422541Y6407993D01*
X64398969Y6409653D01*
X64368077Y6411116D01*
X64328768Y6412392D01*
X64279950Y6413496D01*
X64220527Y6414439D01*
X64149404Y6415233D01*
X64065488Y6415891D01*
X63967683Y6416425D01*
X63854894Y6416847D01*
X63726029Y6417171D01*
X63579991Y6417408D01*
X63415686Y6417570D01*
X63232020Y6417670D01*
X63027897Y6417720D01*
X62816753Y6417733D01*
X61196400Y6417733D01*
X61196400Y6320946D01*
G36*
X57921571Y5860929D02*
G01*
X57761430Y5839755D01*
X57597490Y5799615D01*
X57427687Y5740111D01*
X57249957Y5660846D01*
X57238690Y5655301D01*
X57180995Y5627275D01*
X57129448Y5603198D01*
X57087809Y5584751D01*
X57059838Y5573614D01*
X57050267Y5571067D01*
X57031050Y5566059D01*
X57026439Y5561853D01*
X57031542Y5551420D01*
X57047582Y5525132D01*
X57072712Y5485743D01*
X57105086Y5436009D01*
X57142857Y5378685D01*
X57184178Y5316524D01*
X57227202Y5252282D01*
X57270083Y5188715D01*
X57310974Y5128575D01*
X57348029Y5074620D01*
X57379400Y5029603D01*
X57403241Y4996279D01*
X57417706Y4977403D01*
X57419691Y4975213D01*
X57429809Y4979862D01*
X57452150Y4997038D01*
X57482720Y5023560D01*
X57498464Y5038036D01*
X57594953Y5113318D01*
X57701664Y5168759D01*
X57817168Y5203859D01*
X57940038Y5218120D01*
X58009439Y5216949D01*
X58130577Y5199788D01*
X58239795Y5163906D01*
X58337418Y5109041D01*
X58423772Y5034930D01*
X58499185Y4941312D01*
X58563982Y4827924D01*
X58601399Y4741333D01*
X58645252Y4605634D01*
X58677572Y4458150D01*
X58698443Y4302686D01*
X58707949Y4143044D01*
X58706173Y3983027D01*
X58693197Y3826439D01*
X58669106Y3677082D01*
X58633982Y3538760D01*
X58587908Y3415276D01*
X58571627Y3381022D01*
X58503380Y3266936D01*
X58422921Y3170443D01*
X58331430Y3092330D01*
X58230089Y3033383D01*
X58120080Y2994388D01*
X58002585Y2976132D01*
X57961117Y2974789D01*
X57839559Y2985710D01*
X57719122Y3018526D01*
X57601334Y3072561D01*
X57487723Y3147135D01*
X57396315Y3225461D01*
X57349785Y3269992D01*
X57168517Y2972729D01*
X57123420Y2898567D01*
X57082181Y2830354D01*
X57046265Y2770541D01*
X57017134Y2721580D01*
X56996250Y2685921D01*
X56985076Y2666016D01*
X56983625Y2662921D01*
X56991854Y2653282D01*
X57017433Y2636001D01*
X57057127Y2612717D01*
X57107703Y2585066D01*
X57165926Y2554685D01*
X57228563Y2523210D01*
X57292379Y2492278D01*
X57354140Y2463527D01*
X57410612Y2438592D01*
X57458562Y2419111D01*
X57482014Y2410682D01*
X57615779Y2372867D01*
X57753673Y2347864D01*
X57901378Y2334860D01*
X58028167Y2332532D01*
X58096122Y2333627D01*
X58161723Y2335725D01*
X58219153Y2338566D01*
X58262597Y2341894D01*
X58276702Y2343578D01*
X58415716Y2372413D01*
X58557243Y2417532D01*
X58694725Y2476250D01*
X58821606Y2545880D01*
X58899111Y2598559D01*
X59026519Y2706761D01*
X59144822Y2833329D01*
X59251828Y2975134D01*
X59345348Y3129049D01*
X59423190Y3291947D01*
X59467044Y3409244D01*
X59517292Y3592872D01*
X59550791Y3787419D01*
X59567551Y3988675D01*
X59567584Y4192432D01*
X59550899Y4394479D01*
X59517507Y4590608D01*
X59467420Y4776609D01*
X59463603Y4788197D01*
X59400719Y4950250D01*
X59323972Y5098168D01*
X59230758Y5236135D01*
X59118473Y5368339D01*
X59074608Y5413601D01*
X58938466Y5537543D01*
X58798509Y5640085D01*
X58652589Y5722344D01*
X58498558Y5785436D01*
X58334268Y5830477D01*
X58238711Y5847967D01*
X58079977Y5863534D01*
X57921571Y5860929D01*
G37*
X57921571Y5860929D02*
X57761430Y5839755D01*
X57597490Y5799615D01*
X57427687Y5740111D01*
X57249957Y5660846D01*
X57238690Y5655301D01*
X57180995Y5627275D01*
X57129448Y5603198D01*
X57087809Y5584751D01*
X57059838Y5573614D01*
X57050267Y5571067D01*
X57031050Y5566059D01*
X57026439Y5561853D01*
X57031542Y5551420D01*
X57047582Y5525132D01*
X57072712Y5485743D01*
X57105086Y5436009D01*
X57142857Y5378685D01*
X57184178Y5316524D01*
X57227202Y5252282D01*
X57270083Y5188715D01*
X57310974Y5128575D01*
X57348029Y5074620D01*
X57379400Y5029603D01*
X57403241Y4996279D01*
X57417706Y4977403D01*
X57419691Y4975213D01*
X57429809Y4979862D01*
X57452150Y4997038D01*
X57482720Y5023560D01*
X57498464Y5038036D01*
X57594953Y5113318D01*
X57701664Y5168759D01*
X57817168Y5203859D01*
X57940038Y5218120D01*
X58009439Y5216949D01*
X58130577Y5199788D01*
X58239795Y5163906D01*
X58337418Y5109041D01*
X58423772Y5034930D01*
X58499185Y4941312D01*
X58563982Y4827924D01*
X58601399Y4741333D01*
X58645252Y4605634D01*
X58677572Y4458150D01*
X58698443Y4302686D01*
X58707949Y4143044D01*
X58706173Y3983027D01*
X58693197Y3826439D01*
X58669106Y3677082D01*
X58633982Y3538760D01*
X58587908Y3415276D01*
X58571627Y3381022D01*
X58503380Y3266936D01*
X58422921Y3170443D01*
X58331430Y3092330D01*
X58230089Y3033383D01*
X58120080Y2994388D01*
X58002585Y2976132D01*
X57961117Y2974789D01*
X57839559Y2985710D01*
X57719122Y3018526D01*
X57601334Y3072561D01*
X57487723Y3147135D01*
X57396315Y3225461D01*
X57349785Y3269992D01*
X57168517Y2972729D01*
X57123420Y2898567D01*
X57082181Y2830354D01*
X57046265Y2770541D01*
X57017134Y2721580D01*
X56996250Y2685921D01*
X56985076Y2666016D01*
X56983625Y2662921D01*
X56991854Y2653282D01*
X57017433Y2636001D01*
X57057127Y2612717D01*
X57107703Y2585066D01*
X57165926Y2554685D01*
X57228563Y2523210D01*
X57292379Y2492278D01*
X57354140Y2463527D01*
X57410612Y2438592D01*
X57458562Y2419111D01*
X57482014Y2410682D01*
X57615779Y2372867D01*
X57753673Y2347864D01*
X57901378Y2334860D01*
X58028167Y2332532D01*
X58096122Y2333627D01*
X58161723Y2335725D01*
X58219153Y2338566D01*
X58262597Y2341894D01*
X58276702Y2343578D01*
X58415716Y2372413D01*
X58557243Y2417532D01*
X58694725Y2476250D01*
X58821606Y2545880D01*
X58899111Y2598559D01*
X59026519Y2706761D01*
X59144822Y2833329D01*
X59251828Y2975134D01*
X59345348Y3129049D01*
X59423190Y3291947D01*
X59467044Y3409244D01*
X59517292Y3592872D01*
X59550791Y3787419D01*
X59567551Y3988675D01*
X59567584Y4192432D01*
X59550899Y4394479D01*
X59517507Y4590608D01*
X59467420Y4776609D01*
X59463603Y4788197D01*
X59400719Y4950250D01*
X59323972Y5098168D01*
X59230758Y5236135D01*
X59118473Y5368339D01*
X59074608Y5413601D01*
X58938466Y5537543D01*
X58798509Y5640085D01*
X58652589Y5722344D01*
X58498558Y5785436D01*
X58334268Y5830477D01*
X58238711Y5847967D01*
X58079977Y5863534D01*
X57921571Y5860929D01*
G36*
X55576426Y4943448D02*
G01*
X55424508Y4923433D01*
X55289244Y4889798D01*
X55169761Y4842275D01*
X55065185Y4780595D01*
X54987576Y4717035D01*
X54918735Y4642901D01*
X54864994Y4563129D01*
X54822090Y4470909D01*
X54806616Y4427839D01*
X54793756Y4388858D01*
X54782554Y4352711D01*
X54772880Y4317566D01*
X54764604Y4281590D01*
X54757597Y4242950D01*
X54751728Y4199815D01*
X54746869Y4150351D01*
X54742890Y4092727D01*
X54739660Y4025109D01*
X54737051Y3945666D01*
X54734933Y3852564D01*
X54733176Y3743973D01*
X54731651Y3618058D01*
X54730228Y3472988D01*
X54728975Y3330222D01*
X54727649Y3174032D01*
X54726444Y3038761D01*
X54725234Y2922754D01*
X54723894Y2824355D01*
X54722300Y2741907D01*
X54720325Y2673754D01*
X54717844Y2618240D01*
X54714731Y2573708D01*
X54710862Y2538502D01*
X54706111Y2510966D01*
X54700352Y2489444D01*
X54693461Y2472278D01*
X54685311Y2457814D01*
X54675777Y2444394D01*
X54664734Y2430362D01*
X54660434Y2424929D01*
X54644614Y2402090D01*
X54637578Y2386537D01*
X54637556Y2386078D01*
X54648433Y2383879D01*
X54679418Y2381853D01*
X54728043Y2380058D01*
X54791837Y2378549D01*
X54868331Y2377384D01*
X54955056Y2376620D01*
X55049543Y2376314D01*
X55060450Y2376311D01*
X55483343Y2376311D01*
X55486605Y2472378D01*
X55489867Y2568444D01*
X55551956Y2517457D01*
X55649286Y2449943D01*
X55759187Y2395251D01*
X55845651Y2365022D01*
X55914722Y2350334D01*
X55998075Y2340341D01*
X56087841Y2335354D01*
X56176155Y2335687D01*
X56255149Y2341649D01*
X56291378Y2347362D01*
X56431397Y2385224D01*
X56557822Y2440068D01*
X56669740Y2511076D01*
X56766238Y2597432D01*
X56846400Y2698321D01*
X56909313Y2812924D01*
X56953688Y2939016D01*
X56966022Y2995599D01*
X56973632Y3057798D01*
X56977261Y3132637D01*
X56977755Y3166533D01*
X56977690Y3169718D01*
X56217752Y3169718D01*
X56208459Y3094667D01*
X56180272Y3030840D01*
X56131803Y2975202D01*
X56126746Y2970789D01*
X56078452Y2935963D01*
X56026743Y2913380D01*
X55966011Y2901460D01*
X55890648Y2898617D01*
X55872541Y2899022D01*
X55818722Y2901675D01*
X55778692Y2907091D01*
X55743676Y2917255D01*
X55704897Y2934150D01*
X55694255Y2939328D01*
X55633604Y2975156D01*
X55586785Y3017788D01*
X55574048Y3033027D01*
X55529378Y3089538D01*
X55529378Y3285414D01*
X55529914Y3364061D01*
X55531604Y3422012D01*
X55534572Y3461125D01*
X55538943Y3483259D01*
X55543028Y3489726D01*
X55558953Y3492889D01*
X55592736Y3495512D01*
X55639660Y3497345D01*
X55695007Y3498143D01*
X55703894Y3498158D01*
X55824670Y3492904D01*
X55927340Y3476737D01*
X56013894Y3449039D01*
X56086319Y3409192D01*
X56141249Y3362242D01*
X56185796Y3304355D01*
X56210520Y3241307D01*
X56217752Y3169718D01*
X56977690Y3169718D01*
X56975822Y3260288D01*
X56967478Y3339188D01*
X56951232Y3410410D01*
X56925595Y3481136D01*
X56901599Y3533507D01*
X56842980Y3628804D01*
X56764883Y3716830D01*
X56669685Y3795983D01*
X56559762Y3864660D01*
X56437490Y3921259D01*
X56305245Y3964179D01*
X56240578Y3979118D01*
X56104396Y4001223D01*
X55955951Y4015806D01*
X55804495Y4022187D01*
X55677936Y4020555D01*
X55516050Y4013776D01*
X55523470Y4072755D01*
X55542762Y4171908D01*
X55573896Y4252628D01*
X55617731Y4315534D01*
X55675129Y4361244D01*
X55746952Y4390378D01*
X55834059Y4403553D01*
X55937314Y4401389D01*
X55975289Y4397388D01*
X56116480Y4372220D01*
X56253293Y4331186D01*
X56347822Y4293185D01*
X56392982Y4273810D01*
X56431415Y4258240D01*
X56457766Y4248595D01*
X56465454Y4246548D01*
X56475198Y4255626D01*
X56491917Y4284595D01*
X56515768Y4333783D01*
X56546907Y4403516D01*
X56585493Y4494121D01*
X56592090Y4509911D01*
X56622147Y4582228D01*
X56649126Y4647575D01*
X56671864Y4703094D01*
X56689194Y4745928D01*
X56699952Y4773219D01*
X56703059Y4782058D01*
X56693060Y4786813D01*
X56666783Y4792090D01*
X56638511Y4795769D01*
X56608354Y4800526D01*
X56560567Y4809972D01*
X56499388Y4823180D01*
X56429054Y4839224D01*
X56353806Y4857180D01*
X56325245Y4864203D01*
X56220184Y4889791D01*
X56132520Y4909853D01*
X56057932Y4925031D01*
X55992097Y4935965D01*
X55930693Y4943296D01*
X55869398Y4947665D01*
X55803890Y4949713D01*
X55745872Y4950111D01*
X55576426Y4943448D01*
G37*
X55576426Y4943448D02*
X55424508Y4923433D01*
X55289244Y4889798D01*
X55169761Y4842275D01*
X55065185Y4780595D01*
X54987576Y4717035D01*
X54918735Y4642901D01*
X54864994Y4563129D01*
X54822090Y4470909D01*
X54806616Y4427839D01*
X54793756Y4388858D01*
X54782554Y4352711D01*
X54772880Y4317566D01*
X54764604Y4281590D01*
X54757597Y4242950D01*
X54751728Y4199815D01*
X54746869Y4150351D01*
X54742890Y4092727D01*
X54739660Y4025109D01*
X54737051Y3945666D01*
X54734933Y3852564D01*
X54733176Y3743973D01*
X54731651Y3618058D01*
X54730228Y3472988D01*
X54728975Y3330222D01*
X54727649Y3174032D01*
X54726444Y3038761D01*
X54725234Y2922754D01*
X54723894Y2824355D01*
X54722300Y2741907D01*
X54720325Y2673754D01*
X54717844Y2618240D01*
X54714731Y2573708D01*
X54710862Y2538502D01*
X54706111Y2510966D01*
X54700352Y2489444D01*
X54693461Y2472278D01*
X54685311Y2457814D01*
X54675777Y2444394D01*
X54664734Y2430362D01*
X54660434Y2424929D01*
X54644614Y2402090D01*
X54637578Y2386537D01*
X54637556Y2386078D01*
X54648433Y2383879D01*
X54679418Y2381853D01*
X54728043Y2380058D01*
X54791837Y2378549D01*
X54868331Y2377384D01*
X54955056Y2376620D01*
X55049543Y2376314D01*
X55060450Y2376311D01*
X55483343Y2376311D01*
X55486605Y2472378D01*
X55489867Y2568444D01*
X55551956Y2517457D01*
X55649286Y2449943D01*
X55759187Y2395251D01*
X55845651Y2365022D01*
X55914722Y2350334D01*
X55998075Y2340341D01*
X56087841Y2335354D01*
X56176155Y2335687D01*
X56255149Y2341649D01*
X56291378Y2347362D01*
X56431397Y2385224D01*
X56557822Y2440068D01*
X56669740Y2511076D01*
X56766238Y2597432D01*
X56846400Y2698321D01*
X56909313Y2812924D01*
X56953688Y2939016D01*
X56966022Y2995599D01*
X56973632Y3057798D01*
X56977261Y3132637D01*
X56977755Y3166533D01*
X56977690Y3169718D01*
X56217752Y3169718D01*
X56208459Y3094667D01*
X56180272Y3030840D01*
X56131803Y2975202D01*
X56126746Y2970789D01*
X56078452Y2935963D01*
X56026743Y2913380D01*
X55966011Y2901460D01*
X55890648Y2898617D01*
X55872541Y2899022D01*
X55818722Y2901675D01*
X55778692Y2907091D01*
X55743676Y2917255D01*
X55704897Y2934150D01*
X55694255Y2939328D01*
X55633604Y2975156D01*
X55586785Y3017788D01*
X55574048Y3033027D01*
X55529378Y3089538D01*
X55529378Y3285414D01*
X55529914Y3364061D01*
X55531604Y3422012D01*
X55534572Y3461125D01*
X55538943Y3483259D01*
X55543028Y3489726D01*
X55558953Y3492889D01*
X55592736Y3495512D01*
X55639660Y3497345D01*
X55695007Y3498143D01*
X55703894Y3498158D01*
X55824670Y3492904D01*
X55927340Y3476737D01*
X56013894Y3449039D01*
X56086319Y3409192D01*
X56141249Y3362242D01*
X56185796Y3304355D01*
X56210520Y3241307D01*
X56217752Y3169718D01*
X56977690Y3169718D01*
X56975822Y3260288D01*
X56967478Y3339188D01*
X56951232Y3410410D01*
X56925595Y3481136D01*
X56901599Y3533507D01*
X56842980Y3628804D01*
X56764883Y3716830D01*
X56669685Y3795983D01*
X56559762Y3864660D01*
X56437490Y3921259D01*
X56305245Y3964179D01*
X56240578Y3979118D01*
X56104396Y4001223D01*
X55955951Y4015806D01*
X55804495Y4022187D01*
X55677936Y4020555D01*
X55516050Y4013776D01*
X55523470Y4072755D01*
X55542762Y4171908D01*
X55573896Y4252628D01*
X55617731Y4315534D01*
X55675129Y4361244D01*
X55746952Y4390378D01*
X55834059Y4403553D01*
X55937314Y4401389D01*
X55975289Y4397388D01*
X56116480Y4372220D01*
X56253293Y4331186D01*
X56347822Y4293185D01*
X56392982Y4273810D01*
X56431415Y4258240D01*
X56457766Y4248595D01*
X56465454Y4246548D01*
X56475198Y4255626D01*
X56491917Y4284595D01*
X56515768Y4333783D01*
X56546907Y4403516D01*
X56585493Y4494121D01*
X56592090Y4509911D01*
X56622147Y4582228D01*
X56649126Y4647575D01*
X56671864Y4703094D01*
X56689194Y4745928D01*
X56699952Y4773219D01*
X56703059Y4782058D01*
X56693060Y4786813D01*
X56666783Y4792090D01*
X56638511Y4795769D01*
X56608354Y4800526D01*
X56560567Y4809972D01*
X56499388Y4823180D01*
X56429054Y4839224D01*
X56353806Y4857180D01*
X56325245Y4864203D01*
X56220184Y4889791D01*
X56132520Y4909853D01*
X56057932Y4925031D01*
X55992097Y4935965D01*
X55930693Y4943296D01*
X55869398Y4947665D01*
X55803890Y4949713D01*
X55745872Y4950111D01*
X55576426Y4943448D01*
G36*
X52063493Y4337755D02*
G01*
X52063474Y4103338D01*
X52063448Y3890397D01*
X52063375Y3697832D01*
X52063218Y3524541D01*
X52062936Y3369424D01*
X52062491Y3231380D01*
X52061844Y3109308D01*
X52060955Y3002106D01*
X52059787Y2908674D01*
X52058299Y2827910D01*
X52056454Y2758714D01*
X52054211Y2699985D01*
X52051531Y2650621D01*
X52048377Y2609522D01*
X52044708Y2575587D01*
X52040487Y2547714D01*
X52035673Y2524802D01*
X52030227Y2505751D01*
X52024112Y2489460D01*
X52017288Y2474827D01*
X52009715Y2460751D01*
X52001355Y2446132D01*
X51996161Y2437026D01*
X51961896Y2376311D01*
X52820045Y2376311D01*
X52820045Y2472267D01*
X52820776Y2515630D01*
X52822728Y2548795D01*
X52825537Y2566576D01*
X52826779Y2568222D01*
X52838201Y2561338D01*
X52860916Y2543495D01*
X52883615Y2524121D01*
X52938200Y2483386D01*
X53007679Y2442383D01*
X53084730Y2404877D01*
X53162035Y2374636D01*
X53192887Y2364988D01*
X53261384Y2350422D01*
X53344236Y2340461D01*
X53433629Y2335417D01*
X53521752Y2335604D01*
X53600793Y2341334D01*
X53638489Y2347142D01*
X53776586Y2385203D01*
X53903887Y2442927D01*
X54019708Y2519789D01*
X54123363Y2615261D01*
X54214167Y2728821D01*
X54280969Y2839619D01*
X54335836Y2956375D01*
X54377837Y3075724D01*
X54407833Y3201717D01*
X54426689Y3338406D01*
X54435268Y3489842D01*
X54435994Y3567289D01*
X54433900Y3624066D01*
X53604783Y3624066D01*
X53604576Y3530998D01*
X53601663Y3443308D01*
X53596000Y3366228D01*
X53587545Y3304991D01*
X53584962Y3292650D01*
X53553160Y3185367D01*
X53511502Y3098342D01*
X53459637Y3031358D01*
X53397219Y2984195D01*
X53323900Y2956635D01*
X53239331Y2948459D01*
X53143165Y2959449D01*
X53079689Y2975171D01*
X53030546Y2993361D01*
X52976417Y3019209D01*
X52935756Y3042911D01*
X52865200Y3089279D01*
X52865200Y4239470D01*
X52932608Y4283038D01*
X53011133Y4323960D01*
X53095319Y4350611D01*
X53180443Y4362535D01*
X53261784Y4359278D01*
X53334620Y4340385D01*
X53366574Y4324816D01*
X53424499Y4281819D01*
X53473456Y4225047D01*
X53514610Y4152425D01*
X53549126Y4061879D01*
X53578167Y3951334D01*
X53579448Y3945467D01*
X53589619Y3883212D01*
X53597261Y3805406D01*
X53602330Y3717280D01*
X53604783Y3624066D01*
X54433900Y3624066D01*
X54428143Y3780105D01*
X54406198Y3975941D01*
X54370214Y4154668D01*
X54320241Y4316155D01*
X54256332Y4460274D01*
X54178538Y4586894D01*
X54086911Y4695885D01*
X53981503Y4787117D01*
X53936338Y4818068D01*
X53835389Y4874215D01*
X53732099Y4913826D01*
X53622011Y4937986D01*
X53500670Y4947781D01*
X53408164Y4946735D01*
X53278510Y4935769D01*
X53165916Y4913954D01*
X53067125Y4880286D01*
X52978879Y4833764D01*
X52930014Y4799552D01*
X52900647Y4777638D01*
X52878957Y4762667D01*
X52870747Y4758267D01*
X52869132Y4769096D01*
X52867841Y4799749D01*
X52866862Y4847474D01*
X52866183Y4909521D01*
X52865790Y4983138D01*
X52865670Y5065573D01*
X52865812Y5154075D01*
X52866203Y5245893D01*
X52866829Y5338276D01*
X52867680Y5428472D01*
X52868740Y5513729D01*
X52869999Y5591297D01*
X52871444Y5658424D01*
X52873062Y5712359D01*
X52874839Y5750350D01*
X52875331Y5757333D01*
X52882908Y5827749D01*
X52894469Y5882898D01*
X52912208Y5930019D01*
X52938318Y5976353D01*
X52944585Y5985933D01*
X52969017Y6022622D01*
X52063689Y6022622D01*
X52063493Y4337755D01*
G37*
X52063493Y4337755D02*
X52063474Y4103338D01*
X52063448Y3890397D01*
X52063375Y3697832D01*
X52063218Y3524541D01*
X52062936Y3369424D01*
X52062491Y3231380D01*
X52061844Y3109308D01*
X52060955Y3002106D01*
X52059787Y2908674D01*
X52058299Y2827910D01*
X52056454Y2758714D01*
X52054211Y2699985D01*
X52051531Y2650621D01*
X52048377Y2609522D01*
X52044708Y2575587D01*
X52040487Y2547714D01*
X52035673Y2524802D01*
X52030227Y2505751D01*
X52024112Y2489460D01*
X52017288Y2474827D01*
X52009715Y2460751D01*
X52001355Y2446132D01*
X51996161Y2437026D01*
X51961896Y2376311D01*
X52820045Y2376311D01*
X52820045Y2472267D01*
X52820776Y2515630D01*
X52822728Y2548795D01*
X52825537Y2566576D01*
X52826779Y2568222D01*
X52838201Y2561338D01*
X52860916Y2543495D01*
X52883615Y2524121D01*
X52938200Y2483386D01*
X53007679Y2442383D01*
X53084730Y2404877D01*
X53162035Y2374636D01*
X53192887Y2364988D01*
X53261384Y2350422D01*
X53344236Y2340461D01*
X53433629Y2335417D01*
X53521752Y2335604D01*
X53600793Y2341334D01*
X53638489Y2347142D01*
X53776586Y2385203D01*
X53903887Y2442927D01*
X54019708Y2519789D01*
X54123363Y2615261D01*
X54214167Y2728821D01*
X54280969Y2839619D01*
X54335836Y2956375D01*
X54377837Y3075724D01*
X54407833Y3201717D01*
X54426689Y3338406D01*
X54435268Y3489842D01*
X54435994Y3567289D01*
X54433900Y3624066D01*
X53604783Y3624066D01*
X53604576Y3530998D01*
X53601663Y3443308D01*
X53596000Y3366228D01*
X53587545Y3304991D01*
X53584962Y3292650D01*
X53553160Y3185367D01*
X53511502Y3098342D01*
X53459637Y3031358D01*
X53397219Y2984195D01*
X53323900Y2956635D01*
X53239331Y2948459D01*
X53143165Y2959449D01*
X53079689Y2975171D01*
X53030546Y2993361D01*
X52976417Y3019209D01*
X52935756Y3042911D01*
X52865200Y3089279D01*
X52865200Y4239470D01*
X52932608Y4283038D01*
X53011133Y4323960D01*
X53095319Y4350611D01*
X53180443Y4362535D01*
X53261784Y4359278D01*
X53334620Y4340385D01*
X53366574Y4324816D01*
X53424499Y4281819D01*
X53473456Y4225047D01*
X53514610Y4152425D01*
X53549126Y4061879D01*
X53578167Y3951334D01*
X53579448Y3945467D01*
X53589619Y3883212D01*
X53597261Y3805406D01*
X53602330Y3717280D01*
X53604783Y3624066D01*
X54433900Y3624066D01*
X54428143Y3780105D01*
X54406198Y3975941D01*
X54370214Y4154668D01*
X54320241Y4316155D01*
X54256332Y4460274D01*
X54178538Y4586894D01*
X54086911Y4695885D01*
X53981503Y4787117D01*
X53936338Y4818068D01*
X53835389Y4874215D01*
X53732099Y4913826D01*
X53622011Y4937986D01*
X53500670Y4947781D01*
X53408164Y4946735D01*
X53278510Y4935769D01*
X53165916Y4913954D01*
X53067125Y4880286D01*
X52978879Y4833764D01*
X52930014Y4799552D01*
X52900647Y4777638D01*
X52878957Y4762667D01*
X52870747Y4758267D01*
X52869132Y4769096D01*
X52867841Y4799749D01*
X52866862Y4847474D01*
X52866183Y4909521D01*
X52865790Y4983138D01*
X52865670Y5065573D01*
X52865812Y5154075D01*
X52866203Y5245893D01*
X52866829Y5338276D01*
X52867680Y5428472D01*
X52868740Y5513729D01*
X52869999Y5591297D01*
X52871444Y5658424D01*
X52873062Y5712359D01*
X52874839Y5750350D01*
X52875331Y5757333D01*
X52882908Y5827749D01*
X52894469Y5882898D01*
X52912208Y5930019D01*
X52938318Y5976353D01*
X52944585Y5985933D01*
X52969017Y6022622D01*
X52063689Y6022622D01*
X52063493Y4337755D01*
G36*
X60523043Y6783429D02*
G01*
X60426768Y6759191D01*
X60340184Y6716359D01*
X60265373Y6656581D01*
X60204418Y6581506D01*
X60159399Y6492780D01*
X60133136Y6396470D01*
X60127286Y6299205D01*
X60142140Y6205346D01*
X60175840Y6117489D01*
X60226528Y6038230D01*
X60292345Y5970164D01*
X60371434Y5915888D01*
X60461934Y5877998D01*
X60513200Y5865574D01*
X60557698Y5858053D01*
X60591999Y5855081D01*
X60624960Y5856906D01*
X60665434Y5863775D01*
X60698531Y5870750D01*
X60791947Y5902259D01*
X60875619Y5953383D01*
X60947665Y6022571D01*
X61006200Y6108272D01*
X61020148Y6135511D01*
X61036586Y6171878D01*
X61046894Y6202418D01*
X61052460Y6234550D01*
X61054669Y6275693D01*
X61054948Y6321778D01*
X61050861Y6406135D01*
X61037446Y6475414D01*
X61012256Y6536039D01*
X60972846Y6594433D01*
X60934298Y6638698D01*
X60862406Y6704516D01*
X60787313Y6749947D01*
X60704562Y6777150D01*
X60626928Y6787424D01*
X60523043Y6783429D01*
G37*
X60523043Y6783429D02*
X60426768Y6759191D01*
X60340184Y6716359D01*
X60265373Y6656581D01*
X60204418Y6581506D01*
X60159399Y6492780D01*
X60133136Y6396470D01*
X60127286Y6299205D01*
X60142140Y6205346D01*
X60175840Y6117489D01*
X60226528Y6038230D01*
X60292345Y5970164D01*
X60371434Y5915888D01*
X60461934Y5877998D01*
X60513200Y5865574D01*
X60557698Y5858053D01*
X60591999Y5855081D01*
X60624960Y5856906D01*
X60665434Y5863775D01*
X60698531Y5870750D01*
X60791947Y5902259D01*
X60875619Y5953383D01*
X60947665Y6022571D01*
X61006200Y6108272D01*
X61020148Y6135511D01*
X61036586Y6171878D01*
X61046894Y6202418D01*
X61052460Y6234550D01*
X61054669Y6275693D01*
X61054948Y6321778D01*
X61050861Y6406135D01*
X61037446Y6475414D01*
X61012256Y6536039D01*
X60972846Y6594433D01*
X60934298Y6638698D01*
X60862406Y6704516D01*
X60787313Y6749947D01*
X60704562Y6777150D01*
X60626928Y6787424D01*
X60523043Y6783429D01*
G36*
X64371371Y1540934D02*
G01*
X64331889Y1540533D01*
X64216200Y1537741D01*
X64119311Y1529450D01*
X64037919Y1514768D01*
X63968723Y1492807D01*
X63908420Y1462678D01*
X63853708Y1423490D01*
X63834167Y1406468D01*
X63801750Y1366637D01*
X63772520Y1312587D01*
X63749991Y1252677D01*
X63737679Y1195261D01*
X63736400Y1174044D01*
X63744417Y1115231D01*
X63765899Y1050987D01*
X63796999Y990179D01*
X63833866Y941670D01*
X63839854Y935818D01*
X63890579Y894679D01*
X63946125Y862565D01*
X64009696Y838635D01*
X64084494Y822047D01*
X64173722Y811959D01*
X64280582Y807531D01*
X64329528Y807155D01*
X64391762Y807455D01*
X64435528Y808708D01*
X64464931Y811446D01*
X64484079Y816199D01*
X64497077Y823499D01*
X64504045Y829733D01*
X64510626Y837306D01*
X64515788Y847076D01*
X64519703Y861660D01*
X64522543Y883674D01*
X64524480Y915736D01*
X64525684Y960464D01*
X64526328Y1020474D01*
X64526583Y1098383D01*
X64526622Y1174044D01*
X64526870Y1274959D01*
X64526817Y1355573D01*
X64525857Y1394178D01*
X64379867Y1394178D01*
X64379867Y953911D01*
X64286734Y953996D01*
X64230693Y955604D01*
X64171999Y959744D01*
X64123028Y965536D01*
X64121538Y965774D01*
X64042392Y984910D01*
X63981002Y1014713D01*
X63934305Y1057122D01*
X63904635Y1103039D01*
X63886353Y1153974D01*
X63887771Y1201800D01*
X63908988Y1253067D01*
X63950489Y1306101D01*
X64007998Y1345400D01*
X64082750Y1371669D01*
X64132708Y1380965D01*
X64189416Y1387493D01*
X64249519Y1392218D01*
X64300639Y1394183D01*
X64303667Y1394192D01*
X64379867Y1394178D01*
X64525857Y1394178D01*
X64525260Y1418149D01*
X64520998Y1464945D01*
X64512830Y1498222D01*
X64499556Y1520241D01*
X64479974Y1533261D01*
X64452883Y1539543D01*
X64417082Y1541347D01*
X64371371Y1540934D01*
G37*
X64371371Y1540934D02*
X64331889Y1540533D01*
X64216200Y1537741D01*
X64119311Y1529450D01*
X64037919Y1514768D01*
X63968723Y1492807D01*
X63908420Y1462678D01*
X63853708Y1423490D01*
X63834167Y1406468D01*
X63801750Y1366637D01*
X63772520Y1312587D01*
X63749991Y1252677D01*
X63737679Y1195261D01*
X63736400Y1174044D01*
X63744417Y1115231D01*
X63765899Y1050987D01*
X63796999Y990179D01*
X63833866Y941670D01*
X63839854Y935818D01*
X63890579Y894679D01*
X63946125Y862565D01*
X64009696Y838635D01*
X64084494Y822047D01*
X64173722Y811959D01*
X64280582Y807531D01*
X64329528Y807155D01*
X64391762Y807455D01*
X64435528Y808708D01*
X64464931Y811446D01*
X64484079Y816199D01*
X64497077Y823499D01*
X64504045Y829733D01*
X64510626Y837306D01*
X64515788Y847076D01*
X64519703Y861660D01*
X64522543Y883674D01*
X64524480Y915736D01*
X64525684Y960464D01*
X64526328Y1020474D01*
X64526583Y1098383D01*
X64526622Y1174044D01*
X64526870Y1274959D01*
X64526817Y1355573D01*
X64525857Y1394178D01*
X64379867Y1394178D01*
X64379867Y953911D01*
X64286734Y953996D01*
X64230693Y955604D01*
X64171999Y959744D01*
X64123028Y965536D01*
X64121538Y965774D01*
X64042392Y984910D01*
X63981002Y1014713D01*
X63934305Y1057122D01*
X63904635Y1103039D01*
X63886353Y1153974D01*
X63887771Y1201800D01*
X63908988Y1253067D01*
X63950489Y1306101D01*
X64007998Y1345400D01*
X64082750Y1371669D01*
X64132708Y1380965D01*
X64189416Y1387493D01*
X64249519Y1392218D01*
X64300639Y1394183D01*
X64303667Y1394192D01*
X64379867Y1394178D01*
X64525857Y1394178D01*
X64525260Y1418149D01*
X64520998Y1464945D01*
X64512830Y1498222D01*
X64499556Y1520241D01*
X64479974Y1533261D01*
X64452883Y1539543D01*
X64417082Y1541347D01*
X64371371Y1540934D01*
G36*
X62962794Y1540854D02*
G01*
X62893386Y1540482D01*
X62840997Y1539615D01*
X62802847Y1538054D01*
X62776159Y1535597D01*
X62758153Y1532043D01*
X62746049Y1527190D01*
X62737069Y1520839D01*
X62733818Y1517916D01*
X62714043Y1486858D01*
X62710482Y1451172D01*
X62723491Y1419490D01*
X62729506Y1413087D01*
X62739235Y1406879D01*
X62754901Y1402090D01*
X62779408Y1398486D01*
X62815661Y1395836D01*
X62866565Y1393905D01*
X62935026Y1392461D01*
X62997617Y1391582D01*
X63245334Y1388533D01*
X63248719Y1323622D01*
X63252105Y1258711D01*
X63083958Y1258711D01*
X63010959Y1258081D01*
X62957517Y1255447D01*
X62920628Y1249691D01*
X62897288Y1239696D01*
X62884494Y1224344D01*
X62879242Y1202518D01*
X62878445Y1182262D01*
X62880923Y1157408D01*
X62890277Y1139094D01*
X62909383Y1126363D01*
X62941118Y1118259D01*
X62988359Y1113824D01*
X63053983Y1112101D01*
X63089801Y1111955D01*
X63250978Y1111955D01*
X63250978Y953911D01*
X63002622Y953911D01*
X62921213Y953798D01*
X62859342Y953288D01*
X62813968Y952130D01*
X62782054Y950070D01*
X62760559Y946854D01*
X62746443Y942228D01*
X62736668Y935941D01*
X62731689Y931333D01*
X62714610Y904440D01*
X62709111Y880533D01*
X62716963Y851333D01*
X62731689Y829733D01*
X62739546Y822934D01*
X62749688Y817654D01*
X62764844Y813702D01*
X62787741Y810887D01*
X62821109Y809018D01*
X62867675Y807902D01*
X62930167Y807349D01*
X63011314Y807167D01*
X63053422Y807155D01*
X63143598Y807235D01*
X63213924Y807602D01*
X63267129Y808448D01*
X63305940Y809964D01*
X63333087Y812341D01*
X63351298Y815771D01*
X63363300Y820446D01*
X63371822Y826556D01*
X63375156Y829733D01*
X63381755Y837330D01*
X63386927Y847130D01*
X63390846Y861761D01*
X63393684Y883848D01*
X63395615Y916018D01*
X63396812Y960897D01*
X63397448Y1021111D01*
X63397697Y1099287D01*
X63397734Y1172077D01*
X63397700Y1265293D01*
X63397465Y1338569D01*
X63396830Y1394542D01*
X63395594Y1435849D01*
X63393556Y1465128D01*
X63390517Y1485016D01*
X63386277Y1498150D01*
X63380635Y1507168D01*
X63373391Y1514707D01*
X63371606Y1516388D01*
X63362945Y1523828D01*
X63352882Y1529591D01*
X63338625Y1533888D01*
X63317383Y1536936D01*
X63286364Y1538949D01*
X63242777Y1540140D01*
X63183831Y1540725D01*
X63106734Y1540917D01*
X63052001Y1540933D01*
X62962794Y1540854D01*
G37*
X62962794Y1540854D02*
X62893386Y1540482D01*
X62840997Y1539615D01*
X62802847Y1538054D01*
X62776159Y1535597D01*
X62758153Y1532043D01*
X62746049Y1527190D01*
X62737069Y1520839D01*
X62733818Y1517916D01*
X62714043Y1486858D01*
X62710482Y1451172D01*
X62723491Y1419490D01*
X62729506Y1413087D01*
X62739235Y1406879D01*
X62754901Y1402090D01*
X62779408Y1398486D01*
X62815661Y1395836D01*
X62866565Y1393905D01*
X62935026Y1392461D01*
X62997617Y1391582D01*
X63245334Y1388533D01*
X63248719Y1323622D01*
X63252105Y1258711D01*
X63083958Y1258711D01*
X63010959Y1258081D01*
X62957517Y1255447D01*
X62920628Y1249691D01*
X62897288Y1239696D01*
X62884494Y1224344D01*
X62879242Y1202518D01*
X62878445Y1182262D01*
X62880923Y1157408D01*
X62890277Y1139094D01*
X62909383Y1126363D01*
X62941118Y1118259D01*
X62988359Y1113824D01*
X63053983Y1112101D01*
X63089801Y1111955D01*
X63250978Y1111955D01*
X63250978Y953911D01*
X63002622Y953911D01*
X62921213Y953798D01*
X62859342Y953288D01*
X62813968Y952130D01*
X62782054Y950070D01*
X62760559Y946854D01*
X62746443Y942228D01*
X62736668Y935941D01*
X62731689Y931333D01*
X62714610Y904440D01*
X62709111Y880533D01*
X62716963Y851333D01*
X62731689Y829733D01*
X62739546Y822934D01*
X62749688Y817654D01*
X62764844Y813702D01*
X62787741Y810887D01*
X62821109Y809018D01*
X62867675Y807902D01*
X62930167Y807349D01*
X63011314Y807167D01*
X63053422Y807155D01*
X63143598Y807235D01*
X63213924Y807602D01*
X63267129Y808448D01*
X63305940Y809964D01*
X63333087Y812341D01*
X63351298Y815771D01*
X63363300Y820446D01*
X63371822Y826556D01*
X63375156Y829733D01*
X63381755Y837330D01*
X63386927Y847130D01*
X63390846Y861761D01*
X63393684Y883848D01*
X63395615Y916018D01*
X63396812Y960897D01*
X63397448Y1021111D01*
X63397697Y1099287D01*
X63397734Y1172077D01*
X63397700Y1265293D01*
X63397465Y1338569D01*
X63396830Y1394542D01*
X63395594Y1435849D01*
X63393556Y1465128D01*
X63390517Y1485016D01*
X63386277Y1498150D01*
X63380635Y1507168D01*
X63373391Y1514707D01*
X63371606Y1516388D01*
X63362945Y1523828D01*
X63352882Y1529591D01*
X63338625Y1533888D01*
X63317383Y1536936D01*
X63286364Y1538949D01*
X63242777Y1540140D01*
X63183831Y1540725D01*
X63106734Y1540917D01*
X63052001Y1540933D01*
X62962794Y1540854D01*
G36*
X61941703Y1539649D02*
G01*
X61866888Y1534419D01*
X61797306Y1526250D01*
X61737002Y1515450D01*
X61690020Y1502327D01*
X61660406Y1487187D01*
X61655860Y1482731D01*
X61640054Y1448150D01*
X61644847Y1412649D01*
X61669364Y1382275D01*
X61670534Y1381404D01*
X61684954Y1372046D01*
X61700008Y1367124D01*
X61721005Y1366527D01*
X61753257Y1370139D01*
X61802073Y1377846D01*
X61806000Y1378495D01*
X61878739Y1387431D01*
X61957217Y1391839D01*
X62035927Y1391881D01*
X62109361Y1387721D01*
X62172011Y1379521D01*
X62218370Y1367443D01*
X62221416Y1366229D01*
X62255048Y1347385D01*
X62266864Y1328315D01*
X62257614Y1309561D01*
X62228047Y1291663D01*
X62178911Y1275163D01*
X62110957Y1260604D01*
X62065645Y1253594D01*
X61971456Y1240111D01*
X61896544Y1227786D01*
X61837717Y1215551D01*
X61791785Y1202339D01*
X61755555Y1187083D01*
X61725838Y1168715D01*
X61699442Y1146169D01*
X61678230Y1124029D01*
X61653065Y1093181D01*
X61640681Y1066655D01*
X61636808Y1033974D01*
X61636667Y1022005D01*
X61639576Y982288D01*
X61651202Y952741D01*
X61671323Y926514D01*
X61712216Y886424D01*
X61757817Y855851D01*
X61811513Y833797D01*
X61876692Y819265D01*
X61956744Y811259D01*
X62055057Y808782D01*
X62071289Y808823D01*
X62136849Y810182D01*
X62201866Y813270D01*
X62259252Y817644D01*
X62301922Y822860D01*
X62305372Y823459D01*
X62347796Y833509D01*
X62383780Y846204D01*
X62404150Y857810D01*
X62423107Y888428D01*
X62424427Y924082D01*
X62408085Y955856D01*
X62404429Y959449D01*
X62389315Y970124D01*
X62370415Y974724D01*
X62341162Y973941D01*
X62305651Y969873D01*
X62265970Y966238D01*
X62210345Y963172D01*
X62145406Y960947D01*
X62077785Y959836D01*
X62060000Y959763D01*
X61992128Y960036D01*
X61942454Y961354D01*
X61906610Y964173D01*
X61880224Y968950D01*
X61858926Y976143D01*
X61846126Y982133D01*
X61818000Y998767D01*
X61800068Y1013832D01*
X61797447Y1018103D01*
X61802976Y1035737D01*
X61829260Y1052808D01*
X61874478Y1068542D01*
X61936808Y1082162D01*
X61955171Y1085196D01*
X62051090Y1100262D01*
X62127641Y1112854D01*
X62187780Y1123889D01*
X62234460Y1134280D01*
X62270637Y1144944D01*
X62299265Y1156795D01*
X62323298Y1170749D01*
X62345692Y1187719D01*
X62369402Y1208622D01*
X62377380Y1215951D01*
X62405353Y1243301D01*
X62420160Y1264971D01*
X62425952Y1289768D01*
X62426889Y1321017D01*
X62416575Y1382295D01*
X62385752Y1434360D01*
X62334595Y1477042D01*
X62263283Y1510175D01*
X62212400Y1525036D01*
X62157100Y1534634D01*
X62090853Y1540064D01*
X62017706Y1541633D01*
X61941703Y1539649D01*
G37*
X61941703Y1539649D02*
X61866888Y1534419D01*
X61797306Y1526250D01*
X61737002Y1515450D01*
X61690020Y1502327D01*
X61660406Y1487187D01*
X61655860Y1482731D01*
X61640054Y1448150D01*
X61644847Y1412649D01*
X61669364Y1382275D01*
X61670534Y1381404D01*
X61684954Y1372046D01*
X61700008Y1367124D01*
X61721005Y1366527D01*
X61753257Y1370139D01*
X61802073Y1377846D01*
X61806000Y1378495D01*
X61878739Y1387431D01*
X61957217Y1391839D01*
X62035927Y1391881D01*
X62109361Y1387721D01*
X62172011Y1379521D01*
X62218370Y1367443D01*
X62221416Y1366229D01*
X62255048Y1347385D01*
X62266864Y1328315D01*
X62257614Y1309561D01*
X62228047Y1291663D01*
X62178911Y1275163D01*
X62110957Y1260604D01*
X62065645Y1253594D01*
X61971456Y1240111D01*
X61896544Y1227786D01*
X61837717Y1215551D01*
X61791785Y1202339D01*
X61755555Y1187083D01*
X61725838Y1168715D01*
X61699442Y1146169D01*
X61678230Y1124029D01*
X61653065Y1093181D01*
X61640681Y1066655D01*
X61636808Y1033974D01*
X61636667Y1022005D01*
X61639576Y982288D01*
X61651202Y952741D01*
X61671323Y926514D01*
X61712216Y886424D01*
X61757817Y855851D01*
X61811513Y833797D01*
X61876692Y819265D01*
X61956744Y811259D01*
X62055057Y808782D01*
X62071289Y808823D01*
X62136849Y810182D01*
X62201866Y813270D01*
X62259252Y817644D01*
X62301922Y822860D01*
X62305372Y823459D01*
X62347796Y833509D01*
X62383780Y846204D01*
X62404150Y857810D01*
X62423107Y888428D01*
X62424427Y924082D01*
X62408085Y955856D01*
X62404429Y959449D01*
X62389315Y970124D01*
X62370415Y974724D01*
X62341162Y973941D01*
X62305651Y969873D01*
X62265970Y966238D01*
X62210345Y963172D01*
X62145406Y960947D01*
X62077785Y959836D01*
X62060000Y959763D01*
X61992128Y960036D01*
X61942454Y961354D01*
X61906610Y964173D01*
X61880224Y968950D01*
X61858926Y976143D01*
X61846126Y982133D01*
X61818000Y998767D01*
X61800068Y1013832D01*
X61797447Y1018103D01*
X61802976Y1035737D01*
X61829260Y1052808D01*
X61874478Y1068542D01*
X61936808Y1082162D01*
X61955171Y1085196D01*
X62051090Y1100262D01*
X62127641Y1112854D01*
X62187780Y1123889D01*
X62234460Y1134280D01*
X62270637Y1144944D01*
X62299265Y1156795D01*
X62323298Y1170749D01*
X62345692Y1187719D01*
X62369402Y1208622D01*
X62377380Y1215951D01*
X62405353Y1243301D01*
X62420160Y1264971D01*
X62425952Y1289768D01*
X62426889Y1321017D01*
X62416575Y1382295D01*
X62385752Y1434360D01*
X62334595Y1477042D01*
X62263283Y1510175D01*
X62212400Y1525036D01*
X62157100Y1534634D01*
X62090853Y1540064D01*
X62017706Y1541633D01*
X61941703Y1539649D01*
G36*
X61173822Y1518355D02*
G01*
X61167242Y1510782D01*
X61162079Y1501013D01*
X61158164Y1486429D01*
X61155324Y1464415D01*
X61153387Y1432352D01*
X61152183Y1387625D01*
X61151539Y1327615D01*
X61151284Y1249706D01*
X61151245Y1174044D01*
X61151314Y1080198D01*
X61151638Y1006311D01*
X61152386Y949768D01*
X61153732Y907951D01*
X61155846Y878243D01*
X61158900Y858027D01*
X61163066Y844686D01*
X61168516Y835602D01*
X61173822Y829733D01*
X61206826Y810053D01*
X61241991Y811819D01*
X61273455Y833283D01*
X61280684Y841663D01*
X61286334Y851386D01*
X61290599Y865139D01*
X61293673Y885611D01*
X61295752Y915488D01*
X61297030Y957459D01*
X61297701Y1014211D01*
X61297959Y1088433D01*
X61298000Y1172463D01*
X61298000Y1485515D01*
X61270291Y1513224D01*
X61236137Y1536537D01*
X61203006Y1537377D01*
X61173822Y1518355D01*
G37*
X61173822Y1518355D02*
X61167242Y1510782D01*
X61162079Y1501013D01*
X61158164Y1486429D01*
X61155324Y1464415D01*
X61153387Y1432352D01*
X61152183Y1387625D01*
X61151539Y1327615D01*
X61151284Y1249706D01*
X61151245Y1174044D01*
X61151314Y1080198D01*
X61151638Y1006311D01*
X61152386Y949768D01*
X61153732Y907951D01*
X61155846Y878243D01*
X61158900Y858027D01*
X61163066Y844686D01*
X61168516Y835602D01*
X61173822Y829733D01*
X61206826Y810053D01*
X61241991Y811819D01*
X61273455Y833283D01*
X61280684Y841663D01*
X61286334Y851386D01*
X61290599Y865139D01*
X61293673Y885611D01*
X61295752Y915488D01*
X61297030Y957459D01*
X61297701Y1014211D01*
X61297959Y1088433D01*
X61298000Y1172463D01*
X61298000Y1485515D01*
X61270291Y1513224D01*
X61236137Y1536537D01*
X61203006Y1537377D01*
X61173822Y1518355D01*
G36*
X60200081Y1535401D02*
G01*
X60131565Y1523905D01*
X60078943Y1506033D01*
X60044708Y1482501D01*
X60035379Y1469076D01*
X60025893Y1437852D01*
X60032277Y1409605D01*
X60052430Y1382818D01*
X60083745Y1370287D01*
X60129183Y1371304D01*
X60164326Y1378094D01*
X60242419Y1391029D01*
X60322226Y1392258D01*
X60411555Y1381759D01*
X60436229Y1377310D01*
X60519291Y1353892D01*
X60584273Y1319055D01*
X60630461Y1273396D01*
X60657145Y1217506D01*
X60662663Y1188612D01*
X60659051Y1129988D01*
X60635729Y1078121D01*
X60594824Y1034022D01*
X60538459Y998701D01*
X60468760Y973171D01*
X60387852Y958441D01*
X60297860Y955522D01*
X60200910Y965425D01*
X60195436Y966359D01*
X60156875Y973541D01*
X60135494Y980479D01*
X60126227Y990773D01*
X60124006Y1008024D01*
X60123956Y1017159D01*
X60123956Y1055511D01*
X60192431Y1055511D01*
X60252900Y1059653D01*
X60294165Y1072853D01*
X60318175Y1096270D01*
X60326877Y1131064D01*
X60326983Y1135606D01*
X60321892Y1165346D01*
X60304433Y1186581D01*
X60271939Y1200634D01*
X60221743Y1208827D01*
X60173123Y1211839D01*
X60102456Y1213567D01*
X60051198Y1210930D01*
X60016239Y1201200D01*
X59994470Y1181647D01*
X59982780Y1149544D01*
X59978060Y1102162D01*
X59977200Y1039929D01*
X59978609Y970465D01*
X59982848Y923214D01*
X59989936Y897988D01*
X59991311Y896012D01*
X60030228Y864492D01*
X60087286Y839530D01*
X60158869Y821660D01*
X60241358Y811414D01*
X60331139Y809327D01*
X60424592Y815932D01*
X60479556Y824044D01*
X60565766Y848446D01*
X60645892Y888338D01*
X60712977Y940113D01*
X60723173Y950461D01*
X60756302Y993965D01*
X60786194Y1047882D01*
X60809357Y1104408D01*
X60822298Y1155741D01*
X60823858Y1175456D01*
X60817218Y1216581D01*
X60799568Y1267748D01*
X60774297Y1321606D01*
X60744789Y1370805D01*
X60718719Y1403666D01*
X60657765Y1452548D01*
X60578969Y1491455D01*
X60485157Y1519506D01*
X60379150Y1535821D01*
X60282000Y1539808D01*
X60200081Y1535401D01*
G37*
X60200081Y1535401D02*
X60131565Y1523905D01*
X60078943Y1506033D01*
X60044708Y1482501D01*
X60035379Y1469076D01*
X60025893Y1437852D01*
X60032277Y1409605D01*
X60052430Y1382818D01*
X60083745Y1370287D01*
X60129183Y1371304D01*
X60164326Y1378094D01*
X60242419Y1391029D01*
X60322226Y1392258D01*
X60411555Y1381759D01*
X60436229Y1377310D01*
X60519291Y1353892D01*
X60584273Y1319055D01*
X60630461Y1273396D01*
X60657145Y1217506D01*
X60662663Y1188612D01*
X60659051Y1129988D01*
X60635729Y1078121D01*
X60594824Y1034022D01*
X60538459Y998701D01*
X60468760Y973171D01*
X60387852Y958441D01*
X60297860Y955522D01*
X60200910Y965425D01*
X60195436Y966359D01*
X60156875Y973541D01*
X60135494Y980479D01*
X60126227Y990773D01*
X60124006Y1008024D01*
X60123956Y1017159D01*
X60123956Y1055511D01*
X60192431Y1055511D01*
X60252900Y1059653D01*
X60294165Y1072853D01*
X60318175Y1096270D01*
X60326877Y1131064D01*
X60326983Y1135606D01*
X60321892Y1165346D01*
X60304433Y1186581D01*
X60271939Y1200634D01*
X60221743Y1208827D01*
X60173123Y1211839D01*
X60102456Y1213567D01*
X60051198Y1210930D01*
X60016239Y1201200D01*
X59994470Y1181647D01*
X59982780Y1149544D01*
X59978060Y1102162D01*
X59977200Y1039929D01*
X59978609Y970465D01*
X59982848Y923214D01*
X59989936Y897988D01*
X59991311Y896012D01*
X60030228Y864492D01*
X60087286Y839530D01*
X60158869Y821660D01*
X60241358Y811414D01*
X60331139Y809327D01*
X60424592Y815932D01*
X60479556Y824044D01*
X60565766Y848446D01*
X60645892Y888338D01*
X60712977Y940113D01*
X60723173Y950461D01*
X60756302Y993965D01*
X60786194Y1047882D01*
X60809357Y1104408D01*
X60822298Y1155741D01*
X60823858Y1175456D01*
X60817218Y1216581D01*
X60799568Y1267748D01*
X60774297Y1321606D01*
X60744789Y1370805D01*
X60718719Y1403666D01*
X60657765Y1452548D01*
X60578969Y1491455D01*
X60485157Y1519506D01*
X60379150Y1535821D01*
X60282000Y1539808D01*
X60200081Y1535401D01*
G36*
X59550114Y1536552D02*
G01*
X59526548Y1522727D01*
X59495735Y1500119D01*
X59456078Y1467662D01*
X59405980Y1424292D01*
X59343843Y1368942D01*
X59268072Y1300549D01*
X59181334Y1221916D01*
X59000711Y1058122D01*
X58995067Y1277971D01*
X58993029Y1353649D01*
X58991063Y1410006D01*
X58988734Y1450294D01*
X58985606Y1477765D01*
X58981245Y1495671D01*
X58975216Y1507263D01*
X58967084Y1515792D01*
X58962772Y1519377D01*
X58928241Y1538330D01*
X58895383Y1535559D01*
X58869318Y1519367D01*
X58842667Y1497801D01*
X58839352Y1182849D01*
X58838435Y1090221D01*
X58837968Y1017456D01*
X58838113Y961839D01*
X58839032Y920658D01*
X58840887Y891197D01*
X58843839Y870745D01*
X58848050Y856587D01*
X58853682Y846009D01*
X58859927Y837526D01*
X58873439Y821793D01*
X58886883Y811364D01*
X58902124Y807361D01*
X58921026Y810906D01*
X58945455Y823121D01*
X58977273Y845129D01*
X59018348Y878051D01*
X59070542Y923009D01*
X59135722Y981125D01*
X59209556Y1047901D01*
X59474845Y1288542D01*
X59480489Y1069411D01*
X59482531Y993872D01*
X59484502Y937646D01*
X59486839Y897476D01*
X59489981Y870104D01*
X59494364Y852272D01*
X59500424Y840721D01*
X59508600Y832193D01*
X59512784Y828718D01*
X59549765Y809628D01*
X59584708Y812507D01*
X59615136Y836900D01*
X59622097Y846714D01*
X59627523Y858174D01*
X59631603Y874032D01*
X59634529Y897037D01*
X59636492Y929938D01*
X59637683Y975484D01*
X59638292Y1036427D01*
X59638511Y1115514D01*
X59638534Y1174044D01*
X59638460Y1265593D01*
X59638113Y1337313D01*
X59637301Y1391955D01*
X59635833Y1432268D01*
X59633519Y1461002D01*
X59630167Y1480907D01*
X59625588Y1494732D01*
X59619589Y1505228D01*
X59615136Y1511189D01*
X59603850Y1525309D01*
X59593301Y1535971D01*
X59581893Y1542108D01*
X59568030Y1542657D01*
X59550114Y1536552D01*
G37*
X59550114Y1536552D02*
X59526548Y1522727D01*
X59495735Y1500119D01*
X59456078Y1467662D01*
X59405980Y1424292D01*
X59343843Y1368942D01*
X59268072Y1300549D01*
X59181334Y1221916D01*
X59000711Y1058122D01*
X58995067Y1277971D01*
X58993029Y1353649D01*
X58991063Y1410006D01*
X58988734Y1450294D01*
X58985606Y1477765D01*
X58981245Y1495671D01*
X58975216Y1507263D01*
X58967084Y1515792D01*
X58962772Y1519377D01*
X58928241Y1538330D01*
X58895383Y1535559D01*
X58869318Y1519367D01*
X58842667Y1497801D01*
X58839352Y1182849D01*
X58838435Y1090221D01*
X58837968Y1017456D01*
X58838113Y961839D01*
X58839032Y920658D01*
X58840887Y891197D01*
X58843839Y870745D01*
X58848050Y856587D01*
X58853682Y846009D01*
X58859927Y837526D01*
X58873439Y821793D01*
X58886883Y811364D01*
X58902124Y807361D01*
X58921026Y810906D01*
X58945455Y823121D01*
X58977273Y845129D01*
X59018348Y878051D01*
X59070542Y923009D01*
X59135722Y981125D01*
X59209556Y1047901D01*
X59474845Y1288542D01*
X59480489Y1069411D01*
X59482531Y993872D01*
X59484502Y937646D01*
X59486839Y897476D01*
X59489981Y870104D01*
X59494364Y852272D01*
X59500424Y840721D01*
X59508600Y832193D01*
X59512784Y828718D01*
X59549765Y809628D01*
X59584708Y812507D01*
X59615136Y836900D01*
X59622097Y846714D01*
X59627523Y858174D01*
X59631603Y874032D01*
X59634529Y897037D01*
X59636492Y929938D01*
X59637683Y975484D01*
X59638292Y1036427D01*
X59638511Y1115514D01*
X59638534Y1174044D01*
X59638460Y1265593D01*
X59638113Y1337313D01*
X59637301Y1391955D01*
X59635833Y1432268D01*
X59633519Y1461002D01*
X59630167Y1480907D01*
X59625588Y1494732D01*
X59619589Y1505228D01*
X59615136Y1511189D01*
X59603850Y1525309D01*
X59593301Y1535971D01*
X59581893Y1542108D01*
X59568030Y1542657D01*
X59550114Y1536552D01*
G36*
X58019657Y1540740D02*
G01*
X57943299Y1539826D01*
X57884783Y1537689D01*
X57841745Y1533825D01*
X57811817Y1527733D01*
X57792632Y1518910D01*
X57781824Y1506854D01*
X57777027Y1491061D01*
X57775873Y1471030D01*
X57775867Y1468665D01*
X57776869Y1446008D01*
X57781604Y1428497D01*
X57792667Y1415426D01*
X57812652Y1406087D01*
X57844154Y1399773D01*
X57889768Y1395778D01*
X57952087Y1393394D01*
X58033707Y1391914D01*
X58058723Y1391586D01*
X58300800Y1388533D01*
X58304186Y1323622D01*
X58307571Y1258711D01*
X58139424Y1258711D01*
X58073734Y1258469D01*
X58026828Y1257444D01*
X57994917Y1255189D01*
X57974209Y1251258D01*
X57960916Y1245202D01*
X57951245Y1236576D01*
X57951183Y1236507D01*
X57933644Y1202888D01*
X57934278Y1166552D01*
X57952686Y1135577D01*
X57956329Y1132393D01*
X57969259Y1124188D01*
X57986976Y1118479D01*
X58013430Y1114838D01*
X58052568Y1112833D01*
X58108338Y1112036D01*
X58144006Y1111955D01*
X58306445Y1111955D01*
X58306445Y953911D01*
X58059839Y953911D01*
X57978420Y953769D01*
X57916590Y953186D01*
X57871363Y951932D01*
X57839752Y949773D01*
X57818769Y946477D01*
X57805427Y941811D01*
X57796739Y935543D01*
X57794550Y933267D01*
X57778386Y901720D01*
X57777203Y865832D01*
X57790464Y834715D01*
X57800957Y824729D01*
X57811871Y819231D01*
X57828783Y814978D01*
X57854367Y811820D01*
X57891299Y809608D01*
X57942254Y808194D01*
X58009906Y807428D01*
X58096931Y807162D01*
X58116606Y807155D01*
X58205089Y807213D01*
X58273773Y807533D01*
X58325436Y808333D01*
X58362855Y809833D01*
X58388810Y812251D01*
X58406078Y815806D01*
X58417438Y820718D01*
X58425668Y827205D01*
X58430183Y831862D01*
X58436979Y840111D01*
X58442288Y850331D01*
X58446294Y865200D01*
X58449179Y887398D01*
X58451126Y919607D01*
X58452319Y964504D01*
X58452939Y1024772D01*
X58453171Y1103089D01*
X58453200Y1169006D01*
X58453129Y1261372D01*
X58452792Y1333883D01*
X58452002Y1389263D01*
X58450574Y1430235D01*
X58448321Y1459522D01*
X58445057Y1479847D01*
X58440596Y1493934D01*
X58434752Y1504505D01*
X58429803Y1511189D01*
X58406406Y1540933D01*
X58116226Y1540933D01*
X58019657Y1540740D01*
G37*
X58019657Y1540740D02*
X57943299Y1539826D01*
X57884783Y1537689D01*
X57841745Y1533825D01*
X57811817Y1527733D01*
X57792632Y1518910D01*
X57781824Y1506854D01*
X57777027Y1491061D01*
X57775873Y1471030D01*
X57775867Y1468665D01*
X57776869Y1446008D01*
X57781604Y1428497D01*
X57792667Y1415426D01*
X57812652Y1406087D01*
X57844154Y1399773D01*
X57889768Y1395778D01*
X57952087Y1393394D01*
X58033707Y1391914D01*
X58058723Y1391586D01*
X58300800Y1388533D01*
X58304186Y1323622D01*
X58307571Y1258711D01*
X58139424Y1258711D01*
X58073734Y1258469D01*
X58026828Y1257444D01*
X57994917Y1255189D01*
X57974209Y1251258D01*
X57960916Y1245202D01*
X57951245Y1236576D01*
X57951183Y1236507D01*
X57933644Y1202888D01*
X57934278Y1166552D01*
X57952686Y1135577D01*
X57956329Y1132393D01*
X57969259Y1124188D01*
X57986976Y1118479D01*
X58013430Y1114838D01*
X58052568Y1112833D01*
X58108338Y1112036D01*
X58144006Y1111955D01*
X58306445Y1111955D01*
X58306445Y953911D01*
X58059839Y953911D01*
X57978420Y953769D01*
X57916590Y953186D01*
X57871363Y951932D01*
X57839752Y949773D01*
X57818769Y946477D01*
X57805427Y941811D01*
X57796739Y935543D01*
X57794550Y933267D01*
X57778386Y901720D01*
X57777203Y865832D01*
X57790464Y834715D01*
X57800957Y824729D01*
X57811871Y819231D01*
X57828783Y814978D01*
X57854367Y811820D01*
X57891299Y809608D01*
X57942254Y808194D01*
X58009906Y807428D01*
X58096931Y807162D01*
X58116606Y807155D01*
X58205089Y807213D01*
X58273773Y807533D01*
X58325436Y808333D01*
X58362855Y809833D01*
X58388810Y812251D01*
X58406078Y815806D01*
X58417438Y820718D01*
X58425668Y827205D01*
X58430183Y831862D01*
X58436979Y840111D01*
X58442288Y850331D01*
X58446294Y865200D01*
X58449179Y887398D01*
X58451126Y919607D01*
X58452319Y964504D01*
X58452939Y1024772D01*
X58453171Y1103089D01*
X58453200Y1169006D01*
X58453129Y1261372D01*
X58452792Y1333883D01*
X58452002Y1389263D01*
X58450574Y1430235D01*
X58448321Y1459522D01*
X58445057Y1479847D01*
X58440596Y1493934D01*
X58434752Y1504505D01*
X58429803Y1511189D01*
X58406406Y1540933D01*
X58116226Y1540933D01*
X58019657Y1540740D01*
G36*
X57231691Y1540725D02*
G01*
X57102712Y1536364D01*
X56993009Y1523139D01*
X56900774Y1500259D01*
X56824198Y1466930D01*
X56761473Y1422362D01*
X56710788Y1365764D01*
X56670337Y1296342D01*
X56669541Y1294649D01*
X56645399Y1232517D01*
X56636797Y1177491D01*
X56643769Y1122113D01*
X56666346Y1058927D01*
X56670628Y1049311D01*
X56699828Y993034D01*
X56732644Y949549D01*
X56774998Y912583D01*
X56832810Y875865D01*
X56836169Y873948D01*
X56886496Y849773D01*
X56943379Y831718D01*
X57010473Y819161D01*
X57091435Y811478D01*
X57189918Y808047D01*
X57224714Y807749D01*
X57390406Y807155D01*
X57413803Y836900D01*
X57420743Y846681D01*
X57426158Y858103D01*
X57430235Y873905D01*
X57433163Y896825D01*
X57435133Y929604D01*
X57435775Y953911D01*
X57279156Y953911D01*
X57185274Y953911D01*
X57130336Y955517D01*
X57073940Y959745D01*
X57027655Y965708D01*
X57024861Y966210D01*
X56942652Y988264D01*
X56878886Y1021400D01*
X56831548Y1067153D01*
X56798618Y1127061D01*
X56792892Y1142939D01*
X56787279Y1167667D01*
X56789709Y1192098D01*
X56801533Y1224600D01*
X56808660Y1240566D01*
X56832000Y1282994D01*
X56860120Y1312760D01*
X56891060Y1333489D01*
X56953034Y1360463D01*
X57032349Y1380002D01*
X57124747Y1391254D01*
X57191667Y1393730D01*
X57279156Y1394178D01*
X57279156Y953911D01*
X57435775Y953911D01*
X57436332Y974979D01*
X57436950Y1035689D01*
X57437175Y1114474D01*
X57437200Y1176080D01*
X57437200Y1485515D01*
X57409491Y1513224D01*
X57397194Y1524456D01*
X57383897Y1532147D01*
X57365328Y1536960D01*
X57337214Y1539554D01*
X57295283Y1540590D01*
X57235263Y1540730D01*
X57231691Y1540725D01*
G37*
X57231691Y1540725D02*
X57102712Y1536364D01*
X56993009Y1523139D01*
X56900774Y1500259D01*
X56824198Y1466930D01*
X56761473Y1422362D01*
X56710788Y1365764D01*
X56670337Y1296342D01*
X56669541Y1294649D01*
X56645399Y1232517D01*
X56636797Y1177491D01*
X56643769Y1122113D01*
X56666346Y1058927D01*
X56670628Y1049311D01*
X56699828Y993034D01*
X56732644Y949549D01*
X56774998Y912583D01*
X56832810Y875865D01*
X56836169Y873948D01*
X56886496Y849773D01*
X56943379Y831718D01*
X57010473Y819161D01*
X57091435Y811478D01*
X57189918Y808047D01*
X57224714Y807749D01*
X57390406Y807155D01*
X57413803Y836900D01*
X57420743Y846681D01*
X57426158Y858103D01*
X57430235Y873905D01*
X57433163Y896825D01*
X57435133Y929604D01*
X57435775Y953911D01*
X57279156Y953911D01*
X57185274Y953911D01*
X57130336Y955517D01*
X57073940Y959745D01*
X57027655Y965708D01*
X57024861Y966210D01*
X56942652Y988264D01*
X56878886Y1021400D01*
X56831548Y1067153D01*
X56798618Y1127061D01*
X56792892Y1142939D01*
X56787279Y1167667D01*
X56789709Y1192098D01*
X56801533Y1224600D01*
X56808660Y1240566D01*
X56832000Y1282994D01*
X56860120Y1312760D01*
X56891060Y1333489D01*
X56953034Y1360463D01*
X57032349Y1380002D01*
X57124747Y1391254D01*
X57191667Y1393730D01*
X57279156Y1394178D01*
X57279156Y953911D01*
X57435775Y953911D01*
X57436332Y974979D01*
X57436950Y1035689D01*
X57437175Y1114474D01*
X57437200Y1176080D01*
X57437200Y1485515D01*
X57409491Y1513224D01*
X57397194Y1524456D01*
X57383897Y1532147D01*
X57365328Y1536960D01*
X57337214Y1539554D01*
X57295283Y1540590D01*
X57235263Y1540730D01*
X57231691Y1540725D01*
G36*
X54505335Y1538966D02*
G01*
X54485745Y1531965D01*
X54484990Y1531623D01*
X54458387Y1511322D01*
X54443730Y1490439D01*
X54440862Y1480648D01*
X54441004Y1467639D01*
X54445039Y1449105D01*
X54453854Y1422743D01*
X54468331Y1386248D01*
X54489355Y1337313D01*
X54517812Y1273635D01*
X54554585Y1192907D01*
X54574825Y1148784D01*
X54611375Y1070015D01*
X54645685Y997577D01*
X54676448Y934120D01*
X54702352Y882292D01*
X54722090Y844741D01*
X54734350Y824116D01*
X54736776Y821267D01*
X54767817Y808698D01*
X54802879Y810381D01*
X54831000Y825668D01*
X54832146Y826911D01*
X54843332Y843846D01*
X54862096Y876830D01*
X54886125Y921620D01*
X54913103Y973968D01*
X54922799Y993258D01*
X54995986Y1139850D01*
X55075760Y980607D01*
X55104233Y925585D01*
X55130650Y877868D01*
X55152852Y841107D01*
X55168681Y818956D01*
X55174046Y814259D01*
X55215743Y807898D01*
X55250151Y821267D01*
X55260272Y835554D01*
X55277786Y867308D01*
X55301265Y913403D01*
X55329280Y970715D01*
X55360401Y1036120D01*
X55393201Y1106493D01*
X55426250Y1178709D01*
X55458119Y1249645D01*
X55487381Y1316175D01*
X55512605Y1375174D01*
X55532364Y1423519D01*
X55545228Y1458085D01*
X55549769Y1475747D01*
X55549723Y1476387D01*
X55538674Y1498612D01*
X55516590Y1521247D01*
X55515290Y1522232D01*
X55488147Y1537575D01*
X55463042Y1537426D01*
X55453632Y1534534D01*
X55442166Y1528282D01*
X55429990Y1515986D01*
X55415643Y1495092D01*
X55397664Y1463051D01*
X55374593Y1417312D01*
X55344970Y1355323D01*
X55318255Y1298102D01*
X55287520Y1231774D01*
X55259979Y1172126D01*
X55237062Y1122275D01*
X55220202Y1085336D01*
X55210827Y1064427D01*
X55209460Y1061155D01*
X55203311Y1066503D01*
X55189178Y1088891D01*
X55168943Y1125054D01*
X55144485Y1171723D01*
X55134752Y1190978D01*
X55101783Y1255996D01*
X55076357Y1303346D01*
X55056388Y1335781D01*
X55039790Y1356054D01*
X55024476Y1366918D01*
X55008360Y1371125D01*
X54997857Y1371600D01*
X54979330Y1369958D01*
X54963096Y1363169D01*
X54946965Y1348434D01*
X54928749Y1322956D01*
X54906261Y1283939D01*
X54877311Y1228586D01*
X54861338Y1197097D01*
X54835430Y1146913D01*
X54812833Y1105296D01*
X54795542Y1075758D01*
X54785550Y1061811D01*
X54784191Y1061230D01*
X54777739Y1072207D01*
X54763292Y1100710D01*
X54742297Y1143756D01*
X54716203Y1198362D01*
X54686454Y1261546D01*
X54671820Y1292929D01*
X54633750Y1373922D01*
X54603095Y1436244D01*
X54578263Y1481929D01*
X54557663Y1513011D01*
X54539702Y1531522D01*
X54522790Y1539496D01*
X54505335Y1538966D01*
G37*
X54505335Y1538966D02*
X54485745Y1531965D01*
X54484990Y1531623D01*
X54458387Y1511322D01*
X54443730Y1490439D01*
X54440862Y1480648D01*
X54441004Y1467639D01*
X54445039Y1449105D01*
X54453854Y1422743D01*
X54468331Y1386248D01*
X54489355Y1337313D01*
X54517812Y1273635D01*
X54554585Y1192907D01*
X54574825Y1148784D01*
X54611375Y1070015D01*
X54645685Y997577D01*
X54676448Y934120D01*
X54702352Y882292D01*
X54722090Y844741D01*
X54734350Y824116D01*
X54736776Y821267D01*
X54767817Y808698D01*
X54802879Y810381D01*
X54831000Y825668D01*
X54832146Y826911D01*
X54843332Y843846D01*
X54862096Y876830D01*
X54886125Y921620D01*
X54913103Y973968D01*
X54922799Y993258D01*
X54995986Y1139850D01*
X55075760Y980607D01*
X55104233Y925585D01*
X55130650Y877868D01*
X55152852Y841107D01*
X55168681Y818956D01*
X55174046Y814259D01*
X55215743Y807898D01*
X55250151Y821267D01*
X55260272Y835554D01*
X55277786Y867308D01*
X55301265Y913403D01*
X55329280Y970715D01*
X55360401Y1036120D01*
X55393201Y1106493D01*
X55426250Y1178709D01*
X55458119Y1249645D01*
X55487381Y1316175D01*
X55512605Y1375174D01*
X55532364Y1423519D01*
X55545228Y1458085D01*
X55549769Y1475747D01*
X55549723Y1476387D01*
X55538674Y1498612D01*
X55516590Y1521247D01*
X55515290Y1522232D01*
X55488147Y1537575D01*
X55463042Y1537426D01*
X55453632Y1534534D01*
X55442166Y1528282D01*
X55429990Y1515986D01*
X55415643Y1495092D01*
X55397664Y1463051D01*
X55374593Y1417312D01*
X55344970Y1355323D01*
X55318255Y1298102D01*
X55287520Y1231774D01*
X55259979Y1172126D01*
X55237062Y1122275D01*
X55220202Y1085336D01*
X55210827Y1064427D01*
X55209460Y1061155D01*
X55203311Y1066503D01*
X55189178Y1088891D01*
X55168943Y1125054D01*
X55144485Y1171723D01*
X55134752Y1190978D01*
X55101783Y1255996D01*
X55076357Y1303346D01*
X55056388Y1335781D01*
X55039790Y1356054D01*
X55024476Y1366918D01*
X55008360Y1371125D01*
X54997857Y1371600D01*
X54979330Y1369958D01*
X54963096Y1363169D01*
X54946965Y1348434D01*
X54928749Y1322956D01*
X54906261Y1283939D01*
X54877311Y1228586D01*
X54861338Y1197097D01*
X54835430Y1146913D01*
X54812833Y1105296D01*
X54795542Y1075758D01*
X54785550Y1061811D01*
X54784191Y1061230D01*
X54777739Y1072207D01*
X54763292Y1100710D01*
X54742297Y1143756D01*
X54716203Y1198362D01*
X54686454Y1261546D01*
X54671820Y1292929D01*
X54633750Y1373922D01*
X54603095Y1436244D01*
X54578263Y1481929D01*
X54557663Y1513011D01*
X54539702Y1531522D01*
X54522790Y1539496D01*
X54505335Y1538966D01*
G36*
X54061386Y1534123D02*
G01*
X54037673Y1519353D01*
X54011022Y1497773D01*
X54011022Y1176227D01*
X54011107Y1082170D01*
X54011471Y1008068D01*
X54012276Y951296D01*
X54013687Y909232D01*
X54015867Y879252D01*
X54018979Y858733D01*
X54023186Y845051D01*
X54028652Y835584D01*
X54032528Y830918D01*
X54063966Y810425D01*
X54099767Y811261D01*
X54131127Y828736D01*
X54157778Y850316D01*
X54157778Y1497773D01*
X54131127Y1519353D01*
X54105406Y1535051D01*
X54084400Y1540933D01*
X54061386Y1534123D01*
G37*
X54061386Y1534123D02*
X54037673Y1519353D01*
X54011022Y1497773D01*
X54011022Y1176227D01*
X54011107Y1082170D01*
X54011471Y1008068D01*
X54012276Y951296D01*
X54013687Y909232D01*
X54015867Y879252D01*
X54018979Y858733D01*
X54023186Y845051D01*
X54028652Y835584D01*
X54032528Y830918D01*
X54063966Y810425D01*
X54099767Y811261D01*
X54131127Y828736D01*
X54157778Y850316D01*
X54157778Y1497773D01*
X54131127Y1519353D01*
X54105406Y1535051D01*
X54084400Y1540933D01*
X54061386Y1534123D01*
G36*
X53286935Y1540837D02*
G01*
X53208228Y1540458D01*
X53147137Y1539667D01*
X53101183Y1538330D01*
X53067886Y1536317D01*
X53044764Y1533494D01*
X53029338Y1529731D01*
X53019129Y1524895D01*
X53014187Y1521178D01*
X52988543Y1488642D01*
X52985441Y1454862D01*
X53001289Y1424174D01*
X53011652Y1411911D01*
X53022804Y1403550D01*
X53038965Y1398343D01*
X53064358Y1395543D01*
X53103202Y1394404D01*
X53159720Y1394179D01*
X53170820Y1394178D01*
X53316756Y1394178D01*
X53316756Y1123244D01*
X53316852Y1037846D01*
X53317289Y972136D01*
X53318288Y923226D01*
X53320072Y888227D01*
X53322863Y864251D01*
X53326883Y848407D01*
X53332355Y837809D01*
X53339334Y829733D01*
X53372266Y809888D01*
X53406646Y811452D01*
X53437824Y834094D01*
X53440114Y836900D01*
X53447571Y847508D01*
X53453253Y859919D01*
X53457399Y877150D01*
X53460250Y902216D01*
X53462046Y938133D01*
X53463028Y987917D01*
X53463436Y1054583D01*
X53463511Y1130411D01*
X53463511Y1394178D01*
X53602873Y1394178D01*
X53662678Y1394582D01*
X53704082Y1396160D01*
X53731252Y1399453D01*
X53748354Y1405008D01*
X53759557Y1413369D01*
X53760917Y1414822D01*
X53777275Y1448061D01*
X53775828Y1485638D01*
X53757022Y1518355D01*
X53749750Y1524702D01*
X53740373Y1529734D01*
X53726391Y1533604D01*
X53705304Y1536463D01*
X53674611Y1538465D01*
X53631811Y1539761D01*
X53574405Y1540502D01*
X53499890Y1540842D01*
X53405767Y1540932D01*
X53385740Y1540933D01*
X53286935Y1540837D01*
G37*
X53286935Y1540837D02*
X53208228Y1540458D01*
X53147137Y1539667D01*
X53101183Y1538330D01*
X53067886Y1536317D01*
X53044764Y1533494D01*
X53029338Y1529731D01*
X53019129Y1524895D01*
X53014187Y1521178D01*
X52988543Y1488642D01*
X52985441Y1454862D01*
X53001289Y1424174D01*
X53011652Y1411911D01*
X53022804Y1403550D01*
X53038965Y1398343D01*
X53064358Y1395543D01*
X53103202Y1394404D01*
X53159720Y1394179D01*
X53170820Y1394178D01*
X53316756Y1394178D01*
X53316756Y1123244D01*
X53316852Y1037846D01*
X53317289Y972136D01*
X53318288Y923226D01*
X53320072Y888227D01*
X53322863Y864251D01*
X53326883Y848407D01*
X53332355Y837809D01*
X53339334Y829733D01*
X53372266Y809888D01*
X53406646Y811452D01*
X53437824Y834094D01*
X53440114Y836900D01*
X53447571Y847508D01*
X53453253Y859919D01*
X53457399Y877150D01*
X53460250Y902216D01*
X53462046Y938133D01*
X53463028Y987917D01*
X53463436Y1054583D01*
X53463511Y1130411D01*
X53463511Y1394178D01*
X53602873Y1394178D01*
X53662678Y1394582D01*
X53704082Y1396160D01*
X53731252Y1399453D01*
X53748354Y1405008D01*
X53759557Y1413369D01*
X53760917Y1414822D01*
X53777275Y1448061D01*
X53775828Y1485638D01*
X53757022Y1518355D01*
X53749750Y1524702D01*
X53740373Y1529734D01*
X53726391Y1533604D01*
X53705304Y1536463D01*
X53674611Y1538465D01*
X53631811Y1539761D01*
X53574405Y1540502D01*
X53499890Y1540842D01*
X53405767Y1540932D01*
X53385740Y1540933D01*
X53286935Y1540837D01*
G36*
X52021177Y1535467D02*
G01*
X51989798Y1513224D01*
X51962089Y1485515D01*
X51962089Y1176080D01*
X51962162Y1084201D01*
X51962505Y1012160D01*
X51963308Y957220D01*
X51964759Y916640D01*
X51967048Y887683D01*
X51970364Y867609D01*
X51974895Y853679D01*
X51980831Y843155D01*
X51985486Y836900D01*
X52016217Y812327D01*
X52051504Y809659D01*
X52083755Y824729D01*
X52094412Y833626D01*
X52101536Y845443D01*
X52105833Y864474D01*
X52108009Y895008D01*
X52108772Y941338D01*
X52108845Y977129D01*
X52108845Y1111955D01*
X52605556Y1111955D01*
X52605556Y989300D01*
X52606069Y933213D01*
X52608124Y894667D01*
X52612492Y868639D01*
X52619944Y850103D01*
X52628953Y836900D01*
X52659856Y812396D01*
X52694804Y809494D01*
X52728262Y826911D01*
X52737396Y836041D01*
X52743848Y848145D01*
X52748103Y866999D01*
X52750648Y896380D01*
X52751971Y940063D01*
X52752557Y1001825D01*
X52752625Y1016000D01*
X52753109Y1132369D01*
X52753359Y1228273D01*
X52753277Y1305823D01*
X52752769Y1367131D01*
X52751738Y1414310D01*
X52750087Y1449470D01*
X52747721Y1474724D01*
X52744543Y1492183D01*
X52740456Y1503959D01*
X52735366Y1512165D01*
X52729734Y1518355D01*
X52697872Y1538156D01*
X52664643Y1535467D01*
X52633265Y1513224D01*
X52620567Y1498874D01*
X52612474Y1483022D01*
X52607958Y1460446D01*
X52605994Y1425922D01*
X52605556Y1374224D01*
X52605556Y1258711D01*
X52108845Y1258711D01*
X52108845Y1377244D01*
X52108338Y1431852D01*
X52106302Y1468725D01*
X52101965Y1492693D01*
X52094553Y1508585D01*
X52086267Y1518355D01*
X52054406Y1538156D01*
X52021177Y1535467D01*
G37*
X52021177Y1535467D02*
X51989798Y1513224D01*
X51962089Y1485515D01*
X51962089Y1176080D01*
X51962162Y1084201D01*
X51962505Y1012160D01*
X51963308Y957220D01*
X51964759Y916640D01*
X51967048Y887683D01*
X51970364Y867609D01*
X51974895Y853679D01*
X51980831Y843155D01*
X51985486Y836900D01*
X52016217Y812327D01*
X52051504Y809659D01*
X52083755Y824729D01*
X52094412Y833626D01*
X52101536Y845443D01*
X52105833Y864474D01*
X52108009Y895008D01*
X52108772Y941338D01*
X52108845Y977129D01*
X52108845Y1111955D01*
X52605556Y1111955D01*
X52605556Y989300D01*
X52606069Y933213D01*
X52608124Y894667D01*
X52612492Y868639D01*
X52619944Y850103D01*
X52628953Y836900D01*
X52659856Y812396D01*
X52694804Y809494D01*
X52728262Y826911D01*
X52737396Y836041D01*
X52743848Y848145D01*
X52748103Y866999D01*
X52750648Y896380D01*
X52751971Y940063D01*
X52752557Y1001825D01*
X52752625Y1016000D01*
X52753109Y1132369D01*
X52753359Y1228273D01*
X52753277Y1305823D01*
X52752769Y1367131D01*
X52751738Y1414310D01*
X52750087Y1449470D01*
X52747721Y1474724D01*
X52744543Y1492183D01*
X52740456Y1503959D01*
X52735366Y1512165D01*
X52729734Y1518355D01*
X52697872Y1538156D01*
X52664643Y1535467D01*
X52633265Y1513224D01*
X52620567Y1498874D01*
X52612474Y1483022D01*
X52607958Y1460446D01*
X52605994Y1425922D01*
X52605556Y1374224D01*
X52605556Y1258711D01*
X52108845Y1258711D01*
X52108845Y1377244D01*
X52108338Y1431852D01*
X52106302Y1468725D01*
X52101965Y1492693D01*
X52094553Y1508585D01*
X52086267Y1518355D01*
X52054406Y1538156D01*
X52021177Y1535467D01*
G36*
X45002178Y732178D02*
G01*
X48522971Y732178D01*
X48522971Y1599802D01*
X45002178Y1599802D01*
X45002178Y732178D01*
G37*
X45002178Y732178D02*
X48522971Y732178D01*
X48522971Y1599802D01*
X45002178Y1599802D01*
X45002178Y732178D01*
G36*
X44625570Y6685152D02*
G01*
X44626189Y6598069D01*
X45077914Y6139109D01*
X45529639Y5680148D01*
X45529968Y5469529D01*
X45530297Y5258911D01*
X45805390Y5258911D01*
X45812478Y5205470D01*
X45815162Y5181112D01*
X45819687Y5135241D01*
X45825809Y5070595D01*
X45833288Y4989909D01*
X45841881Y4895919D01*
X45851346Y4791363D01*
X45861442Y4678975D01*
X45871926Y4561493D01*
X45882556Y4441652D01*
X45893091Y4322189D01*
X45903287Y4205841D01*
X45912905Y4095343D01*
X45921700Y3993431D01*
X45929432Y3902842D01*
X45935858Y3826313D01*
X45940737Y3766579D01*
X45943825Y3726376D01*
X45944883Y3708441D01*
X45944882Y3708356D01*
X45937173Y3693965D01*
X45914019Y3664252D01*
X45875105Y3618869D01*
X45820116Y3557471D01*
X45748736Y3479712D01*
X45660651Y3385246D01*
X45555546Y3273728D01*
X45433105Y3144812D01*
X45398690Y3108713D01*
X44852863Y2536584D01*
X44941119Y2448564D01*
X45012515Y2526242D01*
X45038634Y2554314D01*
X45079434Y2597726D01*
X45132223Y2653634D01*
X45194309Y2719192D01*
X45263000Y2791559D01*
X45335604Y2867888D01*
X45379040Y2913476D01*
X45460584Y2998881D01*
X45526496Y3067290D01*
X45578456Y3119947D01*
X45618145Y3158095D01*
X45647243Y3182980D01*
X45667431Y3195844D01*
X45680390Y3197932D01*
X45687800Y3190487D01*
X45691342Y3174754D01*
X45692697Y3151977D01*
X45692879Y3145761D01*
X45702297Y3102939D01*
X45725503Y3051181D01*
X45757864Y2998672D01*
X45794748Y2953597D01*
X45809507Y2939672D01*
X45885233Y2890953D01*
X45973692Y2863694D01*
X46051900Y2857227D01*
X46140532Y2869424D01*
X46222388Y2905187D01*
X46294836Y2963278D01*
X46308203Y2977738D01*
X46357082Y3033267D01*
X47202674Y3033267D01*
X47202674Y2857227D01*
X47429010Y2857227D01*
X47429010Y2939469D01*
X47431850Y2995614D01*
X47441393Y3034584D01*
X47452991Y3055781D01*
X47461277Y3070948D01*
X47468373Y3092938D01*
X47474748Y3125013D01*
X47480872Y3170431D01*
X47487216Y3232452D01*
X47494250Y3314338D01*
X47499066Y3375254D01*
X47521161Y3660657D01*
X48063565Y3111195D01*
X48161637Y3011772D01*
X48255784Y2916185D01*
X48344285Y2826190D01*
X48425420Y2743543D01*
X48497469Y2669999D01*
X48558712Y2607316D01*
X48607427Y2557248D01*
X48641896Y2521552D01*
X48660379Y2502005D01*
X48690743Y2471056D01*
X48716071Y2449470D01*
X48729695Y2442277D01*
X48747095Y2450703D01*
X48772460Y2471755D01*
X48781058Y2480329D01*
X48817514Y2518380D01*
X48616802Y2722342D01*
X48565596Y2774301D01*
X48499569Y2841180D01*
X48421618Y2920050D01*
X48334638Y3007986D01*
X48241526Y3102059D01*
X48145179Y3199342D01*
X48048492Y3296907D01*
X47979134Y3366855D01*
X47873703Y3473450D01*
X47785129Y3563693D01*
X47712281Y3638808D01*
X47654023Y3700014D01*
X47609225Y3748534D01*
X47587021Y3773871D01*
X47408724Y3773871D01*
X47386401Y3488445D01*
X47379669Y3404781D01*
X47373157Y3328273D01*
X47367234Y3262919D01*
X47362268Y3212719D01*
X47358629Y3181671D01*
X47357458Y3174727D01*
X47350838Y3146435D01*
X46401364Y3146435D01*
X46395026Y3225394D01*
X46375890Y3318685D01*
X46335846Y3401209D01*
X46277418Y3469962D01*
X46203129Y3521937D01*
X46119748Y3553137D01*
X46092698Y3567772D01*
X46079156Y3599181D01*
X46078872Y3600566D01*
X46077247Y3613826D01*
X46079256Y3627405D01*
X46086858Y3643819D01*
X46102016Y3665589D01*
X46126688Y3695233D01*
X46162836Y3735268D01*
X46212420Y3788215D01*
X46277401Y3856591D01*
X46281599Y3860995D01*
X46351493Y3934389D01*
X46425800Y4012563D01*
X46499414Y4090136D01*
X46567229Y4161725D01*
X46624140Y4221949D01*
X46636832Y4235413D01*
X46685487Y4286180D01*
X46728709Y4329625D01*
X46763395Y4362759D01*
X46786444Y4382595D01*
X46794182Y4386954D01*
X46805722Y4377830D01*
X46832710Y4352800D01*
X46873021Y4313948D01*
X46924529Y4263357D01*
X46985109Y4203112D01*
X47052636Y4135296D01*
X47107826Y4079435D01*
X47408724Y3773871D01*
X47587021Y3773871D01*
X47576751Y3785589D01*
X47555471Y3812401D01*
X47544251Y3830192D01*
X47541754Y3838430D01*
X47542700Y3856410D01*
X47545573Y3897108D01*
X47550187Y3958181D01*
X47556358Y4037287D01*
X47563898Y4132086D01*
X47572621Y4240233D01*
X47582343Y4359388D01*
X47592876Y4487209D01*
X47601365Y4589365D01*
X47649396Y5165326D01*
X47525805Y5165326D01*
X47525273Y5152896D01*
X47522769Y5117890D01*
X47518496Y5062785D01*
X47512653Y4990057D01*
X47505443Y4902186D01*
X47497066Y4801649D01*
X47487723Y4690923D01*
X47478758Y4585795D01*
X47468602Y4466517D01*
X47459142Y4353920D01*
X47450596Y4250695D01*
X47443179Y4159527D01*
X47437108Y4083105D01*
X47432601Y4024117D01*
X47429873Y3985251D01*
X47429116Y3970156D01*
X47427935Y3960762D01*
X47423256Y3957034D01*
X47413276Y3960529D01*
X47396190Y3972801D01*
X47370196Y3995406D01*
X47333490Y4029900D01*
X47284267Y4077838D01*
X47220726Y4140776D01*
X47153305Y4208032D01*
X46877601Y4483523D01*
X46879533Y4485594D01*
X46697290Y4485594D01*
X46688984Y4474220D01*
X46665733Y4447437D01*
X46629865Y4407708D01*
X46583713Y4357493D01*
X46529606Y4299254D01*
X46469874Y4235453D01*
X46406848Y4168551D01*
X46342858Y4101010D01*
X46280236Y4035290D01*
X46221310Y3973854D01*
X46168412Y3919163D01*
X46123872Y3873678D01*
X46090020Y3839862D01*
X46069188Y3820174D01*
X46063506Y3816163D01*
X46061634Y3829109D01*
X46057746Y3864866D01*
X46052057Y3921196D01*
X46044781Y3995860D01*
X46036131Y4086620D01*
X46026322Y4191238D01*
X46015566Y4307474D01*
X46004079Y4433092D01*
X45994907Y4534382D01*
X45983174Y4665721D01*
X45972335Y4789448D01*
X45962570Y4903319D01*
X45954063Y5005089D01*
X45946995Y5092513D01*
X45941549Y5163347D01*
X45937908Y5215347D01*
X45936253Y5246268D01*
X45936442Y5254297D01*
X45946334Y5247146D01*
X45971524Y5224159D01*
X46009810Y5187561D01*
X46058989Y5139578D01*
X46116861Y5082434D01*
X46181222Y5018353D01*
X46249871Y4949562D01*
X46320605Y4878284D01*
X46391222Y4806745D01*
X46459520Y4737170D01*
X46523296Y4671783D01*
X46580350Y4612809D01*
X46628478Y4562473D01*
X46665478Y4523001D01*
X46689148Y4496617D01*
X46697290Y4485594D01*
X46879533Y4485594D01*
X46980409Y4593705D01*
X47032768Y4649623D01*
X47091535Y4712052D01*
X47154385Y4778557D01*
X47218995Y4846702D01*
X47283042Y4914052D01*
X47344203Y4978172D01*
X47400153Y5036628D01*
X47448570Y5086982D01*
X47487130Y5126802D01*
X47513509Y5153650D01*
X47525384Y5165092D01*
X47525805Y5165326D01*
X47649396Y5165326D01*
X47661401Y5309274D01*
X48261938Y5940842D01*
X48862475Y6572411D01*
X48862034Y6660685D01*
X48861592Y6748960D01*
X48764583Y6645334D01*
X48710291Y6587537D01*
X48646192Y6519632D01*
X48574016Y6443428D01*
X48495492Y6360731D01*
X48412349Y6273347D01*
X48326319Y6183085D01*
X48239130Y6091750D01*
X48152513Y6001151D01*
X48068197Y5913093D01*
X47987912Y5829385D01*
X47913387Y5751833D01*
X47846354Y5682243D01*
X47788541Y5622424D01*
X47741679Y5574182D01*
X47707496Y5539324D01*
X47687724Y5519657D01*
X47683390Y5515884D01*
X47683092Y5529008D01*
X47684731Y5562611D01*
X47688023Y5612120D01*
X47692682Y5672963D01*
X47694682Y5697268D01*
X47709577Y5875049D01*
X47592955Y5875049D01*
X47586934Y5846757D01*
X47583863Y5824382D01*
X47579548Y5782283D01*
X47574488Y5725822D01*
X47569181Y5660365D01*
X47567344Y5636138D01*
X47561927Y5566579D01*
X47556459Y5501982D01*
X47551488Y5448452D01*
X47547561Y5412090D01*
X47546675Y5405491D01*
X47543334Y5391944D01*
X47536101Y5376086D01*
X47523440Y5356139D01*
X47503811Y5330327D01*
X47475678Y5296871D01*
X47437502Y5253993D01*
X47387746Y5199917D01*
X47324871Y5132864D01*
X47247341Y5051057D01*
X47168251Y4968050D01*
X47089564Y4885906D01*
X47016112Y4809831D01*
X46949724Y4741675D01*
X46892227Y4683288D01*
X46845451Y4636519D01*
X46811224Y4603218D01*
X46791373Y4585233D01*
X46787140Y4582558D01*
X46776003Y4592259D01*
X46749971Y4617559D01*
X46711570Y4655918D01*
X46663328Y4704800D01*
X46607770Y4761666D01*
X46567592Y4803094D01*
X46357831Y5020000D01*
X46976337Y5020000D01*
X46976337Y5258911D01*
X46221881Y5258911D01*
X46221881Y5152458D01*
X46083565Y5290346D01*
X45985447Y5388160D01*
X45794357Y5388160D01*
X45792529Y5372730D01*
X45783277Y5364133D01*
X45760950Y5360387D01*
X45719895Y5359511D01*
X45712624Y5359505D01*
X45630891Y5359505D01*
X45630891Y5578828D01*
X45712624Y5497821D01*
X45758730Y5448572D01*
X45786306Y5410841D01*
X45794357Y5388160D01*
X45985447Y5388160D01*
X45945248Y5428234D01*
X45945248Y5551048D01*
X45944863Y5607550D01*
X45943100Y5643495D01*
X45939050Y5663470D01*
X45931801Y5672063D01*
X45920870Y5673861D01*
X45908712Y5676502D01*
X45899727Y5687088D01*
X45892826Y5709619D01*
X45886924Y5748091D01*
X45880935Y5806502D01*
X45879013Y5827896D01*
X45874852Y5875049D01*
X47592955Y5875049D01*
X47709577Y5875049D01*
X47869109Y5875049D01*
X47869109Y5988218D01*
X47801314Y5988218D01*
X47761662Y5989304D01*
X47740116Y5994546D01*
X47737480Y5997666D01*
X47598616Y5997666D01*
X47591308Y5990538D01*
X47565993Y5988338D01*
X47548908Y5988218D01*
X47491881Y5988218D01*
X47279221Y5988218D01*
X45864698Y5988218D01*
X45912542Y6037214D01*
X45986850Y6097676D01*
X46078816Y6144309D01*
X46189998Y6177751D01*
X46300471Y6196247D01*
X46372773Y6204878D01*
X46372773Y6113960D01*
X46951188Y6113960D01*
X46951188Y6217107D01*
X47036065Y6208504D01*
X47095368Y6201244D01*
X47158551Y6191621D01*
X47196386Y6184748D01*
X47271832Y6169593D01*
X47275526Y6078905D01*
X47279221Y5988218D01*
X47491881Y5988218D01*
X47491881Y6038515D01*
X47493544Y6070024D01*
X47497697Y6087537D01*
X47499371Y6088812D01*
X47517987Y6080746D01*
X47545183Y6061180D01*
X47572448Y6037056D01*
X47591267Y6015318D01*
X47592943Y6012492D01*
X47598616Y5997666D01*
X47737480Y5997666D01*
X47729662Y6006919D01*
X47725442Y6020396D01*
X47708219Y6055373D01*
X47675138Y6097421D01*
X47631893Y6140644D01*
X47584174Y6179146D01*
X47552830Y6199199D01*
X47517123Y6221149D01*
X47498819Y6239589D01*
X47492388Y6261332D01*
X47491894Y6274282D01*
X47491894Y6277425D01*
X46850594Y6277425D01*
X46850594Y6214554D01*
X46473367Y6214554D01*
X46473367Y6277425D01*
X46850594Y6277425D01*
X47491894Y6277425D01*
X47491881Y6315148D01*
X47386048Y6315148D01*
X47337355Y6313971D01*
X47299405Y6310835D01*
X47278308Y6306329D01*
X47276023Y6304505D01*
X47262641Y6301705D01*
X47230074Y6302852D01*
X47183916Y6307607D01*
X47152376Y6311997D01*
X47095188Y6320622D01*
X47042886Y6328409D01*
X47003582Y6334153D01*
X46992055Y6335785D01*
X46961937Y6345112D01*
X46951188Y6359728D01*
X46947920Y6365680D01*
X46936230Y6370222D01*
X46913288Y6373530D01*
X46876265Y6375785D01*
X46822332Y6377166D01*
X46748660Y6377850D01*
X46661980Y6378020D01*
X46569471Y6377923D01*
X46499094Y6377470D01*
X46447836Y6376410D01*
X46412680Y6374497D01*
X46390611Y6371481D01*
X46378615Y6367115D01*
X46373676Y6361151D01*
X46372773Y6354216D01*
X46365079Y6332205D01*
X46339879Y6319679D01*
X46293991Y6315212D01*
X46285736Y6315148D01*
X46208027Y6307132D01*
X46119767Y6285064D01*
X46028915Y6251916D01*
X45943430Y6210661D01*
X45871274Y6164269D01*
X45861928Y6156918D01*
X45831467Y6133002D01*
X45813428Y6123424D01*
X45800831Y6126520D01*
X45787900Y6139296D01*
X45749707Y6164322D01*
X45700002Y6173929D01*
X45646476Y6168933D01*
X45596822Y6150149D01*
X45558733Y6118394D01*
X45555975Y6114703D01*
X45527474Y6055425D01*
X45522172Y5994066D01*
X45539482Y5935573D01*
X45578820Y5884896D01*
X45583630Y5880711D01*
X45611560Y5860833D01*
X45639898Y5852079D01*
X45679737Y5851447D01*
X45689689Y5852008D01*
X45728668Y5853438D01*
X45748746Y5850161D01*
X45756015Y5840272D01*
X45756760Y5831039D01*
X45758284Y5804256D01*
X45762065Y5763975D01*
X45764782Y5739876D01*
X45768723Y5701599D01*
X45767084Y5682004D01*
X45757579Y5674842D01*
X45740649Y5673861D01*
X45730608Y5677099D01*
X45714410Y5687580D01*
X45690855Y5706452D01*
X45658743Y5734865D01*
X45616872Y5773965D01*
X45564043Y5824903D01*
X45499055Y5888827D01*
X45420709Y5966886D01*
X45327803Y6060228D01*
X45219137Y6170002D01*
X45166769Y6223048D01*
X44624951Y6772233D01*
X44625570Y6685152D01*
G37*
X44625570Y6685152D02*
X44626189Y6598069D01*
X45077914Y6139109D01*
X45529639Y5680148D01*
X45529968Y5469529D01*
X45530297Y5258911D01*
X45805390Y5258911D01*
X45812478Y5205470D01*
X45815162Y5181112D01*
X45819687Y5135241D01*
X45825809Y5070595D01*
X45833288Y4989909D01*
X45841881Y4895919D01*
X45851346Y4791363D01*
X45861442Y4678975D01*
X45871926Y4561493D01*
X45882556Y4441652D01*
X45893091Y4322189D01*
X45903287Y4205841D01*
X45912905Y4095343D01*
X45921700Y3993431D01*
X45929432Y3902842D01*
X45935858Y3826313D01*
X45940737Y3766579D01*
X45943825Y3726376D01*
X45944883Y3708441D01*
X45944882Y3708356D01*
X45937173Y3693965D01*
X45914019Y3664252D01*
X45875105Y3618869D01*
X45820116Y3557471D01*
X45748736Y3479712D01*
X45660651Y3385246D01*
X45555546Y3273728D01*
X45433105Y3144812D01*
X45398690Y3108713D01*
X44852863Y2536584D01*
X44941119Y2448564D01*
X45012515Y2526242D01*
X45038634Y2554314D01*
X45079434Y2597726D01*
X45132223Y2653634D01*
X45194309Y2719192D01*
X45263000Y2791559D01*
X45335604Y2867888D01*
X45379040Y2913476D01*
X45460584Y2998881D01*
X45526496Y3067290D01*
X45578456Y3119947D01*
X45618145Y3158095D01*
X45647243Y3182980D01*
X45667431Y3195844D01*
X45680390Y3197932D01*
X45687800Y3190487D01*
X45691342Y3174754D01*
X45692697Y3151977D01*
X45692879Y3145761D01*
X45702297Y3102939D01*
X45725503Y3051181D01*
X45757864Y2998672D01*
X45794748Y2953597D01*
X45809507Y2939672D01*
X45885233Y2890953D01*
X45973692Y2863694D01*
X46051900Y2857227D01*
X46140532Y2869424D01*
X46222388Y2905187D01*
X46294836Y2963278D01*
X46308203Y2977738D01*
X46357082Y3033267D01*
X47202674Y3033267D01*
X47202674Y2857227D01*
X47429010Y2857227D01*
X47429010Y2939469D01*
X47431850Y2995614D01*
X47441393Y3034584D01*
X47452991Y3055781D01*
X47461277Y3070948D01*
X47468373Y3092938D01*
X47474748Y3125013D01*
X47480872Y3170431D01*
X47487216Y3232452D01*
X47494250Y3314338D01*
X47499066Y3375254D01*
X47521161Y3660657D01*
X48063565Y3111195D01*
X48161637Y3011772D01*
X48255784Y2916185D01*
X48344285Y2826190D01*
X48425420Y2743543D01*
X48497469Y2669999D01*
X48558712Y2607316D01*
X48607427Y2557248D01*
X48641896Y2521552D01*
X48660379Y2502005D01*
X48690743Y2471056D01*
X48716071Y2449470D01*
X48729695Y2442277D01*
X48747095Y2450703D01*
X48772460Y2471755D01*
X48781058Y2480329D01*
X48817514Y2518380D01*
X48616802Y2722342D01*
X48565596Y2774301D01*
X48499569Y2841180D01*
X48421618Y2920050D01*
X48334638Y3007986D01*
X48241526Y3102059D01*
X48145179Y3199342D01*
X48048492Y3296907D01*
X47979134Y3366855D01*
X47873703Y3473450D01*
X47785129Y3563693D01*
X47712281Y3638808D01*
X47654023Y3700014D01*
X47609225Y3748534D01*
X47587021Y3773871D01*
X47408724Y3773871D01*
X47386401Y3488445D01*
X47379669Y3404781D01*
X47373157Y3328273D01*
X47367234Y3262919D01*
X47362268Y3212719D01*
X47358629Y3181671D01*
X47357458Y3174727D01*
X47350838Y3146435D01*
X46401364Y3146435D01*
X46395026Y3225394D01*
X46375890Y3318685D01*
X46335846Y3401209D01*
X46277418Y3469962D01*
X46203129Y3521937D01*
X46119748Y3553137D01*
X46092698Y3567772D01*
X46079156Y3599181D01*
X46078872Y3600566D01*
X46077247Y3613826D01*
X46079256Y3627405D01*
X46086858Y3643819D01*
X46102016Y3665589D01*
X46126688Y3695233D01*
X46162836Y3735268D01*
X46212420Y3788215D01*
X46277401Y3856591D01*
X46281599Y3860995D01*
X46351493Y3934389D01*
X46425800Y4012563D01*
X46499414Y4090136D01*
X46567229Y4161725D01*
X46624140Y4221949D01*
X46636832Y4235413D01*
X46685487Y4286180D01*
X46728709Y4329625D01*
X46763395Y4362759D01*
X46786444Y4382595D01*
X46794182Y4386954D01*
X46805722Y4377830D01*
X46832710Y4352800D01*
X46873021Y4313948D01*
X46924529Y4263357D01*
X46985109Y4203112D01*
X47052636Y4135296D01*
X47107826Y4079435D01*
X47408724Y3773871D01*
X47587021Y3773871D01*
X47576751Y3785589D01*
X47555471Y3812401D01*
X47544251Y3830192D01*
X47541754Y3838430D01*
X47542700Y3856410D01*
X47545573Y3897108D01*
X47550187Y3958181D01*
X47556358Y4037287D01*
X47563898Y4132086D01*
X47572621Y4240233D01*
X47582343Y4359388D01*
X47592876Y4487209D01*
X47601365Y4589365D01*
X47649396Y5165326D01*
X47525805Y5165326D01*
X47525273Y5152896D01*
X47522769Y5117890D01*
X47518496Y5062785D01*
X47512653Y4990057D01*
X47505443Y4902186D01*
X47497066Y4801649D01*
X47487723Y4690923D01*
X47478758Y4585795D01*
X47468602Y4466517D01*
X47459142Y4353920D01*
X47450596Y4250695D01*
X47443179Y4159527D01*
X47437108Y4083105D01*
X47432601Y4024117D01*
X47429873Y3985251D01*
X47429116Y3970156D01*
X47427935Y3960762D01*
X47423256Y3957034D01*
X47413276Y3960529D01*
X47396190Y3972801D01*
X47370196Y3995406D01*
X47333490Y4029900D01*
X47284267Y4077838D01*
X47220726Y4140776D01*
X47153305Y4208032D01*
X46877601Y4483523D01*
X46879533Y4485594D01*
X46697290Y4485594D01*
X46688984Y4474220D01*
X46665733Y4447437D01*
X46629865Y4407708D01*
X46583713Y4357493D01*
X46529606Y4299254D01*
X46469874Y4235453D01*
X46406848Y4168551D01*
X46342858Y4101010D01*
X46280236Y4035290D01*
X46221310Y3973854D01*
X46168412Y3919163D01*
X46123872Y3873678D01*
X46090020Y3839862D01*
X46069188Y3820174D01*
X46063506Y3816163D01*
X46061634Y3829109D01*
X46057746Y3864866D01*
X46052057Y3921196D01*
X46044781Y3995860D01*
X46036131Y4086620D01*
X46026322Y4191238D01*
X46015566Y4307474D01*
X46004079Y4433092D01*
X45994907Y4534382D01*
X45983174Y4665721D01*
X45972335Y4789448D01*
X45962570Y4903319D01*
X45954063Y5005089D01*
X45946995Y5092513D01*
X45941549Y5163347D01*
X45937908Y5215347D01*
X45936253Y5246268D01*
X45936442Y5254297D01*
X45946334Y5247146D01*
X45971524Y5224159D01*
X46009810Y5187561D01*
X46058989Y5139578D01*
X46116861Y5082434D01*
X46181222Y5018353D01*
X46249871Y4949562D01*
X46320605Y4878284D01*
X46391222Y4806745D01*
X46459520Y4737170D01*
X46523296Y4671783D01*
X46580350Y4612809D01*
X46628478Y4562473D01*
X46665478Y4523001D01*
X46689148Y4496617D01*
X46697290Y4485594D01*
X46879533Y4485594D01*
X46980409Y4593705D01*
X47032768Y4649623D01*
X47091535Y4712052D01*
X47154385Y4778557D01*
X47218995Y4846702D01*
X47283042Y4914052D01*
X47344203Y4978172D01*
X47400153Y5036628D01*
X47448570Y5086982D01*
X47487130Y5126802D01*
X47513509Y5153650D01*
X47525384Y5165092D01*
X47525805Y5165326D01*
X47649396Y5165326D01*
X47661401Y5309274D01*
X48261938Y5940842D01*
X48862475Y6572411D01*
X48862034Y6660685D01*
X48861592Y6748960D01*
X48764583Y6645334D01*
X48710291Y6587537D01*
X48646192Y6519632D01*
X48574016Y6443428D01*
X48495492Y6360731D01*
X48412349Y6273347D01*
X48326319Y6183085D01*
X48239130Y6091750D01*
X48152513Y6001151D01*
X48068197Y5913093D01*
X47987912Y5829385D01*
X47913387Y5751833D01*
X47846354Y5682243D01*
X47788541Y5622424D01*
X47741679Y5574182D01*
X47707496Y5539324D01*
X47687724Y5519657D01*
X47683390Y5515884D01*
X47683092Y5529008D01*
X47684731Y5562611D01*
X47688023Y5612120D01*
X47692682Y5672963D01*
X47694682Y5697268D01*
X47709577Y5875049D01*
X47592955Y5875049D01*
X47586934Y5846757D01*
X47583863Y5824382D01*
X47579548Y5782283D01*
X47574488Y5725822D01*
X47569181Y5660365D01*
X47567344Y5636138D01*
X47561927Y5566579D01*
X47556459Y5501982D01*
X47551488Y5448452D01*
X47547561Y5412090D01*
X47546675Y5405491D01*
X47543334Y5391944D01*
X47536101Y5376086D01*
X47523440Y5356139D01*
X47503811Y5330327D01*
X47475678Y5296871D01*
X47437502Y5253993D01*
X47387746Y5199917D01*
X47324871Y5132864D01*
X47247341Y5051057D01*
X47168251Y4968050D01*
X47089564Y4885906D01*
X47016112Y4809831D01*
X46949724Y4741675D01*
X46892227Y4683288D01*
X46845451Y4636519D01*
X46811224Y4603218D01*
X46791373Y4585233D01*
X46787140Y4582558D01*
X46776003Y4592259D01*
X46749971Y4617559D01*
X46711570Y4655918D01*
X46663328Y4704800D01*
X46607770Y4761666D01*
X46567592Y4803094D01*
X46357831Y5020000D01*
X46976337Y5020000D01*
X46976337Y5258911D01*
X46221881Y5258911D01*
X46221881Y5152458D01*
X46083565Y5290346D01*
X45985447Y5388160D01*
X45794357Y5388160D01*
X45792529Y5372730D01*
X45783277Y5364133D01*
X45760950Y5360387D01*
X45719895Y5359511D01*
X45712624Y5359505D01*
X45630891Y5359505D01*
X45630891Y5578828D01*
X45712624Y5497821D01*
X45758730Y5448572D01*
X45786306Y5410841D01*
X45794357Y5388160D01*
X45985447Y5388160D01*
X45945248Y5428234D01*
X45945248Y5551048D01*
X45944863Y5607550D01*
X45943100Y5643495D01*
X45939050Y5663470D01*
X45931801Y5672063D01*
X45920870Y5673861D01*
X45908712Y5676502D01*
X45899727Y5687088D01*
X45892826Y5709619D01*
X45886924Y5748091D01*
X45880935Y5806502D01*
X45879013Y5827896D01*
X45874852Y5875049D01*
X47592955Y5875049D01*
X47709577Y5875049D01*
X47869109Y5875049D01*
X47869109Y5988218D01*
X47801314Y5988218D01*
X47761662Y5989304D01*
X47740116Y5994546D01*
X47737480Y5997666D01*
X47598616Y5997666D01*
X47591308Y5990538D01*
X47565993Y5988338D01*
X47548908Y5988218D01*
X47491881Y5988218D01*
X47279221Y5988218D01*
X45864698Y5988218D01*
X45912542Y6037214D01*
X45986850Y6097676D01*
X46078816Y6144309D01*
X46189998Y6177751D01*
X46300471Y6196247D01*
X46372773Y6204878D01*
X46372773Y6113960D01*
X46951188Y6113960D01*
X46951188Y6217107D01*
X47036065Y6208504D01*
X47095368Y6201244D01*
X47158551Y6191621D01*
X47196386Y6184748D01*
X47271832Y6169593D01*
X47275526Y6078905D01*
X47279221Y5988218D01*
X47491881Y5988218D01*
X47491881Y6038515D01*
X47493544Y6070024D01*
X47497697Y6087537D01*
X47499371Y6088812D01*
X47517987Y6080746D01*
X47545183Y6061180D01*
X47572448Y6037056D01*
X47591267Y6015318D01*
X47592943Y6012492D01*
X47598616Y5997666D01*
X47737480Y5997666D01*
X47729662Y6006919D01*
X47725442Y6020396D01*
X47708219Y6055373D01*
X47675138Y6097421D01*
X47631893Y6140644D01*
X47584174Y6179146D01*
X47552830Y6199199D01*
X47517123Y6221149D01*
X47498819Y6239589D01*
X47492388Y6261332D01*
X47491894Y6274282D01*
X47491894Y6277425D01*
X46850594Y6277425D01*
X46850594Y6214554D01*
X46473367Y6214554D01*
X46473367Y6277425D01*
X46850594Y6277425D01*
X47491894Y6277425D01*
X47491881Y6315148D01*
X47386048Y6315148D01*
X47337355Y6313971D01*
X47299405Y6310835D01*
X47278308Y6306329D01*
X47276023Y6304505D01*
X47262641Y6301705D01*
X47230074Y6302852D01*
X47183916Y6307607D01*
X47152376Y6311997D01*
X47095188Y6320622D01*
X47042886Y6328409D01*
X47003582Y6334153D01*
X46992055Y6335785D01*
X46961937Y6345112D01*
X46951188Y6359728D01*
X46947920Y6365680D01*
X46936230Y6370222D01*
X46913288Y6373530D01*
X46876265Y6375785D01*
X46822332Y6377166D01*
X46748660Y6377850D01*
X46661980Y6378020D01*
X46569471Y6377923D01*
X46499094Y6377470D01*
X46447836Y6376410D01*
X46412680Y6374497D01*
X46390611Y6371481D01*
X46378615Y6367115D01*
X46373676Y6361151D01*
X46372773Y6354216D01*
X46365079Y6332205D01*
X46339879Y6319679D01*
X46293991Y6315212D01*
X46285736Y6315148D01*
X46208027Y6307132D01*
X46119767Y6285064D01*
X46028915Y6251916D01*
X45943430Y6210661D01*
X45871274Y6164269D01*
X45861928Y6156918D01*
X45831467Y6133002D01*
X45813428Y6123424D01*
X45800831Y6126520D01*
X45787900Y6139296D01*
X45749707Y6164322D01*
X45700002Y6173929D01*
X45646476Y6168933D01*
X45596822Y6150149D01*
X45558733Y6118394D01*
X45555975Y6114703D01*
X45527474Y6055425D01*
X45522172Y5994066D01*
X45539482Y5935573D01*
X45578820Y5884896D01*
X45583630Y5880711D01*
X45611560Y5860833D01*
X45639898Y5852079D01*
X45679737Y5851447D01*
X45689689Y5852008D01*
X45728668Y5853438D01*
X45748746Y5850161D01*
X45756015Y5840272D01*
X45756760Y5831039D01*
X45758284Y5804256D01*
X45762065Y5763975D01*
X45764782Y5739876D01*
X45768723Y5701599D01*
X45767084Y5682004D01*
X45757579Y5674842D01*
X45740649Y5673861D01*
X45730608Y5677099D01*
X45714410Y5687580D01*
X45690855Y5706452D01*
X45658743Y5734865D01*
X45616872Y5773965D01*
X45564043Y5824903D01*
X45499055Y5888827D01*
X45420709Y5966886D01*
X45327803Y6060228D01*
X45219137Y6170002D01*
X45166769Y6223048D01*
X44624951Y6772233D01*
X44625570Y6685152D01*
%TO.C,G\u002A\u002A\u002A*%
G36*
X54583907Y27333554D02*
G01*
X54419253Y27261623D01*
X54386980Y27242697D01*
X54279414Y27177241D01*
X55046589Y26376592D01*
X55229445Y26185808D01*
X55411756Y25995685D01*
X55587115Y25812900D01*
X55749112Y25644129D01*
X55891341Y25496047D01*
X56007394Y25375330D01*
X56090463Y25289069D01*
X56202158Y25171672D01*
X56279550Y25085254D01*
X56328654Y25021475D01*
X56355492Y24971997D01*
X56366080Y24928479D01*
X56367162Y24905671D01*
X56343772Y24794375D01*
X56281814Y24705024D01*
X56193605Y24646649D01*
X56091461Y24628280D01*
X56013191Y24646159D01*
X55976309Y24670896D01*
X55901084Y24728818D01*
X55791843Y24816356D01*
X55652913Y24929939D01*
X55488622Y25065995D01*
X55303297Y25220955D01*
X55101265Y25391247D01*
X54886854Y25573300D01*
X54805636Y25642597D01*
X54590158Y25826430D01*
X54387618Y25998732D01*
X54202037Y26156114D01*
X54037438Y26295188D01*
X53897843Y26412567D01*
X53787275Y26504863D01*
X53709755Y26568689D01*
X53669306Y26600658D01*
X53664356Y26603770D01*
X53638644Y26585080D01*
X53583511Y26535058D01*
X53508771Y26462779D01*
X53470217Y26424261D01*
X53292304Y26244753D01*
X54277966Y25089060D01*
X54464983Y24869141D01*
X54641049Y24660862D01*
X54802732Y24468368D01*
X54946599Y24295805D01*
X55069218Y24147317D01*
X55167156Y24027050D01*
X55236982Y23939150D01*
X55275263Y23887761D01*
X55281500Y23877060D01*
X55285441Y23780028D01*
X55246288Y23682995D01*
X55175374Y23600448D01*
X55084029Y23546874D01*
X55013455Y23534368D01*
X54992253Y23535229D01*
X54970240Y23539714D01*
X54944210Y23550675D01*
X54910959Y23570967D01*
X54867279Y23603442D01*
X54809966Y23650954D01*
X54735814Y23716355D01*
X54641617Y23802500D01*
X54524170Y23912240D01*
X54380266Y24048429D01*
X54206700Y24213921D01*
X54000266Y24411569D01*
X53757759Y24644225D01*
X53646839Y24750705D01*
X53460108Y24929280D01*
X53285240Y25095180D01*
X53126524Y25244431D01*
X52988249Y25373062D01*
X52874704Y25477101D01*
X52790176Y25552575D01*
X52738955Y25595514D01*
X52725406Y25604102D01*
X52689420Y25579963D01*
X52641993Y25516958D01*
X52590776Y25429210D01*
X52543416Y25330837D01*
X52507563Y25235961D01*
X52492642Y25174392D01*
X52484839Y25062822D01*
X52496251Y24947812D01*
X52529188Y24825999D01*
X52585960Y24694020D01*
X52668877Y24548508D01*
X52780247Y24386102D01*
X52922380Y24203436D01*
X53097587Y23997147D01*
X53308176Y23763869D01*
X53556458Y23500240D01*
X53844741Y23202896D01*
X53849391Y23198151D01*
X54087748Y22958727D01*
X54296397Y22758236D01*
X54481530Y22592220D01*
X54649338Y22456218D01*
X54806015Y22345770D01*
X54957750Y22256416D01*
X55110737Y22183695D01*
X55271167Y22123148D01*
X55395654Y22084329D01*
X55678037Y22026457D01*
X55971279Y22010097D01*
X56260332Y22034615D01*
X56530148Y22099379D01*
X56628973Y22136267D01*
X56721570Y22174957D01*
X60235027Y18468798D01*
X60602207Y18081633D01*
X60959713Y17704971D01*
X61305556Y17340893D01*
X61637750Y16991481D01*
X61954307Y16658814D01*
X62253240Y16344974D01*
X62532560Y16052041D01*
X62790282Y15782096D01*
X63024417Y15537219D01*
X63232979Y15319492D01*
X63413979Y15130995D01*
X63565430Y14973810D01*
X63685346Y14850015D01*
X63771738Y14761694D01*
X63822620Y14710925D01*
X63835379Y14699280D01*
X63915926Y14654336D01*
X64002081Y14640028D01*
X64109167Y14655916D01*
X64215260Y14688357D01*
X64393141Y14771228D01*
X64565312Y14890510D01*
X64723999Y15036870D01*
X64861428Y15200978D01*
X64969825Y15373501D01*
X65041416Y15545106D01*
X65068427Y15706461D01*
X65068470Y15712583D01*
X65060227Y15810838D01*
X65028731Y15882378D01*
X64991054Y15927793D01*
X64962655Y15955598D01*
X64895479Y16020108D01*
X64791648Y16119307D01*
X64653284Y16251182D01*
X64482507Y16413717D01*
X64281440Y16604899D01*
X64052204Y16822712D01*
X63796921Y17065142D01*
X63517712Y17330174D01*
X63216699Y17615794D01*
X62896004Y17919987D01*
X62557748Y18240739D01*
X62204052Y18576035D01*
X61837039Y18923860D01*
X61458831Y19282199D01*
X61309180Y19423962D01*
X60927380Y19785622D01*
X60556030Y20137385D01*
X60197246Y20477250D01*
X59853142Y20803213D01*
X59525833Y21113271D01*
X59217432Y21405421D01*
X58930055Y21677659D01*
X58665815Y21927983D01*
X58426828Y22154390D01*
X58215207Y22354876D01*
X58033067Y22527438D01*
X57882523Y22670073D01*
X57765690Y22780779D01*
X57684680Y22857551D01*
X57641610Y22898387D01*
X57635517Y22904174D01*
X57566289Y22970114D01*
X57632036Y23104403D01*
X57740822Y23389530D01*
X57797356Y23690209D01*
X57801807Y24001402D01*
X57754344Y24318071D01*
X57655136Y24635179D01*
X57574630Y24815949D01*
X57509947Y24937542D01*
X57435968Y25057453D01*
X57348178Y25180955D01*
X57242065Y25313319D01*
X57113114Y25459817D01*
X56956813Y25625723D01*
X56768646Y25816307D01*
X56544102Y26036844D01*
X56458118Y26120116D01*
X56237134Y26333005D01*
X56051261Y26510700D01*
X55895553Y26657597D01*
X55765065Y26778092D01*
X55654852Y26876581D01*
X55559969Y26957461D01*
X55475470Y27025128D01*
X55396411Y27083977D01*
X55317845Y27138406D01*
X55297096Y27152239D01*
X55095862Y27269390D01*
X54914836Y27338170D01*
X54746643Y27359314D01*
X54583907Y27333554D01*
G37*
X54583907Y27333554D02*
X54419253Y27261623D01*
X54386980Y27242697D01*
X54279414Y27177241D01*
X55046589Y26376592D01*
X55229445Y26185808D01*
X55411756Y25995685D01*
X55587115Y25812900D01*
X55749112Y25644129D01*
X55891341Y25496047D01*
X56007394Y25375330D01*
X56090463Y25289069D01*
X56202158Y25171672D01*
X56279550Y25085254D01*
X56328654Y25021475D01*
X56355492Y24971997D01*
X56366080Y24928479D01*
X56367162Y24905671D01*
X56343772Y24794375D01*
X56281814Y24705024D01*
X56193605Y24646649D01*
X56091461Y24628280D01*
X56013191Y24646159D01*
X55976309Y24670896D01*
X55901084Y24728818D01*
X55791843Y24816356D01*
X55652913Y24929939D01*
X55488622Y25065995D01*
X55303297Y25220955D01*
X55101265Y25391247D01*
X54886854Y25573300D01*
X54805636Y25642597D01*
X54590158Y25826430D01*
X54387618Y25998732D01*
X54202037Y26156114D01*
X54037438Y26295188D01*
X53897843Y26412567D01*
X53787275Y26504863D01*
X53709755Y26568689D01*
X53669306Y26600658D01*
X53664356Y26603770D01*
X53638644Y26585080D01*
X53583511Y26535058D01*
X53508771Y26462779D01*
X53470217Y26424261D01*
X53292304Y26244753D01*
X54277966Y25089060D01*
X54464983Y24869141D01*
X54641049Y24660862D01*
X54802732Y24468368D01*
X54946599Y24295805D01*
X55069218Y24147317D01*
X55167156Y24027050D01*
X55236982Y23939150D01*
X55275263Y23887761D01*
X55281500Y23877060D01*
X55285441Y23780028D01*
X55246288Y23682995D01*
X55175374Y23600448D01*
X55084029Y23546874D01*
X55013455Y23534368D01*
X54992253Y23535229D01*
X54970240Y23539714D01*
X54944210Y23550675D01*
X54910959Y23570967D01*
X54867279Y23603442D01*
X54809966Y23650954D01*
X54735814Y23716355D01*
X54641617Y23802500D01*
X54524170Y23912240D01*
X54380266Y24048429D01*
X54206700Y24213921D01*
X54000266Y24411569D01*
X53757759Y24644225D01*
X53646839Y24750705D01*
X53460108Y24929280D01*
X53285240Y25095180D01*
X53126524Y25244431D01*
X52988249Y25373062D01*
X52874704Y25477101D01*
X52790176Y25552575D01*
X52738955Y25595514D01*
X52725406Y25604102D01*
X52689420Y25579963D01*
X52641993Y25516958D01*
X52590776Y25429210D01*
X52543416Y25330837D01*
X52507563Y25235961D01*
X52492642Y25174392D01*
X52484839Y25062822D01*
X52496251Y24947812D01*
X52529188Y24825999D01*
X52585960Y24694020D01*
X52668877Y24548508D01*
X52780247Y24386102D01*
X52922380Y24203436D01*
X53097587Y23997147D01*
X53308176Y23763869D01*
X53556458Y23500240D01*
X53844741Y23202896D01*
X53849391Y23198151D01*
X54087748Y22958727D01*
X54296397Y22758236D01*
X54481530Y22592220D01*
X54649338Y22456218D01*
X54806015Y22345770D01*
X54957750Y22256416D01*
X55110737Y22183695D01*
X55271167Y22123148D01*
X55395654Y22084329D01*
X55678037Y22026457D01*
X55971279Y22010097D01*
X56260332Y22034615D01*
X56530148Y22099379D01*
X56628973Y22136267D01*
X56721570Y22174957D01*
X60235027Y18468798D01*
X60602207Y18081633D01*
X60959713Y17704971D01*
X61305556Y17340893D01*
X61637750Y16991481D01*
X61954307Y16658814D01*
X62253240Y16344974D01*
X62532560Y16052041D01*
X62790282Y15782096D01*
X63024417Y15537219D01*
X63232979Y15319492D01*
X63413979Y15130995D01*
X63565430Y14973810D01*
X63685346Y14850015D01*
X63771738Y14761694D01*
X63822620Y14710925D01*
X63835379Y14699280D01*
X63915926Y14654336D01*
X64002081Y14640028D01*
X64109167Y14655916D01*
X64215260Y14688357D01*
X64393141Y14771228D01*
X64565312Y14890510D01*
X64723999Y15036870D01*
X64861428Y15200978D01*
X64969825Y15373501D01*
X65041416Y15545106D01*
X65068427Y15706461D01*
X65068470Y15712583D01*
X65060227Y15810838D01*
X65028731Y15882378D01*
X64991054Y15927793D01*
X64962655Y15955598D01*
X64895479Y16020108D01*
X64791648Y16119307D01*
X64653284Y16251182D01*
X64482507Y16413717D01*
X64281440Y16604899D01*
X64052204Y16822712D01*
X63796921Y17065142D01*
X63517712Y17330174D01*
X63216699Y17615794D01*
X62896004Y17919987D01*
X62557748Y18240739D01*
X62204052Y18576035D01*
X61837039Y18923860D01*
X61458831Y19282199D01*
X61309180Y19423962D01*
X60927380Y19785622D01*
X60556030Y20137385D01*
X60197246Y20477250D01*
X59853142Y20803213D01*
X59525833Y21113271D01*
X59217432Y21405421D01*
X58930055Y21677659D01*
X58665815Y21927983D01*
X58426828Y22154390D01*
X58215207Y22354876D01*
X58033067Y22527438D01*
X57882523Y22670073D01*
X57765690Y22780779D01*
X57684680Y22857551D01*
X57641610Y22898387D01*
X57635517Y22904174D01*
X57566289Y22970114D01*
X57632036Y23104403D01*
X57740822Y23389530D01*
X57797356Y23690209D01*
X57801807Y24001402D01*
X57754344Y24318071D01*
X57655136Y24635179D01*
X57574630Y24815949D01*
X57509947Y24937542D01*
X57435968Y25057453D01*
X57348178Y25180955D01*
X57242065Y25313319D01*
X57113114Y25459817D01*
X56956813Y25625723D01*
X56768646Y25816307D01*
X56544102Y26036844D01*
X56458118Y26120116D01*
X56237134Y26333005D01*
X56051261Y26510700D01*
X55895553Y26657597D01*
X55765065Y26778092D01*
X55654852Y26876581D01*
X55559969Y26957461D01*
X55475470Y27025128D01*
X55396411Y27083977D01*
X55317845Y27138406D01*
X55297096Y27152239D01*
X55095862Y27269390D01*
X54914836Y27338170D01*
X54746643Y27359314D01*
X54583907Y27333554D01*
G36*
X56816262Y17848292D02*
G01*
X56550285Y17596108D01*
X56292025Y17350972D01*
X56044993Y17116231D01*
X55812700Y16895236D01*
X55598658Y16691334D01*
X55406378Y16507874D01*
X55239370Y16348205D01*
X55101147Y16215674D01*
X54995219Y16113631D01*
X54925097Y16045424D01*
X54906027Y16026529D01*
X54697996Y15817803D01*
X54714715Y15676633D01*
X54737952Y15573614D01*
X54780714Y15453512D01*
X54820018Y15369264D01*
X54905083Y15239911D01*
X55024011Y15098808D01*
X55162133Y14960425D01*
X55304777Y14839230D01*
X55437275Y14749691D01*
X55461209Y14736885D01*
X55571382Y14691813D01*
X55691324Y14659400D01*
X55802929Y14643059D01*
X55888090Y14646206D01*
X55908340Y14652562D01*
X55933054Y14675117D01*
X55992847Y14734954D01*
X56084409Y14828586D01*
X56204430Y14952523D01*
X56349601Y15103277D01*
X56516610Y15277359D01*
X56702148Y15471281D01*
X56902905Y15681555D01*
X57115570Y15904692D01*
X57336834Y16137202D01*
X57563386Y16375599D01*
X57791916Y16616393D01*
X58019115Y16856096D01*
X58241672Y17091219D01*
X58456276Y17318273D01*
X58659619Y17533771D01*
X58848389Y17734223D01*
X59019278Y17916142D01*
X59168974Y18076038D01*
X59294167Y18210423D01*
X59391548Y18315809D01*
X59457806Y18388706D01*
X59489631Y18425627D01*
X59492023Y18429426D01*
X59473028Y18454975D01*
X59420065Y18515176D01*
X59338425Y18604304D01*
X59233401Y18716635D01*
X59110286Y18846442D01*
X59004814Y18956440D01*
X58518465Y19461328D01*
X56816262Y17848292D01*
G37*
X56816262Y17848292D02*
X56550285Y17596108D01*
X56292025Y17350972D01*
X56044993Y17116231D01*
X55812700Y16895236D01*
X55598658Y16691334D01*
X55406378Y16507874D01*
X55239370Y16348205D01*
X55101147Y16215674D01*
X54995219Y16113631D01*
X54925097Y16045424D01*
X54906027Y16026529D01*
X54697996Y15817803D01*
X54714715Y15676633D01*
X54737952Y15573614D01*
X54780714Y15453512D01*
X54820018Y15369264D01*
X54905083Y15239911D01*
X55024011Y15098808D01*
X55162133Y14960425D01*
X55304777Y14839230D01*
X55437275Y14749691D01*
X55461209Y14736885D01*
X55571382Y14691813D01*
X55691324Y14659400D01*
X55802929Y14643059D01*
X55888090Y14646206D01*
X55908340Y14652562D01*
X55933054Y14675117D01*
X55992847Y14734954D01*
X56084409Y14828586D01*
X56204430Y14952523D01*
X56349601Y15103277D01*
X56516610Y15277359D01*
X56702148Y15471281D01*
X56902905Y15681555D01*
X57115570Y15904692D01*
X57336834Y16137202D01*
X57563386Y16375599D01*
X57791916Y16616393D01*
X58019115Y16856096D01*
X58241672Y17091219D01*
X58456276Y17318273D01*
X58659619Y17533771D01*
X58848389Y17734223D01*
X59019278Y17916142D01*
X59168974Y18076038D01*
X59294167Y18210423D01*
X59391548Y18315809D01*
X59457806Y18388706D01*
X59489631Y18425627D01*
X59492023Y18429426D01*
X59473028Y18454975D01*
X59420065Y18515176D01*
X59338425Y18604304D01*
X59233401Y18716635D01*
X59110286Y18846442D01*
X59004814Y18956440D01*
X58518465Y19461328D01*
X56816262Y17848292D01*
G36*
X65275830Y26852509D02*
G01*
X64937101Y26800589D01*
X64574349Y26703135D01*
X64526322Y26687361D01*
X64103341Y26520840D01*
X63691451Y26310550D01*
X63302121Y26063543D01*
X62946822Y25786865D01*
X62726529Y25581359D01*
X62481440Y25302329D01*
X62281067Y25007807D01*
X62126592Y24702500D01*
X62019199Y24391114D01*
X61960069Y24078357D01*
X61950386Y23768934D01*
X61991331Y23467554D01*
X62084087Y23178921D01*
X62108947Y23123166D01*
X62191843Y22946023D01*
X61247499Y22050450D01*
X60303156Y21154878D01*
X60763929Y20712282D01*
X60896833Y20585269D01*
X61016213Y20472415D01*
X61116113Y20379251D01*
X61190573Y20311308D01*
X61233636Y20274118D01*
X61241654Y20268768D01*
X61263892Y20288382D01*
X61320845Y20344903D01*
X61408585Y20434267D01*
X61523183Y20552410D01*
X61660711Y20695267D01*
X61817242Y20858776D01*
X61988846Y21038872D01*
X62140248Y21198394D01*
X62363303Y21433028D01*
X62550807Y21628438D01*
X62705175Y21786999D01*
X62828821Y21911085D01*
X62924160Y22003073D01*
X62993607Y22065336D01*
X63039575Y22100250D01*
X63064480Y22110190D01*
X63066644Y22109634D01*
X63398761Y21991528D01*
X63722709Y21928405D01*
X64042239Y21920388D01*
X64361098Y21967594D01*
X64683036Y22070146D01*
X64899535Y22168466D01*
X65191970Y22344624D01*
X65476753Y22570665D01*
X65749222Y22840233D01*
X66004715Y23146971D01*
X66238573Y23484523D01*
X66446133Y23846531D01*
X66622736Y24226640D01*
X66763719Y24618493D01*
X66807254Y24770168D01*
X66838523Y24896842D01*
X66859527Y25010646D01*
X66872204Y25129202D01*
X66878488Y25270137D01*
X66880290Y25435144D01*
X66879348Y25604291D01*
X66874749Y25730240D01*
X66865124Y25826065D01*
X66849105Y25904841D01*
X66825324Y25979644D01*
X66822527Y25987247D01*
X66702544Y26238647D01*
X66545892Y26448368D01*
X66354379Y26615859D01*
X66129809Y26740569D01*
X65873990Y26821948D01*
X65588728Y26859445D01*
X65275830Y26852509D01*
G37*
X65275830Y26852509D02*
X64937101Y26800589D01*
X64574349Y26703135D01*
X64526322Y26687361D01*
X64103341Y26520840D01*
X63691451Y26310550D01*
X63302121Y26063543D01*
X62946822Y25786865D01*
X62726529Y25581359D01*
X62481440Y25302329D01*
X62281067Y25007807D01*
X62126592Y24702500D01*
X62019199Y24391114D01*
X61960069Y24078357D01*
X61950386Y23768934D01*
X61991331Y23467554D01*
X62084087Y23178921D01*
X62108947Y23123166D01*
X62191843Y22946023D01*
X61247499Y22050450D01*
X60303156Y21154878D01*
X60763929Y20712282D01*
X60896833Y20585269D01*
X61016213Y20472415D01*
X61116113Y20379251D01*
X61190573Y20311308D01*
X61233636Y20274118D01*
X61241654Y20268768D01*
X61263892Y20288382D01*
X61320845Y20344903D01*
X61408585Y20434267D01*
X61523183Y20552410D01*
X61660711Y20695267D01*
X61817242Y20858776D01*
X61988846Y21038872D01*
X62140248Y21198394D01*
X62363303Y21433028D01*
X62550807Y21628438D01*
X62705175Y21786999D01*
X62828821Y21911085D01*
X62924160Y22003073D01*
X62993607Y22065336D01*
X63039575Y22100250D01*
X63064480Y22110190D01*
X63066644Y22109634D01*
X63398761Y21991528D01*
X63722709Y21928405D01*
X64042239Y21920388D01*
X64361098Y21967594D01*
X64683036Y22070146D01*
X64899535Y22168466D01*
X65191970Y22344624D01*
X65476753Y22570665D01*
X65749222Y22840233D01*
X66004715Y23146971D01*
X66238573Y23484523D01*
X66446133Y23846531D01*
X66622736Y24226640D01*
X66763719Y24618493D01*
X66807254Y24770168D01*
X66838523Y24896842D01*
X66859527Y25010646D01*
X66872204Y25129202D01*
X66878488Y25270137D01*
X66880290Y25435144D01*
X66879348Y25604291D01*
X66874749Y25730240D01*
X66865124Y25826065D01*
X66849105Y25904841D01*
X66825324Y25979644D01*
X66822527Y25987247D01*
X66702544Y26238647D01*
X66545892Y26448368D01*
X66354379Y26615859D01*
X66129809Y26740569D01*
X65873990Y26821948D01*
X65588728Y26859445D01*
X65275830Y26852509D01*
%TD*%
%LPC*%
D13*
%TO.C,SW3*%
X23500000Y33000000D03*
X23500000Y28500000D03*
X17000000Y33000000D03*
X17000000Y28500000D03*
%TD*%
%TO.C,SW11*%
X63500000Y33000000D03*
X63500000Y28500000D03*
X57000000Y33000000D03*
X57000000Y28500000D03*
%TD*%
%TO.C,SW10*%
X63500000Y53000000D03*
X63500000Y48500000D03*
X57000000Y53000000D03*
X57000000Y48500000D03*
%TD*%
%TO.C,SW7*%
X43500000Y33000000D03*
X43500000Y28500000D03*
X37000000Y33000000D03*
X37000000Y28500000D03*
%TD*%
%TO.C,SW2*%
X23500000Y53000000D03*
X23500000Y48500000D03*
X17000000Y53000000D03*
X17000000Y48500000D03*
%TD*%
D14*
%TO.C,J1*%
X51500000Y124200000D03*
X56500000Y124200000D03*
D15*
X50125000Y126950000D03*
X57875000Y126950000D03*
D13*
X50275000Y123150000D03*
X57725000Y123150000D03*
%TD*%
%TO.C,SW6*%
X43500000Y53000000D03*
X43500000Y48500000D03*
X37000000Y53000000D03*
X37000000Y48500000D03*
%TD*%
D16*
%TO.C,J2*%
X6540000Y66960000D03*
X6540000Y69500000D03*
X6540000Y72040000D03*
X4000000Y66960000D03*
X4000000Y69500000D03*
G36*
G01*
X3150000Y71440000D02*
X3150000Y72640000D01*
G75*
G02*
X3400000Y72890000I250000J0D01*
G01*
X4600000Y72890000D01*
G75*
G02*
X4850000Y72640000I0J-250000D01*
G01*
X4850000Y71440000D01*
G75*
G02*
X4600000Y71190000I-250000J0D01*
G01*
X3400000Y71190000D01*
G75*
G02*
X3150000Y71440000I0J250000D01*
G01*
G37*
%TD*%
D13*
%TO.C,SW12*%
X63500000Y13000000D03*
X63500000Y8500000D03*
X57000000Y13000000D03*
X57000000Y8500000D03*
%TD*%
%TO.C,SW9*%
X63500000Y73000000D03*
X63500000Y68500000D03*
X57000000Y73000000D03*
X57000000Y68500000D03*
%TD*%
%TO.C,SW8*%
X43500000Y13000000D03*
X43500000Y8500000D03*
X37000000Y13000000D03*
X37000000Y8500000D03*
%TD*%
%TO.C,SW5*%
X43500000Y73000000D03*
X43500000Y68500000D03*
X37000000Y73000000D03*
X37000000Y68500000D03*
%TD*%
%TO.C,SW4*%
X23500000Y13000000D03*
X23500000Y8500000D03*
X17000000Y13000000D03*
X17000000Y8500000D03*
%TD*%
%TO.C,SW1*%
X23500000Y73000000D03*
X23500000Y68500000D03*
X17000000Y73000000D03*
X17000000Y68500000D03*
%TD*%
D17*
%TO.C,H1*%
X3000000Y125500000D03*
%TD*%
%TO.C,H2*%
X3000000Y82000000D03*
%TD*%
%TO.C,H3*%
X3000000Y3000000D03*
%TD*%
%TO.C,H4*%
X78000000Y125500000D03*
%TD*%
%TO.C,H5*%
X78000000Y81500000D03*
%TD*%
%TO.C,H6*%
X78000000Y3000000D03*
%TD*%
D18*
%TO.C,U3*%
X65800000Y88032000D03*
X68340000Y88032000D03*
X63260000Y88032000D03*
X70880000Y88032000D03*
X60720000Y88032000D03*
X70880000Y118512000D03*
X68340000Y118512000D03*
X65800000Y118512000D03*
X63260000Y118512000D03*
X60720000Y118512000D03*
%TD*%
%TO.C,U4*%
X41500000Y88032000D03*
X44040000Y88032000D03*
X38960000Y88032000D03*
X46580000Y88032000D03*
X36420000Y88032000D03*
X46580000Y118512000D03*
X44040000Y118512000D03*
X41500000Y118512000D03*
X38960000Y118512000D03*
X36420000Y118512000D03*
%TD*%
%TO.C,U5*%
X12120000Y118512000D03*
X14660000Y118512000D03*
X17200000Y118512000D03*
X19740000Y118512000D03*
X22280000Y118512000D03*
X12120000Y88032000D03*
X22280000Y88032000D03*
X14660000Y88032000D03*
X19740000Y88032000D03*
X17200000Y88032000D03*
%TD*%
M02*
