M48
; DRILL file {KiCad 5.1.9-73d0e3b20d~88~ubuntu20.04.1} date Tue Jan 19 09:01:59 2021
; FORMAT={-:-/ absolute / inch / decimal}
; #@! TF.CreationDate,2021-01-19T09:01:59+01:00
; #@! TF.GenerationSoftware,Kicad,Pcbnew,5.1.9-73d0e3b20d~88~ubuntu20.04.1
FMAT,2
INCH
T1C0.0157
T2C0.0236
T3C0.0300
T4C0.0394
T5C0.0433
T6C0.0472
T7C0.0551
T8C0.0315
T9C0.1260
%
G90
G05
T1
X0.0984Y3.8386
X0.1969Y4.7244
X0.1969Y4.5276
X0.1969Y2.3622
X0.1969Y1.9685
X0.1969Y1.5748
X0.1969Y1.1811
X0.1969Y0.7874
X0.1969Y0.3937
X0.2585Y3.6982
X0.315Y3.8386
X0.3937Y3.8583
X0.5118Y4.9016
X0.5906Y3.5433
X0.6102Y4.4291
X0.7874Y3.1496
X0.7874Y2.3622
X0.7874Y1.5748
X0.7874Y0.7874
X0.9055Y4.0748
X0.9055Y3.7402
X1.0039Y4.7638
X1.063Y3.878
X1.1024Y4.3898
X1.1417Y3.6614
X1.2205Y3.937
X1.2598Y3.3858
X1.3583Y4.7244
X1.378Y4.3307
X1.378Y4.1339
X1.4961Y4.0157
X1.5354Y4.9213
X1.5354Y4.498
X1.5748Y3.1496
X1.5748Y2.3622
X1.5748Y1.5748
X1.5748Y0.7874
X1.7224Y4.2224
X1.7421Y4.4291
X1.7717Y3.7402
X1.8504Y4.5669
X1.9291Y4.3898
X2.0276Y4.7638
X2.0571Y4.2618
X2.062Y4.7293
X2.0669Y4.0945
X2.0748Y4.7717
X2.0866Y4.1929
X2.0866Y3.3858
X2.126Y4.3307
X2.1457Y4.2126
X2.1457Y4.1339
X2.1752Y4.7047
X2.2343Y4.498
X2.2835Y3.9764
X2.3622Y4.2224
X2.3622Y3.7402
X2.3622Y3.1496
X2.3622Y2.3622
X2.3622Y1.5748
X2.3622Y0.7874
X2.5098Y4.0748
X2.5984Y3.9764
X2.7559Y4.4291
X2.7559Y3.7402
X2.7953Y4.2913
X2.8346Y4.5276
X2.9528Y2.7559
X2.9528Y2.3622
X2.9528Y1.9685
X2.9528Y1.5748
X2.9528Y1.1811
X2.9528Y0.7874
X2.9528Y0.7874
X2.9528Y0.3937
X3.1496Y4.7244
X3.1496Y4.3307
X3.1496Y3.937
X3.1496Y3.5433
T2
X0.2953Y4.3701
X0.315Y3.0906
X0.6103Y4.1633
X0.6496Y4.3504
X0.7677Y4.0354
X0.8071Y4.5079
X0.8268Y4.1142
X0.8661Y4.0354
X0.9449Y3.6614
X1.063Y4.4291
X1.9291Y4.1732
X2.2441Y4.4291
X2.4213Y4.3504
T3
X0.4772Y4.6658
X0.4772Y3.4658
X0.5772Y4.6658
X0.5772Y3.4658
X0.6772Y4.6658
X0.6772Y3.4658
X0.7772Y4.6658
X0.7772Y3.4658
X0.8772Y4.6658
X0.8772Y3.4658
X1.4339Y4.6658
X1.4339Y3.4658
X1.5339Y4.6658
X1.5339Y3.4658
X1.6339Y4.6658
X1.6339Y3.4658
X1.7339Y4.6658
X1.7339Y3.4658
X1.8339Y4.6658
X1.8339Y3.4658
X2.3906Y4.6658
X2.3906Y3.4658
X2.4906Y4.6658
X2.4906Y3.4658
X2.5906Y4.6658
X2.5906Y3.4658
X2.6906Y4.6658
X2.6906Y3.4658
X2.7906Y4.6658
X2.7906Y3.4658
T4
X0.1575Y2.8362
X0.1575Y2.7362
X0.1575Y2.6362
X0.2575Y2.8362
X0.2575Y2.7362
X0.2575Y2.6362
T5
X0.6693Y2.874
X0.6693Y2.6969
X0.6693Y2.0866
X0.6693Y1.9094
X0.6693Y1.2992
X0.6693Y1.122
X0.6693Y0.5118
X0.6693Y0.3346
X0.9252Y2.874
X0.9252Y2.6969
X0.9252Y2.0866
X0.9252Y1.9094
X0.9252Y1.2992
X0.9252Y1.122
X0.9252Y0.5118
X0.9252Y0.3346
X1.4567Y2.874
X1.4567Y2.6969
X1.4567Y2.0866
X1.4567Y1.9094
X1.4567Y1.2992
X1.4567Y1.122
X1.4567Y0.5118
X1.4567Y0.3346
X1.7126Y2.874
X1.7126Y2.6969
X1.7126Y2.0866
X1.7126Y1.9094
X1.7126Y1.2992
X1.7126Y1.122
X1.7126Y0.5118
X1.7126Y0.3346
X2.2441Y2.874
X2.2441Y2.6969
X2.2441Y2.0866
X2.2441Y1.9094
X2.2441Y1.2992
X2.2441Y1.122
X2.2441Y0.5118
X2.2441Y0.3346
X2.5Y2.874
X2.5Y2.6969
X2.5Y2.0866
X2.5Y1.9094
X2.5Y1.2992
X2.5Y1.122
X2.5Y0.5118
X2.5Y0.3346
T6
X1.9734Y4.998
X2.2785Y4.998
T7
X1.9793Y4.8484
X2.2726Y4.8484
T8
X2.0276Y4.8898
X2.2244Y4.8898
T9
X0.1181Y4.9409
X0.1181Y3.2283
X0.1181Y0.1181
X3.0709Y4.9409
X3.0709Y3.2087
X3.0709Y0.1181
T0
M30
