%TF.GenerationSoftware,KiCad,Pcbnew,5.1.9-73d0e3b20d~88~ubuntu20.04.1*%
%TF.CreationDate,2021-01-19T11:15:14+01:00*%
%TF.ProjectId,luncheonmeat,6c756e63-6865-46f6-9e6d-6561742e6b69,v0.2.4*%
%TF.SameCoordinates,PX4fa1be0PYb80f240*%
%TF.FileFunction,Legend,Bot*%
%TF.FilePolarity,Positive*%
%FSLAX46Y46*%
G04 Gerber Fmt 4.6, Leading zero omitted, Abs format (unit mm)*
G04 Created by KiCad (PCBNEW 5.1.9-73d0e3b20d~88~ubuntu20.04.1) date 2021-01-19 11:15:14*
%MOMM*%
%LPD*%
G01*
G04 APERTURE LIST*
%ADD10C,0.150000*%
%ADD11C,0.500000*%
%ADD12C,0.010000*%
%ADD13C,2.000000*%
%ADD14C,0.800000*%
%ADD15C,1.800000*%
%ADD16C,1.700000*%
%ADD17C,3.200000*%
%ADD18C,1.524000*%
G04 APERTURE END LIST*
D10*
X51553333Y16724286D02*
X51315238Y16057620D01*
X51077142Y16724286D01*
X50505714Y17057620D02*
X50410476Y17057620D01*
X50315238Y17010000D01*
X50267619Y16962381D01*
X50220000Y16867143D01*
X50172380Y16676667D01*
X50172380Y16438572D01*
X50220000Y16248096D01*
X50267619Y16152858D01*
X50315238Y16105239D01*
X50410476Y16057620D01*
X50505714Y16057620D01*
X50600952Y16105239D01*
X50648571Y16152858D01*
X50696190Y16248096D01*
X50743809Y16438572D01*
X50743809Y16676667D01*
X50696190Y16867143D01*
X50648571Y16962381D01*
X50600952Y17010000D01*
X50505714Y17057620D01*
X49743809Y16152858D02*
X49696190Y16105239D01*
X49743809Y16057620D01*
X49791428Y16105239D01*
X49743809Y16152858D01*
X49743809Y16057620D01*
X49315238Y16962381D02*
X49267619Y17010000D01*
X49172380Y17057620D01*
X48934285Y17057620D01*
X48839047Y17010000D01*
X48791428Y16962381D01*
X48743809Y16867143D01*
X48743809Y16771905D01*
X48791428Y16629048D01*
X49362857Y16057620D01*
X48743809Y16057620D01*
X48315238Y16152858D02*
X48267619Y16105239D01*
X48315238Y16057620D01*
X48362857Y16105239D01*
X48315238Y16152858D01*
X48315238Y16057620D01*
X47410476Y16724286D02*
X47410476Y16057620D01*
X47648571Y17105239D02*
X47886666Y16390953D01*
X47267619Y16390953D01*
X46839047Y16105239D02*
X46839047Y16057620D01*
X46886666Y15962381D01*
X46934285Y15914762D01*
X45362857Y17057620D02*
X45362857Y16343334D01*
X45410476Y16200477D01*
X45505714Y16105239D01*
X45648571Y16057620D01*
X45743809Y16057620D01*
X44458095Y16057620D02*
X44458095Y16581429D01*
X44505714Y16676667D01*
X44600952Y16724286D01*
X44791428Y16724286D01*
X44886666Y16676667D01*
X44458095Y16105239D02*
X44553333Y16057620D01*
X44791428Y16057620D01*
X44886666Y16105239D01*
X44934285Y16200477D01*
X44934285Y16295715D01*
X44886666Y16390953D01*
X44791428Y16438572D01*
X44553333Y16438572D01*
X44458095Y16486191D01*
X43981904Y16724286D02*
X43981904Y16057620D01*
X43981904Y16629048D02*
X43934285Y16676667D01*
X43839047Y16724286D01*
X43696190Y16724286D01*
X43600952Y16676667D01*
X43553333Y16581429D01*
X43553333Y16057620D01*
X42362857Y16962381D02*
X42315238Y17010000D01*
X42220000Y17057620D01*
X41981904Y17057620D01*
X41886666Y17010000D01*
X41839047Y16962381D01*
X41791428Y16867143D01*
X41791428Y16771905D01*
X41839047Y16629048D01*
X42410476Y16057620D01*
X41791428Y16057620D01*
X41172380Y17057620D02*
X41077142Y17057620D01*
X40981904Y17010000D01*
X40934285Y16962381D01*
X40886666Y16867143D01*
X40839047Y16676667D01*
X40839047Y16438572D01*
X40886666Y16248096D01*
X40934285Y16152858D01*
X40981904Y16105239D01*
X41077142Y16057620D01*
X41172380Y16057620D01*
X41267619Y16105239D01*
X41315238Y16152858D01*
X41362857Y16248096D01*
X41410476Y16438572D01*
X41410476Y16676667D01*
X41362857Y16867143D01*
X41315238Y16962381D01*
X41267619Y17010000D01*
X41172380Y17057620D01*
X40458095Y16962381D02*
X40410476Y17010000D01*
X40315238Y17057620D01*
X40077142Y17057620D01*
X39981904Y17010000D01*
X39934285Y16962381D01*
X39886666Y16867143D01*
X39886666Y16771905D01*
X39934285Y16629048D01*
X40505714Y16057620D01*
X39886666Y16057620D01*
X38934285Y16057620D02*
X39505714Y16057620D01*
X39220000Y16057620D02*
X39220000Y17057620D01*
X39315238Y16914762D01*
X39410476Y16819524D01*
X39505714Y16771905D01*
D11*
X50258571Y18962858D02*
X51687142Y18962858D01*
X51687142Y21962858D01*
X47972857Y20962858D02*
X47972857Y18962858D01*
X49258571Y20962858D02*
X49258571Y19391429D01*
X49115714Y19105715D01*
X48830000Y18962858D01*
X48401428Y18962858D01*
X48115714Y19105715D01*
X47972857Y19248572D01*
X46544285Y20962858D02*
X46544285Y18962858D01*
X46544285Y20677143D02*
X46401428Y20820000D01*
X46115714Y20962858D01*
X45687142Y20962858D01*
X45401428Y20820000D01*
X45258571Y20534286D01*
X45258571Y18962858D01*
X42544285Y19105715D02*
X42830000Y18962858D01*
X43401428Y18962858D01*
X43687142Y19105715D01*
X43830000Y19248572D01*
X43972857Y19534286D01*
X43972857Y20391429D01*
X43830000Y20677143D01*
X43687142Y20820000D01*
X43401428Y20962858D01*
X42830000Y20962858D01*
X42544285Y20820000D01*
X41258571Y18962858D02*
X41258571Y21962858D01*
X39972857Y18962858D02*
X39972857Y20534286D01*
X40115714Y20820000D01*
X40401428Y20962858D01*
X40830000Y20962858D01*
X41115714Y20820000D01*
X41258571Y20677143D01*
X37401428Y19105715D02*
X37687142Y18962858D01*
X38258571Y18962858D01*
X38544285Y19105715D01*
X38687142Y19391429D01*
X38687142Y20534286D01*
X38544285Y20820000D01*
X38258571Y20962858D01*
X37687142Y20962858D01*
X37401428Y20820000D01*
X37258571Y20534286D01*
X37258571Y20248572D01*
X38687142Y19962858D01*
X35544285Y18962858D02*
X35830000Y19105715D01*
X35972857Y19248572D01*
X36115714Y19534286D01*
X36115714Y20391429D01*
X35972857Y20677143D01*
X35830000Y20820000D01*
X35544285Y20962858D01*
X35115714Y20962858D01*
X34830000Y20820000D01*
X34687142Y20677143D01*
X34544285Y20391429D01*
X34544285Y19534286D01*
X34687142Y19248572D01*
X34830000Y19105715D01*
X35115714Y18962858D01*
X35544285Y18962858D01*
X33258571Y20962858D02*
X33258571Y18962858D01*
X33258571Y20677143D02*
X33115714Y20820000D01*
X32830000Y20962858D01*
X32401428Y20962858D01*
X32115714Y20820000D01*
X31972857Y20534286D01*
X31972857Y18962858D01*
X30544285Y18962858D02*
X30544285Y20962858D01*
X30544285Y20677143D02*
X30401428Y20820000D01*
X30115714Y20962858D01*
X29687142Y20962858D01*
X29401428Y20820000D01*
X29258571Y20534286D01*
X29258571Y18962858D01*
X29258571Y20534286D02*
X29115714Y20820000D01*
X28830000Y20962858D01*
X28401428Y20962858D01*
X28115714Y20820000D01*
X27972857Y20534286D01*
X27972857Y18962858D01*
X25401428Y19105715D02*
X25687142Y18962858D01*
X26258571Y18962858D01*
X26544285Y19105715D01*
X26687142Y19391429D01*
X26687142Y20534286D01*
X26544285Y20820000D01*
X26258571Y20962858D01*
X25687142Y20962858D01*
X25401428Y20820000D01*
X25258571Y20534286D01*
X25258571Y20248572D01*
X26687142Y19962858D01*
X22687142Y18962858D02*
X22687142Y20534286D01*
X22830000Y20820000D01*
X23115714Y20962858D01*
X23687142Y20962858D01*
X23972857Y20820000D01*
X22687142Y19105715D02*
X22972857Y18962858D01*
X23687142Y18962858D01*
X23972857Y19105715D01*
X24115714Y19391429D01*
X24115714Y19677143D01*
X23972857Y19962858D01*
X23687142Y20105715D01*
X22972857Y20105715D01*
X22687142Y20248572D01*
X21687142Y20962858D02*
X20544285Y20962858D01*
X21258571Y21962858D02*
X21258571Y19391429D01*
X21115714Y19105715D01*
X20830000Y18962858D01*
X20544285Y18962858D01*
D12*
%TO.C,REF\u002A\u002A*%
G36*
X60696400Y6320946D02*
G01*
X60685535Y6207007D01*
X60653918Y6099384D01*
X60603015Y6000385D01*
X60534293Y5912316D01*
X60449219Y5837484D01*
X60352232Y5779616D01*
X60245964Y5739995D01*
X60138950Y5721427D01*
X60033300Y5722566D01*
X59931125Y5742070D01*
X59834534Y5778594D01*
X59745638Y5830795D01*
X59666546Y5897327D01*
X59599369Y5976848D01*
X59546217Y6068013D01*
X59509199Y6169477D01*
X59490427Y6279898D01*
X59488489Y6329794D01*
X59488489Y6417733D01*
X59436560Y6417733D01*
X59400253Y6414889D01*
X59373355Y6403089D01*
X59346249Y6379351D01*
X59307867Y6340969D01*
X59307867Y4149398D01*
X59307876Y3887261D01*
X59307908Y3646759D01*
X59307972Y3426952D01*
X59308076Y3226899D01*
X59308227Y3045656D01*
X59308434Y2882284D01*
X59308706Y2735840D01*
X59309050Y2605383D01*
X59309474Y2489971D01*
X59309987Y2388662D01*
X59310597Y2300516D01*
X59311312Y2224590D01*
X59312140Y2159943D01*
X59313089Y2105633D01*
X59314167Y2060720D01*
X59315383Y2024260D01*
X59316745Y1995313D01*
X59318261Y1972937D01*
X59319938Y1956191D01*
X59321786Y1944132D01*
X59323813Y1935820D01*
X59326025Y1930313D01*
X59327108Y1928463D01*
X59331271Y1921451D01*
X59334805Y1915004D01*
X59338635Y1909100D01*
X59343682Y1903714D01*
X59350871Y1898822D01*
X59361123Y1894402D01*
X59375364Y1890428D01*
X59394514Y1886879D01*
X59419499Y1883730D01*
X59451240Y1880958D01*
X59490662Y1878539D01*
X59538686Y1876449D01*
X59596237Y1874665D01*
X59664237Y1873163D01*
X59743610Y1871920D01*
X59835279Y1870911D01*
X59940166Y1870115D01*
X60059196Y1869506D01*
X60193290Y1869061D01*
X60343373Y1868757D01*
X60510367Y1868570D01*
X60695196Y1868476D01*
X60898783Y1868452D01*
X61122050Y1868475D01*
X61365922Y1868520D01*
X61631321Y1868563D01*
X61669704Y1868568D01*
X61936682Y1868611D01*
X62182002Y1868682D01*
X62406583Y1868787D01*
X62611345Y1868934D01*
X62797206Y1869131D01*
X62965088Y1869384D01*
X63115908Y1869700D01*
X63250587Y1870087D01*
X63370044Y1870553D01*
X63475199Y1871103D01*
X63566971Y1871747D01*
X63646279Y1872489D01*
X63714043Y1873339D01*
X63771182Y1874303D01*
X63818617Y1875389D01*
X63857266Y1876603D01*
X63888049Y1877953D01*
X63911885Y1879445D01*
X63929694Y1881089D01*
X63942395Y1882889D01*
X63950908Y1884855D01*
X63955266Y1886523D01*
X63963728Y1890094D01*
X63971497Y1892730D01*
X63978602Y1895366D01*
X63985073Y1898938D01*
X63990939Y1904379D01*
X63996229Y1912625D01*
X64000974Y1924610D01*
X64005202Y1941269D01*
X64008943Y1963537D01*
X64012227Y1992348D01*
X64015083Y2028637D01*
X64017540Y2073339D01*
X64019629Y2127389D01*
X64021378Y2191721D01*
X64022817Y2267270D01*
X64023976Y2354970D01*
X64024883Y2455757D01*
X64025569Y2570566D01*
X64026063Y2700330D01*
X64026395Y2845985D01*
X64026593Y3008465D01*
X64026687Y3188705D01*
X64026708Y3387640D01*
X64026685Y3606204D01*
X64026646Y3845332D01*
X64026622Y4105960D01*
X64026622Y4148111D01*
X64026636Y4411008D01*
X64026661Y4652268D01*
X64026671Y4872835D01*
X64026642Y5073648D01*
X64026548Y5255651D01*
X64026362Y5419784D01*
X64026059Y5566989D01*
X64025614Y5698208D01*
X64025034Y5808133D01*
X63722197Y5808133D01*
X63682407Y5750289D01*
X63671236Y5734521D01*
X63661166Y5720559D01*
X63652138Y5707216D01*
X63644097Y5693307D01*
X63636986Y5677644D01*
X63630747Y5659042D01*
X63625325Y5636314D01*
X63620662Y5608273D01*
X63616701Y5573733D01*
X63613385Y5531508D01*
X63610659Y5480411D01*
X63608464Y5419256D01*
X63606745Y5346856D01*
X63605444Y5262025D01*
X63604505Y5163578D01*
X63603870Y5050326D01*
X63603484Y4921084D01*
X63603288Y4774666D01*
X63603227Y4609884D01*
X63603243Y4425553D01*
X63603280Y4220487D01*
X63603289Y4097867D01*
X63603265Y3880918D01*
X63603231Y3685358D01*
X63603243Y3510001D01*
X63603358Y3353659D01*
X63603630Y3215143D01*
X63604118Y3093266D01*
X63604876Y2986840D01*
X63605962Y2894678D01*
X63607431Y2815591D01*
X63609340Y2748392D01*
X63611744Y2691893D01*
X63614701Y2644907D01*
X63618266Y2606245D01*
X63622495Y2574720D01*
X63627446Y2549145D01*
X63633173Y2528330D01*
X63639733Y2511089D01*
X63647183Y2496235D01*
X63655579Y2482578D01*
X63664976Y2468931D01*
X63675432Y2454107D01*
X63681523Y2445217D01*
X63720296Y2387600D01*
X63188732Y2387600D01*
X63065483Y2387635D01*
X62962987Y2387785D01*
X62879420Y2388122D01*
X62812956Y2388714D01*
X62761771Y2389633D01*
X62724041Y2390949D01*
X62697940Y2392731D01*
X62681644Y2395049D01*
X62673328Y2397974D01*
X62671168Y2401576D01*
X62673339Y2405925D01*
X62674535Y2407355D01*
X62699685Y2444427D01*
X62725583Y2497228D01*
X62749192Y2559230D01*
X62757461Y2585643D01*
X62762078Y2603584D01*
X62765979Y2624645D01*
X62769248Y2650911D01*
X62771966Y2684468D01*
X62774215Y2727401D01*
X62776077Y2781796D01*
X62777636Y2849738D01*
X62778972Y2933312D01*
X62780169Y3034605D01*
X62781308Y3155700D01*
X62781685Y3200400D01*
X62782702Y3325551D01*
X62783460Y3429918D01*
X62783903Y3515293D01*
X62783970Y3583467D01*
X62783605Y3636235D01*
X62782748Y3675386D01*
X62781341Y3702715D01*
X62779325Y3720014D01*
X62776643Y3729074D01*
X62773236Y3731688D01*
X62769044Y3729649D01*
X62764571Y3725333D01*
X62754216Y3712398D01*
X62732158Y3683324D01*
X62699957Y3640241D01*
X62659174Y3585282D01*
X62611370Y3520577D01*
X62558105Y3448258D01*
X62500940Y3370456D01*
X62441437Y3289302D01*
X62381155Y3206928D01*
X62321655Y3125464D01*
X62264498Y3047043D01*
X62211245Y2973796D01*
X62163457Y2907853D01*
X62122693Y2851346D01*
X62090516Y2806407D01*
X62068485Y2775166D01*
X62063917Y2768534D01*
X62040996Y2731631D01*
X62014188Y2683641D01*
X61988789Y2634103D01*
X61985568Y2627423D01*
X61963890Y2579228D01*
X61951304Y2541666D01*
X61945574Y2505840D01*
X61944456Y2463800D01*
X61945090Y2387600D01*
X60790651Y2387600D01*
X60881815Y2481331D01*
X60928612Y2531225D01*
X60978899Y2587705D01*
X61024944Y2641974D01*
X61045369Y2667327D01*
X61075807Y2706872D01*
X61115862Y2760084D01*
X61164361Y2825333D01*
X61220135Y2900989D01*
X61282011Y2985423D01*
X61348819Y3077006D01*
X61419387Y3174108D01*
X61492545Y3275099D01*
X61567121Y3378350D01*
X61641944Y3482232D01*
X61715843Y3585115D01*
X61787646Y3685369D01*
X61856184Y3781364D01*
X61920284Y3871473D01*
X61978775Y3954064D01*
X62030486Y4027508D01*
X62074247Y4090176D01*
X62108885Y4140439D01*
X62133230Y4176666D01*
X62146111Y4197229D01*
X62147869Y4201332D01*
X62139910Y4212658D01*
X62119115Y4239838D01*
X62086847Y4281171D01*
X62044470Y4334956D01*
X61993347Y4399494D01*
X61934841Y4473082D01*
X61870314Y4554022D01*
X61801131Y4640612D01*
X61728653Y4731152D01*
X61654246Y4823940D01*
X61594517Y4898298D01*
X60583511Y4898298D01*
X60577602Y4885341D01*
X60563272Y4863092D01*
X60562225Y4861609D01*
X60543438Y4831456D01*
X60523791Y4794625D01*
X60519892Y4786489D01*
X60516356Y4778060D01*
X60513230Y4767941D01*
X60510486Y4754740D01*
X60508092Y4737062D01*
X60506019Y4713516D01*
X60504235Y4682707D01*
X60502712Y4643243D01*
X60501419Y4593731D01*
X60500326Y4532777D01*
X60499403Y4458989D01*
X60498619Y4370972D01*
X60497945Y4267335D01*
X60497350Y4146684D01*
X60496805Y4007626D01*
X60496279Y3848768D01*
X60495745Y3669911D01*
X60495206Y3484793D01*
X60494772Y3320855D01*
X60494509Y3176697D01*
X60494484Y3050921D01*
X60494765Y2942129D01*
X60495419Y2848923D01*
X60496514Y2769903D01*
X60498118Y2703672D01*
X60500297Y2648830D01*
X60503119Y2603979D01*
X60506651Y2567722D01*
X60510961Y2538659D01*
X60516117Y2515391D01*
X60522185Y2496521D01*
X60529233Y2480649D01*
X60537329Y2466378D01*
X60546540Y2452309D01*
X60555040Y2439842D01*
X60572176Y2413548D01*
X60582322Y2395963D01*
X60583511Y2392743D01*
X60572604Y2391666D01*
X60541411Y2390665D01*
X60492223Y2389765D01*
X60427333Y2388990D01*
X60349030Y2388363D01*
X60259607Y2387909D01*
X60161356Y2387651D01*
X60092445Y2387600D01*
X59987452Y2387820D01*
X59890610Y2388452D01*
X59804107Y2389451D01*
X59730132Y2390773D01*
X59670874Y2392374D01*
X59628520Y2394209D01*
X59605260Y2396235D01*
X59601378Y2397507D01*
X59609076Y2412409D01*
X59617074Y2420440D01*
X59630246Y2437566D01*
X59647485Y2467817D01*
X59659407Y2492378D01*
X59686045Y2551289D01*
X59689120Y3728155D01*
X59692195Y4905022D01*
X60137853Y4905022D01*
X60235670Y4904858D01*
X60326064Y4904389D01*
X60406630Y4903653D01*
X60474962Y4902684D01*
X60528656Y4901520D01*
X60565305Y4900197D01*
X60582504Y4898751D01*
X60583511Y4898298D01*
X61594517Y4898298D01*
X61579270Y4917278D01*
X61505090Y5009463D01*
X61433069Y5098796D01*
X61364569Y5183576D01*
X61300955Y5262102D01*
X61243588Y5332674D01*
X61193833Y5393591D01*
X61153052Y5443153D01*
X61135888Y5463822D01*
X61049596Y5564484D01*
X60972997Y5647741D01*
X60904183Y5715562D01*
X60841248Y5769911D01*
X60831867Y5777278D01*
X60792356Y5807883D01*
X61924116Y5808133D01*
X61918827Y5760156D01*
X61922130Y5702812D01*
X61943661Y5634537D01*
X61983635Y5554788D01*
X62028943Y5482505D01*
X62045161Y5459860D01*
X62073214Y5422304D01*
X62111430Y5371979D01*
X62158137Y5311027D01*
X62211661Y5241589D01*
X62270331Y5165806D01*
X62332475Y5085820D01*
X62396421Y5003772D01*
X62460495Y4921804D01*
X62523027Y4842057D01*
X62582343Y4766673D01*
X62636771Y4697793D01*
X62684639Y4637558D01*
X62724275Y4588111D01*
X62754006Y4551592D01*
X62772161Y4530142D01*
X62775220Y4526844D01*
X62778079Y4534851D01*
X62780293Y4565145D01*
X62781857Y4617444D01*
X62782767Y4691469D01*
X62783020Y4786937D01*
X62782613Y4903566D01*
X62781704Y5023555D01*
X62780382Y5155667D01*
X62778857Y5267406D01*
X62776881Y5360975D01*
X62774206Y5438581D01*
X62770582Y5502426D01*
X62765761Y5554717D01*
X62759494Y5597656D01*
X62751532Y5633449D01*
X62741627Y5664300D01*
X62729531Y5692414D01*
X62714993Y5719995D01*
X62700311Y5745034D01*
X62662314Y5808133D01*
X63722197Y5808133D01*
X64025034Y5808133D01*
X64025001Y5814383D01*
X64024195Y5916456D01*
X64023170Y6005367D01*
X64021900Y6082059D01*
X64020360Y6147473D01*
X64018524Y6202551D01*
X64016367Y6248235D01*
X64013863Y6285466D01*
X64010987Y6315187D01*
X64007713Y6338338D01*
X64004015Y6355861D01*
X63999869Y6368699D01*
X63995247Y6377792D01*
X63990126Y6384082D01*
X63984478Y6388512D01*
X63978279Y6392022D01*
X63971504Y6395555D01*
X63965508Y6399124D01*
X63960275Y6401700D01*
X63952099Y6404028D01*
X63939886Y6406122D01*
X63922541Y6407993D01*
X63898969Y6409653D01*
X63868077Y6411116D01*
X63828768Y6412392D01*
X63779950Y6413496D01*
X63720527Y6414439D01*
X63649404Y6415233D01*
X63565488Y6415891D01*
X63467683Y6416425D01*
X63354894Y6416847D01*
X63226029Y6417171D01*
X63079991Y6417408D01*
X62915686Y6417570D01*
X62732020Y6417670D01*
X62527897Y6417720D01*
X62316753Y6417733D01*
X60696400Y6417733D01*
X60696400Y6320946D01*
G37*
X60696400Y6320946D02*
X60685535Y6207007D01*
X60653918Y6099384D01*
X60603015Y6000385D01*
X60534293Y5912316D01*
X60449219Y5837484D01*
X60352232Y5779616D01*
X60245964Y5739995D01*
X60138950Y5721427D01*
X60033300Y5722566D01*
X59931125Y5742070D01*
X59834534Y5778594D01*
X59745638Y5830795D01*
X59666546Y5897327D01*
X59599369Y5976848D01*
X59546217Y6068013D01*
X59509199Y6169477D01*
X59490427Y6279898D01*
X59488489Y6329794D01*
X59488489Y6417733D01*
X59436560Y6417733D01*
X59400253Y6414889D01*
X59373355Y6403089D01*
X59346249Y6379351D01*
X59307867Y6340969D01*
X59307867Y4149398D01*
X59307876Y3887261D01*
X59307908Y3646759D01*
X59307972Y3426952D01*
X59308076Y3226899D01*
X59308227Y3045656D01*
X59308434Y2882284D01*
X59308706Y2735840D01*
X59309050Y2605383D01*
X59309474Y2489971D01*
X59309987Y2388662D01*
X59310597Y2300516D01*
X59311312Y2224590D01*
X59312140Y2159943D01*
X59313089Y2105633D01*
X59314167Y2060720D01*
X59315383Y2024260D01*
X59316745Y1995313D01*
X59318261Y1972937D01*
X59319938Y1956191D01*
X59321786Y1944132D01*
X59323813Y1935820D01*
X59326025Y1930313D01*
X59327108Y1928463D01*
X59331271Y1921451D01*
X59334805Y1915004D01*
X59338635Y1909100D01*
X59343682Y1903714D01*
X59350871Y1898822D01*
X59361123Y1894402D01*
X59375364Y1890428D01*
X59394514Y1886879D01*
X59419499Y1883730D01*
X59451240Y1880958D01*
X59490662Y1878539D01*
X59538686Y1876449D01*
X59596237Y1874665D01*
X59664237Y1873163D01*
X59743610Y1871920D01*
X59835279Y1870911D01*
X59940166Y1870115D01*
X60059196Y1869506D01*
X60193290Y1869061D01*
X60343373Y1868757D01*
X60510367Y1868570D01*
X60695196Y1868476D01*
X60898783Y1868452D01*
X61122050Y1868475D01*
X61365922Y1868520D01*
X61631321Y1868563D01*
X61669704Y1868568D01*
X61936682Y1868611D01*
X62182002Y1868682D01*
X62406583Y1868787D01*
X62611345Y1868934D01*
X62797206Y1869131D01*
X62965088Y1869384D01*
X63115908Y1869700D01*
X63250587Y1870087D01*
X63370044Y1870553D01*
X63475199Y1871103D01*
X63566971Y1871747D01*
X63646279Y1872489D01*
X63714043Y1873339D01*
X63771182Y1874303D01*
X63818617Y1875389D01*
X63857266Y1876603D01*
X63888049Y1877953D01*
X63911885Y1879445D01*
X63929694Y1881089D01*
X63942395Y1882889D01*
X63950908Y1884855D01*
X63955266Y1886523D01*
X63963728Y1890094D01*
X63971497Y1892730D01*
X63978602Y1895366D01*
X63985073Y1898938D01*
X63990939Y1904379D01*
X63996229Y1912625D01*
X64000974Y1924610D01*
X64005202Y1941269D01*
X64008943Y1963537D01*
X64012227Y1992348D01*
X64015083Y2028637D01*
X64017540Y2073339D01*
X64019629Y2127389D01*
X64021378Y2191721D01*
X64022817Y2267270D01*
X64023976Y2354970D01*
X64024883Y2455757D01*
X64025569Y2570566D01*
X64026063Y2700330D01*
X64026395Y2845985D01*
X64026593Y3008465D01*
X64026687Y3188705D01*
X64026708Y3387640D01*
X64026685Y3606204D01*
X64026646Y3845332D01*
X64026622Y4105960D01*
X64026622Y4148111D01*
X64026636Y4411008D01*
X64026661Y4652268D01*
X64026671Y4872835D01*
X64026642Y5073648D01*
X64026548Y5255651D01*
X64026362Y5419784D01*
X64026059Y5566989D01*
X64025614Y5698208D01*
X64025034Y5808133D01*
X63722197Y5808133D01*
X63682407Y5750289D01*
X63671236Y5734521D01*
X63661166Y5720559D01*
X63652138Y5707216D01*
X63644097Y5693307D01*
X63636986Y5677644D01*
X63630747Y5659042D01*
X63625325Y5636314D01*
X63620662Y5608273D01*
X63616701Y5573733D01*
X63613385Y5531508D01*
X63610659Y5480411D01*
X63608464Y5419256D01*
X63606745Y5346856D01*
X63605444Y5262025D01*
X63604505Y5163578D01*
X63603870Y5050326D01*
X63603484Y4921084D01*
X63603288Y4774666D01*
X63603227Y4609884D01*
X63603243Y4425553D01*
X63603280Y4220487D01*
X63603289Y4097867D01*
X63603265Y3880918D01*
X63603231Y3685358D01*
X63603243Y3510001D01*
X63603358Y3353659D01*
X63603630Y3215143D01*
X63604118Y3093266D01*
X63604876Y2986840D01*
X63605962Y2894678D01*
X63607431Y2815591D01*
X63609340Y2748392D01*
X63611744Y2691893D01*
X63614701Y2644907D01*
X63618266Y2606245D01*
X63622495Y2574720D01*
X63627446Y2549145D01*
X63633173Y2528330D01*
X63639733Y2511089D01*
X63647183Y2496235D01*
X63655579Y2482578D01*
X63664976Y2468931D01*
X63675432Y2454107D01*
X63681523Y2445217D01*
X63720296Y2387600D01*
X63188732Y2387600D01*
X63065483Y2387635D01*
X62962987Y2387785D01*
X62879420Y2388122D01*
X62812956Y2388714D01*
X62761771Y2389633D01*
X62724041Y2390949D01*
X62697940Y2392731D01*
X62681644Y2395049D01*
X62673328Y2397974D01*
X62671168Y2401576D01*
X62673339Y2405925D01*
X62674535Y2407355D01*
X62699685Y2444427D01*
X62725583Y2497228D01*
X62749192Y2559230D01*
X62757461Y2585643D01*
X62762078Y2603584D01*
X62765979Y2624645D01*
X62769248Y2650911D01*
X62771966Y2684468D01*
X62774215Y2727401D01*
X62776077Y2781796D01*
X62777636Y2849738D01*
X62778972Y2933312D01*
X62780169Y3034605D01*
X62781308Y3155700D01*
X62781685Y3200400D01*
X62782702Y3325551D01*
X62783460Y3429918D01*
X62783903Y3515293D01*
X62783970Y3583467D01*
X62783605Y3636235D01*
X62782748Y3675386D01*
X62781341Y3702715D01*
X62779325Y3720014D01*
X62776643Y3729074D01*
X62773236Y3731688D01*
X62769044Y3729649D01*
X62764571Y3725333D01*
X62754216Y3712398D01*
X62732158Y3683324D01*
X62699957Y3640241D01*
X62659174Y3585282D01*
X62611370Y3520577D01*
X62558105Y3448258D01*
X62500940Y3370456D01*
X62441437Y3289302D01*
X62381155Y3206928D01*
X62321655Y3125464D01*
X62264498Y3047043D01*
X62211245Y2973796D01*
X62163457Y2907853D01*
X62122693Y2851346D01*
X62090516Y2806407D01*
X62068485Y2775166D01*
X62063917Y2768534D01*
X62040996Y2731631D01*
X62014188Y2683641D01*
X61988789Y2634103D01*
X61985568Y2627423D01*
X61963890Y2579228D01*
X61951304Y2541666D01*
X61945574Y2505840D01*
X61944456Y2463800D01*
X61945090Y2387600D01*
X60790651Y2387600D01*
X60881815Y2481331D01*
X60928612Y2531225D01*
X60978899Y2587705D01*
X61024944Y2641974D01*
X61045369Y2667327D01*
X61075807Y2706872D01*
X61115862Y2760084D01*
X61164361Y2825333D01*
X61220135Y2900989D01*
X61282011Y2985423D01*
X61348819Y3077006D01*
X61419387Y3174108D01*
X61492545Y3275099D01*
X61567121Y3378350D01*
X61641944Y3482232D01*
X61715843Y3585115D01*
X61787646Y3685369D01*
X61856184Y3781364D01*
X61920284Y3871473D01*
X61978775Y3954064D01*
X62030486Y4027508D01*
X62074247Y4090176D01*
X62108885Y4140439D01*
X62133230Y4176666D01*
X62146111Y4197229D01*
X62147869Y4201332D01*
X62139910Y4212658D01*
X62119115Y4239838D01*
X62086847Y4281171D01*
X62044470Y4334956D01*
X61993347Y4399494D01*
X61934841Y4473082D01*
X61870314Y4554022D01*
X61801131Y4640612D01*
X61728653Y4731152D01*
X61654246Y4823940D01*
X61594517Y4898298D01*
X60583511Y4898298D01*
X60577602Y4885341D01*
X60563272Y4863092D01*
X60562225Y4861609D01*
X60543438Y4831456D01*
X60523791Y4794625D01*
X60519892Y4786489D01*
X60516356Y4778060D01*
X60513230Y4767941D01*
X60510486Y4754740D01*
X60508092Y4737062D01*
X60506019Y4713516D01*
X60504235Y4682707D01*
X60502712Y4643243D01*
X60501419Y4593731D01*
X60500326Y4532777D01*
X60499403Y4458989D01*
X60498619Y4370972D01*
X60497945Y4267335D01*
X60497350Y4146684D01*
X60496805Y4007626D01*
X60496279Y3848768D01*
X60495745Y3669911D01*
X60495206Y3484793D01*
X60494772Y3320855D01*
X60494509Y3176697D01*
X60494484Y3050921D01*
X60494765Y2942129D01*
X60495419Y2848923D01*
X60496514Y2769903D01*
X60498118Y2703672D01*
X60500297Y2648830D01*
X60503119Y2603979D01*
X60506651Y2567722D01*
X60510961Y2538659D01*
X60516117Y2515391D01*
X60522185Y2496521D01*
X60529233Y2480649D01*
X60537329Y2466378D01*
X60546540Y2452309D01*
X60555040Y2439842D01*
X60572176Y2413548D01*
X60582322Y2395963D01*
X60583511Y2392743D01*
X60572604Y2391666D01*
X60541411Y2390665D01*
X60492223Y2389765D01*
X60427333Y2388990D01*
X60349030Y2388363D01*
X60259607Y2387909D01*
X60161356Y2387651D01*
X60092445Y2387600D01*
X59987452Y2387820D01*
X59890610Y2388452D01*
X59804107Y2389451D01*
X59730132Y2390773D01*
X59670874Y2392374D01*
X59628520Y2394209D01*
X59605260Y2396235D01*
X59601378Y2397507D01*
X59609076Y2412409D01*
X59617074Y2420440D01*
X59630246Y2437566D01*
X59647485Y2467817D01*
X59659407Y2492378D01*
X59686045Y2551289D01*
X59689120Y3728155D01*
X59692195Y4905022D01*
X60137853Y4905022D01*
X60235670Y4904858D01*
X60326064Y4904389D01*
X60406630Y4903653D01*
X60474962Y4902684D01*
X60528656Y4901520D01*
X60565305Y4900197D01*
X60582504Y4898751D01*
X60583511Y4898298D01*
X61594517Y4898298D01*
X61579270Y4917278D01*
X61505090Y5009463D01*
X61433069Y5098796D01*
X61364569Y5183576D01*
X61300955Y5262102D01*
X61243588Y5332674D01*
X61193833Y5393591D01*
X61153052Y5443153D01*
X61135888Y5463822D01*
X61049596Y5564484D01*
X60972997Y5647741D01*
X60904183Y5715562D01*
X60841248Y5769911D01*
X60831867Y5777278D01*
X60792356Y5807883D01*
X61924116Y5808133D01*
X61918827Y5760156D01*
X61922130Y5702812D01*
X61943661Y5634537D01*
X61983635Y5554788D01*
X62028943Y5482505D01*
X62045161Y5459860D01*
X62073214Y5422304D01*
X62111430Y5371979D01*
X62158137Y5311027D01*
X62211661Y5241589D01*
X62270331Y5165806D01*
X62332475Y5085820D01*
X62396421Y5003772D01*
X62460495Y4921804D01*
X62523027Y4842057D01*
X62582343Y4766673D01*
X62636771Y4697793D01*
X62684639Y4637558D01*
X62724275Y4588111D01*
X62754006Y4551592D01*
X62772161Y4530142D01*
X62775220Y4526844D01*
X62778079Y4534851D01*
X62780293Y4565145D01*
X62781857Y4617444D01*
X62782767Y4691469D01*
X62783020Y4786937D01*
X62782613Y4903566D01*
X62781704Y5023555D01*
X62780382Y5155667D01*
X62778857Y5267406D01*
X62776881Y5360975D01*
X62774206Y5438581D01*
X62770582Y5502426D01*
X62765761Y5554717D01*
X62759494Y5597656D01*
X62751532Y5633449D01*
X62741627Y5664300D01*
X62729531Y5692414D01*
X62714993Y5719995D01*
X62700311Y5745034D01*
X62662314Y5808133D01*
X63722197Y5808133D01*
X64025034Y5808133D01*
X64025001Y5814383D01*
X64024195Y5916456D01*
X64023170Y6005367D01*
X64021900Y6082059D01*
X64020360Y6147473D01*
X64018524Y6202551D01*
X64016367Y6248235D01*
X64013863Y6285466D01*
X64010987Y6315187D01*
X64007713Y6338338D01*
X64004015Y6355861D01*
X63999869Y6368699D01*
X63995247Y6377792D01*
X63990126Y6384082D01*
X63984478Y6388512D01*
X63978279Y6392022D01*
X63971504Y6395555D01*
X63965508Y6399124D01*
X63960275Y6401700D01*
X63952099Y6404028D01*
X63939886Y6406122D01*
X63922541Y6407993D01*
X63898969Y6409653D01*
X63868077Y6411116D01*
X63828768Y6412392D01*
X63779950Y6413496D01*
X63720527Y6414439D01*
X63649404Y6415233D01*
X63565488Y6415891D01*
X63467683Y6416425D01*
X63354894Y6416847D01*
X63226029Y6417171D01*
X63079991Y6417408D01*
X62915686Y6417570D01*
X62732020Y6417670D01*
X62527897Y6417720D01*
X62316753Y6417733D01*
X60696400Y6417733D01*
X60696400Y6320946D01*
G36*
X57421571Y5860929D02*
G01*
X57261430Y5839755D01*
X57097490Y5799615D01*
X56927687Y5740111D01*
X56749957Y5660846D01*
X56738690Y5655301D01*
X56680995Y5627275D01*
X56629448Y5603198D01*
X56587809Y5584751D01*
X56559838Y5573614D01*
X56550267Y5571067D01*
X56531050Y5566059D01*
X56526439Y5561853D01*
X56531542Y5551420D01*
X56547582Y5525132D01*
X56572712Y5485743D01*
X56605086Y5436009D01*
X56642857Y5378685D01*
X56684178Y5316524D01*
X56727202Y5252282D01*
X56770083Y5188715D01*
X56810974Y5128575D01*
X56848029Y5074620D01*
X56879400Y5029603D01*
X56903241Y4996279D01*
X56917706Y4977403D01*
X56919691Y4975213D01*
X56929809Y4979862D01*
X56952150Y4997038D01*
X56982720Y5023560D01*
X56998464Y5038036D01*
X57094953Y5113318D01*
X57201664Y5168759D01*
X57317168Y5203859D01*
X57440038Y5218120D01*
X57509439Y5216949D01*
X57630577Y5199788D01*
X57739795Y5163906D01*
X57837418Y5109041D01*
X57923772Y5034930D01*
X57999185Y4941312D01*
X58063982Y4827924D01*
X58101399Y4741333D01*
X58145252Y4605634D01*
X58177572Y4458150D01*
X58198443Y4302686D01*
X58207949Y4143044D01*
X58206173Y3983027D01*
X58193197Y3826439D01*
X58169106Y3677082D01*
X58133982Y3538760D01*
X58087908Y3415276D01*
X58071627Y3381022D01*
X58003380Y3266936D01*
X57922921Y3170443D01*
X57831430Y3092330D01*
X57730089Y3033383D01*
X57620080Y2994388D01*
X57502585Y2976132D01*
X57461117Y2974789D01*
X57339559Y2985710D01*
X57219122Y3018526D01*
X57101334Y3072561D01*
X56987723Y3147135D01*
X56896315Y3225461D01*
X56849785Y3269992D01*
X56668517Y2972729D01*
X56623420Y2898567D01*
X56582181Y2830354D01*
X56546265Y2770541D01*
X56517134Y2721580D01*
X56496250Y2685921D01*
X56485076Y2666016D01*
X56483625Y2662921D01*
X56491854Y2653282D01*
X56517433Y2636001D01*
X56557127Y2612717D01*
X56607703Y2585066D01*
X56665926Y2554685D01*
X56728563Y2523210D01*
X56792379Y2492278D01*
X56854140Y2463527D01*
X56910612Y2438592D01*
X56958562Y2419111D01*
X56982014Y2410682D01*
X57115779Y2372867D01*
X57253673Y2347864D01*
X57401378Y2334860D01*
X57528167Y2332532D01*
X57596122Y2333627D01*
X57661723Y2335725D01*
X57719153Y2338566D01*
X57762597Y2341894D01*
X57776702Y2343578D01*
X57915716Y2372413D01*
X58057243Y2417532D01*
X58194725Y2476250D01*
X58321606Y2545880D01*
X58399111Y2598559D01*
X58526519Y2706761D01*
X58644822Y2833329D01*
X58751828Y2975134D01*
X58845348Y3129049D01*
X58923190Y3291947D01*
X58967044Y3409244D01*
X59017292Y3592872D01*
X59050791Y3787419D01*
X59067551Y3988675D01*
X59067584Y4192432D01*
X59050899Y4394479D01*
X59017507Y4590608D01*
X58967420Y4776609D01*
X58963603Y4788197D01*
X58900719Y4950250D01*
X58823972Y5098168D01*
X58730758Y5236135D01*
X58618473Y5368339D01*
X58574608Y5413601D01*
X58438466Y5537543D01*
X58298509Y5640085D01*
X58152589Y5722344D01*
X57998558Y5785436D01*
X57834268Y5830477D01*
X57738711Y5847967D01*
X57579977Y5863534D01*
X57421571Y5860929D01*
G37*
X57421571Y5860929D02*
X57261430Y5839755D01*
X57097490Y5799615D01*
X56927687Y5740111D01*
X56749957Y5660846D01*
X56738690Y5655301D01*
X56680995Y5627275D01*
X56629448Y5603198D01*
X56587809Y5584751D01*
X56559838Y5573614D01*
X56550267Y5571067D01*
X56531050Y5566059D01*
X56526439Y5561853D01*
X56531542Y5551420D01*
X56547582Y5525132D01*
X56572712Y5485743D01*
X56605086Y5436009D01*
X56642857Y5378685D01*
X56684178Y5316524D01*
X56727202Y5252282D01*
X56770083Y5188715D01*
X56810974Y5128575D01*
X56848029Y5074620D01*
X56879400Y5029603D01*
X56903241Y4996279D01*
X56917706Y4977403D01*
X56919691Y4975213D01*
X56929809Y4979862D01*
X56952150Y4997038D01*
X56982720Y5023560D01*
X56998464Y5038036D01*
X57094953Y5113318D01*
X57201664Y5168759D01*
X57317168Y5203859D01*
X57440038Y5218120D01*
X57509439Y5216949D01*
X57630577Y5199788D01*
X57739795Y5163906D01*
X57837418Y5109041D01*
X57923772Y5034930D01*
X57999185Y4941312D01*
X58063982Y4827924D01*
X58101399Y4741333D01*
X58145252Y4605634D01*
X58177572Y4458150D01*
X58198443Y4302686D01*
X58207949Y4143044D01*
X58206173Y3983027D01*
X58193197Y3826439D01*
X58169106Y3677082D01*
X58133982Y3538760D01*
X58087908Y3415276D01*
X58071627Y3381022D01*
X58003380Y3266936D01*
X57922921Y3170443D01*
X57831430Y3092330D01*
X57730089Y3033383D01*
X57620080Y2994388D01*
X57502585Y2976132D01*
X57461117Y2974789D01*
X57339559Y2985710D01*
X57219122Y3018526D01*
X57101334Y3072561D01*
X56987723Y3147135D01*
X56896315Y3225461D01*
X56849785Y3269992D01*
X56668517Y2972729D01*
X56623420Y2898567D01*
X56582181Y2830354D01*
X56546265Y2770541D01*
X56517134Y2721580D01*
X56496250Y2685921D01*
X56485076Y2666016D01*
X56483625Y2662921D01*
X56491854Y2653282D01*
X56517433Y2636001D01*
X56557127Y2612717D01*
X56607703Y2585066D01*
X56665926Y2554685D01*
X56728563Y2523210D01*
X56792379Y2492278D01*
X56854140Y2463527D01*
X56910612Y2438592D01*
X56958562Y2419111D01*
X56982014Y2410682D01*
X57115779Y2372867D01*
X57253673Y2347864D01*
X57401378Y2334860D01*
X57528167Y2332532D01*
X57596122Y2333627D01*
X57661723Y2335725D01*
X57719153Y2338566D01*
X57762597Y2341894D01*
X57776702Y2343578D01*
X57915716Y2372413D01*
X58057243Y2417532D01*
X58194725Y2476250D01*
X58321606Y2545880D01*
X58399111Y2598559D01*
X58526519Y2706761D01*
X58644822Y2833329D01*
X58751828Y2975134D01*
X58845348Y3129049D01*
X58923190Y3291947D01*
X58967044Y3409244D01*
X59017292Y3592872D01*
X59050791Y3787419D01*
X59067551Y3988675D01*
X59067584Y4192432D01*
X59050899Y4394479D01*
X59017507Y4590608D01*
X58967420Y4776609D01*
X58963603Y4788197D01*
X58900719Y4950250D01*
X58823972Y5098168D01*
X58730758Y5236135D01*
X58618473Y5368339D01*
X58574608Y5413601D01*
X58438466Y5537543D01*
X58298509Y5640085D01*
X58152589Y5722344D01*
X57998558Y5785436D01*
X57834268Y5830477D01*
X57738711Y5847967D01*
X57579977Y5863534D01*
X57421571Y5860929D01*
G36*
X55076426Y4943448D02*
G01*
X54924508Y4923433D01*
X54789244Y4889798D01*
X54669761Y4842275D01*
X54565185Y4780595D01*
X54487576Y4717035D01*
X54418735Y4642901D01*
X54364994Y4563129D01*
X54322090Y4470909D01*
X54306616Y4427839D01*
X54293756Y4388858D01*
X54282554Y4352711D01*
X54272880Y4317566D01*
X54264604Y4281590D01*
X54257597Y4242950D01*
X54251728Y4199815D01*
X54246869Y4150351D01*
X54242890Y4092727D01*
X54239660Y4025109D01*
X54237051Y3945666D01*
X54234933Y3852564D01*
X54233176Y3743973D01*
X54231651Y3618058D01*
X54230228Y3472988D01*
X54228975Y3330222D01*
X54227649Y3174032D01*
X54226444Y3038761D01*
X54225234Y2922754D01*
X54223894Y2824355D01*
X54222300Y2741907D01*
X54220325Y2673754D01*
X54217844Y2618240D01*
X54214731Y2573708D01*
X54210862Y2538502D01*
X54206111Y2510966D01*
X54200352Y2489444D01*
X54193461Y2472278D01*
X54185311Y2457814D01*
X54175777Y2444394D01*
X54164734Y2430362D01*
X54160434Y2424929D01*
X54144614Y2402090D01*
X54137578Y2386537D01*
X54137556Y2386078D01*
X54148433Y2383879D01*
X54179418Y2381853D01*
X54228043Y2380058D01*
X54291837Y2378549D01*
X54368331Y2377384D01*
X54455056Y2376620D01*
X54549543Y2376314D01*
X54560450Y2376311D01*
X54983343Y2376311D01*
X54986605Y2472378D01*
X54989867Y2568444D01*
X55051956Y2517457D01*
X55149286Y2449943D01*
X55259187Y2395251D01*
X55345651Y2365022D01*
X55414722Y2350334D01*
X55498075Y2340341D01*
X55587841Y2335354D01*
X55676155Y2335687D01*
X55755149Y2341649D01*
X55791378Y2347362D01*
X55931397Y2385224D01*
X56057822Y2440068D01*
X56169740Y2511076D01*
X56266238Y2597432D01*
X56346400Y2698321D01*
X56409313Y2812924D01*
X56453688Y2939016D01*
X56466022Y2995599D01*
X56473632Y3057798D01*
X56477261Y3132637D01*
X56477755Y3166533D01*
X56477690Y3169718D01*
X55717752Y3169718D01*
X55708459Y3094667D01*
X55680272Y3030840D01*
X55631803Y2975202D01*
X55626746Y2970789D01*
X55578452Y2935963D01*
X55526743Y2913380D01*
X55466011Y2901460D01*
X55390648Y2898617D01*
X55372541Y2899022D01*
X55318722Y2901675D01*
X55278692Y2907091D01*
X55243676Y2917255D01*
X55204897Y2934150D01*
X55194255Y2939328D01*
X55133604Y2975156D01*
X55086785Y3017788D01*
X55074048Y3033027D01*
X55029378Y3089538D01*
X55029378Y3285414D01*
X55029914Y3364061D01*
X55031604Y3422012D01*
X55034572Y3461125D01*
X55038943Y3483259D01*
X55043028Y3489726D01*
X55058953Y3492889D01*
X55092736Y3495512D01*
X55139660Y3497345D01*
X55195007Y3498143D01*
X55203894Y3498158D01*
X55324670Y3492904D01*
X55427340Y3476737D01*
X55513894Y3449039D01*
X55586319Y3409192D01*
X55641249Y3362242D01*
X55685796Y3304355D01*
X55710520Y3241307D01*
X55717752Y3169718D01*
X56477690Y3169718D01*
X56475822Y3260288D01*
X56467478Y3339188D01*
X56451232Y3410410D01*
X56425595Y3481136D01*
X56401599Y3533507D01*
X56342980Y3628804D01*
X56264883Y3716830D01*
X56169685Y3795983D01*
X56059762Y3864660D01*
X55937490Y3921259D01*
X55805245Y3964179D01*
X55740578Y3979118D01*
X55604396Y4001223D01*
X55455951Y4015806D01*
X55304495Y4022187D01*
X55177936Y4020555D01*
X55016050Y4013776D01*
X55023470Y4072755D01*
X55042762Y4171908D01*
X55073896Y4252628D01*
X55117731Y4315534D01*
X55175129Y4361244D01*
X55246952Y4390378D01*
X55334059Y4403553D01*
X55437314Y4401389D01*
X55475289Y4397388D01*
X55616480Y4372220D01*
X55753293Y4331186D01*
X55847822Y4293185D01*
X55892982Y4273810D01*
X55931415Y4258240D01*
X55957766Y4248595D01*
X55965454Y4246548D01*
X55975198Y4255626D01*
X55991917Y4284595D01*
X56015768Y4333783D01*
X56046907Y4403516D01*
X56085493Y4494121D01*
X56092090Y4509911D01*
X56122147Y4582228D01*
X56149126Y4647575D01*
X56171864Y4703094D01*
X56189194Y4745928D01*
X56199952Y4773219D01*
X56203059Y4782058D01*
X56193060Y4786813D01*
X56166783Y4792090D01*
X56138511Y4795769D01*
X56108354Y4800526D01*
X56060567Y4809972D01*
X55999388Y4823180D01*
X55929054Y4839224D01*
X55853806Y4857180D01*
X55825245Y4864203D01*
X55720184Y4889791D01*
X55632520Y4909853D01*
X55557932Y4925031D01*
X55492097Y4935965D01*
X55430693Y4943296D01*
X55369398Y4947665D01*
X55303890Y4949713D01*
X55245872Y4950111D01*
X55076426Y4943448D01*
G37*
X55076426Y4943448D02*
X54924508Y4923433D01*
X54789244Y4889798D01*
X54669761Y4842275D01*
X54565185Y4780595D01*
X54487576Y4717035D01*
X54418735Y4642901D01*
X54364994Y4563129D01*
X54322090Y4470909D01*
X54306616Y4427839D01*
X54293756Y4388858D01*
X54282554Y4352711D01*
X54272880Y4317566D01*
X54264604Y4281590D01*
X54257597Y4242950D01*
X54251728Y4199815D01*
X54246869Y4150351D01*
X54242890Y4092727D01*
X54239660Y4025109D01*
X54237051Y3945666D01*
X54234933Y3852564D01*
X54233176Y3743973D01*
X54231651Y3618058D01*
X54230228Y3472988D01*
X54228975Y3330222D01*
X54227649Y3174032D01*
X54226444Y3038761D01*
X54225234Y2922754D01*
X54223894Y2824355D01*
X54222300Y2741907D01*
X54220325Y2673754D01*
X54217844Y2618240D01*
X54214731Y2573708D01*
X54210862Y2538502D01*
X54206111Y2510966D01*
X54200352Y2489444D01*
X54193461Y2472278D01*
X54185311Y2457814D01*
X54175777Y2444394D01*
X54164734Y2430362D01*
X54160434Y2424929D01*
X54144614Y2402090D01*
X54137578Y2386537D01*
X54137556Y2386078D01*
X54148433Y2383879D01*
X54179418Y2381853D01*
X54228043Y2380058D01*
X54291837Y2378549D01*
X54368331Y2377384D01*
X54455056Y2376620D01*
X54549543Y2376314D01*
X54560450Y2376311D01*
X54983343Y2376311D01*
X54986605Y2472378D01*
X54989867Y2568444D01*
X55051956Y2517457D01*
X55149286Y2449943D01*
X55259187Y2395251D01*
X55345651Y2365022D01*
X55414722Y2350334D01*
X55498075Y2340341D01*
X55587841Y2335354D01*
X55676155Y2335687D01*
X55755149Y2341649D01*
X55791378Y2347362D01*
X55931397Y2385224D01*
X56057822Y2440068D01*
X56169740Y2511076D01*
X56266238Y2597432D01*
X56346400Y2698321D01*
X56409313Y2812924D01*
X56453688Y2939016D01*
X56466022Y2995599D01*
X56473632Y3057798D01*
X56477261Y3132637D01*
X56477755Y3166533D01*
X56477690Y3169718D01*
X55717752Y3169718D01*
X55708459Y3094667D01*
X55680272Y3030840D01*
X55631803Y2975202D01*
X55626746Y2970789D01*
X55578452Y2935963D01*
X55526743Y2913380D01*
X55466011Y2901460D01*
X55390648Y2898617D01*
X55372541Y2899022D01*
X55318722Y2901675D01*
X55278692Y2907091D01*
X55243676Y2917255D01*
X55204897Y2934150D01*
X55194255Y2939328D01*
X55133604Y2975156D01*
X55086785Y3017788D01*
X55074048Y3033027D01*
X55029378Y3089538D01*
X55029378Y3285414D01*
X55029914Y3364061D01*
X55031604Y3422012D01*
X55034572Y3461125D01*
X55038943Y3483259D01*
X55043028Y3489726D01*
X55058953Y3492889D01*
X55092736Y3495512D01*
X55139660Y3497345D01*
X55195007Y3498143D01*
X55203894Y3498158D01*
X55324670Y3492904D01*
X55427340Y3476737D01*
X55513894Y3449039D01*
X55586319Y3409192D01*
X55641249Y3362242D01*
X55685796Y3304355D01*
X55710520Y3241307D01*
X55717752Y3169718D01*
X56477690Y3169718D01*
X56475822Y3260288D01*
X56467478Y3339188D01*
X56451232Y3410410D01*
X56425595Y3481136D01*
X56401599Y3533507D01*
X56342980Y3628804D01*
X56264883Y3716830D01*
X56169685Y3795983D01*
X56059762Y3864660D01*
X55937490Y3921259D01*
X55805245Y3964179D01*
X55740578Y3979118D01*
X55604396Y4001223D01*
X55455951Y4015806D01*
X55304495Y4022187D01*
X55177936Y4020555D01*
X55016050Y4013776D01*
X55023470Y4072755D01*
X55042762Y4171908D01*
X55073896Y4252628D01*
X55117731Y4315534D01*
X55175129Y4361244D01*
X55246952Y4390378D01*
X55334059Y4403553D01*
X55437314Y4401389D01*
X55475289Y4397388D01*
X55616480Y4372220D01*
X55753293Y4331186D01*
X55847822Y4293185D01*
X55892982Y4273810D01*
X55931415Y4258240D01*
X55957766Y4248595D01*
X55965454Y4246548D01*
X55975198Y4255626D01*
X55991917Y4284595D01*
X56015768Y4333783D01*
X56046907Y4403516D01*
X56085493Y4494121D01*
X56092090Y4509911D01*
X56122147Y4582228D01*
X56149126Y4647575D01*
X56171864Y4703094D01*
X56189194Y4745928D01*
X56199952Y4773219D01*
X56203059Y4782058D01*
X56193060Y4786813D01*
X56166783Y4792090D01*
X56138511Y4795769D01*
X56108354Y4800526D01*
X56060567Y4809972D01*
X55999388Y4823180D01*
X55929054Y4839224D01*
X55853806Y4857180D01*
X55825245Y4864203D01*
X55720184Y4889791D01*
X55632520Y4909853D01*
X55557932Y4925031D01*
X55492097Y4935965D01*
X55430693Y4943296D01*
X55369398Y4947665D01*
X55303890Y4949713D01*
X55245872Y4950111D01*
X55076426Y4943448D01*
G36*
X51563493Y4337755D02*
G01*
X51563474Y4103338D01*
X51563448Y3890397D01*
X51563375Y3697832D01*
X51563218Y3524541D01*
X51562936Y3369424D01*
X51562491Y3231380D01*
X51561844Y3109308D01*
X51560955Y3002106D01*
X51559787Y2908674D01*
X51558299Y2827910D01*
X51556454Y2758714D01*
X51554211Y2699985D01*
X51551531Y2650621D01*
X51548377Y2609522D01*
X51544708Y2575587D01*
X51540487Y2547714D01*
X51535673Y2524802D01*
X51530227Y2505751D01*
X51524112Y2489460D01*
X51517288Y2474827D01*
X51509715Y2460751D01*
X51501355Y2446132D01*
X51496161Y2437026D01*
X51461896Y2376311D01*
X52320045Y2376311D01*
X52320045Y2472267D01*
X52320776Y2515630D01*
X52322728Y2548795D01*
X52325537Y2566576D01*
X52326779Y2568222D01*
X52338201Y2561338D01*
X52360916Y2543495D01*
X52383615Y2524121D01*
X52438200Y2483386D01*
X52507679Y2442383D01*
X52584730Y2404877D01*
X52662035Y2374636D01*
X52692887Y2364988D01*
X52761384Y2350422D01*
X52844236Y2340461D01*
X52933629Y2335417D01*
X53021752Y2335604D01*
X53100793Y2341334D01*
X53138489Y2347142D01*
X53276586Y2385203D01*
X53403887Y2442927D01*
X53519708Y2519789D01*
X53623363Y2615261D01*
X53714167Y2728821D01*
X53780969Y2839619D01*
X53835836Y2956375D01*
X53877837Y3075724D01*
X53907833Y3201717D01*
X53926689Y3338406D01*
X53935268Y3489842D01*
X53935994Y3567289D01*
X53933900Y3624066D01*
X53104783Y3624066D01*
X53104576Y3530998D01*
X53101663Y3443308D01*
X53096000Y3366228D01*
X53087545Y3304991D01*
X53084962Y3292650D01*
X53053160Y3185367D01*
X53011502Y3098342D01*
X52959637Y3031358D01*
X52897219Y2984195D01*
X52823900Y2956635D01*
X52739331Y2948459D01*
X52643165Y2959449D01*
X52579689Y2975171D01*
X52530546Y2993361D01*
X52476417Y3019209D01*
X52435756Y3042911D01*
X52365200Y3089279D01*
X52365200Y4239470D01*
X52432608Y4283038D01*
X52511133Y4323960D01*
X52595319Y4350611D01*
X52680443Y4362535D01*
X52761784Y4359278D01*
X52834620Y4340385D01*
X52866574Y4324816D01*
X52924499Y4281819D01*
X52973456Y4225047D01*
X53014610Y4152425D01*
X53049126Y4061879D01*
X53078167Y3951334D01*
X53079448Y3945467D01*
X53089619Y3883212D01*
X53097261Y3805406D01*
X53102330Y3717280D01*
X53104783Y3624066D01*
X53933900Y3624066D01*
X53928143Y3780105D01*
X53906198Y3975941D01*
X53870214Y4154668D01*
X53820241Y4316155D01*
X53756332Y4460274D01*
X53678538Y4586894D01*
X53586911Y4695885D01*
X53481503Y4787117D01*
X53436338Y4818068D01*
X53335389Y4874215D01*
X53232099Y4913826D01*
X53122011Y4937986D01*
X53000670Y4947781D01*
X52908164Y4946735D01*
X52778510Y4935769D01*
X52665916Y4913954D01*
X52567125Y4880286D01*
X52478879Y4833764D01*
X52430014Y4799552D01*
X52400647Y4777638D01*
X52378957Y4762667D01*
X52370747Y4758267D01*
X52369132Y4769096D01*
X52367841Y4799749D01*
X52366862Y4847474D01*
X52366183Y4909521D01*
X52365790Y4983138D01*
X52365670Y5065573D01*
X52365812Y5154075D01*
X52366203Y5245893D01*
X52366829Y5338276D01*
X52367680Y5428472D01*
X52368740Y5513729D01*
X52369999Y5591297D01*
X52371444Y5658424D01*
X52373062Y5712359D01*
X52374839Y5750350D01*
X52375331Y5757333D01*
X52382908Y5827749D01*
X52394469Y5882898D01*
X52412208Y5930019D01*
X52438318Y5976353D01*
X52444585Y5985933D01*
X52469017Y6022622D01*
X51563689Y6022622D01*
X51563493Y4337755D01*
G37*
X51563493Y4337755D02*
X51563474Y4103338D01*
X51563448Y3890397D01*
X51563375Y3697832D01*
X51563218Y3524541D01*
X51562936Y3369424D01*
X51562491Y3231380D01*
X51561844Y3109308D01*
X51560955Y3002106D01*
X51559787Y2908674D01*
X51558299Y2827910D01*
X51556454Y2758714D01*
X51554211Y2699985D01*
X51551531Y2650621D01*
X51548377Y2609522D01*
X51544708Y2575587D01*
X51540487Y2547714D01*
X51535673Y2524802D01*
X51530227Y2505751D01*
X51524112Y2489460D01*
X51517288Y2474827D01*
X51509715Y2460751D01*
X51501355Y2446132D01*
X51496161Y2437026D01*
X51461896Y2376311D01*
X52320045Y2376311D01*
X52320045Y2472267D01*
X52320776Y2515630D01*
X52322728Y2548795D01*
X52325537Y2566576D01*
X52326779Y2568222D01*
X52338201Y2561338D01*
X52360916Y2543495D01*
X52383615Y2524121D01*
X52438200Y2483386D01*
X52507679Y2442383D01*
X52584730Y2404877D01*
X52662035Y2374636D01*
X52692887Y2364988D01*
X52761384Y2350422D01*
X52844236Y2340461D01*
X52933629Y2335417D01*
X53021752Y2335604D01*
X53100793Y2341334D01*
X53138489Y2347142D01*
X53276586Y2385203D01*
X53403887Y2442927D01*
X53519708Y2519789D01*
X53623363Y2615261D01*
X53714167Y2728821D01*
X53780969Y2839619D01*
X53835836Y2956375D01*
X53877837Y3075724D01*
X53907833Y3201717D01*
X53926689Y3338406D01*
X53935268Y3489842D01*
X53935994Y3567289D01*
X53933900Y3624066D01*
X53104783Y3624066D01*
X53104576Y3530998D01*
X53101663Y3443308D01*
X53096000Y3366228D01*
X53087545Y3304991D01*
X53084962Y3292650D01*
X53053160Y3185367D01*
X53011502Y3098342D01*
X52959637Y3031358D01*
X52897219Y2984195D01*
X52823900Y2956635D01*
X52739331Y2948459D01*
X52643165Y2959449D01*
X52579689Y2975171D01*
X52530546Y2993361D01*
X52476417Y3019209D01*
X52435756Y3042911D01*
X52365200Y3089279D01*
X52365200Y4239470D01*
X52432608Y4283038D01*
X52511133Y4323960D01*
X52595319Y4350611D01*
X52680443Y4362535D01*
X52761784Y4359278D01*
X52834620Y4340385D01*
X52866574Y4324816D01*
X52924499Y4281819D01*
X52973456Y4225047D01*
X53014610Y4152425D01*
X53049126Y4061879D01*
X53078167Y3951334D01*
X53079448Y3945467D01*
X53089619Y3883212D01*
X53097261Y3805406D01*
X53102330Y3717280D01*
X53104783Y3624066D01*
X53933900Y3624066D01*
X53928143Y3780105D01*
X53906198Y3975941D01*
X53870214Y4154668D01*
X53820241Y4316155D01*
X53756332Y4460274D01*
X53678538Y4586894D01*
X53586911Y4695885D01*
X53481503Y4787117D01*
X53436338Y4818068D01*
X53335389Y4874215D01*
X53232099Y4913826D01*
X53122011Y4937986D01*
X53000670Y4947781D01*
X52908164Y4946735D01*
X52778510Y4935769D01*
X52665916Y4913954D01*
X52567125Y4880286D01*
X52478879Y4833764D01*
X52430014Y4799552D01*
X52400647Y4777638D01*
X52378957Y4762667D01*
X52370747Y4758267D01*
X52369132Y4769096D01*
X52367841Y4799749D01*
X52366862Y4847474D01*
X52366183Y4909521D01*
X52365790Y4983138D01*
X52365670Y5065573D01*
X52365812Y5154075D01*
X52366203Y5245893D01*
X52366829Y5338276D01*
X52367680Y5428472D01*
X52368740Y5513729D01*
X52369999Y5591297D01*
X52371444Y5658424D01*
X52373062Y5712359D01*
X52374839Y5750350D01*
X52375331Y5757333D01*
X52382908Y5827749D01*
X52394469Y5882898D01*
X52412208Y5930019D01*
X52438318Y5976353D01*
X52444585Y5985933D01*
X52469017Y6022622D01*
X51563689Y6022622D01*
X51563493Y4337755D01*
G36*
X60023043Y6783429D02*
G01*
X59926768Y6759191D01*
X59840184Y6716359D01*
X59765373Y6656581D01*
X59704418Y6581506D01*
X59659399Y6492780D01*
X59633136Y6396470D01*
X59627286Y6299205D01*
X59642140Y6205346D01*
X59675840Y6117489D01*
X59726528Y6038230D01*
X59792345Y5970164D01*
X59871434Y5915888D01*
X59961934Y5877998D01*
X60013200Y5865574D01*
X60057698Y5858053D01*
X60091999Y5855081D01*
X60124960Y5856906D01*
X60165434Y5863775D01*
X60198531Y5870750D01*
X60291947Y5902259D01*
X60375619Y5953383D01*
X60447665Y6022571D01*
X60506200Y6108272D01*
X60520148Y6135511D01*
X60536586Y6171878D01*
X60546894Y6202418D01*
X60552460Y6234550D01*
X60554669Y6275693D01*
X60554948Y6321778D01*
X60550861Y6406135D01*
X60537446Y6475414D01*
X60512256Y6536039D01*
X60472846Y6594433D01*
X60434298Y6638698D01*
X60362406Y6704516D01*
X60287313Y6749947D01*
X60204562Y6777150D01*
X60126928Y6787424D01*
X60023043Y6783429D01*
G37*
X60023043Y6783429D02*
X59926768Y6759191D01*
X59840184Y6716359D01*
X59765373Y6656581D01*
X59704418Y6581506D01*
X59659399Y6492780D01*
X59633136Y6396470D01*
X59627286Y6299205D01*
X59642140Y6205346D01*
X59675840Y6117489D01*
X59726528Y6038230D01*
X59792345Y5970164D01*
X59871434Y5915888D01*
X59961934Y5877998D01*
X60013200Y5865574D01*
X60057698Y5858053D01*
X60091999Y5855081D01*
X60124960Y5856906D01*
X60165434Y5863775D01*
X60198531Y5870750D01*
X60291947Y5902259D01*
X60375619Y5953383D01*
X60447665Y6022571D01*
X60506200Y6108272D01*
X60520148Y6135511D01*
X60536586Y6171878D01*
X60546894Y6202418D01*
X60552460Y6234550D01*
X60554669Y6275693D01*
X60554948Y6321778D01*
X60550861Y6406135D01*
X60537446Y6475414D01*
X60512256Y6536039D01*
X60472846Y6594433D01*
X60434298Y6638698D01*
X60362406Y6704516D01*
X60287313Y6749947D01*
X60204562Y6777150D01*
X60126928Y6787424D01*
X60023043Y6783429D01*
G36*
X63871371Y1540934D02*
G01*
X63831889Y1540533D01*
X63716200Y1537741D01*
X63619311Y1529450D01*
X63537919Y1514768D01*
X63468723Y1492807D01*
X63408420Y1462678D01*
X63353708Y1423490D01*
X63334167Y1406468D01*
X63301750Y1366637D01*
X63272520Y1312587D01*
X63249991Y1252677D01*
X63237679Y1195261D01*
X63236400Y1174044D01*
X63244417Y1115231D01*
X63265899Y1050987D01*
X63296999Y990179D01*
X63333866Y941670D01*
X63339854Y935818D01*
X63390579Y894679D01*
X63446125Y862565D01*
X63509696Y838635D01*
X63584494Y822047D01*
X63673722Y811959D01*
X63780582Y807531D01*
X63829528Y807155D01*
X63891762Y807455D01*
X63935528Y808708D01*
X63964931Y811446D01*
X63984079Y816199D01*
X63997077Y823499D01*
X64004045Y829733D01*
X64010626Y837306D01*
X64015788Y847076D01*
X64019703Y861660D01*
X64022543Y883674D01*
X64024480Y915736D01*
X64025684Y960464D01*
X64026328Y1020474D01*
X64026583Y1098383D01*
X64026622Y1174044D01*
X64026870Y1274959D01*
X64026817Y1355573D01*
X64025857Y1394178D01*
X63879867Y1394178D01*
X63879867Y953911D01*
X63786734Y953996D01*
X63730693Y955604D01*
X63671999Y959744D01*
X63623028Y965536D01*
X63621538Y965774D01*
X63542392Y984910D01*
X63481002Y1014713D01*
X63434305Y1057122D01*
X63404635Y1103039D01*
X63386353Y1153974D01*
X63387771Y1201800D01*
X63408988Y1253067D01*
X63450489Y1306101D01*
X63507998Y1345400D01*
X63582750Y1371669D01*
X63632708Y1380965D01*
X63689416Y1387493D01*
X63749519Y1392218D01*
X63800639Y1394183D01*
X63803667Y1394192D01*
X63879867Y1394178D01*
X64025857Y1394178D01*
X64025260Y1418149D01*
X64020998Y1464945D01*
X64012830Y1498222D01*
X63999556Y1520241D01*
X63979974Y1533261D01*
X63952883Y1539543D01*
X63917082Y1541347D01*
X63871371Y1540934D01*
G37*
X63871371Y1540934D02*
X63831889Y1540533D01*
X63716200Y1537741D01*
X63619311Y1529450D01*
X63537919Y1514768D01*
X63468723Y1492807D01*
X63408420Y1462678D01*
X63353708Y1423490D01*
X63334167Y1406468D01*
X63301750Y1366637D01*
X63272520Y1312587D01*
X63249991Y1252677D01*
X63237679Y1195261D01*
X63236400Y1174044D01*
X63244417Y1115231D01*
X63265899Y1050987D01*
X63296999Y990179D01*
X63333866Y941670D01*
X63339854Y935818D01*
X63390579Y894679D01*
X63446125Y862565D01*
X63509696Y838635D01*
X63584494Y822047D01*
X63673722Y811959D01*
X63780582Y807531D01*
X63829528Y807155D01*
X63891762Y807455D01*
X63935528Y808708D01*
X63964931Y811446D01*
X63984079Y816199D01*
X63997077Y823499D01*
X64004045Y829733D01*
X64010626Y837306D01*
X64015788Y847076D01*
X64019703Y861660D01*
X64022543Y883674D01*
X64024480Y915736D01*
X64025684Y960464D01*
X64026328Y1020474D01*
X64026583Y1098383D01*
X64026622Y1174044D01*
X64026870Y1274959D01*
X64026817Y1355573D01*
X64025857Y1394178D01*
X63879867Y1394178D01*
X63879867Y953911D01*
X63786734Y953996D01*
X63730693Y955604D01*
X63671999Y959744D01*
X63623028Y965536D01*
X63621538Y965774D01*
X63542392Y984910D01*
X63481002Y1014713D01*
X63434305Y1057122D01*
X63404635Y1103039D01*
X63386353Y1153974D01*
X63387771Y1201800D01*
X63408988Y1253067D01*
X63450489Y1306101D01*
X63507998Y1345400D01*
X63582750Y1371669D01*
X63632708Y1380965D01*
X63689416Y1387493D01*
X63749519Y1392218D01*
X63800639Y1394183D01*
X63803667Y1394192D01*
X63879867Y1394178D01*
X64025857Y1394178D01*
X64025260Y1418149D01*
X64020998Y1464945D01*
X64012830Y1498222D01*
X63999556Y1520241D01*
X63979974Y1533261D01*
X63952883Y1539543D01*
X63917082Y1541347D01*
X63871371Y1540934D01*
G36*
X62462794Y1540854D02*
G01*
X62393386Y1540482D01*
X62340997Y1539615D01*
X62302847Y1538054D01*
X62276159Y1535597D01*
X62258153Y1532043D01*
X62246049Y1527190D01*
X62237069Y1520839D01*
X62233818Y1517916D01*
X62214043Y1486858D01*
X62210482Y1451172D01*
X62223491Y1419490D01*
X62229506Y1413087D01*
X62239235Y1406879D01*
X62254901Y1402090D01*
X62279408Y1398486D01*
X62315661Y1395836D01*
X62366565Y1393905D01*
X62435026Y1392461D01*
X62497617Y1391582D01*
X62745334Y1388533D01*
X62748719Y1323622D01*
X62752105Y1258711D01*
X62583958Y1258711D01*
X62510959Y1258081D01*
X62457517Y1255447D01*
X62420628Y1249691D01*
X62397288Y1239696D01*
X62384494Y1224344D01*
X62379242Y1202518D01*
X62378445Y1182262D01*
X62380923Y1157408D01*
X62390277Y1139094D01*
X62409383Y1126363D01*
X62441118Y1118259D01*
X62488359Y1113824D01*
X62553983Y1112101D01*
X62589801Y1111955D01*
X62750978Y1111955D01*
X62750978Y953911D01*
X62502622Y953911D01*
X62421213Y953798D01*
X62359342Y953288D01*
X62313968Y952130D01*
X62282054Y950070D01*
X62260559Y946854D01*
X62246443Y942228D01*
X62236668Y935941D01*
X62231689Y931333D01*
X62214610Y904440D01*
X62209111Y880533D01*
X62216963Y851333D01*
X62231689Y829733D01*
X62239546Y822934D01*
X62249688Y817654D01*
X62264844Y813702D01*
X62287741Y810887D01*
X62321109Y809018D01*
X62367675Y807902D01*
X62430167Y807349D01*
X62511314Y807167D01*
X62553422Y807155D01*
X62643598Y807235D01*
X62713924Y807602D01*
X62767129Y808448D01*
X62805940Y809964D01*
X62833087Y812341D01*
X62851298Y815771D01*
X62863300Y820446D01*
X62871822Y826556D01*
X62875156Y829733D01*
X62881755Y837330D01*
X62886927Y847130D01*
X62890846Y861761D01*
X62893684Y883848D01*
X62895615Y916018D01*
X62896812Y960897D01*
X62897448Y1021111D01*
X62897697Y1099287D01*
X62897734Y1172077D01*
X62897700Y1265293D01*
X62897465Y1338569D01*
X62896830Y1394542D01*
X62895594Y1435849D01*
X62893556Y1465128D01*
X62890517Y1485016D01*
X62886277Y1498150D01*
X62880635Y1507168D01*
X62873391Y1514707D01*
X62871606Y1516388D01*
X62862945Y1523828D01*
X62852882Y1529591D01*
X62838625Y1533888D01*
X62817383Y1536936D01*
X62786364Y1538949D01*
X62742777Y1540140D01*
X62683831Y1540725D01*
X62606734Y1540917D01*
X62552001Y1540933D01*
X62462794Y1540854D01*
G37*
X62462794Y1540854D02*
X62393386Y1540482D01*
X62340997Y1539615D01*
X62302847Y1538054D01*
X62276159Y1535597D01*
X62258153Y1532043D01*
X62246049Y1527190D01*
X62237069Y1520839D01*
X62233818Y1517916D01*
X62214043Y1486858D01*
X62210482Y1451172D01*
X62223491Y1419490D01*
X62229506Y1413087D01*
X62239235Y1406879D01*
X62254901Y1402090D01*
X62279408Y1398486D01*
X62315661Y1395836D01*
X62366565Y1393905D01*
X62435026Y1392461D01*
X62497617Y1391582D01*
X62745334Y1388533D01*
X62748719Y1323622D01*
X62752105Y1258711D01*
X62583958Y1258711D01*
X62510959Y1258081D01*
X62457517Y1255447D01*
X62420628Y1249691D01*
X62397288Y1239696D01*
X62384494Y1224344D01*
X62379242Y1202518D01*
X62378445Y1182262D01*
X62380923Y1157408D01*
X62390277Y1139094D01*
X62409383Y1126363D01*
X62441118Y1118259D01*
X62488359Y1113824D01*
X62553983Y1112101D01*
X62589801Y1111955D01*
X62750978Y1111955D01*
X62750978Y953911D01*
X62502622Y953911D01*
X62421213Y953798D01*
X62359342Y953288D01*
X62313968Y952130D01*
X62282054Y950070D01*
X62260559Y946854D01*
X62246443Y942228D01*
X62236668Y935941D01*
X62231689Y931333D01*
X62214610Y904440D01*
X62209111Y880533D01*
X62216963Y851333D01*
X62231689Y829733D01*
X62239546Y822934D01*
X62249688Y817654D01*
X62264844Y813702D01*
X62287741Y810887D01*
X62321109Y809018D01*
X62367675Y807902D01*
X62430167Y807349D01*
X62511314Y807167D01*
X62553422Y807155D01*
X62643598Y807235D01*
X62713924Y807602D01*
X62767129Y808448D01*
X62805940Y809964D01*
X62833087Y812341D01*
X62851298Y815771D01*
X62863300Y820446D01*
X62871822Y826556D01*
X62875156Y829733D01*
X62881755Y837330D01*
X62886927Y847130D01*
X62890846Y861761D01*
X62893684Y883848D01*
X62895615Y916018D01*
X62896812Y960897D01*
X62897448Y1021111D01*
X62897697Y1099287D01*
X62897734Y1172077D01*
X62897700Y1265293D01*
X62897465Y1338569D01*
X62896830Y1394542D01*
X62895594Y1435849D01*
X62893556Y1465128D01*
X62890517Y1485016D01*
X62886277Y1498150D01*
X62880635Y1507168D01*
X62873391Y1514707D01*
X62871606Y1516388D01*
X62862945Y1523828D01*
X62852882Y1529591D01*
X62838625Y1533888D01*
X62817383Y1536936D01*
X62786364Y1538949D01*
X62742777Y1540140D01*
X62683831Y1540725D01*
X62606734Y1540917D01*
X62552001Y1540933D01*
X62462794Y1540854D01*
G36*
X61441703Y1539649D02*
G01*
X61366888Y1534419D01*
X61297306Y1526250D01*
X61237002Y1515450D01*
X61190020Y1502327D01*
X61160406Y1487187D01*
X61155860Y1482731D01*
X61140054Y1448150D01*
X61144847Y1412649D01*
X61169364Y1382275D01*
X61170534Y1381404D01*
X61184954Y1372046D01*
X61200008Y1367124D01*
X61221005Y1366527D01*
X61253257Y1370139D01*
X61302073Y1377846D01*
X61306000Y1378495D01*
X61378739Y1387431D01*
X61457217Y1391839D01*
X61535927Y1391881D01*
X61609361Y1387721D01*
X61672011Y1379521D01*
X61718370Y1367443D01*
X61721416Y1366229D01*
X61755048Y1347385D01*
X61766864Y1328315D01*
X61757614Y1309561D01*
X61728047Y1291663D01*
X61678911Y1275163D01*
X61610957Y1260604D01*
X61565645Y1253594D01*
X61471456Y1240111D01*
X61396544Y1227786D01*
X61337717Y1215551D01*
X61291785Y1202339D01*
X61255555Y1187083D01*
X61225838Y1168715D01*
X61199442Y1146169D01*
X61178230Y1124029D01*
X61153065Y1093181D01*
X61140681Y1066655D01*
X61136808Y1033974D01*
X61136667Y1022005D01*
X61139576Y982288D01*
X61151202Y952741D01*
X61171323Y926514D01*
X61212216Y886424D01*
X61257817Y855851D01*
X61311513Y833797D01*
X61376692Y819265D01*
X61456744Y811259D01*
X61555057Y808782D01*
X61571289Y808823D01*
X61636849Y810182D01*
X61701866Y813270D01*
X61759252Y817644D01*
X61801922Y822860D01*
X61805372Y823459D01*
X61847796Y833509D01*
X61883780Y846204D01*
X61904150Y857810D01*
X61923107Y888428D01*
X61924427Y924082D01*
X61908085Y955856D01*
X61904429Y959449D01*
X61889315Y970124D01*
X61870415Y974724D01*
X61841162Y973941D01*
X61805651Y969873D01*
X61765970Y966238D01*
X61710345Y963172D01*
X61645406Y960947D01*
X61577785Y959836D01*
X61560000Y959763D01*
X61492128Y960036D01*
X61442454Y961354D01*
X61406610Y964173D01*
X61380224Y968950D01*
X61358926Y976143D01*
X61346126Y982133D01*
X61318000Y998767D01*
X61300068Y1013832D01*
X61297447Y1018103D01*
X61302976Y1035737D01*
X61329260Y1052808D01*
X61374478Y1068542D01*
X61436808Y1082162D01*
X61455171Y1085196D01*
X61551090Y1100262D01*
X61627641Y1112854D01*
X61687780Y1123889D01*
X61734460Y1134280D01*
X61770637Y1144944D01*
X61799265Y1156795D01*
X61823298Y1170749D01*
X61845692Y1187719D01*
X61869402Y1208622D01*
X61877380Y1215951D01*
X61905353Y1243301D01*
X61920160Y1264971D01*
X61925952Y1289768D01*
X61926889Y1321017D01*
X61916575Y1382295D01*
X61885752Y1434360D01*
X61834595Y1477042D01*
X61763283Y1510175D01*
X61712400Y1525036D01*
X61657100Y1534634D01*
X61590853Y1540064D01*
X61517706Y1541633D01*
X61441703Y1539649D01*
G37*
X61441703Y1539649D02*
X61366888Y1534419D01*
X61297306Y1526250D01*
X61237002Y1515450D01*
X61190020Y1502327D01*
X61160406Y1487187D01*
X61155860Y1482731D01*
X61140054Y1448150D01*
X61144847Y1412649D01*
X61169364Y1382275D01*
X61170534Y1381404D01*
X61184954Y1372046D01*
X61200008Y1367124D01*
X61221005Y1366527D01*
X61253257Y1370139D01*
X61302073Y1377846D01*
X61306000Y1378495D01*
X61378739Y1387431D01*
X61457217Y1391839D01*
X61535927Y1391881D01*
X61609361Y1387721D01*
X61672011Y1379521D01*
X61718370Y1367443D01*
X61721416Y1366229D01*
X61755048Y1347385D01*
X61766864Y1328315D01*
X61757614Y1309561D01*
X61728047Y1291663D01*
X61678911Y1275163D01*
X61610957Y1260604D01*
X61565645Y1253594D01*
X61471456Y1240111D01*
X61396544Y1227786D01*
X61337717Y1215551D01*
X61291785Y1202339D01*
X61255555Y1187083D01*
X61225838Y1168715D01*
X61199442Y1146169D01*
X61178230Y1124029D01*
X61153065Y1093181D01*
X61140681Y1066655D01*
X61136808Y1033974D01*
X61136667Y1022005D01*
X61139576Y982288D01*
X61151202Y952741D01*
X61171323Y926514D01*
X61212216Y886424D01*
X61257817Y855851D01*
X61311513Y833797D01*
X61376692Y819265D01*
X61456744Y811259D01*
X61555057Y808782D01*
X61571289Y808823D01*
X61636849Y810182D01*
X61701866Y813270D01*
X61759252Y817644D01*
X61801922Y822860D01*
X61805372Y823459D01*
X61847796Y833509D01*
X61883780Y846204D01*
X61904150Y857810D01*
X61923107Y888428D01*
X61924427Y924082D01*
X61908085Y955856D01*
X61904429Y959449D01*
X61889315Y970124D01*
X61870415Y974724D01*
X61841162Y973941D01*
X61805651Y969873D01*
X61765970Y966238D01*
X61710345Y963172D01*
X61645406Y960947D01*
X61577785Y959836D01*
X61560000Y959763D01*
X61492128Y960036D01*
X61442454Y961354D01*
X61406610Y964173D01*
X61380224Y968950D01*
X61358926Y976143D01*
X61346126Y982133D01*
X61318000Y998767D01*
X61300068Y1013832D01*
X61297447Y1018103D01*
X61302976Y1035737D01*
X61329260Y1052808D01*
X61374478Y1068542D01*
X61436808Y1082162D01*
X61455171Y1085196D01*
X61551090Y1100262D01*
X61627641Y1112854D01*
X61687780Y1123889D01*
X61734460Y1134280D01*
X61770637Y1144944D01*
X61799265Y1156795D01*
X61823298Y1170749D01*
X61845692Y1187719D01*
X61869402Y1208622D01*
X61877380Y1215951D01*
X61905353Y1243301D01*
X61920160Y1264971D01*
X61925952Y1289768D01*
X61926889Y1321017D01*
X61916575Y1382295D01*
X61885752Y1434360D01*
X61834595Y1477042D01*
X61763283Y1510175D01*
X61712400Y1525036D01*
X61657100Y1534634D01*
X61590853Y1540064D01*
X61517706Y1541633D01*
X61441703Y1539649D01*
G36*
X60673822Y1518355D02*
G01*
X60667242Y1510782D01*
X60662079Y1501013D01*
X60658164Y1486429D01*
X60655324Y1464415D01*
X60653387Y1432352D01*
X60652183Y1387625D01*
X60651539Y1327615D01*
X60651284Y1249706D01*
X60651245Y1174044D01*
X60651314Y1080198D01*
X60651638Y1006311D01*
X60652386Y949768D01*
X60653732Y907951D01*
X60655846Y878243D01*
X60658900Y858027D01*
X60663066Y844686D01*
X60668516Y835602D01*
X60673822Y829733D01*
X60706826Y810053D01*
X60741991Y811819D01*
X60773455Y833283D01*
X60780684Y841663D01*
X60786334Y851386D01*
X60790599Y865139D01*
X60793673Y885611D01*
X60795752Y915488D01*
X60797030Y957459D01*
X60797701Y1014211D01*
X60797959Y1088433D01*
X60798000Y1172463D01*
X60798000Y1485515D01*
X60770291Y1513224D01*
X60736137Y1536537D01*
X60703006Y1537377D01*
X60673822Y1518355D01*
G37*
X60673822Y1518355D02*
X60667242Y1510782D01*
X60662079Y1501013D01*
X60658164Y1486429D01*
X60655324Y1464415D01*
X60653387Y1432352D01*
X60652183Y1387625D01*
X60651539Y1327615D01*
X60651284Y1249706D01*
X60651245Y1174044D01*
X60651314Y1080198D01*
X60651638Y1006311D01*
X60652386Y949768D01*
X60653732Y907951D01*
X60655846Y878243D01*
X60658900Y858027D01*
X60663066Y844686D01*
X60668516Y835602D01*
X60673822Y829733D01*
X60706826Y810053D01*
X60741991Y811819D01*
X60773455Y833283D01*
X60780684Y841663D01*
X60786334Y851386D01*
X60790599Y865139D01*
X60793673Y885611D01*
X60795752Y915488D01*
X60797030Y957459D01*
X60797701Y1014211D01*
X60797959Y1088433D01*
X60798000Y1172463D01*
X60798000Y1485515D01*
X60770291Y1513224D01*
X60736137Y1536537D01*
X60703006Y1537377D01*
X60673822Y1518355D01*
G36*
X59700081Y1535401D02*
G01*
X59631565Y1523905D01*
X59578943Y1506033D01*
X59544708Y1482501D01*
X59535379Y1469076D01*
X59525893Y1437852D01*
X59532277Y1409605D01*
X59552430Y1382818D01*
X59583745Y1370287D01*
X59629183Y1371304D01*
X59664326Y1378094D01*
X59742419Y1391029D01*
X59822226Y1392258D01*
X59911555Y1381759D01*
X59936229Y1377310D01*
X60019291Y1353892D01*
X60084273Y1319055D01*
X60130461Y1273396D01*
X60157145Y1217506D01*
X60162663Y1188612D01*
X60159051Y1129988D01*
X60135729Y1078121D01*
X60094824Y1034022D01*
X60038459Y998701D01*
X59968760Y973171D01*
X59887852Y958441D01*
X59797860Y955522D01*
X59700910Y965425D01*
X59695436Y966359D01*
X59656875Y973541D01*
X59635494Y980479D01*
X59626227Y990773D01*
X59624006Y1008024D01*
X59623956Y1017159D01*
X59623956Y1055511D01*
X59692431Y1055511D01*
X59752900Y1059653D01*
X59794165Y1072853D01*
X59818175Y1096270D01*
X59826877Y1131064D01*
X59826983Y1135606D01*
X59821892Y1165346D01*
X59804433Y1186581D01*
X59771939Y1200634D01*
X59721743Y1208827D01*
X59673123Y1211839D01*
X59602456Y1213567D01*
X59551198Y1210930D01*
X59516239Y1201200D01*
X59494470Y1181647D01*
X59482780Y1149544D01*
X59478060Y1102162D01*
X59477200Y1039929D01*
X59478609Y970465D01*
X59482848Y923214D01*
X59489936Y897988D01*
X59491311Y896012D01*
X59530228Y864492D01*
X59587286Y839530D01*
X59658869Y821660D01*
X59741358Y811414D01*
X59831139Y809327D01*
X59924592Y815932D01*
X59979556Y824044D01*
X60065766Y848446D01*
X60145892Y888338D01*
X60212977Y940113D01*
X60223173Y950461D01*
X60256302Y993965D01*
X60286194Y1047882D01*
X60309357Y1104408D01*
X60322298Y1155741D01*
X60323858Y1175456D01*
X60317218Y1216581D01*
X60299568Y1267748D01*
X60274297Y1321606D01*
X60244789Y1370805D01*
X60218719Y1403666D01*
X60157765Y1452548D01*
X60078969Y1491455D01*
X59985157Y1519506D01*
X59879150Y1535821D01*
X59782000Y1539808D01*
X59700081Y1535401D01*
G37*
X59700081Y1535401D02*
X59631565Y1523905D01*
X59578943Y1506033D01*
X59544708Y1482501D01*
X59535379Y1469076D01*
X59525893Y1437852D01*
X59532277Y1409605D01*
X59552430Y1382818D01*
X59583745Y1370287D01*
X59629183Y1371304D01*
X59664326Y1378094D01*
X59742419Y1391029D01*
X59822226Y1392258D01*
X59911555Y1381759D01*
X59936229Y1377310D01*
X60019291Y1353892D01*
X60084273Y1319055D01*
X60130461Y1273396D01*
X60157145Y1217506D01*
X60162663Y1188612D01*
X60159051Y1129988D01*
X60135729Y1078121D01*
X60094824Y1034022D01*
X60038459Y998701D01*
X59968760Y973171D01*
X59887852Y958441D01*
X59797860Y955522D01*
X59700910Y965425D01*
X59695436Y966359D01*
X59656875Y973541D01*
X59635494Y980479D01*
X59626227Y990773D01*
X59624006Y1008024D01*
X59623956Y1017159D01*
X59623956Y1055511D01*
X59692431Y1055511D01*
X59752900Y1059653D01*
X59794165Y1072853D01*
X59818175Y1096270D01*
X59826877Y1131064D01*
X59826983Y1135606D01*
X59821892Y1165346D01*
X59804433Y1186581D01*
X59771939Y1200634D01*
X59721743Y1208827D01*
X59673123Y1211839D01*
X59602456Y1213567D01*
X59551198Y1210930D01*
X59516239Y1201200D01*
X59494470Y1181647D01*
X59482780Y1149544D01*
X59478060Y1102162D01*
X59477200Y1039929D01*
X59478609Y970465D01*
X59482848Y923214D01*
X59489936Y897988D01*
X59491311Y896012D01*
X59530228Y864492D01*
X59587286Y839530D01*
X59658869Y821660D01*
X59741358Y811414D01*
X59831139Y809327D01*
X59924592Y815932D01*
X59979556Y824044D01*
X60065766Y848446D01*
X60145892Y888338D01*
X60212977Y940113D01*
X60223173Y950461D01*
X60256302Y993965D01*
X60286194Y1047882D01*
X60309357Y1104408D01*
X60322298Y1155741D01*
X60323858Y1175456D01*
X60317218Y1216581D01*
X60299568Y1267748D01*
X60274297Y1321606D01*
X60244789Y1370805D01*
X60218719Y1403666D01*
X60157765Y1452548D01*
X60078969Y1491455D01*
X59985157Y1519506D01*
X59879150Y1535821D01*
X59782000Y1539808D01*
X59700081Y1535401D01*
G36*
X59050114Y1536552D02*
G01*
X59026548Y1522727D01*
X58995735Y1500119D01*
X58956078Y1467662D01*
X58905980Y1424292D01*
X58843843Y1368942D01*
X58768072Y1300549D01*
X58681334Y1221916D01*
X58500711Y1058122D01*
X58495067Y1277971D01*
X58493029Y1353649D01*
X58491063Y1410006D01*
X58488734Y1450294D01*
X58485606Y1477765D01*
X58481245Y1495671D01*
X58475216Y1507263D01*
X58467084Y1515792D01*
X58462772Y1519377D01*
X58428241Y1538330D01*
X58395383Y1535559D01*
X58369318Y1519367D01*
X58342667Y1497801D01*
X58339352Y1182849D01*
X58338435Y1090221D01*
X58337968Y1017456D01*
X58338113Y961839D01*
X58339032Y920658D01*
X58340887Y891197D01*
X58343839Y870745D01*
X58348050Y856587D01*
X58353682Y846009D01*
X58359927Y837526D01*
X58373439Y821793D01*
X58386883Y811364D01*
X58402124Y807361D01*
X58421026Y810906D01*
X58445455Y823121D01*
X58477273Y845129D01*
X58518348Y878051D01*
X58570542Y923009D01*
X58635722Y981125D01*
X58709556Y1047901D01*
X58974845Y1288542D01*
X58980489Y1069411D01*
X58982531Y993872D01*
X58984502Y937646D01*
X58986839Y897476D01*
X58989981Y870104D01*
X58994364Y852272D01*
X59000424Y840721D01*
X59008600Y832193D01*
X59012784Y828718D01*
X59049765Y809628D01*
X59084708Y812507D01*
X59115136Y836900D01*
X59122097Y846714D01*
X59127523Y858174D01*
X59131603Y874032D01*
X59134529Y897037D01*
X59136492Y929938D01*
X59137683Y975484D01*
X59138292Y1036427D01*
X59138511Y1115514D01*
X59138534Y1174044D01*
X59138460Y1265593D01*
X59138113Y1337313D01*
X59137301Y1391955D01*
X59135833Y1432268D01*
X59133519Y1461002D01*
X59130167Y1480907D01*
X59125588Y1494732D01*
X59119589Y1505228D01*
X59115136Y1511189D01*
X59103850Y1525309D01*
X59093301Y1535971D01*
X59081893Y1542108D01*
X59068030Y1542657D01*
X59050114Y1536552D01*
G37*
X59050114Y1536552D02*
X59026548Y1522727D01*
X58995735Y1500119D01*
X58956078Y1467662D01*
X58905980Y1424292D01*
X58843843Y1368942D01*
X58768072Y1300549D01*
X58681334Y1221916D01*
X58500711Y1058122D01*
X58495067Y1277971D01*
X58493029Y1353649D01*
X58491063Y1410006D01*
X58488734Y1450294D01*
X58485606Y1477765D01*
X58481245Y1495671D01*
X58475216Y1507263D01*
X58467084Y1515792D01*
X58462772Y1519377D01*
X58428241Y1538330D01*
X58395383Y1535559D01*
X58369318Y1519367D01*
X58342667Y1497801D01*
X58339352Y1182849D01*
X58338435Y1090221D01*
X58337968Y1017456D01*
X58338113Y961839D01*
X58339032Y920658D01*
X58340887Y891197D01*
X58343839Y870745D01*
X58348050Y856587D01*
X58353682Y846009D01*
X58359927Y837526D01*
X58373439Y821793D01*
X58386883Y811364D01*
X58402124Y807361D01*
X58421026Y810906D01*
X58445455Y823121D01*
X58477273Y845129D01*
X58518348Y878051D01*
X58570542Y923009D01*
X58635722Y981125D01*
X58709556Y1047901D01*
X58974845Y1288542D01*
X58980489Y1069411D01*
X58982531Y993872D01*
X58984502Y937646D01*
X58986839Y897476D01*
X58989981Y870104D01*
X58994364Y852272D01*
X59000424Y840721D01*
X59008600Y832193D01*
X59012784Y828718D01*
X59049765Y809628D01*
X59084708Y812507D01*
X59115136Y836900D01*
X59122097Y846714D01*
X59127523Y858174D01*
X59131603Y874032D01*
X59134529Y897037D01*
X59136492Y929938D01*
X59137683Y975484D01*
X59138292Y1036427D01*
X59138511Y1115514D01*
X59138534Y1174044D01*
X59138460Y1265593D01*
X59138113Y1337313D01*
X59137301Y1391955D01*
X59135833Y1432268D01*
X59133519Y1461002D01*
X59130167Y1480907D01*
X59125588Y1494732D01*
X59119589Y1505228D01*
X59115136Y1511189D01*
X59103850Y1525309D01*
X59093301Y1535971D01*
X59081893Y1542108D01*
X59068030Y1542657D01*
X59050114Y1536552D01*
G36*
X57519657Y1540740D02*
G01*
X57443299Y1539826D01*
X57384783Y1537689D01*
X57341745Y1533825D01*
X57311817Y1527733D01*
X57292632Y1518910D01*
X57281824Y1506854D01*
X57277027Y1491061D01*
X57275873Y1471030D01*
X57275867Y1468665D01*
X57276869Y1446008D01*
X57281604Y1428497D01*
X57292667Y1415426D01*
X57312652Y1406087D01*
X57344154Y1399773D01*
X57389768Y1395778D01*
X57452087Y1393394D01*
X57533707Y1391914D01*
X57558723Y1391586D01*
X57800800Y1388533D01*
X57804186Y1323622D01*
X57807571Y1258711D01*
X57639424Y1258711D01*
X57573734Y1258469D01*
X57526828Y1257444D01*
X57494917Y1255189D01*
X57474209Y1251258D01*
X57460916Y1245202D01*
X57451245Y1236576D01*
X57451183Y1236507D01*
X57433644Y1202888D01*
X57434278Y1166552D01*
X57452686Y1135577D01*
X57456329Y1132393D01*
X57469259Y1124188D01*
X57486976Y1118479D01*
X57513430Y1114838D01*
X57552568Y1112833D01*
X57608338Y1112036D01*
X57644006Y1111955D01*
X57806445Y1111955D01*
X57806445Y953911D01*
X57559839Y953911D01*
X57478420Y953769D01*
X57416590Y953186D01*
X57371363Y951932D01*
X57339752Y949773D01*
X57318769Y946477D01*
X57305427Y941811D01*
X57296739Y935543D01*
X57294550Y933267D01*
X57278386Y901720D01*
X57277203Y865832D01*
X57290464Y834715D01*
X57300957Y824729D01*
X57311871Y819231D01*
X57328783Y814978D01*
X57354367Y811820D01*
X57391299Y809608D01*
X57442254Y808194D01*
X57509906Y807428D01*
X57596931Y807162D01*
X57616606Y807155D01*
X57705089Y807213D01*
X57773773Y807533D01*
X57825436Y808333D01*
X57862855Y809833D01*
X57888810Y812251D01*
X57906078Y815806D01*
X57917438Y820718D01*
X57925668Y827205D01*
X57930183Y831862D01*
X57936979Y840111D01*
X57942288Y850331D01*
X57946294Y865200D01*
X57949179Y887398D01*
X57951126Y919607D01*
X57952319Y964504D01*
X57952939Y1024772D01*
X57953171Y1103089D01*
X57953200Y1169006D01*
X57953129Y1261372D01*
X57952792Y1333883D01*
X57952002Y1389263D01*
X57950574Y1430235D01*
X57948321Y1459522D01*
X57945057Y1479847D01*
X57940596Y1493934D01*
X57934752Y1504505D01*
X57929803Y1511189D01*
X57906406Y1540933D01*
X57616226Y1540933D01*
X57519657Y1540740D01*
G37*
X57519657Y1540740D02*
X57443299Y1539826D01*
X57384783Y1537689D01*
X57341745Y1533825D01*
X57311817Y1527733D01*
X57292632Y1518910D01*
X57281824Y1506854D01*
X57277027Y1491061D01*
X57275873Y1471030D01*
X57275867Y1468665D01*
X57276869Y1446008D01*
X57281604Y1428497D01*
X57292667Y1415426D01*
X57312652Y1406087D01*
X57344154Y1399773D01*
X57389768Y1395778D01*
X57452087Y1393394D01*
X57533707Y1391914D01*
X57558723Y1391586D01*
X57800800Y1388533D01*
X57804186Y1323622D01*
X57807571Y1258711D01*
X57639424Y1258711D01*
X57573734Y1258469D01*
X57526828Y1257444D01*
X57494917Y1255189D01*
X57474209Y1251258D01*
X57460916Y1245202D01*
X57451245Y1236576D01*
X57451183Y1236507D01*
X57433644Y1202888D01*
X57434278Y1166552D01*
X57452686Y1135577D01*
X57456329Y1132393D01*
X57469259Y1124188D01*
X57486976Y1118479D01*
X57513430Y1114838D01*
X57552568Y1112833D01*
X57608338Y1112036D01*
X57644006Y1111955D01*
X57806445Y1111955D01*
X57806445Y953911D01*
X57559839Y953911D01*
X57478420Y953769D01*
X57416590Y953186D01*
X57371363Y951932D01*
X57339752Y949773D01*
X57318769Y946477D01*
X57305427Y941811D01*
X57296739Y935543D01*
X57294550Y933267D01*
X57278386Y901720D01*
X57277203Y865832D01*
X57290464Y834715D01*
X57300957Y824729D01*
X57311871Y819231D01*
X57328783Y814978D01*
X57354367Y811820D01*
X57391299Y809608D01*
X57442254Y808194D01*
X57509906Y807428D01*
X57596931Y807162D01*
X57616606Y807155D01*
X57705089Y807213D01*
X57773773Y807533D01*
X57825436Y808333D01*
X57862855Y809833D01*
X57888810Y812251D01*
X57906078Y815806D01*
X57917438Y820718D01*
X57925668Y827205D01*
X57930183Y831862D01*
X57936979Y840111D01*
X57942288Y850331D01*
X57946294Y865200D01*
X57949179Y887398D01*
X57951126Y919607D01*
X57952319Y964504D01*
X57952939Y1024772D01*
X57953171Y1103089D01*
X57953200Y1169006D01*
X57953129Y1261372D01*
X57952792Y1333883D01*
X57952002Y1389263D01*
X57950574Y1430235D01*
X57948321Y1459522D01*
X57945057Y1479847D01*
X57940596Y1493934D01*
X57934752Y1504505D01*
X57929803Y1511189D01*
X57906406Y1540933D01*
X57616226Y1540933D01*
X57519657Y1540740D01*
G36*
X56731691Y1540725D02*
G01*
X56602712Y1536364D01*
X56493009Y1523139D01*
X56400774Y1500259D01*
X56324198Y1466930D01*
X56261473Y1422362D01*
X56210788Y1365764D01*
X56170337Y1296342D01*
X56169541Y1294649D01*
X56145399Y1232517D01*
X56136797Y1177491D01*
X56143769Y1122113D01*
X56166346Y1058927D01*
X56170628Y1049311D01*
X56199828Y993034D01*
X56232644Y949549D01*
X56274998Y912583D01*
X56332810Y875865D01*
X56336169Y873948D01*
X56386496Y849773D01*
X56443379Y831718D01*
X56510473Y819161D01*
X56591435Y811478D01*
X56689918Y808047D01*
X56724714Y807749D01*
X56890406Y807155D01*
X56913803Y836900D01*
X56920743Y846681D01*
X56926158Y858103D01*
X56930235Y873905D01*
X56933163Y896825D01*
X56935133Y929604D01*
X56935775Y953911D01*
X56779156Y953911D01*
X56685274Y953911D01*
X56630336Y955517D01*
X56573940Y959745D01*
X56527655Y965708D01*
X56524861Y966210D01*
X56442652Y988264D01*
X56378886Y1021400D01*
X56331548Y1067153D01*
X56298618Y1127061D01*
X56292892Y1142939D01*
X56287279Y1167667D01*
X56289709Y1192098D01*
X56301533Y1224600D01*
X56308660Y1240566D01*
X56332000Y1282994D01*
X56360120Y1312760D01*
X56391060Y1333489D01*
X56453034Y1360463D01*
X56532349Y1380002D01*
X56624747Y1391254D01*
X56691667Y1393730D01*
X56779156Y1394178D01*
X56779156Y953911D01*
X56935775Y953911D01*
X56936332Y974979D01*
X56936950Y1035689D01*
X56937175Y1114474D01*
X56937200Y1176080D01*
X56937200Y1485515D01*
X56909491Y1513224D01*
X56897194Y1524456D01*
X56883897Y1532147D01*
X56865328Y1536960D01*
X56837214Y1539554D01*
X56795283Y1540590D01*
X56735263Y1540730D01*
X56731691Y1540725D01*
G37*
X56731691Y1540725D02*
X56602712Y1536364D01*
X56493009Y1523139D01*
X56400774Y1500259D01*
X56324198Y1466930D01*
X56261473Y1422362D01*
X56210788Y1365764D01*
X56170337Y1296342D01*
X56169541Y1294649D01*
X56145399Y1232517D01*
X56136797Y1177491D01*
X56143769Y1122113D01*
X56166346Y1058927D01*
X56170628Y1049311D01*
X56199828Y993034D01*
X56232644Y949549D01*
X56274998Y912583D01*
X56332810Y875865D01*
X56336169Y873948D01*
X56386496Y849773D01*
X56443379Y831718D01*
X56510473Y819161D01*
X56591435Y811478D01*
X56689918Y808047D01*
X56724714Y807749D01*
X56890406Y807155D01*
X56913803Y836900D01*
X56920743Y846681D01*
X56926158Y858103D01*
X56930235Y873905D01*
X56933163Y896825D01*
X56935133Y929604D01*
X56935775Y953911D01*
X56779156Y953911D01*
X56685274Y953911D01*
X56630336Y955517D01*
X56573940Y959745D01*
X56527655Y965708D01*
X56524861Y966210D01*
X56442652Y988264D01*
X56378886Y1021400D01*
X56331548Y1067153D01*
X56298618Y1127061D01*
X56292892Y1142939D01*
X56287279Y1167667D01*
X56289709Y1192098D01*
X56301533Y1224600D01*
X56308660Y1240566D01*
X56332000Y1282994D01*
X56360120Y1312760D01*
X56391060Y1333489D01*
X56453034Y1360463D01*
X56532349Y1380002D01*
X56624747Y1391254D01*
X56691667Y1393730D01*
X56779156Y1394178D01*
X56779156Y953911D01*
X56935775Y953911D01*
X56936332Y974979D01*
X56936950Y1035689D01*
X56937175Y1114474D01*
X56937200Y1176080D01*
X56937200Y1485515D01*
X56909491Y1513224D01*
X56897194Y1524456D01*
X56883897Y1532147D01*
X56865328Y1536960D01*
X56837214Y1539554D01*
X56795283Y1540590D01*
X56735263Y1540730D01*
X56731691Y1540725D01*
G36*
X54005335Y1538966D02*
G01*
X53985745Y1531965D01*
X53984990Y1531623D01*
X53958387Y1511322D01*
X53943730Y1490439D01*
X53940862Y1480648D01*
X53941004Y1467639D01*
X53945039Y1449105D01*
X53953854Y1422743D01*
X53968331Y1386248D01*
X53989355Y1337313D01*
X54017812Y1273635D01*
X54054585Y1192907D01*
X54074825Y1148784D01*
X54111375Y1070015D01*
X54145685Y997577D01*
X54176448Y934120D01*
X54202352Y882292D01*
X54222090Y844741D01*
X54234350Y824116D01*
X54236776Y821267D01*
X54267817Y808698D01*
X54302879Y810381D01*
X54331000Y825668D01*
X54332146Y826911D01*
X54343332Y843846D01*
X54362096Y876830D01*
X54386125Y921620D01*
X54413103Y973968D01*
X54422799Y993258D01*
X54495986Y1139850D01*
X54575760Y980607D01*
X54604233Y925585D01*
X54630650Y877868D01*
X54652852Y841107D01*
X54668681Y818956D01*
X54674046Y814259D01*
X54715743Y807898D01*
X54750151Y821267D01*
X54760272Y835554D01*
X54777786Y867308D01*
X54801265Y913403D01*
X54829280Y970715D01*
X54860401Y1036120D01*
X54893201Y1106493D01*
X54926250Y1178709D01*
X54958119Y1249645D01*
X54987381Y1316175D01*
X55012605Y1375174D01*
X55032364Y1423519D01*
X55045228Y1458085D01*
X55049769Y1475747D01*
X55049723Y1476387D01*
X55038674Y1498612D01*
X55016590Y1521247D01*
X55015290Y1522232D01*
X54988147Y1537575D01*
X54963042Y1537426D01*
X54953632Y1534534D01*
X54942166Y1528282D01*
X54929990Y1515986D01*
X54915643Y1495092D01*
X54897664Y1463051D01*
X54874593Y1417312D01*
X54844970Y1355323D01*
X54818255Y1298102D01*
X54787520Y1231774D01*
X54759979Y1172126D01*
X54737062Y1122275D01*
X54720202Y1085336D01*
X54710827Y1064427D01*
X54709460Y1061155D01*
X54703311Y1066503D01*
X54689178Y1088891D01*
X54668943Y1125054D01*
X54644485Y1171723D01*
X54634752Y1190978D01*
X54601783Y1255996D01*
X54576357Y1303346D01*
X54556388Y1335781D01*
X54539790Y1356054D01*
X54524476Y1366918D01*
X54508360Y1371125D01*
X54497857Y1371600D01*
X54479330Y1369958D01*
X54463096Y1363169D01*
X54446965Y1348434D01*
X54428749Y1322956D01*
X54406261Y1283939D01*
X54377311Y1228586D01*
X54361338Y1197097D01*
X54335430Y1146913D01*
X54312833Y1105296D01*
X54295542Y1075758D01*
X54285550Y1061811D01*
X54284191Y1061230D01*
X54277739Y1072207D01*
X54263292Y1100710D01*
X54242297Y1143756D01*
X54216203Y1198362D01*
X54186454Y1261546D01*
X54171820Y1292929D01*
X54133750Y1373922D01*
X54103095Y1436244D01*
X54078263Y1481929D01*
X54057663Y1513011D01*
X54039702Y1531522D01*
X54022790Y1539496D01*
X54005335Y1538966D01*
G37*
X54005335Y1538966D02*
X53985745Y1531965D01*
X53984990Y1531623D01*
X53958387Y1511322D01*
X53943730Y1490439D01*
X53940862Y1480648D01*
X53941004Y1467639D01*
X53945039Y1449105D01*
X53953854Y1422743D01*
X53968331Y1386248D01*
X53989355Y1337313D01*
X54017812Y1273635D01*
X54054585Y1192907D01*
X54074825Y1148784D01*
X54111375Y1070015D01*
X54145685Y997577D01*
X54176448Y934120D01*
X54202352Y882292D01*
X54222090Y844741D01*
X54234350Y824116D01*
X54236776Y821267D01*
X54267817Y808698D01*
X54302879Y810381D01*
X54331000Y825668D01*
X54332146Y826911D01*
X54343332Y843846D01*
X54362096Y876830D01*
X54386125Y921620D01*
X54413103Y973968D01*
X54422799Y993258D01*
X54495986Y1139850D01*
X54575760Y980607D01*
X54604233Y925585D01*
X54630650Y877868D01*
X54652852Y841107D01*
X54668681Y818956D01*
X54674046Y814259D01*
X54715743Y807898D01*
X54750151Y821267D01*
X54760272Y835554D01*
X54777786Y867308D01*
X54801265Y913403D01*
X54829280Y970715D01*
X54860401Y1036120D01*
X54893201Y1106493D01*
X54926250Y1178709D01*
X54958119Y1249645D01*
X54987381Y1316175D01*
X55012605Y1375174D01*
X55032364Y1423519D01*
X55045228Y1458085D01*
X55049769Y1475747D01*
X55049723Y1476387D01*
X55038674Y1498612D01*
X55016590Y1521247D01*
X55015290Y1522232D01*
X54988147Y1537575D01*
X54963042Y1537426D01*
X54953632Y1534534D01*
X54942166Y1528282D01*
X54929990Y1515986D01*
X54915643Y1495092D01*
X54897664Y1463051D01*
X54874593Y1417312D01*
X54844970Y1355323D01*
X54818255Y1298102D01*
X54787520Y1231774D01*
X54759979Y1172126D01*
X54737062Y1122275D01*
X54720202Y1085336D01*
X54710827Y1064427D01*
X54709460Y1061155D01*
X54703311Y1066503D01*
X54689178Y1088891D01*
X54668943Y1125054D01*
X54644485Y1171723D01*
X54634752Y1190978D01*
X54601783Y1255996D01*
X54576357Y1303346D01*
X54556388Y1335781D01*
X54539790Y1356054D01*
X54524476Y1366918D01*
X54508360Y1371125D01*
X54497857Y1371600D01*
X54479330Y1369958D01*
X54463096Y1363169D01*
X54446965Y1348434D01*
X54428749Y1322956D01*
X54406261Y1283939D01*
X54377311Y1228586D01*
X54361338Y1197097D01*
X54335430Y1146913D01*
X54312833Y1105296D01*
X54295542Y1075758D01*
X54285550Y1061811D01*
X54284191Y1061230D01*
X54277739Y1072207D01*
X54263292Y1100710D01*
X54242297Y1143756D01*
X54216203Y1198362D01*
X54186454Y1261546D01*
X54171820Y1292929D01*
X54133750Y1373922D01*
X54103095Y1436244D01*
X54078263Y1481929D01*
X54057663Y1513011D01*
X54039702Y1531522D01*
X54022790Y1539496D01*
X54005335Y1538966D01*
G36*
X53561386Y1534123D02*
G01*
X53537673Y1519353D01*
X53511022Y1497773D01*
X53511022Y1176227D01*
X53511107Y1082170D01*
X53511471Y1008068D01*
X53512276Y951296D01*
X53513687Y909232D01*
X53515867Y879252D01*
X53518979Y858733D01*
X53523186Y845051D01*
X53528652Y835584D01*
X53532528Y830918D01*
X53563966Y810425D01*
X53599767Y811261D01*
X53631127Y828736D01*
X53657778Y850316D01*
X53657778Y1497773D01*
X53631127Y1519353D01*
X53605406Y1535051D01*
X53584400Y1540933D01*
X53561386Y1534123D01*
G37*
X53561386Y1534123D02*
X53537673Y1519353D01*
X53511022Y1497773D01*
X53511022Y1176227D01*
X53511107Y1082170D01*
X53511471Y1008068D01*
X53512276Y951296D01*
X53513687Y909232D01*
X53515867Y879252D01*
X53518979Y858733D01*
X53523186Y845051D01*
X53528652Y835584D01*
X53532528Y830918D01*
X53563966Y810425D01*
X53599767Y811261D01*
X53631127Y828736D01*
X53657778Y850316D01*
X53657778Y1497773D01*
X53631127Y1519353D01*
X53605406Y1535051D01*
X53584400Y1540933D01*
X53561386Y1534123D01*
G36*
X52786935Y1540837D02*
G01*
X52708228Y1540458D01*
X52647137Y1539667D01*
X52601183Y1538330D01*
X52567886Y1536317D01*
X52544764Y1533494D01*
X52529338Y1529731D01*
X52519129Y1524895D01*
X52514187Y1521178D01*
X52488543Y1488642D01*
X52485441Y1454862D01*
X52501289Y1424174D01*
X52511652Y1411911D01*
X52522804Y1403550D01*
X52538965Y1398343D01*
X52564358Y1395543D01*
X52603202Y1394404D01*
X52659720Y1394179D01*
X52670820Y1394178D01*
X52816756Y1394178D01*
X52816756Y1123244D01*
X52816852Y1037846D01*
X52817289Y972136D01*
X52818288Y923226D01*
X52820072Y888227D01*
X52822863Y864251D01*
X52826883Y848407D01*
X52832355Y837809D01*
X52839334Y829733D01*
X52872266Y809888D01*
X52906646Y811452D01*
X52937824Y834094D01*
X52940114Y836900D01*
X52947571Y847508D01*
X52953253Y859919D01*
X52957399Y877150D01*
X52960250Y902216D01*
X52962046Y938133D01*
X52963028Y987917D01*
X52963436Y1054583D01*
X52963511Y1130411D01*
X52963511Y1394178D01*
X53102873Y1394178D01*
X53162678Y1394582D01*
X53204082Y1396160D01*
X53231252Y1399453D01*
X53248354Y1405008D01*
X53259557Y1413369D01*
X53260917Y1414822D01*
X53277275Y1448061D01*
X53275828Y1485638D01*
X53257022Y1518355D01*
X53249750Y1524702D01*
X53240373Y1529734D01*
X53226391Y1533604D01*
X53205304Y1536463D01*
X53174611Y1538465D01*
X53131811Y1539761D01*
X53074405Y1540502D01*
X52999890Y1540842D01*
X52905767Y1540932D01*
X52885740Y1540933D01*
X52786935Y1540837D01*
G37*
X52786935Y1540837D02*
X52708228Y1540458D01*
X52647137Y1539667D01*
X52601183Y1538330D01*
X52567886Y1536317D01*
X52544764Y1533494D01*
X52529338Y1529731D01*
X52519129Y1524895D01*
X52514187Y1521178D01*
X52488543Y1488642D01*
X52485441Y1454862D01*
X52501289Y1424174D01*
X52511652Y1411911D01*
X52522804Y1403550D01*
X52538965Y1398343D01*
X52564358Y1395543D01*
X52603202Y1394404D01*
X52659720Y1394179D01*
X52670820Y1394178D01*
X52816756Y1394178D01*
X52816756Y1123244D01*
X52816852Y1037846D01*
X52817289Y972136D01*
X52818288Y923226D01*
X52820072Y888227D01*
X52822863Y864251D01*
X52826883Y848407D01*
X52832355Y837809D01*
X52839334Y829733D01*
X52872266Y809888D01*
X52906646Y811452D01*
X52937824Y834094D01*
X52940114Y836900D01*
X52947571Y847508D01*
X52953253Y859919D01*
X52957399Y877150D01*
X52960250Y902216D01*
X52962046Y938133D01*
X52963028Y987917D01*
X52963436Y1054583D01*
X52963511Y1130411D01*
X52963511Y1394178D01*
X53102873Y1394178D01*
X53162678Y1394582D01*
X53204082Y1396160D01*
X53231252Y1399453D01*
X53248354Y1405008D01*
X53259557Y1413369D01*
X53260917Y1414822D01*
X53277275Y1448061D01*
X53275828Y1485638D01*
X53257022Y1518355D01*
X53249750Y1524702D01*
X53240373Y1529734D01*
X53226391Y1533604D01*
X53205304Y1536463D01*
X53174611Y1538465D01*
X53131811Y1539761D01*
X53074405Y1540502D01*
X52999890Y1540842D01*
X52905767Y1540932D01*
X52885740Y1540933D01*
X52786935Y1540837D01*
G36*
X51521177Y1535467D02*
G01*
X51489798Y1513224D01*
X51462089Y1485515D01*
X51462089Y1176080D01*
X51462162Y1084201D01*
X51462505Y1012160D01*
X51463308Y957220D01*
X51464759Y916640D01*
X51467048Y887683D01*
X51470364Y867609D01*
X51474895Y853679D01*
X51480831Y843155D01*
X51485486Y836900D01*
X51516217Y812327D01*
X51551504Y809659D01*
X51583755Y824729D01*
X51594412Y833626D01*
X51601536Y845443D01*
X51605833Y864474D01*
X51608009Y895008D01*
X51608772Y941338D01*
X51608845Y977129D01*
X51608845Y1111955D01*
X52105556Y1111955D01*
X52105556Y989300D01*
X52106069Y933213D01*
X52108124Y894667D01*
X52112492Y868639D01*
X52119944Y850103D01*
X52128953Y836900D01*
X52159856Y812396D01*
X52194804Y809494D01*
X52228262Y826911D01*
X52237396Y836041D01*
X52243848Y848145D01*
X52248103Y866999D01*
X52250648Y896380D01*
X52251971Y940063D01*
X52252557Y1001825D01*
X52252625Y1016000D01*
X52253109Y1132369D01*
X52253359Y1228273D01*
X52253277Y1305823D01*
X52252769Y1367131D01*
X52251738Y1414310D01*
X52250087Y1449470D01*
X52247721Y1474724D01*
X52244543Y1492183D01*
X52240456Y1503959D01*
X52235366Y1512165D01*
X52229734Y1518355D01*
X52197872Y1538156D01*
X52164643Y1535467D01*
X52133265Y1513224D01*
X52120567Y1498874D01*
X52112474Y1483022D01*
X52107958Y1460446D01*
X52105994Y1425922D01*
X52105556Y1374224D01*
X52105556Y1258711D01*
X51608845Y1258711D01*
X51608845Y1377244D01*
X51608338Y1431852D01*
X51606302Y1468725D01*
X51601965Y1492693D01*
X51594553Y1508585D01*
X51586267Y1518355D01*
X51554406Y1538156D01*
X51521177Y1535467D01*
G37*
X51521177Y1535467D02*
X51489798Y1513224D01*
X51462089Y1485515D01*
X51462089Y1176080D01*
X51462162Y1084201D01*
X51462505Y1012160D01*
X51463308Y957220D01*
X51464759Y916640D01*
X51467048Y887683D01*
X51470364Y867609D01*
X51474895Y853679D01*
X51480831Y843155D01*
X51485486Y836900D01*
X51516217Y812327D01*
X51551504Y809659D01*
X51583755Y824729D01*
X51594412Y833626D01*
X51601536Y845443D01*
X51605833Y864474D01*
X51608009Y895008D01*
X51608772Y941338D01*
X51608845Y977129D01*
X51608845Y1111955D01*
X52105556Y1111955D01*
X52105556Y989300D01*
X52106069Y933213D01*
X52108124Y894667D01*
X52112492Y868639D01*
X52119944Y850103D01*
X52128953Y836900D01*
X52159856Y812396D01*
X52194804Y809494D01*
X52228262Y826911D01*
X52237396Y836041D01*
X52243848Y848145D01*
X52248103Y866999D01*
X52250648Y896380D01*
X52251971Y940063D01*
X52252557Y1001825D01*
X52252625Y1016000D01*
X52253109Y1132369D01*
X52253359Y1228273D01*
X52253277Y1305823D01*
X52252769Y1367131D01*
X52251738Y1414310D01*
X52250087Y1449470D01*
X52247721Y1474724D01*
X52244543Y1492183D01*
X52240456Y1503959D01*
X52235366Y1512165D01*
X52229734Y1518355D01*
X52197872Y1538156D01*
X52164643Y1535467D01*
X52133265Y1513224D01*
X52120567Y1498874D01*
X52112474Y1483022D01*
X52107958Y1460446D01*
X52105994Y1425922D01*
X52105556Y1374224D01*
X52105556Y1258711D01*
X51608845Y1258711D01*
X51608845Y1377244D01*
X51608338Y1431852D01*
X51606302Y1468725D01*
X51601965Y1492693D01*
X51594553Y1508585D01*
X51586267Y1518355D01*
X51554406Y1538156D01*
X51521177Y1535467D01*
G36*
X44502178Y732178D02*
G01*
X48022971Y732178D01*
X48022971Y1599802D01*
X44502178Y1599802D01*
X44502178Y732178D01*
G37*
X44502178Y732178D02*
X48022971Y732178D01*
X48022971Y1599802D01*
X44502178Y1599802D01*
X44502178Y732178D01*
G36*
X44125570Y6685152D02*
G01*
X44126189Y6598069D01*
X44577914Y6139109D01*
X45029639Y5680148D01*
X45029968Y5469529D01*
X45030297Y5258911D01*
X45305390Y5258911D01*
X45312478Y5205470D01*
X45315162Y5181112D01*
X45319687Y5135241D01*
X45325809Y5070595D01*
X45333288Y4989909D01*
X45341881Y4895919D01*
X45351346Y4791363D01*
X45361442Y4678975D01*
X45371926Y4561493D01*
X45382556Y4441652D01*
X45393091Y4322189D01*
X45403287Y4205841D01*
X45412905Y4095343D01*
X45421700Y3993431D01*
X45429432Y3902842D01*
X45435858Y3826313D01*
X45440737Y3766579D01*
X45443825Y3726376D01*
X45444883Y3708441D01*
X45444882Y3708356D01*
X45437173Y3693965D01*
X45414019Y3664252D01*
X45375105Y3618869D01*
X45320116Y3557471D01*
X45248736Y3479712D01*
X45160651Y3385246D01*
X45055546Y3273728D01*
X44933105Y3144812D01*
X44898690Y3108713D01*
X44352863Y2536584D01*
X44441119Y2448564D01*
X44512515Y2526242D01*
X44538634Y2554314D01*
X44579434Y2597726D01*
X44632223Y2653634D01*
X44694309Y2719192D01*
X44763000Y2791559D01*
X44835604Y2867888D01*
X44879040Y2913476D01*
X44960584Y2998881D01*
X45026496Y3067290D01*
X45078456Y3119947D01*
X45118145Y3158095D01*
X45147243Y3182980D01*
X45167431Y3195844D01*
X45180390Y3197932D01*
X45187800Y3190487D01*
X45191342Y3174754D01*
X45192697Y3151977D01*
X45192879Y3145761D01*
X45202297Y3102939D01*
X45225503Y3051181D01*
X45257864Y2998672D01*
X45294748Y2953597D01*
X45309507Y2939672D01*
X45385233Y2890953D01*
X45473692Y2863694D01*
X45551900Y2857227D01*
X45640532Y2869424D01*
X45722388Y2905187D01*
X45794836Y2963278D01*
X45808203Y2977738D01*
X45857082Y3033267D01*
X46702674Y3033267D01*
X46702674Y2857227D01*
X46929010Y2857227D01*
X46929010Y2939469D01*
X46931850Y2995614D01*
X46941393Y3034584D01*
X46952991Y3055781D01*
X46961277Y3070948D01*
X46968373Y3092938D01*
X46974748Y3125013D01*
X46980872Y3170431D01*
X46987216Y3232452D01*
X46994250Y3314338D01*
X46999066Y3375254D01*
X47021161Y3660657D01*
X47563565Y3111195D01*
X47661637Y3011772D01*
X47755784Y2916185D01*
X47844285Y2826190D01*
X47925420Y2743543D01*
X47997469Y2669999D01*
X48058712Y2607316D01*
X48107427Y2557248D01*
X48141896Y2521552D01*
X48160379Y2502005D01*
X48190743Y2471056D01*
X48216071Y2449470D01*
X48229695Y2442277D01*
X48247095Y2450703D01*
X48272460Y2471755D01*
X48281058Y2480329D01*
X48317514Y2518380D01*
X48116802Y2722342D01*
X48065596Y2774301D01*
X47999569Y2841180D01*
X47921618Y2920050D01*
X47834638Y3007986D01*
X47741526Y3102059D01*
X47645179Y3199342D01*
X47548492Y3296907D01*
X47479134Y3366855D01*
X47373703Y3473450D01*
X47285129Y3563693D01*
X47212281Y3638808D01*
X47154023Y3700014D01*
X47109225Y3748534D01*
X47087021Y3773871D01*
X46908724Y3773871D01*
X46886401Y3488445D01*
X46879669Y3404781D01*
X46873157Y3328273D01*
X46867234Y3262919D01*
X46862268Y3212719D01*
X46858629Y3181671D01*
X46857458Y3174727D01*
X46850838Y3146435D01*
X45901364Y3146435D01*
X45895026Y3225394D01*
X45875890Y3318685D01*
X45835846Y3401209D01*
X45777418Y3469962D01*
X45703129Y3521937D01*
X45619748Y3553137D01*
X45592698Y3567772D01*
X45579156Y3599181D01*
X45578872Y3600566D01*
X45577247Y3613826D01*
X45579256Y3627405D01*
X45586858Y3643819D01*
X45602016Y3665589D01*
X45626688Y3695233D01*
X45662836Y3735268D01*
X45712420Y3788215D01*
X45777401Y3856591D01*
X45781599Y3860995D01*
X45851493Y3934389D01*
X45925800Y4012563D01*
X45999414Y4090136D01*
X46067229Y4161725D01*
X46124140Y4221949D01*
X46136832Y4235413D01*
X46185487Y4286180D01*
X46228709Y4329625D01*
X46263395Y4362759D01*
X46286444Y4382595D01*
X46294182Y4386954D01*
X46305722Y4377830D01*
X46332710Y4352800D01*
X46373021Y4313948D01*
X46424529Y4263357D01*
X46485109Y4203112D01*
X46552636Y4135296D01*
X46607826Y4079435D01*
X46908724Y3773871D01*
X47087021Y3773871D01*
X47076751Y3785589D01*
X47055471Y3812401D01*
X47044251Y3830192D01*
X47041754Y3838430D01*
X47042700Y3856410D01*
X47045573Y3897108D01*
X47050187Y3958181D01*
X47056358Y4037287D01*
X47063898Y4132086D01*
X47072621Y4240233D01*
X47082343Y4359388D01*
X47092876Y4487209D01*
X47101365Y4589365D01*
X47149396Y5165326D01*
X47025805Y5165326D01*
X47025273Y5152896D01*
X47022769Y5117890D01*
X47018496Y5062785D01*
X47012653Y4990057D01*
X47005443Y4902186D01*
X46997066Y4801649D01*
X46987723Y4690923D01*
X46978758Y4585795D01*
X46968602Y4466517D01*
X46959142Y4353920D01*
X46950596Y4250695D01*
X46943179Y4159527D01*
X46937108Y4083105D01*
X46932601Y4024117D01*
X46929873Y3985251D01*
X46929116Y3970156D01*
X46927935Y3960762D01*
X46923256Y3957034D01*
X46913276Y3960529D01*
X46896190Y3972801D01*
X46870196Y3995406D01*
X46833490Y4029900D01*
X46784267Y4077838D01*
X46720726Y4140776D01*
X46653305Y4208032D01*
X46377601Y4483523D01*
X46379533Y4485594D01*
X46197290Y4485594D01*
X46188984Y4474220D01*
X46165733Y4447437D01*
X46129865Y4407708D01*
X46083713Y4357493D01*
X46029606Y4299254D01*
X45969874Y4235453D01*
X45906848Y4168551D01*
X45842858Y4101010D01*
X45780236Y4035290D01*
X45721310Y3973854D01*
X45668412Y3919163D01*
X45623872Y3873678D01*
X45590020Y3839862D01*
X45569188Y3820174D01*
X45563506Y3816163D01*
X45561634Y3829109D01*
X45557746Y3864866D01*
X45552057Y3921196D01*
X45544781Y3995860D01*
X45536131Y4086620D01*
X45526322Y4191238D01*
X45515566Y4307474D01*
X45504079Y4433092D01*
X45494907Y4534382D01*
X45483174Y4665721D01*
X45472335Y4789448D01*
X45462570Y4903319D01*
X45454063Y5005089D01*
X45446995Y5092513D01*
X45441549Y5163347D01*
X45437908Y5215347D01*
X45436253Y5246268D01*
X45436442Y5254297D01*
X45446334Y5247146D01*
X45471524Y5224159D01*
X45509810Y5187561D01*
X45558989Y5139578D01*
X45616861Y5082434D01*
X45681222Y5018353D01*
X45749871Y4949562D01*
X45820605Y4878284D01*
X45891222Y4806745D01*
X45959520Y4737170D01*
X46023296Y4671783D01*
X46080350Y4612809D01*
X46128478Y4562473D01*
X46165478Y4523001D01*
X46189148Y4496617D01*
X46197290Y4485594D01*
X46379533Y4485594D01*
X46480409Y4593705D01*
X46532768Y4649623D01*
X46591535Y4712052D01*
X46654385Y4778557D01*
X46718995Y4846702D01*
X46783042Y4914052D01*
X46844203Y4978172D01*
X46900153Y5036628D01*
X46948570Y5086982D01*
X46987130Y5126802D01*
X47013509Y5153650D01*
X47025384Y5165092D01*
X47025805Y5165326D01*
X47149396Y5165326D01*
X47161401Y5309274D01*
X47761938Y5940842D01*
X48362475Y6572411D01*
X48362034Y6660685D01*
X48361592Y6748960D01*
X48264583Y6645334D01*
X48210291Y6587537D01*
X48146192Y6519632D01*
X48074016Y6443428D01*
X47995492Y6360731D01*
X47912349Y6273347D01*
X47826319Y6183085D01*
X47739130Y6091750D01*
X47652513Y6001151D01*
X47568197Y5913093D01*
X47487912Y5829385D01*
X47413387Y5751833D01*
X47346354Y5682243D01*
X47288541Y5622424D01*
X47241679Y5574182D01*
X47207496Y5539324D01*
X47187724Y5519657D01*
X47183390Y5515884D01*
X47183092Y5529008D01*
X47184731Y5562611D01*
X47188023Y5612120D01*
X47192682Y5672963D01*
X47194682Y5697268D01*
X47209577Y5875049D01*
X47092955Y5875049D01*
X47086934Y5846757D01*
X47083863Y5824382D01*
X47079548Y5782283D01*
X47074488Y5725822D01*
X47069181Y5660365D01*
X47067344Y5636138D01*
X47061927Y5566579D01*
X47056459Y5501982D01*
X47051488Y5448452D01*
X47047561Y5412090D01*
X47046675Y5405491D01*
X47043334Y5391944D01*
X47036101Y5376086D01*
X47023440Y5356139D01*
X47003811Y5330327D01*
X46975678Y5296871D01*
X46937502Y5253993D01*
X46887746Y5199917D01*
X46824871Y5132864D01*
X46747341Y5051057D01*
X46668251Y4968050D01*
X46589564Y4885906D01*
X46516112Y4809831D01*
X46449724Y4741675D01*
X46392227Y4683288D01*
X46345451Y4636519D01*
X46311224Y4603218D01*
X46291373Y4585233D01*
X46287140Y4582558D01*
X46276003Y4592259D01*
X46249971Y4617559D01*
X46211570Y4655918D01*
X46163328Y4704800D01*
X46107770Y4761666D01*
X46067592Y4803094D01*
X45857831Y5020000D01*
X46476337Y5020000D01*
X46476337Y5258911D01*
X45721881Y5258911D01*
X45721881Y5152458D01*
X45583565Y5290346D01*
X45485447Y5388160D01*
X45294357Y5388160D01*
X45292529Y5372730D01*
X45283277Y5364133D01*
X45260950Y5360387D01*
X45219895Y5359511D01*
X45212624Y5359505D01*
X45130891Y5359505D01*
X45130891Y5578828D01*
X45212624Y5497821D01*
X45258730Y5448572D01*
X45286306Y5410841D01*
X45294357Y5388160D01*
X45485447Y5388160D01*
X45445248Y5428234D01*
X45445248Y5551048D01*
X45444863Y5607550D01*
X45443100Y5643495D01*
X45439050Y5663470D01*
X45431801Y5672063D01*
X45420870Y5673861D01*
X45408712Y5676502D01*
X45399727Y5687088D01*
X45392826Y5709619D01*
X45386924Y5748091D01*
X45380935Y5806502D01*
X45379013Y5827896D01*
X45374852Y5875049D01*
X47092955Y5875049D01*
X47209577Y5875049D01*
X47369109Y5875049D01*
X47369109Y5988218D01*
X47301314Y5988218D01*
X47261662Y5989304D01*
X47240116Y5994546D01*
X47237480Y5997666D01*
X47098616Y5997666D01*
X47091308Y5990538D01*
X47065993Y5988338D01*
X47048908Y5988218D01*
X46991881Y5988218D01*
X46779221Y5988218D01*
X45364698Y5988218D01*
X45412542Y6037214D01*
X45486850Y6097676D01*
X45578816Y6144309D01*
X45689998Y6177751D01*
X45800471Y6196247D01*
X45872773Y6204878D01*
X45872773Y6113960D01*
X46451188Y6113960D01*
X46451188Y6217107D01*
X46536065Y6208504D01*
X46595368Y6201244D01*
X46658551Y6191621D01*
X46696386Y6184748D01*
X46771832Y6169593D01*
X46775526Y6078905D01*
X46779221Y5988218D01*
X46991881Y5988218D01*
X46991881Y6038515D01*
X46993544Y6070024D01*
X46997697Y6087537D01*
X46999371Y6088812D01*
X47017987Y6080746D01*
X47045183Y6061180D01*
X47072448Y6037056D01*
X47091267Y6015318D01*
X47092943Y6012492D01*
X47098616Y5997666D01*
X47237480Y5997666D01*
X47229662Y6006919D01*
X47225442Y6020396D01*
X47208219Y6055373D01*
X47175138Y6097421D01*
X47131893Y6140644D01*
X47084174Y6179146D01*
X47052830Y6199199D01*
X47017123Y6221149D01*
X46998819Y6239589D01*
X46992388Y6261332D01*
X46991894Y6274282D01*
X46991894Y6277425D01*
X46350594Y6277425D01*
X46350594Y6214554D01*
X45973367Y6214554D01*
X45973367Y6277425D01*
X46350594Y6277425D01*
X46991894Y6277425D01*
X46991881Y6315148D01*
X46886048Y6315148D01*
X46837355Y6313971D01*
X46799405Y6310835D01*
X46778308Y6306329D01*
X46776023Y6304505D01*
X46762641Y6301705D01*
X46730074Y6302852D01*
X46683916Y6307607D01*
X46652376Y6311997D01*
X46595188Y6320622D01*
X46542886Y6328409D01*
X46503582Y6334153D01*
X46492055Y6335785D01*
X46461937Y6345112D01*
X46451188Y6359728D01*
X46447920Y6365680D01*
X46436230Y6370222D01*
X46413288Y6373530D01*
X46376265Y6375785D01*
X46322332Y6377166D01*
X46248660Y6377850D01*
X46161980Y6378020D01*
X46069471Y6377923D01*
X45999094Y6377470D01*
X45947836Y6376410D01*
X45912680Y6374497D01*
X45890611Y6371481D01*
X45878615Y6367115D01*
X45873676Y6361151D01*
X45872773Y6354216D01*
X45865079Y6332205D01*
X45839879Y6319679D01*
X45793991Y6315212D01*
X45785736Y6315148D01*
X45708027Y6307132D01*
X45619767Y6285064D01*
X45528915Y6251916D01*
X45443430Y6210661D01*
X45371274Y6164269D01*
X45361928Y6156918D01*
X45331467Y6133002D01*
X45313428Y6123424D01*
X45300831Y6126520D01*
X45287900Y6139296D01*
X45249707Y6164322D01*
X45200002Y6173929D01*
X45146476Y6168933D01*
X45096822Y6150149D01*
X45058733Y6118394D01*
X45055975Y6114703D01*
X45027474Y6055425D01*
X45022172Y5994066D01*
X45039482Y5935573D01*
X45078820Y5884896D01*
X45083630Y5880711D01*
X45111560Y5860833D01*
X45139898Y5852079D01*
X45179737Y5851447D01*
X45189689Y5852008D01*
X45228668Y5853438D01*
X45248746Y5850161D01*
X45256015Y5840272D01*
X45256760Y5831039D01*
X45258284Y5804256D01*
X45262065Y5763975D01*
X45264782Y5739876D01*
X45268723Y5701599D01*
X45267084Y5682004D01*
X45257579Y5674842D01*
X45240649Y5673861D01*
X45230608Y5677099D01*
X45214410Y5687580D01*
X45190855Y5706452D01*
X45158743Y5734865D01*
X45116872Y5773965D01*
X45064043Y5824903D01*
X44999055Y5888827D01*
X44920709Y5966886D01*
X44827803Y6060228D01*
X44719137Y6170002D01*
X44666769Y6223048D01*
X44124951Y6772233D01*
X44125570Y6685152D01*
G37*
X44125570Y6685152D02*
X44126189Y6598069D01*
X44577914Y6139109D01*
X45029639Y5680148D01*
X45029968Y5469529D01*
X45030297Y5258911D01*
X45305390Y5258911D01*
X45312478Y5205470D01*
X45315162Y5181112D01*
X45319687Y5135241D01*
X45325809Y5070595D01*
X45333288Y4989909D01*
X45341881Y4895919D01*
X45351346Y4791363D01*
X45361442Y4678975D01*
X45371926Y4561493D01*
X45382556Y4441652D01*
X45393091Y4322189D01*
X45403287Y4205841D01*
X45412905Y4095343D01*
X45421700Y3993431D01*
X45429432Y3902842D01*
X45435858Y3826313D01*
X45440737Y3766579D01*
X45443825Y3726376D01*
X45444883Y3708441D01*
X45444882Y3708356D01*
X45437173Y3693965D01*
X45414019Y3664252D01*
X45375105Y3618869D01*
X45320116Y3557471D01*
X45248736Y3479712D01*
X45160651Y3385246D01*
X45055546Y3273728D01*
X44933105Y3144812D01*
X44898690Y3108713D01*
X44352863Y2536584D01*
X44441119Y2448564D01*
X44512515Y2526242D01*
X44538634Y2554314D01*
X44579434Y2597726D01*
X44632223Y2653634D01*
X44694309Y2719192D01*
X44763000Y2791559D01*
X44835604Y2867888D01*
X44879040Y2913476D01*
X44960584Y2998881D01*
X45026496Y3067290D01*
X45078456Y3119947D01*
X45118145Y3158095D01*
X45147243Y3182980D01*
X45167431Y3195844D01*
X45180390Y3197932D01*
X45187800Y3190487D01*
X45191342Y3174754D01*
X45192697Y3151977D01*
X45192879Y3145761D01*
X45202297Y3102939D01*
X45225503Y3051181D01*
X45257864Y2998672D01*
X45294748Y2953597D01*
X45309507Y2939672D01*
X45385233Y2890953D01*
X45473692Y2863694D01*
X45551900Y2857227D01*
X45640532Y2869424D01*
X45722388Y2905187D01*
X45794836Y2963278D01*
X45808203Y2977738D01*
X45857082Y3033267D01*
X46702674Y3033267D01*
X46702674Y2857227D01*
X46929010Y2857227D01*
X46929010Y2939469D01*
X46931850Y2995614D01*
X46941393Y3034584D01*
X46952991Y3055781D01*
X46961277Y3070948D01*
X46968373Y3092938D01*
X46974748Y3125013D01*
X46980872Y3170431D01*
X46987216Y3232452D01*
X46994250Y3314338D01*
X46999066Y3375254D01*
X47021161Y3660657D01*
X47563565Y3111195D01*
X47661637Y3011772D01*
X47755784Y2916185D01*
X47844285Y2826190D01*
X47925420Y2743543D01*
X47997469Y2669999D01*
X48058712Y2607316D01*
X48107427Y2557248D01*
X48141896Y2521552D01*
X48160379Y2502005D01*
X48190743Y2471056D01*
X48216071Y2449470D01*
X48229695Y2442277D01*
X48247095Y2450703D01*
X48272460Y2471755D01*
X48281058Y2480329D01*
X48317514Y2518380D01*
X48116802Y2722342D01*
X48065596Y2774301D01*
X47999569Y2841180D01*
X47921618Y2920050D01*
X47834638Y3007986D01*
X47741526Y3102059D01*
X47645179Y3199342D01*
X47548492Y3296907D01*
X47479134Y3366855D01*
X47373703Y3473450D01*
X47285129Y3563693D01*
X47212281Y3638808D01*
X47154023Y3700014D01*
X47109225Y3748534D01*
X47087021Y3773871D01*
X46908724Y3773871D01*
X46886401Y3488445D01*
X46879669Y3404781D01*
X46873157Y3328273D01*
X46867234Y3262919D01*
X46862268Y3212719D01*
X46858629Y3181671D01*
X46857458Y3174727D01*
X46850838Y3146435D01*
X45901364Y3146435D01*
X45895026Y3225394D01*
X45875890Y3318685D01*
X45835846Y3401209D01*
X45777418Y3469962D01*
X45703129Y3521937D01*
X45619748Y3553137D01*
X45592698Y3567772D01*
X45579156Y3599181D01*
X45578872Y3600566D01*
X45577247Y3613826D01*
X45579256Y3627405D01*
X45586858Y3643819D01*
X45602016Y3665589D01*
X45626688Y3695233D01*
X45662836Y3735268D01*
X45712420Y3788215D01*
X45777401Y3856591D01*
X45781599Y3860995D01*
X45851493Y3934389D01*
X45925800Y4012563D01*
X45999414Y4090136D01*
X46067229Y4161725D01*
X46124140Y4221949D01*
X46136832Y4235413D01*
X46185487Y4286180D01*
X46228709Y4329625D01*
X46263395Y4362759D01*
X46286444Y4382595D01*
X46294182Y4386954D01*
X46305722Y4377830D01*
X46332710Y4352800D01*
X46373021Y4313948D01*
X46424529Y4263357D01*
X46485109Y4203112D01*
X46552636Y4135296D01*
X46607826Y4079435D01*
X46908724Y3773871D01*
X47087021Y3773871D01*
X47076751Y3785589D01*
X47055471Y3812401D01*
X47044251Y3830192D01*
X47041754Y3838430D01*
X47042700Y3856410D01*
X47045573Y3897108D01*
X47050187Y3958181D01*
X47056358Y4037287D01*
X47063898Y4132086D01*
X47072621Y4240233D01*
X47082343Y4359388D01*
X47092876Y4487209D01*
X47101365Y4589365D01*
X47149396Y5165326D01*
X47025805Y5165326D01*
X47025273Y5152896D01*
X47022769Y5117890D01*
X47018496Y5062785D01*
X47012653Y4990057D01*
X47005443Y4902186D01*
X46997066Y4801649D01*
X46987723Y4690923D01*
X46978758Y4585795D01*
X46968602Y4466517D01*
X46959142Y4353920D01*
X46950596Y4250695D01*
X46943179Y4159527D01*
X46937108Y4083105D01*
X46932601Y4024117D01*
X46929873Y3985251D01*
X46929116Y3970156D01*
X46927935Y3960762D01*
X46923256Y3957034D01*
X46913276Y3960529D01*
X46896190Y3972801D01*
X46870196Y3995406D01*
X46833490Y4029900D01*
X46784267Y4077838D01*
X46720726Y4140776D01*
X46653305Y4208032D01*
X46377601Y4483523D01*
X46379533Y4485594D01*
X46197290Y4485594D01*
X46188984Y4474220D01*
X46165733Y4447437D01*
X46129865Y4407708D01*
X46083713Y4357493D01*
X46029606Y4299254D01*
X45969874Y4235453D01*
X45906848Y4168551D01*
X45842858Y4101010D01*
X45780236Y4035290D01*
X45721310Y3973854D01*
X45668412Y3919163D01*
X45623872Y3873678D01*
X45590020Y3839862D01*
X45569188Y3820174D01*
X45563506Y3816163D01*
X45561634Y3829109D01*
X45557746Y3864866D01*
X45552057Y3921196D01*
X45544781Y3995860D01*
X45536131Y4086620D01*
X45526322Y4191238D01*
X45515566Y4307474D01*
X45504079Y4433092D01*
X45494907Y4534382D01*
X45483174Y4665721D01*
X45472335Y4789448D01*
X45462570Y4903319D01*
X45454063Y5005089D01*
X45446995Y5092513D01*
X45441549Y5163347D01*
X45437908Y5215347D01*
X45436253Y5246268D01*
X45436442Y5254297D01*
X45446334Y5247146D01*
X45471524Y5224159D01*
X45509810Y5187561D01*
X45558989Y5139578D01*
X45616861Y5082434D01*
X45681222Y5018353D01*
X45749871Y4949562D01*
X45820605Y4878284D01*
X45891222Y4806745D01*
X45959520Y4737170D01*
X46023296Y4671783D01*
X46080350Y4612809D01*
X46128478Y4562473D01*
X46165478Y4523001D01*
X46189148Y4496617D01*
X46197290Y4485594D01*
X46379533Y4485594D01*
X46480409Y4593705D01*
X46532768Y4649623D01*
X46591535Y4712052D01*
X46654385Y4778557D01*
X46718995Y4846702D01*
X46783042Y4914052D01*
X46844203Y4978172D01*
X46900153Y5036628D01*
X46948570Y5086982D01*
X46987130Y5126802D01*
X47013509Y5153650D01*
X47025384Y5165092D01*
X47025805Y5165326D01*
X47149396Y5165326D01*
X47161401Y5309274D01*
X47761938Y5940842D01*
X48362475Y6572411D01*
X48362034Y6660685D01*
X48361592Y6748960D01*
X48264583Y6645334D01*
X48210291Y6587537D01*
X48146192Y6519632D01*
X48074016Y6443428D01*
X47995492Y6360731D01*
X47912349Y6273347D01*
X47826319Y6183085D01*
X47739130Y6091750D01*
X47652513Y6001151D01*
X47568197Y5913093D01*
X47487912Y5829385D01*
X47413387Y5751833D01*
X47346354Y5682243D01*
X47288541Y5622424D01*
X47241679Y5574182D01*
X47207496Y5539324D01*
X47187724Y5519657D01*
X47183390Y5515884D01*
X47183092Y5529008D01*
X47184731Y5562611D01*
X47188023Y5612120D01*
X47192682Y5672963D01*
X47194682Y5697268D01*
X47209577Y5875049D01*
X47092955Y5875049D01*
X47086934Y5846757D01*
X47083863Y5824382D01*
X47079548Y5782283D01*
X47074488Y5725822D01*
X47069181Y5660365D01*
X47067344Y5636138D01*
X47061927Y5566579D01*
X47056459Y5501982D01*
X47051488Y5448452D01*
X47047561Y5412090D01*
X47046675Y5405491D01*
X47043334Y5391944D01*
X47036101Y5376086D01*
X47023440Y5356139D01*
X47003811Y5330327D01*
X46975678Y5296871D01*
X46937502Y5253993D01*
X46887746Y5199917D01*
X46824871Y5132864D01*
X46747341Y5051057D01*
X46668251Y4968050D01*
X46589564Y4885906D01*
X46516112Y4809831D01*
X46449724Y4741675D01*
X46392227Y4683288D01*
X46345451Y4636519D01*
X46311224Y4603218D01*
X46291373Y4585233D01*
X46287140Y4582558D01*
X46276003Y4592259D01*
X46249971Y4617559D01*
X46211570Y4655918D01*
X46163328Y4704800D01*
X46107770Y4761666D01*
X46067592Y4803094D01*
X45857831Y5020000D01*
X46476337Y5020000D01*
X46476337Y5258911D01*
X45721881Y5258911D01*
X45721881Y5152458D01*
X45583565Y5290346D01*
X45485447Y5388160D01*
X45294357Y5388160D01*
X45292529Y5372730D01*
X45283277Y5364133D01*
X45260950Y5360387D01*
X45219895Y5359511D01*
X45212624Y5359505D01*
X45130891Y5359505D01*
X45130891Y5578828D01*
X45212624Y5497821D01*
X45258730Y5448572D01*
X45286306Y5410841D01*
X45294357Y5388160D01*
X45485447Y5388160D01*
X45445248Y5428234D01*
X45445248Y5551048D01*
X45444863Y5607550D01*
X45443100Y5643495D01*
X45439050Y5663470D01*
X45431801Y5672063D01*
X45420870Y5673861D01*
X45408712Y5676502D01*
X45399727Y5687088D01*
X45392826Y5709619D01*
X45386924Y5748091D01*
X45380935Y5806502D01*
X45379013Y5827896D01*
X45374852Y5875049D01*
X47092955Y5875049D01*
X47209577Y5875049D01*
X47369109Y5875049D01*
X47369109Y5988218D01*
X47301314Y5988218D01*
X47261662Y5989304D01*
X47240116Y5994546D01*
X47237480Y5997666D01*
X47098616Y5997666D01*
X47091308Y5990538D01*
X47065993Y5988338D01*
X47048908Y5988218D01*
X46991881Y5988218D01*
X46779221Y5988218D01*
X45364698Y5988218D01*
X45412542Y6037214D01*
X45486850Y6097676D01*
X45578816Y6144309D01*
X45689998Y6177751D01*
X45800471Y6196247D01*
X45872773Y6204878D01*
X45872773Y6113960D01*
X46451188Y6113960D01*
X46451188Y6217107D01*
X46536065Y6208504D01*
X46595368Y6201244D01*
X46658551Y6191621D01*
X46696386Y6184748D01*
X46771832Y6169593D01*
X46775526Y6078905D01*
X46779221Y5988218D01*
X46991881Y5988218D01*
X46991881Y6038515D01*
X46993544Y6070024D01*
X46997697Y6087537D01*
X46999371Y6088812D01*
X47017987Y6080746D01*
X47045183Y6061180D01*
X47072448Y6037056D01*
X47091267Y6015318D01*
X47092943Y6012492D01*
X47098616Y5997666D01*
X47237480Y5997666D01*
X47229662Y6006919D01*
X47225442Y6020396D01*
X47208219Y6055373D01*
X47175138Y6097421D01*
X47131893Y6140644D01*
X47084174Y6179146D01*
X47052830Y6199199D01*
X47017123Y6221149D01*
X46998819Y6239589D01*
X46992388Y6261332D01*
X46991894Y6274282D01*
X46991894Y6277425D01*
X46350594Y6277425D01*
X46350594Y6214554D01*
X45973367Y6214554D01*
X45973367Y6277425D01*
X46350594Y6277425D01*
X46991894Y6277425D01*
X46991881Y6315148D01*
X46886048Y6315148D01*
X46837355Y6313971D01*
X46799405Y6310835D01*
X46778308Y6306329D01*
X46776023Y6304505D01*
X46762641Y6301705D01*
X46730074Y6302852D01*
X46683916Y6307607D01*
X46652376Y6311997D01*
X46595188Y6320622D01*
X46542886Y6328409D01*
X46503582Y6334153D01*
X46492055Y6335785D01*
X46461937Y6345112D01*
X46451188Y6359728D01*
X46447920Y6365680D01*
X46436230Y6370222D01*
X46413288Y6373530D01*
X46376265Y6375785D01*
X46322332Y6377166D01*
X46248660Y6377850D01*
X46161980Y6378020D01*
X46069471Y6377923D01*
X45999094Y6377470D01*
X45947836Y6376410D01*
X45912680Y6374497D01*
X45890611Y6371481D01*
X45878615Y6367115D01*
X45873676Y6361151D01*
X45872773Y6354216D01*
X45865079Y6332205D01*
X45839879Y6319679D01*
X45793991Y6315212D01*
X45785736Y6315148D01*
X45708027Y6307132D01*
X45619767Y6285064D01*
X45528915Y6251916D01*
X45443430Y6210661D01*
X45371274Y6164269D01*
X45361928Y6156918D01*
X45331467Y6133002D01*
X45313428Y6123424D01*
X45300831Y6126520D01*
X45287900Y6139296D01*
X45249707Y6164322D01*
X45200002Y6173929D01*
X45146476Y6168933D01*
X45096822Y6150149D01*
X45058733Y6118394D01*
X45055975Y6114703D01*
X45027474Y6055425D01*
X45022172Y5994066D01*
X45039482Y5935573D01*
X45078820Y5884896D01*
X45083630Y5880711D01*
X45111560Y5860833D01*
X45139898Y5852079D01*
X45179737Y5851447D01*
X45189689Y5852008D01*
X45228668Y5853438D01*
X45248746Y5850161D01*
X45256015Y5840272D01*
X45256760Y5831039D01*
X45258284Y5804256D01*
X45262065Y5763975D01*
X45264782Y5739876D01*
X45268723Y5701599D01*
X45267084Y5682004D01*
X45257579Y5674842D01*
X45240649Y5673861D01*
X45230608Y5677099D01*
X45214410Y5687580D01*
X45190855Y5706452D01*
X45158743Y5734865D01*
X45116872Y5773965D01*
X45064043Y5824903D01*
X44999055Y5888827D01*
X44920709Y5966886D01*
X44827803Y6060228D01*
X44719137Y6170002D01*
X44666769Y6223048D01*
X44124951Y6772233D01*
X44125570Y6685152D01*
%TO.C,G\u002A\u002A\u002A*%
G36*
X54083907Y27333554D02*
G01*
X53919253Y27261623D01*
X53886980Y27242697D01*
X53779414Y27177241D01*
X54546589Y26376592D01*
X54729445Y26185808D01*
X54911756Y25995685D01*
X55087115Y25812900D01*
X55249112Y25644129D01*
X55391341Y25496047D01*
X55507394Y25375330D01*
X55590463Y25289069D01*
X55702158Y25171672D01*
X55779550Y25085254D01*
X55828654Y25021475D01*
X55855492Y24971997D01*
X55866080Y24928479D01*
X55867162Y24905671D01*
X55843772Y24794375D01*
X55781814Y24705024D01*
X55693605Y24646649D01*
X55591461Y24628280D01*
X55513191Y24646159D01*
X55476309Y24670896D01*
X55401084Y24728818D01*
X55291843Y24816356D01*
X55152913Y24929939D01*
X54988622Y25065995D01*
X54803297Y25220955D01*
X54601265Y25391247D01*
X54386854Y25573300D01*
X54305636Y25642597D01*
X54090158Y25826430D01*
X53887618Y25998732D01*
X53702037Y26156114D01*
X53537438Y26295188D01*
X53397843Y26412567D01*
X53287275Y26504863D01*
X53209755Y26568689D01*
X53169306Y26600658D01*
X53164356Y26603770D01*
X53138644Y26585080D01*
X53083511Y26535058D01*
X53008771Y26462779D01*
X52970217Y26424261D01*
X52792304Y26244753D01*
X53777966Y25089060D01*
X53964983Y24869141D01*
X54141049Y24660862D01*
X54302732Y24468368D01*
X54446599Y24295805D01*
X54569218Y24147317D01*
X54667156Y24027050D01*
X54736982Y23939150D01*
X54775263Y23887761D01*
X54781500Y23877060D01*
X54785441Y23780028D01*
X54746288Y23682995D01*
X54675374Y23600448D01*
X54584029Y23546874D01*
X54513455Y23534368D01*
X54492253Y23535229D01*
X54470240Y23539714D01*
X54444210Y23550675D01*
X54410959Y23570967D01*
X54367279Y23603442D01*
X54309966Y23650954D01*
X54235814Y23716355D01*
X54141617Y23802500D01*
X54024170Y23912240D01*
X53880266Y24048429D01*
X53706700Y24213921D01*
X53500266Y24411569D01*
X53257759Y24644225D01*
X53146839Y24750705D01*
X52960108Y24929280D01*
X52785240Y25095180D01*
X52626524Y25244431D01*
X52488249Y25373062D01*
X52374704Y25477101D01*
X52290176Y25552575D01*
X52238955Y25595514D01*
X52225406Y25604102D01*
X52189420Y25579963D01*
X52141993Y25516958D01*
X52090776Y25429210D01*
X52043416Y25330837D01*
X52007563Y25235961D01*
X51992642Y25174392D01*
X51984839Y25062822D01*
X51996251Y24947812D01*
X52029188Y24825999D01*
X52085960Y24694020D01*
X52168877Y24548508D01*
X52280247Y24386102D01*
X52422380Y24203436D01*
X52597587Y23997147D01*
X52808176Y23763869D01*
X53056458Y23500240D01*
X53344741Y23202896D01*
X53349391Y23198151D01*
X53587748Y22958727D01*
X53796397Y22758236D01*
X53981530Y22592220D01*
X54149338Y22456218D01*
X54306015Y22345770D01*
X54457750Y22256416D01*
X54610737Y22183695D01*
X54771167Y22123148D01*
X54895654Y22084329D01*
X55178037Y22026457D01*
X55471279Y22010097D01*
X55760332Y22034615D01*
X56030148Y22099379D01*
X56128973Y22136267D01*
X56221570Y22174957D01*
X59735027Y18468798D01*
X60102207Y18081633D01*
X60459713Y17704971D01*
X60805556Y17340893D01*
X61137750Y16991481D01*
X61454307Y16658814D01*
X61753240Y16344974D01*
X62032560Y16052041D01*
X62290282Y15782096D01*
X62524417Y15537219D01*
X62732979Y15319492D01*
X62913979Y15130995D01*
X63065430Y14973810D01*
X63185346Y14850015D01*
X63271738Y14761694D01*
X63322620Y14710925D01*
X63335379Y14699280D01*
X63415926Y14654336D01*
X63502081Y14640028D01*
X63609167Y14655916D01*
X63715260Y14688357D01*
X63893141Y14771228D01*
X64065312Y14890510D01*
X64223999Y15036870D01*
X64361428Y15200978D01*
X64469825Y15373501D01*
X64541416Y15545106D01*
X64568427Y15706461D01*
X64568470Y15712583D01*
X64560227Y15810838D01*
X64528731Y15882378D01*
X64491054Y15927793D01*
X64462655Y15955598D01*
X64395479Y16020108D01*
X64291648Y16119307D01*
X64153284Y16251182D01*
X63982507Y16413717D01*
X63781440Y16604899D01*
X63552204Y16822712D01*
X63296921Y17065142D01*
X63017712Y17330174D01*
X62716699Y17615794D01*
X62396004Y17919987D01*
X62057748Y18240739D01*
X61704052Y18576035D01*
X61337039Y18923860D01*
X60958831Y19282199D01*
X60809180Y19423962D01*
X60427380Y19785622D01*
X60056030Y20137385D01*
X59697246Y20477250D01*
X59353142Y20803213D01*
X59025833Y21113271D01*
X58717432Y21405421D01*
X58430055Y21677659D01*
X58165815Y21927983D01*
X57926828Y22154390D01*
X57715207Y22354876D01*
X57533067Y22527438D01*
X57382523Y22670073D01*
X57265690Y22780779D01*
X57184680Y22857551D01*
X57141610Y22898387D01*
X57135517Y22904174D01*
X57066289Y22970114D01*
X57132036Y23104403D01*
X57240822Y23389530D01*
X57297356Y23690209D01*
X57301807Y24001402D01*
X57254344Y24318071D01*
X57155136Y24635179D01*
X57074630Y24815949D01*
X57009947Y24937542D01*
X56935968Y25057453D01*
X56848178Y25180955D01*
X56742065Y25313319D01*
X56613114Y25459817D01*
X56456813Y25625723D01*
X56268646Y25816307D01*
X56044102Y26036844D01*
X55958118Y26120116D01*
X55737134Y26333005D01*
X55551261Y26510700D01*
X55395553Y26657597D01*
X55265065Y26778092D01*
X55154852Y26876581D01*
X55059969Y26957461D01*
X54975470Y27025128D01*
X54896411Y27083977D01*
X54817845Y27138406D01*
X54797096Y27152239D01*
X54595862Y27269390D01*
X54414836Y27338170D01*
X54246643Y27359314D01*
X54083907Y27333554D01*
G37*
X54083907Y27333554D02*
X53919253Y27261623D01*
X53886980Y27242697D01*
X53779414Y27177241D01*
X54546589Y26376592D01*
X54729445Y26185808D01*
X54911756Y25995685D01*
X55087115Y25812900D01*
X55249112Y25644129D01*
X55391341Y25496047D01*
X55507394Y25375330D01*
X55590463Y25289069D01*
X55702158Y25171672D01*
X55779550Y25085254D01*
X55828654Y25021475D01*
X55855492Y24971997D01*
X55866080Y24928479D01*
X55867162Y24905671D01*
X55843772Y24794375D01*
X55781814Y24705024D01*
X55693605Y24646649D01*
X55591461Y24628280D01*
X55513191Y24646159D01*
X55476309Y24670896D01*
X55401084Y24728818D01*
X55291843Y24816356D01*
X55152913Y24929939D01*
X54988622Y25065995D01*
X54803297Y25220955D01*
X54601265Y25391247D01*
X54386854Y25573300D01*
X54305636Y25642597D01*
X54090158Y25826430D01*
X53887618Y25998732D01*
X53702037Y26156114D01*
X53537438Y26295188D01*
X53397843Y26412567D01*
X53287275Y26504863D01*
X53209755Y26568689D01*
X53169306Y26600658D01*
X53164356Y26603770D01*
X53138644Y26585080D01*
X53083511Y26535058D01*
X53008771Y26462779D01*
X52970217Y26424261D01*
X52792304Y26244753D01*
X53777966Y25089060D01*
X53964983Y24869141D01*
X54141049Y24660862D01*
X54302732Y24468368D01*
X54446599Y24295805D01*
X54569218Y24147317D01*
X54667156Y24027050D01*
X54736982Y23939150D01*
X54775263Y23887761D01*
X54781500Y23877060D01*
X54785441Y23780028D01*
X54746288Y23682995D01*
X54675374Y23600448D01*
X54584029Y23546874D01*
X54513455Y23534368D01*
X54492253Y23535229D01*
X54470240Y23539714D01*
X54444210Y23550675D01*
X54410959Y23570967D01*
X54367279Y23603442D01*
X54309966Y23650954D01*
X54235814Y23716355D01*
X54141617Y23802500D01*
X54024170Y23912240D01*
X53880266Y24048429D01*
X53706700Y24213921D01*
X53500266Y24411569D01*
X53257759Y24644225D01*
X53146839Y24750705D01*
X52960108Y24929280D01*
X52785240Y25095180D01*
X52626524Y25244431D01*
X52488249Y25373062D01*
X52374704Y25477101D01*
X52290176Y25552575D01*
X52238955Y25595514D01*
X52225406Y25604102D01*
X52189420Y25579963D01*
X52141993Y25516958D01*
X52090776Y25429210D01*
X52043416Y25330837D01*
X52007563Y25235961D01*
X51992642Y25174392D01*
X51984839Y25062822D01*
X51996251Y24947812D01*
X52029188Y24825999D01*
X52085960Y24694020D01*
X52168877Y24548508D01*
X52280247Y24386102D01*
X52422380Y24203436D01*
X52597587Y23997147D01*
X52808176Y23763869D01*
X53056458Y23500240D01*
X53344741Y23202896D01*
X53349391Y23198151D01*
X53587748Y22958727D01*
X53796397Y22758236D01*
X53981530Y22592220D01*
X54149338Y22456218D01*
X54306015Y22345770D01*
X54457750Y22256416D01*
X54610737Y22183695D01*
X54771167Y22123148D01*
X54895654Y22084329D01*
X55178037Y22026457D01*
X55471279Y22010097D01*
X55760332Y22034615D01*
X56030148Y22099379D01*
X56128973Y22136267D01*
X56221570Y22174957D01*
X59735027Y18468798D01*
X60102207Y18081633D01*
X60459713Y17704971D01*
X60805556Y17340893D01*
X61137750Y16991481D01*
X61454307Y16658814D01*
X61753240Y16344974D01*
X62032560Y16052041D01*
X62290282Y15782096D01*
X62524417Y15537219D01*
X62732979Y15319492D01*
X62913979Y15130995D01*
X63065430Y14973810D01*
X63185346Y14850015D01*
X63271738Y14761694D01*
X63322620Y14710925D01*
X63335379Y14699280D01*
X63415926Y14654336D01*
X63502081Y14640028D01*
X63609167Y14655916D01*
X63715260Y14688357D01*
X63893141Y14771228D01*
X64065312Y14890510D01*
X64223999Y15036870D01*
X64361428Y15200978D01*
X64469825Y15373501D01*
X64541416Y15545106D01*
X64568427Y15706461D01*
X64568470Y15712583D01*
X64560227Y15810838D01*
X64528731Y15882378D01*
X64491054Y15927793D01*
X64462655Y15955598D01*
X64395479Y16020108D01*
X64291648Y16119307D01*
X64153284Y16251182D01*
X63982507Y16413717D01*
X63781440Y16604899D01*
X63552204Y16822712D01*
X63296921Y17065142D01*
X63017712Y17330174D01*
X62716699Y17615794D01*
X62396004Y17919987D01*
X62057748Y18240739D01*
X61704052Y18576035D01*
X61337039Y18923860D01*
X60958831Y19282199D01*
X60809180Y19423962D01*
X60427380Y19785622D01*
X60056030Y20137385D01*
X59697246Y20477250D01*
X59353142Y20803213D01*
X59025833Y21113271D01*
X58717432Y21405421D01*
X58430055Y21677659D01*
X58165815Y21927983D01*
X57926828Y22154390D01*
X57715207Y22354876D01*
X57533067Y22527438D01*
X57382523Y22670073D01*
X57265690Y22780779D01*
X57184680Y22857551D01*
X57141610Y22898387D01*
X57135517Y22904174D01*
X57066289Y22970114D01*
X57132036Y23104403D01*
X57240822Y23389530D01*
X57297356Y23690209D01*
X57301807Y24001402D01*
X57254344Y24318071D01*
X57155136Y24635179D01*
X57074630Y24815949D01*
X57009947Y24937542D01*
X56935968Y25057453D01*
X56848178Y25180955D01*
X56742065Y25313319D01*
X56613114Y25459817D01*
X56456813Y25625723D01*
X56268646Y25816307D01*
X56044102Y26036844D01*
X55958118Y26120116D01*
X55737134Y26333005D01*
X55551261Y26510700D01*
X55395553Y26657597D01*
X55265065Y26778092D01*
X55154852Y26876581D01*
X55059969Y26957461D01*
X54975470Y27025128D01*
X54896411Y27083977D01*
X54817845Y27138406D01*
X54797096Y27152239D01*
X54595862Y27269390D01*
X54414836Y27338170D01*
X54246643Y27359314D01*
X54083907Y27333554D01*
G36*
X56316262Y17848292D02*
G01*
X56050285Y17596108D01*
X55792025Y17350972D01*
X55544993Y17116231D01*
X55312700Y16895236D01*
X55098658Y16691334D01*
X54906378Y16507874D01*
X54739370Y16348205D01*
X54601147Y16215674D01*
X54495219Y16113631D01*
X54425097Y16045424D01*
X54406027Y16026529D01*
X54197996Y15817803D01*
X54214715Y15676633D01*
X54237952Y15573614D01*
X54280714Y15453512D01*
X54320018Y15369264D01*
X54405083Y15239911D01*
X54524011Y15098808D01*
X54662133Y14960425D01*
X54804777Y14839230D01*
X54937275Y14749691D01*
X54961209Y14736885D01*
X55071382Y14691813D01*
X55191324Y14659400D01*
X55302929Y14643059D01*
X55388090Y14646206D01*
X55408340Y14652562D01*
X55433054Y14675117D01*
X55492847Y14734954D01*
X55584409Y14828586D01*
X55704430Y14952523D01*
X55849601Y15103277D01*
X56016610Y15277359D01*
X56202148Y15471281D01*
X56402905Y15681555D01*
X56615570Y15904692D01*
X56836834Y16137202D01*
X57063386Y16375599D01*
X57291916Y16616393D01*
X57519115Y16856096D01*
X57741672Y17091219D01*
X57956276Y17318273D01*
X58159619Y17533771D01*
X58348389Y17734223D01*
X58519278Y17916142D01*
X58668974Y18076038D01*
X58794167Y18210423D01*
X58891548Y18315809D01*
X58957806Y18388706D01*
X58989631Y18425627D01*
X58992023Y18429426D01*
X58973028Y18454975D01*
X58920065Y18515176D01*
X58838425Y18604304D01*
X58733401Y18716635D01*
X58610286Y18846442D01*
X58504814Y18956440D01*
X58018465Y19461328D01*
X56316262Y17848292D01*
G37*
X56316262Y17848292D02*
X56050285Y17596108D01*
X55792025Y17350972D01*
X55544993Y17116231D01*
X55312700Y16895236D01*
X55098658Y16691334D01*
X54906378Y16507874D01*
X54739370Y16348205D01*
X54601147Y16215674D01*
X54495219Y16113631D01*
X54425097Y16045424D01*
X54406027Y16026529D01*
X54197996Y15817803D01*
X54214715Y15676633D01*
X54237952Y15573614D01*
X54280714Y15453512D01*
X54320018Y15369264D01*
X54405083Y15239911D01*
X54524011Y15098808D01*
X54662133Y14960425D01*
X54804777Y14839230D01*
X54937275Y14749691D01*
X54961209Y14736885D01*
X55071382Y14691813D01*
X55191324Y14659400D01*
X55302929Y14643059D01*
X55388090Y14646206D01*
X55408340Y14652562D01*
X55433054Y14675117D01*
X55492847Y14734954D01*
X55584409Y14828586D01*
X55704430Y14952523D01*
X55849601Y15103277D01*
X56016610Y15277359D01*
X56202148Y15471281D01*
X56402905Y15681555D01*
X56615570Y15904692D01*
X56836834Y16137202D01*
X57063386Y16375599D01*
X57291916Y16616393D01*
X57519115Y16856096D01*
X57741672Y17091219D01*
X57956276Y17318273D01*
X58159619Y17533771D01*
X58348389Y17734223D01*
X58519278Y17916142D01*
X58668974Y18076038D01*
X58794167Y18210423D01*
X58891548Y18315809D01*
X58957806Y18388706D01*
X58989631Y18425627D01*
X58992023Y18429426D01*
X58973028Y18454975D01*
X58920065Y18515176D01*
X58838425Y18604304D01*
X58733401Y18716635D01*
X58610286Y18846442D01*
X58504814Y18956440D01*
X58018465Y19461328D01*
X56316262Y17848292D01*
G36*
X64775830Y26852509D02*
G01*
X64437101Y26800589D01*
X64074349Y26703135D01*
X64026322Y26687361D01*
X63603341Y26520840D01*
X63191451Y26310550D01*
X62802121Y26063543D01*
X62446822Y25786865D01*
X62226529Y25581359D01*
X61981440Y25302329D01*
X61781067Y25007807D01*
X61626592Y24702500D01*
X61519199Y24391114D01*
X61460069Y24078357D01*
X61450386Y23768934D01*
X61491331Y23467554D01*
X61584087Y23178921D01*
X61608947Y23123166D01*
X61691843Y22946023D01*
X60747499Y22050450D01*
X59803156Y21154878D01*
X60263929Y20712282D01*
X60396833Y20585269D01*
X60516213Y20472415D01*
X60616113Y20379251D01*
X60690573Y20311308D01*
X60733636Y20274118D01*
X60741654Y20268768D01*
X60763892Y20288382D01*
X60820845Y20344903D01*
X60908585Y20434267D01*
X61023183Y20552410D01*
X61160711Y20695267D01*
X61317242Y20858776D01*
X61488846Y21038872D01*
X61640248Y21198394D01*
X61863303Y21433028D01*
X62050807Y21628438D01*
X62205175Y21786999D01*
X62328821Y21911085D01*
X62424160Y22003073D01*
X62493607Y22065336D01*
X62539575Y22100250D01*
X62564480Y22110190D01*
X62566644Y22109634D01*
X62898761Y21991528D01*
X63222709Y21928405D01*
X63542239Y21920388D01*
X63861098Y21967594D01*
X64183036Y22070146D01*
X64399535Y22168466D01*
X64691970Y22344624D01*
X64976753Y22570665D01*
X65249222Y22840233D01*
X65504715Y23146971D01*
X65738573Y23484523D01*
X65946133Y23846531D01*
X66122736Y24226640D01*
X66263719Y24618493D01*
X66307254Y24770168D01*
X66338523Y24896842D01*
X66359527Y25010646D01*
X66372204Y25129202D01*
X66378488Y25270137D01*
X66380290Y25435144D01*
X66379348Y25604291D01*
X66374749Y25730240D01*
X66365124Y25826065D01*
X66349105Y25904841D01*
X66325324Y25979644D01*
X66322527Y25987247D01*
X66202544Y26238647D01*
X66045892Y26448368D01*
X65854379Y26615859D01*
X65629809Y26740569D01*
X65373990Y26821948D01*
X65088728Y26859445D01*
X64775830Y26852509D01*
G37*
X64775830Y26852509D02*
X64437101Y26800589D01*
X64074349Y26703135D01*
X64026322Y26687361D01*
X63603341Y26520840D01*
X63191451Y26310550D01*
X62802121Y26063543D01*
X62446822Y25786865D01*
X62226529Y25581359D01*
X61981440Y25302329D01*
X61781067Y25007807D01*
X61626592Y24702500D01*
X61519199Y24391114D01*
X61460069Y24078357D01*
X61450386Y23768934D01*
X61491331Y23467554D01*
X61584087Y23178921D01*
X61608947Y23123166D01*
X61691843Y22946023D01*
X60747499Y22050450D01*
X59803156Y21154878D01*
X60263929Y20712282D01*
X60396833Y20585269D01*
X60516213Y20472415D01*
X60616113Y20379251D01*
X60690573Y20311308D01*
X60733636Y20274118D01*
X60741654Y20268768D01*
X60763892Y20288382D01*
X60820845Y20344903D01*
X60908585Y20434267D01*
X61023183Y20552410D01*
X61160711Y20695267D01*
X61317242Y20858776D01*
X61488846Y21038872D01*
X61640248Y21198394D01*
X61863303Y21433028D01*
X62050807Y21628438D01*
X62205175Y21786999D01*
X62328821Y21911085D01*
X62424160Y22003073D01*
X62493607Y22065336D01*
X62539575Y22100250D01*
X62564480Y22110190D01*
X62566644Y22109634D01*
X62898761Y21991528D01*
X63222709Y21928405D01*
X63542239Y21920388D01*
X63861098Y21967594D01*
X64183036Y22070146D01*
X64399535Y22168466D01*
X64691970Y22344624D01*
X64976753Y22570665D01*
X65249222Y22840233D01*
X65504715Y23146971D01*
X65738573Y23484523D01*
X65946133Y23846531D01*
X66122736Y24226640D01*
X66263719Y24618493D01*
X66307254Y24770168D01*
X66338523Y24896842D01*
X66359527Y25010646D01*
X66372204Y25129202D01*
X66378488Y25270137D01*
X66380290Y25435144D01*
X66379348Y25604291D01*
X66374749Y25730240D01*
X66365124Y25826065D01*
X66349105Y25904841D01*
X66325324Y25979644D01*
X66322527Y25987247D01*
X66202544Y26238647D01*
X66045892Y26448368D01*
X65854379Y26615859D01*
X65629809Y26740569D01*
X65373990Y26821948D01*
X65088728Y26859445D01*
X64775830Y26852509D01*
%TD*%
%LPC*%
D13*
%TO.C,SW3*%
X24250000Y33000000D03*
X24250000Y28500000D03*
X17750000Y33000000D03*
X17750000Y28500000D03*
%TD*%
%TO.C,SW11*%
X64250000Y33000000D03*
X64250000Y28500000D03*
X57750000Y33000000D03*
X57750000Y28500000D03*
%TD*%
%TO.C,SW10*%
X64250000Y53000000D03*
X64250000Y48500000D03*
X57750000Y53000000D03*
X57750000Y48500000D03*
%TD*%
%TO.C,SW7*%
X44250000Y33000000D03*
X44250000Y28500000D03*
X37750000Y33000000D03*
X37750000Y28500000D03*
%TD*%
%TO.C,SW2*%
X24250000Y53000000D03*
X24250000Y48500000D03*
X17750000Y53000000D03*
X17750000Y48500000D03*
%TD*%
D14*
%TO.C,J1*%
X51000000Y124200000D03*
X56000000Y124200000D03*
D15*
X49625000Y126950000D03*
X57375000Y126950000D03*
D13*
X49775000Y123150000D03*
X57225000Y123150000D03*
%TD*%
%TO.C,SW6*%
X44250000Y53000000D03*
X44250000Y48500000D03*
X37750000Y53000000D03*
X37750000Y48500000D03*
%TD*%
D16*
%TO.C,J2*%
X6040000Y66960000D03*
X6040000Y69500000D03*
X6040000Y72040000D03*
X3500000Y66960000D03*
X3500000Y69500000D03*
G36*
G01*
X2650000Y71440000D02*
X2650000Y72640000D01*
G75*
G02*
X2900000Y72890000I250000J0D01*
G01*
X4100000Y72890000D01*
G75*
G02*
X4350000Y72640000I0J-250000D01*
G01*
X4350000Y71440000D01*
G75*
G02*
X4100000Y71190000I-250000J0D01*
G01*
X2900000Y71190000D01*
G75*
G02*
X2650000Y71440000I0J250000D01*
G01*
G37*
%TD*%
D13*
%TO.C,SW12*%
X64250000Y13000000D03*
X64250000Y8500000D03*
X57750000Y13000000D03*
X57750000Y8500000D03*
%TD*%
%TO.C,SW9*%
X64250000Y73000000D03*
X64250000Y68500000D03*
X57750000Y73000000D03*
X57750000Y68500000D03*
%TD*%
%TO.C,SW8*%
X44250000Y13000000D03*
X44250000Y8500000D03*
X37750000Y13000000D03*
X37750000Y8500000D03*
%TD*%
%TO.C,SW5*%
X44250000Y73000000D03*
X44250000Y68500000D03*
X37750000Y73000000D03*
X37750000Y68500000D03*
%TD*%
%TO.C,SW4*%
X24250000Y13000000D03*
X24250000Y8500000D03*
X17750000Y13000000D03*
X17750000Y8500000D03*
%TD*%
%TO.C,SW1*%
X24250000Y73000000D03*
X24250000Y68500000D03*
X17750000Y73000000D03*
X17750000Y68500000D03*
%TD*%
D17*
%TO.C,H1*%
X3000000Y125500000D03*
%TD*%
%TO.C,H2*%
X3000000Y82000000D03*
%TD*%
%TO.C,H3*%
X3000000Y3000000D03*
%TD*%
%TO.C,H4*%
X77500000Y125500000D03*
%TD*%
%TO.C,H5*%
X77500000Y81500000D03*
%TD*%
%TO.C,H6*%
X77500000Y3000000D03*
%TD*%
D18*
%TO.C,U3*%
X65300000Y88032000D03*
X67840000Y88032000D03*
X62760000Y88032000D03*
X70380000Y88032000D03*
X60220000Y88032000D03*
X70380000Y118512000D03*
X67840000Y118512000D03*
X65300000Y118512000D03*
X62760000Y118512000D03*
X60220000Y118512000D03*
%TD*%
%TO.C,U4*%
X41000000Y88032000D03*
X43540000Y88032000D03*
X38460000Y88032000D03*
X46080000Y88032000D03*
X35920000Y88032000D03*
X46080000Y118512000D03*
X43540000Y118512000D03*
X41000000Y118512000D03*
X38460000Y118512000D03*
X35920000Y118512000D03*
%TD*%
%TO.C,U5*%
X11620000Y118512000D03*
X14160000Y118512000D03*
X16700000Y118512000D03*
X19240000Y118512000D03*
X21780000Y118512000D03*
X11620000Y88032000D03*
X21780000Y88032000D03*
X14160000Y88032000D03*
X19240000Y88032000D03*
X16700000Y88032000D03*
%TD*%
M02*
