%TF.GenerationSoftware,KiCad,Pcbnew,5.1.8-db9833491~88~ubuntu20.04.1*%
%TF.CreationDate,2021-01-08T15:11:58+00:00*%
%TF.ProjectId,luncheonmeat,6c756e63-6865-46f6-9e6d-6561742e6b69,v0.2.0*%
%TF.SameCoordinates,Original*%
%TF.FileFunction,Legend,Bot*%
%TF.FilePolarity,Positive*%
%FSLAX46Y46*%
G04 Gerber Fmt 4.6, Leading zero omitted, Abs format (unit mm)*
G04 Created by KiCad (PCBNEW 5.1.8-db9833491~88~ubuntu20.04.1) date 2021-01-08 15:11:58*
%MOMM*%
%LPD*%
G01*
G04 APERTURE LIST*
%ADD10C,0.150000*%
%ADD11C,0.500000*%
%ADD12C,0.010000*%
G04 APERTURE END LIST*
D10*
X135124761Y-176275714D02*
X134886666Y-176942380D01*
X134648571Y-176275714D01*
X134077142Y-175942380D02*
X133981904Y-175942380D01*
X133886666Y-175990000D01*
X133839047Y-176037619D01*
X133791428Y-176132857D01*
X133743809Y-176323333D01*
X133743809Y-176561428D01*
X133791428Y-176751904D01*
X133839047Y-176847142D01*
X133886666Y-176894761D01*
X133981904Y-176942380D01*
X134077142Y-176942380D01*
X134172380Y-176894761D01*
X134220000Y-176847142D01*
X134267619Y-176751904D01*
X134315238Y-176561428D01*
X134315238Y-176323333D01*
X134267619Y-176132857D01*
X134220000Y-176037619D01*
X134172380Y-175990000D01*
X134077142Y-175942380D01*
X133315238Y-176847142D02*
X133267619Y-176894761D01*
X133315238Y-176942380D01*
X133362857Y-176894761D01*
X133315238Y-176847142D01*
X133315238Y-176942380D01*
X132886666Y-176037619D02*
X132839047Y-175990000D01*
X132743809Y-175942380D01*
X132505714Y-175942380D01*
X132410476Y-175990000D01*
X132362857Y-176037619D01*
X132315238Y-176132857D01*
X132315238Y-176228095D01*
X132362857Y-176370952D01*
X132934285Y-176942380D01*
X132315238Y-176942380D01*
X131886666Y-176847142D02*
X131839047Y-176894761D01*
X131886666Y-176942380D01*
X131934285Y-176894761D01*
X131886666Y-176847142D01*
X131886666Y-176942380D01*
X131220000Y-175942380D02*
X131124761Y-175942380D01*
X131029523Y-175990000D01*
X130981904Y-176037619D01*
X130934285Y-176132857D01*
X130886666Y-176323333D01*
X130886666Y-176561428D01*
X130934285Y-176751904D01*
X130981904Y-176847142D01*
X131029523Y-176894761D01*
X131124761Y-176942380D01*
X131220000Y-176942380D01*
X131315238Y-176894761D01*
X131362857Y-176847142D01*
X131410476Y-176751904D01*
X131458095Y-176561428D01*
X131458095Y-176323333D01*
X131410476Y-176132857D01*
X131362857Y-176037619D01*
X131315238Y-175990000D01*
X131220000Y-175942380D01*
X130410476Y-176894761D02*
X130410476Y-176942380D01*
X130458095Y-177037619D01*
X130505714Y-177085238D01*
X129220000Y-176942380D02*
X129220000Y-175942380D01*
X128981904Y-175942380D01*
X128839047Y-175990000D01*
X128743809Y-176085238D01*
X128696190Y-176180476D01*
X128648571Y-176370952D01*
X128648571Y-176513809D01*
X128696190Y-176704285D01*
X128743809Y-176799523D01*
X128839047Y-176894761D01*
X128981904Y-176942380D01*
X129220000Y-176942380D01*
X127839047Y-176894761D02*
X127934285Y-176942380D01*
X128124761Y-176942380D01*
X128220000Y-176894761D01*
X128267619Y-176799523D01*
X128267619Y-176418571D01*
X128220000Y-176323333D01*
X128124761Y-176275714D01*
X127934285Y-176275714D01*
X127839047Y-176323333D01*
X127791428Y-176418571D01*
X127791428Y-176513809D01*
X128267619Y-176609047D01*
X126934285Y-176894761D02*
X127029523Y-176942380D01*
X127220000Y-176942380D01*
X127315238Y-176894761D01*
X127362857Y-176847142D01*
X127410476Y-176751904D01*
X127410476Y-176466190D01*
X127362857Y-176370952D01*
X127315238Y-176323333D01*
X127220000Y-176275714D01*
X127029523Y-176275714D01*
X126934285Y-176323333D01*
X125791428Y-176037619D02*
X125743809Y-175990000D01*
X125648571Y-175942380D01*
X125410476Y-175942380D01*
X125315238Y-175990000D01*
X125267619Y-176037619D01*
X125220000Y-176132857D01*
X125220000Y-176228095D01*
X125267619Y-176370952D01*
X125839047Y-176942380D01*
X125220000Y-176942380D01*
X124600952Y-175942380D02*
X124505714Y-175942380D01*
X124410476Y-175990000D01*
X124362857Y-176037619D01*
X124315238Y-176132857D01*
X124267619Y-176323333D01*
X124267619Y-176561428D01*
X124315238Y-176751904D01*
X124362857Y-176847142D01*
X124410476Y-176894761D01*
X124505714Y-176942380D01*
X124600952Y-176942380D01*
X124696190Y-176894761D01*
X124743809Y-176847142D01*
X124791428Y-176751904D01*
X124839047Y-176561428D01*
X124839047Y-176323333D01*
X124791428Y-176132857D01*
X124743809Y-176037619D01*
X124696190Y-175990000D01*
X124600952Y-175942380D01*
X123886666Y-176037619D02*
X123839047Y-175990000D01*
X123743809Y-175942380D01*
X123505714Y-175942380D01*
X123410476Y-175990000D01*
X123362857Y-176037619D01*
X123315238Y-176132857D01*
X123315238Y-176228095D01*
X123362857Y-176370952D01*
X123934285Y-176942380D01*
X123315238Y-176942380D01*
X122696190Y-175942380D02*
X122600952Y-175942380D01*
X122505714Y-175990000D01*
X122458095Y-176037619D01*
X122410476Y-176132857D01*
X122362857Y-176323333D01*
X122362857Y-176561428D01*
X122410476Y-176751904D01*
X122458095Y-176847142D01*
X122505714Y-176894761D01*
X122600952Y-176942380D01*
X122696190Y-176942380D01*
X122791428Y-176894761D01*
X122839047Y-176847142D01*
X122886666Y-176751904D01*
X122934285Y-176561428D01*
X122934285Y-176323333D01*
X122886666Y-176132857D01*
X122839047Y-176037619D01*
X122791428Y-175990000D01*
X122696190Y-175942380D01*
D11*
X133758571Y-174037142D02*
X135187142Y-174037142D01*
X135187142Y-171037142D01*
X131472857Y-172037142D02*
X131472857Y-174037142D01*
X132758571Y-172037142D02*
X132758571Y-173608571D01*
X132615714Y-173894285D01*
X132330000Y-174037142D01*
X131901428Y-174037142D01*
X131615714Y-173894285D01*
X131472857Y-173751428D01*
X130044285Y-172037142D02*
X130044285Y-174037142D01*
X130044285Y-172322857D02*
X129901428Y-172180000D01*
X129615714Y-172037142D01*
X129187142Y-172037142D01*
X128901428Y-172180000D01*
X128758571Y-172465714D01*
X128758571Y-174037142D01*
X126044285Y-173894285D02*
X126330000Y-174037142D01*
X126901428Y-174037142D01*
X127187142Y-173894285D01*
X127330000Y-173751428D01*
X127472857Y-173465714D01*
X127472857Y-172608571D01*
X127330000Y-172322857D01*
X127187142Y-172180000D01*
X126901428Y-172037142D01*
X126330000Y-172037142D01*
X126044285Y-172180000D01*
X124758571Y-174037142D02*
X124758571Y-171037142D01*
X123472857Y-174037142D02*
X123472857Y-172465714D01*
X123615714Y-172180000D01*
X123901428Y-172037142D01*
X124330000Y-172037142D01*
X124615714Y-172180000D01*
X124758571Y-172322857D01*
X120901428Y-173894285D02*
X121187142Y-174037142D01*
X121758571Y-174037142D01*
X122044285Y-173894285D01*
X122187142Y-173608571D01*
X122187142Y-172465714D01*
X122044285Y-172180000D01*
X121758571Y-172037142D01*
X121187142Y-172037142D01*
X120901428Y-172180000D01*
X120758571Y-172465714D01*
X120758571Y-172751428D01*
X122187142Y-173037142D01*
X119044285Y-174037142D02*
X119330000Y-173894285D01*
X119472857Y-173751428D01*
X119615714Y-173465714D01*
X119615714Y-172608571D01*
X119472857Y-172322857D01*
X119330000Y-172180000D01*
X119044285Y-172037142D01*
X118615714Y-172037142D01*
X118330000Y-172180000D01*
X118187142Y-172322857D01*
X118044285Y-172608571D01*
X118044285Y-173465714D01*
X118187142Y-173751428D01*
X118330000Y-173894285D01*
X118615714Y-174037142D01*
X119044285Y-174037142D01*
X116758571Y-172037142D02*
X116758571Y-174037142D01*
X116758571Y-172322857D02*
X116615714Y-172180000D01*
X116330000Y-172037142D01*
X115901428Y-172037142D01*
X115615714Y-172180000D01*
X115472857Y-172465714D01*
X115472857Y-174037142D01*
X114044285Y-174037142D02*
X114044285Y-172037142D01*
X114044285Y-172322857D02*
X113901428Y-172180000D01*
X113615714Y-172037142D01*
X113187142Y-172037142D01*
X112901428Y-172180000D01*
X112758571Y-172465714D01*
X112758571Y-174037142D01*
X112758571Y-172465714D02*
X112615714Y-172180000D01*
X112330000Y-172037142D01*
X111901428Y-172037142D01*
X111615714Y-172180000D01*
X111472857Y-172465714D01*
X111472857Y-174037142D01*
X108901428Y-173894285D02*
X109187142Y-174037142D01*
X109758571Y-174037142D01*
X110044285Y-173894285D01*
X110187142Y-173608571D01*
X110187142Y-172465714D01*
X110044285Y-172180000D01*
X109758571Y-172037142D01*
X109187142Y-172037142D01*
X108901428Y-172180000D01*
X108758571Y-172465714D01*
X108758571Y-172751428D01*
X110187142Y-173037142D01*
X106187142Y-174037142D02*
X106187142Y-172465714D01*
X106330000Y-172180000D01*
X106615714Y-172037142D01*
X107187142Y-172037142D01*
X107472857Y-172180000D01*
X106187142Y-173894285D02*
X106472857Y-174037142D01*
X107187142Y-174037142D01*
X107472857Y-173894285D01*
X107615714Y-173608571D01*
X107615714Y-173322857D01*
X107472857Y-173037142D01*
X107187142Y-172894285D01*
X106472857Y-172894285D01*
X106187142Y-172751428D01*
X105187142Y-172037142D02*
X104044285Y-172037142D01*
X104758571Y-171037142D02*
X104758571Y-173608571D01*
X104615714Y-173894285D01*
X104330000Y-174037142D01*
X104044285Y-174037142D01*
D12*
%TO.C,REF\u002A\u002A*%
G36*
X108278823Y-186915467D02*
G01*
X108310202Y-186893224D01*
X108337911Y-186865515D01*
X108337911Y-186556080D01*
X108337838Y-186464201D01*
X108337495Y-186392160D01*
X108336692Y-186337220D01*
X108335241Y-186296640D01*
X108332952Y-186267683D01*
X108329636Y-186247609D01*
X108325105Y-186233679D01*
X108319169Y-186223155D01*
X108314514Y-186216900D01*
X108283783Y-186192327D01*
X108248496Y-186189659D01*
X108216245Y-186204729D01*
X108205588Y-186213626D01*
X108198464Y-186225443D01*
X108194167Y-186244474D01*
X108191991Y-186275008D01*
X108191228Y-186321338D01*
X108191155Y-186357129D01*
X108191155Y-186491955D01*
X107694444Y-186491955D01*
X107694444Y-186369300D01*
X107693931Y-186313213D01*
X107691876Y-186274667D01*
X107687508Y-186248639D01*
X107680056Y-186230103D01*
X107671047Y-186216900D01*
X107640144Y-186192396D01*
X107605196Y-186189494D01*
X107571738Y-186206911D01*
X107562604Y-186216041D01*
X107556152Y-186228145D01*
X107551897Y-186246999D01*
X107549352Y-186276380D01*
X107548029Y-186320063D01*
X107547443Y-186381825D01*
X107547375Y-186396000D01*
X107546891Y-186512369D01*
X107546641Y-186608273D01*
X107546723Y-186685823D01*
X107547231Y-186747131D01*
X107548262Y-186794310D01*
X107549913Y-186829470D01*
X107552279Y-186854724D01*
X107555457Y-186872183D01*
X107559544Y-186883959D01*
X107564634Y-186892165D01*
X107570266Y-186898355D01*
X107602128Y-186918156D01*
X107635357Y-186915467D01*
X107666735Y-186893224D01*
X107679433Y-186878874D01*
X107687526Y-186863022D01*
X107692042Y-186840446D01*
X107694006Y-186805922D01*
X107694444Y-186754224D01*
X107694444Y-186638711D01*
X108191155Y-186638711D01*
X108191155Y-186757244D01*
X108191662Y-186811852D01*
X108193698Y-186848725D01*
X108198035Y-186872693D01*
X108205447Y-186888585D01*
X108213733Y-186898355D01*
X108245594Y-186918156D01*
X108278823Y-186915467D01*
G37*
X108278823Y-186915467D02*
X108310202Y-186893224D01*
X108337911Y-186865515D01*
X108337911Y-186556080D01*
X108337838Y-186464201D01*
X108337495Y-186392160D01*
X108336692Y-186337220D01*
X108335241Y-186296640D01*
X108332952Y-186267683D01*
X108329636Y-186247609D01*
X108325105Y-186233679D01*
X108319169Y-186223155D01*
X108314514Y-186216900D01*
X108283783Y-186192327D01*
X108248496Y-186189659D01*
X108216245Y-186204729D01*
X108205588Y-186213626D01*
X108198464Y-186225443D01*
X108194167Y-186244474D01*
X108191991Y-186275008D01*
X108191228Y-186321338D01*
X108191155Y-186357129D01*
X108191155Y-186491955D01*
X107694444Y-186491955D01*
X107694444Y-186369300D01*
X107693931Y-186313213D01*
X107691876Y-186274667D01*
X107687508Y-186248639D01*
X107680056Y-186230103D01*
X107671047Y-186216900D01*
X107640144Y-186192396D01*
X107605196Y-186189494D01*
X107571738Y-186206911D01*
X107562604Y-186216041D01*
X107556152Y-186228145D01*
X107551897Y-186246999D01*
X107549352Y-186276380D01*
X107548029Y-186320063D01*
X107547443Y-186381825D01*
X107547375Y-186396000D01*
X107546891Y-186512369D01*
X107546641Y-186608273D01*
X107546723Y-186685823D01*
X107547231Y-186747131D01*
X107548262Y-186794310D01*
X107549913Y-186829470D01*
X107552279Y-186854724D01*
X107555457Y-186872183D01*
X107559544Y-186883959D01*
X107564634Y-186892165D01*
X107570266Y-186898355D01*
X107602128Y-186918156D01*
X107635357Y-186915467D01*
X107666735Y-186893224D01*
X107679433Y-186878874D01*
X107687526Y-186863022D01*
X107692042Y-186840446D01*
X107694006Y-186805922D01*
X107694444Y-186754224D01*
X107694444Y-186638711D01*
X108191155Y-186638711D01*
X108191155Y-186757244D01*
X108191662Y-186811852D01*
X108193698Y-186848725D01*
X108198035Y-186872693D01*
X108205447Y-186888585D01*
X108213733Y-186898355D01*
X108245594Y-186918156D01*
X108278823Y-186915467D01*
G36*
X107013065Y-186920837D02*
G01*
X107091772Y-186920458D01*
X107152863Y-186919667D01*
X107198817Y-186918330D01*
X107232114Y-186916317D01*
X107255236Y-186913494D01*
X107270662Y-186909731D01*
X107280871Y-186904895D01*
X107285813Y-186901178D01*
X107311457Y-186868642D01*
X107314559Y-186834862D01*
X107298711Y-186804174D01*
X107288348Y-186791911D01*
X107277196Y-186783550D01*
X107261035Y-186778343D01*
X107235642Y-186775543D01*
X107196798Y-186774404D01*
X107140280Y-186774179D01*
X107129180Y-186774178D01*
X106983244Y-186774178D01*
X106983244Y-186503244D01*
X106983148Y-186417846D01*
X106982711Y-186352136D01*
X106981712Y-186303226D01*
X106979928Y-186268227D01*
X106977137Y-186244251D01*
X106973117Y-186228407D01*
X106967645Y-186217809D01*
X106960666Y-186209733D01*
X106927734Y-186189888D01*
X106893354Y-186191452D01*
X106862176Y-186214094D01*
X106859886Y-186216900D01*
X106852429Y-186227508D01*
X106846747Y-186239919D01*
X106842601Y-186257150D01*
X106839750Y-186282216D01*
X106837954Y-186318133D01*
X106836972Y-186367917D01*
X106836564Y-186434583D01*
X106836489Y-186510411D01*
X106836489Y-186774178D01*
X106697127Y-186774178D01*
X106637322Y-186774582D01*
X106595918Y-186776160D01*
X106568748Y-186779453D01*
X106551646Y-186785008D01*
X106540443Y-186793369D01*
X106539083Y-186794822D01*
X106522725Y-186828061D01*
X106524172Y-186865638D01*
X106542978Y-186898355D01*
X106550250Y-186904702D01*
X106559627Y-186909734D01*
X106573609Y-186913604D01*
X106594696Y-186916463D01*
X106625389Y-186918465D01*
X106668189Y-186919761D01*
X106725595Y-186920502D01*
X106800110Y-186920842D01*
X106894233Y-186920932D01*
X106914260Y-186920933D01*
X107013065Y-186920837D01*
G37*
X107013065Y-186920837D02*
X107091772Y-186920458D01*
X107152863Y-186919667D01*
X107198817Y-186918330D01*
X107232114Y-186916317D01*
X107255236Y-186913494D01*
X107270662Y-186909731D01*
X107280871Y-186904895D01*
X107285813Y-186901178D01*
X107311457Y-186868642D01*
X107314559Y-186834862D01*
X107298711Y-186804174D01*
X107288348Y-186791911D01*
X107277196Y-186783550D01*
X107261035Y-186778343D01*
X107235642Y-186775543D01*
X107196798Y-186774404D01*
X107140280Y-186774179D01*
X107129180Y-186774178D01*
X106983244Y-186774178D01*
X106983244Y-186503244D01*
X106983148Y-186417846D01*
X106982711Y-186352136D01*
X106981712Y-186303226D01*
X106979928Y-186268227D01*
X106977137Y-186244251D01*
X106973117Y-186228407D01*
X106967645Y-186217809D01*
X106960666Y-186209733D01*
X106927734Y-186189888D01*
X106893354Y-186191452D01*
X106862176Y-186214094D01*
X106859886Y-186216900D01*
X106852429Y-186227508D01*
X106846747Y-186239919D01*
X106842601Y-186257150D01*
X106839750Y-186282216D01*
X106837954Y-186318133D01*
X106836972Y-186367917D01*
X106836564Y-186434583D01*
X106836489Y-186510411D01*
X106836489Y-186774178D01*
X106697127Y-186774178D01*
X106637322Y-186774582D01*
X106595918Y-186776160D01*
X106568748Y-186779453D01*
X106551646Y-186785008D01*
X106540443Y-186793369D01*
X106539083Y-186794822D01*
X106522725Y-186828061D01*
X106524172Y-186865638D01*
X106542978Y-186898355D01*
X106550250Y-186904702D01*
X106559627Y-186909734D01*
X106573609Y-186913604D01*
X106594696Y-186916463D01*
X106625389Y-186918465D01*
X106668189Y-186919761D01*
X106725595Y-186920502D01*
X106800110Y-186920842D01*
X106894233Y-186920932D01*
X106914260Y-186920933D01*
X107013065Y-186920837D01*
G36*
X106238614Y-186914123D02*
G01*
X106262327Y-186899353D01*
X106288978Y-186877773D01*
X106288978Y-186556227D01*
X106288893Y-186462170D01*
X106288529Y-186388068D01*
X106287724Y-186331296D01*
X106286313Y-186289232D01*
X106284133Y-186259252D01*
X106281021Y-186238733D01*
X106276814Y-186225051D01*
X106271348Y-186215584D01*
X106267472Y-186210918D01*
X106236034Y-186190425D01*
X106200233Y-186191261D01*
X106168873Y-186208736D01*
X106142222Y-186230316D01*
X106142222Y-186877773D01*
X106168873Y-186899353D01*
X106194594Y-186915051D01*
X106215600Y-186920933D01*
X106238614Y-186914123D01*
G37*
X106238614Y-186914123D02*
X106262327Y-186899353D01*
X106288978Y-186877773D01*
X106288978Y-186556227D01*
X106288893Y-186462170D01*
X106288529Y-186388068D01*
X106287724Y-186331296D01*
X106286313Y-186289232D01*
X106284133Y-186259252D01*
X106281021Y-186238733D01*
X106276814Y-186225051D01*
X106271348Y-186215584D01*
X106267472Y-186210918D01*
X106236034Y-186190425D01*
X106200233Y-186191261D01*
X106168873Y-186208736D01*
X106142222Y-186230316D01*
X106142222Y-186877773D01*
X106168873Y-186899353D01*
X106194594Y-186915051D01*
X106215600Y-186920933D01*
X106238614Y-186914123D01*
G36*
X105794665Y-186918966D02*
G01*
X105814255Y-186911965D01*
X105815010Y-186911623D01*
X105841613Y-186891322D01*
X105856270Y-186870439D01*
X105859138Y-186860648D01*
X105858996Y-186847639D01*
X105854961Y-186829105D01*
X105846146Y-186802743D01*
X105831669Y-186766248D01*
X105810645Y-186717313D01*
X105782188Y-186653635D01*
X105745415Y-186572907D01*
X105725175Y-186528784D01*
X105688625Y-186450015D01*
X105654315Y-186377577D01*
X105623552Y-186314120D01*
X105597648Y-186262292D01*
X105577910Y-186224741D01*
X105565650Y-186204116D01*
X105563224Y-186201267D01*
X105532183Y-186188698D01*
X105497121Y-186190381D01*
X105469000Y-186205668D01*
X105467854Y-186206911D01*
X105456668Y-186223846D01*
X105437904Y-186256830D01*
X105413875Y-186301620D01*
X105386897Y-186353968D01*
X105377201Y-186373258D01*
X105304014Y-186519850D01*
X105224240Y-186360607D01*
X105195767Y-186305585D01*
X105169350Y-186257868D01*
X105147148Y-186221107D01*
X105131319Y-186198956D01*
X105125954Y-186194259D01*
X105084257Y-186187898D01*
X105049849Y-186201267D01*
X105039728Y-186215554D01*
X105022214Y-186247308D01*
X104998735Y-186293403D01*
X104970720Y-186350715D01*
X104939599Y-186416120D01*
X104906799Y-186486493D01*
X104873750Y-186558709D01*
X104841881Y-186629645D01*
X104812619Y-186696175D01*
X104787395Y-186755174D01*
X104767636Y-186803519D01*
X104754772Y-186838085D01*
X104750231Y-186855747D01*
X104750277Y-186856387D01*
X104761326Y-186878612D01*
X104783410Y-186901247D01*
X104784710Y-186902232D01*
X104811853Y-186917575D01*
X104836958Y-186917426D01*
X104846368Y-186914534D01*
X104857834Y-186908282D01*
X104870010Y-186895986D01*
X104884357Y-186875092D01*
X104902336Y-186843051D01*
X104925407Y-186797312D01*
X104955030Y-186735323D01*
X104981745Y-186678102D01*
X105012480Y-186611774D01*
X105040021Y-186552126D01*
X105062938Y-186502275D01*
X105079798Y-186465336D01*
X105089173Y-186444427D01*
X105090540Y-186441155D01*
X105096689Y-186446503D01*
X105110822Y-186468891D01*
X105131057Y-186505054D01*
X105155515Y-186551723D01*
X105165248Y-186570978D01*
X105198217Y-186635996D01*
X105223643Y-186683346D01*
X105243612Y-186715781D01*
X105260210Y-186736054D01*
X105275524Y-186746918D01*
X105291640Y-186751125D01*
X105302143Y-186751600D01*
X105320670Y-186749958D01*
X105336904Y-186743169D01*
X105353035Y-186728434D01*
X105371251Y-186702956D01*
X105393739Y-186663939D01*
X105422689Y-186608586D01*
X105438662Y-186577097D01*
X105464570Y-186526913D01*
X105487167Y-186485296D01*
X105504458Y-186455758D01*
X105514450Y-186441811D01*
X105515809Y-186441230D01*
X105522261Y-186452207D01*
X105536708Y-186480710D01*
X105557703Y-186523756D01*
X105583797Y-186578362D01*
X105613546Y-186641546D01*
X105628180Y-186672929D01*
X105666250Y-186753922D01*
X105696905Y-186816244D01*
X105721737Y-186861929D01*
X105742337Y-186893011D01*
X105760298Y-186911522D01*
X105777210Y-186919496D01*
X105794665Y-186918966D01*
G37*
X105794665Y-186918966D02*
X105814255Y-186911965D01*
X105815010Y-186911623D01*
X105841613Y-186891322D01*
X105856270Y-186870439D01*
X105859138Y-186860648D01*
X105858996Y-186847639D01*
X105854961Y-186829105D01*
X105846146Y-186802743D01*
X105831669Y-186766248D01*
X105810645Y-186717313D01*
X105782188Y-186653635D01*
X105745415Y-186572907D01*
X105725175Y-186528784D01*
X105688625Y-186450015D01*
X105654315Y-186377577D01*
X105623552Y-186314120D01*
X105597648Y-186262292D01*
X105577910Y-186224741D01*
X105565650Y-186204116D01*
X105563224Y-186201267D01*
X105532183Y-186188698D01*
X105497121Y-186190381D01*
X105469000Y-186205668D01*
X105467854Y-186206911D01*
X105456668Y-186223846D01*
X105437904Y-186256830D01*
X105413875Y-186301620D01*
X105386897Y-186353968D01*
X105377201Y-186373258D01*
X105304014Y-186519850D01*
X105224240Y-186360607D01*
X105195767Y-186305585D01*
X105169350Y-186257868D01*
X105147148Y-186221107D01*
X105131319Y-186198956D01*
X105125954Y-186194259D01*
X105084257Y-186187898D01*
X105049849Y-186201267D01*
X105039728Y-186215554D01*
X105022214Y-186247308D01*
X104998735Y-186293403D01*
X104970720Y-186350715D01*
X104939599Y-186416120D01*
X104906799Y-186486493D01*
X104873750Y-186558709D01*
X104841881Y-186629645D01*
X104812619Y-186696175D01*
X104787395Y-186755174D01*
X104767636Y-186803519D01*
X104754772Y-186838085D01*
X104750231Y-186855747D01*
X104750277Y-186856387D01*
X104761326Y-186878612D01*
X104783410Y-186901247D01*
X104784710Y-186902232D01*
X104811853Y-186917575D01*
X104836958Y-186917426D01*
X104846368Y-186914534D01*
X104857834Y-186908282D01*
X104870010Y-186895986D01*
X104884357Y-186875092D01*
X104902336Y-186843051D01*
X104925407Y-186797312D01*
X104955030Y-186735323D01*
X104981745Y-186678102D01*
X105012480Y-186611774D01*
X105040021Y-186552126D01*
X105062938Y-186502275D01*
X105079798Y-186465336D01*
X105089173Y-186444427D01*
X105090540Y-186441155D01*
X105096689Y-186446503D01*
X105110822Y-186468891D01*
X105131057Y-186505054D01*
X105155515Y-186551723D01*
X105165248Y-186570978D01*
X105198217Y-186635996D01*
X105223643Y-186683346D01*
X105243612Y-186715781D01*
X105260210Y-186736054D01*
X105275524Y-186746918D01*
X105291640Y-186751125D01*
X105302143Y-186751600D01*
X105320670Y-186749958D01*
X105336904Y-186743169D01*
X105353035Y-186728434D01*
X105371251Y-186702956D01*
X105393739Y-186663939D01*
X105422689Y-186608586D01*
X105438662Y-186577097D01*
X105464570Y-186526913D01*
X105487167Y-186485296D01*
X105504458Y-186455758D01*
X105514450Y-186441811D01*
X105515809Y-186441230D01*
X105522261Y-186452207D01*
X105536708Y-186480710D01*
X105557703Y-186523756D01*
X105583797Y-186578362D01*
X105613546Y-186641546D01*
X105628180Y-186672929D01*
X105666250Y-186753922D01*
X105696905Y-186816244D01*
X105721737Y-186861929D01*
X105742337Y-186893011D01*
X105760298Y-186911522D01*
X105777210Y-186919496D01*
X105794665Y-186918966D01*
G36*
X103068309Y-186920725D02*
G01*
X103197288Y-186916364D01*
X103306991Y-186903139D01*
X103399226Y-186880259D01*
X103475802Y-186846930D01*
X103538527Y-186802362D01*
X103589212Y-186745764D01*
X103629663Y-186676342D01*
X103630459Y-186674649D01*
X103654601Y-186612517D01*
X103663203Y-186557491D01*
X103656231Y-186502113D01*
X103633654Y-186438927D01*
X103629372Y-186429311D01*
X103600172Y-186373034D01*
X103567356Y-186329549D01*
X103525002Y-186292583D01*
X103467190Y-186255865D01*
X103463831Y-186253948D01*
X103413504Y-186229773D01*
X103356621Y-186211718D01*
X103289527Y-186199161D01*
X103208565Y-186191478D01*
X103110082Y-186188047D01*
X103075286Y-186187749D01*
X102909594Y-186187155D01*
X102886197Y-186216900D01*
X102879257Y-186226681D01*
X102873842Y-186238103D01*
X102869765Y-186253905D01*
X102866837Y-186276825D01*
X102864867Y-186309604D01*
X102864225Y-186333911D01*
X103020844Y-186333911D01*
X103114726Y-186333911D01*
X103169664Y-186335517D01*
X103226060Y-186339745D01*
X103272345Y-186345708D01*
X103275139Y-186346210D01*
X103357348Y-186368264D01*
X103421114Y-186401400D01*
X103468452Y-186447153D01*
X103501382Y-186507061D01*
X103507108Y-186522939D01*
X103512721Y-186547667D01*
X103510291Y-186572098D01*
X103498467Y-186604600D01*
X103491340Y-186620566D01*
X103468000Y-186662994D01*
X103439880Y-186692760D01*
X103408940Y-186713489D01*
X103346966Y-186740463D01*
X103267651Y-186760002D01*
X103175253Y-186771254D01*
X103108333Y-186773730D01*
X103020844Y-186774178D01*
X103020844Y-186333911D01*
X102864225Y-186333911D01*
X102863668Y-186354979D01*
X102863050Y-186415689D01*
X102862825Y-186494474D01*
X102862800Y-186556080D01*
X102862800Y-186865515D01*
X102890509Y-186893224D01*
X102902806Y-186904456D01*
X102916103Y-186912147D01*
X102934672Y-186916960D01*
X102962786Y-186919554D01*
X103004717Y-186920590D01*
X103064737Y-186920730D01*
X103068309Y-186920725D01*
G37*
X103068309Y-186920725D02*
X103197288Y-186916364D01*
X103306991Y-186903139D01*
X103399226Y-186880259D01*
X103475802Y-186846930D01*
X103538527Y-186802362D01*
X103589212Y-186745764D01*
X103629663Y-186676342D01*
X103630459Y-186674649D01*
X103654601Y-186612517D01*
X103663203Y-186557491D01*
X103656231Y-186502113D01*
X103633654Y-186438927D01*
X103629372Y-186429311D01*
X103600172Y-186373034D01*
X103567356Y-186329549D01*
X103525002Y-186292583D01*
X103467190Y-186255865D01*
X103463831Y-186253948D01*
X103413504Y-186229773D01*
X103356621Y-186211718D01*
X103289527Y-186199161D01*
X103208565Y-186191478D01*
X103110082Y-186188047D01*
X103075286Y-186187749D01*
X102909594Y-186187155D01*
X102886197Y-186216900D01*
X102879257Y-186226681D01*
X102873842Y-186238103D01*
X102869765Y-186253905D01*
X102866837Y-186276825D01*
X102864867Y-186309604D01*
X102864225Y-186333911D01*
X103020844Y-186333911D01*
X103114726Y-186333911D01*
X103169664Y-186335517D01*
X103226060Y-186339745D01*
X103272345Y-186345708D01*
X103275139Y-186346210D01*
X103357348Y-186368264D01*
X103421114Y-186401400D01*
X103468452Y-186447153D01*
X103501382Y-186507061D01*
X103507108Y-186522939D01*
X103512721Y-186547667D01*
X103510291Y-186572098D01*
X103498467Y-186604600D01*
X103491340Y-186620566D01*
X103468000Y-186662994D01*
X103439880Y-186692760D01*
X103408940Y-186713489D01*
X103346966Y-186740463D01*
X103267651Y-186760002D01*
X103175253Y-186771254D01*
X103108333Y-186773730D01*
X103020844Y-186774178D01*
X103020844Y-186333911D01*
X102864225Y-186333911D01*
X102863668Y-186354979D01*
X102863050Y-186415689D01*
X102862825Y-186494474D01*
X102862800Y-186556080D01*
X102862800Y-186865515D01*
X102890509Y-186893224D01*
X102902806Y-186904456D01*
X102916103Y-186912147D01*
X102934672Y-186916960D01*
X102962786Y-186919554D01*
X103004717Y-186920590D01*
X103064737Y-186920730D01*
X103068309Y-186920725D01*
G36*
X102280343Y-186920740D02*
G01*
X102356701Y-186919826D01*
X102415217Y-186917689D01*
X102458255Y-186913825D01*
X102488183Y-186907733D01*
X102507368Y-186898910D01*
X102518176Y-186886854D01*
X102522973Y-186871061D01*
X102524127Y-186851030D01*
X102524133Y-186848665D01*
X102523131Y-186826008D01*
X102518396Y-186808497D01*
X102507333Y-186795426D01*
X102487348Y-186786087D01*
X102455846Y-186779773D01*
X102410232Y-186775778D01*
X102347913Y-186773394D01*
X102266293Y-186771914D01*
X102241277Y-186771586D01*
X101999200Y-186768533D01*
X101995814Y-186703622D01*
X101992429Y-186638711D01*
X102160576Y-186638711D01*
X102226266Y-186638469D01*
X102273172Y-186637444D01*
X102305083Y-186635189D01*
X102325791Y-186631258D01*
X102339084Y-186625202D01*
X102348755Y-186616576D01*
X102348817Y-186616507D01*
X102366356Y-186582888D01*
X102365722Y-186546552D01*
X102347314Y-186515577D01*
X102343671Y-186512393D01*
X102330741Y-186504188D01*
X102313024Y-186498479D01*
X102286570Y-186494838D01*
X102247432Y-186492833D01*
X102191662Y-186492036D01*
X102155994Y-186491955D01*
X101993555Y-186491955D01*
X101993555Y-186333911D01*
X102240161Y-186333911D01*
X102321580Y-186333769D01*
X102383410Y-186333186D01*
X102428637Y-186331932D01*
X102460248Y-186329773D01*
X102481231Y-186326477D01*
X102494573Y-186321811D01*
X102503261Y-186315543D01*
X102505450Y-186313267D01*
X102521614Y-186281720D01*
X102522797Y-186245832D01*
X102509536Y-186214715D01*
X102499043Y-186204729D01*
X102488129Y-186199231D01*
X102471217Y-186194978D01*
X102445633Y-186191820D01*
X102408701Y-186189608D01*
X102357746Y-186188194D01*
X102290094Y-186187428D01*
X102203069Y-186187162D01*
X102183394Y-186187155D01*
X102094911Y-186187213D01*
X102026227Y-186187533D01*
X101974564Y-186188333D01*
X101937145Y-186189833D01*
X101911190Y-186192251D01*
X101893922Y-186195806D01*
X101882562Y-186200718D01*
X101874332Y-186207205D01*
X101869817Y-186211862D01*
X101863021Y-186220111D01*
X101857712Y-186230331D01*
X101853706Y-186245200D01*
X101850821Y-186267398D01*
X101848874Y-186299607D01*
X101847681Y-186344504D01*
X101847061Y-186404772D01*
X101846829Y-186483089D01*
X101846800Y-186549006D01*
X101846871Y-186641372D01*
X101847208Y-186713883D01*
X101847998Y-186769263D01*
X101849426Y-186810235D01*
X101851679Y-186839522D01*
X101854943Y-186859847D01*
X101859404Y-186873934D01*
X101865248Y-186884505D01*
X101870197Y-186891189D01*
X101893594Y-186920933D01*
X102183774Y-186920933D01*
X102280343Y-186920740D01*
G37*
X102280343Y-186920740D02*
X102356701Y-186919826D01*
X102415217Y-186917689D01*
X102458255Y-186913825D01*
X102488183Y-186907733D01*
X102507368Y-186898910D01*
X102518176Y-186886854D01*
X102522973Y-186871061D01*
X102524127Y-186851030D01*
X102524133Y-186848665D01*
X102523131Y-186826008D01*
X102518396Y-186808497D01*
X102507333Y-186795426D01*
X102487348Y-186786087D01*
X102455846Y-186779773D01*
X102410232Y-186775778D01*
X102347913Y-186773394D01*
X102266293Y-186771914D01*
X102241277Y-186771586D01*
X101999200Y-186768533D01*
X101995814Y-186703622D01*
X101992429Y-186638711D01*
X102160576Y-186638711D01*
X102226266Y-186638469D01*
X102273172Y-186637444D01*
X102305083Y-186635189D01*
X102325791Y-186631258D01*
X102339084Y-186625202D01*
X102348755Y-186616576D01*
X102348817Y-186616507D01*
X102366356Y-186582888D01*
X102365722Y-186546552D01*
X102347314Y-186515577D01*
X102343671Y-186512393D01*
X102330741Y-186504188D01*
X102313024Y-186498479D01*
X102286570Y-186494838D01*
X102247432Y-186492833D01*
X102191662Y-186492036D01*
X102155994Y-186491955D01*
X101993555Y-186491955D01*
X101993555Y-186333911D01*
X102240161Y-186333911D01*
X102321580Y-186333769D01*
X102383410Y-186333186D01*
X102428637Y-186331932D01*
X102460248Y-186329773D01*
X102481231Y-186326477D01*
X102494573Y-186321811D01*
X102503261Y-186315543D01*
X102505450Y-186313267D01*
X102521614Y-186281720D01*
X102522797Y-186245832D01*
X102509536Y-186214715D01*
X102499043Y-186204729D01*
X102488129Y-186199231D01*
X102471217Y-186194978D01*
X102445633Y-186191820D01*
X102408701Y-186189608D01*
X102357746Y-186188194D01*
X102290094Y-186187428D01*
X102203069Y-186187162D01*
X102183394Y-186187155D01*
X102094911Y-186187213D01*
X102026227Y-186187533D01*
X101974564Y-186188333D01*
X101937145Y-186189833D01*
X101911190Y-186192251D01*
X101893922Y-186195806D01*
X101882562Y-186200718D01*
X101874332Y-186207205D01*
X101869817Y-186211862D01*
X101863021Y-186220111D01*
X101857712Y-186230331D01*
X101853706Y-186245200D01*
X101850821Y-186267398D01*
X101848874Y-186299607D01*
X101847681Y-186344504D01*
X101847061Y-186404772D01*
X101846829Y-186483089D01*
X101846800Y-186549006D01*
X101846871Y-186641372D01*
X101847208Y-186713883D01*
X101847998Y-186769263D01*
X101849426Y-186810235D01*
X101851679Y-186839522D01*
X101854943Y-186859847D01*
X101859404Y-186873934D01*
X101865248Y-186884505D01*
X101870197Y-186891189D01*
X101893594Y-186920933D01*
X102183774Y-186920933D01*
X102280343Y-186920740D01*
G36*
X100749886Y-186916552D02*
G01*
X100773452Y-186902727D01*
X100804265Y-186880119D01*
X100843922Y-186847662D01*
X100894020Y-186804292D01*
X100956157Y-186748942D01*
X101031928Y-186680549D01*
X101118666Y-186601916D01*
X101299289Y-186438122D01*
X101304933Y-186657971D01*
X101306971Y-186733649D01*
X101308937Y-186790006D01*
X101311266Y-186830294D01*
X101314394Y-186857765D01*
X101318755Y-186875671D01*
X101324784Y-186887263D01*
X101332916Y-186895792D01*
X101337228Y-186899377D01*
X101371759Y-186918330D01*
X101404617Y-186915559D01*
X101430682Y-186899367D01*
X101457333Y-186877801D01*
X101460648Y-186562849D01*
X101461565Y-186470221D01*
X101462032Y-186397456D01*
X101461887Y-186341839D01*
X101460968Y-186300658D01*
X101459113Y-186271197D01*
X101456161Y-186250745D01*
X101451950Y-186236587D01*
X101446318Y-186226009D01*
X101440073Y-186217526D01*
X101426561Y-186201793D01*
X101413117Y-186191364D01*
X101397876Y-186187361D01*
X101378974Y-186190906D01*
X101354545Y-186203121D01*
X101322727Y-186225129D01*
X101281652Y-186258051D01*
X101229458Y-186303009D01*
X101164278Y-186361125D01*
X101090444Y-186427901D01*
X100825155Y-186668542D01*
X100819511Y-186449411D01*
X100817469Y-186373872D01*
X100815498Y-186317646D01*
X100813161Y-186277476D01*
X100810019Y-186250104D01*
X100805636Y-186232272D01*
X100799576Y-186220721D01*
X100791400Y-186212193D01*
X100787216Y-186208718D01*
X100750235Y-186189628D01*
X100715292Y-186192507D01*
X100684864Y-186216900D01*
X100677903Y-186226714D01*
X100672477Y-186238174D01*
X100668397Y-186254032D01*
X100665471Y-186277037D01*
X100663508Y-186309938D01*
X100662317Y-186355484D01*
X100661708Y-186416427D01*
X100661489Y-186495514D01*
X100661466Y-186554044D01*
X100661540Y-186645593D01*
X100661887Y-186717313D01*
X100662699Y-186771955D01*
X100664167Y-186812268D01*
X100666481Y-186841002D01*
X100669833Y-186860907D01*
X100674412Y-186874732D01*
X100680411Y-186885228D01*
X100684864Y-186891189D01*
X100696150Y-186905309D01*
X100706699Y-186915971D01*
X100718107Y-186922108D01*
X100731970Y-186922657D01*
X100749886Y-186916552D01*
G37*
X100749886Y-186916552D02*
X100773452Y-186902727D01*
X100804265Y-186880119D01*
X100843922Y-186847662D01*
X100894020Y-186804292D01*
X100956157Y-186748942D01*
X101031928Y-186680549D01*
X101118666Y-186601916D01*
X101299289Y-186438122D01*
X101304933Y-186657971D01*
X101306971Y-186733649D01*
X101308937Y-186790006D01*
X101311266Y-186830294D01*
X101314394Y-186857765D01*
X101318755Y-186875671D01*
X101324784Y-186887263D01*
X101332916Y-186895792D01*
X101337228Y-186899377D01*
X101371759Y-186918330D01*
X101404617Y-186915559D01*
X101430682Y-186899367D01*
X101457333Y-186877801D01*
X101460648Y-186562849D01*
X101461565Y-186470221D01*
X101462032Y-186397456D01*
X101461887Y-186341839D01*
X101460968Y-186300658D01*
X101459113Y-186271197D01*
X101456161Y-186250745D01*
X101451950Y-186236587D01*
X101446318Y-186226009D01*
X101440073Y-186217526D01*
X101426561Y-186201793D01*
X101413117Y-186191364D01*
X101397876Y-186187361D01*
X101378974Y-186190906D01*
X101354545Y-186203121D01*
X101322727Y-186225129D01*
X101281652Y-186258051D01*
X101229458Y-186303009D01*
X101164278Y-186361125D01*
X101090444Y-186427901D01*
X100825155Y-186668542D01*
X100819511Y-186449411D01*
X100817469Y-186373872D01*
X100815498Y-186317646D01*
X100813161Y-186277476D01*
X100810019Y-186250104D01*
X100805636Y-186232272D01*
X100799576Y-186220721D01*
X100791400Y-186212193D01*
X100787216Y-186208718D01*
X100750235Y-186189628D01*
X100715292Y-186192507D01*
X100684864Y-186216900D01*
X100677903Y-186226714D01*
X100672477Y-186238174D01*
X100668397Y-186254032D01*
X100665471Y-186277037D01*
X100663508Y-186309938D01*
X100662317Y-186355484D01*
X100661708Y-186416427D01*
X100661489Y-186495514D01*
X100661466Y-186554044D01*
X100661540Y-186645593D01*
X100661887Y-186717313D01*
X100662699Y-186771955D01*
X100664167Y-186812268D01*
X100666481Y-186841002D01*
X100669833Y-186860907D01*
X100674412Y-186874732D01*
X100680411Y-186885228D01*
X100684864Y-186891189D01*
X100696150Y-186905309D01*
X100706699Y-186915971D01*
X100718107Y-186922108D01*
X100731970Y-186922657D01*
X100749886Y-186916552D01*
G36*
X100099919Y-186915401D02*
G01*
X100168435Y-186903905D01*
X100221057Y-186886033D01*
X100255292Y-186862501D01*
X100264621Y-186849076D01*
X100274107Y-186817852D01*
X100267723Y-186789605D01*
X100247570Y-186762818D01*
X100216255Y-186750287D01*
X100170817Y-186751304D01*
X100135674Y-186758094D01*
X100057581Y-186771029D01*
X99977774Y-186772258D01*
X99888445Y-186761759D01*
X99863771Y-186757310D01*
X99780709Y-186733892D01*
X99715727Y-186699055D01*
X99669539Y-186653396D01*
X99642855Y-186597506D01*
X99637337Y-186568612D01*
X99640949Y-186509988D01*
X99664271Y-186458121D01*
X99705176Y-186414022D01*
X99761541Y-186378701D01*
X99831240Y-186353171D01*
X99912148Y-186338441D01*
X100002140Y-186335522D01*
X100099090Y-186345425D01*
X100104564Y-186346359D01*
X100143125Y-186353541D01*
X100164506Y-186360479D01*
X100173773Y-186370773D01*
X100175994Y-186388024D01*
X100176044Y-186397159D01*
X100176044Y-186435511D01*
X100107569Y-186435511D01*
X100047100Y-186439653D01*
X100005835Y-186452853D01*
X99981825Y-186476270D01*
X99973123Y-186511064D01*
X99973017Y-186515606D01*
X99978108Y-186545346D01*
X99995567Y-186566581D01*
X100028061Y-186580634D01*
X100078257Y-186588827D01*
X100126877Y-186591839D01*
X100197544Y-186593567D01*
X100248802Y-186590930D01*
X100283761Y-186581200D01*
X100305530Y-186561647D01*
X100317220Y-186529544D01*
X100321940Y-186482162D01*
X100322800Y-186419929D01*
X100321391Y-186350465D01*
X100317152Y-186303214D01*
X100310064Y-186277988D01*
X100308689Y-186276012D01*
X100269772Y-186244492D01*
X100212714Y-186219530D01*
X100141131Y-186201660D01*
X100058642Y-186191414D01*
X99968861Y-186189327D01*
X99875408Y-186195932D01*
X99820444Y-186204044D01*
X99734234Y-186228446D01*
X99654108Y-186268338D01*
X99587023Y-186320113D01*
X99576827Y-186330461D01*
X99543698Y-186373965D01*
X99513806Y-186427882D01*
X99490643Y-186484408D01*
X99477702Y-186535741D01*
X99476142Y-186555456D01*
X99482782Y-186596581D01*
X99500432Y-186647748D01*
X99525703Y-186701606D01*
X99555211Y-186750805D01*
X99581281Y-186783666D01*
X99642235Y-186832548D01*
X99721031Y-186871455D01*
X99814843Y-186899506D01*
X99920850Y-186915821D01*
X100018000Y-186919808D01*
X100099919Y-186915401D01*
G37*
X100099919Y-186915401D02*
X100168435Y-186903905D01*
X100221057Y-186886033D01*
X100255292Y-186862501D01*
X100264621Y-186849076D01*
X100274107Y-186817852D01*
X100267723Y-186789605D01*
X100247570Y-186762818D01*
X100216255Y-186750287D01*
X100170817Y-186751304D01*
X100135674Y-186758094D01*
X100057581Y-186771029D01*
X99977774Y-186772258D01*
X99888445Y-186761759D01*
X99863771Y-186757310D01*
X99780709Y-186733892D01*
X99715727Y-186699055D01*
X99669539Y-186653396D01*
X99642855Y-186597506D01*
X99637337Y-186568612D01*
X99640949Y-186509988D01*
X99664271Y-186458121D01*
X99705176Y-186414022D01*
X99761541Y-186378701D01*
X99831240Y-186353171D01*
X99912148Y-186338441D01*
X100002140Y-186335522D01*
X100099090Y-186345425D01*
X100104564Y-186346359D01*
X100143125Y-186353541D01*
X100164506Y-186360479D01*
X100173773Y-186370773D01*
X100175994Y-186388024D01*
X100176044Y-186397159D01*
X100176044Y-186435511D01*
X100107569Y-186435511D01*
X100047100Y-186439653D01*
X100005835Y-186452853D01*
X99981825Y-186476270D01*
X99973123Y-186511064D01*
X99973017Y-186515606D01*
X99978108Y-186545346D01*
X99995567Y-186566581D01*
X100028061Y-186580634D01*
X100078257Y-186588827D01*
X100126877Y-186591839D01*
X100197544Y-186593567D01*
X100248802Y-186590930D01*
X100283761Y-186581200D01*
X100305530Y-186561647D01*
X100317220Y-186529544D01*
X100321940Y-186482162D01*
X100322800Y-186419929D01*
X100321391Y-186350465D01*
X100317152Y-186303214D01*
X100310064Y-186277988D01*
X100308689Y-186276012D01*
X100269772Y-186244492D01*
X100212714Y-186219530D01*
X100141131Y-186201660D01*
X100058642Y-186191414D01*
X99968861Y-186189327D01*
X99875408Y-186195932D01*
X99820444Y-186204044D01*
X99734234Y-186228446D01*
X99654108Y-186268338D01*
X99587023Y-186320113D01*
X99576827Y-186330461D01*
X99543698Y-186373965D01*
X99513806Y-186427882D01*
X99490643Y-186484408D01*
X99477702Y-186535741D01*
X99476142Y-186555456D01*
X99482782Y-186596581D01*
X99500432Y-186647748D01*
X99525703Y-186701606D01*
X99555211Y-186750805D01*
X99581281Y-186783666D01*
X99642235Y-186832548D01*
X99721031Y-186871455D01*
X99814843Y-186899506D01*
X99920850Y-186915821D01*
X100018000Y-186919808D01*
X100099919Y-186915401D01*
G36*
X99126178Y-186898355D02*
G01*
X99132758Y-186890782D01*
X99137921Y-186881013D01*
X99141836Y-186866429D01*
X99144676Y-186844415D01*
X99146613Y-186812352D01*
X99147817Y-186767625D01*
X99148461Y-186707615D01*
X99148716Y-186629706D01*
X99148755Y-186554044D01*
X99148686Y-186460198D01*
X99148362Y-186386311D01*
X99147614Y-186329768D01*
X99146268Y-186287951D01*
X99144154Y-186258243D01*
X99141100Y-186238027D01*
X99136934Y-186224686D01*
X99131484Y-186215602D01*
X99126178Y-186209733D01*
X99093174Y-186190053D01*
X99058009Y-186191819D01*
X99026545Y-186213283D01*
X99019316Y-186221663D01*
X99013666Y-186231386D01*
X99009401Y-186245139D01*
X99006327Y-186265611D01*
X99004248Y-186295488D01*
X99002970Y-186337459D01*
X99002299Y-186394211D01*
X99002041Y-186468433D01*
X99002000Y-186552463D01*
X99002000Y-186865515D01*
X99029709Y-186893224D01*
X99063863Y-186916537D01*
X99096994Y-186917377D01*
X99126178Y-186898355D01*
G37*
X99126178Y-186898355D02*
X99132758Y-186890782D01*
X99137921Y-186881013D01*
X99141836Y-186866429D01*
X99144676Y-186844415D01*
X99146613Y-186812352D01*
X99147817Y-186767625D01*
X99148461Y-186707615D01*
X99148716Y-186629706D01*
X99148755Y-186554044D01*
X99148686Y-186460198D01*
X99148362Y-186386311D01*
X99147614Y-186329768D01*
X99146268Y-186287951D01*
X99144154Y-186258243D01*
X99141100Y-186238027D01*
X99136934Y-186224686D01*
X99131484Y-186215602D01*
X99126178Y-186209733D01*
X99093174Y-186190053D01*
X99058009Y-186191819D01*
X99026545Y-186213283D01*
X99019316Y-186221663D01*
X99013666Y-186231386D01*
X99009401Y-186245139D01*
X99006327Y-186265611D01*
X99004248Y-186295488D01*
X99002970Y-186337459D01*
X99002299Y-186394211D01*
X99002041Y-186468433D01*
X99002000Y-186552463D01*
X99002000Y-186865515D01*
X99029709Y-186893224D01*
X99063863Y-186916537D01*
X99096994Y-186917377D01*
X99126178Y-186898355D01*
G36*
X98358297Y-186919649D02*
G01*
X98433112Y-186914419D01*
X98502694Y-186906250D01*
X98562998Y-186895450D01*
X98609980Y-186882327D01*
X98639594Y-186867187D01*
X98644140Y-186862731D01*
X98659946Y-186828150D01*
X98655153Y-186792649D01*
X98630636Y-186762275D01*
X98629466Y-186761404D01*
X98615046Y-186752046D01*
X98599992Y-186747124D01*
X98578995Y-186746527D01*
X98546743Y-186750139D01*
X98497927Y-186757846D01*
X98494000Y-186758495D01*
X98421261Y-186767431D01*
X98342783Y-186771839D01*
X98264073Y-186771881D01*
X98190639Y-186767721D01*
X98127989Y-186759521D01*
X98081630Y-186747443D01*
X98078584Y-186746229D01*
X98044952Y-186727385D01*
X98033136Y-186708315D01*
X98042386Y-186689561D01*
X98071953Y-186671663D01*
X98121089Y-186655163D01*
X98189043Y-186640604D01*
X98234355Y-186633594D01*
X98328544Y-186620111D01*
X98403456Y-186607786D01*
X98462283Y-186595551D01*
X98508215Y-186582339D01*
X98544445Y-186567083D01*
X98574162Y-186548715D01*
X98600558Y-186526169D01*
X98621770Y-186504029D01*
X98646935Y-186473181D01*
X98659319Y-186446655D01*
X98663192Y-186413974D01*
X98663333Y-186402005D01*
X98660424Y-186362288D01*
X98648798Y-186332741D01*
X98628677Y-186306514D01*
X98587784Y-186266424D01*
X98542183Y-186235851D01*
X98488487Y-186213797D01*
X98423308Y-186199265D01*
X98343256Y-186191259D01*
X98244943Y-186188782D01*
X98228711Y-186188823D01*
X98163151Y-186190182D01*
X98098134Y-186193270D01*
X98040748Y-186197644D01*
X97998078Y-186202860D01*
X97994628Y-186203459D01*
X97952204Y-186213509D01*
X97916220Y-186226204D01*
X97895850Y-186237810D01*
X97876893Y-186268428D01*
X97875573Y-186304082D01*
X97891915Y-186335856D01*
X97895571Y-186339449D01*
X97910685Y-186350124D01*
X97929585Y-186354724D01*
X97958838Y-186353941D01*
X97994349Y-186349873D01*
X98034030Y-186346238D01*
X98089655Y-186343172D01*
X98154594Y-186340947D01*
X98222215Y-186339836D01*
X98240000Y-186339763D01*
X98307872Y-186340036D01*
X98357546Y-186341354D01*
X98393390Y-186344173D01*
X98419776Y-186348950D01*
X98441074Y-186356143D01*
X98453874Y-186362133D01*
X98482000Y-186378767D01*
X98499932Y-186393832D01*
X98502553Y-186398103D01*
X98497024Y-186415737D01*
X98470740Y-186432808D01*
X98425522Y-186448542D01*
X98363192Y-186462162D01*
X98344829Y-186465196D01*
X98248910Y-186480262D01*
X98172359Y-186492854D01*
X98112220Y-186503889D01*
X98065540Y-186514280D01*
X98029363Y-186524944D01*
X98000735Y-186536795D01*
X97976702Y-186550749D01*
X97954308Y-186567719D01*
X97930598Y-186588622D01*
X97922620Y-186595951D01*
X97894647Y-186623301D01*
X97879840Y-186644971D01*
X97874048Y-186669768D01*
X97873111Y-186701017D01*
X97883425Y-186762295D01*
X97914248Y-186814360D01*
X97965405Y-186857042D01*
X98036717Y-186890175D01*
X98087600Y-186905036D01*
X98142900Y-186914634D01*
X98209147Y-186920064D01*
X98282294Y-186921633D01*
X98358297Y-186919649D01*
G37*
X98358297Y-186919649D02*
X98433112Y-186914419D01*
X98502694Y-186906250D01*
X98562998Y-186895450D01*
X98609980Y-186882327D01*
X98639594Y-186867187D01*
X98644140Y-186862731D01*
X98659946Y-186828150D01*
X98655153Y-186792649D01*
X98630636Y-186762275D01*
X98629466Y-186761404D01*
X98615046Y-186752046D01*
X98599992Y-186747124D01*
X98578995Y-186746527D01*
X98546743Y-186750139D01*
X98497927Y-186757846D01*
X98494000Y-186758495D01*
X98421261Y-186767431D01*
X98342783Y-186771839D01*
X98264073Y-186771881D01*
X98190639Y-186767721D01*
X98127989Y-186759521D01*
X98081630Y-186747443D01*
X98078584Y-186746229D01*
X98044952Y-186727385D01*
X98033136Y-186708315D01*
X98042386Y-186689561D01*
X98071953Y-186671663D01*
X98121089Y-186655163D01*
X98189043Y-186640604D01*
X98234355Y-186633594D01*
X98328544Y-186620111D01*
X98403456Y-186607786D01*
X98462283Y-186595551D01*
X98508215Y-186582339D01*
X98544445Y-186567083D01*
X98574162Y-186548715D01*
X98600558Y-186526169D01*
X98621770Y-186504029D01*
X98646935Y-186473181D01*
X98659319Y-186446655D01*
X98663192Y-186413974D01*
X98663333Y-186402005D01*
X98660424Y-186362288D01*
X98648798Y-186332741D01*
X98628677Y-186306514D01*
X98587784Y-186266424D01*
X98542183Y-186235851D01*
X98488487Y-186213797D01*
X98423308Y-186199265D01*
X98343256Y-186191259D01*
X98244943Y-186188782D01*
X98228711Y-186188823D01*
X98163151Y-186190182D01*
X98098134Y-186193270D01*
X98040748Y-186197644D01*
X97998078Y-186202860D01*
X97994628Y-186203459D01*
X97952204Y-186213509D01*
X97916220Y-186226204D01*
X97895850Y-186237810D01*
X97876893Y-186268428D01*
X97875573Y-186304082D01*
X97891915Y-186335856D01*
X97895571Y-186339449D01*
X97910685Y-186350124D01*
X97929585Y-186354724D01*
X97958838Y-186353941D01*
X97994349Y-186349873D01*
X98034030Y-186346238D01*
X98089655Y-186343172D01*
X98154594Y-186340947D01*
X98222215Y-186339836D01*
X98240000Y-186339763D01*
X98307872Y-186340036D01*
X98357546Y-186341354D01*
X98393390Y-186344173D01*
X98419776Y-186348950D01*
X98441074Y-186356143D01*
X98453874Y-186362133D01*
X98482000Y-186378767D01*
X98499932Y-186393832D01*
X98502553Y-186398103D01*
X98497024Y-186415737D01*
X98470740Y-186432808D01*
X98425522Y-186448542D01*
X98363192Y-186462162D01*
X98344829Y-186465196D01*
X98248910Y-186480262D01*
X98172359Y-186492854D01*
X98112220Y-186503889D01*
X98065540Y-186514280D01*
X98029363Y-186524944D01*
X98000735Y-186536795D01*
X97976702Y-186550749D01*
X97954308Y-186567719D01*
X97930598Y-186588622D01*
X97922620Y-186595951D01*
X97894647Y-186623301D01*
X97879840Y-186644971D01*
X97874048Y-186669768D01*
X97873111Y-186701017D01*
X97883425Y-186762295D01*
X97914248Y-186814360D01*
X97965405Y-186857042D01*
X98036717Y-186890175D01*
X98087600Y-186905036D01*
X98142900Y-186914634D01*
X98209147Y-186920064D01*
X98282294Y-186921633D01*
X98358297Y-186919649D01*
G36*
X97337206Y-186920854D02*
G01*
X97406614Y-186920482D01*
X97459003Y-186919615D01*
X97497153Y-186918054D01*
X97523841Y-186915597D01*
X97541847Y-186912043D01*
X97553951Y-186907190D01*
X97562931Y-186900839D01*
X97566182Y-186897916D01*
X97585957Y-186866858D01*
X97589518Y-186831172D01*
X97576509Y-186799490D01*
X97570494Y-186793087D01*
X97560765Y-186786879D01*
X97545099Y-186782090D01*
X97520592Y-186778486D01*
X97484339Y-186775836D01*
X97433435Y-186773905D01*
X97364974Y-186772461D01*
X97302383Y-186771582D01*
X97054666Y-186768533D01*
X97051281Y-186703622D01*
X97047895Y-186638711D01*
X97216042Y-186638711D01*
X97289041Y-186638081D01*
X97342483Y-186635447D01*
X97379372Y-186629691D01*
X97402712Y-186619696D01*
X97415506Y-186604344D01*
X97420758Y-186582518D01*
X97421555Y-186562262D01*
X97419077Y-186537408D01*
X97409723Y-186519094D01*
X97390617Y-186506363D01*
X97358882Y-186498259D01*
X97311641Y-186493824D01*
X97246017Y-186492101D01*
X97210199Y-186491955D01*
X97049022Y-186491955D01*
X97049022Y-186333911D01*
X97297378Y-186333911D01*
X97378787Y-186333798D01*
X97440658Y-186333288D01*
X97486032Y-186332130D01*
X97517946Y-186330070D01*
X97539441Y-186326854D01*
X97553557Y-186322228D01*
X97563332Y-186315941D01*
X97568311Y-186311333D01*
X97585390Y-186284440D01*
X97590889Y-186260533D01*
X97583037Y-186231333D01*
X97568311Y-186209733D01*
X97560454Y-186202934D01*
X97550312Y-186197654D01*
X97535156Y-186193702D01*
X97512259Y-186190887D01*
X97478891Y-186189018D01*
X97432325Y-186187902D01*
X97369833Y-186187349D01*
X97288686Y-186187167D01*
X97246578Y-186187155D01*
X97156402Y-186187235D01*
X97086076Y-186187602D01*
X97032871Y-186188448D01*
X96994060Y-186189964D01*
X96966913Y-186192341D01*
X96948702Y-186195771D01*
X96936700Y-186200446D01*
X96928178Y-186206556D01*
X96924844Y-186209733D01*
X96918245Y-186217330D01*
X96913073Y-186227130D01*
X96909154Y-186241761D01*
X96906316Y-186263848D01*
X96904385Y-186296018D01*
X96903188Y-186340897D01*
X96902552Y-186401111D01*
X96902303Y-186479287D01*
X96902266Y-186552077D01*
X96902300Y-186645293D01*
X96902535Y-186718569D01*
X96903170Y-186774542D01*
X96904406Y-186815849D01*
X96906444Y-186845128D01*
X96909483Y-186865016D01*
X96913723Y-186878150D01*
X96919365Y-186887168D01*
X96926609Y-186894707D01*
X96928394Y-186896388D01*
X96937055Y-186903828D01*
X96947118Y-186909591D01*
X96961375Y-186913888D01*
X96982617Y-186916936D01*
X97013636Y-186918949D01*
X97057223Y-186920140D01*
X97116169Y-186920725D01*
X97193266Y-186920917D01*
X97247999Y-186920933D01*
X97337206Y-186920854D01*
G37*
X97337206Y-186920854D02*
X97406614Y-186920482D01*
X97459003Y-186919615D01*
X97497153Y-186918054D01*
X97523841Y-186915597D01*
X97541847Y-186912043D01*
X97553951Y-186907190D01*
X97562931Y-186900839D01*
X97566182Y-186897916D01*
X97585957Y-186866858D01*
X97589518Y-186831172D01*
X97576509Y-186799490D01*
X97570494Y-186793087D01*
X97560765Y-186786879D01*
X97545099Y-186782090D01*
X97520592Y-186778486D01*
X97484339Y-186775836D01*
X97433435Y-186773905D01*
X97364974Y-186772461D01*
X97302383Y-186771582D01*
X97054666Y-186768533D01*
X97051281Y-186703622D01*
X97047895Y-186638711D01*
X97216042Y-186638711D01*
X97289041Y-186638081D01*
X97342483Y-186635447D01*
X97379372Y-186629691D01*
X97402712Y-186619696D01*
X97415506Y-186604344D01*
X97420758Y-186582518D01*
X97421555Y-186562262D01*
X97419077Y-186537408D01*
X97409723Y-186519094D01*
X97390617Y-186506363D01*
X97358882Y-186498259D01*
X97311641Y-186493824D01*
X97246017Y-186492101D01*
X97210199Y-186491955D01*
X97049022Y-186491955D01*
X97049022Y-186333911D01*
X97297378Y-186333911D01*
X97378787Y-186333798D01*
X97440658Y-186333288D01*
X97486032Y-186332130D01*
X97517946Y-186330070D01*
X97539441Y-186326854D01*
X97553557Y-186322228D01*
X97563332Y-186315941D01*
X97568311Y-186311333D01*
X97585390Y-186284440D01*
X97590889Y-186260533D01*
X97583037Y-186231333D01*
X97568311Y-186209733D01*
X97560454Y-186202934D01*
X97550312Y-186197654D01*
X97535156Y-186193702D01*
X97512259Y-186190887D01*
X97478891Y-186189018D01*
X97432325Y-186187902D01*
X97369833Y-186187349D01*
X97288686Y-186187167D01*
X97246578Y-186187155D01*
X97156402Y-186187235D01*
X97086076Y-186187602D01*
X97032871Y-186188448D01*
X96994060Y-186189964D01*
X96966913Y-186192341D01*
X96948702Y-186195771D01*
X96936700Y-186200446D01*
X96928178Y-186206556D01*
X96924844Y-186209733D01*
X96918245Y-186217330D01*
X96913073Y-186227130D01*
X96909154Y-186241761D01*
X96906316Y-186263848D01*
X96904385Y-186296018D01*
X96903188Y-186340897D01*
X96902552Y-186401111D01*
X96902303Y-186479287D01*
X96902266Y-186552077D01*
X96902300Y-186645293D01*
X96902535Y-186718569D01*
X96903170Y-186774542D01*
X96904406Y-186815849D01*
X96906444Y-186845128D01*
X96909483Y-186865016D01*
X96913723Y-186878150D01*
X96919365Y-186887168D01*
X96926609Y-186894707D01*
X96928394Y-186896388D01*
X96937055Y-186903828D01*
X96947118Y-186909591D01*
X96961375Y-186913888D01*
X96982617Y-186916936D01*
X97013636Y-186918949D01*
X97057223Y-186920140D01*
X97116169Y-186920725D01*
X97193266Y-186920917D01*
X97247999Y-186920933D01*
X97337206Y-186920854D01*
G36*
X95928629Y-186920934D02*
G01*
X95968111Y-186920533D01*
X96083800Y-186917741D01*
X96180689Y-186909450D01*
X96262081Y-186894768D01*
X96331277Y-186872807D01*
X96391580Y-186842678D01*
X96446292Y-186803490D01*
X96465833Y-186786468D01*
X96498250Y-186746637D01*
X96527480Y-186692587D01*
X96550009Y-186632677D01*
X96562321Y-186575261D01*
X96563600Y-186554044D01*
X96555583Y-186495231D01*
X96534101Y-186430987D01*
X96503001Y-186370179D01*
X96466134Y-186321670D01*
X96460146Y-186315818D01*
X96409421Y-186274679D01*
X96353875Y-186242565D01*
X96290304Y-186218635D01*
X96215506Y-186202047D01*
X96126278Y-186191959D01*
X96019418Y-186187531D01*
X95970472Y-186187155D01*
X95908238Y-186187455D01*
X95864472Y-186188708D01*
X95835069Y-186191446D01*
X95815921Y-186196199D01*
X95802923Y-186203499D01*
X95795955Y-186209733D01*
X95789374Y-186217306D01*
X95784212Y-186227076D01*
X95780297Y-186241660D01*
X95777457Y-186263674D01*
X95775520Y-186295736D01*
X95774316Y-186340464D01*
X95773672Y-186400474D01*
X95773417Y-186478383D01*
X95773378Y-186554044D01*
X95773130Y-186654959D01*
X95773183Y-186735573D01*
X95774143Y-186774178D01*
X95920133Y-186774178D01*
X95920133Y-186333911D01*
X96013266Y-186333996D01*
X96069307Y-186335604D01*
X96128001Y-186339744D01*
X96176972Y-186345536D01*
X96178462Y-186345774D01*
X96257608Y-186364910D01*
X96318998Y-186394713D01*
X96365695Y-186437122D01*
X96395365Y-186483039D01*
X96413647Y-186533974D01*
X96412229Y-186581800D01*
X96391012Y-186633067D01*
X96349511Y-186686101D01*
X96292002Y-186725400D01*
X96217250Y-186751669D01*
X96167292Y-186760965D01*
X96110584Y-186767493D01*
X96050481Y-186772218D01*
X95999361Y-186774183D01*
X95996333Y-186774192D01*
X95920133Y-186774178D01*
X95774143Y-186774178D01*
X95774740Y-186798149D01*
X95779002Y-186844945D01*
X95787170Y-186878222D01*
X95800444Y-186900241D01*
X95820026Y-186913261D01*
X95847117Y-186919543D01*
X95882918Y-186921347D01*
X95928629Y-186920934D01*
G37*
X95928629Y-186920934D02*
X95968111Y-186920533D01*
X96083800Y-186917741D01*
X96180689Y-186909450D01*
X96262081Y-186894768D01*
X96331277Y-186872807D01*
X96391580Y-186842678D01*
X96446292Y-186803490D01*
X96465833Y-186786468D01*
X96498250Y-186746637D01*
X96527480Y-186692587D01*
X96550009Y-186632677D01*
X96562321Y-186575261D01*
X96563600Y-186554044D01*
X96555583Y-186495231D01*
X96534101Y-186430987D01*
X96503001Y-186370179D01*
X96466134Y-186321670D01*
X96460146Y-186315818D01*
X96409421Y-186274679D01*
X96353875Y-186242565D01*
X96290304Y-186218635D01*
X96215506Y-186202047D01*
X96126278Y-186191959D01*
X96019418Y-186187531D01*
X95970472Y-186187155D01*
X95908238Y-186187455D01*
X95864472Y-186188708D01*
X95835069Y-186191446D01*
X95815921Y-186196199D01*
X95802923Y-186203499D01*
X95795955Y-186209733D01*
X95789374Y-186217306D01*
X95784212Y-186227076D01*
X95780297Y-186241660D01*
X95777457Y-186263674D01*
X95775520Y-186295736D01*
X95774316Y-186340464D01*
X95773672Y-186400474D01*
X95773417Y-186478383D01*
X95773378Y-186554044D01*
X95773130Y-186654959D01*
X95773183Y-186735573D01*
X95774143Y-186774178D01*
X95920133Y-186774178D01*
X95920133Y-186333911D01*
X96013266Y-186333996D01*
X96069307Y-186335604D01*
X96128001Y-186339744D01*
X96176972Y-186345536D01*
X96178462Y-186345774D01*
X96257608Y-186364910D01*
X96318998Y-186394713D01*
X96365695Y-186437122D01*
X96395365Y-186483039D01*
X96413647Y-186533974D01*
X96412229Y-186581800D01*
X96391012Y-186633067D01*
X96349511Y-186686101D01*
X96292002Y-186725400D01*
X96217250Y-186751669D01*
X96167292Y-186760965D01*
X96110584Y-186767493D01*
X96050481Y-186772218D01*
X95999361Y-186774183D01*
X95996333Y-186774192D01*
X95920133Y-186774178D01*
X95774143Y-186774178D01*
X95774740Y-186798149D01*
X95779002Y-186844945D01*
X95787170Y-186878222D01*
X95800444Y-186900241D01*
X95820026Y-186913261D01*
X95847117Y-186919543D01*
X95882918Y-186921347D01*
X95928629Y-186920934D01*
G36*
X99776957Y-192163429D02*
G01*
X99873232Y-192139191D01*
X99959816Y-192096359D01*
X100034627Y-192036581D01*
X100095582Y-191961506D01*
X100140601Y-191872780D01*
X100166864Y-191776470D01*
X100172714Y-191679205D01*
X100157860Y-191585346D01*
X100124160Y-191497489D01*
X100073472Y-191418230D01*
X100007655Y-191350164D01*
X99928566Y-191295888D01*
X99838066Y-191257998D01*
X99786800Y-191245574D01*
X99742302Y-191238053D01*
X99708001Y-191235081D01*
X99675040Y-191236906D01*
X99634566Y-191243775D01*
X99601469Y-191250750D01*
X99508053Y-191282259D01*
X99424381Y-191333383D01*
X99352335Y-191402571D01*
X99293800Y-191488272D01*
X99279852Y-191515511D01*
X99263414Y-191551878D01*
X99253106Y-191582418D01*
X99247540Y-191614550D01*
X99245331Y-191655693D01*
X99245052Y-191701778D01*
X99249139Y-191786135D01*
X99262554Y-191855414D01*
X99287744Y-191916039D01*
X99327154Y-191974433D01*
X99365702Y-192018698D01*
X99437594Y-192084516D01*
X99512687Y-192129947D01*
X99595438Y-192157150D01*
X99673072Y-192167424D01*
X99776957Y-192163429D01*
G37*
X99776957Y-192163429D02*
X99873232Y-192139191D01*
X99959816Y-192096359D01*
X100034627Y-192036581D01*
X100095582Y-191961506D01*
X100140601Y-191872780D01*
X100166864Y-191776470D01*
X100172714Y-191679205D01*
X100157860Y-191585346D01*
X100124160Y-191497489D01*
X100073472Y-191418230D01*
X100007655Y-191350164D01*
X99928566Y-191295888D01*
X99838066Y-191257998D01*
X99786800Y-191245574D01*
X99742302Y-191238053D01*
X99708001Y-191235081D01*
X99675040Y-191236906D01*
X99634566Y-191243775D01*
X99601469Y-191250750D01*
X99508053Y-191282259D01*
X99424381Y-191333383D01*
X99352335Y-191402571D01*
X99293800Y-191488272D01*
X99279852Y-191515511D01*
X99263414Y-191551878D01*
X99253106Y-191582418D01*
X99247540Y-191614550D01*
X99245331Y-191655693D01*
X99245052Y-191701778D01*
X99249139Y-191786135D01*
X99262554Y-191855414D01*
X99287744Y-191916039D01*
X99327154Y-191974433D01*
X99365702Y-192018698D01*
X99437594Y-192084516D01*
X99512687Y-192129947D01*
X99595438Y-192157150D01*
X99673072Y-192167424D01*
X99776957Y-192163429D01*
G36*
X108236507Y-189717755D02*
G01*
X108236526Y-189483338D01*
X108236552Y-189270397D01*
X108236625Y-189077832D01*
X108236782Y-188904541D01*
X108237064Y-188749424D01*
X108237509Y-188611380D01*
X108238156Y-188489308D01*
X108239045Y-188382106D01*
X108240213Y-188288674D01*
X108241701Y-188207910D01*
X108243546Y-188138714D01*
X108245789Y-188079985D01*
X108248469Y-188030621D01*
X108251623Y-187989522D01*
X108255292Y-187955587D01*
X108259513Y-187927714D01*
X108264327Y-187904802D01*
X108269773Y-187885751D01*
X108275888Y-187869460D01*
X108282712Y-187854827D01*
X108290285Y-187840751D01*
X108298645Y-187826132D01*
X108303839Y-187817026D01*
X108338104Y-187756311D01*
X107479955Y-187756311D01*
X107479955Y-187852267D01*
X107479224Y-187895630D01*
X107477272Y-187928795D01*
X107474463Y-187946576D01*
X107473221Y-187948222D01*
X107461799Y-187941338D01*
X107439084Y-187923495D01*
X107416385Y-187904121D01*
X107361800Y-187863386D01*
X107292321Y-187822383D01*
X107215270Y-187784877D01*
X107137965Y-187754636D01*
X107107113Y-187744988D01*
X107038616Y-187730422D01*
X106955764Y-187720461D01*
X106866371Y-187715417D01*
X106778248Y-187715604D01*
X106699207Y-187721334D01*
X106661511Y-187727142D01*
X106523414Y-187765203D01*
X106396113Y-187822927D01*
X106280292Y-187899789D01*
X106176637Y-187995261D01*
X106085833Y-188108821D01*
X106019031Y-188219619D01*
X105964164Y-188336375D01*
X105922163Y-188455724D01*
X105892167Y-188581717D01*
X105873311Y-188718406D01*
X105864732Y-188869842D01*
X105864006Y-188947289D01*
X105866100Y-189004066D01*
X106695217Y-189004066D01*
X106695424Y-188910998D01*
X106698337Y-188823308D01*
X106704000Y-188746228D01*
X106712455Y-188684991D01*
X106715038Y-188672650D01*
X106746840Y-188565367D01*
X106788498Y-188478342D01*
X106840363Y-188411358D01*
X106902781Y-188364195D01*
X106976100Y-188336635D01*
X107060669Y-188328459D01*
X107156835Y-188339449D01*
X107220311Y-188355171D01*
X107269454Y-188373361D01*
X107323583Y-188399209D01*
X107364244Y-188422911D01*
X107434800Y-188469279D01*
X107434800Y-189619470D01*
X107367392Y-189663038D01*
X107288867Y-189703960D01*
X107204681Y-189730611D01*
X107119557Y-189742535D01*
X107038216Y-189739278D01*
X106965380Y-189720385D01*
X106933426Y-189704816D01*
X106875501Y-189661819D01*
X106826544Y-189605047D01*
X106785390Y-189532425D01*
X106750874Y-189441879D01*
X106721833Y-189331334D01*
X106720552Y-189325467D01*
X106710381Y-189263212D01*
X106702739Y-189185406D01*
X106697670Y-189097280D01*
X106695217Y-189004066D01*
X105866100Y-189004066D01*
X105871857Y-189160105D01*
X105893802Y-189355941D01*
X105929786Y-189534668D01*
X105979759Y-189696155D01*
X106043668Y-189840274D01*
X106121462Y-189966894D01*
X106213089Y-190075885D01*
X106318497Y-190167117D01*
X106363662Y-190198068D01*
X106464611Y-190254215D01*
X106567901Y-190293826D01*
X106677989Y-190317986D01*
X106799330Y-190327781D01*
X106891836Y-190326735D01*
X107021490Y-190315769D01*
X107134084Y-190293954D01*
X107232875Y-190260286D01*
X107321121Y-190213764D01*
X107369986Y-190179552D01*
X107399353Y-190157638D01*
X107421043Y-190142667D01*
X107429253Y-190138267D01*
X107430868Y-190149096D01*
X107432159Y-190179749D01*
X107433138Y-190227474D01*
X107433817Y-190289521D01*
X107434210Y-190363138D01*
X107434330Y-190445573D01*
X107434188Y-190534075D01*
X107433797Y-190625893D01*
X107433171Y-190718276D01*
X107432320Y-190808472D01*
X107431260Y-190893729D01*
X107430001Y-190971297D01*
X107428556Y-191038424D01*
X107426938Y-191092359D01*
X107425161Y-191130350D01*
X107424669Y-191137333D01*
X107417092Y-191207749D01*
X107405531Y-191262898D01*
X107387792Y-191310019D01*
X107361682Y-191356353D01*
X107355415Y-191365933D01*
X107330983Y-191402622D01*
X108236311Y-191402622D01*
X108236507Y-189717755D01*
G37*
X108236507Y-189717755D02*
X108236526Y-189483338D01*
X108236552Y-189270397D01*
X108236625Y-189077832D01*
X108236782Y-188904541D01*
X108237064Y-188749424D01*
X108237509Y-188611380D01*
X108238156Y-188489308D01*
X108239045Y-188382106D01*
X108240213Y-188288674D01*
X108241701Y-188207910D01*
X108243546Y-188138714D01*
X108245789Y-188079985D01*
X108248469Y-188030621D01*
X108251623Y-187989522D01*
X108255292Y-187955587D01*
X108259513Y-187927714D01*
X108264327Y-187904802D01*
X108269773Y-187885751D01*
X108275888Y-187869460D01*
X108282712Y-187854827D01*
X108290285Y-187840751D01*
X108298645Y-187826132D01*
X108303839Y-187817026D01*
X108338104Y-187756311D01*
X107479955Y-187756311D01*
X107479955Y-187852267D01*
X107479224Y-187895630D01*
X107477272Y-187928795D01*
X107474463Y-187946576D01*
X107473221Y-187948222D01*
X107461799Y-187941338D01*
X107439084Y-187923495D01*
X107416385Y-187904121D01*
X107361800Y-187863386D01*
X107292321Y-187822383D01*
X107215270Y-187784877D01*
X107137965Y-187754636D01*
X107107113Y-187744988D01*
X107038616Y-187730422D01*
X106955764Y-187720461D01*
X106866371Y-187715417D01*
X106778248Y-187715604D01*
X106699207Y-187721334D01*
X106661511Y-187727142D01*
X106523414Y-187765203D01*
X106396113Y-187822927D01*
X106280292Y-187899789D01*
X106176637Y-187995261D01*
X106085833Y-188108821D01*
X106019031Y-188219619D01*
X105964164Y-188336375D01*
X105922163Y-188455724D01*
X105892167Y-188581717D01*
X105873311Y-188718406D01*
X105864732Y-188869842D01*
X105864006Y-188947289D01*
X105866100Y-189004066D01*
X106695217Y-189004066D01*
X106695424Y-188910998D01*
X106698337Y-188823308D01*
X106704000Y-188746228D01*
X106712455Y-188684991D01*
X106715038Y-188672650D01*
X106746840Y-188565367D01*
X106788498Y-188478342D01*
X106840363Y-188411358D01*
X106902781Y-188364195D01*
X106976100Y-188336635D01*
X107060669Y-188328459D01*
X107156835Y-188339449D01*
X107220311Y-188355171D01*
X107269454Y-188373361D01*
X107323583Y-188399209D01*
X107364244Y-188422911D01*
X107434800Y-188469279D01*
X107434800Y-189619470D01*
X107367392Y-189663038D01*
X107288867Y-189703960D01*
X107204681Y-189730611D01*
X107119557Y-189742535D01*
X107038216Y-189739278D01*
X106965380Y-189720385D01*
X106933426Y-189704816D01*
X106875501Y-189661819D01*
X106826544Y-189605047D01*
X106785390Y-189532425D01*
X106750874Y-189441879D01*
X106721833Y-189331334D01*
X106720552Y-189325467D01*
X106710381Y-189263212D01*
X106702739Y-189185406D01*
X106697670Y-189097280D01*
X106695217Y-189004066D01*
X105866100Y-189004066D01*
X105871857Y-189160105D01*
X105893802Y-189355941D01*
X105929786Y-189534668D01*
X105979759Y-189696155D01*
X106043668Y-189840274D01*
X106121462Y-189966894D01*
X106213089Y-190075885D01*
X106318497Y-190167117D01*
X106363662Y-190198068D01*
X106464611Y-190254215D01*
X106567901Y-190293826D01*
X106677989Y-190317986D01*
X106799330Y-190327781D01*
X106891836Y-190326735D01*
X107021490Y-190315769D01*
X107134084Y-190293954D01*
X107232875Y-190260286D01*
X107321121Y-190213764D01*
X107369986Y-190179552D01*
X107399353Y-190157638D01*
X107421043Y-190142667D01*
X107429253Y-190138267D01*
X107430868Y-190149096D01*
X107432159Y-190179749D01*
X107433138Y-190227474D01*
X107433817Y-190289521D01*
X107434210Y-190363138D01*
X107434330Y-190445573D01*
X107434188Y-190534075D01*
X107433797Y-190625893D01*
X107433171Y-190718276D01*
X107432320Y-190808472D01*
X107431260Y-190893729D01*
X107430001Y-190971297D01*
X107428556Y-191038424D01*
X107426938Y-191092359D01*
X107425161Y-191130350D01*
X107424669Y-191137333D01*
X107417092Y-191207749D01*
X107405531Y-191262898D01*
X107387792Y-191310019D01*
X107361682Y-191356353D01*
X107355415Y-191365933D01*
X107330983Y-191402622D01*
X108236311Y-191402622D01*
X108236507Y-189717755D01*
G36*
X104723574Y-190323448D02*
G01*
X104875492Y-190303433D01*
X105010756Y-190269798D01*
X105130239Y-190222275D01*
X105234815Y-190160595D01*
X105312424Y-190097035D01*
X105381265Y-190022901D01*
X105435006Y-189943129D01*
X105477910Y-189850909D01*
X105493384Y-189807839D01*
X105506244Y-189768858D01*
X105517446Y-189732711D01*
X105527120Y-189697566D01*
X105535396Y-189661590D01*
X105542403Y-189622950D01*
X105548272Y-189579815D01*
X105553131Y-189530351D01*
X105557110Y-189472727D01*
X105560340Y-189405109D01*
X105562949Y-189325666D01*
X105565067Y-189232564D01*
X105566824Y-189123973D01*
X105568349Y-188998058D01*
X105569772Y-188852988D01*
X105571025Y-188710222D01*
X105572351Y-188554032D01*
X105573556Y-188418761D01*
X105574766Y-188302754D01*
X105576106Y-188204355D01*
X105577700Y-188121907D01*
X105579675Y-188053754D01*
X105582156Y-187998240D01*
X105585269Y-187953708D01*
X105589138Y-187918502D01*
X105593889Y-187890966D01*
X105599648Y-187869444D01*
X105606539Y-187852278D01*
X105614689Y-187837814D01*
X105624223Y-187824394D01*
X105635266Y-187810362D01*
X105639566Y-187804929D01*
X105655386Y-187782090D01*
X105662422Y-187766537D01*
X105662444Y-187766078D01*
X105651567Y-187763879D01*
X105620582Y-187761853D01*
X105571957Y-187760058D01*
X105508163Y-187758549D01*
X105431669Y-187757384D01*
X105344944Y-187756620D01*
X105250457Y-187756314D01*
X105239550Y-187756311D01*
X104816657Y-187756311D01*
X104813395Y-187852378D01*
X104810133Y-187948444D01*
X104748044Y-187897457D01*
X104650714Y-187829943D01*
X104540813Y-187775251D01*
X104454349Y-187745022D01*
X104385278Y-187730334D01*
X104301925Y-187720341D01*
X104212159Y-187715354D01*
X104123845Y-187715687D01*
X104044851Y-187721649D01*
X104008622Y-187727362D01*
X103868603Y-187765224D01*
X103742178Y-187820068D01*
X103630260Y-187891076D01*
X103533762Y-187977432D01*
X103453600Y-188078321D01*
X103390687Y-188192924D01*
X103346312Y-188319016D01*
X103333978Y-188375599D01*
X103326368Y-188437798D01*
X103322739Y-188512637D01*
X103322245Y-188546533D01*
X103322310Y-188549718D01*
X104082248Y-188549718D01*
X104091541Y-188474667D01*
X104119728Y-188410840D01*
X104168197Y-188355202D01*
X104173254Y-188350789D01*
X104221548Y-188315963D01*
X104273257Y-188293380D01*
X104333989Y-188281460D01*
X104409352Y-188278617D01*
X104427459Y-188279022D01*
X104481278Y-188281675D01*
X104521308Y-188287091D01*
X104556324Y-188297255D01*
X104595103Y-188314150D01*
X104605745Y-188319328D01*
X104666396Y-188355156D01*
X104713215Y-188397788D01*
X104725952Y-188413027D01*
X104770622Y-188469538D01*
X104770622Y-188665414D01*
X104770086Y-188744061D01*
X104768396Y-188802012D01*
X104765428Y-188841125D01*
X104761057Y-188863259D01*
X104756972Y-188869726D01*
X104741047Y-188872889D01*
X104707264Y-188875512D01*
X104660340Y-188877345D01*
X104604993Y-188878143D01*
X104596106Y-188878158D01*
X104475330Y-188872904D01*
X104372660Y-188856737D01*
X104286106Y-188829039D01*
X104213681Y-188789192D01*
X104158751Y-188742242D01*
X104114204Y-188684355D01*
X104089480Y-188621307D01*
X104082248Y-188549718D01*
X103322310Y-188549718D01*
X103324178Y-188640288D01*
X103332522Y-188719188D01*
X103348768Y-188790410D01*
X103374405Y-188861136D01*
X103398401Y-188913507D01*
X103457020Y-189008804D01*
X103535117Y-189096830D01*
X103630315Y-189175983D01*
X103740238Y-189244660D01*
X103862510Y-189301259D01*
X103994755Y-189344179D01*
X104059422Y-189359118D01*
X104195604Y-189381223D01*
X104344049Y-189395806D01*
X104495505Y-189402187D01*
X104622064Y-189400555D01*
X104783950Y-189393776D01*
X104776530Y-189452755D01*
X104757238Y-189551908D01*
X104726104Y-189632628D01*
X104682269Y-189695534D01*
X104624871Y-189741244D01*
X104553048Y-189770378D01*
X104465941Y-189783553D01*
X104362686Y-189781389D01*
X104324711Y-189777388D01*
X104183520Y-189752220D01*
X104046707Y-189711186D01*
X103952178Y-189673185D01*
X103907018Y-189653810D01*
X103868585Y-189638240D01*
X103842234Y-189628595D01*
X103834546Y-189626548D01*
X103824802Y-189635626D01*
X103808083Y-189664595D01*
X103784232Y-189713783D01*
X103753093Y-189783516D01*
X103714507Y-189874121D01*
X103707910Y-189889911D01*
X103677853Y-189962228D01*
X103650874Y-190027575D01*
X103628136Y-190083094D01*
X103610806Y-190125928D01*
X103600048Y-190153219D01*
X103596941Y-190162058D01*
X103606940Y-190166813D01*
X103633217Y-190172090D01*
X103661489Y-190175769D01*
X103691646Y-190180526D01*
X103739433Y-190189972D01*
X103800612Y-190203180D01*
X103870946Y-190219224D01*
X103946194Y-190237180D01*
X103974755Y-190244203D01*
X104079816Y-190269791D01*
X104167480Y-190289853D01*
X104242068Y-190305031D01*
X104307903Y-190315965D01*
X104369307Y-190323296D01*
X104430602Y-190327665D01*
X104496110Y-190329713D01*
X104554128Y-190330111D01*
X104723574Y-190323448D01*
G37*
X104723574Y-190323448D02*
X104875492Y-190303433D01*
X105010756Y-190269798D01*
X105130239Y-190222275D01*
X105234815Y-190160595D01*
X105312424Y-190097035D01*
X105381265Y-190022901D01*
X105435006Y-189943129D01*
X105477910Y-189850909D01*
X105493384Y-189807839D01*
X105506244Y-189768858D01*
X105517446Y-189732711D01*
X105527120Y-189697566D01*
X105535396Y-189661590D01*
X105542403Y-189622950D01*
X105548272Y-189579815D01*
X105553131Y-189530351D01*
X105557110Y-189472727D01*
X105560340Y-189405109D01*
X105562949Y-189325666D01*
X105565067Y-189232564D01*
X105566824Y-189123973D01*
X105568349Y-188998058D01*
X105569772Y-188852988D01*
X105571025Y-188710222D01*
X105572351Y-188554032D01*
X105573556Y-188418761D01*
X105574766Y-188302754D01*
X105576106Y-188204355D01*
X105577700Y-188121907D01*
X105579675Y-188053754D01*
X105582156Y-187998240D01*
X105585269Y-187953708D01*
X105589138Y-187918502D01*
X105593889Y-187890966D01*
X105599648Y-187869444D01*
X105606539Y-187852278D01*
X105614689Y-187837814D01*
X105624223Y-187824394D01*
X105635266Y-187810362D01*
X105639566Y-187804929D01*
X105655386Y-187782090D01*
X105662422Y-187766537D01*
X105662444Y-187766078D01*
X105651567Y-187763879D01*
X105620582Y-187761853D01*
X105571957Y-187760058D01*
X105508163Y-187758549D01*
X105431669Y-187757384D01*
X105344944Y-187756620D01*
X105250457Y-187756314D01*
X105239550Y-187756311D01*
X104816657Y-187756311D01*
X104813395Y-187852378D01*
X104810133Y-187948444D01*
X104748044Y-187897457D01*
X104650714Y-187829943D01*
X104540813Y-187775251D01*
X104454349Y-187745022D01*
X104385278Y-187730334D01*
X104301925Y-187720341D01*
X104212159Y-187715354D01*
X104123845Y-187715687D01*
X104044851Y-187721649D01*
X104008622Y-187727362D01*
X103868603Y-187765224D01*
X103742178Y-187820068D01*
X103630260Y-187891076D01*
X103533762Y-187977432D01*
X103453600Y-188078321D01*
X103390687Y-188192924D01*
X103346312Y-188319016D01*
X103333978Y-188375599D01*
X103326368Y-188437798D01*
X103322739Y-188512637D01*
X103322245Y-188546533D01*
X103322310Y-188549718D01*
X104082248Y-188549718D01*
X104091541Y-188474667D01*
X104119728Y-188410840D01*
X104168197Y-188355202D01*
X104173254Y-188350789D01*
X104221548Y-188315963D01*
X104273257Y-188293380D01*
X104333989Y-188281460D01*
X104409352Y-188278617D01*
X104427459Y-188279022D01*
X104481278Y-188281675D01*
X104521308Y-188287091D01*
X104556324Y-188297255D01*
X104595103Y-188314150D01*
X104605745Y-188319328D01*
X104666396Y-188355156D01*
X104713215Y-188397788D01*
X104725952Y-188413027D01*
X104770622Y-188469538D01*
X104770622Y-188665414D01*
X104770086Y-188744061D01*
X104768396Y-188802012D01*
X104765428Y-188841125D01*
X104761057Y-188863259D01*
X104756972Y-188869726D01*
X104741047Y-188872889D01*
X104707264Y-188875512D01*
X104660340Y-188877345D01*
X104604993Y-188878143D01*
X104596106Y-188878158D01*
X104475330Y-188872904D01*
X104372660Y-188856737D01*
X104286106Y-188829039D01*
X104213681Y-188789192D01*
X104158751Y-188742242D01*
X104114204Y-188684355D01*
X104089480Y-188621307D01*
X104082248Y-188549718D01*
X103322310Y-188549718D01*
X103324178Y-188640288D01*
X103332522Y-188719188D01*
X103348768Y-188790410D01*
X103374405Y-188861136D01*
X103398401Y-188913507D01*
X103457020Y-189008804D01*
X103535117Y-189096830D01*
X103630315Y-189175983D01*
X103740238Y-189244660D01*
X103862510Y-189301259D01*
X103994755Y-189344179D01*
X104059422Y-189359118D01*
X104195604Y-189381223D01*
X104344049Y-189395806D01*
X104495505Y-189402187D01*
X104622064Y-189400555D01*
X104783950Y-189393776D01*
X104776530Y-189452755D01*
X104757238Y-189551908D01*
X104726104Y-189632628D01*
X104682269Y-189695534D01*
X104624871Y-189741244D01*
X104553048Y-189770378D01*
X104465941Y-189783553D01*
X104362686Y-189781389D01*
X104324711Y-189777388D01*
X104183520Y-189752220D01*
X104046707Y-189711186D01*
X103952178Y-189673185D01*
X103907018Y-189653810D01*
X103868585Y-189638240D01*
X103842234Y-189628595D01*
X103834546Y-189626548D01*
X103824802Y-189635626D01*
X103808083Y-189664595D01*
X103784232Y-189713783D01*
X103753093Y-189783516D01*
X103714507Y-189874121D01*
X103707910Y-189889911D01*
X103677853Y-189962228D01*
X103650874Y-190027575D01*
X103628136Y-190083094D01*
X103610806Y-190125928D01*
X103600048Y-190153219D01*
X103596941Y-190162058D01*
X103606940Y-190166813D01*
X103633217Y-190172090D01*
X103661489Y-190175769D01*
X103691646Y-190180526D01*
X103739433Y-190189972D01*
X103800612Y-190203180D01*
X103870946Y-190219224D01*
X103946194Y-190237180D01*
X103974755Y-190244203D01*
X104079816Y-190269791D01*
X104167480Y-190289853D01*
X104242068Y-190305031D01*
X104307903Y-190315965D01*
X104369307Y-190323296D01*
X104430602Y-190327665D01*
X104496110Y-190329713D01*
X104554128Y-190330111D01*
X104723574Y-190323448D01*
G36*
X102378429Y-191240929D02*
G01*
X102538570Y-191219755D01*
X102702510Y-191179615D01*
X102872313Y-191120111D01*
X103050043Y-191040846D01*
X103061310Y-191035301D01*
X103119005Y-191007275D01*
X103170552Y-190983198D01*
X103212191Y-190964751D01*
X103240162Y-190953614D01*
X103249733Y-190951067D01*
X103268950Y-190946059D01*
X103273561Y-190941853D01*
X103268458Y-190931420D01*
X103252418Y-190905132D01*
X103227288Y-190865743D01*
X103194914Y-190816009D01*
X103157143Y-190758685D01*
X103115822Y-190696524D01*
X103072798Y-190632282D01*
X103029917Y-190568715D01*
X102989026Y-190508575D01*
X102951971Y-190454620D01*
X102920600Y-190409603D01*
X102896759Y-190376279D01*
X102882294Y-190357403D01*
X102880309Y-190355213D01*
X102870191Y-190359862D01*
X102847850Y-190377038D01*
X102817280Y-190403560D01*
X102801536Y-190418036D01*
X102705047Y-190493318D01*
X102598336Y-190548759D01*
X102482832Y-190583859D01*
X102359962Y-190598120D01*
X102290561Y-190596949D01*
X102169423Y-190579788D01*
X102060205Y-190543906D01*
X101962582Y-190489041D01*
X101876228Y-190414930D01*
X101800815Y-190321312D01*
X101736018Y-190207924D01*
X101698601Y-190121333D01*
X101654748Y-189985634D01*
X101622428Y-189838150D01*
X101601557Y-189682686D01*
X101592051Y-189523044D01*
X101593827Y-189363027D01*
X101606803Y-189206439D01*
X101630894Y-189057082D01*
X101666018Y-188918760D01*
X101712092Y-188795276D01*
X101728373Y-188761022D01*
X101796620Y-188646936D01*
X101877079Y-188550443D01*
X101968570Y-188472330D01*
X102069911Y-188413383D01*
X102179920Y-188374388D01*
X102297415Y-188356132D01*
X102338883Y-188354789D01*
X102460441Y-188365710D01*
X102580878Y-188398526D01*
X102698666Y-188452561D01*
X102812277Y-188527135D01*
X102903685Y-188605461D01*
X102950215Y-188649992D01*
X103131483Y-188352729D01*
X103176580Y-188278567D01*
X103217819Y-188210354D01*
X103253735Y-188150541D01*
X103282866Y-188101580D01*
X103303750Y-188065921D01*
X103314924Y-188046016D01*
X103316375Y-188042921D01*
X103308146Y-188033282D01*
X103282567Y-188016001D01*
X103242873Y-187992717D01*
X103192297Y-187965066D01*
X103134074Y-187934685D01*
X103071437Y-187903210D01*
X103007621Y-187872278D01*
X102945860Y-187843527D01*
X102889388Y-187818592D01*
X102841438Y-187799111D01*
X102817986Y-187790682D01*
X102684221Y-187752867D01*
X102546327Y-187727864D01*
X102398622Y-187714860D01*
X102271833Y-187712532D01*
X102203878Y-187713627D01*
X102138277Y-187715725D01*
X102080847Y-187718566D01*
X102037403Y-187721894D01*
X102023298Y-187723578D01*
X101884284Y-187752413D01*
X101742757Y-187797532D01*
X101605275Y-187856250D01*
X101478394Y-187925880D01*
X101400889Y-187978559D01*
X101273481Y-188086761D01*
X101155178Y-188213329D01*
X101048172Y-188355134D01*
X100954652Y-188509049D01*
X100876810Y-188671947D01*
X100832956Y-188789244D01*
X100782708Y-188972872D01*
X100749209Y-189167419D01*
X100732449Y-189368675D01*
X100732416Y-189572432D01*
X100749101Y-189774479D01*
X100782493Y-189970608D01*
X100832580Y-190156609D01*
X100836397Y-190168197D01*
X100899281Y-190330250D01*
X100976028Y-190478168D01*
X101069242Y-190616135D01*
X101181527Y-190748339D01*
X101225392Y-190793601D01*
X101361534Y-190917543D01*
X101501491Y-191020085D01*
X101647411Y-191102344D01*
X101801442Y-191165436D01*
X101965732Y-191210477D01*
X102061289Y-191227967D01*
X102220023Y-191243534D01*
X102378429Y-191240929D01*
G37*
X102378429Y-191240929D02*
X102538570Y-191219755D01*
X102702510Y-191179615D01*
X102872313Y-191120111D01*
X103050043Y-191040846D01*
X103061310Y-191035301D01*
X103119005Y-191007275D01*
X103170552Y-190983198D01*
X103212191Y-190964751D01*
X103240162Y-190953614D01*
X103249733Y-190951067D01*
X103268950Y-190946059D01*
X103273561Y-190941853D01*
X103268458Y-190931420D01*
X103252418Y-190905132D01*
X103227288Y-190865743D01*
X103194914Y-190816009D01*
X103157143Y-190758685D01*
X103115822Y-190696524D01*
X103072798Y-190632282D01*
X103029917Y-190568715D01*
X102989026Y-190508575D01*
X102951971Y-190454620D01*
X102920600Y-190409603D01*
X102896759Y-190376279D01*
X102882294Y-190357403D01*
X102880309Y-190355213D01*
X102870191Y-190359862D01*
X102847850Y-190377038D01*
X102817280Y-190403560D01*
X102801536Y-190418036D01*
X102705047Y-190493318D01*
X102598336Y-190548759D01*
X102482832Y-190583859D01*
X102359962Y-190598120D01*
X102290561Y-190596949D01*
X102169423Y-190579788D01*
X102060205Y-190543906D01*
X101962582Y-190489041D01*
X101876228Y-190414930D01*
X101800815Y-190321312D01*
X101736018Y-190207924D01*
X101698601Y-190121333D01*
X101654748Y-189985634D01*
X101622428Y-189838150D01*
X101601557Y-189682686D01*
X101592051Y-189523044D01*
X101593827Y-189363027D01*
X101606803Y-189206439D01*
X101630894Y-189057082D01*
X101666018Y-188918760D01*
X101712092Y-188795276D01*
X101728373Y-188761022D01*
X101796620Y-188646936D01*
X101877079Y-188550443D01*
X101968570Y-188472330D01*
X102069911Y-188413383D01*
X102179920Y-188374388D01*
X102297415Y-188356132D01*
X102338883Y-188354789D01*
X102460441Y-188365710D01*
X102580878Y-188398526D01*
X102698666Y-188452561D01*
X102812277Y-188527135D01*
X102903685Y-188605461D01*
X102950215Y-188649992D01*
X103131483Y-188352729D01*
X103176580Y-188278567D01*
X103217819Y-188210354D01*
X103253735Y-188150541D01*
X103282866Y-188101580D01*
X103303750Y-188065921D01*
X103314924Y-188046016D01*
X103316375Y-188042921D01*
X103308146Y-188033282D01*
X103282567Y-188016001D01*
X103242873Y-187992717D01*
X103192297Y-187965066D01*
X103134074Y-187934685D01*
X103071437Y-187903210D01*
X103007621Y-187872278D01*
X102945860Y-187843527D01*
X102889388Y-187818592D01*
X102841438Y-187799111D01*
X102817986Y-187790682D01*
X102684221Y-187752867D01*
X102546327Y-187727864D01*
X102398622Y-187714860D01*
X102271833Y-187712532D01*
X102203878Y-187713627D01*
X102138277Y-187715725D01*
X102080847Y-187718566D01*
X102037403Y-187721894D01*
X102023298Y-187723578D01*
X101884284Y-187752413D01*
X101742757Y-187797532D01*
X101605275Y-187856250D01*
X101478394Y-187925880D01*
X101400889Y-187978559D01*
X101273481Y-188086761D01*
X101155178Y-188213329D01*
X101048172Y-188355134D01*
X100954652Y-188509049D01*
X100876810Y-188671947D01*
X100832956Y-188789244D01*
X100782708Y-188972872D01*
X100749209Y-189167419D01*
X100732449Y-189368675D01*
X100732416Y-189572432D01*
X100749101Y-189774479D01*
X100782493Y-189970608D01*
X100832580Y-190156609D01*
X100836397Y-190168197D01*
X100899281Y-190330250D01*
X100976028Y-190478168D01*
X101069242Y-190616135D01*
X101181527Y-190748339D01*
X101225392Y-190793601D01*
X101361534Y-190917543D01*
X101501491Y-191020085D01*
X101647411Y-191102344D01*
X101801442Y-191165436D01*
X101965732Y-191210477D01*
X102061289Y-191227967D01*
X102220023Y-191243534D01*
X102378429Y-191240929D01*
G36*
X99103600Y-191700946D02*
G01*
X99114465Y-191587007D01*
X99146082Y-191479384D01*
X99196985Y-191380385D01*
X99265707Y-191292316D01*
X99350781Y-191217484D01*
X99447768Y-191159616D01*
X99554036Y-191119995D01*
X99661050Y-191101427D01*
X99766700Y-191102566D01*
X99868875Y-191122070D01*
X99965466Y-191158594D01*
X100054362Y-191210795D01*
X100133454Y-191277327D01*
X100200631Y-191356848D01*
X100253783Y-191448013D01*
X100290801Y-191549477D01*
X100309573Y-191659898D01*
X100311511Y-191709794D01*
X100311511Y-191797733D01*
X100363440Y-191797733D01*
X100399747Y-191794889D01*
X100426645Y-191783089D01*
X100453751Y-191759351D01*
X100492133Y-191720969D01*
X100492133Y-189529398D01*
X100492124Y-189267261D01*
X100492092Y-189026759D01*
X100492028Y-188806952D01*
X100491924Y-188606899D01*
X100491773Y-188425656D01*
X100491566Y-188262284D01*
X100491294Y-188115840D01*
X100490950Y-187985383D01*
X100490526Y-187869971D01*
X100490013Y-187768662D01*
X100489403Y-187680516D01*
X100488688Y-187604590D01*
X100487860Y-187539943D01*
X100486911Y-187485633D01*
X100485833Y-187440720D01*
X100484617Y-187404260D01*
X100483255Y-187375313D01*
X100481739Y-187352937D01*
X100480062Y-187336191D01*
X100478214Y-187324132D01*
X100476187Y-187315820D01*
X100473975Y-187310313D01*
X100472892Y-187308463D01*
X100468729Y-187301451D01*
X100465195Y-187295004D01*
X100461365Y-187289100D01*
X100456318Y-187283714D01*
X100449129Y-187278822D01*
X100438877Y-187274402D01*
X100424636Y-187270428D01*
X100405486Y-187266879D01*
X100380501Y-187263730D01*
X100348760Y-187260958D01*
X100309338Y-187258539D01*
X100261314Y-187256449D01*
X100203763Y-187254665D01*
X100135763Y-187253163D01*
X100056390Y-187251920D01*
X99964721Y-187250911D01*
X99859834Y-187250115D01*
X99740804Y-187249506D01*
X99606710Y-187249061D01*
X99456627Y-187248757D01*
X99289633Y-187248570D01*
X99104804Y-187248476D01*
X98901217Y-187248452D01*
X98677950Y-187248475D01*
X98434078Y-187248520D01*
X98168679Y-187248563D01*
X98130296Y-187248568D01*
X97863318Y-187248611D01*
X97617998Y-187248682D01*
X97393417Y-187248787D01*
X97188655Y-187248934D01*
X97002794Y-187249131D01*
X96834912Y-187249384D01*
X96684092Y-187249700D01*
X96549413Y-187250087D01*
X96429956Y-187250553D01*
X96324801Y-187251103D01*
X96233029Y-187251747D01*
X96153721Y-187252489D01*
X96085957Y-187253339D01*
X96028818Y-187254303D01*
X95981383Y-187255389D01*
X95942734Y-187256603D01*
X95911951Y-187257953D01*
X95888115Y-187259445D01*
X95870306Y-187261089D01*
X95857605Y-187262889D01*
X95849092Y-187264855D01*
X95844734Y-187266523D01*
X95836272Y-187270094D01*
X95828503Y-187272730D01*
X95821398Y-187275366D01*
X95814927Y-187278938D01*
X95809061Y-187284379D01*
X95803771Y-187292625D01*
X95799026Y-187304610D01*
X95794798Y-187321269D01*
X95791057Y-187343537D01*
X95787773Y-187372348D01*
X95784917Y-187408637D01*
X95782460Y-187453339D01*
X95780371Y-187507389D01*
X95778622Y-187571721D01*
X95777183Y-187647270D01*
X95776024Y-187734970D01*
X95775117Y-187835757D01*
X95774431Y-187950566D01*
X95773937Y-188080330D01*
X95773605Y-188225985D01*
X95773407Y-188388465D01*
X95773313Y-188568705D01*
X95773292Y-188767640D01*
X95773315Y-188986204D01*
X95773354Y-189225332D01*
X95773378Y-189485960D01*
X95773378Y-189528111D01*
X95773364Y-189791008D01*
X95773339Y-190032268D01*
X95773329Y-190252835D01*
X95773358Y-190453648D01*
X95773452Y-190635651D01*
X95773638Y-190799784D01*
X95773941Y-190946989D01*
X95774386Y-191078208D01*
X95774966Y-191188133D01*
X96077803Y-191188133D01*
X96117593Y-191130289D01*
X96128764Y-191114521D01*
X96138834Y-191100559D01*
X96147862Y-191087216D01*
X96155903Y-191073307D01*
X96163014Y-191057644D01*
X96169253Y-191039042D01*
X96174675Y-191016314D01*
X96179338Y-190988273D01*
X96183299Y-190953733D01*
X96186615Y-190911508D01*
X96189341Y-190860411D01*
X96191536Y-190799256D01*
X96193255Y-190726856D01*
X96194556Y-190642025D01*
X96195495Y-190543578D01*
X96196130Y-190430326D01*
X96196516Y-190301084D01*
X96196712Y-190154666D01*
X96196773Y-189989884D01*
X96196757Y-189805553D01*
X96196720Y-189600487D01*
X96196711Y-189477867D01*
X96196735Y-189260918D01*
X96196769Y-189065358D01*
X96196757Y-188890001D01*
X96196642Y-188733659D01*
X96196370Y-188595143D01*
X96195882Y-188473266D01*
X96195124Y-188366840D01*
X96194038Y-188274678D01*
X96192569Y-188195591D01*
X96190660Y-188128392D01*
X96188256Y-188071893D01*
X96185299Y-188024907D01*
X96181734Y-187986245D01*
X96177505Y-187954720D01*
X96172554Y-187929145D01*
X96166827Y-187908330D01*
X96160267Y-187891089D01*
X96152817Y-187876235D01*
X96144421Y-187862578D01*
X96135024Y-187848931D01*
X96124568Y-187834107D01*
X96118477Y-187825217D01*
X96079704Y-187767600D01*
X96611268Y-187767600D01*
X96734517Y-187767635D01*
X96837013Y-187767785D01*
X96920580Y-187768122D01*
X96987044Y-187768714D01*
X97038229Y-187769633D01*
X97075959Y-187770949D01*
X97102060Y-187772731D01*
X97118356Y-187775049D01*
X97126672Y-187777974D01*
X97128832Y-187781576D01*
X97126661Y-187785925D01*
X97125465Y-187787355D01*
X97100315Y-187824427D01*
X97074417Y-187877228D01*
X97050808Y-187939230D01*
X97042539Y-187965643D01*
X97037922Y-187983584D01*
X97034021Y-188004645D01*
X97030752Y-188030911D01*
X97028034Y-188064468D01*
X97025785Y-188107401D01*
X97023923Y-188161796D01*
X97022364Y-188229738D01*
X97021028Y-188313312D01*
X97019831Y-188414605D01*
X97018692Y-188535700D01*
X97018315Y-188580400D01*
X97017298Y-188705551D01*
X97016540Y-188809918D01*
X97016097Y-188895293D01*
X97016030Y-188963467D01*
X97016395Y-189016235D01*
X97017252Y-189055386D01*
X97018659Y-189082715D01*
X97020675Y-189100014D01*
X97023357Y-189109074D01*
X97026764Y-189111688D01*
X97030956Y-189109649D01*
X97035429Y-189105333D01*
X97045784Y-189092398D01*
X97067842Y-189063324D01*
X97100043Y-189020241D01*
X97140826Y-188965282D01*
X97188630Y-188900577D01*
X97241895Y-188828258D01*
X97299060Y-188750456D01*
X97358563Y-188669302D01*
X97418845Y-188586928D01*
X97478345Y-188505464D01*
X97535502Y-188427043D01*
X97588755Y-188353796D01*
X97636543Y-188287853D01*
X97677307Y-188231346D01*
X97709484Y-188186407D01*
X97731515Y-188155166D01*
X97736083Y-188148534D01*
X97759004Y-188111631D01*
X97785812Y-188063641D01*
X97811211Y-188014103D01*
X97814432Y-188007423D01*
X97836110Y-187959228D01*
X97848696Y-187921666D01*
X97854426Y-187885840D01*
X97855544Y-187843800D01*
X97854910Y-187767600D01*
X99009349Y-187767600D01*
X98918185Y-187861331D01*
X98871388Y-187911225D01*
X98821101Y-187967705D01*
X98775056Y-188021974D01*
X98754631Y-188047327D01*
X98724193Y-188086872D01*
X98684138Y-188140084D01*
X98635639Y-188205333D01*
X98579865Y-188280989D01*
X98517989Y-188365423D01*
X98451181Y-188457006D01*
X98380613Y-188554108D01*
X98307455Y-188655099D01*
X98232879Y-188758350D01*
X98158056Y-188862232D01*
X98084157Y-188965115D01*
X98012354Y-189065369D01*
X97943816Y-189161364D01*
X97879716Y-189251473D01*
X97821225Y-189334064D01*
X97769514Y-189407508D01*
X97725753Y-189470176D01*
X97691115Y-189520439D01*
X97666770Y-189556666D01*
X97653889Y-189577229D01*
X97652131Y-189581332D01*
X97660090Y-189592658D01*
X97680885Y-189619838D01*
X97713153Y-189661171D01*
X97755530Y-189714956D01*
X97806653Y-189779494D01*
X97865159Y-189853082D01*
X97929686Y-189934022D01*
X97998869Y-190020612D01*
X98071347Y-190111152D01*
X98145754Y-190203940D01*
X98205483Y-190278298D01*
X99216489Y-190278298D01*
X99222398Y-190265341D01*
X99236728Y-190243092D01*
X99237775Y-190241609D01*
X99256562Y-190211456D01*
X99276209Y-190174625D01*
X99280108Y-190166489D01*
X99283644Y-190158060D01*
X99286770Y-190147941D01*
X99289514Y-190134740D01*
X99291908Y-190117062D01*
X99293981Y-190093516D01*
X99295765Y-190062707D01*
X99297288Y-190023243D01*
X99298581Y-189973731D01*
X99299674Y-189912777D01*
X99300597Y-189838989D01*
X99301381Y-189750972D01*
X99302055Y-189647335D01*
X99302650Y-189526684D01*
X99303195Y-189387626D01*
X99303721Y-189228768D01*
X99304255Y-189049911D01*
X99304794Y-188864793D01*
X99305228Y-188700855D01*
X99305491Y-188556697D01*
X99305516Y-188430921D01*
X99305235Y-188322129D01*
X99304581Y-188228923D01*
X99303486Y-188149903D01*
X99301882Y-188083672D01*
X99299703Y-188028830D01*
X99296881Y-187983979D01*
X99293349Y-187947722D01*
X99289039Y-187918659D01*
X99283883Y-187895391D01*
X99277815Y-187876521D01*
X99270767Y-187860649D01*
X99262671Y-187846378D01*
X99253460Y-187832309D01*
X99244960Y-187819842D01*
X99227824Y-187793548D01*
X99217678Y-187775963D01*
X99216489Y-187772743D01*
X99227396Y-187771666D01*
X99258589Y-187770665D01*
X99307777Y-187769765D01*
X99372667Y-187768990D01*
X99450970Y-187768363D01*
X99540393Y-187767909D01*
X99638644Y-187767651D01*
X99707555Y-187767600D01*
X99812548Y-187767820D01*
X99909390Y-187768452D01*
X99995893Y-187769451D01*
X100069868Y-187770773D01*
X100129126Y-187772374D01*
X100171480Y-187774209D01*
X100194740Y-187776235D01*
X100198622Y-187777507D01*
X100190924Y-187792409D01*
X100182926Y-187800440D01*
X100169754Y-187817566D01*
X100152515Y-187847817D01*
X100140593Y-187872378D01*
X100113955Y-187931289D01*
X100110880Y-189108155D01*
X100107805Y-190285022D01*
X99662147Y-190285022D01*
X99564330Y-190284858D01*
X99473936Y-190284389D01*
X99393370Y-190283653D01*
X99325038Y-190282684D01*
X99271344Y-190281520D01*
X99234695Y-190280197D01*
X99217496Y-190278751D01*
X99216489Y-190278298D01*
X98205483Y-190278298D01*
X98220730Y-190297278D01*
X98294910Y-190389463D01*
X98366931Y-190478796D01*
X98435431Y-190563576D01*
X98499045Y-190642102D01*
X98556412Y-190712674D01*
X98606167Y-190773591D01*
X98646948Y-190823153D01*
X98664112Y-190843822D01*
X98750404Y-190944484D01*
X98827003Y-191027741D01*
X98895817Y-191095562D01*
X98958752Y-191149911D01*
X98968133Y-191157278D01*
X99007644Y-191187883D01*
X97875884Y-191188133D01*
X97881173Y-191140156D01*
X97877870Y-191082812D01*
X97856339Y-191014537D01*
X97816365Y-190934788D01*
X97771057Y-190862505D01*
X97754839Y-190839860D01*
X97726786Y-190802304D01*
X97688570Y-190751979D01*
X97641863Y-190691027D01*
X97588339Y-190621589D01*
X97529669Y-190545806D01*
X97467525Y-190465820D01*
X97403579Y-190383772D01*
X97339505Y-190301804D01*
X97276973Y-190222057D01*
X97217657Y-190146673D01*
X97163229Y-190077793D01*
X97115361Y-190017558D01*
X97075725Y-189968111D01*
X97045994Y-189931592D01*
X97027839Y-189910142D01*
X97024780Y-189906844D01*
X97021921Y-189914851D01*
X97019707Y-189945145D01*
X97018143Y-189997444D01*
X97017233Y-190071469D01*
X97016980Y-190166937D01*
X97017387Y-190283566D01*
X97018296Y-190403555D01*
X97019618Y-190535667D01*
X97021143Y-190647406D01*
X97023119Y-190740975D01*
X97025794Y-190818581D01*
X97029418Y-190882426D01*
X97034239Y-190934717D01*
X97040506Y-190977656D01*
X97048468Y-191013449D01*
X97058373Y-191044300D01*
X97070469Y-191072414D01*
X97085007Y-191099995D01*
X97099689Y-191125034D01*
X97137686Y-191188133D01*
X96077803Y-191188133D01*
X95774966Y-191188133D01*
X95774999Y-191194383D01*
X95775805Y-191296456D01*
X95776830Y-191385367D01*
X95778100Y-191462059D01*
X95779640Y-191527473D01*
X95781476Y-191582551D01*
X95783633Y-191628235D01*
X95786137Y-191665466D01*
X95789013Y-191695187D01*
X95792287Y-191718338D01*
X95795985Y-191735861D01*
X95800131Y-191748699D01*
X95804753Y-191757792D01*
X95809874Y-191764082D01*
X95815522Y-191768512D01*
X95821721Y-191772022D01*
X95828496Y-191775555D01*
X95834492Y-191779124D01*
X95839725Y-191781700D01*
X95847901Y-191784028D01*
X95860114Y-191786122D01*
X95877459Y-191787993D01*
X95901031Y-191789653D01*
X95931923Y-191791116D01*
X95971232Y-191792392D01*
X96020050Y-191793496D01*
X96079473Y-191794439D01*
X96150596Y-191795233D01*
X96234512Y-191795891D01*
X96332317Y-191796425D01*
X96445106Y-191796847D01*
X96573971Y-191797171D01*
X96720009Y-191797408D01*
X96884314Y-191797570D01*
X97067980Y-191797670D01*
X97272103Y-191797720D01*
X97483247Y-191797733D01*
X99103600Y-191797733D01*
X99103600Y-191700946D01*
G37*
X99103600Y-191700946D02*
X99114465Y-191587007D01*
X99146082Y-191479384D01*
X99196985Y-191380385D01*
X99265707Y-191292316D01*
X99350781Y-191217484D01*
X99447768Y-191159616D01*
X99554036Y-191119995D01*
X99661050Y-191101427D01*
X99766700Y-191102566D01*
X99868875Y-191122070D01*
X99965466Y-191158594D01*
X100054362Y-191210795D01*
X100133454Y-191277327D01*
X100200631Y-191356848D01*
X100253783Y-191448013D01*
X100290801Y-191549477D01*
X100309573Y-191659898D01*
X100311511Y-191709794D01*
X100311511Y-191797733D01*
X100363440Y-191797733D01*
X100399747Y-191794889D01*
X100426645Y-191783089D01*
X100453751Y-191759351D01*
X100492133Y-191720969D01*
X100492133Y-189529398D01*
X100492124Y-189267261D01*
X100492092Y-189026759D01*
X100492028Y-188806952D01*
X100491924Y-188606899D01*
X100491773Y-188425656D01*
X100491566Y-188262284D01*
X100491294Y-188115840D01*
X100490950Y-187985383D01*
X100490526Y-187869971D01*
X100490013Y-187768662D01*
X100489403Y-187680516D01*
X100488688Y-187604590D01*
X100487860Y-187539943D01*
X100486911Y-187485633D01*
X100485833Y-187440720D01*
X100484617Y-187404260D01*
X100483255Y-187375313D01*
X100481739Y-187352937D01*
X100480062Y-187336191D01*
X100478214Y-187324132D01*
X100476187Y-187315820D01*
X100473975Y-187310313D01*
X100472892Y-187308463D01*
X100468729Y-187301451D01*
X100465195Y-187295004D01*
X100461365Y-187289100D01*
X100456318Y-187283714D01*
X100449129Y-187278822D01*
X100438877Y-187274402D01*
X100424636Y-187270428D01*
X100405486Y-187266879D01*
X100380501Y-187263730D01*
X100348760Y-187260958D01*
X100309338Y-187258539D01*
X100261314Y-187256449D01*
X100203763Y-187254665D01*
X100135763Y-187253163D01*
X100056390Y-187251920D01*
X99964721Y-187250911D01*
X99859834Y-187250115D01*
X99740804Y-187249506D01*
X99606710Y-187249061D01*
X99456627Y-187248757D01*
X99289633Y-187248570D01*
X99104804Y-187248476D01*
X98901217Y-187248452D01*
X98677950Y-187248475D01*
X98434078Y-187248520D01*
X98168679Y-187248563D01*
X98130296Y-187248568D01*
X97863318Y-187248611D01*
X97617998Y-187248682D01*
X97393417Y-187248787D01*
X97188655Y-187248934D01*
X97002794Y-187249131D01*
X96834912Y-187249384D01*
X96684092Y-187249700D01*
X96549413Y-187250087D01*
X96429956Y-187250553D01*
X96324801Y-187251103D01*
X96233029Y-187251747D01*
X96153721Y-187252489D01*
X96085957Y-187253339D01*
X96028818Y-187254303D01*
X95981383Y-187255389D01*
X95942734Y-187256603D01*
X95911951Y-187257953D01*
X95888115Y-187259445D01*
X95870306Y-187261089D01*
X95857605Y-187262889D01*
X95849092Y-187264855D01*
X95844734Y-187266523D01*
X95836272Y-187270094D01*
X95828503Y-187272730D01*
X95821398Y-187275366D01*
X95814927Y-187278938D01*
X95809061Y-187284379D01*
X95803771Y-187292625D01*
X95799026Y-187304610D01*
X95794798Y-187321269D01*
X95791057Y-187343537D01*
X95787773Y-187372348D01*
X95784917Y-187408637D01*
X95782460Y-187453339D01*
X95780371Y-187507389D01*
X95778622Y-187571721D01*
X95777183Y-187647270D01*
X95776024Y-187734970D01*
X95775117Y-187835757D01*
X95774431Y-187950566D01*
X95773937Y-188080330D01*
X95773605Y-188225985D01*
X95773407Y-188388465D01*
X95773313Y-188568705D01*
X95773292Y-188767640D01*
X95773315Y-188986204D01*
X95773354Y-189225332D01*
X95773378Y-189485960D01*
X95773378Y-189528111D01*
X95773364Y-189791008D01*
X95773339Y-190032268D01*
X95773329Y-190252835D01*
X95773358Y-190453648D01*
X95773452Y-190635651D01*
X95773638Y-190799784D01*
X95773941Y-190946989D01*
X95774386Y-191078208D01*
X95774966Y-191188133D01*
X96077803Y-191188133D01*
X96117593Y-191130289D01*
X96128764Y-191114521D01*
X96138834Y-191100559D01*
X96147862Y-191087216D01*
X96155903Y-191073307D01*
X96163014Y-191057644D01*
X96169253Y-191039042D01*
X96174675Y-191016314D01*
X96179338Y-190988273D01*
X96183299Y-190953733D01*
X96186615Y-190911508D01*
X96189341Y-190860411D01*
X96191536Y-190799256D01*
X96193255Y-190726856D01*
X96194556Y-190642025D01*
X96195495Y-190543578D01*
X96196130Y-190430326D01*
X96196516Y-190301084D01*
X96196712Y-190154666D01*
X96196773Y-189989884D01*
X96196757Y-189805553D01*
X96196720Y-189600487D01*
X96196711Y-189477867D01*
X96196735Y-189260918D01*
X96196769Y-189065358D01*
X96196757Y-188890001D01*
X96196642Y-188733659D01*
X96196370Y-188595143D01*
X96195882Y-188473266D01*
X96195124Y-188366840D01*
X96194038Y-188274678D01*
X96192569Y-188195591D01*
X96190660Y-188128392D01*
X96188256Y-188071893D01*
X96185299Y-188024907D01*
X96181734Y-187986245D01*
X96177505Y-187954720D01*
X96172554Y-187929145D01*
X96166827Y-187908330D01*
X96160267Y-187891089D01*
X96152817Y-187876235D01*
X96144421Y-187862578D01*
X96135024Y-187848931D01*
X96124568Y-187834107D01*
X96118477Y-187825217D01*
X96079704Y-187767600D01*
X96611268Y-187767600D01*
X96734517Y-187767635D01*
X96837013Y-187767785D01*
X96920580Y-187768122D01*
X96987044Y-187768714D01*
X97038229Y-187769633D01*
X97075959Y-187770949D01*
X97102060Y-187772731D01*
X97118356Y-187775049D01*
X97126672Y-187777974D01*
X97128832Y-187781576D01*
X97126661Y-187785925D01*
X97125465Y-187787355D01*
X97100315Y-187824427D01*
X97074417Y-187877228D01*
X97050808Y-187939230D01*
X97042539Y-187965643D01*
X97037922Y-187983584D01*
X97034021Y-188004645D01*
X97030752Y-188030911D01*
X97028034Y-188064468D01*
X97025785Y-188107401D01*
X97023923Y-188161796D01*
X97022364Y-188229738D01*
X97021028Y-188313312D01*
X97019831Y-188414605D01*
X97018692Y-188535700D01*
X97018315Y-188580400D01*
X97017298Y-188705551D01*
X97016540Y-188809918D01*
X97016097Y-188895293D01*
X97016030Y-188963467D01*
X97016395Y-189016235D01*
X97017252Y-189055386D01*
X97018659Y-189082715D01*
X97020675Y-189100014D01*
X97023357Y-189109074D01*
X97026764Y-189111688D01*
X97030956Y-189109649D01*
X97035429Y-189105333D01*
X97045784Y-189092398D01*
X97067842Y-189063324D01*
X97100043Y-189020241D01*
X97140826Y-188965282D01*
X97188630Y-188900577D01*
X97241895Y-188828258D01*
X97299060Y-188750456D01*
X97358563Y-188669302D01*
X97418845Y-188586928D01*
X97478345Y-188505464D01*
X97535502Y-188427043D01*
X97588755Y-188353796D01*
X97636543Y-188287853D01*
X97677307Y-188231346D01*
X97709484Y-188186407D01*
X97731515Y-188155166D01*
X97736083Y-188148534D01*
X97759004Y-188111631D01*
X97785812Y-188063641D01*
X97811211Y-188014103D01*
X97814432Y-188007423D01*
X97836110Y-187959228D01*
X97848696Y-187921666D01*
X97854426Y-187885840D01*
X97855544Y-187843800D01*
X97854910Y-187767600D01*
X99009349Y-187767600D01*
X98918185Y-187861331D01*
X98871388Y-187911225D01*
X98821101Y-187967705D01*
X98775056Y-188021974D01*
X98754631Y-188047327D01*
X98724193Y-188086872D01*
X98684138Y-188140084D01*
X98635639Y-188205333D01*
X98579865Y-188280989D01*
X98517989Y-188365423D01*
X98451181Y-188457006D01*
X98380613Y-188554108D01*
X98307455Y-188655099D01*
X98232879Y-188758350D01*
X98158056Y-188862232D01*
X98084157Y-188965115D01*
X98012354Y-189065369D01*
X97943816Y-189161364D01*
X97879716Y-189251473D01*
X97821225Y-189334064D01*
X97769514Y-189407508D01*
X97725753Y-189470176D01*
X97691115Y-189520439D01*
X97666770Y-189556666D01*
X97653889Y-189577229D01*
X97652131Y-189581332D01*
X97660090Y-189592658D01*
X97680885Y-189619838D01*
X97713153Y-189661171D01*
X97755530Y-189714956D01*
X97806653Y-189779494D01*
X97865159Y-189853082D01*
X97929686Y-189934022D01*
X97998869Y-190020612D01*
X98071347Y-190111152D01*
X98145754Y-190203940D01*
X98205483Y-190278298D01*
X99216489Y-190278298D01*
X99222398Y-190265341D01*
X99236728Y-190243092D01*
X99237775Y-190241609D01*
X99256562Y-190211456D01*
X99276209Y-190174625D01*
X99280108Y-190166489D01*
X99283644Y-190158060D01*
X99286770Y-190147941D01*
X99289514Y-190134740D01*
X99291908Y-190117062D01*
X99293981Y-190093516D01*
X99295765Y-190062707D01*
X99297288Y-190023243D01*
X99298581Y-189973731D01*
X99299674Y-189912777D01*
X99300597Y-189838989D01*
X99301381Y-189750972D01*
X99302055Y-189647335D01*
X99302650Y-189526684D01*
X99303195Y-189387626D01*
X99303721Y-189228768D01*
X99304255Y-189049911D01*
X99304794Y-188864793D01*
X99305228Y-188700855D01*
X99305491Y-188556697D01*
X99305516Y-188430921D01*
X99305235Y-188322129D01*
X99304581Y-188228923D01*
X99303486Y-188149903D01*
X99301882Y-188083672D01*
X99299703Y-188028830D01*
X99296881Y-187983979D01*
X99293349Y-187947722D01*
X99289039Y-187918659D01*
X99283883Y-187895391D01*
X99277815Y-187876521D01*
X99270767Y-187860649D01*
X99262671Y-187846378D01*
X99253460Y-187832309D01*
X99244960Y-187819842D01*
X99227824Y-187793548D01*
X99217678Y-187775963D01*
X99216489Y-187772743D01*
X99227396Y-187771666D01*
X99258589Y-187770665D01*
X99307777Y-187769765D01*
X99372667Y-187768990D01*
X99450970Y-187768363D01*
X99540393Y-187767909D01*
X99638644Y-187767651D01*
X99707555Y-187767600D01*
X99812548Y-187767820D01*
X99909390Y-187768452D01*
X99995893Y-187769451D01*
X100069868Y-187770773D01*
X100129126Y-187772374D01*
X100171480Y-187774209D01*
X100194740Y-187776235D01*
X100198622Y-187777507D01*
X100190924Y-187792409D01*
X100182926Y-187800440D01*
X100169754Y-187817566D01*
X100152515Y-187847817D01*
X100140593Y-187872378D01*
X100113955Y-187931289D01*
X100110880Y-189108155D01*
X100107805Y-190285022D01*
X99662147Y-190285022D01*
X99564330Y-190284858D01*
X99473936Y-190284389D01*
X99393370Y-190283653D01*
X99325038Y-190282684D01*
X99271344Y-190281520D01*
X99234695Y-190280197D01*
X99217496Y-190278751D01*
X99216489Y-190278298D01*
X98205483Y-190278298D01*
X98220730Y-190297278D01*
X98294910Y-190389463D01*
X98366931Y-190478796D01*
X98435431Y-190563576D01*
X98499045Y-190642102D01*
X98556412Y-190712674D01*
X98606167Y-190773591D01*
X98646948Y-190823153D01*
X98664112Y-190843822D01*
X98750404Y-190944484D01*
X98827003Y-191027741D01*
X98895817Y-191095562D01*
X98958752Y-191149911D01*
X98968133Y-191157278D01*
X99007644Y-191187883D01*
X97875884Y-191188133D01*
X97881173Y-191140156D01*
X97877870Y-191082812D01*
X97856339Y-191014537D01*
X97816365Y-190934788D01*
X97771057Y-190862505D01*
X97754839Y-190839860D01*
X97726786Y-190802304D01*
X97688570Y-190751979D01*
X97641863Y-190691027D01*
X97588339Y-190621589D01*
X97529669Y-190545806D01*
X97467525Y-190465820D01*
X97403579Y-190383772D01*
X97339505Y-190301804D01*
X97276973Y-190222057D01*
X97217657Y-190146673D01*
X97163229Y-190077793D01*
X97115361Y-190017558D01*
X97075725Y-189968111D01*
X97045994Y-189931592D01*
X97027839Y-189910142D01*
X97024780Y-189906844D01*
X97021921Y-189914851D01*
X97019707Y-189945145D01*
X97018143Y-189997444D01*
X97017233Y-190071469D01*
X97016980Y-190166937D01*
X97017387Y-190283566D01*
X97018296Y-190403555D01*
X97019618Y-190535667D01*
X97021143Y-190647406D01*
X97023119Y-190740975D01*
X97025794Y-190818581D01*
X97029418Y-190882426D01*
X97034239Y-190934717D01*
X97040506Y-190977656D01*
X97048468Y-191013449D01*
X97058373Y-191044300D01*
X97070469Y-191072414D01*
X97085007Y-191099995D01*
X97099689Y-191125034D01*
X97137686Y-191188133D01*
X96077803Y-191188133D01*
X95774966Y-191188133D01*
X95774999Y-191194383D01*
X95775805Y-191296456D01*
X95776830Y-191385367D01*
X95778100Y-191462059D01*
X95779640Y-191527473D01*
X95781476Y-191582551D01*
X95783633Y-191628235D01*
X95786137Y-191665466D01*
X95789013Y-191695187D01*
X95792287Y-191718338D01*
X95795985Y-191735861D01*
X95800131Y-191748699D01*
X95804753Y-191757792D01*
X95809874Y-191764082D01*
X95815522Y-191768512D01*
X95821721Y-191772022D01*
X95828496Y-191775555D01*
X95834492Y-191779124D01*
X95839725Y-191781700D01*
X95847901Y-191784028D01*
X95860114Y-191786122D01*
X95877459Y-191787993D01*
X95901031Y-191789653D01*
X95931923Y-191791116D01*
X95971232Y-191792392D01*
X96020050Y-191793496D01*
X96079473Y-191794439D01*
X96150596Y-191795233D01*
X96234512Y-191795891D01*
X96332317Y-191796425D01*
X96445106Y-191796847D01*
X96573971Y-191797171D01*
X96720009Y-191797408D01*
X96884314Y-191797570D01*
X97067980Y-191797670D01*
X97272103Y-191797720D01*
X97483247Y-191797733D01*
X99103600Y-191797733D01*
X99103600Y-191700946D01*
G36*
X88495570Y-186254848D02*
G01*
X88496189Y-186341931D01*
X88947914Y-186800891D01*
X89399639Y-187259852D01*
X89399968Y-187470471D01*
X89400297Y-187681089D01*
X89675390Y-187681089D01*
X89682478Y-187734530D01*
X89685162Y-187758888D01*
X89689687Y-187804759D01*
X89695809Y-187869405D01*
X89703288Y-187950091D01*
X89711881Y-188044081D01*
X89721346Y-188148637D01*
X89731442Y-188261025D01*
X89741926Y-188378507D01*
X89752556Y-188498348D01*
X89763091Y-188617811D01*
X89773287Y-188734159D01*
X89782905Y-188844657D01*
X89791700Y-188946569D01*
X89799432Y-189037158D01*
X89805858Y-189113687D01*
X89810737Y-189173421D01*
X89813825Y-189213624D01*
X89814883Y-189231559D01*
X89814882Y-189231644D01*
X89807173Y-189246035D01*
X89784019Y-189275748D01*
X89745105Y-189321131D01*
X89690116Y-189382529D01*
X89618736Y-189460288D01*
X89530651Y-189554754D01*
X89425546Y-189666272D01*
X89303105Y-189795188D01*
X89268690Y-189831287D01*
X88722863Y-190403416D01*
X88811119Y-190491436D01*
X88882515Y-190413758D01*
X88908634Y-190385686D01*
X88949434Y-190342274D01*
X89002223Y-190286366D01*
X89064309Y-190220808D01*
X89133000Y-190148441D01*
X89205604Y-190072112D01*
X89249040Y-190026524D01*
X89330584Y-189941119D01*
X89396496Y-189872710D01*
X89448456Y-189820053D01*
X89488145Y-189781905D01*
X89517243Y-189757020D01*
X89537431Y-189744156D01*
X89550390Y-189742068D01*
X89557800Y-189749513D01*
X89561342Y-189765246D01*
X89562697Y-189788023D01*
X89562879Y-189794239D01*
X89572297Y-189837061D01*
X89595503Y-189888819D01*
X89627864Y-189941328D01*
X89664748Y-189986403D01*
X89679507Y-190000328D01*
X89755233Y-190049047D01*
X89843692Y-190076306D01*
X89921900Y-190082773D01*
X90010532Y-190070576D01*
X90092388Y-190034813D01*
X90164836Y-189976722D01*
X90178203Y-189962262D01*
X90227082Y-189906733D01*
X91072674Y-189906733D01*
X91072674Y-190082773D01*
X91299010Y-190082773D01*
X91299010Y-190000531D01*
X91301850Y-189944386D01*
X91311393Y-189905416D01*
X91322991Y-189884219D01*
X91331277Y-189869052D01*
X91338373Y-189847062D01*
X91344748Y-189814987D01*
X91350872Y-189769569D01*
X91357216Y-189707548D01*
X91364250Y-189625662D01*
X91369066Y-189564746D01*
X91391161Y-189279343D01*
X91933565Y-189828805D01*
X92031637Y-189928228D01*
X92125784Y-190023815D01*
X92214285Y-190113810D01*
X92295420Y-190196457D01*
X92367469Y-190270001D01*
X92428712Y-190332684D01*
X92477427Y-190382752D01*
X92511896Y-190418448D01*
X92530379Y-190437995D01*
X92560743Y-190468944D01*
X92586071Y-190490530D01*
X92599695Y-190497723D01*
X92617095Y-190489297D01*
X92642460Y-190468245D01*
X92651058Y-190459671D01*
X92687514Y-190421620D01*
X92486802Y-190217658D01*
X92435596Y-190165699D01*
X92369569Y-190098820D01*
X92291618Y-190019950D01*
X92204638Y-189932014D01*
X92111526Y-189837941D01*
X92015179Y-189740658D01*
X91918492Y-189643093D01*
X91849134Y-189573145D01*
X91743703Y-189466550D01*
X91655129Y-189376307D01*
X91582281Y-189301192D01*
X91524023Y-189239986D01*
X91479225Y-189191466D01*
X91457021Y-189166129D01*
X91278724Y-189166129D01*
X91256401Y-189451555D01*
X91249669Y-189535219D01*
X91243157Y-189611727D01*
X91237234Y-189677081D01*
X91232268Y-189727281D01*
X91228629Y-189758329D01*
X91227458Y-189765273D01*
X91220838Y-189793565D01*
X90271364Y-189793565D01*
X90265026Y-189714606D01*
X90245890Y-189621315D01*
X90205846Y-189538791D01*
X90147418Y-189470038D01*
X90073129Y-189418063D01*
X89989748Y-189386863D01*
X89962698Y-189372228D01*
X89949156Y-189340819D01*
X89948872Y-189339434D01*
X89947247Y-189326174D01*
X89949256Y-189312595D01*
X89956858Y-189296181D01*
X89972016Y-189274411D01*
X89996688Y-189244767D01*
X90032836Y-189204732D01*
X90082420Y-189151785D01*
X90147401Y-189083409D01*
X90151599Y-189079005D01*
X90221493Y-189005611D01*
X90295800Y-188927437D01*
X90369414Y-188849864D01*
X90437229Y-188778275D01*
X90494140Y-188718051D01*
X90506832Y-188704587D01*
X90555487Y-188653820D01*
X90598709Y-188610375D01*
X90633395Y-188577241D01*
X90656444Y-188557405D01*
X90664182Y-188553046D01*
X90675722Y-188562170D01*
X90702710Y-188587200D01*
X90743021Y-188626052D01*
X90794529Y-188676643D01*
X90855109Y-188736888D01*
X90922636Y-188804704D01*
X90977826Y-188860565D01*
X91278724Y-189166129D01*
X91457021Y-189166129D01*
X91446751Y-189154411D01*
X91425471Y-189127599D01*
X91414251Y-189109808D01*
X91411754Y-189101570D01*
X91412700Y-189083590D01*
X91415573Y-189042892D01*
X91420187Y-188981819D01*
X91426358Y-188902713D01*
X91433898Y-188807914D01*
X91442621Y-188699767D01*
X91452343Y-188580612D01*
X91462876Y-188452791D01*
X91471365Y-188350635D01*
X91519396Y-187774674D01*
X91395805Y-187774674D01*
X91395273Y-187787104D01*
X91392769Y-187822110D01*
X91388496Y-187877215D01*
X91382653Y-187949943D01*
X91375443Y-188037814D01*
X91367066Y-188138351D01*
X91357723Y-188249077D01*
X91348758Y-188354205D01*
X91338602Y-188473483D01*
X91329142Y-188586080D01*
X91320596Y-188689305D01*
X91313179Y-188780473D01*
X91307108Y-188856895D01*
X91302601Y-188915883D01*
X91299873Y-188954749D01*
X91299116Y-188969844D01*
X91297935Y-188979238D01*
X91293256Y-188982966D01*
X91283276Y-188979471D01*
X91266190Y-188967199D01*
X91240196Y-188944594D01*
X91203490Y-188910100D01*
X91154267Y-188862162D01*
X91090726Y-188799224D01*
X91023305Y-188731968D01*
X90747601Y-188456477D01*
X90749533Y-188454406D01*
X90567290Y-188454406D01*
X90558984Y-188465780D01*
X90535733Y-188492563D01*
X90499865Y-188532292D01*
X90453713Y-188582507D01*
X90399606Y-188640746D01*
X90339874Y-188704547D01*
X90276848Y-188771449D01*
X90212858Y-188838990D01*
X90150236Y-188904710D01*
X90091310Y-188966146D01*
X90038412Y-189020837D01*
X89993872Y-189066322D01*
X89960020Y-189100138D01*
X89939188Y-189119826D01*
X89933506Y-189123837D01*
X89931634Y-189110891D01*
X89927746Y-189075134D01*
X89922057Y-189018804D01*
X89914781Y-188944140D01*
X89906131Y-188853380D01*
X89896322Y-188748762D01*
X89885566Y-188632526D01*
X89874079Y-188506908D01*
X89864907Y-188405618D01*
X89853174Y-188274279D01*
X89842335Y-188150552D01*
X89832570Y-188036681D01*
X89824063Y-187934911D01*
X89816995Y-187847487D01*
X89811549Y-187776653D01*
X89807908Y-187724653D01*
X89806253Y-187693732D01*
X89806442Y-187685703D01*
X89816334Y-187692854D01*
X89841524Y-187715841D01*
X89879810Y-187752439D01*
X89928989Y-187800422D01*
X89986861Y-187857566D01*
X90051222Y-187921647D01*
X90119871Y-187990438D01*
X90190605Y-188061716D01*
X90261222Y-188133255D01*
X90329520Y-188202830D01*
X90393296Y-188268217D01*
X90450350Y-188327191D01*
X90498478Y-188377527D01*
X90535478Y-188416999D01*
X90559148Y-188443383D01*
X90567290Y-188454406D01*
X90749533Y-188454406D01*
X90850409Y-188346295D01*
X90902768Y-188290377D01*
X90961535Y-188227948D01*
X91024385Y-188161443D01*
X91088995Y-188093298D01*
X91153042Y-188025948D01*
X91214203Y-187961828D01*
X91270153Y-187903372D01*
X91318570Y-187853018D01*
X91357130Y-187813198D01*
X91383509Y-187786350D01*
X91395384Y-187774908D01*
X91395805Y-187774674D01*
X91519396Y-187774674D01*
X91531401Y-187630726D01*
X92131938Y-186999158D01*
X92732475Y-186367589D01*
X92732034Y-186279315D01*
X92731592Y-186191040D01*
X92634583Y-186294666D01*
X92580291Y-186352463D01*
X92516192Y-186420368D01*
X92444016Y-186496572D01*
X92365492Y-186579269D01*
X92282349Y-186666653D01*
X92196319Y-186756915D01*
X92109130Y-186848250D01*
X92022513Y-186938849D01*
X91938197Y-187026907D01*
X91857912Y-187110615D01*
X91783387Y-187188167D01*
X91716354Y-187257757D01*
X91658541Y-187317576D01*
X91611679Y-187365818D01*
X91577496Y-187400676D01*
X91557724Y-187420343D01*
X91553390Y-187424116D01*
X91553092Y-187410992D01*
X91554731Y-187377389D01*
X91558023Y-187327880D01*
X91562682Y-187267037D01*
X91564682Y-187242732D01*
X91579577Y-187064951D01*
X91462955Y-187064951D01*
X91456934Y-187093243D01*
X91453863Y-187115618D01*
X91449548Y-187157717D01*
X91444488Y-187214178D01*
X91439181Y-187279635D01*
X91437344Y-187303862D01*
X91431927Y-187373421D01*
X91426459Y-187438018D01*
X91421488Y-187491548D01*
X91417561Y-187527910D01*
X91416675Y-187534509D01*
X91413334Y-187548056D01*
X91406101Y-187563914D01*
X91393440Y-187583861D01*
X91373811Y-187609673D01*
X91345678Y-187643129D01*
X91307502Y-187686007D01*
X91257746Y-187740083D01*
X91194871Y-187807136D01*
X91117341Y-187888943D01*
X91038251Y-187971950D01*
X90959564Y-188054094D01*
X90886112Y-188130169D01*
X90819724Y-188198325D01*
X90762227Y-188256712D01*
X90715451Y-188303481D01*
X90681224Y-188336782D01*
X90661373Y-188354767D01*
X90657140Y-188357442D01*
X90646003Y-188347741D01*
X90619971Y-188322441D01*
X90581570Y-188284082D01*
X90533328Y-188235200D01*
X90477770Y-188178334D01*
X90437592Y-188136906D01*
X90227831Y-187920000D01*
X90846337Y-187920000D01*
X90846337Y-187681089D01*
X90091881Y-187681089D01*
X90091881Y-187787542D01*
X89953565Y-187649654D01*
X89855447Y-187551840D01*
X89664357Y-187551840D01*
X89662529Y-187567270D01*
X89653277Y-187575867D01*
X89630950Y-187579613D01*
X89589895Y-187580489D01*
X89582624Y-187580495D01*
X89500891Y-187580495D01*
X89500891Y-187361172D01*
X89582624Y-187442179D01*
X89628730Y-187491428D01*
X89656306Y-187529159D01*
X89664357Y-187551840D01*
X89855447Y-187551840D01*
X89815248Y-187511766D01*
X89815248Y-187388952D01*
X89814863Y-187332450D01*
X89813100Y-187296505D01*
X89809050Y-187276530D01*
X89801801Y-187267937D01*
X89790870Y-187266139D01*
X89778712Y-187263498D01*
X89769727Y-187252912D01*
X89762826Y-187230381D01*
X89756924Y-187191909D01*
X89750935Y-187133498D01*
X89749013Y-187112104D01*
X89744852Y-187064951D01*
X91462955Y-187064951D01*
X91579577Y-187064951D01*
X91739109Y-187064951D01*
X91739109Y-186951782D01*
X91671314Y-186951782D01*
X91631662Y-186950696D01*
X91610116Y-186945454D01*
X91607480Y-186942334D01*
X91468616Y-186942334D01*
X91461308Y-186949462D01*
X91435993Y-186951662D01*
X91418908Y-186951782D01*
X91361881Y-186951782D01*
X91149221Y-186951782D01*
X89734698Y-186951782D01*
X89782542Y-186902786D01*
X89856850Y-186842324D01*
X89948816Y-186795691D01*
X90059998Y-186762249D01*
X90170471Y-186743753D01*
X90242773Y-186735122D01*
X90242773Y-186826040D01*
X90821188Y-186826040D01*
X90821188Y-186722893D01*
X90906065Y-186731496D01*
X90965368Y-186738756D01*
X91028551Y-186748379D01*
X91066386Y-186755252D01*
X91141832Y-186770407D01*
X91145526Y-186861095D01*
X91149221Y-186951782D01*
X91361881Y-186951782D01*
X91361881Y-186901485D01*
X91363544Y-186869976D01*
X91367697Y-186852463D01*
X91369371Y-186851188D01*
X91387987Y-186859254D01*
X91415183Y-186878820D01*
X91442448Y-186902944D01*
X91461267Y-186924682D01*
X91462943Y-186927508D01*
X91468616Y-186942334D01*
X91607480Y-186942334D01*
X91599662Y-186933081D01*
X91595442Y-186919604D01*
X91578219Y-186884627D01*
X91545138Y-186842579D01*
X91501893Y-186799356D01*
X91454174Y-186760854D01*
X91422830Y-186740801D01*
X91387123Y-186718851D01*
X91368819Y-186700411D01*
X91362388Y-186678668D01*
X91361894Y-186665718D01*
X91361894Y-186662575D01*
X90720594Y-186662575D01*
X90720594Y-186725446D01*
X90343367Y-186725446D01*
X90343367Y-186662575D01*
X90720594Y-186662575D01*
X91361894Y-186662575D01*
X91361881Y-186624852D01*
X91256048Y-186624852D01*
X91207355Y-186626029D01*
X91169405Y-186629165D01*
X91148308Y-186633671D01*
X91146023Y-186635495D01*
X91132641Y-186638295D01*
X91100074Y-186637148D01*
X91053916Y-186632393D01*
X91022376Y-186628003D01*
X90965188Y-186619378D01*
X90912886Y-186611591D01*
X90873582Y-186605847D01*
X90862055Y-186604215D01*
X90831937Y-186594888D01*
X90821188Y-186580272D01*
X90817920Y-186574320D01*
X90806230Y-186569778D01*
X90783288Y-186566470D01*
X90746265Y-186564215D01*
X90692332Y-186562834D01*
X90618660Y-186562150D01*
X90531980Y-186561980D01*
X90439471Y-186562077D01*
X90369094Y-186562530D01*
X90317836Y-186563590D01*
X90282680Y-186565503D01*
X90260611Y-186568519D01*
X90248615Y-186572885D01*
X90243676Y-186578849D01*
X90242773Y-186585784D01*
X90235079Y-186607795D01*
X90209879Y-186620321D01*
X90163991Y-186624788D01*
X90155736Y-186624852D01*
X90078027Y-186632868D01*
X89989767Y-186654936D01*
X89898915Y-186688084D01*
X89813430Y-186729339D01*
X89741274Y-186775731D01*
X89731928Y-186783082D01*
X89701467Y-186806998D01*
X89683428Y-186816576D01*
X89670831Y-186813480D01*
X89657900Y-186800704D01*
X89619707Y-186775678D01*
X89570002Y-186766071D01*
X89516476Y-186771067D01*
X89466822Y-186789851D01*
X89428733Y-186821606D01*
X89425975Y-186825297D01*
X89397474Y-186884575D01*
X89392172Y-186945934D01*
X89409482Y-187004427D01*
X89448820Y-187055104D01*
X89453630Y-187059289D01*
X89481560Y-187079167D01*
X89509898Y-187087921D01*
X89549737Y-187088553D01*
X89559689Y-187087992D01*
X89598668Y-187086562D01*
X89618746Y-187089839D01*
X89626015Y-187099728D01*
X89626760Y-187108961D01*
X89628284Y-187135744D01*
X89632065Y-187176025D01*
X89634782Y-187200124D01*
X89638723Y-187238401D01*
X89637084Y-187257996D01*
X89627579Y-187265158D01*
X89610649Y-187266139D01*
X89600608Y-187262901D01*
X89584410Y-187252420D01*
X89560855Y-187233548D01*
X89528743Y-187205135D01*
X89486872Y-187166035D01*
X89434043Y-187115097D01*
X89369055Y-187051173D01*
X89290709Y-186973114D01*
X89197803Y-186879772D01*
X89089137Y-186769998D01*
X89036769Y-186716952D01*
X88494951Y-186167767D01*
X88495570Y-186254848D01*
G37*
X88495570Y-186254848D02*
X88496189Y-186341931D01*
X88947914Y-186800891D01*
X89399639Y-187259852D01*
X89399968Y-187470471D01*
X89400297Y-187681089D01*
X89675390Y-187681089D01*
X89682478Y-187734530D01*
X89685162Y-187758888D01*
X89689687Y-187804759D01*
X89695809Y-187869405D01*
X89703288Y-187950091D01*
X89711881Y-188044081D01*
X89721346Y-188148637D01*
X89731442Y-188261025D01*
X89741926Y-188378507D01*
X89752556Y-188498348D01*
X89763091Y-188617811D01*
X89773287Y-188734159D01*
X89782905Y-188844657D01*
X89791700Y-188946569D01*
X89799432Y-189037158D01*
X89805858Y-189113687D01*
X89810737Y-189173421D01*
X89813825Y-189213624D01*
X89814883Y-189231559D01*
X89814882Y-189231644D01*
X89807173Y-189246035D01*
X89784019Y-189275748D01*
X89745105Y-189321131D01*
X89690116Y-189382529D01*
X89618736Y-189460288D01*
X89530651Y-189554754D01*
X89425546Y-189666272D01*
X89303105Y-189795188D01*
X89268690Y-189831287D01*
X88722863Y-190403416D01*
X88811119Y-190491436D01*
X88882515Y-190413758D01*
X88908634Y-190385686D01*
X88949434Y-190342274D01*
X89002223Y-190286366D01*
X89064309Y-190220808D01*
X89133000Y-190148441D01*
X89205604Y-190072112D01*
X89249040Y-190026524D01*
X89330584Y-189941119D01*
X89396496Y-189872710D01*
X89448456Y-189820053D01*
X89488145Y-189781905D01*
X89517243Y-189757020D01*
X89537431Y-189744156D01*
X89550390Y-189742068D01*
X89557800Y-189749513D01*
X89561342Y-189765246D01*
X89562697Y-189788023D01*
X89562879Y-189794239D01*
X89572297Y-189837061D01*
X89595503Y-189888819D01*
X89627864Y-189941328D01*
X89664748Y-189986403D01*
X89679507Y-190000328D01*
X89755233Y-190049047D01*
X89843692Y-190076306D01*
X89921900Y-190082773D01*
X90010532Y-190070576D01*
X90092388Y-190034813D01*
X90164836Y-189976722D01*
X90178203Y-189962262D01*
X90227082Y-189906733D01*
X91072674Y-189906733D01*
X91072674Y-190082773D01*
X91299010Y-190082773D01*
X91299010Y-190000531D01*
X91301850Y-189944386D01*
X91311393Y-189905416D01*
X91322991Y-189884219D01*
X91331277Y-189869052D01*
X91338373Y-189847062D01*
X91344748Y-189814987D01*
X91350872Y-189769569D01*
X91357216Y-189707548D01*
X91364250Y-189625662D01*
X91369066Y-189564746D01*
X91391161Y-189279343D01*
X91933565Y-189828805D01*
X92031637Y-189928228D01*
X92125784Y-190023815D01*
X92214285Y-190113810D01*
X92295420Y-190196457D01*
X92367469Y-190270001D01*
X92428712Y-190332684D01*
X92477427Y-190382752D01*
X92511896Y-190418448D01*
X92530379Y-190437995D01*
X92560743Y-190468944D01*
X92586071Y-190490530D01*
X92599695Y-190497723D01*
X92617095Y-190489297D01*
X92642460Y-190468245D01*
X92651058Y-190459671D01*
X92687514Y-190421620D01*
X92486802Y-190217658D01*
X92435596Y-190165699D01*
X92369569Y-190098820D01*
X92291618Y-190019950D01*
X92204638Y-189932014D01*
X92111526Y-189837941D01*
X92015179Y-189740658D01*
X91918492Y-189643093D01*
X91849134Y-189573145D01*
X91743703Y-189466550D01*
X91655129Y-189376307D01*
X91582281Y-189301192D01*
X91524023Y-189239986D01*
X91479225Y-189191466D01*
X91457021Y-189166129D01*
X91278724Y-189166129D01*
X91256401Y-189451555D01*
X91249669Y-189535219D01*
X91243157Y-189611727D01*
X91237234Y-189677081D01*
X91232268Y-189727281D01*
X91228629Y-189758329D01*
X91227458Y-189765273D01*
X91220838Y-189793565D01*
X90271364Y-189793565D01*
X90265026Y-189714606D01*
X90245890Y-189621315D01*
X90205846Y-189538791D01*
X90147418Y-189470038D01*
X90073129Y-189418063D01*
X89989748Y-189386863D01*
X89962698Y-189372228D01*
X89949156Y-189340819D01*
X89948872Y-189339434D01*
X89947247Y-189326174D01*
X89949256Y-189312595D01*
X89956858Y-189296181D01*
X89972016Y-189274411D01*
X89996688Y-189244767D01*
X90032836Y-189204732D01*
X90082420Y-189151785D01*
X90147401Y-189083409D01*
X90151599Y-189079005D01*
X90221493Y-189005611D01*
X90295800Y-188927437D01*
X90369414Y-188849864D01*
X90437229Y-188778275D01*
X90494140Y-188718051D01*
X90506832Y-188704587D01*
X90555487Y-188653820D01*
X90598709Y-188610375D01*
X90633395Y-188577241D01*
X90656444Y-188557405D01*
X90664182Y-188553046D01*
X90675722Y-188562170D01*
X90702710Y-188587200D01*
X90743021Y-188626052D01*
X90794529Y-188676643D01*
X90855109Y-188736888D01*
X90922636Y-188804704D01*
X90977826Y-188860565D01*
X91278724Y-189166129D01*
X91457021Y-189166129D01*
X91446751Y-189154411D01*
X91425471Y-189127599D01*
X91414251Y-189109808D01*
X91411754Y-189101570D01*
X91412700Y-189083590D01*
X91415573Y-189042892D01*
X91420187Y-188981819D01*
X91426358Y-188902713D01*
X91433898Y-188807914D01*
X91442621Y-188699767D01*
X91452343Y-188580612D01*
X91462876Y-188452791D01*
X91471365Y-188350635D01*
X91519396Y-187774674D01*
X91395805Y-187774674D01*
X91395273Y-187787104D01*
X91392769Y-187822110D01*
X91388496Y-187877215D01*
X91382653Y-187949943D01*
X91375443Y-188037814D01*
X91367066Y-188138351D01*
X91357723Y-188249077D01*
X91348758Y-188354205D01*
X91338602Y-188473483D01*
X91329142Y-188586080D01*
X91320596Y-188689305D01*
X91313179Y-188780473D01*
X91307108Y-188856895D01*
X91302601Y-188915883D01*
X91299873Y-188954749D01*
X91299116Y-188969844D01*
X91297935Y-188979238D01*
X91293256Y-188982966D01*
X91283276Y-188979471D01*
X91266190Y-188967199D01*
X91240196Y-188944594D01*
X91203490Y-188910100D01*
X91154267Y-188862162D01*
X91090726Y-188799224D01*
X91023305Y-188731968D01*
X90747601Y-188456477D01*
X90749533Y-188454406D01*
X90567290Y-188454406D01*
X90558984Y-188465780D01*
X90535733Y-188492563D01*
X90499865Y-188532292D01*
X90453713Y-188582507D01*
X90399606Y-188640746D01*
X90339874Y-188704547D01*
X90276848Y-188771449D01*
X90212858Y-188838990D01*
X90150236Y-188904710D01*
X90091310Y-188966146D01*
X90038412Y-189020837D01*
X89993872Y-189066322D01*
X89960020Y-189100138D01*
X89939188Y-189119826D01*
X89933506Y-189123837D01*
X89931634Y-189110891D01*
X89927746Y-189075134D01*
X89922057Y-189018804D01*
X89914781Y-188944140D01*
X89906131Y-188853380D01*
X89896322Y-188748762D01*
X89885566Y-188632526D01*
X89874079Y-188506908D01*
X89864907Y-188405618D01*
X89853174Y-188274279D01*
X89842335Y-188150552D01*
X89832570Y-188036681D01*
X89824063Y-187934911D01*
X89816995Y-187847487D01*
X89811549Y-187776653D01*
X89807908Y-187724653D01*
X89806253Y-187693732D01*
X89806442Y-187685703D01*
X89816334Y-187692854D01*
X89841524Y-187715841D01*
X89879810Y-187752439D01*
X89928989Y-187800422D01*
X89986861Y-187857566D01*
X90051222Y-187921647D01*
X90119871Y-187990438D01*
X90190605Y-188061716D01*
X90261222Y-188133255D01*
X90329520Y-188202830D01*
X90393296Y-188268217D01*
X90450350Y-188327191D01*
X90498478Y-188377527D01*
X90535478Y-188416999D01*
X90559148Y-188443383D01*
X90567290Y-188454406D01*
X90749533Y-188454406D01*
X90850409Y-188346295D01*
X90902768Y-188290377D01*
X90961535Y-188227948D01*
X91024385Y-188161443D01*
X91088995Y-188093298D01*
X91153042Y-188025948D01*
X91214203Y-187961828D01*
X91270153Y-187903372D01*
X91318570Y-187853018D01*
X91357130Y-187813198D01*
X91383509Y-187786350D01*
X91395384Y-187774908D01*
X91395805Y-187774674D01*
X91519396Y-187774674D01*
X91531401Y-187630726D01*
X92131938Y-186999158D01*
X92732475Y-186367589D01*
X92732034Y-186279315D01*
X92731592Y-186191040D01*
X92634583Y-186294666D01*
X92580291Y-186352463D01*
X92516192Y-186420368D01*
X92444016Y-186496572D01*
X92365492Y-186579269D01*
X92282349Y-186666653D01*
X92196319Y-186756915D01*
X92109130Y-186848250D01*
X92022513Y-186938849D01*
X91938197Y-187026907D01*
X91857912Y-187110615D01*
X91783387Y-187188167D01*
X91716354Y-187257757D01*
X91658541Y-187317576D01*
X91611679Y-187365818D01*
X91577496Y-187400676D01*
X91557724Y-187420343D01*
X91553390Y-187424116D01*
X91553092Y-187410992D01*
X91554731Y-187377389D01*
X91558023Y-187327880D01*
X91562682Y-187267037D01*
X91564682Y-187242732D01*
X91579577Y-187064951D01*
X91462955Y-187064951D01*
X91456934Y-187093243D01*
X91453863Y-187115618D01*
X91449548Y-187157717D01*
X91444488Y-187214178D01*
X91439181Y-187279635D01*
X91437344Y-187303862D01*
X91431927Y-187373421D01*
X91426459Y-187438018D01*
X91421488Y-187491548D01*
X91417561Y-187527910D01*
X91416675Y-187534509D01*
X91413334Y-187548056D01*
X91406101Y-187563914D01*
X91393440Y-187583861D01*
X91373811Y-187609673D01*
X91345678Y-187643129D01*
X91307502Y-187686007D01*
X91257746Y-187740083D01*
X91194871Y-187807136D01*
X91117341Y-187888943D01*
X91038251Y-187971950D01*
X90959564Y-188054094D01*
X90886112Y-188130169D01*
X90819724Y-188198325D01*
X90762227Y-188256712D01*
X90715451Y-188303481D01*
X90681224Y-188336782D01*
X90661373Y-188354767D01*
X90657140Y-188357442D01*
X90646003Y-188347741D01*
X90619971Y-188322441D01*
X90581570Y-188284082D01*
X90533328Y-188235200D01*
X90477770Y-188178334D01*
X90437592Y-188136906D01*
X90227831Y-187920000D01*
X90846337Y-187920000D01*
X90846337Y-187681089D01*
X90091881Y-187681089D01*
X90091881Y-187787542D01*
X89953565Y-187649654D01*
X89855447Y-187551840D01*
X89664357Y-187551840D01*
X89662529Y-187567270D01*
X89653277Y-187575867D01*
X89630950Y-187579613D01*
X89589895Y-187580489D01*
X89582624Y-187580495D01*
X89500891Y-187580495D01*
X89500891Y-187361172D01*
X89582624Y-187442179D01*
X89628730Y-187491428D01*
X89656306Y-187529159D01*
X89664357Y-187551840D01*
X89855447Y-187551840D01*
X89815248Y-187511766D01*
X89815248Y-187388952D01*
X89814863Y-187332450D01*
X89813100Y-187296505D01*
X89809050Y-187276530D01*
X89801801Y-187267937D01*
X89790870Y-187266139D01*
X89778712Y-187263498D01*
X89769727Y-187252912D01*
X89762826Y-187230381D01*
X89756924Y-187191909D01*
X89750935Y-187133498D01*
X89749013Y-187112104D01*
X89744852Y-187064951D01*
X91462955Y-187064951D01*
X91579577Y-187064951D01*
X91739109Y-187064951D01*
X91739109Y-186951782D01*
X91671314Y-186951782D01*
X91631662Y-186950696D01*
X91610116Y-186945454D01*
X91607480Y-186942334D01*
X91468616Y-186942334D01*
X91461308Y-186949462D01*
X91435993Y-186951662D01*
X91418908Y-186951782D01*
X91361881Y-186951782D01*
X91149221Y-186951782D01*
X89734698Y-186951782D01*
X89782542Y-186902786D01*
X89856850Y-186842324D01*
X89948816Y-186795691D01*
X90059998Y-186762249D01*
X90170471Y-186743753D01*
X90242773Y-186735122D01*
X90242773Y-186826040D01*
X90821188Y-186826040D01*
X90821188Y-186722893D01*
X90906065Y-186731496D01*
X90965368Y-186738756D01*
X91028551Y-186748379D01*
X91066386Y-186755252D01*
X91141832Y-186770407D01*
X91145526Y-186861095D01*
X91149221Y-186951782D01*
X91361881Y-186951782D01*
X91361881Y-186901485D01*
X91363544Y-186869976D01*
X91367697Y-186852463D01*
X91369371Y-186851188D01*
X91387987Y-186859254D01*
X91415183Y-186878820D01*
X91442448Y-186902944D01*
X91461267Y-186924682D01*
X91462943Y-186927508D01*
X91468616Y-186942334D01*
X91607480Y-186942334D01*
X91599662Y-186933081D01*
X91595442Y-186919604D01*
X91578219Y-186884627D01*
X91545138Y-186842579D01*
X91501893Y-186799356D01*
X91454174Y-186760854D01*
X91422830Y-186740801D01*
X91387123Y-186718851D01*
X91368819Y-186700411D01*
X91362388Y-186678668D01*
X91361894Y-186665718D01*
X91361894Y-186662575D01*
X90720594Y-186662575D01*
X90720594Y-186725446D01*
X90343367Y-186725446D01*
X90343367Y-186662575D01*
X90720594Y-186662575D01*
X91361894Y-186662575D01*
X91361881Y-186624852D01*
X91256048Y-186624852D01*
X91207355Y-186626029D01*
X91169405Y-186629165D01*
X91148308Y-186633671D01*
X91146023Y-186635495D01*
X91132641Y-186638295D01*
X91100074Y-186637148D01*
X91053916Y-186632393D01*
X91022376Y-186628003D01*
X90965188Y-186619378D01*
X90912886Y-186611591D01*
X90873582Y-186605847D01*
X90862055Y-186604215D01*
X90831937Y-186594888D01*
X90821188Y-186580272D01*
X90817920Y-186574320D01*
X90806230Y-186569778D01*
X90783288Y-186566470D01*
X90746265Y-186564215D01*
X90692332Y-186562834D01*
X90618660Y-186562150D01*
X90531980Y-186561980D01*
X90439471Y-186562077D01*
X90369094Y-186562530D01*
X90317836Y-186563590D01*
X90282680Y-186565503D01*
X90260611Y-186568519D01*
X90248615Y-186572885D01*
X90243676Y-186578849D01*
X90242773Y-186585784D01*
X90235079Y-186607795D01*
X90209879Y-186620321D01*
X90163991Y-186624788D01*
X90155736Y-186624852D01*
X90078027Y-186632868D01*
X89989767Y-186654936D01*
X89898915Y-186688084D01*
X89813430Y-186729339D01*
X89741274Y-186775731D01*
X89731928Y-186783082D01*
X89701467Y-186806998D01*
X89683428Y-186816576D01*
X89670831Y-186813480D01*
X89657900Y-186800704D01*
X89619707Y-186775678D01*
X89570002Y-186766071D01*
X89516476Y-186771067D01*
X89466822Y-186789851D01*
X89428733Y-186821606D01*
X89425975Y-186825297D01*
X89397474Y-186884575D01*
X89392172Y-186945934D01*
X89409482Y-187004427D01*
X89448820Y-187055104D01*
X89453630Y-187059289D01*
X89481560Y-187079167D01*
X89509898Y-187087921D01*
X89549737Y-187088553D01*
X89559689Y-187087992D01*
X89598668Y-187086562D01*
X89618746Y-187089839D01*
X89626015Y-187099728D01*
X89626760Y-187108961D01*
X89628284Y-187135744D01*
X89632065Y-187176025D01*
X89634782Y-187200124D01*
X89638723Y-187238401D01*
X89637084Y-187257996D01*
X89627579Y-187265158D01*
X89610649Y-187266139D01*
X89600608Y-187262901D01*
X89584410Y-187252420D01*
X89560855Y-187233548D01*
X89528743Y-187205135D01*
X89486872Y-187166035D01*
X89434043Y-187115097D01*
X89369055Y-187051173D01*
X89290709Y-186973114D01*
X89197803Y-186879772D01*
X89089137Y-186769998D01*
X89036769Y-186716952D01*
X88494951Y-186167767D01*
X88495570Y-186254848D01*
G36*
X88872178Y-192207822D02*
G01*
X92392971Y-192207822D01*
X92392971Y-191340198D01*
X88872178Y-191340198D01*
X88872178Y-192207822D01*
G37*
X88872178Y-192207822D02*
X92392971Y-192207822D01*
X92392971Y-191340198D01*
X88872178Y-191340198D01*
X88872178Y-192207822D01*
%TO.C,G\u002A\u002A\u002A*%
G36*
X148275830Y-166147491D02*
G01*
X147937101Y-166199411D01*
X147574349Y-166296865D01*
X147526322Y-166312639D01*
X147103341Y-166479160D01*
X146691451Y-166689450D01*
X146302121Y-166936457D01*
X145946822Y-167213135D01*
X145726529Y-167418641D01*
X145481440Y-167697671D01*
X145281067Y-167992193D01*
X145126592Y-168297500D01*
X145019199Y-168608886D01*
X144960069Y-168921643D01*
X144950386Y-169231066D01*
X144991331Y-169532446D01*
X145084087Y-169821079D01*
X145108947Y-169876834D01*
X145191843Y-170053977D01*
X144247499Y-170949550D01*
X143303156Y-171845122D01*
X143763929Y-172287718D01*
X143896833Y-172414731D01*
X144016213Y-172527585D01*
X144116113Y-172620749D01*
X144190573Y-172688692D01*
X144233636Y-172725882D01*
X144241654Y-172731232D01*
X144263892Y-172711618D01*
X144320845Y-172655097D01*
X144408585Y-172565733D01*
X144523183Y-172447590D01*
X144660711Y-172304733D01*
X144817242Y-172141224D01*
X144988846Y-171961128D01*
X145140248Y-171801606D01*
X145363303Y-171566972D01*
X145550807Y-171371562D01*
X145705175Y-171213001D01*
X145828821Y-171088915D01*
X145924160Y-170996927D01*
X145993607Y-170934664D01*
X146039575Y-170899750D01*
X146064480Y-170889810D01*
X146066644Y-170890366D01*
X146398761Y-171008472D01*
X146722709Y-171071595D01*
X147042239Y-171079612D01*
X147361098Y-171032406D01*
X147683036Y-170929854D01*
X147899535Y-170831534D01*
X148191970Y-170655376D01*
X148476753Y-170429335D01*
X148749222Y-170159767D01*
X149004715Y-169853029D01*
X149238573Y-169515477D01*
X149446133Y-169153469D01*
X149622736Y-168773360D01*
X149763719Y-168381507D01*
X149807254Y-168229832D01*
X149838523Y-168103158D01*
X149859527Y-167989354D01*
X149872204Y-167870798D01*
X149878488Y-167729863D01*
X149880290Y-167564856D01*
X149879348Y-167395709D01*
X149874749Y-167269760D01*
X149865124Y-167173935D01*
X149849105Y-167095159D01*
X149825324Y-167020356D01*
X149822527Y-167012753D01*
X149702544Y-166761353D01*
X149545892Y-166551632D01*
X149354379Y-166384141D01*
X149129809Y-166259431D01*
X148873990Y-166178052D01*
X148588728Y-166140555D01*
X148275830Y-166147491D01*
G37*
X148275830Y-166147491D02*
X147937101Y-166199411D01*
X147574349Y-166296865D01*
X147526322Y-166312639D01*
X147103341Y-166479160D01*
X146691451Y-166689450D01*
X146302121Y-166936457D01*
X145946822Y-167213135D01*
X145726529Y-167418641D01*
X145481440Y-167697671D01*
X145281067Y-167992193D01*
X145126592Y-168297500D01*
X145019199Y-168608886D01*
X144960069Y-168921643D01*
X144950386Y-169231066D01*
X144991331Y-169532446D01*
X145084087Y-169821079D01*
X145108947Y-169876834D01*
X145191843Y-170053977D01*
X144247499Y-170949550D01*
X143303156Y-171845122D01*
X143763929Y-172287718D01*
X143896833Y-172414731D01*
X144016213Y-172527585D01*
X144116113Y-172620749D01*
X144190573Y-172688692D01*
X144233636Y-172725882D01*
X144241654Y-172731232D01*
X144263892Y-172711618D01*
X144320845Y-172655097D01*
X144408585Y-172565733D01*
X144523183Y-172447590D01*
X144660711Y-172304733D01*
X144817242Y-172141224D01*
X144988846Y-171961128D01*
X145140248Y-171801606D01*
X145363303Y-171566972D01*
X145550807Y-171371562D01*
X145705175Y-171213001D01*
X145828821Y-171088915D01*
X145924160Y-170996927D01*
X145993607Y-170934664D01*
X146039575Y-170899750D01*
X146064480Y-170889810D01*
X146066644Y-170890366D01*
X146398761Y-171008472D01*
X146722709Y-171071595D01*
X147042239Y-171079612D01*
X147361098Y-171032406D01*
X147683036Y-170929854D01*
X147899535Y-170831534D01*
X148191970Y-170655376D01*
X148476753Y-170429335D01*
X148749222Y-170159767D01*
X149004715Y-169853029D01*
X149238573Y-169515477D01*
X149446133Y-169153469D01*
X149622736Y-168773360D01*
X149763719Y-168381507D01*
X149807254Y-168229832D01*
X149838523Y-168103158D01*
X149859527Y-167989354D01*
X149872204Y-167870798D01*
X149878488Y-167729863D01*
X149880290Y-167564856D01*
X149879348Y-167395709D01*
X149874749Y-167269760D01*
X149865124Y-167173935D01*
X149849105Y-167095159D01*
X149825324Y-167020356D01*
X149822527Y-167012753D01*
X149702544Y-166761353D01*
X149545892Y-166551632D01*
X149354379Y-166384141D01*
X149129809Y-166259431D01*
X148873990Y-166178052D01*
X148588728Y-166140555D01*
X148275830Y-166147491D01*
G36*
X139816262Y-175151708D02*
G01*
X139550285Y-175403892D01*
X139292025Y-175649028D01*
X139044993Y-175883769D01*
X138812700Y-176104764D01*
X138598658Y-176308666D01*
X138406378Y-176492126D01*
X138239370Y-176651795D01*
X138101147Y-176784326D01*
X137995219Y-176886369D01*
X137925097Y-176954576D01*
X137906027Y-176973471D01*
X137697996Y-177182197D01*
X137714715Y-177323367D01*
X137737952Y-177426386D01*
X137780714Y-177546488D01*
X137820018Y-177630736D01*
X137905083Y-177760089D01*
X138024011Y-177901192D01*
X138162133Y-178039575D01*
X138304777Y-178160770D01*
X138437275Y-178250309D01*
X138461209Y-178263115D01*
X138571382Y-178308187D01*
X138691324Y-178340600D01*
X138802929Y-178356941D01*
X138888090Y-178353794D01*
X138908340Y-178347438D01*
X138933054Y-178324883D01*
X138992847Y-178265046D01*
X139084409Y-178171414D01*
X139204430Y-178047477D01*
X139349601Y-177896723D01*
X139516610Y-177722641D01*
X139702148Y-177528719D01*
X139902905Y-177318445D01*
X140115570Y-177095308D01*
X140336834Y-176862798D01*
X140563386Y-176624401D01*
X140791916Y-176383607D01*
X141019115Y-176143904D01*
X141241672Y-175908781D01*
X141456276Y-175681727D01*
X141659619Y-175466229D01*
X141848389Y-175265777D01*
X142019278Y-175083858D01*
X142168974Y-174923962D01*
X142294167Y-174789577D01*
X142391548Y-174684191D01*
X142457806Y-174611294D01*
X142489631Y-174574373D01*
X142492023Y-174570574D01*
X142473028Y-174545025D01*
X142420065Y-174484824D01*
X142338425Y-174395696D01*
X142233401Y-174283365D01*
X142110286Y-174153558D01*
X142004814Y-174043560D01*
X141518465Y-173538672D01*
X139816262Y-175151708D01*
G37*
X139816262Y-175151708D02*
X139550285Y-175403892D01*
X139292025Y-175649028D01*
X139044993Y-175883769D01*
X138812700Y-176104764D01*
X138598658Y-176308666D01*
X138406378Y-176492126D01*
X138239370Y-176651795D01*
X138101147Y-176784326D01*
X137995219Y-176886369D01*
X137925097Y-176954576D01*
X137906027Y-176973471D01*
X137697996Y-177182197D01*
X137714715Y-177323367D01*
X137737952Y-177426386D01*
X137780714Y-177546488D01*
X137820018Y-177630736D01*
X137905083Y-177760089D01*
X138024011Y-177901192D01*
X138162133Y-178039575D01*
X138304777Y-178160770D01*
X138437275Y-178250309D01*
X138461209Y-178263115D01*
X138571382Y-178308187D01*
X138691324Y-178340600D01*
X138802929Y-178356941D01*
X138888090Y-178353794D01*
X138908340Y-178347438D01*
X138933054Y-178324883D01*
X138992847Y-178265046D01*
X139084409Y-178171414D01*
X139204430Y-178047477D01*
X139349601Y-177896723D01*
X139516610Y-177722641D01*
X139702148Y-177528719D01*
X139902905Y-177318445D01*
X140115570Y-177095308D01*
X140336834Y-176862798D01*
X140563386Y-176624401D01*
X140791916Y-176383607D01*
X141019115Y-176143904D01*
X141241672Y-175908781D01*
X141456276Y-175681727D01*
X141659619Y-175466229D01*
X141848389Y-175265777D01*
X142019278Y-175083858D01*
X142168974Y-174923962D01*
X142294167Y-174789577D01*
X142391548Y-174684191D01*
X142457806Y-174611294D01*
X142489631Y-174574373D01*
X142492023Y-174570574D01*
X142473028Y-174545025D01*
X142420065Y-174484824D01*
X142338425Y-174395696D01*
X142233401Y-174283365D01*
X142110286Y-174153558D01*
X142004814Y-174043560D01*
X141518465Y-173538672D01*
X139816262Y-175151708D01*
G36*
X137583907Y-165666446D02*
G01*
X137419253Y-165738377D01*
X137386980Y-165757303D01*
X137279414Y-165822759D01*
X138046589Y-166623408D01*
X138229445Y-166814192D01*
X138411756Y-167004315D01*
X138587115Y-167187100D01*
X138749112Y-167355871D01*
X138891341Y-167503953D01*
X139007394Y-167624670D01*
X139090463Y-167710931D01*
X139202158Y-167828328D01*
X139279550Y-167914746D01*
X139328654Y-167978525D01*
X139355492Y-168028003D01*
X139366080Y-168071521D01*
X139367162Y-168094329D01*
X139343772Y-168205625D01*
X139281814Y-168294976D01*
X139193605Y-168353351D01*
X139091461Y-168371720D01*
X139013191Y-168353841D01*
X138976309Y-168329104D01*
X138901084Y-168271182D01*
X138791843Y-168183644D01*
X138652913Y-168070061D01*
X138488622Y-167934005D01*
X138303297Y-167779045D01*
X138101265Y-167608753D01*
X137886854Y-167426700D01*
X137805636Y-167357403D01*
X137590158Y-167173570D01*
X137387618Y-167001268D01*
X137202037Y-166843886D01*
X137037438Y-166704812D01*
X136897843Y-166587433D01*
X136787275Y-166495137D01*
X136709755Y-166431311D01*
X136669306Y-166399342D01*
X136664356Y-166396230D01*
X136638644Y-166414920D01*
X136583511Y-166464942D01*
X136508771Y-166537221D01*
X136470217Y-166575739D01*
X136292304Y-166755247D01*
X137277966Y-167910940D01*
X137464983Y-168130859D01*
X137641049Y-168339138D01*
X137802732Y-168531632D01*
X137946599Y-168704195D01*
X138069218Y-168852683D01*
X138167156Y-168972950D01*
X138236982Y-169060850D01*
X138275263Y-169112239D01*
X138281500Y-169122940D01*
X138285441Y-169219972D01*
X138246288Y-169317005D01*
X138175374Y-169399552D01*
X138084029Y-169453126D01*
X138013455Y-169465632D01*
X137992253Y-169464771D01*
X137970240Y-169460286D01*
X137944210Y-169449325D01*
X137910959Y-169429033D01*
X137867279Y-169396558D01*
X137809966Y-169349046D01*
X137735814Y-169283645D01*
X137641617Y-169197500D01*
X137524170Y-169087760D01*
X137380266Y-168951571D01*
X137206700Y-168786079D01*
X137000266Y-168588431D01*
X136757759Y-168355775D01*
X136646839Y-168249295D01*
X136460108Y-168070720D01*
X136285240Y-167904820D01*
X136126524Y-167755569D01*
X135988249Y-167626938D01*
X135874704Y-167522899D01*
X135790176Y-167447425D01*
X135738955Y-167404486D01*
X135725406Y-167395898D01*
X135689420Y-167420037D01*
X135641993Y-167483042D01*
X135590776Y-167570790D01*
X135543416Y-167669163D01*
X135507563Y-167764039D01*
X135492642Y-167825608D01*
X135484839Y-167937178D01*
X135496251Y-168052188D01*
X135529188Y-168174001D01*
X135585960Y-168305980D01*
X135668877Y-168451492D01*
X135780247Y-168613898D01*
X135922380Y-168796564D01*
X136097587Y-169002853D01*
X136308176Y-169236131D01*
X136556458Y-169499760D01*
X136844741Y-169797104D01*
X136849391Y-169801849D01*
X137087748Y-170041273D01*
X137296397Y-170241764D01*
X137481530Y-170407780D01*
X137649338Y-170543782D01*
X137806015Y-170654230D01*
X137957750Y-170743584D01*
X138110737Y-170816305D01*
X138271167Y-170876852D01*
X138395654Y-170915671D01*
X138678037Y-170973543D01*
X138971279Y-170989903D01*
X139260332Y-170965385D01*
X139530148Y-170900621D01*
X139628973Y-170863733D01*
X139721570Y-170825043D01*
X143235027Y-174531202D01*
X143602207Y-174918367D01*
X143959713Y-175295029D01*
X144305556Y-175659107D01*
X144637750Y-176008519D01*
X144954307Y-176341186D01*
X145253240Y-176655026D01*
X145532560Y-176947959D01*
X145790282Y-177217904D01*
X146024417Y-177462781D01*
X146232979Y-177680508D01*
X146413979Y-177869005D01*
X146565430Y-178026190D01*
X146685346Y-178149985D01*
X146771738Y-178238306D01*
X146822620Y-178289075D01*
X146835379Y-178300720D01*
X146915926Y-178345664D01*
X147002081Y-178359972D01*
X147109167Y-178344084D01*
X147215260Y-178311643D01*
X147393141Y-178228772D01*
X147565312Y-178109490D01*
X147723999Y-177963130D01*
X147861428Y-177799022D01*
X147969825Y-177626499D01*
X148041416Y-177454894D01*
X148068427Y-177293539D01*
X148068470Y-177287417D01*
X148060227Y-177189162D01*
X148028731Y-177117622D01*
X147991054Y-177072207D01*
X147962655Y-177044402D01*
X147895479Y-176979892D01*
X147791648Y-176880693D01*
X147653284Y-176748818D01*
X147482507Y-176586283D01*
X147281440Y-176395101D01*
X147052204Y-176177288D01*
X146796921Y-175934858D01*
X146517712Y-175669826D01*
X146216699Y-175384206D01*
X145896004Y-175080013D01*
X145557748Y-174759261D01*
X145204052Y-174423965D01*
X144837039Y-174076140D01*
X144458831Y-173717801D01*
X144309180Y-173576038D01*
X143927380Y-173214378D01*
X143556030Y-172862615D01*
X143197246Y-172522750D01*
X142853142Y-172196787D01*
X142525833Y-171886729D01*
X142217432Y-171594579D01*
X141930055Y-171322341D01*
X141665815Y-171072017D01*
X141426828Y-170845610D01*
X141215207Y-170645124D01*
X141033067Y-170472562D01*
X140882523Y-170329927D01*
X140765690Y-170219221D01*
X140684680Y-170142449D01*
X140641610Y-170101613D01*
X140635517Y-170095826D01*
X140566289Y-170029886D01*
X140632036Y-169895597D01*
X140740822Y-169610470D01*
X140797356Y-169309791D01*
X140801807Y-168998598D01*
X140754344Y-168681929D01*
X140655136Y-168364821D01*
X140574630Y-168184051D01*
X140509947Y-168062458D01*
X140435968Y-167942547D01*
X140348178Y-167819045D01*
X140242065Y-167686681D01*
X140113114Y-167540183D01*
X139956813Y-167374277D01*
X139768646Y-167183693D01*
X139544102Y-166963156D01*
X139458118Y-166879884D01*
X139237134Y-166666995D01*
X139051261Y-166489300D01*
X138895553Y-166342403D01*
X138765065Y-166221908D01*
X138654852Y-166123419D01*
X138559969Y-166042539D01*
X138475470Y-165974872D01*
X138396411Y-165916023D01*
X138317845Y-165861594D01*
X138297096Y-165847761D01*
X138095862Y-165730610D01*
X137914836Y-165661830D01*
X137746643Y-165640686D01*
X137583907Y-165666446D01*
G37*
X137583907Y-165666446D02*
X137419253Y-165738377D01*
X137386980Y-165757303D01*
X137279414Y-165822759D01*
X138046589Y-166623408D01*
X138229445Y-166814192D01*
X138411756Y-167004315D01*
X138587115Y-167187100D01*
X138749112Y-167355871D01*
X138891341Y-167503953D01*
X139007394Y-167624670D01*
X139090463Y-167710931D01*
X139202158Y-167828328D01*
X139279550Y-167914746D01*
X139328654Y-167978525D01*
X139355492Y-168028003D01*
X139366080Y-168071521D01*
X139367162Y-168094329D01*
X139343772Y-168205625D01*
X139281814Y-168294976D01*
X139193605Y-168353351D01*
X139091461Y-168371720D01*
X139013191Y-168353841D01*
X138976309Y-168329104D01*
X138901084Y-168271182D01*
X138791843Y-168183644D01*
X138652913Y-168070061D01*
X138488622Y-167934005D01*
X138303297Y-167779045D01*
X138101265Y-167608753D01*
X137886854Y-167426700D01*
X137805636Y-167357403D01*
X137590158Y-167173570D01*
X137387618Y-167001268D01*
X137202037Y-166843886D01*
X137037438Y-166704812D01*
X136897843Y-166587433D01*
X136787275Y-166495137D01*
X136709755Y-166431311D01*
X136669306Y-166399342D01*
X136664356Y-166396230D01*
X136638644Y-166414920D01*
X136583511Y-166464942D01*
X136508771Y-166537221D01*
X136470217Y-166575739D01*
X136292304Y-166755247D01*
X137277966Y-167910940D01*
X137464983Y-168130859D01*
X137641049Y-168339138D01*
X137802732Y-168531632D01*
X137946599Y-168704195D01*
X138069218Y-168852683D01*
X138167156Y-168972950D01*
X138236982Y-169060850D01*
X138275263Y-169112239D01*
X138281500Y-169122940D01*
X138285441Y-169219972D01*
X138246288Y-169317005D01*
X138175374Y-169399552D01*
X138084029Y-169453126D01*
X138013455Y-169465632D01*
X137992253Y-169464771D01*
X137970240Y-169460286D01*
X137944210Y-169449325D01*
X137910959Y-169429033D01*
X137867279Y-169396558D01*
X137809966Y-169349046D01*
X137735814Y-169283645D01*
X137641617Y-169197500D01*
X137524170Y-169087760D01*
X137380266Y-168951571D01*
X137206700Y-168786079D01*
X137000266Y-168588431D01*
X136757759Y-168355775D01*
X136646839Y-168249295D01*
X136460108Y-168070720D01*
X136285240Y-167904820D01*
X136126524Y-167755569D01*
X135988249Y-167626938D01*
X135874704Y-167522899D01*
X135790176Y-167447425D01*
X135738955Y-167404486D01*
X135725406Y-167395898D01*
X135689420Y-167420037D01*
X135641993Y-167483042D01*
X135590776Y-167570790D01*
X135543416Y-167669163D01*
X135507563Y-167764039D01*
X135492642Y-167825608D01*
X135484839Y-167937178D01*
X135496251Y-168052188D01*
X135529188Y-168174001D01*
X135585960Y-168305980D01*
X135668877Y-168451492D01*
X135780247Y-168613898D01*
X135922380Y-168796564D01*
X136097587Y-169002853D01*
X136308176Y-169236131D01*
X136556458Y-169499760D01*
X136844741Y-169797104D01*
X136849391Y-169801849D01*
X137087748Y-170041273D01*
X137296397Y-170241764D01*
X137481530Y-170407780D01*
X137649338Y-170543782D01*
X137806015Y-170654230D01*
X137957750Y-170743584D01*
X138110737Y-170816305D01*
X138271167Y-170876852D01*
X138395654Y-170915671D01*
X138678037Y-170973543D01*
X138971279Y-170989903D01*
X139260332Y-170965385D01*
X139530148Y-170900621D01*
X139628973Y-170863733D01*
X139721570Y-170825043D01*
X143235027Y-174531202D01*
X143602207Y-174918367D01*
X143959713Y-175295029D01*
X144305556Y-175659107D01*
X144637750Y-176008519D01*
X144954307Y-176341186D01*
X145253240Y-176655026D01*
X145532560Y-176947959D01*
X145790282Y-177217904D01*
X146024417Y-177462781D01*
X146232979Y-177680508D01*
X146413979Y-177869005D01*
X146565430Y-178026190D01*
X146685346Y-178149985D01*
X146771738Y-178238306D01*
X146822620Y-178289075D01*
X146835379Y-178300720D01*
X146915926Y-178345664D01*
X147002081Y-178359972D01*
X147109167Y-178344084D01*
X147215260Y-178311643D01*
X147393141Y-178228772D01*
X147565312Y-178109490D01*
X147723999Y-177963130D01*
X147861428Y-177799022D01*
X147969825Y-177626499D01*
X148041416Y-177454894D01*
X148068427Y-177293539D01*
X148068470Y-177287417D01*
X148060227Y-177189162D01*
X148028731Y-177117622D01*
X147991054Y-177072207D01*
X147962655Y-177044402D01*
X147895479Y-176979892D01*
X147791648Y-176880693D01*
X147653284Y-176748818D01*
X147482507Y-176586283D01*
X147281440Y-176395101D01*
X147052204Y-176177288D01*
X146796921Y-175934858D01*
X146517712Y-175669826D01*
X146216699Y-175384206D01*
X145896004Y-175080013D01*
X145557748Y-174759261D01*
X145204052Y-174423965D01*
X144837039Y-174076140D01*
X144458831Y-173717801D01*
X144309180Y-173576038D01*
X143927380Y-173214378D01*
X143556030Y-172862615D01*
X143197246Y-172522750D01*
X142853142Y-172196787D01*
X142525833Y-171886729D01*
X142217432Y-171594579D01*
X141930055Y-171322341D01*
X141665815Y-171072017D01*
X141426828Y-170845610D01*
X141215207Y-170645124D01*
X141033067Y-170472562D01*
X140882523Y-170329927D01*
X140765690Y-170219221D01*
X140684680Y-170142449D01*
X140641610Y-170101613D01*
X140635517Y-170095826D01*
X140566289Y-170029886D01*
X140632036Y-169895597D01*
X140740822Y-169610470D01*
X140797356Y-169309791D01*
X140801807Y-168998598D01*
X140754344Y-168681929D01*
X140655136Y-168364821D01*
X140574630Y-168184051D01*
X140509947Y-168062458D01*
X140435968Y-167942547D01*
X140348178Y-167819045D01*
X140242065Y-167686681D01*
X140113114Y-167540183D01*
X139956813Y-167374277D01*
X139768646Y-167183693D01*
X139544102Y-166963156D01*
X139458118Y-166879884D01*
X139237134Y-166666995D01*
X139051261Y-166489300D01*
X138895553Y-166342403D01*
X138765065Y-166221908D01*
X138654852Y-166123419D01*
X138559969Y-166042539D01*
X138475470Y-165974872D01*
X138396411Y-165916023D01*
X138317845Y-165861594D01*
X138297096Y-165847761D01*
X138095862Y-165730610D01*
X137914836Y-165661830D01*
X137746643Y-165640686D01*
X137583907Y-165666446D01*
%TD*%
M02*
